<svg xmlns="http://www.w3.org/2000/svg" width="32" height="32" viewBox="0 0 32 32" id="butterfly">
  <g transform="translate(1604.359 -2124.109)">
    <path fill="#586597" fill-rule="evenodd" d="m -1600.6618,2131.2143 a 0.50011196,0.50001633 0 0 0 -0.064,0.012 c -0.1879,0.045 -0.488,0.086 -0.795,0.1953 -0.307,0.1097 -0.7067,0.3477 -0.8028,0.8066 -0.1125,0.5365 0.058,1.0465 0.3359,1.4295 0.2779,0.3831 0.6478,0.6804 1.0236,0.9628 0.7516,0.5652 1.5088,1.0974 1.7327,1.6171 0.2455,0.5701 0.1382,1.4559 0.053,2.3886 -0.043,0.4663 -0.074,0.9451 0,1.4179 0.076,0.4726 0.2798,0.9528 0.6857,1.3143 0.6994,0.623 1.695,0.6774 2.68,0.6249 -0.2805,0.1711 -0.624,0.2903 -0.8419,0.4844 -0.5557,0.4951 -1.4047,1.1817 -1.3928,2.2323 0.031,2.7576 2.0213,5.675 4.6119,6.646 1.0627,0.3984 2.158,-0.1402 2.9164,-0.6796 0.7493,-0.5329 1.3467,-1.4932 1.8225,-2.3378 0.2017,-0.3581 0.2046,-0.399 0.3379,-0.6698 0.1334,0.2708 0.1363,0.3117 0.338,0.6698 0.4757,0.8446 1.0732,1.8049 1.8225,2.3378 0.7584,0.5394 1.8536,1.078 2.9164,0.6796 2.59,-0.9708 4.5797,-3.8871 4.6118,-6.644 0.014,-1.0519 -0.8374,-1.7395 -1.3927,-2.2343 -0.218,-0.1941 -0.5614,-0.3133 -0.8419,-0.4844 0.985,0.053 1.9806,0 2.68,-0.6249 0.4058,-0.3615 0.6094,-0.8416 0.6857,-1.3143 0.076,-0.4728 0.045,-0.9517 0,-1.4179 -0.085,-0.9327 -0.1929,-1.8186 0.053,-2.3886 0.2239,-0.5197 0.9811,-1.0519 1.7327,-1.6171 0.3757,-0.2824 0.7457,-0.5797 1.0235,-0.9628 0.278,-0.383 0.4485,-0.893 0.336,-1.4295 -0.096,-0.4588 -0.4958,-0.6969 -0.8028,-0.8066 -0.3071,-0.1096 -0.607,-0.1505 -0.795,-0.1953 a 0.50011196,0.50001633 0 0 0 -0.068,-0.012 c -3.3607,-0.325 -6.8059,1.3101 -9.5207,3.1775 -0.7737,0.5321 -1.5334,1.4794 -2.1468,2.3104 -0.3671,0.4975 -0.4457,0.6397 -0.6329,0.9257 -0.1871,-0.286 -0.2657,-0.4282 -0.6328,-0.9257 -0.6134,-0.831 -1.3731,-1.7783 -2.1468,-2.3104 -2.7084,-1.863 -6.0882,-3.5445 -9.5246,-3.1775 z" color="#000" font-family="sans-serif" font-weight="400" overflow="visible" style="line-height:normal;font-variant-ligatures:normal;font-variant-position:normal;font-variant-caps:normal;font-variant-numeric:normal;font-variant-alternates:normal;font-feature-settings:normal;text-indent:0;text-align:start;text-decoration-line:none;text-decoration-style:solid;text-decoration-color:#000;text-transform:none;text-orientation:mixed;shape-padding:0;isolation:auto;mix-blend-mode:normal"></path>
    <path fill="#bcf3d3" fill-rule="evenodd" d="m -1600.5368,2132.2083 c 3.0345,-0.3161 6.2221,1.2117 8.8331,3.0076 0.5475,0.3767 1.3207,1.2836 1.9085,2.08 0.5877,0.7964 1.0138,1.4804 1.0138,1.4804 a 0.50011196,0.50001633 0 0 0 0.8477,0 c 0,0 0.426,-0.684 1.0138,-1.4804 0.5878,-0.7964 1.361,-1.7033 1.9085,-2.08 2.6052,-1.7919 5.8777,-3.2852 8.8408,-3.0056 0.2383,0.054 0.4823,0.098 0.6408,0.1543 0.1709,0.061 0.1624,0.079 0.1601,0.068 0.052,0.2482 4e-4,0.4092 -0.166,0.6386 -0.1664,0.2295 -0.4627,0.4855 -0.8145,0.75 -0.7036,0.5291 -1.6426,1.0685 -2.053,2.0214 -0.4109,0.9551 -0.21,1.9914 -0.1289,2.8748 0.041,0.4419 0.057,0.8466 0.01,1.1659 -0.052,0.3193 -0.1522,0.5403 -0.3634,0.7284 -0.4424,0.3926 -1.7193,0.4852 -2.8773,0.3379 -1.1588,-0.1474 -2.1604,-0.4433 -2.1604,-0.4433 a 0.50011196,0.50001633 0 0 0 -0.3087,0.9492 c 0,0 0.023,0.01 0.023,0.01 10e-5,1e-4 0,0 0,0 0.022,0.01 0.6326,0.2256 1.3908,0.5605 0.772,0.3411 1.6765,0.8155 2.0941,1.1875 0.5485,0.4887 1.0625,1.0446 1.0567,1.4745 -0.026,2.258 -1.8571,4.9308 -3.9634,5.7203 -0.5148,0.193 -1.3666,-0.1171 -1.9846,-0.5566 -0.4544,-0.3233 -1.083,-1.2175 -1.5314,-2.0135 -0.4486,-0.7962 -0.7501,-1.4882 -0.7501,-1.4882 a 0.50011196,0.50001633 0 0 0 -0.9181,0 c 0,0 -0.3016,0.692 -0.7501,1.4882 -0.4485,0.796 -1.077,1.6902 -1.5314,2.0135 -0.618,0.4395 -1.4698,0.7496 -1.9846,0.5566 -2.1064,-0.7895 -3.9382,-3.4605 -3.9634,-5.7183 0,-0.4312 0.5085,-0.9861 1.0567,-1.4745 0.4175,-0.372 1.3222,-0.8464 2.094,-1.1875 0.7582,-0.3349 1.3684,-0.5525 1.3908,-0.5605 0,0 0,10e-5 0,0 3e-4,-1e-4 0.023,-0.01 0.023,-0.01 a 0.50011196,0.50001633 0 0 0 -0.3086,-0.9492 c 0,0 -1.0016,0.2959 -2.1604,0.4433 -1.1579,0.1473 -2.4349,0.055 -2.8773,-0.3379 -0.2114,-0.1881 -0.3118,-0.4091 -0.3634,-0.7284 -0.052,-0.3193 -0.035,-0.724 0.01,-1.1659 0.081,-0.884 0.2828,-1.9212 -0.1289,-2.8768 -0.4104,-0.9529 -1.3495,-1.4903 -2.0531,-2.0194 -0.3517,-0.2645 -0.648,-0.5205 -0.8145,-0.75 -0.1664,-0.2294 -0.218,-0.3904 -0.166,-0.6386 0,0.011 -0.011,-0.01 0.1601,-0.068 0.1605,-0.057 0.4075,-0.1009 0.6486,-0.1563 z" color="#000" font-family="sans-serif" font-weight="400" overflow="visible" style="line-height:normal;font-variant-ligatures:normal;font-variant-position:normal;font-variant-caps:normal;font-variant-numeric:normal;font-variant-alternates:normal;font-feature-settings:normal;text-indent:0;text-align:start;text-decoration-line:none;text-decoration-style:solid;text-decoration-color:#000;text-transform:none;text-orientation:mixed;shape-padding:0;isolation:auto;mix-blend-mode:normal"></path>
    <path fill="#586597" fill-rule="evenodd" d="m -1581.3645,2128.7339 c -3.7094,0 -6.8769,2.7187 -7.4853,6.4117 a 0.50011196,0.50001633 0 1 0 0.9864,0.1621 c 0.531,-3.2228 3.2773,-5.5738 6.4989,-5.5738 a 0.50011196,0.50001633 0 1 0 0,-1 z" color="#000" font-family="sans-serif" font-weight="400" overflow="visible" style="line-height:normal;font-variant-ligatures:normal;font-variant-position:normal;font-variant-caps:normal;font-variant-numeric:normal;font-variant-alternates:normal;font-feature-settings:normal;text-indent:0;text-align:start;text-decoration-line:none;text-decoration-style:solid;text-decoration-color:#000;text-transform:none;text-orientation:mixed;shape-padding:0;isolation:auto;mix-blend-mode:normal"></path>
    <path fill="#fbd67e" fill-rule="evenodd" d="m -1596.1789,2134.9706 c -0.247,-0.018 -0.4708,0.05 -0.6484,0.2403 -0.5899,0.6333 0.9677,1.471 1.168,2.3086 0.1343,0.5618 -0.4521,1.3664 0,1.7324 0.7681,0.6221 2.4874,0.3052 2.9238,-0.5762 0.3828,-0.773 -0.5288,-1.7278 -1.1699,-2.3105 -0.5791,-0.5262 -1.5327,-1.3416 -2.2735,-1.3946 z"></path>
    <path fill="#586597" fill-rule="evenodd" d="m -1596.1495,2134.468 c -0.3582,-0.026 -0.7688,0.096 -1.049,0.3964 -0.2599,0.2789 -0.3081,0.7267 -0.1993,1.0234 0.1089,0.2966 0.2921,0.5119 0.4747,0.7226 0.3653,0.4214 0.7329,0.8513 0.7736,1.0214 a 0.50011184,0.50001621 0 1 0 0.9727,-0.2324 c -0.1595,-0.6674 -0.6736,-1.0779 -0.9903,-1.4432 -0.1584,-0.1827 -0.2674,-0.3474 -0.2911,-0.4121 0.069,-0.073 0.1057,-0.09 0.2364,-0.08 0.1358,0.01 0.3524,0.081 0.5879,0.209 0.4712,0.2559 1.009,0.7131 1.3869,1.0565 0.3073,0.2793 0.6677,0.6448 0.8829,0.9823 0.2153,0.3377 0.259,0.5644 0.1739,0.7364 -0.1133,0.2287 -0.5113,0.4938 -0.9845,0.5858 -0.4731,0.092 -0.9626,0 -1.172,-0.1737 a 0.50031661,0.50022095 0 1 0 -0.6348,0.7733 c 0.5578,0.4584 1.311,0.5166 1.9982,0.3828 0.6873,-0.1338 1.3665,-0.4723 1.6897,-1.1249 0.2977,-0.601 0.078,-1.2388 -0.2266,-1.7167 -0.3047,-0.478 -0.719,-0.8802 -1.0528,-1.1835 -0.3943,-0.3582 -0.9627,-0.8588 -1.5823,-1.1953 -0.3097,-0.1683 -0.6361,-0.3005 -0.9942,-0.3261 z" color="#000" font-family="sans-serif" font-weight="400" overflow="visible" style="line-height:normal;font-variant-ligatures:normal;font-variant-position:normal;font-variant-caps:normal;font-variant-numeric:normal;font-variant-alternates:normal;font-feature-settings:normal;text-indent:0;text-align:start;text-decoration-line:none;text-decoration-style:solid;text-decoration-color:#000;text-transform:none;text-orientation:mixed;shape-padding:0;isolation:auto;mix-blend-mode:normal"></path>
    <path fill="#fbd67e" fill-rule="evenodd" d="m -1580.5765,2134.9665 c 0.247,-0.018 0.4708,0.05 0.6484,0.2403 0.5899,0.6333 -0.9677,1.471 -1.168,2.3086 -0.1343,0.5618 0.4521,1.3664 0,1.7324 -0.7681,0.6221 -2.4874,0.3052 -2.9238,-0.5762 -0.3828,-0.773 0.5288,-1.7278 1.1699,-2.3105 0.5791,-0.5262 1.5327,-1.3416 2.2735,-1.3946 z"></path>
    <path fill="#586597" fill-rule="evenodd" d="m -1580.5636,2134.468 c -0.3582,0.026 -0.6826,0.1578 -0.9923,0.3261 -0.6196,0.3365 -1.1881,0.8371 -1.5822,1.1953 -0.334,0.3033 -0.7502,0.7055 -1.0548,1.1835 -0.3048,0.4779 -0.5244,1.1157 -0.2267,1.7167 0.3235,0.6529 1.003,0.9885 1.6897,1.121 0.6866,0.1325 1.4381,0.075 1.9963,-0.3769 a 0.50011184,0.50001621 0 1 0 -0.629,-0.7773 c -0.21,0.1701 -0.7044,0.2631 -1.1778,0.1718 -0.4735,-0.091 -0.8695,-0.3535 -0.9826,-0.5819 -0.085,-0.172 -0.041,-0.3987 0.1739,-0.7364 0.2152,-0.3375 0.5755,-0.703 0.8829,-0.9823 0.3779,-0.3434 0.9157,-0.8006 1.3868,-1.0565 0.2357,-0.128 0.4522,-0.1993 0.588,-0.209 0.1306,-0.01 0.1669,0.01 0.2364,0.08 -0.024,0.065 -0.1327,0.2294 -0.2911,0.4121 -0.3166,0.3653 -0.8288,0.7758 -0.9883,1.4432 a 0.50011184,0.50001621 0 1 0 0.9727,0.2324 c 0.041,-0.1701 0.4064,-0.6 0.7716,-1.0214 0.1826,-0.2107 0.3658,-0.426 0.4747,-0.7226 0.1089,-0.2966 0.063,-0.7445 -0.1973,-1.0234 -0.2802,-0.3008 -0.6928,-0.422 -1.0509,-0.3964 z" color="#000" font-family="sans-serif" font-weight="400" overflow="visible" style="line-height:normal;font-variant-ligatures:normal;font-variant-position:normal;font-variant-caps:normal;font-variant-numeric:normal;font-variant-alternates:normal;font-feature-settings:normal;text-indent:0;text-align:start;text-decoration-line:none;text-decoration-style:solid;text-decoration-color:#000;text-transform:none;text-orientation:mixed;shape-padding:0;isolation:auto;mix-blend-mode:normal"></path>
    <path fill="#586597" d="m -1592.653,2143.6685 c -0.9607,0 -1.7502,0.7894 -1.7502,1.7499 0,0.9605 0.7895,1.7499 1.7502,1.7499 0.9607,0 1.7502,-0.7894 1.7502,-1.7499 0,-0.9605 -0.7895,-1.7499 -1.7502,-1.7499 z" color="#000" font-family="sans-serif" font-weight="400" overflow="visible" style="line-height:normal;font-variant-ligatures:normal;font-variant-position:normal;font-variant-caps:normal;font-variant-numeric:normal;font-variant-alternates:normal;font-feature-settings:normal;text-indent:0;text-align:start;text-decoration-line:none;text-decoration-style:solid;text-decoration-color:#000;text-transform:none;text-orientation:mixed;shape-padding:0;isolation:auto;mix-blend-mode:normal"></path>
    <path fill="#eef396" d="m -1592.653,2144.6685 c 0.4202,0 0.7501,0.3297 0.7501,0.7499 0,0.4201 -0.3299,0.75 -0.7501,0.75 -0.4202,0 -0.7501,-0.3299 -0.7501,-0.75 0,-0.4202 0.3299,-0.7499 0.7501,-0.7499 z" color="#000" font-family="sans-serif" font-weight="400" overflow="visible" style="line-height:normal;font-variant-ligatures:normal;font-variant-position:normal;font-variant-caps:normal;font-variant-numeric:normal;font-variant-alternates:normal;font-feature-settings:normal;text-indent:0;text-align:start;text-decoration-line:none;text-decoration-style:solid;text-decoration-color:#000;text-transform:none;text-orientation:mixed;shape-padding:0;isolation:auto;mix-blend-mode:normal"></path>
    <path fill="#586597" d="m -1584.0601,2143.6685 c -0.9608,0 -1.7502,0.7894 -1.7502,1.7499 0,0.9605 0.7894,1.7499 1.7502,1.7499 0.9607,0 1.7502,-0.7894 1.7502,-1.7499 0,-0.9605 -0.7895,-1.7499 -1.7502,-1.7499 z" color="#000" font-family="sans-serif" font-weight="400" overflow="visible" style="line-height:normal;font-variant-ligatures:normal;font-variant-position:normal;font-variant-caps:normal;font-variant-numeric:normal;font-variant-alternates:normal;font-feature-settings:normal;text-indent:0;text-align:start;text-decoration-line:none;text-decoration-style:solid;text-decoration-color:#000;text-transform:none;text-orientation:mixed;shape-padding:0;isolation:auto;mix-blend-mode:normal"></path>
    <path fill="#eef396" d="m -1584.0601,2144.6685 c 0.4201,0 0.7501,0.3297 0.7501,0.7499 0,0.4201 -0.33,0.75 -0.7501,0.75 -0.4203,0 -0.7501,-0.3299 -0.7501,-0.75 0,-0.4202 0.3298,-0.7499 0.7501,-0.7499 z" color="#000" font-family="sans-serif" font-weight="400" overflow="visible" style="line-height:normal;font-variant-ligatures:normal;font-variant-position:normal;font-variant-caps:normal;font-variant-numeric:normal;font-variant-alternates:normal;font-feature-settings:normal;text-indent:0;text-align:start;text-decoration-line:none;text-decoration-style:solid;text-decoration-color:#000;text-transform:none;text-orientation:mixed;shape-padding:0;isolation:auto;mix-blend-mode:normal"></path>
    <path fill="#586597" fill-rule="evenodd" d="m -1595.3506,2128.7339 a 0.50011196,0.50001633 0 1 0 0,1 c 3.2216,0 5.9679,2.351 6.4989,5.5738 a 0.50011196,0.50001633 0 1 0 0.9864,-0.1621 c -0.6084,-3.693 -3.776,-6.4117 -7.4853,-6.4117 z" color="#000" font-family="sans-serif" font-weight="400" overflow="visible" style="line-height:normal;font-variant-ligatures:normal;font-variant-position:normal;font-variant-caps:normal;font-variant-numeric:normal;font-variant-alternates:normal;font-feature-settings:normal;text-indent:0;text-align:start;text-decoration-line:none;text-decoration-style:solid;text-decoration-color:#000;text-transform:none;text-orientation:mixed;shape-padding:0;isolation:auto;mix-blend-mode:normal"></path>
  </g>
</svg>
