<svg xmlns="http://www.w3.org/2000/svg" viewBox="0 0 32 32" id="flower">
  <path fill="#54b88b" d="M16.87 20.78a1 1 0 0 0-.63-.47A9 9 0 0 0 5.5 25.63a1 1 0 0 0 0 .82 1 1 0 0 0 .62.51 11.25 11.25 0 0 0 3 .44c6 0 7.75-5.77 7.77-5.84a1 1 0 0 0-.02-.78Z"></path>
  <path fill="#4ba57d" d="M6 31a1 1 0 0 1-1-.93c0-.36-.54-8.9 7.77-16.26a1 1 0 0 1 1.41.08 1 1 0 0 1-.09 1.42C6.52 22 7 29.85 7 29.93A1 1 0 0 1 6.07 31Z"></path>
  <path fill="#ff6e6e" d="M24.12 4.58a1 1 0 0 0-.71-.71 6.2 6.2 0 0 0-7.6 7.6 1 1 0 0 0 .71.71 6.2 6.2 0 0 0 7.6-7.6Z"></path>
  <path fill="#e56565" d="M17.47 1.13a1.06 1.06 0 0 0-1 0 6.22 6.22 0 0 0 0 10.76 1 1 0 0 0 1 0 6.22 6.22 0 0 0 0-10.76Z"></path>
  <path fill="#e56565" d="M26.87 10.53a6.22 6.22 0 0 0-10.76 0 1 1 0 0 0 0 1 6.22 6.22 0 0 0 10.76 0 1.06 1.06 0 0 0 0-1Z"></path>
  <path fill="#cc5a5a" d="M13.93 1.83a1 1 0 0 0-1 0 7.84 7.84 0 0 0 0 13.59 1 1 0 0 0 .5.14 1 1 0 0 0 .5-.14 7.84 7.84 0 0 0 0-13.59Z"></path>
  <path fill="#cc5a5a" d="M26.17 14.07a7.84 7.84 0 0 0-13.59 0 1 1 0 0 0 0 1 7.84 7.84 0 0 0 13.59 0 1 1 0 0 0 0-1Z"></path>
</svg>
