<svg xmlns="http://www.w3.org/2000/svg" width="32" height="32" viewBox="0 0 8.467 8.467" id="flower">
  <g fill="#586597" transform="matrix(1.00034 0 0 .99995 120.923 -440.545)">
    <path d="m -116.64937,441.09556 c -0.26171,2.6e-4 -0.51869,0.1552 -0.61914,0.4089 -0.0578,-0.0134 -0.0743,-0.0195 -0.159,-0.0196 -0.37237,0 -0.67814,0.30586 -0.67814,0.67853 2.6e-4,0.16695 0.0466,0.30561 0.15564,0.42838 -0.10905,0.12277 -0.15538,0.26143 -0.15564,0.42839 0,0.37267 0.30577,0.67697 0.67814,0.67697 0.0842,-1.9e-4 0.10719,-0.004 0.15741,-0.0227 0.0951,0.25436 0.35857,0.41325 0.62073,0.41352 0.26217,-9e-5 0.50897,-0.1484 0.61863,-0.40993 0.0718,0.015 0.0754,0.019 0.1595,0.019 0.37237,0 0.67658,-0.30429 0.67658,-0.67697 -2.6e-4,-0.16691 -0.0461,-0.30562 -0.15511,-0.42838 0.10899,-0.12276 0.15485,-0.26148 0.15511,-0.42839 0,-0.37267 -0.30421,-0.67853 -0.67658,-0.67853 -0.0588,8e-4 -0.0822,-0.002 -0.15751,0.0213 -0.0813,-0.19925 -0.30014,-0.40769 -0.62062,-0.4106 z" color="#000" font-family="sans-serif" font-weight="400" overflow="visible" style="line-height:normal;font-variant-ligatures:normal;font-variant-position:normal;font-variant-caps:normal;font-variant-numeric:normal;font-variant-alternates:normal;font-feature-settings:normal;text-indent:0;text-align:start;text-decoration-line:none;text-decoration-style:solid;text-decoration-color:#000;text-transform:none;text-orientation:mixed;shape-padding:0;isolation:auto;mix-blend-mode:normal"></path>
    <path fill="#ffbfbf" d="m -116.65137,441.36134 c 0.23115,0.006 0.37108,0.16919 0.40625,0.3377 0.0154,0.0869 0.11003,0.13466 0.18907,0.0954 0.057,-0.0286 0.12063,-0.0437 0.18437,-0.0438 0.22934,0 0.41251,0.18303 0.41251,0.41275 -1.9e-4,0.12687 -0.0581,0.24543 -0.15781,0.32363 -0.0686,0.053 -0.0686,0.15652 0,0.2095 0.0997,0.0782 0.15762,0.19676 0.15781,0.32364 0,0.22971 -0.18317,0.41274 -0.41251,0.41274 -0.0637,-6e-5 -0.12734,-0.0152 -0.18437,-0.0438 -0.079,-0.0393 -0.17363,0.008 -0.18907,0.0954 -0.0361,0.19696 -0.2048,0.33763 -0.40469,0.3377 -0.19989,-1.9e-4 -0.37033,-0.14072 -0.40626,-0.33769 -0.0154,-0.0869 -0.11003,-0.13465 -0.18907,-0.0954 -0.0572,0.0287 -0.119,0.0436 -0.18281,0.0438 -0.22934,0 -0.41251,-0.18303 -0.41251,-0.41274 2e-4,-0.12687 0.0581,-0.24544 0.15782,-0.32364 0.0686,-0.053 0.0686,-0.15652 0,-0.2095 -0.0997,-0.0782 -0.15762,-0.19677 -0.15782,-0.32364 0,-0.22972 0.18317,-0.41274 0.41251,-0.41274 0.0639,1.2e-4 0.12576,0.0151 0.18281,0.0438 0.079,0.0393 0.17364,-0.008 0.18907,-0.0954 0.0722,-0.2306 0.21283,-0.33195 0.4047,-0.3377 z" color="#000" font-family="sans-serif" font-weight="400" overflow="visible" style="line-height:normal;font-variant-ligatures:normal;font-variant-position:normal;font-variant-caps:normal;font-variant-numeric:normal;font-variant-alternates:normal;font-feature-settings:normal;text-indent:0;text-align:start;text-decoration-line:none;text-decoration-style:solid;text-decoration-color:#000;text-transform:none;text-orientation:mixed;shape-padding:0;isolation:auto;mix-blend-mode:normal"></path>
    <path d="m -116.64937,442.06176 c -0.29063,0 -0.5297,0.23927 -0.5297,0.53001 0,0.29074 0.23907,0.52845 0.5297,0.52845 0.29062,0 0.52813,-0.23771 0.52813,-0.52845 0,-0.29074 -0.23751,-0.53001 -0.52813,-0.53001 z" color="#000" font-family="sans-serif" font-weight="400" overflow="visible" style="line-height:normal;font-variant-ligatures:normal;font-variant-position:normal;font-variant-caps:normal;font-variant-numeric:normal;font-variant-alternates:normal;font-feature-settings:normal;text-indent:0;text-align:start;text-decoration-line:none;text-decoration-style:solid;text-decoration-color:#000;text-transform:none;text-orientation:mixed;shape-padding:0;isolation:auto;mix-blend-mode:normal"></path>
    <path fill="#fbd67e" d="m -116.64937,442.32755 c 0.14779,0 0.26406,0.11663 0.26406,0.26422 0,0.14759 -0.11627,0.26422 -0.26406,0.26422 -0.14779,0 -0.26563,-0.11663 -0.26563,-0.26422 0,-0.14759 0.11784,-0.26422 0.26563,-0.26422 z" color="#000" font-family="sans-serif" font-weight="400" overflow="visible" style="line-height:normal;font-variant-ligatures:normal;font-variant-position:normal;font-variant-caps:normal;font-variant-numeric:normal;font-variant-alternates:normal;font-feature-settings:normal;text-indent:0;text-align:start;text-decoration-line:none;text-decoration-style:solid;text-decoration-color:#000;text-transform:none;text-orientation:mixed;shape-padding:0;isolation:auto;mix-blend-mode:normal"></path>
    <path d="m -2278.3906,844.88281 c -0.8227,0 -1.5,0.67574 -1.5,1.49805 v 0.50195 c 0,0.82231 0.6773,1.49805 1.5,1.49805 h 0.8652 l 1.7402,6.62891 c 0.06,0.21987 0.2604,0.37165 0.4883,0.36914 h 9.8145 c 0.2271,0.002 0.4268,-0.14999 0.4863,-0.36914 l 1.7422,-6.62891 h 0.8652 c 0.8227,0 1.4981,-0.67574 1.4981,-1.49805 v -0.50195 c 0,-0.82231 -0.6754,-1.49805 -1.4981,-1.49805 z" color="#000" font-family="sans-serif" font-weight="400" overflow="visible" style="line-height:normal;font-variant-ligatures:normal;font-variant-position:normal;font-variant-caps:normal;font-variant-numeric:normal;font-variant-alternates:normal;font-feature-settings:normal;text-indent:0;text-align:start;text-decoration-line:none;text-decoration-style:solid;text-decoration-color:#000;text-transform:none;text-orientation:mixed;shape-padding:0;isolation:auto;mix-blend-mode:normal" transform="matrix(.2645 0 0 .2646 483.855 222.174)"></path>
    <path fill="#c19999" d="m -2278.3906,845.87891 h 16.0019 c 0.2859,0 0.502,0.21619 0.502,0.50195 v 0.50195 c 0,0.28572 -0.2161,0.49414 -0.502,0.49414 -5.3232,-0.01 -10.6649,0 -16.0019,0 -0.2859,0 -0.502,-0.20857 -0.502,-0.49414 v -0.50195 c 0,-0.28572 0.2161,-0.50195 0.502,-0.50195 z" color="#000" font-family="sans-serif" font-weight="400" overflow="visible" style="line-height:normal;font-variant-ligatures:normal;font-variant-position:normal;font-variant-caps:normal;font-variant-numeric:normal;font-variant-alternates:normal;font-feature-settings:normal;text-indent:0;text-align:start;text-decoration-line:none;text-decoration-style:solid;text-decoration-color:#000;text-transform:none;text-orientation:mixed;shape-padding:0;isolation:auto;mix-blend-mode:normal" transform="matrix(.2645 0 0 .2646 483.855 222.174)"></path>
    <path fill="#dab3b3" d="m -2276.4922,848.38086 h 12.2051 l -1.5801,6.00195 h -9.0449 z" color="#000" font-family="sans-serif" font-weight="400" overflow="visible" style="line-height:normal;font-variant-ligatures:normal;font-variant-position:normal;font-variant-caps:normal;font-variant-numeric:normal;font-variant-alternates:normal;font-feature-settings:normal;text-indent:0;text-align:start;text-decoration-line:none;text-decoration-style:solid;text-decoration-color:#000;text-transform:none;text-orientation:mixed;shape-padding:0;isolation:auto;mix-blend-mode:normal" transform="matrix(.2645 0 0 .2646 483.855 222.174)"></path>
    <path d="m -116.7815,443.87319 v 0.57723 c -0.0511,-0.0193 -0.1021,-0.03 -0.15813,-0.0362 -0.0752,-0.008 -0.15704,-0.0121 -0.23254,-0.0119 -0.15101,2.7e-4 -0.28112,0.0119 -0.28112,0.0119 -0.0919,0.007 -0.14836,0.10397 -0.10956,0.18759 0,0 0.0556,0.11995 0.13074,0.25166 0.0376,0.0659 0.0803,0.13607 0.12506,0.19741 0.0447,0.0613 0.0852,0.11571 0.15451,0.15606 0.11666,0.0678 0.25345,0.0709 0.37104,0.0233 v 0.62736 h 0.26355 v -1.98438 z" color="#000" font-family="sans-serif" font-weight="400" overflow="visible" style="line-height:normal;font-variant-ligatures:normal;font-variant-position:normal;font-variant-caps:normal;font-variant-numeric:normal;font-variant-alternates:normal;font-feature-settings:normal;text-indent:0;text-align:start;text-decoration-line:none;text-decoration-style:solid;text-decoration-color:#000;text-transform:none;text-orientation:mixed;shape-padding:0;isolation:auto;mix-blend-mode:normal"></path>
    <path fill="#bedbb4" d="m -117.17011,444.66797 c 0.0693,-1.5e-4 0.14156,10e-4 0.20102,0.008 0.0572,0.006 0.0997,0.0199 0.10336,0.0212 0.001,7.9e-4 0.003,10e-4 0.004,0.002 0.0771,0.0449 0.10323,0.14248 0.0584,0.22065 -0.0444,0.0775 -0.13781,0.10217 -0.21446,0.0589 -1.8e-4,-1e-4 -0.041,-0.0355 -0.0765,-0.0842 -0.0355,-0.0486 -0.0729,-0.11101 -0.10749,-0.17156 -0.0156,-0.0274 -0.0138,-0.0275 -0.0274,-0.0527 0.0283,-8e-4 0.0279,-0.002 0.0589,-0.002 z" color="#000" font-family="sans-serif" font-weight="400" overflow="visible" style="line-height:normal;font-variant-ligatures:normal;font-variant-position:normal;font-variant-caps:normal;font-variant-numeric:normal;font-variant-alternates:normal;font-feature-settings:normal;text-indent:0;text-align:start;text-decoration-line:none;text-decoration-style:solid;text-decoration-color:#000;text-transform:none;text-orientation:mixed;shape-padding:0;isolation:auto;mix-blend-mode:normal"></path>
  </g>
</svg>
