<svg xmlns="http://www.w3.org/2000/svg" viewBox="0 0 512 512" id="flower">
  <path fill="#00bf63" d="M433.4,432.8s-40.2,1.8-65.7-21.9S341.1,347,341.1,347s40.2-1.8,65.7,21.9S433.4,432.8,433.4,432.8ZM94.6,306.6c-11-33-47.2-50.6-47.2-50.6s-18.3,35.9-7.2,68.9,47.2,50.6,47.2,50.6S105.7,339.7,94.6,306.6Z"></path>
  <path fill="#42210b" d="M475.3,319.8,353.1,348.9l-.8.2h-1.2L176,353.6l-.7.9-2.6,2-41,32.2,132,11.2a8.4,8.4,0,0,1,7.7,9.1,8.5,8.5,0,0,1-8.3,7.7l-169.8,2L74.5,433.5a26.3,26.3,0,1,1-32.4-41.4l1.9-1.4,50-32.2,23.9-120.3a7.9,7.9,0,0,1,9.4-6.3,8.1,8.1,0,0,1,6.4,8.7l-10.3,98.9,24.3-15.7L304.2,162.9l53-87.4a5.4,5.4,0,0,1,9.4,5.1l-45.5,93.3-.3.6-1,1.2L197.9,326.5l85.1,2.2L427.2,203.9a5.2,5.2,0,0,1,7.4.6,5.2,5.2,0,0,1-.3,7.2l-124,117.7,40.1,1,122.4-22.6a6.1,6.1,0,0,1,7.1,4.9A6.2,6.2,0,0,1,475.3,319.8Z"></path>
  <path fill="#ff3131" d="M184.3,213.7c9,16.5,9.9,32.9,1.1,39.7s-24.4,1.7-38-11.2c-5.3,18-16.3,30.3-27.3,28.9s-18.5-16.1-18.9-34.9c-16.5,9.1-32.9,10-39.7,1.2s-1.7-24.5,11.2-38.1c-18-5.2-30.3-16.2-28.9-27.2s16.1-18.5,34.9-19c-9.1-16.4-10-32.9-1.2-39.6s24.5-1.7,38.1,11.2c5.2-18,16.2-30.3,27.2-28.9s18.5,16.1,19,34.8c16.4-9,32.8-9.9,39.6-1.1s1.7,24.4-11.2,38c18,5.3,30.3,16.3,28.9,27.2S203,213.3,184.3,213.7Zm281,18.6c0-8.8-10.8-16.2-25.5-18.4,8.8-12,11.2-24.9,5-31.1s-19.1-3.8-31.1,5c-2.3-14.7-9.7-25.5-18.5-25.5s-16.1,10.8-18.4,25.5c-12-8.8-24.9-11.2-31.1-5s-3.8,19.1,5,31.1c-14.7,2.2-25.5,9.6-25.5,18.4s10.8,16.2,25.5,18.5c-8.8,12-11.2,24.8-5,31.1s19.1,3.8,31.1-5c2.3,14.7,9.7,25.5,18.4,25.5s16.2-10.8,18.5-25.5c12,8.8,24.9,11.2,31.1,5s3.8-19.1-5-31.1C454.5,248.5,465.3,241.1,465.3,232.3Z"></path>
  <path fill="#801919" d="M141.9,149.3l12.9-22.6a8,8,0,1,1,13.9,7.9l-13,22.6a7.7,7.7,0,0,1-6.9,4,8.2,8.2,0,0,1-4-1A7.9,7.9,0,0,1,141.9,149.3Zm15.5,27.1a7.8,7.8,0,0,0,7.7,5.9,7.5,7.5,0,0,0,2.1-.2l25.1-6.9a8,8,0,1,0-4.2-15.4L163,166.6A8,8,0,0,0,157.4,176.4Zm8.2,17.4a8,8,0,0,0-7.9,13.9l22.6,13a7.8,7.8,0,0,0,3.9,1,8,8,0,0,0,4-14.9Zm-18.2,56.4,2.1-.3a8,8,0,0,0,5.6-9.8L148.3,215a8,8,0,0,0-15.5,4.1l6.8,25.2A8.1,8.1,0,0,0,147.4,250.2Zm-29.3-43.5a8,8,0,0,0-10.9,2.9l-13,22.6a8,8,0,0,0,3,11,7.8,7.8,0,0,0,3.9,1,8,8,0,0,0,7-4l13-22.6A8,8,0,0,0,118.1,206.7Zm-12.5-16.3a8.1,8.1,0,0,0-9.8-5.6l-25.2,6.8a8,8,0,0,0-5.6,9.8,7.9,7.9,0,0,0,7.7,5.9,7.5,7.5,0,0,0,2.1-.2l25.1-6.8A8.2,8.2,0,0,0,105.6,190.4ZM74.7,160.1,97.3,173a7.1,7.1,0,0,0,4,1.1,8,8,0,0,0,3.9-14.9l-22.6-13a8,8,0,0,0-10.9,2.9A8.1,8.1,0,0,0,74.7,160.1Zm48.6-37.5a8,8,0,0,0-15.5,4.2l6.8,25.1a8,8,0,0,0,7.8,5.9,6.9,6.9,0,0,0,2-.3,8,8,0,0,0,5.7-9.8Zm279.4,91.6a8.5,8.5,0,0,0,3.1.6,8,8,0,0,0,7.4-4.9l7.9-19.1a8,8,0,0,0-14.8-6.1l-7.9,19.1A8,8,0,0,0,402.7,214.2Zm34.1-7.7-19.1,7.9a8,8,0,0,0,3,15.4,8.1,8.1,0,0,0,3.1-.6l19.1-7.9a8,8,0,0,0-6.1-14.8Zm6.1,36.9-19.1-7.9a8,8,0,0,0-6.1,14.8l19.1,7.9a8,8,0,0,0,6.1-14.8Zm-29.7,11.4a8,8,0,1,0-14.8,6.1l7.9,19.1a8,8,0,0,0,7.4,4.9,8.5,8.5,0,0,0,3.1-.6,8,8,0,0,0,4.3-10.4Zm-39.5,29.5a8.5,8.5,0,0,0,3.1.6,8,8,0,0,0,7.4-4.9l7.9-19.1a8,8,0,1,0-14.8-6.1l-7.9,19.1A7.9,7.9,0,0,0,373.7,284.3Zm3.4-44.5a8,8,0,0,0-10.4-4.3l-19.1,7.9a8,8,0,0,0,6.1,14.8l19.1-7.9A8,8,0,0,0,377.1,239.8Zm-29.5-18.5,19.1,7.9a8,8,0,0,0,3,.6,8,8,0,0,0,3.1-15.4l-19.1-7.9a8,8,0,0,0-6.1,14.8Zm29.7-11.4a7.9,7.9,0,0,0,7.4,4.9,8,8,0,0,0,7.4-11l-7.9-19.1a8,8,0,0,0-10.5-4.3,7.9,7.9,0,0,0-4.3,10.4Z"></path>
  <path fill="#ffbd59" d="M166,187.9a34.8,34.8,0,1,1-30.1-39A34.9,34.9,0,0,1,166,187.9Zm229.2,16.8a27.6,27.6,0,1,0,27.6,27.6A27.7,27.7,0,0,0,395.2,204.7Z"></path>
</svg>
