<svg xmlns="http://www.w3.org/2000/svg" xmlns:xlink="http://www.w3.org/1999/xlink" viewBox="0 0 64 64" id="flower">
  <defs>
    <linearGradient id="b" x1="34.98" x2="34.98" y1="31" y2="56.11" gradientUnits="userSpaceOnUse">
      <stop offset="0" stop-color="#ad582d"></stop>
      <stop offset="1" stop-color="#6d3c23"></stop>
    </linearGradient>
    <linearGradient id="a" x1="28.53" x2="33.35" y1="4.53" y2="11.28" gradientUnits="userSpaceOnUse">
      <stop offset="0" stop-color="#d6d6d6"></stop>
      <stop offset="1" stop-color="#a1a1a1"></stop>
    </linearGradient>
    <linearGradient xlink:href="#a" id="c" x1="23" x2="31.67" y1="15" y2="15"></linearGradient>
    <linearGradient xlink:href="#a" id="d" x1="29.03" x2="32.46" y1="25.32" y2="19.42"></linearGradient>
    <linearGradient xlink:href="#a" id="e" x1="41.02" x2="37.06" y1="25.67" y2="18.28"></linearGradient>
    <linearGradient xlink:href="#a" id="f" x1="47" x2="38.33" y1="15" y2="15"></linearGradient>
    <linearGradient xlink:href="#a" id="g" x1="41.47" x2="36.86" y1="4.23" y2="11.3"></linearGradient>
    <linearGradient id="h" x1="33.7" x2="33.7" y1="42" y2="61" gradientUnits="userSpaceOnUse">
      <stop offset="0" stop-color="#f4b7a4"></stop>
      <stop offset="1" stop-color="#f7907f"></stop>
    </linearGradient>
    <linearGradient id="i" x1="35" x2="35" y1="9" y2="21" gradientUnits="userSpaceOnUse">
      <stop offset="0" stop-color="#ffc033"></stop>
      <stop offset="1" stop-color="#ef8e2e"></stop>
    </linearGradient>
    <linearGradient id="j" x1="34.2" x2="34.2" y1="61" y2="3.66" gradientUnits="userSpaceOnUse">
      <stop offset="0" stop-color="#000406"></stop>
      <stop offset="1" stop-color="#001521"></stop>
    </linearGradient>
  </defs>
  <g>
    <path fill="url(#b)" d="M51 43.26a5 5 0 0 0-7.7-4.46 6 6 0 0 0-4.56-1.8 8 8 0 0 0-15.48 0 6 6 0 0 0-5.79 8.33 1 1 0 0 0 .26.36l11.61 10.17a1 1 0 0 0 .66.25h.14c17.59-2.54 17.13-2.17 17.58-2.7l5-5.86a1 1 0 0 0 .23-.79 5.49 5.49 0 0 0-1.95-3.5Z"></path>
    <path fill="url(#a)" d="M36 9.79c-.7-3.21-1.4-5.2-3-5.89-1.41-.63-3 .1-4 .71s-2.46 1.58-2.62 3.12C26.2 9.43 27.57 11 30 13.24a1 1 0 0 0 1.17.13l4.33-2.5a1 1 0 0 0 .5-1.08Z"></path>
    <path fill="url(#c)" d="M31 11.55c-3.13-1-5.21-1.39-6.59-.38S23 13.79 23 15s.14 2.92 1.39 3.83c1.66 1.21 4.49.29 6.59-.38a1 1 0 0 0 .69-.95v-5a1 1 0 0 0-.67-.95Z"></path>
    <path fill="url(#d)" d="m35.5 19.13-4.33-2.5a1 1 0 0 0-1.17.13c-2.43 2.2-3.8 3.81-3.62 5.51.16 1.54 1.57 2.52 2.62 3.12 1.25.72 2.7 1.29 4 .71 1.57-.69 2.27-2.68 3-5.89a1 1 0 0 0-.5-1.08Z"></path>
    <path fill="url(#e)" d="M40 16.76a1 1 0 0 0-1.17-.13l-4.33 2.5a1 1 0 0 0-.5 1.08c.7 3.21 1.4 5.2 3 5.89 1.31.59 2.76 0 4-.71 1-.6 2.46-1.58 2.62-3.12.18-1.7-1.19-3.27-3.62-5.51Z"></path>
    <path fill="url(#f)" d="M45.61 11.17c-1.38-1-3.46-.62-6.59.38a1 1 0 0 0-.69.95v5a1 1 0 0 0 .69.95c2 .66 4.93 1.59 6.59.38C46.86 17.92 47 16.21 47 15s-.14-2.92-1.39-3.83Z"></path>
    <path fill="url(#g)" d="M41 4.61c-1-.61-2.6-1.34-4-.71-1.57.69-2.27 2.68-3 5.89a1 1 0 0 0 .48 1.08l4.33 2.5a1 1 0 0 0 1.19-.13c2.43-2.2 3.8-3.81 3.62-5.51-.16-1.54-1.57-2.52-2.62-3.12Z"></path>
    <path fill="url(#h)" d="M55.93 47.09a2.87 2.87 0 0 0-4.11-.7l-6.23 4.66L34.16 53l-2.47-1.23.76-.76 9.65-.81A3.19 3.19 0 0 0 45 47a3.24 3.24 0 0 0-2.8-3.21L29.13 42a1 1 0 0 0-.35 0l-8.89 2H12a1 1 0 0 0-1 1v11a1 1 0 0 0 1 1h5.84l11.84 4a1 1 0 0 0 .49 0l17-3a.93.93 0 0 0 .49-.23l7.79-6.92a2.89 2.89 0 0 0 .48-3.76Z"></path>
    <path fill="url(#i)" d="M38.65 10.24a6 6 0 1 0 1.11 8.41 6 6 0 0 0-1.11-8.41Z"></path>
  </g>
  <path fill="url(#j)" d="M52.76 45.93A5.48 5.48 0 0 0 51 43.26a2.26 2.26 0 0 0 0-.26 5 5 0 0 0-7.71-4.2 6 6 0 0 0-4.55-1.8A7.93 7.93 0 0 0 36 32.77v-7.39c1.38 1.51 3.23 1 5 0 1-.6 2.46-1.58 2.62-3.12a4.08 4.08 0 0 0-1.11-2.93 4.15 4.15 0 0 0 3.1-.51C46.86 17.92 47 16.21 47 15s-.14-2.92-1.39-3.83a4.1 4.1 0 0 0-3.11-.5 4.09 4.09 0 0 0 1.12-2.94c-.16-1.54-1.57-2.52-2.62-3.12s-2.6-1.34-4-.71a4.08 4.08 0 0 0-2 2.44 4.08 4.08 0 0 0-2-2.44c-1.41-.63-3 .1-4 .71s-2.46 1.58-2.62 3.12a4.09 4.09 0 0 0 1.12 2.94 4.1 4.1 0 0 0-3.11.5C23.14 12.08 23 13.79 23 15s.14 2.92 1.39 3.83a4.15 4.15 0 0 0 3.1.51 4.08 4.08 0 0 0-1.11 2.93c.16 1.54 1.57 2.52 2.62 3.12 1.77 1 3.62 1.5 5 0v6.21A8 8 0 0 0 23.26 37a6 6 0 0 0-6.17 7H12v2h8.22L29 44l12.9 1.72A1.24 1.24 0 0 1 43 47a1.16 1.16 0 0 1-1.07 1.16l-10 .83a1.05 1.05 0 0 0-.63.29l-2 2a1 1 0 0 0 .26 1.6c4.07 2 4.05 2.19 4.61 2.1l12-2a1 1 0 0 0 .44-.19L53 48a.86.86 0 0 1 1.24.21.87.87 0 0 1-.14 1.13l-7.57 6.73L30.08 59C17.67 54.85 18.31 55 18 55h-6v2h5.84c12.29 4.08 11.93 4.06 12.33 4l17-3a.93.93 0 0 0 .49-.23l7.79-6.92a2.89 2.89 0 0 0 .48-3.74 2.84 2.84 0 0 0-3.17-1.18ZM31.83 12.56a4 4 0 1 1 .73 5.61 4 4 0 0 1-.73-5.61Zm6 11.72c-.68-.31-1.18-1.78-1.57-3.41a5.92 5.92 0 0 0 3.2-1.87c1.22 1.16 2.25 2.33 2.17 3.07-.1.93-2.96 2.6-3.83 2.21Zm6.63-11.49c.38.27.57 1 .57 2.21s-.19 1.94-.57 2.21c-.6.44-2.12.13-3.74-.34a6.05 6.05 0 0 0 0-3.74c1.59-.47 3.11-.78 3.71-.34ZM37.8 5.72c.42-.19 1.16 0 2.2.62s1.58 1.13 1.63 1.6c.08.74-1 1.9-2.16 3.06a6 6 0 0 0-3.24-1.87c.39-1.63.89-3.13 1.57-3.41Zm-7.8.62c1-.6 1.78-.81 2.2-.62.68.31 1.18 1.78 1.57 3.41A6 6 0 0 0 30.53 11c-1.21-1.16-2.24-2.32-2.16-3.06.05-.47.63-1 1.63-1.6Zm-4.43 10.87c-.38-.27-.57-1-.57-2.21s.19-1.94.57-2.21c.6-.44 2.12-.13 3.74.34a6.05 6.05 0 0 0 0 3.74c-1.62.47-3.14.78-3.74.34Zm6.63 7.07c-.87.38-3.73-1.27-3.83-2.22-.08-.74.95-1.9 2.16-3.06a5.87 5.87 0 0 0 3.25 1.86c-.4 1.63-.9 3.14-1.58 3.42Zm13.39 26.77L34.16 53l-2.47-1.23.76-.76 9.65-.81A3.19 3.19 0 0 0 45 47a3.24 3.24 0 0 0-2.8-3.21L29.13 42a1 1 0 0 0-.35 0l-8.89 2h-.75a4 4 0 0 1 4.71-4.9 1 1 0 0 0 1.2-.86 6 6 0 0 1 11.9 0 1 1 0 0 0 1.2.86 4 4 0 0 1 4.17 1.66 1 1 0 0 0 1.54.14A3 3 0 0 1 49 43c0 .46-.29 1.13.39 1.56A3.54 3.54 0 0 1 51 47Z"></path>
</svg>
