<svg xmlns="http://www.w3.org/2000/svg" viewBox="0 0 512 512" id="number-percentage-chart">
  <circle cx="81.39" cy="81.39" r="73.89" fill="#fd4755"></circle>
  <circle cx="430.61" cy="81.39" r="73.89" fill="#26a6fe"></circle>
  <path fill="#0593fc" d="M430.61 7.5a74.17 74.17 0 0 0-15 1.53 73.9 73.9 0 0 1 0 144.72 73.89 73.89 0 1 0 15-146.25Z"></path>
  <circle cx="81.39" cy="430.61" r="73.89" fill="#fed402"></circle>
  <circle cx="430.61" cy="430.61" r="73.89" fill="#fe9738"></circle>
  <path fill="#fe860a" d="M430.61 356.72a74.17 74.17 0 0 0-15 1.53 73.9 73.9 0 0 1 0 144.72 73.89 73.89 0 1 0 15-146.25Z"></path>
  <circle cx="256" cy="256" r="100.72" fill="#d8ecfe"></circle>
  <path fill="#c4e2ff" d="M256 155.28a101.66 101.66 0 0 0-15 1.11 100.74 100.74 0 0 1 0 199.22 100.73 100.73 0 1 0 15-200.33Z"></path>
  <path fill="#fb2b3a" d="M81.5 7.5a74.1 74.1 0 0 0-15 1.5 73.9 73.9 0 0 1 0 144.72A73.89 73.89 0 1 0 81.5 7.5Z"></path>
  <path fill="#fac600" d="M81.5 356.72a74.1 74.1 0 0 0-15 1.53 73.9 73.9 0 0 1 0 144.75 73.89 73.89 0 1 0 15-146.25Z"></path>
  <path d="M66.5 161.39v51.11A22.52 22.52 0 0 0 89 235h40.39a7.5 7.5 0 0 0 0-15H89a7.5 7.5 0 0 1-7.5-7.5v-49.73a81.43 81.43 0 1 0-15-1.38ZM81.39 15a66.39 66.39 0 0 1 0 132.77c-1.85 0-3.68-.09-5.5-.24a7.36 7.36 0 0 0-1.89-.25h-.42A66.38 66.38 0 0 1 81.39 15Zm30.18 395.21c0-15.39-13.54-27.91-30.18-27.91-14.32 0-26.76 9.4-29.59 22.35a7.5 7.5 0 1 0 14.65 3.2c1.34-6.11 7.62-10.55 14.94-10.55 8.37 0 15.18 5.79 15.18 12.91s-6.81 12.9-15.18 12.9a7.5 7.5 0 1 0 0 15c8.37 0 15.18 5.79 15.18 12.91s-6.81 12.9-15.18 12.9c-7.59 0-14.07-4.82-15.06-11.2a10.72 10.72 0 0 1-.13-1.7 7.5 7.5 0 0 0-15 0 25.35 25.35 0 0 0 .31 4c2.11 13.63 15 23.91 29.88 23.91 16.64 0 30.18-12.51 30.18-27.9a26.94 26.94 0 0 0-9.57-20.42 26.92 26.92 0 0 0 9.57-20.4ZM430.5 162.77v49.73a7.5 7.5 0 0 1-7.5 7.5h-40.39a7.5 7.5 0 0 0 0 15H423a22.52 22.52 0 0 0 22.5-22.5v-51.11a81.35 81.35 0 1 0-15 1.38ZM430.61 15a66.39 66.39 0 1 1-66.38 66.39A66.46 66.46 0 0 1 430.61 15ZM72.83 48.86h9.61v72.56a7.5 7.5 0 0 0 15 0V41.36a7.5 7.5 0 0 0-7.5-7.5H72.83a7.5 7.5 0 0 0 0 15Zm334.35 15.59a7.5 7.5 0 0 0 8.8-5.91 13 13 0 0 1 25.72 2.1l-.28 2.17c-1 4.16-3.47 9-7.26 14.43-12.7 18.14-20.28 28.07-24.35 33.4-5 6.49-6.82 8.92-5.51 13.18a7.87 7.87 0 0 0 5.14 5.18c1 .34 2.13.72 17.39.72 6.08 0 14.41-.06 25.87-.21a7.5 7.5 0 1 0-.19-15c-9.35.11-19.33.19-26.95.18 4.52-6 11.25-15.1 20.89-28.86 5-7.15 8.25-13.87 9.67-20a6 6 0 0 0 .13-.74l.4-3.1a7.46 7.46 0 0 0 .06-.95 28 28 0 0 0-55.45-5.42 7.51 7.51 0 0 0 5.92 8.83ZM286 261.26a24.71 24.71 0 1 0 17.47 42.18A24.71 24.71 0 0 0 286 261.26Zm6.86 31.57a9.68 9.68 0 1 1 2.85-6.86 9.7 9.7 0 0 1-2.88 6.86ZM256 147.77A108.23 108.23 0 1 0 364.23 256 108.35 108.35 0 0 0 256 147.77Zm0 201.45A93.23 93.23 0 1 1 349.23 256 93.34 93.34 0 0 1 256 349.22Zm197 90.49h-1.58c.11-19.83.17-41.63 0-44.53-.45-6-3.86-10.82-8.69-12.18-6.91-1.94-11.66 3.77-12.95 5.56-4.08 5.69-24.27 47.12-28.28 55.37a7.5 7.5 0 0 0 6.75 10.78h28.12c0 5.79-.07 11.36-.11 16.35a7.49 7.49 0 0 0 7.44 7.55h.06a7.5 7.5 0 0 0 7.5-7.44c0-3 .06-9 .11-16.46H453a7.5 7.5 0 0 0 0-15Zm-16.58 0h-16.2c6.07-12.37 12.09-24.4 16.3-32.53.02 8.28-.03 20.21-.09 32.53Zm9.07-89.1V299.5A22.52 22.52 0 0 0 423 277h-40.39a7.5 7.5 0 0 0 0 15H423a7.5 7.5 0 0 1 7.5 7.5v49.73a81.43 81.43 0 1 0 15 1.38ZM430.61 497A66.39 66.39 0 1 1 497 430.61 66.46 66.46 0 0 1 430.61 497ZM81.5 349.23V299.5A7.5 7.5 0 0 1 89 292h40.39a7.5 7.5 0 0 0 0-15H89a22.52 22.52 0 0 0-22.5 22.5v51.11a81.35 81.35 0 1 0 15-1.38ZM81.39 497a66.39 66.39 0 1 1 66.38-66.39A66.46 66.46 0 0 1 81.39 497ZM243.5 243.5a24.7 24.7 0 1 0-17.5 7.24 24.54 24.54 0 0 0 17.5-7.24Zm-24.33-24.33a9.7 9.7 0 1 1 13.72 13.72 9.7 9.7 0 0 1-13.72-13.72Zm66.47 7.19a7.5 7.5 0 0 0-10.61 0l-49.85 49.86a7.5 7.5 0 1 0 10.6 10.6L285.64 237a7.5 7.5 0 0 0 0-10.64Z"></path>
</svg>
