<svg xmlns="http://www.w3.org/2000/svg" xml:space="preserve" id="ice" x="0" y="0" version="1.1" viewBox="0 0 24 24">
  <path fill="#303C42" d="M17.843 0a6.12 6.12 0 0 0-4.354 1.803L5.677 9.616C5.247 10.046 5 10.64 5 11.25s.247 1.205.677 1.634l1.366 1.366L.56 20.733a1.916 1.916 0 0 0 2.707 2.707l6.482-6.483 1.366 1.367c.438.436 1.018.676 1.634.676s1.196-.24 1.634-.676l7.812-7.814A6.113 6.113 0 0 0 24 6.157 6.164 6.164 0 0 0 17.843 0z"></path>
  <path fill="#FBC02D" d="M2.56 22.733a.915.915 0 0 1-1.293-1.293l6.483-6.483 1.293 1.293-6.482 6.483z"></path>
  <path d="M1.268 22.732a.911.911 0 0 0 1.293 0l6.482-6.482-.647-.646-7.128 7.128z" opacity=".1"></path>
  <path fill="#FB8C00" d="M21.49 9.803l-7.813 7.813c-.496.496-1.358.495-1.854 0l-5.44-5.44C6.14 11.933 6 11.596 6 11.25s.14-.683.384-.927l7.812-7.813A5.126 5.126 0 0 1 17.843 1 5.163 5.163 0 0 1 23 6.157a5.12 5.12 0 0 1-1.51 3.646z"></path>
  <path fill="#303C42" d="M17.56 3.44a1.501 1.501 0 0 0-2.12 0l-7 7A1.501 1.501 0 0 0 9.5 13c.4 0 .777-.156 1.06-.44l7-7a1.501 1.501 0 0 0 0-2.12z"></path>
  <path fill="#FB8C00" d="M16.854 4.854l-7 7a.513.513 0 0 1-.708 0 .5.5 0 0 1 0-.708l7-7a.498.498 0 0 1 .708 0 .5.5 0 0 1 0 .708z"></path>
  <path fill="#303C42" d="M18.44 6.44l-7 7A1.501 1.501 0 0 0 12.5 16c.4 0 .777-.156 1.06-.44l7-7a1.501 1.501 0 0 0 0-2.12 1.501 1.501 0 0 0-2.12 0z"></path>
  <path fill="#FB8C00" d="M19.854 7.854l-7 7a.513.513 0 0 1-.708 0 .5.5 0 0 1 0-.708l7-7a.498.498 0 0 1 .708 0 .5.5 0 0 1 0 .708z"></path>
  <path d="M20.959 2.076a5.106 5.106 0 0 1-.436 6.761l-7.812 7.813c-.496.496-1.357.496-1.854 0l.966.966c.496.495 1.358.496 1.854 0l7.812-7.813A5.12 5.12 0 0 0 23 6.157c0-1.668-.809-3.138-2.041-4.081z" opacity=".1"></path>
  <path fill="#FFF" d="M11.823 17.616zM10.858 16.65l-3.505-3.505c-.245-.243-.384-.581-.384-.926s.14-.683.384-.927l7.812-7.813a5.126 5.126 0 0 1 3.647-1.51c.925 0 1.781.26 2.53.693a5.413 5.413 0 0 0-.379-.58A5.063 5.063 0 0 0 17.843 1a5.126 5.126 0 0 0-3.647 1.51l-7.812 7.813c-.244.244-.384.582-.384.927s.14.683.384.926l4.474 4.474z" opacity=".2"></path>
  <linearGradient id="SVGID_1_" x1="5.473" x2="19.85" y1="9.726" y2="16.43" gradientUnits="userSpaceOnUse">
    <stop offset="0" stop-color="#FFF" stop-opacity=".2"></stop>
    <stop offset="1" stop-color="#FFF" stop-opacity="0"></stop>
  </linearGradient>
  <path fill="url(#SVGID_1_)" d="M17.843 0a6.12 6.12 0 0 0-4.354 1.803L5.677 9.616C5.247 10.046 5 10.64 5 11.25s.247 1.205.677 1.634l1.366 1.366L.56 20.733a1.916 1.916 0 0 0 2.707 2.707l6.482-6.483 1.366 1.367c.438.436 1.018.676 1.634.676s1.196-.24 1.634-.676l7.812-7.814A6.113 6.113 0 0 0 24 6.157 6.164 6.164 0 0 0 17.843 0z"></path>
</svg>
