<svg xmlns="http://www.w3.org/2000/svg" xml:space="preserve" viewBox="0 0 48 48" id="icecream">
  <symbol id="New_Symbol_14" viewBox="-6.5 -6.5 13 13">
    <path fill="#FFD4C3" stroke="#504B46" stroke-linecap="round" stroke-linejoin="round" stroke-miterlimit="10" d="M0-6c2.2 0 4.1 1.5 4.7 3.5C6.3-2.5 6.4 0 5 0v1c0 2.8-2.2 5-5 5s-5-2.2-5-5V0c-1.4 0-1.3-2.5.2-2.5C-4.1-4.5-2.2-6 0-6z" style="fill:#ffd4c3;stroke:#504b46;stroke-linecap:round;stroke-linejoin:round;stroke-miterlimit:10"></path>
    <circle cx="-1.6" cy="-.1" r=".1" style="fill:#ffc258"></circle>
    <path d="M-1.6.5c-.3 0-.6-.3-.6-.6s.2-.7.6-.7c.3 0 .6.3.6.7s-.3.6-.6.6z" style="fill:#4f4b45"></path>
    <circle cx="1.6" cy="-.1" r=".1" style="fill:#ffc258"></circle>
    <path d="M1.6.5C1.3.5 1 .2 1-.1s.3-.6.6-.6.6.3.6.6-.2.6-.6.6z" style="fill:#4f4b45"></path>
    <circle cx="-3" cy="-1.5" r=".5" style="fill:#fabfa5"></circle>
    <circle cx="3" cy="-1.5" r=".5" style="fill:#fabfa5"></circle>
    <path fill="none" stroke="#504B46" stroke-linecap="round" stroke-linejoin="round" stroke-miterlimit="10" d="M-1.2-3c.8-.5 1.7-.5 2.5 0" style="fill:none;stroke:#504b46;stroke-linecap:round;stroke-linejoin:round;stroke-miterlimit:10"></path>
  </symbol>
  <g id="Icons">
    <g id="XMLID_1971_">
      <ellipse id="XMLID_2473_" cx="23.1" cy="44.2" fill="#45413C" opacity=".15" rx="11.5" ry="1.5" style="opacity:.15;fill:#45413c"></ellipse>
      <circle id="XMLID_2472_" cx="22.8" cy="19.8" r="14" fill="#E5FEFF" style="fill:#e5feff"></circle>
      <path id="XMLID_2471_" d="M22.8 8.4c7.3 0 13.3 5.6 13.9 12.7 0-.4.1-.9.1-1.3 0-7.7-6.3-14-14-14s-14 6.3-14 14c0 .5 0 .9.1 1.3.6-7.1 6.6-12.7 13.9-12.7z" style="fill:#fff"></path>
      <circle id="XMLID_2470_" cx="22.8" cy="19.8" r="14" style="fill:none;stroke:#45413c;stroke-linecap:round;stroke-linejoin:round;stroke-miterlimit:10"></circle>
      <path id="XMLID_740_" fill="#FF87AF" d="M22.8 5.8c-6 0-11.1 3.8-13.1 9.1.7.9 1.8 1.9 3.6 1.9 4.3 0 3.5-3.7 7-4.5 3.3-.8 3.6 1.5 7.5 1.5 2.9 0 4.7-1.3 5.7-3-2.6-3.1-6.4-5-10.7-5z" style="fill:#ff87af"></path>
      <path id="XMLID_739_" fill="#FFB0CA" d="M10.5 15.8c2.4-4.4 7-7.4 12.3-7.4 3.7 0 7 1.4 9.5 3.7.5-.4.9-.9 1.2-1.4-2.6-3-6.4-5-10.7-5-6 0-11.1 3.8-13.1 9.1.2.4.4.7.8 1z" style="fill:#ffb0ca"></path>
      <path id="XMLID_736_" d="M22.8 5.8c-6 0-11.1 3.8-13.1 9.1.7.9 1.8 1.9 3.6 1.9 4.3 0 3.5-3.7 7-4.5 3.3-.8 3.6 1.5 7.5 1.5 2.9 0 4.7-1.3 5.7-3-2.6-3.1-6.4-5-10.7-5z" style="fill:none;stroke:#45413c;stroke-linecap:round;stroke-linejoin:round;stroke-miterlimit:10"></path>
      <path id="XMLID_733_" fill="#DAEDF7" d="M28.1 23.2 34 8.1c.7-1.9 2.6-3.2 4.6-3.2 1.3 0 2.3 1.2 1.9 2.5-.2.9-1 1.5-1.9 1.5-1.2 0-2.2.7-2.6 1.8l-4.9 12.5h-3z" style="fill:#daedf7"></path>
      <path id="XMLID_730_" d="M34.3 10.2c.7-2 2.6-3.3 4.7-3.3.7 0 1.2.3 1.6.8 0-.1.1-.2.1-.3.3-1.2-.7-2.5-2-2.5-2.1 0-3.9 1.3-4.6 3.2l-5.9 15.1h1l5.1-13z" style="fill:#fff"></path>
      <path id="XMLID_729_" d="M28.1 23.2 34 8.1c.7-1.9 2.6-3.2 4.6-3.2 1.3 0 2.3 1.2 1.9 2.5-.2.9-1 1.5-1.9 1.5-1.2 0-2.2.7-2.6 1.8l-4.9 12.5h-3z" style="fill:none;stroke:#45413c;stroke-linecap:round;stroke-linejoin:round;stroke-miterlimit:10"></path>
      <path id="XMLID_728_" fill="#B8ECFF" d="M37.5 19.8s-1.9 3-14.3 3-15.1-3-15.1-3c-.4 0-.8.4-.8.8.4 7.3 5.8 13.2 12.8 14.4.4.1.7.4.7.8V39c0 .2-.1.4-.2.5-1 1.2-2.3 2-3.8 2.4-1.4.4-1 2.4.4 2.4h11.2c1.4 0 1.7-2 .4-2.4-1.5-.4-2.8-1.2-3.8-2.4-.1-.1-.2-.3-.2-.5v-3.2c0-.4.3-.7.7-.8 7-1.2 12.4-7.2 12.8-14.4 0-.5-.4-.8-.8-.8z" style="fill:#b8ecff"></path>
      <path id="XMLID_727_" fill="#E5F8FF" d="M37.5 19.8s-1.9 3-14.3 3-15.1-3-15.1-3c-.4 0-.8.4-.8.8v.1c2 4.4 8.3 7.6 15.8 7.6 6.6 0 12.3-2.5 14.9-6.1.1-.5.2-1.1.2-1.6.1-.5-.3-.8-.7-.8z" style="fill:#e5f8ff"></path>
      <path id="XMLID_726_" d="M37.5 19.8s-1.9 3-14.3 3-15.1-3-15.1-3c-.4 0-.8.4-.8.8.4 7.3 5.8 13.2 12.8 14.4.4.1.7.4.7.8V39c0 .2-.1.4-.2.5-1 1.2-2.3 2-3.8 2.4-1.4.4-1 2.4.4 2.4h11.2c1.4 0 1.7-2 .4-2.4-1.5-.4-2.8-1.2-3.8-2.4-.1-.1-.2-.3-.2-.5v-3.2c0-.4.3-.7.7-.8 7-1.2 12.4-7.2 12.8-14.4 0-.5-.4-.8-.8-.8z" style="fill:none;stroke:#45413c;stroke-linecap:round;stroke-linejoin:round;stroke-miterlimit:10"></path>
      <circle id="XMLID_725_" cx="24.1" cy="4.8" r="2.5" fill="#FF6242" style="fill:#ff6242"></circle>
      <path id="XMLID_724_" fill="#FF866E" d="M24.1 3.8c1.1 0 2.1.7 2.4 1.7.1-.2.1-.5.1-.8 0-1.4-1.1-2.5-2.5-2.5s-2.5 1.1-2.5 2.5c0 .3.1.5.1.8.4-1 1.3-1.7 2.4-1.7z" style="fill:#ff866e"></path>
      <circle id="XMLID_723_" cx="24.1" cy="4.8" r="2.5" style="fill:none;stroke:#45413c;stroke-linecap:round;stroke-linejoin:round;stroke-miterlimit:10"></circle>
    </g>
  </g>
</svg>
