<?xml version="1.0" ?><svg id="Filled_Outline_1_" style="enable-background:new 0 0 64 64;" version="1.1" viewBox="0 0 64 64" xml:space="preserve" xmlns="http://www.w3.org/2000/svg" xmlns:xlink="http://www.w3.org/1999/xlink"><title/><desc/><style type="text/css">
	.st0{fill:#18C29C;}
	.st1{fill:#18A596;}
	.st2{fill:#FFBB2C;}
	.st3{fill:#FFD18B;}
	.st4{fill:#272A56;}
	.st5{fill:#FF7BAC;}
	.st6{fill:#FD58A1;}
	.st7{fill:none;}
	.st8{fill:#FFD8B1;}
	.st9{fill:#FFFDE9;}
	.st10{fill:#FFCAA9;}
	.st11{fill:#8C6239;}
	.st12{fill:#ECECD8;}
	.st13{fill:#96C6EE;}
	.st14{fill:#29ABE2;}
	.st15{fill:#A67C52;}
	.st16{fill:#CCCCCC;}
</style><g><g><path class="st9" d="M36,12c0-4-3-6-4-9c-1,3-4,5-4,9c0,2.209,1.791,4,4,4S36,14.209,36,12z"/><path class="st12" d="M28,12c4,0,5-4,4-9c1,3,4,5,4,9c0,2.209-1.791,4-4,4S28,14.209,28,12z"/><path class="st8" d="M44,26L44,26c0,1.105-0.895,2-2,2h0L32,61L22,28h0c-1.105,0-2-0.895-2-2v0c0-1.105,0.895-2,2-2h20    C43.105,24,44,24.895,44,26z"/><path class="st10" d="M25.942,41C32,41,37,35,37,28h5L32,60L25.942,41z"/><polygon class="st10" points="41.091,31 22.909,31 22,28 42,28   "/><path class="st9" d="M39,18H25c-1.657,0-3,1.343-3,3v0c0,1.657,1.343,3,3,3h14c1.657,0,3-1.343,3-3v0C42,19.343,40.657,18,39,18z"/><path class="st9" d="M36,12h-8c-1.657,0-3,1.343-3,3v0c0,1.657,1.343,3,3,3h8c1.657,0,3-1.343,3-3v0C39,13.343,37.657,12,36,12z"/><path class="st9" d="M35,36L35,36c-1.105,0-2-0.895-2-2V22h4v12C37,35.105,36.105,36,35,36z"/><path class="st12" d="M35,36L35,36c-1.105,0-2-0.895-2-2V24h4v10C37,35.105,36.105,36,35,36z"/><path class="st5" d="M51,15h-8V7c0-2.209,1.791-4,4-4h0c2.209,0,4,1.791,4,4v0h0c2.209,0,4,1.791,4,4v0C55,13.209,53.209,15,51,15    z"/><path class="st6" d="M43,15c4.422,0,8-3.578,8-8h0c2.209,0,4,1.791,4,4v0c0,2.209-1.791,4-4,4H43z"/><path class="st12" d="M28,18c3.316,0,6-2.684,6-6h2c1.657,0,3,1.343,3,3v0c0,1.657-1.343,3-3,3H28z"/><path class="st12" d="M31,24c3.316,0,6-2.684,6-6h2c1.657,0,3,1.343,3,3v0c0,1.657-1.343,3-3,3H31z"/></g><path class="st4" d="M51.916,6.084C51.484,3.763,49.444,2,47,2c-2.757,0-5,2.243-5,5v7.586l-2.468,2.468   c-0.037-0.005-0.074-0.007-0.112-0.011C39.78,16.443,40,15.749,40,15c0-1.877-1.304-3.445-3.05-3.874   c-0.235-2.319-1.367-4.015-2.383-5.527c-0.658-0.979-1.28-1.902-1.618-2.916C32.813,2.275,32.431,2,32,2s-0.813,0.275-0.949,0.684   c-0.338,1.014-0.959,1.938-1.618,2.916c-1.017,1.512-2.148,3.208-2.383,5.527C25.304,11.555,24,13.123,24,15   c0,0.749,0.22,1.443,0.579,2.043C22.574,17.256,21,18.938,21,21c0,0.749,0.22,1.443,0.579,2.042C20.125,23.249,19,24.49,19,26   c0,1.384,0.947,2.541,2.223,2.885l9.82,32.405C31.171,61.712,31.56,62,32,62s0.829-0.288,0.957-0.71l9.82-32.405   C44.053,28.54,45,27.384,45,26c0-1.51-1.125-2.751-2.579-2.958C42.78,22.443,43,21.749,43,21c0-1.252-0.59-2.358-1.494-3.092   L43.414,16H51c2.757,0,5-2.243,5-5C56,8.556,54.237,6.516,51.916,6.084z M31.093,6.716C31.4,6.26,31.711,5.797,32,5.315   c0.289,0.481,0.6,0.944,0.907,1.4c0.903,1.342,1.755,2.626,2.009,4.284h-5.832C29.339,9.342,30.191,8.058,31.093,6.716z M28,13h8   c1.103,0,2,0.897,2,2s-0.897,2-2,2h-8c-1.103,0-2-0.897-2-2S26.897,13,28,13z M25,19h14c1.103,0,2,0.897,2,2s-0.897,2-2,2h-2   c-0.552,0-1,0.447-1,1v10c0,0.552-0.449,1-1,1s-1-0.448-1-1V24c0-0.553-0.448-1-1-1h-8c-1.103,0-2-0.897-2-2S23.897,19,25,19z    M22,25h10v2H22c-0.551,0-1-0.448-1-1S21.449,25,22,25z M32,57.552L23.348,29H32v5c0,1.654,1.346,3,3,3s3-1.346,3-3v-5h2.652   L32,57.552z M43,26c0,0.552-0.449,1-1,1h-4v-2h4C42.551,25,43,25.448,43,26z M51,14h-7V7c0-1.654,1.346-3,3-3s3,1.346,3,3   c0,0.553,0.448,1,1,1c1.654,0,3,1.346,3,3S52.654,14,51,14z"/></g></svg>