<svg xmlns="http://www.w3.org/2000/svg" xmlns:xlink="http://www.w3.org/1999/xlink" viewBox="0 0 468 468" id="winter">
  <defs>
    <circle id="a" cx="242.046" cy="234" r="234"></circle>
  </defs>
  <use xlink:href="#a" fill="#3e99cc" overflow="visible"></use>
  <clipPath id="b">
    <use xlink:href="#a" overflow="visible"></use>
  </clipPath>
  <g clip-path="url(#b)">
    <path fill="#56b0d8" d="M406.887 298.072H170.852L286.028 73.678c1.188-2.314 4.496-2.314 5.684 0l115.175 224.394z"></path>
    <path fill="#0098c1" d="M291.712 73.679c-1.188-2.315-4.497-2.315-5.685-.001L170.852 298.072h47.195c60.827-55.717 90.279-140.393 73.665-224.393z"></path>
    <path fill="#fff" d="M248.022 147.725v20.296c0 7.389 5.99 13.378 13.378 13.378 7.389 0 13.378-5.99 13.378-13.378v-18.097c0-7.782 6.309-14.091 14.091-14.091 7.782 0 14.091 6.309 14.091 14.091v38.445c0 7.389 5.99 13.378 13.378 13.378 7.389 0 13.378-5.99 13.378-13.378v-40.644L291.71 73.679c-1.188-2.314-4.496-2.314-5.684 0l-38.004 74.046z"></path>
    <path fill="#f2f2f2" d="M291.712 73.679c-1.188-2.315-4.497-2.315-5.685 0l-38.006 74.045v19.918c0 7.204 5.536 13.402 12.732 13.741 7.683.362 14.025-5.76 14.025-13.363v-17.699c0-7.67 5.961-14.234 13.627-14.481a14.034 14.034 0 0 1 7.266 1.745 240.254 240.254 0 0 0-3.959-63.906z"></path>
  </g>
  <g clip-path="url(#b)">
    <path fill="#56b0d8" d="M483.65 253.955 402.608 96.061c-1.188-2.314-4.496-2.314-5.684 0L281.748 320.454H483.65v-66.499z"></path>
    <path fill="#29a3ce" d="M402.608 96.062c-1.188-2.315-4.497-2.315-5.685-.001L281.748 320.454h47.194c60.828-55.716 90.28-140.392 73.666-224.392z"></path>
    <path fill="#fff" d="M358.917 170.107v20.296c0 7.389 5.99 13.378 13.378 13.378 7.389 0 13.378-5.99 13.378-13.378v-18.097c0-7.782 6.309-14.091 14.091-14.091 7.782 0 14.091 6.309 14.091 14.091v38.445c0 7.389 5.99 13.378 13.378 13.378 7.389 0 13.378-5.99 13.378-13.378v-40.644l-38.006-74.046c-1.188-2.314-4.496-2.314-5.684 0l-38.004 74.046z"></path>
    <path fill="#f2f2f2" d="M402.608 96.062c-1.188-2.315-4.497-2.315-5.685-.001l-38.006 74.046v19.918c0 7.204 5.536 13.402 12.732 13.741 7.683.362 14.025-5.76 14.025-13.363v-17.699c0-7.67 5.961-14.234 13.627-14.481a14.034 14.034 0 0 1 7.266 1.745 240.25 240.25 0 0 0-3.959-63.906z"></path>
  </g>
  <g clip-path="url(#b)">
    <path fill="#c5f3ff" d="M245.867 254.341C20.675 185.538 4 318.144 4 318.144v72.511h476.139c0-.001-41.731-77.486-234.272-136.314z"></path>
    <path fill="#a1edff" d="M245.867 270.619c138.337 42.267 198.824 94.164 221.916 120.035h12.357s-41.732-77.486-234.273-136.313C20.675 185.538 4 318.144 4 318.144v16.278s16.675-132.606 241.867-63.803z"></path>
  </g>
  <g clip-path="url(#b)">
    <ellipse cx="99.635" cy="196.259" fill="#fff" rx="61.043" ry="60.787"></ellipse>
    <path fill="#f2f2f2" d="M53.852 196.259c0-30.997 23.304-56.556 53.413-60.298a61.77 61.77 0 0 0-7.63-.49c-33.713 0-61.043 27.215-61.043 60.787s27.33 60.787 61.043 60.787c2.586 0 5.129-.179 7.63-.49-30.109-3.74-53.413-29.3-53.413-60.296z"></path>
  </g>
  <g clip-path="url(#b)">
    <path fill="#fff" d="M263.043 254.063c0 23.844-19.411 43.174-43.356 43.174s-43.356-19.33-43.356-43.174 19.411-64.852 43.356-64.852 43.356 41.008 43.356 64.852z"></path>
    <path fill="#f2f2f2" d="M191.592 254.063c0-21.252 15.42-56.137 35.726-63.472-2.477-.895-5.027-1.381-7.63-1.381-23.945 0-43.356 41.008-43.356 64.852s19.411 43.174 43.356 43.174c2.605 0 5.152-.242 7.63-.68-20.304-3.591-35.726-21.243-35.726-42.493z"></path>
  </g>
  <g clip-path="url(#b)">
    <path fill="#d7f9ff" d="m479.458 453.015.681-146.597s-120.852-43.209-218.79 0C97.193 378.842 4 296.244 4 296.244v156.771h475.458z"></path>
    <path fill="#aef8fc" d="M261.35 322.696c96.624-42.63 215.542-1.147 218.714-.027l.076-16.251s-120.852-43.209-218.79 0C97.193 378.842 4 296.244 4 296.244v16.278s93.193 82.598 257.35 10.174z"></path>
  </g>
  <g clip-path="url(#b)">
    <ellipse cx="356.018" cy="307.337" fill="#fff" rx="61.043" ry="60.787"></ellipse>
    <path fill="#f2f2f2" d="M310.235 307.337c0-30.996 23.304-56.556 53.413-60.297a61.77 61.77 0 0 0-7.63-.49c-33.713 0-61.043 27.215-61.043 60.787s27.33 60.787 61.043 60.787c2.586 0 5.129-.179 7.63-.49-30.109-3.741-53.413-29.3-53.413-60.297z"></path>
  </g>
  <g clip-path="url(#b)">
    <path fill="#c5f3ff" d="M480.139 342.63s-41.155 100.877-234.273 43.972S4 450.405 4 450.405v25.711h476.139V342.63z"></path>
    <path fill="#a1edff" d="M245.867 386.602C52.748 329.697 4 450.405 4 450.405v15.261s48.748-120.707 241.866-63.803c193.118 56.905 234.273-43.972 234.273-43.972V342.63s-41.154 100.877-234.272 43.972z"></path>
  </g>
  <g fill="#fff" clip-path="url(#b)">
    <circle cx="159.7" cy="415.744" r="6.104"></circle>
    <circle cx="203.437" cy="357.311" r="6.104"></circle>
    <circle cx="279.31" cy="358.173" r="6.104"></circle>
    <circle cx="431.919" cy="336.619" r="6.104"></circle>
    <circle cx="73.245" cy="360.76" r="6.104"></circle>
    <circle cx="153.429" cy="297.82" r="6.104"></circle>
    <circle cx="62.037" cy="286.611" r="6.104"></circle>
    <circle cx="201.643" cy="138.313" r="6.104"></circle>
    <circle cx="125.253" cy="97.79" r="6.104"></circle>
    <circle cx="216.197" cy="51.059" r="6.104"></circle>
    <circle cx="290.346" cy="30.711" r="6.104"></circle>
    <circle cx="354.321" cy="100.032" r="6.104"></circle>
    <circle cx="269.315" cy="431.436" r="6.104"></circle>
  </g>
  <path fill="#333" d="m484.125 309.522 3.526-55.567c0-.636-.151-1.262-.441-1.826L406.166 94.234c-2.628-5.122-10.173-5.122-12.801 0L350.062 178.6 295.271 71.853c-2.628-5.122-10.173-5.122-12.801 0l-58.38 113.741c-26.055-4.462-42.662 28.048-48.536 48.418a341.005 341.005 0 0 0-21.413-2.45c6.659-10.162 10.539-22.287 10.539-35.303 0-35.724-29.178-64.787-65.043-64.787s-65.044 29.063-65.044 64.787c0 19.687 8.873 37.336 22.833 49.224-21.379 10.281-39.363 27.184-49.726 48.633-2.516-2.024-7.7-2.719-7.7 2.128v179.871a4 4 0 0 0 4 4h476.139a4 4 0 0 0 4-4V342.63c0-.374-.066-.732-.163-1.078l.149-32.03zM362.917 171.074l.003-.006 36.845-71.785 36.847 71.788.001.003v39.677c0 5.172-4.207 9.379-9.378 9.379s-9.378-4.207-9.378-9.379v-38.444c0-9.976-8.116-18.091-18.091-18.091-9.976 0-18.091 8.115-18.091 18.091v18.097c0 5.172-4.207 9.379-9.378 9.379s-9.378-4.207-9.378-9.379v-19.33zM288.87 76.901l36.846 71.787.001.003v39.678c0 5.171-4.207 9.378-9.378 9.378s-9.378-4.207-9.378-9.378v-38.445c0-9.976-8.116-18.091-18.091-18.091-9.975 0-18.091 8.115-18.091 18.091v18.097c0 5.172-4.207 9.379-9.378 9.379s-9.378-4.207-9.378-9.379v-19.329l36.847-71.791zm-44.848 87.377v3.743c0 9.583 7.796 17.379 17.378 17.379s17.378-7.796 17.378-17.379v-18.097c0-5.564 4.527-10.091 10.091-10.091 5.564 0 10.091 4.526 10.091 10.091v38.445c0 9.582 7.796 17.378 17.378 17.378s17.378-7.796 17.378-17.378v-24.092l11.848 23.083-41.83 81.497c-.207.278-.417.553-.619.835a842.541 842.541 0 0 0-36.164-12.829c1.414-23.934-12.687-57.898-35.158-68.763l12.229-23.822zm176.035 131.798c27.658 4.458 48.486 10.751 55.841 13.138l.075 32.894c-20.394 41.648-73.44 56.336-115.956 57.669V371.99c34.008-2.067 61.043-30.267 61.043-64.652a64.52 64.52 0 0 0-1.003-11.262zm-60.039 67.893v-64.736a4 4 0 0 0-8 0v33.782l-14.215-14.156a4 4 0 1 0-5.645 5.668l19.86 19.776v19.666c-29.593-2.053-53.043-26.659-53.043-56.631 0-31.313 25.589-56.787 57.043-56.787s57.043 25.475 57.043 56.787c0 29.971-23.451 54.578-53.043 56.631zM298.781 276.6a64.214 64.214 0 0 0-5.806 14.783c-11.2 2.851-22.358 6.575-33.24 11.376-12.449 5.492-24.469 10.058-36.048 13.829v-15.531c20.581-1.724 37.45-16.609 42.082-36.16a834.747 834.747 0 0 1 33.012 11.703zM192.47 214.735c8.111-13.679 18.031-21.524 27.217-21.524s19.106 7.846 27.217 21.524c7.374 12.438 12.139 27.875 12.139 39.328 0 20.257-15.527 36.971-35.356 38.973v-34.127l13.523-13.467a4 4 0 1 0-5.645-5.668l-7.879 7.846v-20.992a4 4 0 0 0-8 0v42.882l-8.12-8.085a4 4 0 1 0-5.645 5.668l13.764 13.706v12.237c-19.829-2.001-35.356-18.716-35.356-38.973.002-11.453 4.767-26.89 12.141-39.328zm-18.8 26.992c-.878 4.437-1.339 8.628-1.339 12.337 0 24.668 19.11 44.962 43.356 46.993v18.033c-44.699 13.382-82.447 14.798-112.052 11.419v-69.597c17.815-1.083 33.708-9.345 44.812-21.904 8.101.533 16.519 1.45 25.223 2.719zM42.591 196.259c0-31.313 25.59-56.787 57.044-56.787s57.043 25.475 57.043 56.787c0 29.972-23.451 54.579-53.043 56.632v-64.736a4 4 0 0 0-8 0v33.782L81.42 207.78a4 4 0 1 0-5.645 5.668l19.86 19.776v19.666c-29.593-2.052-53.044-26.659-53.044-56.631zm6.72 62.883c4.312-2.78 10.245-6 15.286-8.349a64.806 64.806 0 0 0 31.039 10.119v68.541c-28.648-4.289-57.209-14.088-81.275-30.455 5.649-12.144 16.058-27.675 34.95-39.856zM8 304.372c41.121 29.131 94.724 38.79 144.191 34.998 35.645-2.734 72.914-12.59 110.773-29.293 9.309-4.106 18.838-7.385 28.428-9.994a64.852 64.852 0 0 0-.418 7.255c0 34.385 27.035 62.585 61.043 64.652v27.906c-28.213-.025-62.835-4.699-105.021-17.13-63.383-18.677-138.159-26.1-196.627 11.022C28.678 407.559 15.391 423.689 8 434.938V304.372zm468.139 167.743H8V451.24c2.044-4.499 15.001-30.758 47.082-50.968 46.497-29.291 112.079-32.693 189.655-9.834 44.478 13.105 84.649 18.924 119.395 17.295 41.465-1.945 86.003-15.781 111.772-50.396l.235 114.778zm.328-171.13c-9.246-2.933-30.531-9.08-58.486-13.334-8.386-26.126-32.988-45.099-61.963-45.099a64.83 64.83 0 0 0-35.038 10.229l33.938-66.121v3.744c0 9.583 7.796 17.379 17.378 17.379s17.378-7.796 17.378-17.379v-18.097c0-5.564 4.527-10.091 10.091-10.091 5.564 0 10.091 4.526 10.091 10.091v38.444c0 9.583 7.796 17.379 17.378 17.379s17.378-7.796 17.378-17.379V186.66l35.037 68.262-3.182 46.063z" clip-path="url(#b)"></path>
</svg>
