<?xml version="1.0" ?><svg enable-background="new 0 0 128 128" id="Layer_1" version="1.1" viewBox="0 0 128 128" xml:space="preserve" xmlns="http://www.w3.org/2000/svg" xmlns:xlink="http://www.w3.org/1999/xlink"><g><g><g><g><g><circle cx="64" cy="64" fill="#2979A2" r="64"/></g></g></g><g><g><g><path d="M128,64c0,15.56-5.55,29.82-14.77,40.91l-97.05,1.63C9.68,99.25,4.83,90.46,2.22,80.75       c0.92-0.98,2.15-1.95,4.08-2.9c6.71-3.3,8.48,0.29,15.2-3.01c6.71-3.3,4.94-6.89,11.65-10.19c6.72-3.3,8.48,0.29,15.19-3.01       c6.71-3.3,4.95-6.89,11.66-10.19c6.71-3.3,8.47,0.29,15.18-3.01s4.95-6.89,11.66-10.19c6.71-3.3,8.48,0.29,15.19-3.01       c6.71-3.3,4.94-6.89,11.65-10.19c0.28-0.14,0.55-0.26,0.82-0.37C122.96,35.53,128,49.17,128,64z" fill="#65C7CF"/></g></g></g><g><g><g><g><g><rect fill="#B99AC8" height="3.965" width="2.003" x="59.287" y="43.752"/></g></g></g><g><g><g><polygon fill="#828AC4" points="58.842,43.752 57.956,43.752 57.956,47.716 58.842,47.716 59.287,47.716 59.287,43.752                 "/></g></g></g></g><g><g><g><g><polygon fill="#B99AC8" points="65.8,47.717 47.588,47.717 56.779,58.24 56.779,84.499 74.991,84.499 74.991,58.24                 "/></g></g></g><g><g><g><polygon fill="#828AC4" points="47.588,47.717 38.397,58.24 38.397,84.499 56.609,84.499 56.779,84.499 56.779,58.24                 "/></g></g></g></g></g><g><g><g><rect fill="#98340F" height="23.883" width="0.822" x="28.243" y="60.938"/></g></g></g><g><g><g><path d="M32.129,49.596c0.087-0.461,0.136-0.945,0.136-1.447c0-2.965-1.617-5.369-3.612-5.369       s-3.612,2.404-3.612,5.369c0,0.502,0.05,0.986,0.136,1.447c-1.675,1.363-2.779,3.682-2.779,6.316       c0,4.196,2.8,7.598,6.254,7.598s6.254-3.402,6.254-7.598C34.908,53.279,33.805,50.959,32.129,49.596z" fill="#B99AC8"/></g></g></g><g><g><g><rect fill="#98340F" height="23.928" width="0.822" x="18.323" y="61.334"/></g></g></g><g><g><g><path d="M23.624,56.382c0.052-3.117-2.417-5.7-5.54-5.778c-3.139-0.078-5.747,2.402-5.825,5.541       c-0.011,0.439,0.033,0.866,0.117,1.278c-1.503,1.528-2.459,3.602-2.517,5.914c-0.121,4.833,3.699,8.849,8.533,8.97       s8.849-3.699,8.97-8.533C27.438,60.728,25.947,58.008,23.624,56.382z" fill="#828AC4"/></g></g></g><g><g><g><path d="M127.97,65.9c-0.42,14.51-5.66,27.8-14.19,38.33l-77.7,17.37C19.4,113.51,6.76,98.37,2.03,80.06       c4.25,0.01,10.33,0.6,18.85,2.55c21.55,4.93,47.45-4.81,47.45-4.81C92.78,66.82,117.41,65.76,127.97,65.9z" fill="#CBEAED"/></g></g></g><g><g><g><path d="M126.81,76.33C121.07,105.78,95.13,128,64,128c-13.94,0-26.83-4.45-37.34-12.01       c12.45-2.06,29.15-7.21,43.51-19.81C89.04,79.63,117.41,76.81,126.81,76.33z" fill="#B99AC8"/></g></g></g><g><g><g><rect fill="#173842" height="4.174" width="4.174" x="42.333" y="63.037"/></g></g></g><g><g><g><rect fill="#173842" height="4.174" width="4.174" x="49.326" y="72.148"/></g></g></g><g><g><g><rect fill="#173842" height="4.174" width="4.174" x="62.019" y="64.021"/></g></g></g><g><g><g><path d="M112.73,22.5c-6.53,4.46-17.54,8.85-36,9.99c0,0-12.48,0.68-15.44,11.26h-3.33       c0,0-5.63-18.91,14.71-25.5c8.02-2.59,13.15-7.79,16.42-13.14C98.27,9.02,106.35,15.02,112.73,22.5z" fill="#FFFFFF"/></g></g></g><g><g><g><rect fill="#98340F" height="40.097" width="1.381" x="110.757" y="47.692"/></g></g></g><g><g><g><path d="M117.282,28.651c0.145-0.774,0.229-1.586,0.229-2.429c0-4.979-2.715-9.015-6.064-9.015       s-6.064,4.036-6.064,9.015c0,0.843,0.084,1.655,0.229,2.429c-2.813,2.289-4.666,6.183-4.666,10.604       c0,7.045,4.701,12.756,10.5,12.756s10.5-5.711,10.5-12.756C121.948,34.833,120.095,30.939,117.282,28.651z" fill="#B99AC8"/></g></g></g><g><g><g><rect fill="#98340F" height="40.173" width="1.381" x="94.102" y="48.356"/></g></g></g><g><g><g><path d="M104.283,36.146c0.101-5.997-4.65-10.965-10.657-11.115c-6.038-0.151-11.055,4.621-11.205,10.659       c-0.021,0.844,0.063,1.665,0.225,2.459c-2.892,2.939-4.73,6.928-4.841,11.376c-0.232,9.298,7.116,17.023,16.414,17.255       c9.298,0.232,17.023-7.116,17.255-16.414C111.62,44.505,108.751,39.274,104.283,36.146z" fill="#828AC4"/></g></g></g></g><g opacity="0.5"><g><circle cx="16.786" cy="75.989" fill="#FFFFFF" r="0.84"/></g><g><circle cx="22.176" cy="74.308" fill="#FFFFFF" r="0.84"/></g><g><circle cx="15.106" cy="87.876" fill="#FFFFFF" r="0.84"/></g><g><circle cx="28.712" cy="82.924" fill="#FFFFFF" r="0.84"/></g><g><circle cx="19.766" cy="81.162" fill="#FFFFFF" r="0.84"/></g><g><circle cx="11.545" cy="80.742" fill="#EDE8EE" r="0.42"/></g><g><circle cx="18.298" cy="85.04" fill="#FFFFFF" r="0.42"/></g><g><circle cx="32.68" cy="80.412" fill="#FFFFFF" r="0.84"/></g><g><circle cx="35.873" cy="77.577" fill="#FFFFFF" r="0.42"/></g><g><circle cx="26.357" cy="76.868" fill="#EDE8EE" r="0.42"/></g></g><g opacity="0.5"><g><circle cx="40.746" cy="36.8" fill="#FFFFFF" r="0.84"/></g><g><circle cx="46.136" cy="35.12" fill="#FFFFFF" r="0.84"/></g><g><circle cx="39.066" cy="48.687" fill="#FFFFFF" r="0.84"/></g><g><circle cx="52.672" cy="43.735" fill="#FFFFFF" r="0.84"/></g><g><circle cx="43.726" cy="41.974" fill="#FFFFFF" r="0.84"/></g><g><circle cx="49.837" cy="25.417" fill="#FFFFFF" r="0.84"/></g><g><circle cx="55.227" cy="23.736" fill="#FFFFFF" r="0.84"/></g><g><circle cx="64.105" cy="18.048" fill="#FFFFFF" r="0.84"/></g><g><circle cx="52.817" cy="30.59" fill="#FFFFFF" r="0.84"/></g><g><circle cx="35.505" cy="41.554" fill="#EDE8EE" r="0.42"/></g><g><circle cx="42.258" cy="45.852" fill="#FFFFFF" r="0.42"/></g><g><circle cx="56.64" cy="41.224" fill="#FFFFFF" r="0.84"/></g><g><circle cx="59.833" cy="38.388" fill="#FFFFFF" r="0.42"/></g><g><circle cx="50.317" cy="37.679" fill="#EDE8EE" r="0.42"/></g></g><g><g><circle cx="38.458" cy="86.709" fill="#FFFFFF" r="1.681"/></g><g><circle cx="49.238" cy="83.348" fill="#FFFFFF" r="1.681"/></g><g><circle cx="35.097" cy="110.483" fill="#FFFFFF" r="1.681"/></g><g><circle cx="62.309" cy="100.579" fill="#FFFFFF" r="1.681"/></g><g><circle cx="44.419" cy="97.056" fill="#FFFFFF" r="1.681"/></g><g><circle cx="27.976" cy="96.215" fill="#EDE8EE" r="0.84"/></g><g><circle cx="41.482" cy="104.812" fill="#FFFFFF" r="0.84"/></g><g><circle cx="57.6" cy="88.466" fill="#EDE8EE" r="0.84"/></g><g><circle cx="67.175" cy="78.063" fill="#EDE8EE" r="0.84"/></g><g><circle cx="83.135" cy="68.988" fill="#EDE8EE" r="0.84"/></g></g><g><g><circle cx="79.338" cy="65.541" fill="#FFFFFF" r="1.681"/></g><g><circle cx="90.118" cy="62.18" fill="#FFFFFF" r="1.681"/></g><g><circle cx="75.976" cy="89.315" fill="#FFFFFF" r="1.681"/></g><g><circle cx="103.189" cy="79.411" fill="#FFFFFF" r="1.681"/></g><g><circle cx="85.298" cy="75.888" fill="#FFFFFF" r="1.681"/></g><g><circle cx="68.855" cy="75.048" fill="#EDE8EE" r="0.84"/></g><g><circle cx="82.362" cy="83.644" fill="#FFFFFF" r="0.84"/></g><g><circle cx="98.479" cy="67.299" fill="#EDE8EE" r="0.84"/></g><g><circle cx="108.054" cy="56.895" fill="#EDE8EE" r="0.84"/></g><g><circle cx="124.014" cy="47.82" fill="#EDE8EE" r="0.84"/></g></g></g></svg>