<svg xmlns="http://www.w3.org/2000/svg" xml:space="preserve" id="Leaves" x="0" y="0" enable-background="new 0 0 74 74" version="1.0" viewBox="0 0 74 74">
  <path fill="#d8a719" d="M46.34,52.83c4.87,0.42,10.17-0.75,13.46-4.37l0.02-0.02c3.63-3.3,4.8-8.6,4.38-13.47
			c-0.9-10.03-7.85-18.91-16.71-23.68c-8.87-4.76-19.38-5.77-29.37-4.53c-1.23,9.99-0.22,20.5,4.55,29.36
			C27.42,44.99,36.3,51.94,46.34,52.83z" class="coloradd819 svgShape"></path>
  <path fill="#4285f4" d="M19.01,26.43c3.51,2.58,7.39,4.64,11.6,5.67c2.15,0.53,4.39,0.81,6.31,1.89c1.7,0.97,3,2.51,4.4,3.87
			c3.47,3.38,8.52,5.86,13.08,4.28c2.46-0.84,4.43-2.75,6.91-3.48c0.94-0.28,1.91-0.36,2.89-0.25c0.1-1.14,0.09-2.3-0.01-3.44
			c-0.9-10.03-7.85-18.91-16.71-23.68c-8.87-4.76-19.38-5.77-29.37-4.53C17.31,13.29,17.47,20.06,19.01,26.43z" opacity=".15" class="colorffffff svgShape"></path>
  <path fill="#4285f4" d="M50.76,20.89c1.91,1.58,2.8,4.08,4.45,5.95c1.94,2.2,4.84,3.38,7.74,3.8c0.15,0.02,0.31,0.04,0.48,0.06
			c-2.17-8.25-8.36-15.33-15.94-19.41c-8.87-4.76-19.38-5.77-29.37-4.53c-0.4,3.3-0.56,6.65-0.43,9.99
			c7.98,1.19,16.06,1.86,24.13,2.01C44.95,18.81,48.36,18.89,50.76,20.89z" opacity=".15" class="colorffffff svgShape"></path>
  <path d="M46.48,51.27c4.87,0.42,9.18-0.86,11.83-3.52c0.11-0.11,0.45-0.48,0.45-0.48c0.12-0.1,0.23-0.21,0.34-0.32
			c2.53-2.53,3.82-6.56,3.58-11.13c-0.2,3.69-1.45,6.89-3.58,9.02c-0.11,0.11-0.23,0.21-0.34,0.32c0,0-0.34,0.36-0.45,0.48
			c-2.65,2.65-6.97,3.94-11.83,3.52c-9.02-0.8-17.62-6.89-22.44-15.89c-3.54-6.57-4.71-13.69-4.83-19.92
			c-0.12,6.71,0.88,14.71,4.83,22.02C28.88,44.39,37.47,50.48,46.48,51.27z" opacity=".05" fill="#34a853" class="color000000 svgShape"></path>
  <path fill="#ba8e0d" d="M68.77,56.28c0.01-0.01,0.02-0.02,0.03-0.03c0.29-0.32,0.26-0.82-0.06-1.1
					c-13.05-11.63-25.71-24.01-37.63-36.8c-0.29-0.32-0.79-0.33-1.1-0.04c-0.28,0.26-0.33,0.79-0.04,1.1
					c11.95,12.83,24.64,25.24,37.73,36.9C68.01,56.59,68.48,56.58,68.77,56.28z" class="color98ba0d svgShape"></path>
  <path fill="#ba8e0d" d="M40.66 29.45c.18-.18.27-.43.22-.7-.08-.42-.49-.7-.91-.62-2.85.54-5.68.68-8.41.41-.43-.04-.81.27-.85.7-.04.43.27.81.7.85 2.88.28 5.85.13 8.85-.43C40.41 29.64 40.55 29.56 40.66 29.45zM49.8 38.59c.17-.17.26-.41.22-.67-.06-.43-.46-.72-.89-.66-5.16.75-10.3.78-15.3.08-.43-.06-.82.24-.88.67-.06.43.24.82.67.88 5.14.72 10.44.69 15.74-.08C49.53 38.79 49.69 38.71 49.8 38.59z" class="color98ba0d svgShape"></path>
  <path fill="#ba8e0d" d="M40.74 29.37c.11-.11.18-.25.21-.41.56-3 .71-5.98.43-8.85-.04-.43-.42-.74-.85-.7-.43.04-.74.42-.7.85.27 2.73.13 5.56-.41 8.41-.08.42.2.83.62.91C40.31 29.64 40.56 29.55 40.74 29.37zM49.88 38.51c.12-.12.19-.27.22-.44.77-5.3.8-10.6.08-15.75-.06-.43-.46-.73-.88-.67-.43.06-.73.46-.67.88.7 5 .67 10.15-.08 15.3-.06.43.23.82.66.89C49.47 38.77 49.71 38.68 49.88 38.51z" class="color98ba0d svgShape"></path>
  <path fill="#4285f4" d="M34.49,48.78c-0.51-1.19-0.96-2.42-1.31-3.67c-0.93-3.38-1.07-7.09,0.29-10.33c0.84-2.01,2.23-3.8,2.79-5.93
			c0.64-2.57-0.04-5.24-0.48-7.84c-0.77-4.6-0.74-9.23-0.28-13.86c-5.68-1.08-11.62-1.12-17.38-0.4c-1.23,9.99-0.22,20.5,4.55,29.36
			C25.41,41.25,29.54,45.74,34.49,48.78z" opacity=".15" class="colorffffff svgShape"></path>
  <g fill="#34a853" class="color000000 svgShape">
    <path fill="#fbbc05" d="M49.57,64.23c3.7-2.28,6.87-5.93,7.3-10.25l0-0.03c0.84-4.28-1.13-8.69-4.01-11.94
			c-5.96-6.69-15.63-9.35-24.48-8.06C19.53,35.26,11.48,40.1,5,46.28c4.42,7.78,10.71,14.76,18.81,18.56
			C31.9,68.66,41.93,68.92,49.57,64.23z" class="colorffbb04 svgShape"></path>
    <path fill="#4285f4" d="M16.07,59.86c3.87-0.02,7.74-0.6,11.29-2.1c1.81-0.76,3.56-1.75,5.51-2c1.73-0.21,3.47,0.2,5.2,0.43
			c4.27,0.58,9.19-0.33,11.61-3.88c1.31-1.9,1.71-4.32,3.09-6.15c0.52-0.7,1.17-1.27,1.93-1.71c-0.53-0.87-1.16-1.69-1.83-2.45
			c-5.96-6.69-15.63-9.35-24.48-8.06C19.53,35.26,11.48,40.1,5,46.28C7.89,51.38,11.58,56.13,16.07,59.86z" opacity=".15" class="colorffffff svgShape"></path>
    <path fill="#4285f4" d="M35.81,39.08c2.2,0.12,4.16,1.43,6.33,1.89c2.55,0.55,5.25-0.15,7.55-1.39c0.12-0.07,0.24-0.13,0.37-0.21
			c-5.92-4.74-14.09-6.52-21.67-5.42C19.53,35.26,11.48,40.1,5,46.28c1.46,2.57,3.12,5.05,4.98,7.36
			c6.34-3.38,12.45-7.18,18.3-11.35C30.55,40.67,33.03,38.92,35.81,39.08z" opacity=".15" class="colorffffff svgShape"></path>
    <path d="M48.85,63.04c3.7-2.28,6.1-5.48,6.59-8.78c0.02-0.14,0.07-0.58,0.07-0.58c0.03-0.14,0.05-0.27,0.07-0.41
			c0.47-3.15-0.75-6.71-3.34-9.85c1.82,2.74,2.62,5.69,2.22,8.34c-0.02,0.14-0.05,0.27-0.07,0.41c0,0-0.05,0.44-0.07,0.58
			c-0.49,3.3-2.89,6.5-6.59,8.78c-6.87,4.21-16.23,4.42-24.45,0.54c-6.01-2.82-10.62-7.28-14.01-11.66
			c3.47,4.86,8.43,10.04,15.12,13.17C32.63,67.46,42,67.26,48.85,63.04z" opacity=".05" fill="#34a853" class="color000000 svgShape"></path>
    <path fill="#ea4335" d="M67.43,54.81c0-0.01,0-0.03,0-0.04c0.03-0.38-0.25-0.72-0.63-0.75c-15.48-1.39-31.09-3.53-46.38-6.35
					c-0.38-0.07-0.74,0.18-0.81,0.56c-0.06,0.33,0.18,0.74,0.56,0.81c15.33,2.83,30.98,4.97,46.51,6.36
					C67.04,55.44,67.37,55.18,67.43,54.81z" class="colorea7d18 svgShape"></path>
    <path fill="#ea4335" d="M33.13 50.55c.03-.22-.04-.45-.22-.61-.28-.26-.72-.24-.98.04-1.75 1.9-3.7 3.5-5.79 4.75-.33.2-.44.63-.24.95.2.33.63.44.95.24 2.2-1.33 4.25-3.01 6.09-5C33.05 50.81 33.11 50.68 33.13 50.55zM44.5 52.23c.03-.21-.03-.43-.2-.59-.27-.27-.71-.27-.98 0-3.28 3.27-6.95 6.02-10.89 8.16-.34.18-.46.61-.28.94.18.34.61.46.94.28 4.06-2.21 7.83-5.04 11.2-8.4C44.41 52.51 44.48 52.37 44.5 52.23z" class="colorea7d18 svgShape"></path>
    <path fill="#ea4335" d="M33.14 50.45c.02-.13 0-.27-.06-.4-1.19-2.44-2.66-4.65-4.38-6.55-.26-.28-.7-.31-.98-.05-.29.26-.31.7-.05.98 1.64 1.81 3.04 3.9 4.16 6.23.17.35.58.49.93.32C32.97 50.87 33.11 50.67 33.14 50.45zM44.51 52.13c.02-.14 0-.29-.08-.43-2.26-4.2-5.05-7.99-8.29-11.29-.27-.27-.71-.28-.98-.01-.27.27-.28.71-.01.98 3.15 3.2 5.86 6.89 8.05 10.97.18.34.6.47.94.28C44.36 52.54 44.48 52.34 44.51 52.13z" class="colorea7d18 svgShape"></path>
    <path fill="#4285f4" d="M38.96,67.62c-1-0.58-1.97-1.22-2.88-1.93c-2.46-1.92-4.52-4.5-5.27-7.53c-0.47-1.88-0.42-3.9-1.15-5.71
			c-0.9-2.17-2.81-3.72-4.5-5.35c-2.99-2.88-5.42-6.2-7.54-9.75C12.99,39.59,8.73,42.72,5,46.28c4.42,7.78,10.71,14.76,18.81,18.56
			C28.49,67.06,33.82,68.07,38.96,67.62z" opacity=".15" class="colorffffff svgShape"></path>
  </g>
</svg>
