<svg xmlns="http://www.w3.org/2000/svg" id="autumn" enable-background="new 0 0 64 64" viewBox="0 0 64 64">
  <path fill="#4e5292" d="M60.1,60.42H35.43c-0.75-3.56-1.19-7.8-1.47-12.19c1.47,0.22,3.31,0.42,5.21,0.42c2.74,0,5.56-0.42,7.45-1.79
		c5.86-4.26,6.28-8.27,6.66-11.81c0.19-1.75,0.35-3.4,1.12-5.03c0.08-0.16,0.06-0.34-0.04-0.49c-0.1-0.15-0.28-0.23-0.45-0.21
		c-1.58,0.14-2.98-0.01-4.34-0.15c-0.56-0.06-1.11-0.12-1.66-0.16c4.29-4.26,4.01-7.42,3.71-10.73c-0.13-1.35-0.25-2.75-0.09-4.31
		c0.01-0.16-0.04-0.31-0.15-0.4c-0.11-0.11-0.27-0.17-0.41-0.14c-1.56,0.22-2.95,0.14-4.3,0.07c-2.16-0.12-4.2-0.23-6.48,0.87
		c0.37-6.71-2.12-8.86-4.74-11.14c-1.03-0.89-2.09-1.8-3.06-3.04c-0.19-0.24-0.59-0.24-0.78,0c-0.98,1.24-2.03,2.16-3.06,3.04
		c-2.62,2.27-5.11,4.43-4.74,11.14c-2.27-1.09-4.32-0.98-6.48-0.87c-1.36,0.07-2.76,0.15-4.31-0.07c-0.15-0.02-0.31,0.03-0.41,0.14
		c-0.11,0.1-0.16,0.25-0.15,0.4c0.16,1.57,0.04,2.95-0.09,4.31c-0.3,3.32-0.58,6.46,3.72,10.73c-0.55,0.04-1.1,0.1-1.67,0.16
		c-1.35,0.14-2.76,0.29-4.33,0.15c-0.18-0.02-0.35,0.06-0.45,0.21c-0.1,0.15-0.12,0.33-0.04,0.49c0.77,1.63,0.94,3.28,1.12,5.03
		c0.37,3.54,0.79,7.54,6.65,11.81c3.17,2.31,9.03,1.91,12.62,1.37c-0.36,4.77-0.88,8.78-1.55,12.19H3.9c-0.27,0-0.49,0.23-0.49,0.49
		v2.6C3.41,63.77,3.63,64,3.9,64h56.2c0.27,0,0.49-0.23,0.49-0.49v-2.6C60.59,60.64,60.37,60.42,60.1,60.42z M17.94,46.06
		c-5.5-4-5.88-7.62-6.25-11.12c-0.16-1.51-0.32-3.05-0.9-4.59c1.35,0.05,2.55-0.08,3.73-0.21c0.96-0.1,1.85-0.19,2.76-0.18
		c0.21,0,0.38-0.13,0.46-0.32c0.07-0.19,0.02-0.4-0.13-0.54c-4.84-4.37-4.58-7.19-4.26-10.74c0.11-1.23,0.23-2.49,0.14-3.9
		c1.41,0.14,2.67,0.07,3.89,0.01c2.35-0.13,4.38-0.24,6.73,1.16c0.16,0.1,0.35,0.1,0.51,0c0.16-0.1,0.25-0.28,0.24-0.46
		c-0.6-6.92,1.58-8.81,4.34-11.21c0.93-0.81,1.88-1.63,2.8-2.71c0.93,1.07,1.88,1.9,2.81,2.71c2.77,2.39,4.94,4.28,4.34,11.21
		c-0.01,0.19,0.08,0.36,0.24,0.46c0.16,0.1,0.35,0.1,0.51,0c2.34-1.4,4.36-1.29,6.72-1.16c1.23,0.06,2.49,0.13,3.89-0.01
		c-0.09,1.42,0.03,2.68,0.14,3.9c0.32,3.56,0.58,6.37-4.25,10.74c-0.15,0.14-0.21,0.35-0.13,0.54c0.08,0.19,0.29,0.32,0.46,0.32
		c0.91-0.02,1.8,0.08,2.76,0.18c1.17,0.13,2.38,0.26,3.73,0.21c-0.58,1.54-0.74,3.08-0.91,4.59c-0.36,3.5-0.75,7.11-6.25,11.12
		c-3.06,2.23-9.25,1.61-12.14,1.16c-0.18-3.27-0.28-6.61-0.33-9.77l7.02-8.59c0.16-0.2,0.15-0.47-0.03-0.65
		c-0.18-0.19-0.45-0.21-0.65-0.05l-6.34,4.94V25.9l5.13-6.68c0.15-0.2,0.14-0.46-0.04-0.64c-0.17-0.18-0.43-0.21-0.63-0.06
		l-4.62,3.22l-0.97-4.81c-0.05-0.25-0.24-0.41-0.51-0.39c-0.24,0.01-0.43,0.21-0.46,0.44l-1.03,11.96l-5.71-4.64
		c-0.2-0.16-0.47-0.15-0.65,0.03c-0.18,0.17-0.21,0.45-0.05,0.65l6.33,8.37v5.12l-7.74-5.74c-0.2-0.15-0.48-0.12-0.66,0.07
		c-0.17,0.19-0.17,0.47,0,0.66l8.39,9.21c-0.08,1.59-0.18,3.09-0.29,4.54C27.17,47.66,20.99,48.28,17.94,46.06z M31.33,42.52
		c0.01-0.13-0.04-0.26-0.12-0.35l-5.12-5.62l4.46,3.31c0.15,0.11,0.34,0.13,0.51,0.05c0.17-0.09,0.28-0.26,0.28-0.44V33.2
		c0-0.11-0.04-0.22-0.11-0.3l-3.97-5.26l3.27,2.66c0.14,0.12,0.33,0.14,0.5,0.07c0.17-0.07,0.29-0.23,0.3-0.41l0.83-9.47l0.44,2.2
		c0.03,0.16,0.15,0.3,0.3,0.35c0.16,0.07,0.33,0.05,0.46-0.05l2.62-1.83l-3.29,4.28c-0.07,0.09-0.1,0.19-0.1,0.3v8.38
		c0,0.19,0.11,0.36,0.28,0.44c0.17,0.08,0.36,0.06,0.52-0.06l3.67-2.86l-4.36,5.33c-0.07,0.09-0.11,0.21-0.11,0.32
		c0.15,7.77,0.48,16.54,1.84,23.13h-4.98C30.35,55.7,30.97,49.85,31.33,42.52z M59.61,63.02H4.39V61.4h55.22V63.02z"></path>
  <path fill="#a5d179" d="M53.21,30.35c-0.58,1.54-0.74,3.08-0.91,4.59c-0.36,3.5-0.75,7.11-6.25,11.12
		c-3.06,2.23-9.25,1.61-12.14,1.16c-0.18-3.27-0.28-6.61-0.33-9.77l7.02-8.59c0.16-0.2,0.15-0.47-0.03-0.65
		c-0.18-0.19-0.45-0.21-0.65-0.05l-6.34,4.94V25.9l5.13-6.68c0.15-0.2,0.14-0.46-0.04-0.64c-0.17-0.18-0.43-0.21-0.63-0.06
		l-4.62,3.22l-0.97-4.81c-0.05-0.25-0.24-0.41-0.51-0.39c-0.24,0.01-0.43,0.21-0.46,0.44l-1.03,11.96l-5.71-4.64
		c-0.2-0.16-0.47-0.15-0.65,0.03c-0.18,0.17-0.21,0.45-0.05,0.65l6.33,8.37v5.12l-7.74-5.74c-0.2-0.15-0.48-0.12-0.66,0.07
		c-0.17,0.19-0.17,0.47,0,0.66l8.39,9.21c-0.08,1.59-0.18,3.09-0.29,4.54c-2.89,0.44-9.07,1.06-12.11-1.16
		c-5.5-4-5.88-7.62-6.25-11.12c-0.16-1.51-0.32-3.05-0.9-4.59c1.35,0.05,2.55-0.08,3.73-0.21c0.96-0.1,1.85-0.19,2.76-0.18
		c0.21,0,0.38-0.13,0.46-0.32c0.07-0.19,0.02-0.4-0.13-0.54c-4.84-4.37-4.58-7.19-4.26-10.74c0.11-1.23,0.23-2.49,0.14-3.9
		c1.41,0.14,2.67,0.07,3.89,0.01c2.35-0.13,4.38-0.24,6.73,1.16c0.16,0.1,0.35,0.1,0.51,0c0.16-0.1,0.25-0.28,0.24-0.46
		c-0.6-6.92,1.58-8.81,4.34-11.21c0.93-0.81,1.88-1.63,2.8-2.71c0.93,1.07,1.88,1.9,2.81,2.71c2.77,2.39,4.94,4.28,4.34,11.21
		c-0.01,0.19,0.08,0.36,0.24,0.46c0.16,0.1,0.35,0.1,0.51,0c2.34-1.4,4.36-1.29,6.72-1.16c1.23,0.06,2.49,0.13,3.89-0.01
		c-0.09,1.42,0.03,2.68,0.14,3.9c0.32,3.56,0.58,6.37-4.25,10.74c-0.15,0.14-0.21,0.35-0.13,0.54c0.08,0.19,0.29,0.32,0.46,0.32
		c0.91-0.02,1.8,0.08,2.76,0.18C50.65,30.27,51.86,30.4,53.21,30.35z"></path>
  <path fill="#bfdda0" d="M53.21,30.35c-0.58,1.54-0.74,3.08-0.91,4.59c-0.36,3.5-0.75,7.11-6.25,11.12c-0.93,0.67-2.14,1.08-3.46,1.32
		c0.54-0.23,1.03-0.51,1.46-0.88c4.72-4.05,5.05-7.7,5.36-11.23c0.15-1.53,0.29-3.08,0.78-4.64c-1.15,0.05-2.2-0.08-3.2-0.21
		c-0.82-0.1-1.59-0.2-2.36-0.18c-0.15,0-0.32-0.13-0.39-0.32c-0.07-0.19-0.02-0.4,0.11-0.54c4.15-4.42,3.93-6.11,3.64-9.71
		c-0.09-1.23-0.19-2.5-0.12-3.94c-1.19,0.15-2.27,0.07-3.33,0.01c-2.02-0.13-3.75-0.24-5.76,1.18c-0.14,0.1-0.31,0.1-0.44,0
		c-0.14-0.11-0.21-0.29-0.2-0.47C38.64,9.46,36.77,6.41,34.4,4c-0.79-0.82-1.61-1.65-2.4-2.74c0.93,1.07,1.88,1.9,2.81,2.71
		c2.77,2.39,4.94,4.28,4.34,11.21c-0.01,0.19,0.08,0.36,0.24,0.46c0.16,0.1,0.35,0.1,0.51,0c2.34-1.4,4.36-1.29,6.72-1.16
		c1.23,0.06,2.49,0.13,3.89-0.01c-0.09,1.42,0.03,2.68,0.14,3.9c0.32,3.56,0.58,6.37-4.25,10.74c-0.15,0.14-0.21,0.35-0.13,0.54
		c0.08,0.19,0.29,0.32,0.46,0.32c0.91-0.02,1.8,0.08,2.76,0.18C50.65,30.27,51.86,30.4,53.21,30.35z"></path>
  <path fill="#94c36b" d="M29.6,4c-2.37,2.41-4.24,5.47-3.73,12.46c0.01,0.19-0.06,0.36-0.2,0.47c-0.14,0.1-0.31,0.1-0.44,0
		c-2.01-1.42-3.75-1.31-5.76-1.18c-1.05,0.06-2.14,0.14-3.34-0.01c0.08,1.43-0.03,2.7-0.12,3.94c-0.28,3.59-0.49,5.29,3.65,9.71
		c0.13,0.14,0.17,0.35,0.11,0.54c-0.07,0.2-0.22,0.32-0.39,0.32c-0.78-0.01-1.55,0.08-2.36,0.18c-1.01,0.13-2.05,0.26-3.2,0.21
		c0.49,1.56,0.63,3.11,0.77,4.64c0.32,3.53,0.64,7.19,5.36,11.23c0.42,0.36,0.92,0.65,1.45,0.88c-1.32-0.24-2.53-0.65-3.45-1.32
		c-5.5-4-5.88-7.62-6.25-11.12c-0.16-1.51-0.32-3.05-0.9-4.59c1.35,0.05,2.55-0.08,3.73-0.21c0.96-0.1,1.85-0.19,2.76-0.18
		c0.21,0,0.38-0.13,0.46-0.32c0.07-0.19,0.02-0.4-0.13-0.54c-4.84-4.37-4.58-7.19-4.26-10.74c0.11-1.23,0.23-2.49,0.14-3.9
		c1.41,0.14,2.67,0.07,3.89,0.01c2.35-0.13,4.38-0.24,6.73,1.16c0.16,0.1,0.35,0.1,0.51,0c0.16-0.1,0.25-0.28,0.24-0.46
		c-0.6-6.92,1.58-8.81,4.34-11.21c0.93-0.81,1.88-1.63,2.8-2.71C31.21,2.34,30.39,3.18,29.6,4z"></path>
  <path fill="#cfb7a5" d="M32.59,37.28c0.15,7.77,0.48,16.54,1.84,23.13h-4.98c0.91-4.72,1.53-10.57,1.88-17.89
		c0.01-0.13-0.04-0.26-0.12-0.35l-5.12-5.62l4.46,3.31c0.15,0.11,0.34,0.13,0.51,0.05c0.17-0.09,0.28-0.26,0.28-0.44V33.2
		c0-0.11-0.04-0.22-0.11-0.3l-3.97-5.26l3.27,2.66c0.14,0.12,0.33,0.14,0.5,0.07c0.17-0.07,0.29-0.23,0.3-0.41l0.83-9.47l0.44,2.2
		c0.03,0.16,0.15,0.3,0.3,0.35c0.16,0.07,0.33,0.05,0.46-0.05l2.62-1.83l-3.29,4.28c-0.07,0.09-0.1,0.19-0.1,0.3v8.38
		c0,0.19,0.11,0.36,0.28,0.44c0.17,0.08,0.36,0.06,0.52-0.06l3.67-2.86l-4.36,5.33C32.63,37.06,32.59,37.17,32.59,37.28z"></path>
  <rect width="55.22" height="1.62" x="4.39" y="61.4" fill="#ccd5dd"></rect>
</svg>
