<?xml version="1.0" ?><svg viewBox="0 0 64 64" xmlns="http://www.w3.org/2000/svg"><defs><style>.cls-1{fill:#eaeaea;}.cls-2,.cls-8{fill:none;}.cls-10,.cls-2,.cls-4,.cls-5,.cls-6,.cls-7,.cls-8,.cls-9{stroke:#4c241d;stroke-linejoin:round;stroke-width:2px;}.cls-10,.cls-2,.cls-4,.cls-5,.cls-6,.cls-7,.cls-9{stroke-linecap:round;}.cls-3{fill:#4c241d;}.cls-4{fill:#a9ba5a;}.cls-5{fill:#bf7e68;}.cls-6{fill:#e66353;}.cls-7{fill:#fff;}.cls-9{fill:#fc8c29;}.cls-10{fill:#ffded5;}</style></defs><g id="drink-candle"><circle class="cls-1" cx="35.5" cy="32.5" r="21.5"/><line class="cls-2" x1="33.1287" x2="35.9571" y1="13.5858" y2="16.4142"/><line class="cls-2" x1="35.9571" x2="33.1287" y1="13.5858" y2="16.4142"/><circle class="cls-3" cx="41.0429" cy="22.5" r="1.1324"/><circle class="cls-2" cx="53.1903" cy="21.2101" r="2.0846"/><path class="cls-4" d="M22,24V18H16v6h0a7.9541,7.9541,0,0,0-5,7.3852V60.0063A1.9937,1.9937,0,0,0,12.9937,62H25.0062A1.9937,1.9937,0,0,0,27,60.0063V31.3852A7.9541,7.9541,0,0,0,22,24Z"/><rect class="cls-5" height="14" width="8" x="15" y="41"/><rect class="cls-5" height="7" width="6" x="16" y="11"/><rect class="cls-5" height="3" width="6" x="16" y="3"/><rect class="cls-5" height="5" width="8" x="15" y="6"/><path class="cls-6" d="M23,34H37a0,0,0,0,1,0,0v8a7,7,0,0,1-7,7h0a7,7,0,0,1-7-7V34A0,0,0,0,1,23,34Z"/><rect class="cls-7" height="5" width="14" x="23" y="29"/><circle class="cls-3" cx="33" cy="39" r="1"/><line class="cls-8" x1="30.0534" x2="30" y1="49.1824" y2="62"/><circle class="cls-3" cx="30" cy="43" r="1"/><path class="cls-9" d="M51.2544,42.7143c0-4.2857-5.1429-7.7143-5.1429-7.7143s.8572,1.7143-2.5714,5.1429C41.3548,42.3282,41.8258,47,46.9687,47A4.1606,4.1606,0,0,0,51.2544,42.7143Z"/><path class="cls-6" d="M49.39,44.8571C49.39,42.7143,46.8188,41,46.8188,41s.4286.8571-1.2857,2.5714C44.4405,44.6641,44.676,47,47.2474,47A2.08,2.08,0,0,0,49.39,44.8571Z"/><rect class="cls-10" height="15" width="10" x="42" y="47"/><line class="cls-2" x1="61" x2="2" y1="62" y2="62"/></g></svg>