<?xml version="1.0" ?><svg style="enable-background:new 0 0 512 512;" version="1.1" viewBox="0 0 512 512" xml:space="preserve" xmlns="http://www.w3.org/2000/svg" xmlns:xlink="http://www.w3.org/1999/xlink"><style type="text/css">
	.st0{fill:#C8C6CC;}
	.st1{fill:#78CBED;}
	.st2{fill:#34B6E2;}
	.st3{fill:#FFFFFF;}
	.st4{fill:#F6D6C5;}
	.st5{fill:#C76D33;}
	.st6{fill:#DF8A57;}
	.st7{fill:#FFD6BC;}
	.st8{fill:#F85647;}
	.st9{fill:#FFB88C;}
	.st10{fill:#FF97C1;}
	.st11{fill:#00C755;}
	.st12{fill:#55D47B;}
	.st13{fill:#FF9A5C;}
	.st14{fill:#F54432;}
	.st15{fill:#948EA3;}
	.st16{fill:#FD7A6E;}
	.st17{fill:#77728D;}
	.st18{fill:none;}
	.st19{fill:#FF7E27;}
	.st20{fill:#EAAA83;}
	.st21{fill:#E83826;}
</style><g id="Layer_1"/><g id="Layer_2"/><g id="Layer_3"/><g id="Layer_4"/><g id="Layer_5"/><g id="Layer_6"/><g id="Layer_7"/><g id="Layer_8"/><g id="Layer_9"/><g id="Layer_10"/><g id="Layer_11"/><g id="Layer_12"/><g id="Layer_13"/><g id="Layer_14"/><g id="Layer_15"/><g id="Layer_16"/><g id="Layer_17"/><g id="Layer_18"/><g id="Layer_19"/><g id="Layer_20"/><g id="Layer_21"/><g id="Layer_22"/><g id="Layer_23"/><g id="Layer_24"/><g id="Layer_25"/><g id="Layer_26"/><g id="Layer_27"/><g id="Layer_28"/><g id="Layer_29"/><g id="Layer_30"/><g id="Layer_31"/><g id="Layer_32"/><g id="Layer_33"/><g id="Layer_34"/><g id="Layer_35"/><g id="Layer_36"/><g id="Layer_37"/><g id="Layer_38"/><g id="Layer_39"/><g id="Layer_40"/><g id="Layer_41"/><g id="Layer_42"/><g id="Layer_43"/><g id="Layer_44"/><g id="Layer_45"/><g id="Layer_46"/><g id="Layer_47"/><g id="Layer_48"/><g id="Layer_49"/><g id="Layer_50"><g><path class="st8" d="M192.958,353.37l40.06,40.36c1.94,1.95,1.94,5.11,0,7.07l-88.22,88.87c0,0-87.28,33.46-120.62-0.14    c-33.35-33.59-0.14-121.52-0.14-121.52l88.16-88.82c1.97-1.98,5.16-1.98,7.13,0l40.01,40.31L192.958,353.37z"/><polygon class="st6" points="112.832,407.013 106.084,400.216 147.868,331.048 365.099,112.203 398.72,146.074 181.717,364.689       "/><path class="st15" d="M411.716,8.845l-58.454,88.021c-0.79,1.19-0.635,2.772,0.371,3.786l56.535,56.955    c1.018,1.026,2.622,1.183,3.82,0.375l87.363-58.897c1.566-1.056,1.784-3.276,0.454-4.617L416.362,8.39    C415.018,7.037,412.771,7.257,411.716,8.845z M414.899,108.352l-12.373-12.465c-1.007-1.014-1.162-2.596-0.371-3.786    l15.464-23.287c1.055-1.588,3.302-1.809,4.645-0.455l20.024,20.173c1.331,1.341,1.112,3.561-0.454,4.617l-23.115,15.579    C417.521,109.535,415.918,109.377,414.899,108.352z"/></g><g><path d="M411.373,64.665l-15.465,23.289c-2.745,4.137-2.199,9.695,1.297,13.217l12.371,12.462c2.032,2.049,4.74,3.105,7.468,3.105    c2.035,0,4.083-0.588,5.868-1.792l23.115-15.579c2.607-1.757,4.278-4.559,4.586-7.687s-0.786-6.202-3-8.433l-20.025-20.174    c-2.234-2.25-5.322-3.367-8.486-3.054C415.944,60.329,413.128,62.022,411.373,64.665z M420.823,77.55l12.32,12.412l-15.535,10.47    l-7.179-7.231L420.823,77.55z"/><path d="M507.131,89.186L421.685,3.104c-2.235-2.25-5.323-3.366-8.486-3.054c-3.157,0.31-5.974,2.003-7.729,4.646l-58.451,88.019    c-2.75,4.137-2.205,9.698,1.294,13.221l6.22,6.267l-55.257,55.667c-2.918,2.94-2.9,7.688,0.04,10.606    c2.939,2.918,7.688,2.9,10.606-0.039l55.178-55.588l20.243,20.393l2.811,2.831L177.028,358.769l-59.064,36.289l35.86-59.363    l10.732-10.811c0.022-0.021,0.046-0.039,0.067-0.06c0.029-0.029,0.053-0.061,0.082-0.09L284.55,203.999    c2.918-2.94,2.9-7.688-0.04-10.606c-2.94-2.919-7.688-2.901-10.606,0.039L159.336,308.85L124.647,273.9    c-2.371-2.383-5.525-3.695-8.882-3.695c-3.357,0-6.512,1.313-8.889,3.701l-88.16,88.82c-0.743,0.749-1.32,1.646-1.693,2.634    c-1.425,3.774-34.496,92.863,1.832,129.453c12.801,12.9,32.055,17.126,51.807,17.126c36.362,0,74.393-14.334,76.822-15.266    c0.991-0.38,1.891-0.966,2.638-1.719l35.708-35.971c2.919-2.939,2.901-7.688-0.038-10.606c-2.94-2.919-7.689-2.901-10.606,0.039    l-34.557,34.81c-24.218,8.953-87.148,25.186-111.127,1.02c-24.027-24.201-7.888-87.697,1.006-112.106l85.257-85.895l33.004,33.251    l-6.223,6.269c-0.42,0.423-0.788,0.895-1.097,1.406l-41.783,69.167c-1.778,2.944-1.326,6.72,1.097,9.162l6.747,6.797    c1.449,1.459,3.378,2.216,5.326,2.216c1.35,0,2.709-0.364,3.923-1.11l68.886-42.324c0.509-0.312,0.978-0.684,1.397-1.106    l5.915-5.959l33.004,33.251l-25.381,25.568c-2.918,2.939-2.9,7.688,0.039,10.606c1.463,1.452,3.374,2.177,5.284,2.177    c1.929,0,3.856-0.739,5.323-2.216l27.123-27.323c4.822-4.871,4.816-12.783-0.007-17.63l-34.818-35.079L398.722,156.72l6.124,6.169    c2.033,2.049,4.74,3.106,7.468,3.105c2.036,0,4.084-0.589,5.869-1.793l87.363-58.896c2.607-1.758,4.278-4.56,4.585-7.688    C510.438,94.489,509.345,91.416,507.131,89.186z M412.877,149.688l-8.829-8.895c-0.001-0.001-0.002-0.002-0.003-0.003    l-33.621-33.871c0,0-0.001,0-0.001-0.001l-8.886-8.952l53.383-80.386l77.741,78.32L412.877,149.688z"/></g></g></svg>