<?xml version="1.0" ?><svg style="enable-background:new 0 0 512 512;" version="1.1" viewBox="0 0 512 512" xml:space="preserve" xmlns="http://www.w3.org/2000/svg" xmlns:xlink="http://www.w3.org/1999/xlink"><style type="text/css">
	.st0{fill:#C8C6CC;}
	.st1{fill:#78CBED;}
	.st2{fill:#34B6E2;}
	.st3{fill:#FFFFFF;}
	.st4{fill:#F6D6C5;}
	.st5{fill:#C76D33;}
	.st6{fill:#DF8A57;}
	.st7{fill:#FFD6BC;}
	.st8{fill:#F85647;}
	.st9{fill:#FFB88C;}
	.st10{fill:#FF97C1;}
	.st11{fill:#00C755;}
	.st12{fill:#55D47B;}
	.st13{fill:#FF9A5C;}
	.st14{fill:#F54432;}
	.st15{fill:#948EA3;}
	.st16{fill:#FD7A6E;}
	.st17{fill:#77728D;}
	.st18{fill:none;}
	.st19{fill:#FF7E27;}
	.st20{fill:#EAAA83;}
	.st21{fill:#E83826;}
</style><g id="Layer_1"/><g id="Layer_2"/><g id="Layer_3"><g><g><path class="st7" d="M302.039,447.999L302.039,447.999c-0.952,0-1.9-0.015-2.843-0.044c-50.183-1.539-86.425-44.393-76.838-89.14     l19.473-90.892h120.416l19.473,90.892c9.587,44.748-26.655,87.601-76.838,89.14C303.938,447.985,302.99,447.999,302.039,447.999z     "/><path class="st8" d="M490.366,268.103H113.711c-5.313,0-9.866-3.861-10.815-9.172l0,0     C80.323,132.698,175.769,16.512,302.038,16.512h0c126.27,0,221.715,116.187,199.143,242.419l0,0     C500.232,264.242,495.679,268.103,490.366,268.103z"/><path class="st7" d="M143.135,491.424L143.135,491.424c-0.389,0.19-0.78,0.374-1.172,0.551     c-20.828,9.402-43.953-0.884-48.696-21.107l-9.633-41.077l49.263-24.072l25.567,33.292c12.587,16.39,6.058,41.167-14.174,51.829     C143.91,491.038,143.525,491.234,143.135,491.424z"/><path class="st8" d="M185.347,380.179L31.255,455.476c-2.174,1.062-4.784,0.393-6.201-1.59l0,0     C-8.624,406.756,7.925,340.142,59.583,314.9l0,0c51.658-25.243,113.203,3.21,128.412,59.364l0,0     C188.635,376.627,187.52,379.117,185.347,380.179z"/><circle class="st9" cx="67.01" cy="356.925" r="7.545"/><circle class="st9" cx="58.192" cy="401.513" r="7.545"/><circle class="st9" cx="118.431" cy="360.394" r="7.545"/><ellipse class="st9" cx="189.023" cy="153.14" rx="22.634" ry="22.639"/><ellipse class="st9" cx="308.486" cy="85.511" rx="22.634" ry="22.639"/><ellipse class="st9" cx="267.029" cy="197.265" rx="22.634" ry="22.639"/><ellipse class="st9" cx="383.263" cy="174.626" rx="22.634" ry="22.639"/></g><g><path class="st3" d="M452.167,160.137c-2.941,0-5.732-1.741-6.93-4.627c-2.667-6.428-5.879-12.692-9.545-18.619     c-2.179-3.523-1.089-8.145,2.433-10.324c3.523-2.179,8.146-1.089,10.324,2.433c4.087,6.607,7.667,13.592,10.643,20.759     c1.588,3.826-0.227,8.214-4.052,9.802C454.099,159.952,453.125,160.137,452.167,160.137z"/></g><g><path class="st3" d="M431.073,120.465c-2.425,0-4.804-1.174-6.249-3.343c-11.098-16.662-24.923-31.116-41.094-42.959     c-3.342-2.448-4.066-7.141-1.619-10.482c2.448-3.341,7.142-4.066,10.482-1.619c17.595,12.887,32.639,28.615,44.715,46.746     c2.296,3.448,1.363,8.104-2.084,10.4C433.946,120.057,432.501,120.465,431.073,120.465z"/></g></g></g><g id="Layer_4"/><g id="Layer_5"/><g id="Layer_6"/><g id="Layer_7"/><g id="Layer_8"/><g id="Layer_9"/><g id="Layer_10"/><g id="Layer_11"/><g id="Layer_12"/><g id="Layer_13"/><g id="Layer_14"/><g id="Layer_15"/><g id="Layer_16"/><g id="Layer_17"/><g id="Layer_18"/><g id="Layer_19"/><g id="Layer_20"/><g id="Layer_21"/><g id="Layer_22"/><g id="Layer_23"/><g id="Layer_24"/><g id="Layer_25"/><g id="Layer_26"/><g id="Layer_27"/><g id="Layer_28"/><g id="Layer_29"/><g id="Layer_30"/><g id="Layer_31"/><g id="Layer_32"/><g id="Layer_33"/><g id="Layer_34"/><g id="Layer_35"/><g id="Layer_36"/><g id="Layer_37"/><g id="Layer_38"/><g id="Layer_39"/><g id="Layer_40"/><g id="Layer_41"/><g id="Layer_42"/><g id="Layer_43"/><g id="Layer_44"/><g id="Layer_45"/><g id="Layer_46"/><g id="Layer_47"/><g id="Layer_48"/><g id="Layer_49"/><g id="Layer_50"><g><path d="M424.569,260.603H363.85c-0.519-0.114-1.054-0.18-1.604-0.18H241.831c-0.549,0-1.084,0.066-1.604,0.18H113.711    c-1.679,0-3.123-1.258-3.433-2.993c-10.145-56.736,4.458-115.003,40.065-159.861c2.575-3.244,2.033-7.962-1.212-10.537    c-3.244-2.576-7.962-2.033-10.537,1.212C100.313,136.651,84.61,199.28,95.513,260.25c1.59,8.896,9.244,15.353,18.198,15.353    h118.804l-17.491,81.641c-5.853,27.315,3.536,55.318,25.113,74.908c3.067,2.785,7.811,2.555,10.594-0.511    c2.785-3.067,2.555-7.81-0.511-10.594c-17.574-15.956-25.249-38.632-20.529-60.66l18.165-84.784h108.366l18.165,84.784    c3.916,18.275-0.504,36.735-12.445,51.977c-13.436,17.15-34.317,27.391-57.288,28.096c-1.735,0.053-3.494,0.053-5.228,0    c-7.146-0.219-14.156-1.362-20.834-3.398c-3.965-1.208-8.154,1.025-9.361,4.987c-1.208,3.962,1.024,8.153,4.987,9.361    c7.949,2.423,16.275,3.784,24.75,4.044c1.02,0.031,2.044,0.047,3.072,0.047s2.052-0.016,3.073-0.047    c27.432-0.842,52.45-13.175,68.637-33.838c14.52-18.534,20.098-41.996,15.304-64.37l-17.491-81.641h53.007    c4.142,0,7.5-3.358,7.5-7.5S428.711,260.603,424.569,260.603z"/><path d="M461.959,84.102c-39.945-47.721-98.233-75.09-159.921-75.09c-50.866,0-99.877,18.65-138.003,52.515    c-3.097,2.75-3.378,7.491-0.627,10.588c2.75,3.096,7.491,3.378,10.588,0.627c35.378-31.424,80.852-48.729,128.043-48.729    c57.235,0,111.332,25.411,148.418,69.718c38.041,45.447,53.838,105.179,43.342,163.88c-0.31,1.734-1.754,2.993-3.433,2.993    h-30.797c-4.142,0-7.5,3.358-7.5,7.5s3.358,7.5,7.5,7.5h30.797c8.954,0,16.607-6.456,18.198-15.352    C519.845,197.167,502.858,132.962,461.959,84.102z"/><path d="M165.22,323.419c-3.089-2.76-7.83-2.494-10.59,0.594c-2.761,3.088-2.495,7.83,0.594,10.59    c11.828,10.571,20.443,24.275,24.998,39.731l-49.632,24.253c-0.333,0.108-0.663,0.234-0.986,0.391l-49.263,24.072    c-0.324,0.158-0.628,0.342-0.92,0.54l-49.485,24.181c-13.906-20.505-18.373-45.948-12.246-70.155    c6.223-24.584,22.692-44.988,45.186-55.98c19.846-9.697,42.247-11.158,63.076-4.108c3.923,1.327,8.181-0.776,9.508-4.701    c1.328-3.923-0.777-8.18-4.701-9.508c-24.6-8.324-51.047-6.605-74.469,4.84c-26.464,12.932-45.833,36.906-53.141,65.775    c-7.388,29.187-1.628,59.917,15.802,84.31c2.417,3.383,6.222,5.238,10.132,5.238c1.842,0,3.708-0.412,5.463-1.269l43.951-21.477    l4.672,19.923c0.945,4.033,4.981,6.536,9.014,5.59c4.033-0.945,6.536-4.981,5.59-9.014l-5.453-23.253l38.412-18.77l21.782,28.364    c4.354,5.669,5.863,12.852,4.249,20.226c-1.884,8.609-7.705,16.044-15.975,20.402c-0.313,0.166-0.631,0.326-0.944,0.479    c-0.321,0.157-0.644,0.309-0.968,0.455c-8.949,4.04-18.995,3.749-26.87-0.779c-3.593-2.065-8.177-0.827-10.24,2.764    c-2.064,3.591-0.827,8.176,2.764,10.24c6.483,3.728,13.867,5.604,21.381,5.604c6.443,0,12.983-1.38,19.136-4.157    c0.46-0.208,0.918-0.423,1.382-0.649c0.458-0.224,0.911-0.454,1.355-0.688c12.187-6.422,20.8-17.525,23.631-30.464    c2.538-11.595-0.016-23.466-7.006-32.568l-19.927-25.948l44.154-21.576c5.4-2.639,8.174-8.786,6.595-14.614    C190.078,353.264,179.699,336.36,165.22,323.419z"/><ellipse cx="67.01" cy="356.925" rx="7.546" ry="7.545" transform="matrix(0.0056 -1 1 0.0056 -290.2816 421.9519)"/><circle cx="58.192" cy="401.513" r="7.546"/><ellipse cx="118.431" cy="360.394" rx="7.546" ry="7.545" transform="matrix(0.0056 -1 1 0.0056 -242.6158 476.8208)"/><path d="M219.157,153.14c0-16.619-13.518-30.139-30.134-30.139s-30.134,13.52-30.134,30.139s13.518,30.139,30.134,30.139    S219.157,169.758,219.157,153.14z M173.889,153.14c0-8.348,6.789-15.139,15.134-15.139s15.134,6.791,15.134,15.139    s-6.789,15.139-15.134,15.139S173.889,161.487,173.889,153.14z"/><path d="M338.621,85.511c0-16.618-13.518-30.138-30.134-30.138s-30.134,13.52-30.134,30.138c0,16.619,13.518,30.139,30.134,30.139    S338.621,102.129,338.621,85.511z M293.352,85.511c0-8.347,6.789-15.138,15.134-15.138s15.134,6.791,15.134,15.138    c0,8.348-6.789,15.139-15.134,15.139S293.352,93.858,293.352,85.511z"/><path d="M236.895,197.265c0,16.619,13.518,30.139,30.134,30.139s30.134-13.52,30.134-30.139s-13.518-30.139-30.134-30.139    S236.895,180.646,236.895,197.265z M282.163,197.265c0,8.348-6.789,15.139-15.134,15.139s-15.134-6.791-15.134-15.139    s6.789-15.139,15.134-15.139S282.163,188.917,282.163,197.265z"/><path d="M353.128,174.626c0,16.619,13.518,30.139,30.134,30.139s30.134-13.52,30.134-30.139s-13.518-30.139-30.134-30.139    S353.128,158.008,353.128,174.626z M383.263,159.488c8.345,0,15.134,6.791,15.134,15.139s-6.789,15.139-15.134,15.139    s-15.134-6.791-15.134-15.139S374.917,159.488,383.263,159.488z"/><path d="M455.039,159.563c3.826-1.588,5.64-5.977,4.052-9.802c-2.975-7.167-6.555-14.151-10.643-20.76    c-2.178-3.522-6.801-4.612-10.324-2.433c-3.522,2.179-4.612,6.801-2.433,10.324c3.666,5.927,6.877,12.191,9.545,18.619    c1.198,2.886,3.989,4.627,6.93,4.627C453.125,160.137,454.099,159.953,455.039,159.563z"/><path d="M424.824,117.121c1.445,2.17,3.824,3.344,6.249,3.344c1.428,0,2.873-0.408,4.15-1.259    c3.448-2.296,4.381-6.952,2.085-10.399c-12.075-18.13-27.119-33.858-44.715-46.747c-3.341-2.446-8.034-1.723-10.482,1.619    c-2.447,3.341-1.723,8.035,1.619,10.482C399.901,86.007,413.727,100.46,424.824,117.121z"/></g></g></svg>