<?xml version="1.0" ?><svg viewBox="0 0 64 64" xmlns="http://www.w3.org/2000/svg"><defs><style>.cls-1{fill:#eaeaea;}.cls-2{fill:#4c241d;}.cls-3,.cls-7{fill:none;}.cls-3,.cls-4,.cls-5,.cls-6,.cls-8{stroke:#4c241d;}.cls-3,.cls-4,.cls-5,.cls-6,.cls-7,.cls-8{stroke-linecap:round;stroke-linejoin:round;stroke-width:2px;}.cls-4{fill:#ffce56;}.cls-5{fill:#e66353;}.cls-6{fill:#f53e28;}.cls-7{stroke:#fff;}.cls-8{fill:#a9ba5a;}</style></defs><g id="fruits"><circle class="cls-1" cx="38" cy="30" r="23"/><path class="cls-2" d="M51.6324,21.5A1.1324,1.1324,0,1,1,50.5,20.3676,1.1324,1.1324,0,0,1,51.6324,21.5Z"/><line class="cls-3" x1="36.5858" x2="39.4142" y1="15.5858" y2="18.4142"/><line class="cls-3" x1="39.4142" x2="36.5858" y1="15.5858" y2="18.4142"/><circle class="cls-3" cx="51.5" cy="9.5" r="2.5"/><path class="cls-4" d="M32.6966,31.8989l-.7843-4.6027a8.8329,8.8329,0,0,0-8.7107-7.3444h0a8.8329,8.8329,0,0,0-8.7107,7.3444l-.7475,4.3869a12.0249,12.0249,0,0,1-2.1264,4.9318,14.2018,14.2018,0,1,0,23.0948-.1035A11.0544,11.0544,0,0,1,32.6966,31.8989Z"/><path class="cls-5" d="M47.1918,33.17a9.6947,9.6947,0,0,0-6.0918.8467,9.6947,9.6947,0,0,0-6.0918-.8467c-5.9554,1.16-9.6571,7.8442-8.2678,14.9292s7.3433,11.8878,13.2987,10.7275A9.3436,9.3436,0,0,0,41.1,58.5535a9.3436,9.3436,0,0,0,1.0609.2736C48.1163,59.9874,54.07,55.1845,55.46,48.1S53.1472,34.3306,47.1918,33.17Z"/><path class="cls-3" d="M44.1,28.1294s-2.7355.9118-2.9822,5.3476"/><path class="cls-6" d="M26.1,14.1294s-2.7355.9118-2.9822,5.3476"/><path class="cls-7" d="M32.9472,37.8881a5.7315,5.7315,0,0,0-2.3842,4.7685"/><path class="cls-7" d="M19.9472,24.8881a5.7315,5.7315,0,0,0-2.3842,4.7685"/><line class="cls-3" x1="4" x2="61" y1="59" y2="59"/><path class="cls-8" d="M16,12h2a5,5,0,0,1,5,5v0a0,0,0,0,1,0,0H21a5,5,0,0,1-5-5v0a0,0,0,0,1,0,0Z"/></g></svg>