<svg xmlns="http://www.w3.org/2000/svg" width="32" height="32" id="rooster">
  <path fill="#ffe625" fill-rule="evenodd" d="M3301.93-3913.64c.78-.059 1.662.35 2.5.809.773.423 1.497.971 1.97 1.643.763 1.082.92 2.63 1.504 4.119a188.825 188.825 0 0 0 1.569 3.773.5.5 0 0 0 0 .01l-5.52 6.215c.068-.254.133-.508.166-.728.098-.643.252-1.426-.02-2.21-.158-.447-.478-.805-.759-1.113a8.741 8.741 0 0 0-.535-.537.5.5 0 0 0-.824.266s-.269 1.23-.445 1.73c-.249.704-.412 1.362-.762 1.735-.369.392-.988.641-1.639.85-.523.167-1.27.075-2.082.27-.958.062-1.525.7-1.847 1.264-.32.562-.533 1.039-.815 1.233-.275.16-.745.198-1.055.078-.035-.013-.305-.239-.486-.465-.18-.227-.31-.432-.31-.432a.5.5 0 0 0-.225-.195s-.94-.41-1.486-.594c-1.64-.549-3.324-.565-4.612-1.242-.97-.51-1.873-1.232-2.486-2.102-.669-.949-1.088-2.132-1.242-3.306-.156-1.184.09-2.455.365-3.729l1.193-1.047 1.186.368a.5.5 0 0 0 .592-.25l.615-1.2 1.701.434a.5.5 0 0 0 .6-.332l.388-1.217 1.254.104c.266.332.557.649.914.914.717.53 1.63.995 2.627.965.991-.031 1.815-.585 2.48-1.082.836-.624 1.273-1.497 1.807-2.092.65-.723 1.178-1.474 1.834-1.957.637-.468 1.282-.9 1.881-.946z" color="#000" font-family="sans-serif" font-weight="400" overflow="visible" style="line-height:normal;text-indent:0;text-align:start;text-decoration-line:none;text-decoration-style:solid;text-decoration-color:#000;text-transform:none;block-progression:tb;white-space:normal;isolation:auto;mix-blend-mode:normal;solid-color:#000;solid-opacity:1" transform="translate(-3278.53 3920.671)"></path>
  <path fill="none" stroke="#000" stroke-linecap="round" stroke-linejoin="round" d="M25.676 10.005s1.543 1.41 2.024 2.314c.815 1.533 1.067 3.32 1.33 5.034.25 1.623.232 4.919.232 4.919m-3.99-9.027s.943.688 1.272 1.158c.584.836.95 1.835 1.156 2.835.365 1.757.116 5.38.116 5.38m-3.066-6.595s.743.611 1.042.983c.281.35.551.73.694 1.157.233.7.252 1.463.231 2.2-.04 1.445-.694 4.281-.694 4.281"></path>
  <path fill-rule="evenodd" d="M3283.383-3920.66c-.305.05-.537.244-.682.429-.144.184-.233.37-.312.533-.08.162-.15.3-.207.377-.046.062-.055.06-.064.064.035.02.023.01-.016.016a.1.1 0 0 1 .016-.016h-.01a2.663 2.663 0 0 1-.274-.197c-.116-.091-.248-.2-.441-.284-.193-.084-.506-.122-.762.016-.525.284-.7.848-.744 1.325-.044.476.013.947.033 1.293.035.584.15 1.284.64 1.82.112.122.233.206.356.277-.242.075-.49.166-.717.332-.638.47-1.07 1.15-1.336 1.84-.172.447-.342 1.021-.152 1.621.048.153.117.326.248.502.13.176.378.397.726.377a.814.814 0 0 0 .528-.26 1.16 1.16 0 0 0 .207-.34c.086-.197.157-.34.142-.324a2.02 2.02 0 0 1 .319-.297c.03.082.048.166.088.247a.5.5 0 0 0 .01.016c.3.553.802.846 1.174 1.173.371.328.603.603.617 1.034a.5.5 0 0 0 0 .037c.03.288-.083.61-.277 1.004-.195.394-.464.837-.582 1.382-.289 1.328-.604 2.761-.412 4.221.173 1.32.638 2.648 1.417 3.754.727 1.032 1.75 1.838 2.836 2.41 1.578.83 3.33.826 4.76 1.305.4.134 1.143.454 1.285.515.058.088.113.182.274.383.222.278.472.604.908.772a2.233 2.233 0 0 0 1.941-.153.5.5 0 0 0 .02-.016c.649-.431.87-1.113 1.137-1.582.267-.469.446-.728 1.045-.763a.5.5 0 0 0 .101-.018c.568-.156 1.36-.02 2.22-.295.68-.218 1.473-.492 2.062-1.118.607-.646.757-1.471.974-2.085.12-.34.155-.566.246-.952.189.232.395.498.432.604.16.454.08 1.073-.022 1.726-.114.75-.78 2.495-.78 2.495a.5.5 0 1 0 .93.367s.68-1.664.838-2.711c.098-.643.253-1.426-.02-2.21-.158-.447-.477-.804-.758-1.112a8.741 8.741 0 0 0-.536-.537.5.5 0 0 0-.824.265s-.268 1.23-.445 1.73c-.249.705-.412 1.362-.762 1.735-.369.392-.988.642-1.639.85-.523.167-1.27.076-2.082.271-.958.061-1.525.699-1.847 1.264-.32.562-.533 1.038-.815 1.232-.274.16-.745.198-1.054.078-.035-.013-.306-.238-.487-.465-.18-.226-.31-.431-.31-.431a.5.5 0 0 0-.225-.196s-.94-.41-1.486-.593c-1.64-.55-3.324-.565-4.612-1.243-.97-.51-1.873-1.232-2.486-2.101-.669-.95-1.088-2.133-1.242-3.307-.155-1.184.09-2.454.365-3.728l1.194-1.047 1.185.367a.5.5 0 0 0 .592-.25l.615-1.2 1.701.434a.5.5 0 0 0 .6-.332l.389-1.217 1.253.104c.267.332.557.65.915.914.717.531 1.63.996 2.626.965.991-.031 1.816-.585 2.481-1.082.835-.624 1.272-1.497 1.807-2.092.65-.723 1.177-1.474 1.834-1.957.636-.468 1.281-.9 1.88-.945.78-.06 1.662.35 2.5.808.774.423 1.498.971 1.971 1.643.762 1.082.92 2.63 1.504 4.119a188.825 188.825 0 0 0 1.568 3.773.5.5 0 0 0 .92-.392s-1.068-2.5-1.556-3.746c-.512-1.306-.653-2.958-1.62-4.33-.599-.85-1.448-1.476-2.308-1.946-.864-.472-1.899-1.015-3.053-.927-.983.074-1.758.666-2.4 1.138-.838.616-1.394 1.437-1.985 2.094-.653.727-1.073 1.52-1.662 1.96-.62.463-1.3.863-1.914.882-.65.02-1.393-.32-2-.77-.724-.536-1.244-1.43-1.775-2.338-.297-.507-.38-1.306-.885-2.052a7.267 7.267 0 0 0-1.99-1.99 4.622 4.622 0 0 0-.826-.422c.076-.1.08-.092.166-.213.307-.434.652-.946.783-1.489.077-.318.192-.759.207-1.214.01-.228-.01-.465-.096-.703a1.168 1.168 0 0 0-.52-.622c-.27-.15-.622-.105-.831 0-.21.108-.348.245-.475.366-.127.12-.24.228-.322.289-.083.06-.114.058-.096.059-.068 0-.267-.137-.545-.407-.14-.134-.295-.287-.502-.414a1.193 1.193 0 0 0-.805-.175z" color="#000" font-family="sans-serif" font-weight="400" overflow="visible" style="line-height:normal;text-indent:0;text-align:start;text-decoration-line:none;text-decoration-style:solid;text-decoration-color:#000;text-transform:none;block-progression:tb;white-space:normal;isolation:auto;mix-blend-mode:normal;solid-color:#000;solid-opacity:1" transform="translate(-3278.53 3920.671)"></path>
  <path fill="#fd982f" fill-rule="evenodd" d="M3283.547-3919.669c.026 0 .038-.01.117.041.08.05.197.151.33.28.266.256.614.675 1.22.687.3.01.533-.125.706-.252.173-.127.307-.262.422-.371.086-.081.136-.118.181-.15 0 .01.012.01.018.02a.985.985 0 0 1 .033.33c-.01.296-.1.686-.18 1.012-.056.238-.347.75-.626 1.145-.189.266-.266.352-.362.469-.016 0-.033-.012-.049-.016a2.227 2.227 0 0 0-.666-.074c-.45.02-.887.118-1.295.257-.402.139-.907.292-1.34.657-.081-.022-.114-.026-.245-.072a2.632 2.632 0 0 1-.51-.252c-.23-.25-.352-.728-.381-1.207-.023-.385-.066-.814-.035-1.143.026-.282.1-.383.191-.459.043.028.075.045.145.1.11.085.238.193.412.287.174.094.425.182.703.116.298-.072.513-.272.65-.457.138-.186.225-.372.303-.532.078-.16.15-.292.201-.36.053-.066.054-.055.06-.056z" color="#000" font-family="sans-serif" font-weight="400" overflow="visible" style="line-height:normal;text-indent:0;text-align:start;text-decoration-line:none;text-decoration-style:solid;text-decoration-color:#000;text-transform:none;block-progression:tb;white-space:normal;isolation:auto;mix-blend-mode:normal;solid-color:#000;solid-opacity:1" transform="translate(-3278.53 3920.671)"></path>
  <path fill="#9cc055" fill-rule="evenodd" d="M3284.736-3915.548a.5.5 0 0 0 .01 0c.108-.01.234.01.368.043.58.146 1.137.334 1.582.627a6.294 6.294 0 0 1 1.712 1.715c.318.47.405 1.236.85 1.996.125.214.254.437.389.66l-.826-.068a.5.5 0 0 0-.051 0 .5.5 0 0 0-.467.348l-.367 1.146-1.631-.414a.5.5 0 0 0-.569.254l-.605 1.184-1.05-.328a.5.5 0 0 0-.397.045 2.18 2.18 0 0 0 .078-.797c-.034-.792-.51-1.348-.948-1.733-.437-.385-.832-.684-.949-.892-.185-.375-.186-.938-.074-1.46.128-.596.43-1.193.844-1.597.224-.218.628-.364 1.086-.521.336-.115.682-.19 1.015-.205z" color="#000" font-family="sans-serif" font-weight="400" overflow="visible" style="line-height:normal;text-indent:0;text-align:start;text-decoration-line:none;text-decoration-style:solid;text-decoration-color:#000;text-transform:none;block-progression:tb;white-space:normal;isolation:auto;mix-blend-mode:normal;solid-color:#000;solid-opacity:1" transform="translate(-3278.53 3920.671)"></path>
  <path fill="#fd3533" fill-rule="evenodd" d="M3280.951-3913.929a4.59 4.59 0 0 0-.14.494c-.057.261-.089.546-.097.834a1.04 1.04 0 0 0-.197.072c-.34.172-.542.425-.7.604-.092.102-.087.157-.13.246a1.673 1.673 0 0 1 .11-.797c.211-.55.563-1.074.996-1.392.017-.013.117-.041.158-.061z" color="#000" font-family="sans-serif" font-weight="400" overflow="visible" style="line-height:normal;text-indent:0;text-align:start;text-decoration-line:none;text-decoration-style:solid;text-decoration-color:#000;text-transform:none;block-progression:tb;white-space:normal;isolation:auto;mix-blend-mode:normal;solid-color:#000;solid-opacity:1" transform="translate(-3278.53 3920.671)"></path>
  <path fill-rule="evenodd" d="M5.115 7.137c.194-.091.432-.302.389-.511-.036-.177-.29-.263-.47-.266-.177 0-.343.122-.47.245-.12.114-.313.279-.246.43.05.115.243.065.368.082.142.019.3.08.43.02z"></path>
  <path fill="none" stroke="#000" stroke-linecap="round" stroke-linejoin="round" d="m12.72 25.483-1.968 5.526-2.805.434m7.433-4.427.463 3.964-2.69.52"></path>
  <path fill="none" stroke="#000" stroke-width=".5" d="m6.414 14.923-2.43 3.761m3.009-1.736-2.198 2.893m3.007-2.198L5.2 21.173m2.777-1.91-1.793 2.546m2.314-1.62L7.05 22.387m2.372-1.504-1.157 2.025m1.793-1.215-.752 1.562m1.504-.752-.636 1.273m1.388-.52-.52.867"></path>
  <path fill="none" stroke="#000" stroke-linecap="round" stroke-linejoin="round" stroke-width=".5" d="M13.24 13.477s.923.584 1.446.694c.566.12 1.16.014 1.735-.058.45-.056.93-.075 1.33-.29.686-.366 1.161-1.038 1.678-1.62.677-.76 1.85-2.43 1.85-2.43"></path>
</svg>
