<svg xmlns="http://www.w3.org/2000/svg" width="16" height="16" id="cloud">
  <path fill="#c2e4f8" d="M13 11.5a1.5 1.5 0 0 0 0-3c-.172 0-.346.04-.5.094.002-.031 0-.062 0-.094a2 2 0 0 0-2-2c-.374 0-.731.102-1.031.281.009-.096.031-.183.031-.281a3 3 0 0 0-6 0c0 .355.074.683.188 1-.062-.01-.125 0-.188 0a2 2 0 0 0 0 4z"></path>
  <path fill="none" stroke="#249fe6" stroke-linecap="round" stroke-linejoin="round" d="M13 11.5a1.5 1.5 0 0 0 0-3c-.172 0-.346.04-.5.094.002-.031 0-.062 0-.094a2 2 0 0 0-2-2c-.374 0-.731.102-1.031.281.009-.096.031-.183.031-.281a3 3 0 0 0-6 0c0 .355.074.683.188 1-.062-.01-.125 0-.188 0a2 2 0 0 0 0 4z"></path>
</svg>
