<svg xmlns="http://www.w3.org/2000/svg" id="apple" width="512" height="512" version="1.1">
  <defs id="defs3912">
    <clipPath id="clipPath4224" clipPathUnits="userSpaceOnUse">
      <path id="path4226" d="m -234.28571,83.428574 a 405.71429,405.71429 0 1 1 -811.42859,0 405.71429,405.71429 0 1 1 811.42859,0 z" style="fill:#34495e;fill-opacity:1;stroke:none" transform="matrix(.6162 0 0 .6162 650.366 744.954)"></path>
    </clipPath>
  </defs>
  <g id="layer1" transform="translate(0 -540.362)">
    <g id="g3274" transform="translate(696.748 8.03)">
      <path id="path3272" d="m -254.73597,539.45047 c -1.87959,-0.009 -3.83434,0.0163 -5.81621,0.0564 -27.74645,0.56938 -65.05637,5.87571 -79.11047,11.63224 -1.98819,0.81414 -7.67972,2.97186 -12.64865,4.79971 -13.31018,4.89579 -29.58033,21.62548 -38.00253,39.13178 -5.6113,11.66351 -13.49901,21.11873 -17.67432,21.11873 -0.92173,0 -5.61547,-15.02569 -7.45368,-23.82916 -1.19367,-5.72153 -11.25748,-19.27156 -16.37531,-22.07868 -1.98385,-1.08787 -5.66009,-3.36788 -8.18784,-5.02558 -7.46089,-4.89279 -26.63228,-9.12953 -35.00966,-7.736 -10.75407,1.78888 -25.44982,7.58167 -28.91122,11.40637 -2.78415,3.07653 -2.75017,3.81296 0.22587,10.38997 1.75763,3.88445 5.40984,9.94654 8.13128,13.49566 12.52976,16.3408 19.91242,41.65536 21.85272,75.04492 1.11959,19.24999 0.2275,20.54015 -10.89808,16.26256 -22.92731,-8.81539 -26.96783,-10.10763 -30.43592,-10.10763 -2.05052,0 -4.66717,-0.99735 -5.87259,-2.20222 -2.83727,-2.83782 -36.7821,-2.70591 -52.45794,0.22587 -17.91104,3.34954 -49.44974,19.55084 -65.72783,33.76739 -12.80623,11.18448 -28.95224,29.0835 -32.52511,35.96961 -15.79312,30.43863 -17.7309,37.48167 -18.86006,70.64048 -0.69224,20.32711 -0.0515,30.2545 2.9363,48.78767 5.38344,33.39246 17.66222,66.67646 29.19364,79.05416 1.85537,1.9921 3.38767,4.3468 3.38803,5.1949 0,3.3309 12.06682,17.2677 23.15138,26.709 6.4181,5.466 15.93893,14.0038 21.17529,18.973 10.6471,10.10388 16.79253,15.35898 17.90001,15.35898 0.4082,0 6.2376,3.6616 12.98764,8.1878 6.74986,4.5264 14.71292,9.3238 17.73053,10.6723 9.40933,4.2046 29.55575,10.2636 38.51081,11.5758 13.84342,2.0286 42.64765,-6.8196 58.78228,-18.0695 10.18216,-7.0995 26.85978,-14.1913 33.31565,-14.1733 1.76413,0.01 5.83681,1.63 9.09132,3.6139 3.25377,1.984 7.31923,3.5958 9.03474,3.6139 2.68911,0.023 13.16744,3.1096 22.13515,6.5502 9.3179,3.5752 38.13859,-1.1429 50.87687,-8.3571 20.26838,-11.47868 48.72099,-37.34468 64.31624,-58.44358 10.83611,-14.661 32.97685,-66.03437 32.97685,-76.51306 -7.2e-4,-1.39406 1.09465,-4.34897 2.48456,-6.5502 3.04544,-4.82654 10.87242,-35.86625 14.62491,-57.99182 3.47622,-20.49715 3.6074,-57.90302 0.22587,-68.32533 -1.38177,-4.25844 -2.96665,-9.88212 -3.55734,-12.47925 -1.61812,-7.11053 -14.89614,-26.00247 -23.43398,-33.37212 -10.26059,-8.85659 -25.54992,-16.3324 -36.30851,-17.78717 -4.89972,-0.66261 -9.62508,-1.65959 -10.50272,-2.20222 -3.92234,-2.42331 -37.03327,-4.06113 -45.62551,-2.25869 -14.80922,3.10615 -52.42,16.22443 -55.62028,19.42472 -2.7135,2.7135 -8.04871,2.61927 -8.9782,-0.16931 -0.59087,-1.77244 1.02978,-12.00701 3.72666,-23.49036 0.17617,-0.74537 0.33898,-8.29201 0.33898,-16.77077 0,-12.46795 0.5401,-15.64719 2.87974,-16.54488 1.59102,-0.61057 3.42055,-0.35904 4.06563,0.56466 1.67631,2.40018 40.84703,16.21016 52.85331,18.63419 16.64979,3.36146 42.09436,2.61854 60.25043,-1.75048 20.62363,-4.96261 27.29977,-8.44615 36.98611,-19.25533 4.30524,-4.80449 11.71879,-12.82754 16.43205,-17.84364 4.7127,-5.01627 9.7671,-11.52129 11.29344,-14.4556 1.52543,-2.93448 4.93098,-7.30315 7.51005,-9.71236 2.57887,-2.40939 4.68687,-5.0434 4.68687,-5.87259 0,-1.39738 3.85874,-6.15688 14.00386,-17.16603 6.33137,-6.87178 4.84335,-17.02435 -3.55752,-24.39384 -3.58825,-3.14763 -16.16968,-4.58627 -51.10274,-5.81612 -1.73828,-0.0612 -3.54216,-0.10389 -5.42085,-0.11293 z" style="fill:#3b3c3d"></path>
      <path id="path3270" d="m -266.65064,567.40174 c 14.49988,0.0144 27.43855,0.69807 28.74172,1.52462 5.75478,3.64955 -31.80233,47.62137 -45.56895,53.36152 -7.85897,3.27672 -12.35972,4.26349 -25.46662,5.64671 -16.11963,1.70107 -33.215,2.06237 -35.6309,0.73408 -1.29757,-0.71339 -8.62656,-2.32654 -16.31893,-3.55744 -17.69475,-2.83149 -19.64897,-4.84624 -13.43938,-14.22973 5.13879,-7.76411 24.62007,-27.20093 27.27376,-27.2172 0.91558,-0.005 2.94839,-1.13464 4.51737,-2.48456 1.56898,-1.3499 6.94556,-3.26543 11.91468,-4.2915 4.96838,-1.0261 15.45972,-3.60698 23.32086,-5.70319 11.47197,-3.05908 19.4961,-3.80553 40.65639,-3.78331 z" style="fill:#2ecc71;fill-opacity:1"></path>
      <path id="path3268" d="m -457.90517,578.69519 c 2.83745,0.0936 4.76529,1.38164 8.63958,4.51737 6.55471,5.30521 13.97911,20.25727 15.86737,31.90398 1.93289,11.93057 3.30889,51.87078 2.03282,59.2341 -0.74121,4.27271 -2.16671,14.2975 -3.16216,22.24808 -1.24246,9.91094 -2.75814,15.16574 -4.85636,16.71429 -4.32422,3.19216 -4.40102,3.12386 -12.93091,-6.21139 -5.12703,-5.61094 -7.28779,-9.38259 -6.49382,-11.29344 2.62839,-6.32126 3.90989,-14.62573 3.38804,-22.07868 -0.3014,-4.31825 -1.02707,-17.19991 -1.58108,-28.62888 -0.55275,-11.42896 -1.74967,-23.21931 -2.65387,-26.20078 -1.86875,-6.16261 -10.12363,-23.71262 -13.38282,-28.45947 -3.29769,-4.80371 0.54588,-9.2318 9.54305,-11.01111 1.74352,-0.3448 3.09224,-0.59167 4.29151,-0.67761 0.44975,-0.0322 0.89353,-0.0697 1.29865,-0.0564 z" style="fill:#2fbd6c;fill-opacity:1"></path>
      <path id="path3142" d="m -535.20869,694.9047 c 18.43198,-0.15016 37.15687,3.24597 49.35234,9.54297 3.87446,2.00065 10.41436,5.35128 14.51216,7.45366 4.09691,2.10221 9.25448,5.72415 11.46276,8.07481 3.68979,3.92777 3.79929,4.80749 1.63764,10.78524 -2.1593,5.96963 -2.02884,6.83705 1.58108,10.44644 2.16256,2.1631 7.92908,4.96026 12.81796,6.21139 l 8.92183,2.25868 24.11159,-11.85811 c 33.18139,-16.35941 59.70182,-26.81126 77.473,-30.43582 15.22212,-3.10471 16.513,-3.03812 46.98073,1.97635 3.47801,0.57244 8.35714,2.31841 10.8417,3.89624 4.49117,2.85245 15.29258,14.4519 15.41546,16.54489 0.0352,0.60262 1.21372,3.16216 2.65404,5.64672 2.01639,3.4791 2.61538,11.78493 2.59732,36.13901 -0.0181,35.7666 -2.51564,51.53162 -12.53554,78.65883 -3.32425,8.99879 -6.66892,19.55112 -7.3973,23.43389 -1.67089,8.90664 -15.99332,41.59454 -21.40116,48.78764 -2.24098,2.9815 -4.39667,6.3576 -4.79962,7.5667 -0.40313,1.2091 -8.30294,10.2982 -17.50484,20.1587 -17.93651,19.2204 -32.93059,30.1873 -49.86045,36.4778 -9.06096,3.3666 -11.78801,3.6558 -18.97299,2.0329 -21.44615,-4.8445 -35.81846,-8.8932 -39.35773,-11.1241 -3.14193,-1.9802 -6.56989,-2.0773 -18.46469,-0.3953 -15.91725,2.2512 -25.13595,6.1606 -39.07531,16.5449 -4.96911,3.7018 -14.03784,8.46797 -20.10232,10.61577 -13.33838,4.7237 -28.54694,4.8165 -41.334,0.226 -4.96911,-1.7841 -10.52893,-3.3086 -12.31003,-3.3881 -1.78076,-0.08 -4.22032,-0.9918 -5.42086,-2.03277 -1.19981,-1.0408 -6.61777,-5.1451 -12.0838,-9.1477 -5.46675,-4.0024 -15.95555,-12.7342 -23.26449,-19.3682 -19.66071,-17.8435 -22.36644,-20.1972 -23.54692,-20.2153 -0.59087,-0.01 -3.12475,-3.0561 -5.59016,-6.7761 -2.46667,-3.7201 -6.59302,-9.5655 -9.20424,-13.0439 -2.61141,-3.4784 -6.63115,-11.2031 -8.92183,-17.166 -2.29048,-5.963 -4.96025,-11.8964 -5.92914,-13.1569 -0.96762,-1.2603 -2.41698,-5.326 -3.21854,-9.0347 -0.80175,-3.70862 -2.78614,-12.41153 -4.40444,-19.36829 -2.3803,-10.23312 -2.7921,-19.72269 -2.14576,-49.69114 0.775,-35.92977 0.97593,-37.341 5.75965,-46.98072 8.51436,-17.15772 10.74811,-21.0452 16.31912,-28.12067 17.89929,-22.7356 51.78612,-43.75495 80.07032,-49.69115 7.61341,-1.59774 15.95917,-2.41633 24.33746,-2.48456 z" style="fill:#e74c3c;fill-opacity:1"></path>
    </g>
  </g>
</svg>
