<svg xmlns="http://www.w3.org/2000/svg" id="apple" width="512" height="512" version="1.1">
  <defs id="defs3912">
    <clipPath id="clipPath4224" clipPathUnits="userSpaceOnUse">
      <path id="path4226" d="m -234.28571,83.428574 a 405.71429,405.71429 0 1 1 -811.42859,0 405.71429,405.71429 0 1 1 811.42859,0 z" style="fill:#34495e;fill-opacity:1;stroke:none" transform="matrix(.6162 0 0 .6162 650.366 744.954)"></path>
    </clipPath>
  </defs>
  <g id="layer1" transform="translate(0 -540.362)">
    <g id="g3842" transform="matrix(2.32122 0 0 2.32122 -338.232 -1041.554)">
      <path id="path4533" d="m 218.69717,741.19663 c -6.406,0.10641 -12.77762,1.59671 -18.88302,4.59035 -30.05731,14.73793 -42.24001,60.5786 -27.21684,102.4056 15.02317,41.82702 51.56204,63.78987 81.61935,49.05193 0.75611,-0.37075 1.49863,-0.75986 2.23196,-1.16942 1.63687,0.93831 3.33689,1.77402 5.08269,2.51032 30.66055,12.9308 66.19499,-11.17717 79.37605,-53.84362 13.18107,-42.66644 -0.98388,-87.74692 -31.64442,-100.6777 -18.02906,-7.60358 -37.74698,-2.3937 -53.61245,11.85832 -11.19753,-9.64346 -24.1413,-14.93858 -36.95332,-14.72578 z" style="fill:#e74c3c;fill-opacity:1;stroke:none"></path>
      <path id="path2994" d="m 262.90235,704.84625 c -2.30636,3.20964 -4.10606,6.40063 -5.26233,9.16278 l -0.24208,0.33689 0.0285,0.0204 c -3.63165,6.37217 -5.63678,30.91463 -5.63678,30.91463 0,0 23.27798,-9.25628 28.19872,-14.70216 l 0.0305,0.0218 0.33508,-0.46631 c 2.24748,-1.97645 4.69539,-4.6988 6.99975,-7.90563 2.30435,-3.20685 4.10375,-6.39522 5.26012,-9.1557 l 0.28448,-0.3959 -0.0666,-0.0478 c 3.4772,-6.8263 4.78759,-31.12658 4.78759,-31.12658 0,0 -21.97671,9.45005 -27.28099,14.96336 l -0.0609,-0.0438 -0.36927,0.51389 c -2.249,1.97685 -4.69951,4.70053 -7.00575,7.90998 z" style="fill:#2ecc71;fill-opacity:1;stroke:none"></path>
    </g>
  </g>
</svg>
