<svg xmlns="http://www.w3.org/2000/svg" xmlns:xlink="http://www.w3.org/1999/xlink" id="avacado" width="512" height="512" version="1.1">
  <defs id="defs6332">
    <clipPath id="clipPath6036" clipPathUnits="userSpaceOnUse">
      <rect id="rect6038" width="565.122" height="565.122" x="2455.997" y="-966.375" ry="45.206" style="fill:#4bb7c0;fill-opacity:1;stroke:none" transform="rotate(45.776)"></rect>
    </clipPath>
    <clipPath id="clipPath6032" clipPathUnits="userSpaceOnUse">
      <rect id="rect6034" width="500" height="500" x="2488.537" y="-957.623" ry="39.997" style="fill:#4bb7c0;fill-opacity:1;stroke:none" transform="rotate(45.715)"></rect>
    </clipPath>
    <clipPath id="clipPath6028" clipPathUnits="userSpaceOnUse">
      <rect id="rect6030" width="500" height="500" x="2488.537" y="-957.623" ry="39.997" style="fill:#4bb7c0;fill-opacity:1;stroke:none" transform="rotate(45.715)"></rect>
    </clipPath>
    <clipPath id="clipPath6024" clipPathUnits="userSpaceOnUse">
      <rect id="rect6026" width="500" height="500" x="2488.537" y="-957.623" ry="39.997" style="fill:#4bb7c0;fill-opacity:1;stroke:none" transform="rotate(45.715)"></rect>
    </clipPath>
    <clipPath id="clipPath6020" clipPathUnits="userSpaceOnUse">
      <rect id="rect6022" width="566.751" height="566.751" x="217.152" y="577.214" ry="45.337" style="fill:#4bb7c0;fill-opacity:1;stroke:none" transform="rotate(45.715)"></rect>
    </clipPath>
    <clipPath id="clipPath6016" clipPathUnits="userSpaceOnUse">
      <rect id="rect6018" width="806.322" height="806.322" x="261.48" y="320.292" ry="64.501" style="fill:#4bb7c0;fill-opacity:1;stroke:none" transform="rotate(45.715)"></rect>
    </clipPath>
    <clipPath id="clipPath4233" clipPathUnits="userSpaceOnUse">
      <rect id="rect4235" width="268.864" height="268.875" x="-1025.592" y="849.091" ry="21.508" style="fill:#e74c3c;fill-opacity:1;stroke:none" transform="rotate(58.392)skewX(-.091)"></rect>
    </clipPath>
    <clipPath id="clipPath4229" clipPathUnits="userSpaceOnUse">
      <rect id="rect4231" width="268.864" height="268.875" x="-1061.605" y="907.043" ry="21.508" style="fill:#e74c3c;fill-opacity:1;stroke:none" transform="rotate(58.392)skewX(-.091)"></rect>
    </clipPath>
    <clipPath id="clipPath4225" clipPathUnits="userSpaceOnUse">
      <rect id="rect4227" width="479.327" height="525.865" x="-912.496" y="922.648" ry="42.066" style="fill:#e74c3c;fill-opacity:1;stroke:none" transform="matrix(.89784 -.44032 .49565 .86852 0 0)"></rect>
    </clipPath>
    <clipPath id="clipPath4221" clipPathUnits="userSpaceOnUse">
      <rect id="rect4223" width="500.153" height="499.848" x="-952.142" y="876.999" ry="39.985" style="fill:#e74c3c;fill-opacity:1;stroke:none" transform="rotate(58.429)skewX(-.018)"></rect>
    </clipPath>
    <clipPath id="clipPath4217" clipPathUnits="userSpaceOnUse">
      <rect id="rect4219" width="478.403" height="526.714" x="-910.738" y="924.137" ry="42.134" style="fill:#e74c3c;fill-opacity:1;stroke:none" transform="matrix(.88345 -.46852 .51827 .85522 0 0)"></rect>
    </clipPath>
    <clipPath id="clipPath4213" clipPathUnits="userSpaceOnUse">
      <rect id="rect4215" width="488.663" height="512.621" x="-930.27" y="899.411" ry="41.006" style="fill:#e74c3c;fill-opacity:1;stroke:none" transform="matrix(.87899 -.47684 .50226 .86472 0 0)"></rect>
    </clipPath>
    <clipPath id="clipPath4209" clipPathUnits="userSpaceOnUse">
      <rect id="rect4211" width="491.296" height="509.43" x="-935.281" y="893.813" ry="40.751" style="fill:#e74c3c;fill-opacity:1;stroke:none" transform="matrix(.87484 -.48441 .5032 .86417 0 0)"></rect>
    </clipPath>
    <clipPath id="clipPath4205" clipPathUnits="userSpaceOnUse">
      <rect id="rect4207" width="493.6" height="506.78" x="-939.668" y="889.162" ry="40.539" style="fill:#e74c3c;fill-opacity:1;stroke:none" transform="matrix(.87169 -.49007 .5035 .864 0 0)"></rect>
    </clipPath>
    <clipPath id="clipPath4201" clipPathUnits="userSpaceOnUse">
      <rect id="rect4203" width="255.251" height="255.261" x="-1362.528" y="-940.764" ry="20.419" style="fill:#e74c3c;fill-opacity:1;stroke:none" transform="rotate(-16.903)skewX(-.091)"></rect>
    </clipPath>
    <clipPath id="clipPath4197" clipPathUnits="userSpaceOnUse">
      <rect id="rect4199" width="255.251" height="255.261" x="768.854" y="-1027.93" ry="20.419" style="fill:#e74c3c;fill-opacity:1;stroke:none" transform="matrix(-.5241 .85166 .85249 .52274 0 0)"></rect>
    </clipPath>
    <clipPath id="clipPath4193" clipPathUnits="userSpaceOnUse">
      <rect id="rect4195" width="255.251" height="255.261" x="-631.78" y="1085.067" ry="20.419" style="fill:#e74c3c;fill-opacity:1;stroke:none" transform="rotate(58.392)skewX(-.091)"></rect>
    </clipPath>
    <clipPath id="clipPath4189" clipPathUnits="userSpaceOnUse">
      <rect id="rect4191" width="326.448" height="306.207" x="-726.835" y="1114.453" ry="24.495" style="fill:#e74c3c;fill-opacity:1;stroke:none" transform="matrix(.47084 .88222 -.81652 .57732 0 0)"></rect>
    </clipPath>
    <clipPath id="clipPath4185" clipPathUnits="userSpaceOnUse">
      <rect id="rect4187" width="197.549" height="243.216" x="941.115" y="-1122.924" ry="19.456" style="fill:#e74c3c;fill-opacity:1;stroke:none" transform="matrix(-.72847 -.68507 .93279 -.36043 0 0)"></rect>
    </clipPath>
    <clipPath id="clipPath4181" clipPathUnits="userSpaceOnUse">
      <rect id="rect4183" width="738.249" height="612.462" x="-1963.396" y="1406.331" ry="48.993" style="fill:#e74c3c;fill-opacity:1;stroke:none" transform="matrix(.3705 .92883 -.72644 .68723 0 0)"></rect>
    </clipPath>
    <clipPath id="clipPath4177" clipPathUnits="userSpaceOnUse">
      <rect id="rect4179" width="738.249" height="612.462" x="-2053.504" y="1528.117" ry="48.993" style="fill:#e74c3c;fill-opacity:1;stroke:none" transform="matrix(.3705 .92883 -.72644 .68723 0 0)"></rect>
    </clipPath>
    <clipPath id="clipPath4849-5" clipPathUnits="userSpaceOnUse">
      <rect id="rect4851-2" width="894.649" height="894.649" x="3656.212" y="248.692" ry="56.041" style="fill:url(#radialGradient4853);fill-opacity:1;stroke:none" transform="rotate(-2.917)"></rect>
    </clipPath>
    <clipPath id="clipPath4843-6" clipPathUnits="userSpaceOnUse">
      <rect id="rect4845-7" width="642.516" height="642.516" x="-4295.454" y="2284.533" ry="40.247" style="fill:url(#radialGradient4847);fill-opacity:1;stroke:none" transform="rotate(-148.28)"></rect>
    </clipPath>
    <clipPath id="clipPath4418-1-2" clipPathUnits="userSpaceOnUse">
      <rect id="rect4420-7-5" width="242.437" height="395.98" x="1637.457" y="3657.43" style="fill:#ca4638;fill-opacity:1;stroke:none" transform="rotate(-55.067)"></rect>
    </clipPath>
    <clipPath id="clipPath7715" clipPathUnits="userSpaceOnUse">
      <rect id="rect7717" width="465.032" height="465.032" x="4062.737" y="-5273.682" ry="37.2" style="fill:#b2e3ff;fill-opacity:1;stroke:none" transform="rotate(54.401)"></rect>
    </clipPath>
    <clipPath id="clipPath4185-9-5-5" clipPathUnits="userSpaceOnUse">
      <rect id="rect4187-8-3-2" width="197.549" height="243.216" x="941.115" y="-1122.924" ry="19.456" style="fill:#e74c3c;fill-opacity:1;stroke:none" transform="matrix(-.72847 -.68507 .93279 -.36043 0 0)"></rect>
    </clipPath>
    <clipPath id="clipPath5265-7-6-2-1-1" clipPathUnits="userSpaceOnUse">
      <rect id="rect5267-7-4-9-2-5" width="1470.203" height="1470.203" x="-1867.625" y="-848.461" ry="117.607" style="fill:#e74c3c;fill-opacity:1;stroke:none" transform="rotate(70.097)"></rect>
    </clipPath>
    <clipPath id="clipPath5265-7-6-2-0-1-6" clipPathUnits="userSpaceOnUse">
      <rect id="rect5267-7-4-9-8-2-1" width="1470.203" height="1470.203" x="-1867.625" y="-848.461" ry="117.607" style="fill:#e74c3c;fill-opacity:1;stroke:none" transform="rotate(70.097)"></rect>
    </clipPath>
    <clipPath id="clipPath9935" clipPathUnits="userSpaceOnUse">
      <rect id="rect9937" width="451.128" height="450.785" x="-2621.896" y="-8261.348" ry="36.06" style="fill:#466995;fill-opacity:1;stroke:none" transform="matrix(-.31913 .94771 -.957 -.2901 0 0)"></rect>
    </clipPath>
    <clipPath id="clipPath9939" clipPathUnits="userSpaceOnUse">
      <rect id="rect9941" width="500" height="500" x="5366.576" y="5442.904" ry="39.997" style="fill:#466995;fill-opacity:1;stroke:none" transform="rotate(-44.285)"></rect>
    </clipPath>
    <clipPath id="clipPath9943" clipPathUnits="userSpaceOnUse">
      <rect id="rect9945" width="623.113" height="637.416" x="-3301.734" y="-5991.097" ry="50.989" style="fill:#466995;fill-opacity:1;stroke:none" transform="matrix(-.55731 .8303 -.85636 -.51638 0 0)"></rect>
    </clipPath>
    <clipPath id="clipPath9947" clipPathUnits="userSpaceOnUse">
      <rect id="rect9949" width="636.233" height="624.321" x="5296.48" y="-3531.294" ry="49.942" style="fill:#466995;fill-opacity:1;stroke:none" transform="matrix(.83634 .5482 -.58942 .80782 0 0)"></rect>
    </clipPath>
    <clipPath id="clipPath9951" clipPathUnits="userSpaceOnUse">
      <rect id="rect9953" width="654.892" height="655.768" x="4479.811" y="-4586.372" ry="52.457" style="fill:#466995;fill-opacity:1;stroke:none" transform="matrix(.71715 .69691 -.7343 .67882 0 0)"></rect>
    </clipPath>
    <clipPath id="clipPath9955" clipPathUnits="userSpaceOnUse">
      <rect id="rect9957" width="885.004" height="1071.313" x="958.582" y="-1894.055" ry="85.698" style="fill:#466995;fill-opacity:1;stroke:none" transform="matrix(-.24754 -.96888 .90745 -.42015 0 0)"></rect>
    </clipPath>
    <clipPath id="clipPath9959" clipPathUnits="userSpaceOnUse">
      <rect id="rect9961" width="543.741" height="543.741" x="3602.674" y="-5286.065" ry="43.496" style="fill:#466995;fill-opacity:1;stroke:none" transform="rotate(55.509)"></rect>
    </clipPath>
    <clipPath id="clipPath9963" clipPathUnits="userSpaceOnUse">
      <rect id="rect9965" width="543.741" height="543.741" x="3572.045" y="-5239.7" ry="43.496" style="fill:#466995;fill-opacity:1;stroke:none" transform="rotate(55.509)"></rect>
    </clipPath>
    <clipPath id="clipPath9967" clipPathUnits="userSpaceOnUse">
      <rect id="rect9969" width="1085.297" height="1072.402" x="4004.347" y="-5574.031" ry="85.785" style="fill:#466995;fill-opacity:1;stroke:none" transform="matrix(.55347 .83287 -.81525 .5791 0 0)"></rect>
    </clipPath>
    <clipPath id="clipPath9971" clipPathUnits="userSpaceOnUse">
      <rect id="rect9973" width="568.78" height="584.632" x="-4102.1" y="-6402.598" ry="46.767" style="fill:#466995;fill-opacity:1;stroke:none" transform="matrix(-.46804 .8837 -.80116 -.59845 0 0)"></rect>
    </clipPath>
    <clipPath id="clipPath9975" clipPathUnits="userSpaceOnUse">
      <rect id="rect9977" width="499.743" height="500.412" x="4378.444" y="-4588.942" ry="40.03" style="fill:#466995;fill-opacity:1;stroke:none" transform="matrix(.71715 .69691 -.7343 .67882 0 0)"></rect>
    </clipPath>
    <clipPath id="clipPath21875-5" clipPathUnits="userSpaceOnUse">
      <path id="path21877-5" d="m -3178.125,-2737.5 a 340.625,340.625 0 1 1 -681.25,0 340.625,340.625 0 1 1 681.25,0 z" style="fill:#e74c3c;fill-opacity:1;stroke:none" transform="rotate(-90 -3127.03 -3480.957)scale(1.06422)"></path>
    </clipPath>
    <clipPath id="clipPath21871-4" clipPathUnits="userSpaceOnUse">
      <path id="path21873-9" d="m -3178.125,-2737.5 a 340.625,340.625 0 1 1 -681.25,0 340.625,340.625 0 1 1 681.25,0 z" style="fill:#e74c3c;fill-opacity:1;stroke:none" transform="translate(1469.725 553.165)scale(1.06422)"></path>
    </clipPath>
    <clipPath id="clipPath21867-7" clipPathUnits="userSpaceOnUse">
      <path id="path21869-0" d="m -3178.125,-2737.5 a 340.625,340.625 0 1 1 -681.25,0 340.625,340.625 0 1 1 681.25,0 z" style="fill:#e74c3c;fill-opacity:1;stroke:none" transform="rotate(-90 -2811.594 -3546.37)scale(1.06422)"></path>
    </clipPath>
    <clipPath id="clipPath21863-4" clipPathUnits="userSpaceOnUse">
      <path id="path21865-7" d="m -3178.125,-2737.5 a 340.625,340.625 0 1 1 -681.25,0 340.625,340.625 0 1 1 681.25,0 z" style="fill:#e74c3c;fill-opacity:1;stroke:none" transform="translate(1356.037 329.48)scale(1.06422)"></path>
    </clipPath>
    <clipPath id="clipPath21859-2" clipPathUnits="userSpaceOnUse">
      <path id="path21861-6" d="m -3178.125,-2737.5 a 340.625,340.625 0 1 1 -681.25,0 340.625,340.625 0 1 1 681.25,0 z" style="fill:#e74c3c;fill-opacity:1;stroke:none" transform="translate(964.919 446.595)scale(1.06422)"></path>
    </clipPath>
    <clipPath id="clipPath21855-9" clipPathUnits="userSpaceOnUse">
      <path id="path21857-6" d="m -3178.125,-2737.5 a 340.625,340.625 0 1 1 -681.25,0 340.625,340.625 0 1 1 681.25,0 z" style="fill:#e74c3c;fill-opacity:1;stroke:none" transform="translate(1172.85 406.29)scale(1.06422)"></path>
    </clipPath>
    <clipPath id="clipPath21851-2" clipPathUnits="userSpaceOnUse">
      <path id="path21853-1" d="m -3178.125,-2737.5 a 340.625,340.625 0 1 1 -681.25,0 340.625,340.625 0 1 1 681.25,0 z" style="fill:#e74c3c;fill-opacity:1;stroke:none" transform="translate(1110.76 623.372)scale(1.06422)"></path>
    </clipPath>
    <clipPath id="clipPath21847-7" clipPathUnits="userSpaceOnUse">
      <path id="path21849-5" d="m -3178.125,-2737.5 a 340.625,340.625 0 1 1 -681.25,0 340.625,340.625 0 1 1 681.25,0 z" style="fill:#e74c3c;fill-opacity:1;stroke:none" transform="rotate(-90 -2936.442 -3207.18)scale(1.06422)"></path>
    </clipPath>
    <clipPath id="clipPath21843-8" clipPathUnits="userSpaceOnUse">
      <path id="path21845-6" d="m -3178.125,-2737.5 a 340.625,340.625 0 1 1 -681.25,0 340.625,340.625 0 1 1 681.25,0 z" style="fill:#e74c3c;fill-opacity:1;stroke:none" transform="rotate(90 -3446.014 -2172.656)scale(1.06422)"></path>
    </clipPath>
    <clipPath id="clipPath21839-9" clipPathUnits="userSpaceOnUse">
      <path id="path21841-1" d="m -3178.125,-2737.5 a 340.625,340.625 0 1 1 -681.25,0 340.625,340.625 0 1 1 681.25,0 z" style="fill:#e74c3c;fill-opacity:1;stroke:none" transform="translate(1283.117 243.302)scale(1.06422)"></path>
    </clipPath>
    <clipPath id="clipPath21835-5" clipPathUnits="userSpaceOnUse">
      <path id="path21837-5" d="m -3178.125,-2737.5 a 340.625,340.625 0 1 1 -681.25,0 340.625,340.625 0 1 1 681.25,0 z" style="fill:#e74c3c;fill-opacity:1;stroke:none" transform="rotate(-90 -2700.003 -3282.31)scale(1.06422)"></path>
    </clipPath>
    <clipPath id="clipPath21831-1" clipPathUnits="userSpaceOnUse">
      <path id="path21833-5" d="m -3178.125,-2737.5 a 340.625,340.625 0 1 1 -681.25,0 340.625,340.625 0 1 1 681.25,0 z" style="fill:#e74c3c;fill-opacity:1;stroke:none" transform="translate(1472.85 181.29)scale(1.06422)"></path>
    </clipPath>
    <clipPath id="clipPath21827-8" clipPathUnits="userSpaceOnUse">
      <path id="path21829-1" d="m -3178.125,-2737.5 a 340.625,340.625 0 1 1 -681.25,0 340.625,340.625 0 1 1 681.25,0 z" style="fill:#e74c3c;fill-opacity:1;stroke:none" transform="translate(1300.975 87.54)scale(1.06422)"></path>
    </clipPath>
    <clipPath id="clipPath21823-2" clipPathUnits="userSpaceOnUse">
      <path id="path21825-7" d="m -3178.125,-2737.5 a 340.625,340.625 0 1 1 -681.25,0 340.625,340.625 0 1 1 681.25,0 z" style="fill:#e74c3c;fill-opacity:1;stroke:none" transform="rotate(-22.719 -2390.489 -4840.25)scale(1.06422)"></path>
    </clipPath>
    <clipPath id="clipPath21819-7" clipPathUnits="userSpaceOnUse">
      <path id="path21821-3" d="m -3178.125,-2737.5 a 340.625,340.625 0 1 1 -681.25,0 340.625,340.625 0 1 1 681.25,0 z" style="fill:#e74c3c;fill-opacity:1;stroke:none" transform="rotate(-90 -3025.467 -3126.27)scale(1.06422)"></path>
    </clipPath>
    <clipPath id="clipPath21875" clipPathUnits="userSpaceOnUse">
      <path id="path21877" d="m -3178.125,-2737.5 a 340.625,340.625 0 1 1 -681.25,0 340.625,340.625 0 1 1 681.25,0 z" style="fill:#e74c3c;fill-opacity:1;stroke:none" transform="rotate(-90 -3127.03 -3480.957)scale(1.06422)"></path>
    </clipPath>
    <clipPath id="clipPath21871" clipPathUnits="userSpaceOnUse">
      <path id="path21873" d="m -3178.125,-2737.5 a 340.625,340.625 0 1 1 -681.25,0 340.625,340.625 0 1 1 681.25,0 z" style="fill:#e74c3c;fill-opacity:1;stroke:none" transform="translate(1469.725 553.165)scale(1.06422)"></path>
    </clipPath>
    <clipPath id="clipPath21867" clipPathUnits="userSpaceOnUse">
      <path id="path21869" d="m -3178.125,-2737.5 a 340.625,340.625 0 1 1 -681.25,0 340.625,340.625 0 1 1 681.25,0 z" style="fill:#e74c3c;fill-opacity:1;stroke:none" transform="rotate(-90 -2811.594 -3546.37)scale(1.06422)"></path>
    </clipPath>
    <clipPath id="clipPath21863" clipPathUnits="userSpaceOnUse">
      <path id="path21865" d="m -3178.125,-2737.5 a 340.625,340.625 0 1 1 -681.25,0 340.625,340.625 0 1 1 681.25,0 z" style="fill:#e74c3c;fill-opacity:1;stroke:none" transform="translate(1356.037 329.48)scale(1.06422)"></path>
    </clipPath>
    <clipPath id="clipPath21859" clipPathUnits="userSpaceOnUse">
      <path id="path21861" d="m -3178.125,-2737.5 a 340.625,340.625 0 1 1 -681.25,0 340.625,340.625 0 1 1 681.25,0 z" style="fill:#e74c3c;fill-opacity:1;stroke:none" transform="translate(964.919 446.595)scale(1.06422)"></path>
    </clipPath>
    <clipPath id="clipPath21855" clipPathUnits="userSpaceOnUse">
      <path id="path21857" d="m -3178.125,-2737.5 a 340.625,340.625 0 1 1 -681.25,0 340.625,340.625 0 1 1 681.25,0 z" style="fill:#e74c3c;fill-opacity:1;stroke:none" transform="translate(1172.85 406.29)scale(1.06422)"></path>
    </clipPath>
    <clipPath id="clipPath21851" clipPathUnits="userSpaceOnUse">
      <path id="path21853" d="m -3178.125,-2737.5 a 340.625,340.625 0 1 1 -681.25,0 340.625,340.625 0 1 1 681.25,0 z" style="fill:#e74c3c;fill-opacity:1;stroke:none" transform="translate(1110.76 623.372)scale(1.06422)"></path>
    </clipPath>
    <clipPath id="clipPath21847" clipPathUnits="userSpaceOnUse">
      <path id="path21849" d="m -3178.125,-2737.5 a 340.625,340.625 0 1 1 -681.25,0 340.625,340.625 0 1 1 681.25,0 z" style="fill:#e74c3c;fill-opacity:1;stroke:none" transform="rotate(-90 -2936.442 -3207.18)scale(1.06422)"></path>
    </clipPath>
    <clipPath id="clipPath21843" clipPathUnits="userSpaceOnUse">
      <path id="path21845" d="m -3178.125,-2737.5 a 340.625,340.625 0 1 1 -681.25,0 340.625,340.625 0 1 1 681.25,0 z" style="fill:#e74c3c;fill-opacity:1;stroke:none" transform="rotate(90 -3446.014 -2172.656)scale(1.06422)"></path>
    </clipPath>
    <clipPath id="clipPath21839" clipPathUnits="userSpaceOnUse">
      <path id="path21841" d="m -3178.125,-2737.5 a 340.625,340.625 0 1 1 -681.25,0 340.625,340.625 0 1 1 681.25,0 z" style="fill:#e74c3c;fill-opacity:1;stroke:none" transform="translate(1283.117 243.302)scale(1.06422)"></path>
    </clipPath>
    <clipPath id="clipPath21835" clipPathUnits="userSpaceOnUse">
      <path id="path21837" d="m -3178.125,-2737.5 a 340.625,340.625 0 1 1 -681.25,0 340.625,340.625 0 1 1 681.25,0 z" style="fill:#e74c3c;fill-opacity:1;stroke:none" transform="rotate(-90 -2700.003 -3282.31)scale(1.06422)"></path>
    </clipPath>
    <clipPath id="clipPath21831" clipPathUnits="userSpaceOnUse">
      <path id="path21833" d="m -3178.125,-2737.5 a 340.625,340.625 0 1 1 -681.25,0 340.625,340.625 0 1 1 681.25,0 z" style="fill:#e74c3c;fill-opacity:1;stroke:none" transform="translate(1472.85 181.29)scale(1.06422)"></path>
    </clipPath>
    <clipPath id="clipPath21827" clipPathUnits="userSpaceOnUse">
      <path id="path21829" d="m -3178.125,-2737.5 a 340.625,340.625 0 1 1 -681.25,0 340.625,340.625 0 1 1 681.25,0 z" style="fill:#e74c3c;fill-opacity:1;stroke:none" transform="translate(1300.975 87.54)scale(1.06422)"></path>
    </clipPath>
    <clipPath id="clipPath21823" clipPathUnits="userSpaceOnUse">
      <path id="path21825" d="m -3178.125,-2737.5 a 340.625,340.625 0 1 1 -681.25,0 340.625,340.625 0 1 1 681.25,0 z" style="fill:#e74c3c;fill-opacity:1;stroke:none" transform="rotate(-22.719 -2390.489 -4840.25)scale(1.06422)"></path>
    </clipPath>
    <clipPath id="clipPath21819" clipPathUnits="userSpaceOnUse">
      <path id="path21821" d="m -3178.125,-2737.5 a 340.625,340.625 0 1 1 -681.25,0 340.625,340.625 0 1 1 681.25,0 z" style="fill:#e74c3c;fill-opacity:1;stroke:none" transform="rotate(-90 -3025.467 -3126.27)scale(1.06422)"></path>
    </clipPath>
    <clipPath id="clipPath36398" clipPathUnits="userSpaceOnUse">
      <path id="path36400" d="m -26.069721,50.047192 a 38.553814,38.553814 0 1 1 -77.107629,0 38.553814,38.553814 0 1 1 77.107629,0 z" style="fill:#4bb7c0;fill-opacity:1;stroke:none" transform="translate(-465.55 230.488)"></path>
    </clipPath>
    <clipPath id="clipPath4027" clipPathUnits="userSpaceOnUse">
      <path id="path4029" d="m -105.05588,261.48218 a 266.68027,266.68027 0 1 1 -533.36053,0 266.68027,266.68027 0 1 1 533.36053,0 z" style="fill:#fc987a;fill-opacity:1;stroke:none" transform="matrix(.89995 0 0 .89995 590.545 20.678)"></path>
    </clipPath>
    <clipPath id="clipPath4344" clipPathUnits="userSpaceOnUse">
      <path id="path4346" d="m -234.28571,83.428574 a 405.71429,405.71429 0 1 1 -811.42859,0 405.71429,405.71429 0 1 1 811.42859,0 z" style="fill:#ffd664;fill-opacity:1;stroke:none" transform="matrix(.6162 0 0 .6162 650.366 204.592)"></path>
    </clipPath>
    <clipPath id="clipPath3070" clipPathUnits="userSpaceOnUse">
      <rect id="rect3072" width="183.206" height="337.953" x="102.611" y="633.176" rx="91.603" ry="168.976" style="fill:#994530;fill-opacity:1;stroke:none" transform="matrix(1 -.00094 .00602 .99998 0 0)"></rect>
    </clipPath>
    <clipPath id="clipPath8172" clipPathUnits="userSpaceOnUse">
      <rect id="rect8174" width="200.277" height="380.186" x="96.614" y="612.669" rx="100.139" ry="190.093" style="fill:#994530;fill-opacity:1;stroke:#994530;stroke-width:44.98852921;stroke-miterlimit:4;stroke-opacity:1;stroke-dasharray:none" transform="matrix(1 -.00097 .00585 .99998 0 0)"></rect>
    </clipPath>
    <clipPath id="clipPath36314" clipPathUnits="userSpaceOnUse">
      <path id="path36316" d="m -26.069721,50.047192 a 38.553814,38.553814 0 1 1 -77.107629,0 38.553814,38.553814 0 1 1 77.107629,0 z" style="fill:#e74c3c;fill-opacity:1;stroke:none" transform="translate(66.181 148.444)"></path>
    </clipPath>
    <clipPath id="clipPath5614-5" clipPathUnits="userSpaceOnUse">
      <rect id="rect5616-7" width="730.557" height="730.557" x="-1439.591" y="-530.113" ry="58.44" style="fill:#e16b5a;fill-opacity:1;stroke:none" transform="rotate(59.042)"></rect>
    </clipPath>
    <clipPath id="clipPath9068" clipPathUnits="userSpaceOnUse"></clipPath>
    <clipPath id="clipPath5614" clipPathUnits="userSpaceOnUse">
      <rect id="rect5616" width="730.557" height="730.557" x="-1439.591" y="-530.113" ry="58.44" style="fill:#e16b5a;fill-opacity:1;stroke:none" transform="rotate(59.042)"></rect>
    </clipPath>
    <clipPath id="clipPath4418-1-2-7" clipPathUnits="userSpaceOnUse">
      <rect id="rect4420-7-5-5" width="242.437" height="395.98" x="1637.457" y="3657.43" style="fill:#ca4638;fill-opacity:1;stroke:none" transform="rotate(-55.067)"></rect>
    </clipPath>
    <clipPath id="clipPath4843-6-7" clipPathUnits="userSpaceOnUse">
      <rect id="rect4845-7-7" width="642.516" height="642.516" x="-4295.454" y="2284.533" ry="40.247" style="fill:url(#radialGradient4847);fill-opacity:1;stroke:none" transform="rotate(-148.28)"></rect>
    </clipPath>
    <clipPath id="clipPath4849-5-2" clipPathUnits="userSpaceOnUse">
      <rect id="rect4851-2-5" width="894.649" height="894.649" x="3656.212" y="248.692" ry="56.041" style="fill:url(#radialGradient4853);fill-opacity:1;stroke:none" transform="rotate(-2.917)"></rect>
    </clipPath>
    <clipPath id="clipPath4177-1" clipPathUnits="userSpaceOnUse">
      <rect id="rect4179-6" width="738.249" height="612.462" x="-2053.504" y="1528.117" ry="48.993" style="fill:#e74c3c;fill-opacity:1;stroke:none" transform="matrix(.3705 .92883 -.72644 .68723 0 0)"></rect>
    </clipPath>
    <clipPath id="clipPath4181-1" clipPathUnits="userSpaceOnUse">
      <rect id="rect4183-2" width="738.249" height="612.462" x="-1963.396" y="1406.331" ry="48.993" style="fill:#e74c3c;fill-opacity:1;stroke:none" transform="matrix(.3705 .92883 -.72644 .68723 0 0)"></rect>
    </clipPath>
    <clipPath id="clipPath4185-5" clipPathUnits="userSpaceOnUse">
      <rect id="rect4187-6" width="197.549" height="243.216" x="941.115" y="-1122.924" ry="19.456" style="fill:#e74c3c;fill-opacity:1;stroke:none" transform="matrix(-.72847 -.68507 .93279 -.36043 0 0)"></rect>
    </clipPath>
    <clipPath id="clipPath4189-1" clipPathUnits="userSpaceOnUse">
      <rect id="rect4191-7" width="326.448" height="306.207" x="-726.835" y="1114.453" ry="24.495" style="fill:#e74c3c;fill-opacity:1;stroke:none" transform="matrix(.47084 .88222 -.81652 .57732 0 0)"></rect>
    </clipPath>
    <clipPath id="clipPath4193-7" clipPathUnits="userSpaceOnUse">
      <rect id="rect4195-9" width="255.251" height="255.261" x="-631.78" y="1085.067" ry="20.419" style="fill:#e74c3c;fill-opacity:1;stroke:none" transform="rotate(58.392)skewX(-.091)"></rect>
    </clipPath>
    <clipPath id="clipPath4197-0" clipPathUnits="userSpaceOnUse">
      <rect id="rect4199-2" width="255.251" height="255.261" x="768.854" y="-1027.93" ry="20.419" style="fill:#e74c3c;fill-opacity:1;stroke:none" transform="matrix(-.5241 .85166 .85249 .52274 0 0)"></rect>
    </clipPath>
    <clipPath id="clipPath4201-8" clipPathUnits="userSpaceOnUse">
      <rect id="rect4203-8" width="255.251" height="255.261" x="-1362.528" y="-940.764" ry="20.419" style="fill:#e74c3c;fill-opacity:1;stroke:none" transform="rotate(-16.903)skewX(-.091)"></rect>
    </clipPath>
    <clipPath id="clipPath4205-8" clipPathUnits="userSpaceOnUse">
      <rect id="rect4207-7" width="493.6" height="506.78" x="-939.668" y="889.162" ry="40.539" style="fill:#e74c3c;fill-opacity:1;stroke:none" transform="matrix(.87169 -.49007 .5035 .864 0 0)"></rect>
    </clipPath>
    <clipPath id="clipPath4209-9" clipPathUnits="userSpaceOnUse">
      <rect id="rect4211-8" width="491.296" height="509.43" x="-935.281" y="893.813" ry="40.751" style="fill:#e74c3c;fill-opacity:1;stroke:none" transform="matrix(.87484 -.48441 .5032 .86417 0 0)"></rect>
    </clipPath>
    <clipPath id="clipPath4213-7" clipPathUnits="userSpaceOnUse">
      <rect id="rect4215-4" width="488.663" height="512.621" x="-930.27" y="899.411" ry="41.006" style="fill:#e74c3c;fill-opacity:1;stroke:none" transform="matrix(.87899 -.47684 .50226 .86472 0 0)"></rect>
    </clipPath>
    <clipPath id="clipPath4217-6" clipPathUnits="userSpaceOnUse">
      <rect id="rect4219-7" width="478.403" height="526.714" x="-910.738" y="924.137" ry="42.134" style="fill:#e74c3c;fill-opacity:1;stroke:none" transform="matrix(.88345 -.46852 .51827 .85522 0 0)"></rect>
    </clipPath>
    <clipPath id="clipPath4221-0" clipPathUnits="userSpaceOnUse">
      <rect id="rect4223-7" width="500.153" height="499.848" x="-952.142" y="876.999" ry="39.985" style="fill:#e74c3c;fill-opacity:1;stroke:none" transform="rotate(58.429)skewX(-.018)"></rect>
    </clipPath>
    <clipPath id="clipPath4225-6" clipPathUnits="userSpaceOnUse">
      <rect id="rect4227-0" width="479.327" height="525.865" x="-912.496" y="922.648" ry="42.066" style="fill:#e74c3c;fill-opacity:1;stroke:none" transform="matrix(.89784 -.44032 .49565 .86852 0 0)"></rect>
    </clipPath>
    <clipPath id="clipPath4229-3" clipPathUnits="userSpaceOnUse">
      <rect id="rect4231-9" width="268.864" height="268.875" x="-1061.605" y="907.043" ry="21.508" style="fill:#e74c3c;fill-opacity:1;stroke:none" transform="rotate(58.392)skewX(-.091)"></rect>
    </clipPath>
    <clipPath id="clipPath4233-4" clipPathUnits="userSpaceOnUse">
      <rect id="rect4235-1" width="268.864" height="268.875" x="-1025.592" y="849.091" ry="21.508" style="fill:#e74c3c;fill-opacity:1;stroke:none" transform="rotate(58.392)skewX(-.091)"></rect>
    </clipPath>
    <clipPath id="clipPath6016-3" clipPathUnits="userSpaceOnUse">
      <rect id="rect6018-9" width="806.322" height="806.322" x="261.48" y="320.292" ry="64.501" style="fill:#4bb7c0;fill-opacity:1;stroke:none" transform="rotate(45.715)"></rect>
    </clipPath>
    <clipPath id="clipPath6020-5" clipPathUnits="userSpaceOnUse">
      <rect id="rect6022-5" width="566.751" height="566.751" x="217.152" y="577.214" ry="45.337" style="fill:#4bb7c0;fill-opacity:1;stroke:none" transform="rotate(45.715)"></rect>
    </clipPath>
    <clipPath id="clipPath6024-3" clipPathUnits="userSpaceOnUse">
      <rect id="rect6026-4" width="500" height="500" x="2488.537" y="-957.623" ry="39.997" style="fill:#4bb7c0;fill-opacity:1;stroke:none" transform="rotate(45.715)"></rect>
    </clipPath>
    <clipPath id="clipPath6028-8" clipPathUnits="userSpaceOnUse">
      <rect id="rect6030-5" width="500" height="500" x="2488.537" y="-957.623" ry="39.997" style="fill:#4bb7c0;fill-opacity:1;stroke:none" transform="rotate(45.715)"></rect>
    </clipPath>
    <clipPath id="clipPath6032-9" clipPathUnits="userSpaceOnUse">
      <rect id="rect6034-8" width="500" height="500" x="2488.537" y="-957.623" ry="39.997" style="fill:#4bb7c0;fill-opacity:1;stroke:none" transform="rotate(45.715)"></rect>
    </clipPath>
    <clipPath id="clipPath6036-2" clipPathUnits="userSpaceOnUse">
      <rect id="rect6038-7" width="565.122" height="565.122" x="2455.997" y="-966.375" ry="45.206" style="fill:#4bb7c0;fill-opacity:1;stroke:none" transform="rotate(45.776)"></rect>
    </clipPath>
    <radialGradient xlink:href="#linearGradient4030-6" id="radialGradient3105" cx="-667.376" cy="1.417" r="239.184" fx="-667.376" fy="1.417" gradientTransform="translate(-71.736 -202.386)" gradientUnits="userSpaceOnUse"></radialGradient>
    <radialGradient xlink:href="#linearGradient4030-6" id="radialGradient3064" cx="-667.376" cy="1.417" r="239.184" fx="-667.376" fy="1.417" gradientTransform="translate(665.108 459.426)" gradientUnits="userSpaceOnUse"></radialGradient>
    <radialGradient xlink:href="#linearGradient4030-6" id="radialGradient5569" cx="-667.376" cy="1.417" r="239.184" fx="-667.376" fy="1.417" gradientTransform="translate(1966.324 1863.219)" gradientUnits="userSpaceOnUse"></radialGradient>
    <linearGradient id="linearGradient4030-6">
      <stop id="stop4032-5" offset="0" style="stop-color:#f2cf89;stop-opacity:1"></stop>
      <stop id="stop4034-4" offset="1" style="stop-color:#f2cf62;stop-opacity:1"></stop>
    </linearGradient>
  </defs>
  <g id="layer1" transform="translate(0 -540.362)">
    <g id="g4046" transform="matrix(.99733 0 0 .99733 2354.567 -276.61)">
      <g id="g4041" transform="matrix(.29161 0 0 .29161 -1624.35 939.213)">
        <path id="path3267" d="m -1622.5954,-356.77103 c 48.538,-0.25111 90.8637,5.1866 123.7805,16.11482 15.4134,5.11713 30.5469,9.36527 33.6309,9.45869 3.0825,0.0953 17.6372,6.46443 32.3462,14.12966 19.7458,10.28994 31.4797,19.77292 44.8412,36.08317 9.9537,12.1501 26.6133,32.32865 37.0172,44.84122 44.7904,53.86851 75.3613,129.45268 89.2154,220.586115 5.0917,33.489293 4.8028,62.439532 -1.4013,114.204986 -5.1071,42.623819 -3.6086,56.069279 13.0787,112.453369 7.0583,23.84694 12.8455,46.04951 12.8455,49.39541 -8e-4,3.3459 9.9581,26.95727 22.0701,52.43153 12.112,25.47467 23.2274,50.35539 24.7561,55.23411 4.1657,13.29318 33.3626,67.78162 57.8033,107.89919 18.7302,30.74538 35.5068,63.7545 63.6416,125.18174 18.8386,41.12987 27.2852,70.62978 31.4121,110.23467 10.6225,101.9155 10.1983,179.21467 -1.1674,226.07449 -10.4596,43.11521 -14.6425,53.35489 -22.7711,55.93475 -12.5922,3.99648 -33.3458,27.87541 -35.8498,41.22121 -1.3468,7.1828 -3.9464,13.0787 -5.8384,13.0787 -1.8934,0 -4.7139,2.9065 -6.1892,6.5394 -5.2318,12.8855 -29.0317,41.2692 -41.9217,49.9792 -7.1936,4.8604 -22.591,16.0214 -34.2149,24.7561 -11.6244,8.7347 -22.0462,15.8813 -23.2379,15.8813 -1.1935,0 -16.0632,8.2994 -33.0472,18.4503 -16.9844,10.1505 -48.6015,27.7464 -70.181,39.1193 -94.1273,49.606 -112.5843,57.214 -158.8127,66.0941 -10.2768,1.9741 -44.3958,8.6319 -75.7865,14.7135 -31.3903,6.0812 -59.9766,10.7899 -63.525,10.5097 -10.3718,-0.818 -23.8021,-2.9637 -43.7901,-7.0065 -32.9082,-6.6559 -36.9365,-7.3818 -61.6567,-11.3271 -26.929,-4.298 -28.6935,-4.7909 -89.6824,-23.8219 -23.6362,-7.3748 -44.6555,-13.3122 -46.7096,-13.3122 -2.0556,0.011 -10.4637,-3.2891 -18.6839,-7.24 -8.222,-3.9509 -22.5151,-10.0388 -31.7625,-13.5458 -56.2025,-21.3111 -100.5404,-44.1843 -127.6342,-65.8605 -13.6829,-10.9473 -35.1032,-28.1947 -47.6438,-38.3019 -28.4353,-22.918 -104.0245,-102.1459 -115.2558,-120.8611 -22.5413,-37.55863 -28.0474,-54.21696 -29.6609,-88.63147 -1.7862,-38.12962 -10.2287,-61.0971 -25.4564,-69.24699 -12.8205,-6.86108 -14.4602,-15.96423 -12.0279,-66.79474 2.2712,-47.46331 6.5005,-69.42617 19.9685,-102.52758 4.8627,-11.95318 8.8749,-23.31314 8.8749,-25.33996 -8e-4,-4.91049 49.736,-102.84409 77.5379,-152.74041 6.2976,-11.30373 17.0557,-31.45631 23.9385,-44.72445 6.8828,-13.26852 24.6862,-45.15156 39.5866,-70.88183 14.8992,-25.73064 27.0915,-48.42273 27.0915,-50.3296 0,-1.9065 5.3365,-14.46764 11.794,-28.02576 31.4808,-66.09596 50.0615,-123.58595 55.234,-170.37328 1.5911,-14.38656 5.8708,-37.087431 9.4588,-50.446378 3.5881,-13.358948 8.7149,-36.900589 11.4439,-52.314759 6.7553,-38.159505 11.998,-58.8967 19.1509,-76.60375 15.1063,-37.39683 29.3834,-65.498833 45.1918,-88.981803 13.6795,-20.3213 17.4974,-29.70656 19.2675,-46.70961 2.7992,-26.89202 10.5511,-38.03469 56.402,-81.04116 63.2725,-59.34811 111.1169,-80.21478 191.3924,-83.25987 7.1769,-0.27204 14.202,-0.31483 21.1363,-0.35033 z" style="fill:#f4eca4;fill-opacity:1;stroke:#2a4a26;stroke-width:68.76823425;stroke-miterlimit:4;stroke-opacity:1;stroke-dasharray:none"></path>
        <path id="path3271" d="m -1622.7412,240.53349 c 22.4991,-0.74423 53.7217,5.79087 65.7091,14.42398 5.679,4.08914 16.6305,11.38298 24.4409,16.1602 26.3204,16.09843 64.4548,54.76815 98.8309,100.30005 19.4094,25.70887 52.7547,87.88133 52.7547,98.43029 0,3.64338 1.874,8.55202 4.14,10.81797 5.976,5.97602 23.418,69.28339 34.0562,123.67225 13.5908,69.4727 20.0373,139.84397 16.4276,179.63193 -3.6771,40.53714 -28.3735,118.0238 -42.3368,132.88756 -5.2255,5.56102 -8.1838,10.1502 -6.5445,10.1502 1.6399,0 -4.2194,9.37046 -13.0883,20.96819 -8.8694,11.59774 -20.968,27.90409 -26.8444,36.19352 -9.6177,13.56623 -33.2606,31.81157 -58.2302,44.74107 -5.0421,2.6104 -20.0093,5.9225 -33.2555,7.4791 -18.9875,2.2317 -27.1705,1.2735 -38.4639,-4.8081 -13.6764,-7.3641 -15.6843,-7.3978 -44.4741,-0.4006 -37.2746,9.0608 -107.2191,8.918 -120.3332,-0.2671 -4.7999,-3.3622 -8.6809,-8.8713 -8.6809,-12.1535 0,-10.3311 -9.6116,-27.64601 -15.3591,-27.64601 -3.0317,0 -7.0683,-2.6938 -8.9483,-5.87643 -1.8788,-3.18272 -7.7842,-8.03323 -13.0881,-10.81799 -8.3607,-4.38875 -11.11,-3.58143 -20.8345,6.14353 -11.1859,11.18529 -11.3178,11.24839 -25.5093,3.60603 -19.7279,-10.62419 -83.8088,-77.30379 -92.8212,-96.56054 -4.0781,-8.71507 -9.2959,-16.99465 -11.6191,-18.43063 -4.5286,-2.7989 -13.9971,-23.4863 -23.3721,-51.1517 -21.0918,-62.23806 -17.2676,-168.84599 8.6809,-243.60493 13.0219,-37.51516 46.2529,-95.4707 78.7977,-137.16133 18.8692,-24.1716 34.324,-45.56395 34.324,-47.5457 -9e-4,-1.98217 5.2874,-8.53023 11.7528,-14.55754 6.4636,-6.02686 19.3251,-20.38181 28.5804,-31.91972 35.7061,-44.51218 106.396,-97.43706 136.2265,-101.90272 2.7792,-0.41584 5.8679,-0.695 9.0818,-0.80133 z" style="fill:#ffd664;fill-opacity:1;stroke:none"></path>
        <path id="path3250" d="m -1624.2306,290.62411 c 19.6722,-0.65072 46.9716,5.06324 57.4528,12.61159 4.9654,3.57534 14.5409,9.9527 21.3699,14.12966 23.0132,14.07565 56.356,47.8865 86.4127,87.69728 16.9706,22.47853 46.126,76.83898 46.126,86.06245 0,3.18559 1.6385,7.47746 3.6198,9.45869 5.2251,5.22513 20.4756,60.57788 29.7771,108.13274 11.883,60.74341 17.5195,122.27248 14.3634,157.06105 -3.2151,35.44362 -24.8084,103.19403 -37.0171,116.19014 -4.569,4.86228 -7.1556,8.87483 -5.7222,8.87483 1.4338,0 -3.6893,8.19305 -11.4438,18.33352 -7.7549,10.14047 -18.3333,24.39792 -23.4714,31.64575 -8.4092,11.86163 -29.0814,27.81445 -50.9135,39.1193 -4.4086,2.28242 -17.4951,5.17841 -29.0769,6.53934 -16.6017,1.95134 -23.7565,1.11356 -33.6309,-4.20386 -11.958,-6.43883 -13.7136,-6.46835 -38.8859,-0.35032 -32.591,7.92232 -93.747,7.79751 -105.2132,-0.23355 -4.1968,-2.93972 -7.5902,-7.7566 -7.5902,-10.62644 0,-9.03289 -8.4039,-24.17222 -13.4292,-24.17222 -2.6508,0 -6.1802,-2.35528 -7.824,-5.13805 -1.6427,-2.78277 -6.8061,-7.02382 -11.4435,-9.4587 -7.3102,-3.83729 -9.7141,-3.13141 -18.2167,5.37161 -9.7803,9.77987 -9.8957,9.83498 -22.304,3.15289 -17.249,-9.28923 -73.2781,-67.59048 -81.1582,-84.42761 -3.5656,-7.62002 -8.1278,-14.85926 -10.1591,-16.11481 -3.9595,-2.44721 -12.2383,-20.53523 -20.4353,-44.72445 -18.4417,-54.41781 -15.098,-147.63038 7.5901,-212.9958 11.3856,-32.80135 40.4412,-83.47474 68.8967,-119.92691 16.4982,-21.13442 30.0111,-39.83881 30.0111,-41.57155 -7e-4,-1.73311 4.6231,-7.4584 10.2761,-12.72837 5.6515,-5.26959 16.8969,-17.82083 24.9893,-27.90899 31.2196,-38.91919 93.0272,-85.19402 119.1095,-89.09857 2.43,-0.36359 5.1306,-0.60767 7.9406,-0.70064 z" style="fill:#994530;fill-opacity:1"></path>
      </g>
    </g>
  </g>
</svg>
