<svg xmlns="http://www.w3.org/2000/svg" id="beet" width="512" height="512" version="1.1">
  <defs id="defs3912">
    <clipPath id="clipPath4224" clipPathUnits="userSpaceOnUse">
      <path id="path4226" d="m -234.28571,83.428574 a 405.71429,405.71429 0 1 1 -811.42859,0 405.71429,405.71429 0 1 1 811.42859,0 z" style="fill:#34495e;fill-opacity:1;stroke:none" transform="matrix(.6162 0 0 .6162 650.366 744.954)"></path>
    </clipPath>
    <clipPath id="clipPath3786" clipPathUnits="userSpaceOnUse">
      <path id="path3788" d="m 263.73353,95.621914 c -101.69928,0 -184.15448,111.183376 -184.15448,248.338946 0,101.45196 45.12681,188.70569 109.76966,227.2524 l 35.05618,29.91348 40.01334,34.8581 39.32865,-35.0625 33.33075,-29.0961 c 65.19851,-38.22787 110.81039,-125.87025 110.81039,-227.86538 0,-137.15557 -82.4552,-248.338946 -184.15449,-248.338946 z" style="fill:#952124;fill-opacity:1;stroke:none"></path>
    </clipPath>
    <clipPath id="clipPath3326" clipPathUnits="userSpaceOnUse">
      <path id="path3328" d="m -775.7972,316.0304 a 246.47722,246.47722 0 1 1 -492.9544,0 246.47722,246.47722 0 1 1 492.9544,0 z" style="fill:#9777a8;fill-opacity:1;stroke:none" transform="translate(1278.274 -60.03)"></path>
    </clipPath>
    <clipPath id="clipPath4550" clipPathUnits="userSpaceOnUse">
      <path id="path4552" d="m 262.97846,96.323235 c -79.96196,0 -144.79309,74.296035 -144.79309,165.947465 0,67.79322 35.48135,126.09876 86.30736,151.85682 l 27.56323,19.98907 31.46084,23.29323 30.9225,-23.42981 26.2066,-19.44288 c 51.2629,-25.545 87.12564,-84.11024 87.12564,-152.26643 0,-91.65143 -64.83112,-165.947465 -144.79308,-165.947465 z" style="fill:#952124;fill-opacity:1;stroke:none"></path>
    </clipPath>
  </defs>
  <g id="layer1" transform="translate(0 -540.362)">
    <g id="g5508" transform="matrix(.97777 0 0 .97777 598.508 22.062)">
      <path id="path5495" d="m -387.625,6.09375 c -0.55816,0.0213 -1.23277,0.1168 -2.09375,0.21875 -2.15848,0.25564 -4.38551,0.85969 -4.96875,1.34375 -1.36226,1.13058 -1.3325,6.16154 0.0937,14 1.40828,7.74011 2.48408,14.37306 2.96875,18.25 0.20917,1.67335 1.0118,5.61245 1.8125,8.75 3.04886,11.94708 6.45638,33.9999 5.34375,34.6875 -0.31224,0.19297 -1.65319,-3.16799 -2.96875,-7.46875 -1.31549,-4.30083 -2.68144,-8.50707 -3.03125,-9.34375 -0.34988,-0.83668 -1.89049,-4.72774 -3.40625,-8.65625 -3.17047,-8.21701 -7.25063,-16.37831 -9.5,-19 -1.28255,-1.49476 -2.06208,-1.7603 -4.46875,-1.4375 -1.60277,0.21503 -4.36286,1.34439 -6.15625,2.53125 l -3.28125,2.1875 -2.125,-2.59375 c -2.05595,-2.46273 -2.30055,-2.51545 -6.125,-2.0625 -5.55326,0.65771 -6.00544,1.34332 -3.59375,5.65625 2.61431,4.67536 6.21232,14.2048 8.21875,21.84375 1.41124,5.37284 2.45733,8.25364 6.46875,17.5 0.54445,1.25501 1.25544,3.11064 1.5625,4.125 0.4839,1.59836 0.25868,1.50759 -1.65625,-0.75 -1.21531,-1.43269 -2.87371,-3.89998 -3.6875,-5.46875 -0.8137,-1.56877 -1.70747,-2.84375 -2,-2.84375 -0.29254,0 -0.64601,-0.52836 -0.78125,-1.15625 -0.13524,-0.62781 -2.74122,-4.64983 -5.78125,-8.9375 -3.03996,-4.2876 -8.67119,-12.58076 -12.53125,-18.4375 -3.85998,-5.85675 -7.39157,-10.88013 -7.8125,-11.1875 -1.21174,-0.88475 -6.05106,-0.69746 -8.4375,0.34375 -2.78112,1.21349 -11.07882,6.90057 -12.40625,8.5 -1.33739,1.61152 0.0285,5.12914 3.375,8.8125 1.33032,1.46418 4.33886,6.09786 6.71875,10.28125 5.06381,8.90135 4.14349,7.4164 13.75,22.40625 4.16445,6.49818 9.89853,14.87349 12.71875,18.625 2.82021,3.75151 5.36,7.69427 5.625,8.75 0.63252,2.52008 -0.8291,3.44155 -10.1875,6.53125 -9.40997,3.10674 -14.2201,5.42881 -19.28125,9.25 -2.23416,1.68682 -6.02278,3.99746 -8.40625,5.125 -2.38354,1.12761 -5.97274,3.13987 -7.96875,4.5 -1.99602,1.36021 -7.5641,4.83807 -12.375,7.71875 -4.8109,2.88069 -10.4708,6.83219 -12.5625,8.75 -2.09169,1.91782 -5.50206,4.79487 -7.59375,6.4375 -7.56388,5.93995 -22.21171,21.38712 -26.75,28.21875 -2.47406,3.72443 -4.90127,7.64165 -5.40625,8.6875 -0.50505,1.04585 -1.24879,2.40374 -1.65625,3.03125 -3.50097,5.39155 -10.96654,22.62121 -13.5,31.1875 -6.77496,22.90772 -9.31066,45.3212 -7.09375,62.40625 0.40624,3.13077 0.73023,8.40329 0.75,11.75 0.0202,3.34671 0.5831,8.47787 1.21875,11.40625 0.63564,2.92837 1.46679,6.90533 1.84375,8.8125 0.37696,1.90709 2.02722,6.34369 3.6875,9.875 1.6602,3.53124 3.89492,8.29288 4.96875,10.59375 2.70886,5.80434 10.09394,17.36183 14.1875,22.21875 3.31218,3.92987 14.61151,15.85524 23.9375,25.25 6.04143,6.086 19.02561,16.40925 25.78125,20.5 10.75542,6.51293 13.06771,7.81754 15.6875,8.8125 1.46418,0.55601 3.72824,1.45995 5.03125,2.03125 2.99911,1.31472 21.96187,7.59913 25,8.28125 1.25502,0.28173 4.33372,1.28896 6.84375,2.25 2.51004,0.96112 6.97788,2.51281 9.90625,3.4375 2.92837,0.9246 6.24153,2.35425 7.375,3.15625 1.13347,0.80192 2.47829,1.4375 3,1.4375 1.04144,0 27.78704,12.54935 35.5,16.65625 3.10118,1.6512 10.85944,6.98225 13.3125,9.15625 8.14126,7.215 14.96875,15.3359 14.96875,17.8125 0,3.4946 1.29282,5.6794 3.5625,6 5.16109,0.7289 8.74134,-1.00625 13.75,-6.78125 7.79092,-8.9831 19.37121,-20.03125 21.03125,-20.03125 0.22917,0 3.3942,-2.17785 7.0625,-4.84375 6.49065,-4.7171 17.88742,-11.875 18.875,-11.875 0.93389,0 10.63307,-5.97374 12.90625,-7.9375 1.25501,-1.08418 2.60867,-1.96822 3,-1.96875 0.39142,-5.3e-4 1.41765,-0.6248 2.28125,-1.40625 2.89719,-2.62139 12.00831,-7.66709 15.9375,-8.8125 7.48508,-2.18199 17.62842,-9.47045 30,-21.5625 6.792,-6.63851 11.0567,-11.71146 22.4375,-26.78125 3.00132,-3.97422 5.67812,-7.40663 5.96875,-7.625 0.29071,-0.2183 1.37448,-1.63585 2.40625,-3.15625 1.0317,-1.52039 2.43862,-3.38498 3.125,-4.15625 2.46189,-2.76667 10.84166,-15.25868 16.40625,-24.4375 3.11792,-5.14291 6.30128,-10.27407 7.03125,-11.40625 0.72989,-1.13217 2.04051,-3.61747 2.90625,-5.5 0.86581,-1.88252 2.344,-4.26666 3.3125,-5.3125 0.96849,-1.04585 2.73656,-3.44071 3.9375,-5.28125 1.20086,-1.84054 2.44241,-3.69593 2.75,-4.15625 2.26017,-3.38285 5.26866,-11.98442 5.59375,-15.96875 0.31854,-3.90364 -1.64031,-27.85618 -3.03125,-36.96875 -0.45926,-3.00839 -2.67542,-10.58407 -5.5625,-19.03125 -4.21107,-12.32123 -8.61138,-24.77138 -9.28125,-26.21875 -0.38723,-0.83668 -1.3016,-2.9204 -2,-4.59375 -0.69847,-1.67336 -1.54929,-3.72583 -1.90625,-4.5625 -0.35696,-0.83668 -1.53755,-3.68737 -2.625,-6.34375 -3.53694,-8.63977 -10.14368,-21.70198 -12.9375,-25.59375 -1.50154,-2.0917 -3.65143,-5.19084 -4.78125,-6.875 -2.39305,-3.56744 -9.09873,-10.03098 -16.125,-15.59375 -2.7192,-2.15277 -6.39497,-5.17099 -8.15625,-6.65625 -3.34626,-2.82181 -10.81233,-8.11072 -21.125,-14.96875 -8.04923,-5.35284 -20.87025,-11.8642 -29.15625,-14.8125 -1.81871,-0.64706 -3.37368,-1.37453 -3.4375,-1.625 -0.25374,-0.99489 8.57473,-12.08133 14.6875,-18.4375 9.18825,-9.55411 19.78246,-20.47913 26.5,-27.28125 l 5.78125,-5.8125 -0.0312,-6.3125 -0.0625,-6.3125 -3.625,-3.21875 c -4.02929,-3.54561 -7.59674,-4.55336 -11.71875,-3.34375 -1.62156,0.47585 -5.3832,3.49943 -10.25,8.21875 -4.23618,4.10779 -8.99373,8.43951 -10.5625,9.625 l -2.84375,2.15625 -2.75,-2.1875 c -9.30294,-7.37068 -10.49286,-7.98082 -16.53125,-8.4375 -5.59616,-0.4232 -5.79987,-0.3581 -7.5,1.6875 -0.96202,1.15751 -3.19081,3.69798 -4.96875,5.625 -3.60099,3.90295 -4.34303,2.95647 -1.71875,-2.1875 0.83668,-1.63997 1.53125,-3.67139 1.53125,-4.5 0,-0.8287 0.33166,-1.71014 0.75,-1.96875 0.41834,-0.25854 0.75,-1.20679 0.75,-2.09375 0,-1.78197 2.70152,-10.99476 4.3125,-14.75 0.5656,-1.31822 1.03125,-4.19271 1.03125,-6.375 0,-3.58334 -0.28395,-4.2527 -2.90625,-6.875 -1.59699,-1.59699 -3.8982,-3.11343 -5.125,-3.375 -1.2268,-0.26158 -2.83611,-0.79441 -3.5625,-1.1875 -0.72647,-0.39301 -2.47766,-0.71875 -3.90625,-0.71875 -2.14167,0 -2.88108,-0.42305 -4.125,-2.53125 -2.29189,-3.88432 -7.7493,-4.30396 -7.78125,-0.59375 -0.0114,1.32165 -3.89328,17.12814 -7.59375,30.90625 -2.54525,9.47675 -8.92309,28.54435 -9.875,29.53125 -0.34577,0.35848 -0.95681,-1.16525 -1.375,-3.40625 -0.41818,-2.24101 -1.3156,-6.97537 -1.96875,-10.53125 -3.1923,-17.37819 -4.60869,-21.03466 -9.09375,-23.375 -1.41961,-0.74077 -4.33491,-2.28707 -6.46875,-3.4375 -4.54385,-2.4498 -8.36246,-2.69409 -10.875,-0.65625 l -1.78125,1.46875 0,20.1875 c 0,13.80245 -0.2961,20.4195 -0.875,21 -0.95845,0.96119 -1.09643,0.05894 -2.9375,-17.84375 -1.09749,-10.67236 -3.35018,-22.10486 -5.9375,-30.0625 -0.61207,-1.88253 -1.71324,-5.69205 -2.4375,-8.46875 -0.7375,-2.82767 -2.12417,-5.91824 -3.15625,-7.03125 -1.66674,-1.79756 -2.40645,-2 -7.5,-2 -4.89586,0 -5.75595,-0.20599 -6.75,-1.625 -0.75232,-1.07414 -1.29427,-1.43973 -2.96875,-1.375 z" style="fill:#3b3c3d" transform="translate(0 540.362)"></path>
      <path id="path5493" d="m -383.266,555.4906 c 0.19771,0.01 0.41017,0.0433 0.62835,0.0664 3.10243,0.32783 4.22421,2.10862 8.60515,13.91176 5.29006,14.25243 6.50951,19.77358 7.48446,33.96631 0.49865,7.2572 1.60583,15.67704 2.47022,18.71305 0.86468,3.03605 2.29546,8.0058 3.18973,11.04497 0.89412,3.03917 1.85361,6.27667 2.09825,7.201 0.46602,1.76068 -2.42846,2.28522 -7.03197,1.26467 -3.07107,-0.68079 -5.50396,-8.85744 -7.33152,-24.67631 -1.08907,-9.42815 -3.22025,-19.74594 -5.78,-27.76299 -1.11184,-3.48283 -2.97248,-10.5631 -4.1015,-15.73043 -1.1292,-5.16734 -2.42106,-10.9665 -2.90516,-12.87923 -0.97099,-3.83612 -0.29183,-5.26208 2.67399,-5.1192 z" style="fill:#8f2124;fill-opacity:1"></path>
      <path id="path5491" d="m -297.31668,564.67668 c 0.36623,-0.008 0.78286,0 1.25977,0 2.10021,0 4.46493,0.33885 5.25301,0.76061 1.35252,0.72388 1.37626,0.96941 0.28523,4.37355 -0.6358,1.98369 -2.3416,7.7133 -3.77932,12.71656 -1.43764,5.00318 -3.66469,11.67759 -4.96777,14.83202 -1.30309,3.15435 -2.98999,7.30789 -3.75555,9.24625 -0.76556,1.93843 -2.02902,4.67665 -2.80477,6.08493 -0.77583,1.40836 -2.37872,5.3053 -3.54162,8.65201 -1.16291,3.34672 -2.38663,6.76949 -2.73347,7.60617 -0.62416,1.50549 -2.39085,6.99821 -3.66047,11.40925 -0.72593,2.52205 -1.11605,2.63451 -6.60785,1.97285 -3.49534,-0.42115 -3.78354,-0.60541 -3.61293,-2.35316 0.38289,-3.92257 0.9985,-5.32431 2.35316,-5.32431 2.50387,0 4.61283,-3.38479 7.36847,-11.81333 1.49841,-4.58295 3.04307,-9.02757 3.42277,-9.86425 1.18527,-2.61234 3.60441,-10.33678 5.70463,-18.2548 3.41068,-12.85868 6.21614,-24.20069 6.75047,-27.19204 0.44542,-2.49307 0.50273,-2.81276 3.06624,-2.85231 z" style="fill:#8f2124;fill-opacity:1"></path>
      <path id="path5489" d="m -342.16929,587.28125 c 0.0213,-0.0167 0.0485,-0.008 0.0713,0 0.73347,0.17684 1.73451,4.52419 4.23093,18.46872 2.08683,11.65691 2.10995,21.01478 0.0951,29.28374 -1.42593,5.85219 -1.56383,6.09855 -3.80308,6.32263 -1.28058,0.12816 -2.51909,-0.0901 -2.75724,-0.47539 -1.2986,-2.1012 -1.21048,-10.45779 0.26146,-24.86265 0.89776,-8.78512 1.55835,-18.88231 1.4737,-22.43819 -0.0794,-3.33363 0.10656,-6.04557 0.42785,-6.29886 z" style="fill:#8f2124;fill-opacity:1"></path>
      <path id="path5487" d="m -453.64717,589.06395 c 0.86216,0.0586 1.82073,0.49234 2.51955,1.28354 0.64652,0.73209 3.56698,5.09613 6.46524,9.69786 2.89825,4.60173 7.20224,10.93592 9.57901,14.07141 2.37678,3.13549 4.32601,5.98422 4.32601,6.32262 0,0.67954 7.98259,13.7046 13.78617,22.5095 2.04256,3.09883 3.70801,6.26489 3.70801,7.0357 0,2.56366 -2.67821,1.48317 -5.46693,-2.21054 -9.11325,-12.07045 -22.84052,-32.22428 -28.87966,-42.40437 -7.81739,-13.17769 -8.35857,-14.23772 -7.93894,-15.33118 0.2782,-0.72502 1.03938,-1.03296 1.90154,-0.97454 z" style="fill:#8f2124;fill-opacity:1"></path>
      <path id="path5485" d="m -411.71818,589.23033 c 0.73201,-0.0532 1.38501,0.18772 1.80647,0.66554 1.40896,1.59752 7.15523,15.78801 8.72332,21.55873 1.97737,7.27682 3.98415,13.37833 6.44147,19.53834 1.44875,3.63179 2.86327,7.61715 3.13755,8.86594 0.27427,1.24878 0.99058,2.45492 1.59254,2.68592 0.60195,0.231 1.09338,0.78074 1.09338,1.21224 0,0.43142 -0.96172,0.78438 -2.13923,0.78438 -1.70188,0 -2.40385,-0.54928 -3.42278,-2.68593 -0.70501,-1.47841 -1.28354,-3.0166 -1.28354,-3.42277 0,-0.40625 -0.85569,-2.51456 -1.90154,-4.68255 -1.04585,-2.16791 -1.90154,-4.19103 -1.90154,-4.49239 0,-0.30136 -1.55383,-3.86443 -3.44654,-7.91517 -4.73226,-10.12783 -5.36079,-11.7265 -6.01363,-15.21233 -0.31292,-1.67084 -1.35953,-4.98158 -2.32939,-7.36847 -2.83976,-6.9887 -3.03919,-8.74747 -1.09338,-9.36509 0.25572,-0.0812 0.49284,-0.14874 0.73684,-0.16639 z" style="fill:#8f2124;fill-opacity:1"></path>
      <path id="path5483" d="m -226.19903,593.67518 c 0.54513,0.0137 0.99926,0.35057 1.49746,0.95078 0.68319,0.82321 0.33741,1.60083 -1.61631,3.63669 -1.36865,1.42608 -4.89171,5.32166 -7.82009,8.65202 -7.73357,8.79516 -19.00107,20.74905 -23.27011,24.69627 -2.03602,1.88252 -5.89178,6.84555 -8.58071,11.02894 -2.68885,4.18339 -5.43966,8.20515 -6.1087,8.93724 -1.85263,2.02735 -10.71553,0.93906 -11.62317,-1.42615 -0.95024,-2.47642 13.86459,-21.5825 16.73356,-21.5825 0.394,0 4.51959,-3.7282 9.17494,-8.29547 4.65528,-4.56728 12.03334,-11.14673 16.4008,-14.6181 4.36746,-3.47131 9.33048,-7.59697 11.02894,-9.17494 2.09907,-1.95015 3.27483,-2.82759 4.18339,-2.80478 z" style="fill:#8f2124;fill-opacity:1"></path>
      <path id="path5481" d="m -269.95825,602.3272 c 0.35581,-0.0137 0.6887,0.10515 1.06961,0.309 0.91632,0.49037 1.66385,1.38128 1.66385,1.99662 0,0.61534 -2.05986,3.77239 -4.58747,7.01193 -2.52753,3.23962 -6.54096,8.80414 -8.91347,12.36002 -2.37244,3.55589 -4.91823,7.11356 -5.65709,7.91517 -0.73886,0.80161 -2.28466,2.85528 -3.42277,4.5637 -1.13812,1.70842 -2.74648,3.88994 -3.58916,4.84893 -1.31648,1.49819 -1.39387,1.97121 -0.5467,3.3277 0.54225,0.86824 0.70468,1.82042 0.35654,2.11546 -0.6609,0.5602 -9.85143,-0.93795 -10.64863,-1.73515 -0.25169,-0.25169 -0.10839,-1.40327 0.33277,-2.56709 0.44116,-1.16381 1.41699,-4.16913 2.163,-6.67916 0.74601,-2.51003 1.78943,-5.41939 2.32939,-6.46524 0.53989,-1.04585 0.99831,-2.36757 0.99831,-2.94739 0.008,-0.80154 0.77469,-0.95138 3.23262,-0.618 l 3.23262,0.42785 4.94401,-6.13248 c 2.7192,-3.37576 7.53368,-8.86719 10.69617,-12.2174 3.94395,-4.17799 5.27879,-5.47241 6.3464,-5.51447 z" style="fill:#8f2124;fill-opacity:1"></path>
      <path id="path5479" d="m -354.15625,111.53125 c -5.2176,0.0468 -9.29359,0.2564 -10.90625,0.625 -1.19797,0.27389 -1.73108,1.16949 -2.09375,3.4375 -0.47363,2.96157 -0.57392,3.03125 -3.46875,3.03125 -3.65195,0 -5.91645,-0.83796 -8.40625,-3.15625 -1.04585,-0.97381 -2.5626,-1.84005 -3.34375,-1.90625 -3.60274,-0.30569 -16.35806,2.275 -20.90625,4.21875 -2.76978,1.18375 -6.22331,2.57941 -7.6875,3.125 -1.46419,0.54566 -3.04083,1.3854 -3.46875,1.84375 -0.428,0.45835 -1.41661,1.17677 -2.21875,1.625 -0.80215,0.44823 -1.57492,1.19365 -1.71875,1.625 -0.25504,0.76518 1.82983,1.17305 18.8125,3.6875 4.39256,0.65032 9.33781,1.53565 11.03125,1.96875 11.0057,2.81481 28.91168,3.13126 54.375,0.96875 18.72547,-1.5903 23.94077,-2.6374 32.3125,-6.375 2.09169,-0.93388 4.6729,-2.04364 5.71875,-2.46875 1.04585,-0.42511 2.40374,-1.08676 3.03125,-1.46875 0.6275,-0.38198 1.73666,-0.87917 2.46875,-1.125 0.73209,-0.24583 1.34375,-0.66855 1.34375,-0.9375 0,-0.76785 -10.53999,-4.00298 -15.59375,-4.78125 -2.51277,-0.38692 -6.61497,-1.03687 -9.125,-1.46875 -7.38825,-1.2713 -9.26119,-1.45072 -22.4375,-2.09375 -6.13156,-0.2992 -12.50122,-0.4222 -17.71875,-0.375 z" style="fill:#6a9a29;fill-opacity:1" transform="translate(0 540.362)"></path>
      <path id="path3070" d="m -265.65602,663.91338 c 1.30986,0.019 3.80042,1.2355 10.83879,4.82516 16.92859,8.63398 28.39176,16.5617 46.63531,32.2549 8.41249,7.2365 12.55557,11.84321 15.92541,17.7081 1.20192,2.0917 2.65812,4.28246 3.23262,4.8727 1.87187,1.92322 12.42969,25.14313 16.11556,35.43998 0.89844,2.51004 1.93117,5.24826 2.30562,6.08493 0.88323,1.97358 4.56412,12.48142 5.06285,14.45172 0.21176,0.83668 0.98074,2.89034 1.71139,4.5637 4.19206,9.60043 6.52377,21.19721 8.10532,40.28891 1.04387,12.60106 1.10704,15.846 0.309,19.01542 -1.87651,7.45252 -3.72907,9.86778 -10.17324,13.31079 -1.19767,0.63998 -2.64212,2.02039 -3.20886,3.06623 -3.48689,6.4333 -17.37872,29.33497 -17.92202,29.5452 -0.36038,0.1395 -0.64177,0.64858 -0.64177,1.14093 0,0.49227 -0.77013,1.7568 -1.71139,2.80477 -0.94126,1.04798 -3.08613,3.9616 -4.75386,6.46524 -1.66772,2.50357 -3.19793,4.71107 -3.42277,4.92024 -1.05612,0.98264 -8.25048,10.53751 -9.55525,12.69279 -2.55567,4.2215 -16.41806,20.88813 -23.53157,28.28543 -6.52488,6.78524 -15.30178,13.93317 -19.39573,15.80657 -5.18466,2.37267 -7.522,3.30393 -8.29547,3.30393 -1.18261,0 -12.13921,6.8503 -19.58588,12.24117 -3.4173,2.47383 -6.68654,4.49239 -7.24963,4.49239 -1.28939,0 -6.8117,2.92697 -7.84386,4.15962 -0.42579,0.50855 -4.35453,3.21129 -8.74709,6.01363 -4.39256,2.80241 -9.01711,5.85002 -10.26832,6.77424 -1.25122,0.92423 -4.84513,3.55543 -7.98648,5.84723 -3.14134,2.2918 -6.13855,4.7446 -6.65539,5.4432 -0.51684,0.6986 -2.22823,2.673 -3.80308,4.3735 -4.03873,4.3609 -6.17769,4.6575 -8.48563,1.236 -2.58815,-3.8368 -15.1967,-15.65933 -18.75396,-17.58924 -3.46483,-1.87994 -10.83308,-6.0825 -12.50263,-7.13078 -0.62751,-0.39407 -3.53687,-1.8065 -6.46524,-3.11377 -2.92838,-1.30728 -9.08937,-4.20629 -13.6911,-6.46524 -4.60173,-2.25896 -8.81213,-4.11209 -9.36509,-4.11209 -0.55305,0 -2.43557,-0.83462 -4.1834,-1.854 -1.74789,-1.01938 -5.58102,-2.54092 -8.50939,-3.37524 -2.92838,-0.83432 -8.27559,-2.54783 -11.88464,-3.80308 -3.60897,-1.25525 -7.88744,-2.50722 -9.50771,-2.80477 -4.51342,-0.82892 -22.50006,-7.60727 -29.45012,-11.10025 -6.38606,-3.20958 -20.97317,-12.7903 -25.05281,-16.44834 -10.79642,-9.68067 -25.0956,-24.06511 -30.7812,-30.97136 -4.74123,-5.75908 -10.85419,-14.83331 -13.33456,-19.77603 -9.40115,-18.73406 -10.06342,-21.36815 -11.74202,-47.15823 -1.49462,-22.96309 0.80716,-43.28661 7.0357,-62.37056 4.66768,-14.30119 18.61495,-40.82914 24.0545,-45.73207 0.98028,-0.88354 4.17864,-4.27265 7.10701,-7.53486 11.69775,-13.03127 31.22902,-27.88425 49.44008,-37.62676 2.0917,-1.11894 7.46492,-4.44515 11.93218,-7.39224 4.46725,-2.94708 9.61004,-5.93543 11.43301,-6.63162 3.27933,-1.25236 3.35965,-1.24875 8.22417,0.927 4.80497,2.14904 7.5414,3.04258 11.38548,3.68423 3.1234,0.52141 21.70267,3.98198 32.63521,6.08494 8.45532,1.6265 12.3979,1.97285 22.96111,1.97285 7.01228,0 13.04838,-0.18312 13.40587,-0.40408 0.35757,-0.22096 5.9376,-0.64238 12.40756,-0.927 11.14493,-0.49037 20.75148,-1.93969 29.25997,-4.39732 5.81583,-1.67982 22.93552,-9.38498 25.93227,-11.67071 1.868,-1.42479 3.50009,-1.99833 5.44316,-1.92531 1.65784,0.0624 3.33478,-0.39677 4.1834,-1.16469 0.42039,-0.38046 0.7832,-0.62668 1.37861,-0.618 z" style="fill:#a95153;fill-opacity:1"></path>
      <path id="path5505" d="m -333.26951,129.27342 c 0,4.10609 -13.24219,7.43472 -29.57726,7.43472 -16.33507,0 -29.57727,-3.32863 -29.57727,-7.43472 0,-4.10608 13.2422,-7.43472 29.57727,-7.43472 16.33507,0 29.57726,3.32864 29.57726,7.43472 z" style="fill:#6a9a29;fill-opacity:1;stroke:none" transform="translate(-2.91 530.341)"></path>
    </g>
  </g>
</svg>
