<svg xmlns="http://www.w3.org/2000/svg" id="bell" width="512" height="512" version="1.1">
  <defs id="defs3912">
    <clipPath id="clipPath4224" clipPathUnits="userSpaceOnUse">
      <path id="path4226" d="m -234.28571,83.428574 a 405.71429,405.71429 0 1 1 -811.42859,0 405.71429,405.71429 0 1 1 811.42859,0 z" style="fill:#34495e;fill-opacity:1;stroke:none" transform="matrix(.6162 0 0 .6162 650.366 744.954)"></path>
    </clipPath>
    <clipPath id="clipPath4224-9" clipPathUnits="userSpaceOnUse">
      <path id="path4226-5" d="m -234.28571,83.428574 a 405.71429,405.71429 0 1 1 -811.42859,0 405.71429,405.71429 0 1 1 811.42859,0 z" style="fill:#34495e;fill-opacity:1;stroke:none" transform="matrix(.6162 0 0 .6162 650.366 744.954)"></path>
    </clipPath>
    <clipPath id="clipPath4224-7" clipPathUnits="userSpaceOnUse">
      <path id="path4226-9" d="m -234.28571,83.428574 a 405.71429,405.71429 0 1 1 -811.42859,0 405.71429,405.71429 0 1 1 811.42859,0 z" style="fill:#34495e;fill-opacity:1;stroke:none" transform="matrix(.6162 0 0 .6162 650.366 744.954)"></path>
    </clipPath>
  </defs>
  <g id="layer1" transform="translate(0 -540.362)">
    <g id="layer1-3">
      <g id="g3073" transform="matrix(1.14238 0 0 .94092 -621.954 64.286)">
        <path id="path3071" d="m 827.95343,522.97348 c -1.83475,0.007 -4.11357,0.0516 -6.9943,0.12101 -11.04699,0.26586 -14.14906,0.60701 -20.03891,2.27494 -3.83353,1.08563 -8.01556,2.69002 -9.29341,3.55764 -3.79512,2.57667 -9.18831,8.36364 -12.43954,13.33507 -3.61482,5.52718 -4.25034,6.81683 -6.80068,13.91591 -5.3798,14.97517 -8.30304,24.2002 -9.46278,29.81636 -0.22002,1.06487 -1.13418,4.8984 -2.00877,8.51896 -1.62534,6.72738 -1.60737,8.48681 0.0484,20.52294 0.41015,2.98164 0.89015,7.5557 1.08911,10.16467 l 0.36299,4.74351 -2.90419,0.96806 c -1.59762,0.52701 -3.62467,0.73809 -4.5015,0.45983 -2.01357,-0.63908 -10.18697,1.99723 -15.27124,4.93712 -2.12974,1.23154 -5.82395,3.29285 -8.2043,4.5741 l -4.33204,2.32336 -2.51697,-1.5247 c -10.51805,-6.39642 -27.63077,-6.77548 -43.03049,-0.94387 -6.89711,2.61192 -9.29419,4.16256 -17.59452,11.30215 -4.52024,3.88813 -7.65885,5.97817 -9.46278,6.31661 -2.91124,0.54614 -4.51025,1.29248 -9.41446,4.45309 -1.74259,1.12303 -4.60542,2.47375 -6.36497,3.001 -1.75987,0.52724 -3.89782,1.60803 -4.74352,2.39595 -0.84593,0.78801 -1.75413,1.4279 -2.03293,1.4279 -0.2788,0 -2.51317,1.48114 -4.96136,3.29141 -2.4482,1.81028 -5.24087,3.81417 -6.21985,4.4531 -5.25008,3.42771 -13.11277,11.41133 -13.14142,13.33507 -0.0107,0.72024 -0.32109,1.48288 -0.70189,1.71831 -0.38087,0.23536 -1.84001,4.00507 -3.21877,8.37375 -2.09946,6.65261 -2.87708,8.18974 -4.86448,9.48702 -2.59518,1.69396 -3.1119,3.25432 -5.5422,16.7475 -0.73836,4.09925 -1.13775,8.13928 -0.87126,8.97879 0.26641,0.8395 0.81225,9.85651 1.21008,20.03891 0.39792,10.1824 1.2818,21.65965 1.96029,25.48427 1.10863,6.24935 1.67545,30.6104 0.99231,42.59479 -0.36477,6.39929 7.7e-4,17.53059 0.82285,24.90344 1.13736,10.20315 1.8933,18.40718 2.10558,23.11251 0.21924,4.86611 0.35206,15.88213 0.21777,17.42514 -0.24147,2.77494 1.17864,25.62607 1.98453,31.92189 0.23412,1.82887 0.63288,7.79686 0.87126,13.26247 0.23837,5.46569 0.79095,11.73874 1.23424,13.94012 0.44345,2.20142 0.98952,6.08428 1.21016,8.63997 0.49193,5.70135 2.18364,12.56748 3.50919,14.18213 4.00608,4.87958 6.22147,7.31058 10.28563,11.37474 2.55592,2.55569 5.07552,4.73957 5.59061,4.84032 0.51501,0.10076 2.78043,1.32648 5.03393,2.73474 5.88977,3.68058 7.49227,4.25615 15.63422,5.56637 11.06861,1.78108 20.23888,2.32203 23.52395,1.37953 1.58421,-0.45453 5.2967,-1.26739 8.25278,-1.79092 7.32281,-1.2969 19.79697,-6.70256 19.79681,-8.5916 0,-0.34758 0.34866,-0.65341 0.77446,-0.65341 0.42602,0 0.77445,0.64938 0.77445,1.42786 0,2.92045 4.03938,11.19197 8.66424,17.73979 2.63228,3.727 4.98437,6.9507 5.22754,7.1637 0.24318,0.213 1.31076,1.6967 2.37168,3.2914 1.06115,1.5944 2.2202,2.9042 2.56545,2.9042 0.34494,0 2.23437,1.2197 4.18683,2.7106 1.95247,1.4908 3.98324,2.7104 4.52574,2.7105 0.54204,0 1.09221,0.2614 1.23424,0.5809 0.14196,0.3194 3.30141,2.0946 7.01846,3.9206 5.87762,2.8873 7.69425,3.3856 13.94011,3.8965 8.54367,0.6986 16.79621,0.4168 21.10379,-0.7261 8.0556,-2.1373 17.39625,-7.1619 23.5481,-12.6816 2.85068,-2.5577 6.21373,-5.5351 7.47833,-6.607 1.26468,-1.0719 4.70804,-4.6546 7.6477,-7.9624 5.30081,-5.96465 5.35804,-5.99926 6.97006,-4.574 0.89387,0.7903 4.23539,2.7414 7.42985,4.3562 3.19461,1.615 6.67963,3.8986 7.7445,5.0581 1.32238,1.44 4.14587,2.7948 8.90619,4.2838 3.83353,1.199 7.27364,2.3582 7.6477,2.5652 1.31827,0.7297 7.90389,0.4715 13.26247,-0.5081 7.99194,-1.4611 11.8312,-2.827 22.72533,-8.1559 3.13187,-1.532 6.09415,-2.7989 6.58283,-2.8074 0.48868,-0.01 2.95065,-2.4478 5.46956,-5.42118 2.51882,-2.97335 5.04546,-5.42116 5.61476,-5.42116 0.581,0 1.04079,-0.82642 1.04063,-1.88772 8e-5,-1.0397 0.30041,-2.06601 0.67765,-2.29919 1.18723,-0.73372 11.07333,-20.80113 12.24608,-24.85499 1.96122,-6.78109 2.59061,-9.20869 3.29141,-12.77844 0.37615,-1.91677 0.84586,-4.18204 1.04063,-5.03394 1.58422,-6.92715 3.68073,-26.21655 3.48503,-32.1397 -0.19547,-5.91983 0.48605,-14.37048 1.5005,-18.49002 1.28032,-5.19912 2.70686,-12.88035 5.22754,-27.97703 2.56072,-15.33606 3.1538,-18.27766 5.83255,-29.42913 2.63336,-10.96134 5.36221,-25.0177 5.88102,-30.20358 0.19175,-1.91676 0.67571,-5.05329 1.06487,-6.97005 1.25174,-6.16455 1.56338,-8.53128 2.66217,-19.7485 0.20864,-2.12974 0.42518,-6.83453 0.4598,-10.45508 0.45816,-47.12092 -2.21191,-62.1925 -13.33504,-75.31534 -1.16454,-1.37395 -2.14213,-2.86547 -2.15398,-3.29141 -0.0351,-1.32501 -9.51823,-10.19782 -12.77844,-11.95559 -1.70379,-0.91865 -3.96906,-2.15189 -5.03393,-2.75898 -9.77542,-5.57279 -24.21312,-10.61024 -30.20358,-10.52769 -4.5114,0.0622 -13.58843,2.06914 -15.24692,3.36402 -1.31416,1.02607 -2.1213,0.32914 -4.50157,-3.87225 -3.66974,-6.47774 -12.165,-13.77341 -20.91017,-17.98178 -14.25617,-6.86039 -19.55999,-8.49805 -27.66237,-8.51896 -3.05258,-0.008 -5.22453,-0.48465 -6.97006,-1.5489 -1.39463,-0.85027 -3.14326,-1.5489 -3.87226,-1.5489 -1.83087,-0.004 -2.64141,-3.66575 -3.7512,-16.67489 -0.81147,-9.51065 -0.65983,-23.13653 0.33874,-30.20358 0.1806,-1.27785 0.57271,-4.58862 0.87126,-7.35728 0.81364,-7.54339 3.33262,-17.7647 5.08241,-20.59555 2.20416,-3.56658 10.4111,-10.94175 13.77066,-12.39122 3.75996,-1.62216 10.75798,-3.32994 13.79491,-3.36402 4.99226,-0.0566 12.23136,-8.3382 12.02822,-13.7465 -0.11763,-3.12684 -2.28246,-7.98652 -3.55767,-7.98652 -0.50029,0 -2.15336,-0.62607 -3.67864,-1.40369 -1.8332,-0.93457 -3.3536,-1.23199 -8.85778,-1.21008 z" style="fill:#3b3c3d"></path>
        <path id="path3069" d="m 821.3222,535.94553 c 1.80478,0.0225 2.83998,0.16961 2.37175,0.45983 -0.68508,0.42463 -2.77609,0.95424 -4.6467,1.18588 -8.49069,1.05147 -21.09697,8.71791 -25.43583,15.48901 -3.55984,5.55506 -7.01838,9.50619 -7.01854,8.01073 0,-2.27495 3.98959,-10.26028 7.52673,-15.07759 3.96109,-5.39475 6.36157,-7.40538 10.28564,-8.61577 2.3036,-0.71051 9.91088,-1.31743 14.88401,-1.42789 0.74595,-0.0166 1.43134,-0.0317 2.03294,-0.0242 z" style="fill:#57bb63"></path>
        <path id="path3067" d="m 786.35094,563.46273 c 0.0507,-0.0129 0.0953,0.0198 0.12097,0.0968 0.1614,0.48426 -0.27044,2.3601 -0.96806,4.18687 -0.6977,1.82678 -1.4157,4.51056 -1.59731,5.95359 -0.1816,1.44311 -0.70018,4.87904 -1.13743,7.6477 -0.43749,2.76866 -1.14867,11.13269 -1.59738,18.58682 -0.80396,13.36075 -0.65256,17.1489 1.52474,33.83382 0.45437,3.4817 0.77034,7.32727 0.67764,8.54316 -0.0926,1.21581 0.13963,2.71313 0.53243,3.33982 0.39281,0.62676 0.73961,2.18298 0.77446,3.46082 0.0349,1.27785 0.34145,3.95137 0.67764,5.92939 l 0.60508,3.60604 -4.21116,3.17041 c -4.7456,3.58299 -6.106,3.84077 -8.32534,1.6215 -0.85182,-0.85189 -2.37532,-1.5489 -3.38822,-1.5489 -2.33319,0 -7.45409,-2.08784 -7.45409,-3.0494 8e-5,-0.39977 1.57523,-1.80799 3.48503,-3.122 4.04774,-2.78485 7.78702,-6.57164 9.24508,-9.31761 1.64385,-3.09603 2.1285,-13.46515 1.16168,-25.16965 -0.49255,-5.96327 -1.06069,-12.78084 -1.25849,-15.1502 -0.41742,-4.99791 0.19741,-8.37595 3.89642,-21.63621 3.01014,-10.79067 6.47487,-20.78837 7.23631,-20.98278 z" style="fill:#57bb63"></path>
        <path id="path3065" d="m 758.90627,642.55351 c 2.02325,-0.002 3.67864,0.17317 3.67864,0.38723 0,0.66308 -5.9831,5.82491 -10.45509,9.02719 -3.16905,2.26937 -4.25948,3.52809 -4.25948,4.93712 0,1.04149 0.34866,1.88773 0.77446,1.88773 0.42594,0 0.78552,0.60988 0.79869,1.35529 0.0468,2.59557 7.20448,8.71257 10.1889,8.71257 0.47242,0 2.465,0.98037 4.42885,2.17814 4.21333,2.56971 14.13117,6.34082 16.67494,6.34082 1.56516,0 7.84216,-4.1209 7.26047,-4.76772 -0.94831,-1.05449 8.35028,-8.21099 12.29441,-9.46282 1.93597,-0.61445 3.01462,-5.15687 2.1539,-9.07559 l -0.53244,-2.46856 5.71158,0.55663 c 13.41178,1.28939 14.21024,1.50918 23.4997,6.002 5.49318,2.65667 9.20365,5.23424 12.02823,8.39795 2.48567,2.78415 6.17152,10.13818 6.17136,12.2944 0,1.64532 -3.07286,4.31389 -7.96228,6.89745 -4.85302,2.56444 -13.29848,10.3189 -16.40868,15.07759 -1.60497,2.45563 -3.21133,4.62618 -3.55759,4.84032 -0.34633,0.21406 -1.24919,-0.65023 -2.00877,-1.93613 -0.75958,-1.28597 -2.08637,-2.55112 -2.95259,-2.80738 -0.86623,-0.25619 -3.1411,-2.09687 -5.05817,-4.09007 -3.13173,-3.2568 -9.53884,-8.23547 -11.01169,-8.54316 -0.31396,-0.0655 -2.05647,-0.74909 -3.87225,-1.5247 -1.81578,-0.77561 -4.70944,-1.83467 -6.41346,-2.37175 -1.70379,-0.53716 -4.21216,-1.51185 -5.56629,-2.15395 -1.73686,-0.82355 -5.61469,-1.22707 -13.16566,-1.37949 -9.52567,-0.19229 -11.42152,-0.004 -17.28001,1.71832 -3.6204,1.06409 -7.27976,2.11007 -8.13173,2.32335 -0.85182,0.21321 -3.03461,1.05445 -4.84032,1.86352 -1.80555,0.80907 -3.59361,1.4521 -3.99322,1.4521 -0.3997,0 -1.46,0.92845 -2.34752,2.05713 -1.69558,2.15545 -4.91203,4.13847 -6.70388,4.13847 -0.58207,0 -1.28961,-0.95838 -1.57314,-2.12974 -0.28321,-1.17135 -1.1705,-3.05625 -1.96029,-4.18687 -0.78978,-1.13062 -1.42777,-2.27019 -1.42793,-2.54117 0,-0.66254 -3.28739,-5.31199 -4.25948,-6.02619 -0.42579,-0.31296 -0.45809,-0.5731 -0.0726,-0.58084 0.38544,-0.006 0.086,-0.70506 -0.67765,-1.5489 -1.06673,-1.17872 -1.18723,-1.77113 -0.50827,-2.58957 0.5044,-0.60771 0.68229,-2.08235 0.41146,-3.43663 -1.21712,-6.08548 10.06306,-20.09057 14.73881,-18.2964 0.66061,0.25356 2.8602,-0.51683 4.88864,-1.71831 8.62994,-5.11168 17.55982,-8.80938 21.2974,-8.80938 z" style="fill:#e5b731"></path>
        <path id="path3063" d="m 701.81477,647.29702 c 0.94978,-0.012 1.94449,0.0343 3.0978,0.12101 3.64875,0.27424 6.40238,0.9568 8.34958,2.10554 l 2.92836,1.71831 -2.9526,2.54117 c -1.61356,1.38983 -3.97386,4.29119 -5.25178,6.46182 -2.33334,3.96372 -3.13893,4.35408 -6.97006,3.41243 -0.85189,-0.20941 -1.89725,-0.63939 -2.32335,-0.96807 -1.15896,-0.89441 -9.25956,-3.122 -11.37467,-3.122 -1.01569,0 -3.68019,-0.63579 -5.92942,-1.42789 -3.8577,-1.35855 -4.0321,-1.51026 -2.78315,-2.75899 2.51232,-2.51247 4.75668,-3.5438 12.8026,-5.95359 5.12826,-1.5362 7.55733,-2.0936 10.40669,-2.12974 z" style="fill:#e5b731"></path>
        <path id="path3061" d="m 667.59372,666.90031 c 2.53602,0.0133 5.27138,0.31389 8.44632,0.84705 4.33444,0.72783 8.42176,1.59193 9.07563,1.91193 0.65395,0.32 4.2745,2.06968 8.03493,3.89646 3.76034,1.82677 7.32173,4.04929 7.93812,4.93712 3.16285,4.55524 7.82489,11.8927 8.61576,13.60129 0.49286,1.06487 1.86503,4.2014 3.0494,6.97006 1.18437,2.76866 2.50984,5.30746 2.9526,5.61476 0.87969,0.61066 0.94374,0.46529 -3.65448,6.48603 -3.84593,5.03571 -5.60261,8.75307 -9.68064,20.37774 -4.29231,12.23539 -5.68811,16.85491 -5.97775,19.79689 -0.12577,1.27785 -0.67424,5.80838 -1.21008,10.06786 -0.53584,4.25948 -1.06278,9.83553 -1.16168,12.39121 -0.0989,2.55569 -0.57131,8.82874 -1.06487,13.94012 -0.49355,5.11137 -0.84771,15.91496 -0.79861,24.00797 0.17054,28.15833 0.68136,62.00795 1.06487,70.08779 0.21212,4.47246 0.42432,13.88203 0.48403,20.91017 0.0593,7.02814 0.61267,16.61197 1.23424,21.2974 0.92516,6.97339 0.96652,9.89717 0.21786,16.11826 -0.57186,4.75071 -0.7008,11.05475 -0.36306,16.7959 0.46769,7.9492 0.35709,9.37543 -0.75029,10.6003 -0.70359,0.7784 -2.31135,3.059 -3.58184,5.05809 -2.34798,3.69514 -7.95647,8.04198 -11.49571,8.90619 -1.07355,0.26207 -2.16235,0.79358 -2.42016,1.18591 -1.08958,1.65779 -25.93194,1.20482 -30.51824,-0.55667 -8.11733,-3.11779 -13.55002,-6.45304 -18.03014,-11.06009 -6.10879,-6.2818 -7.52131,-9.06797 -9.00299,-17.6914 -1.0634,-6.18914 -1.60815,-11.09819 -3.24301,-29.35649 -0.26696,-2.98164 -0.64458,-5.65341 -0.82286,-5.95359 -0.1782,-0.30025 -0.48364,-10.58109 -0.67764,-22.8463 -0.44508,-28.14958 -0.936,-38.81671 -2.32336,-49.03241 -0.89859,-6.61691 -1.33182,-15.57087 -1.16167,-24.00797 0.0128,-0.63893 -0.12337,-9.52575 -0.29042,-19.7485 -0.22374,-13.69422 -0.63002,-20.01382 -1.57306,-24.00797 -0.8234,-3.48666 -1.52869,-11.54087 -1.96037,-22.60428 -0.36926,-9.46116 -0.89488,-17.5743 -1.16168,-18.00598 -0.64876,-1.05326 -0.628,-12.48299 0.0242,-14.18213 0.28446,-0.74131 1.00408,-1.35529 1.59723,-1.35529 0.59346,0 1.06487,-0.3485 1.06487,-0.77445 0,-0.42595 0.46661,-0.77445 1.04071,-0.77445 0.63853,0 1.07145,-0.93716 1.11327,-2.42016 0.038,-1.33345 0.82239,-4.38285 1.74251,-6.77644 6.04986,-15.73731 9.85001,-21.85071 16.40868,-26.45234 2.10658,-1.47796 5.68044,-4.16751 7.96228,-5.97779 2.28215,-1.81028 4.70518,-3.29142 5.37283,-3.29142 0.66766,0 1.21016,-0.3485 1.21,-0.77445 0,-0.42594 0.34882,-0.77445 0.77445,-0.77445 0.42572,0 3.64937,-1.38665 7.16367,-3.0978 6.15286,-2.99569 10.75681,-4.31292 16.33611,-4.28368 z" style="fill:#fcd116"></path>
        <path id="path3059" d="m 881.10011,681.27605 c 3.46466,-0.004 11.90362,2.14325 12.24601,3.12201 0.14203,0.40573 0.70157,0.72604 1.25848,0.72604 1.51723,0 6.56556,2.40947 11.30218,5.37276 4.2704,2.6717 13.16752,12.67322 15.8036,17.78816 4.78688,9.28807 5.97682,18.76018 6.05039,47.70133 0.0522,20.49971 -0.14745,24.55489 -1.69411,34.46306 -0.96411,6.17624 -2.22322,14.36606 -2.80738,18.19959 -0.58417,3.83353 -1.61063,9.23532 -2.27495,12.00398 -0.66425,2.76867 -1.70209,8.17046 -2.32335,12.00399 -1.08695,6.70682 -2.82745,14.48231 -4.30789,19.36127 -0.38776,1.27784 -1.07617,5.80838 -1.5489,10.06786 -0.81263,7.32251 -4.96492,30.08451 -5.71157,31.29265 -0.319,0.51625 -1.28714,12.56798 -2.396,29.93736 -0.59695,9.35111 -1.02886,14.0353 -1.62147,17.76397 -0.76632,4.82111 -3.32254,14.46396 -4.0901,15.41638 -0.38018,0.47195 -0.93159,2.76386 -1.23424,5.10657 -0.79211,6.13117 -2.63964,10.04478 -10.38252,22.07185 -4.66351,7.24398 -7.05208,9.48965 -13.48025,12.65739 -3.50083,1.72516 -7.93301,3.50423 -9.85008,3.94493 -6.13311,1.4099 -13.87924,0.5463 -17.11049,-1.912 -0.59261,-0.45089 -3.35414,-1.99715 -6.12304,-3.43663 -8.96209,-4.65956 -10.41798,-5.5233 -12.77843,-7.42984 l -2.32336,-1.86356 0.19362,-11.42315 c 0.0993,-6.28521 0.559,-13.33357 1.0407,-15.65839 0.79862,-3.85398 0.49922,-15.76581 -0.55667,-21.58782 -0.19803,-1.09229 -0.0173,-3.5758 0.41146,-5.51796 0.42874,-1.94217 0.94391,-7.19272 1.16168,-11.66517 0.21778,-4.47245 0.63126,-9.17724 0.8955,-10.45508 0.58208,-2.81862 1.93767,-21.51146 2.22654,-30.59081 0.83037,-26.0945 1.54697,-54.81996 1.50043,-60.01993 -0.22103,-24.582 -0.49356,-37.19958 -1.06487,-47.62872 -0.3616,-6.6022 -0.85322,-18.38767 -1.08904,-26.21032 -0.31512,-10.45416 -0.73449,-14.84858 -1.5973,-16.57809 -1.45496,-2.91658 -1.53582,-6.00199 -0.14521,-6.00199 1.48005,0 3.30017,-2.30868 3.9449,-5.00973 0.76136,-3.19105 6.61009,-11.19139 11.06008,-15.12599 4.73399,-4.1856 14.57013,-10.63061 21.51517,-14.10952 2.98172,-1.49353 7.16367,-3.62536 9.29341,-4.74352 2.12974,-1.11815 5.0993,-2.03293 6.60707,-2.03293 z" style="fill:#e5b731"></path>
        <path id="path3043" d="m 768.12711,694.41751 c 5.42921,0 10.68672,0.34963 11.66517,0.75025 0.97844,0.40062 4.54114,1.50089 7.93812,2.46856 5.80706,1.65439 6.61342,2.15716 13.26246,8.37375 7.31825,6.84227 11.15705,12.54672 11.1569,16.55389 0,1.19668 0.87125,4.76597 1.93612,7.93812 2.0753,6.18244 2.40645,12.25711 1.25849,23.54814 -0.32682,3.19461 -0.32148,7.02814 0,8.51896 1.15478,5.35207 1.96633,37.26754 0.9923,38.84354 -0.27052,0.43772 -0.0645,4.78669 0.45979,9.65644 0.72752,6.75297 0.7664,11.82954 0.12105,21.4184 -0.46545,6.91484 -1.05759,20.92469 -1.30689,31.14744 -0.66184,27.14047 -1.16508,40.08034 -1.5973,40.77967 -0.57557,0.93128 -2.59674,19.84879 -2.61377,24.44361 -0.008,2.21105 -0.3657,4.23392 -0.79869,4.50149 -0.43269,0.2675 -0.61747,0.78917 -0.38723,1.16168 0.55319,0.89487 1.5472,11.72824 1.52474,16.62649 -0.0204,4.54626 -0.98774,16.03106 -1.64571,19.36127 -0.37584,1.90252 -6.26407,14.08037 -8.54312,17.66716 -0.32829,0.51648 -0.59733,1.12528 -0.60508,1.35529 -0.0573,2.02263 -22.1925,24.73404 -24.10478,24.73404 -0.56814,0 -3.05598,1.0319 -5.51796,2.2749 -2.4619,1.2431 -6.54814,2.637 -9.07556,3.0978 -7.54493,1.3753 -12.70734,0.6356 -17.23153,-2.4685 -1.61449,-1.1079 -3.9981,-2.2708 -5.27602,-2.5655 -1.27776,-0.2944 -3.54296,-1.254 -5.03393,-2.1296 -3.66129,-2.1504 -13.04833,-12.1204 -15.65839,-16.62657 -5.88675,-10.16342 -6.11645,-10.85369 -8.90618,-26.88792 -0.37065,-2.12974 -0.57038,-10.66806 -0.43563,-18.97404 0.3602,-22.21467 0.35633,-22.57688 -0.0968,-25.94411 -1.02243,-7.5979 -1.73369,-18.27526 -1.57307,-23.57234 0.096,-3.17185 -0.11934,-9.27064 -0.48403,-13.55289 -0.36469,-4.28233 -0.81542,-19.18644 -1.01654,-33.13197 -0.20105,-13.94562 -0.59989,-25.72296 -0.87126,-26.16192 -0.50657,-0.81983 -0.56992,-34.47251 -0.0726,-37.94809 0.15241,-1.06487 0.49116,-5.07265 0.77445,-8.90618 1.73942,-23.53649 3.70072,-34.19889 9.22085,-50.3393 2.35959,-6.89935 3.86675,-9.89144 7.47825,-14.71456 6.23518,-8.32705 14.65671,-15.06752 18.78043,-15.07759 0.72426,-0.002 1.59552,-0.51331 1.93613,-1.11327 0.34068,-0.59997 3.73579,-1.99398 7.55089,-3.09781 5.84749,-1.69178 8.4745,-2.00873 16.7959,-2.00873 z" style="fill:#fcd116"></path>
      </g>
    </g>
  </g>
</svg>
