<svg xmlns="http://www.w3.org/2000/svg" xmlns:xlink="http://www.w3.org/1999/xlink" id="blueberry" width="512" height="512" version="1.1">
  <defs id="defs6332">
    <clipPath id="clipPath6036" clipPathUnits="userSpaceOnUse">
      <rect id="rect6038" width="565.122" height="565.122" x="2455.997" y="-966.375" ry="45.206" style="fill:#4bb7c0;fill-opacity:1;stroke:none" transform="rotate(45.776)"></rect>
    </clipPath>
    <clipPath id="clipPath6032" clipPathUnits="userSpaceOnUse">
      <rect id="rect6034" width="500" height="500" x="2488.537" y="-957.623" ry="39.997" style="fill:#4bb7c0;fill-opacity:1;stroke:none" transform="rotate(45.715)"></rect>
    </clipPath>
    <clipPath id="clipPath6028" clipPathUnits="userSpaceOnUse">
      <rect id="rect6030" width="500" height="500" x="2488.537" y="-957.623" ry="39.997" style="fill:#4bb7c0;fill-opacity:1;stroke:none" transform="rotate(45.715)"></rect>
    </clipPath>
    <clipPath id="clipPath6024" clipPathUnits="userSpaceOnUse">
      <rect id="rect6026" width="500" height="500" x="2488.537" y="-957.623" ry="39.997" style="fill:#4bb7c0;fill-opacity:1;stroke:none" transform="rotate(45.715)"></rect>
    </clipPath>
    <clipPath id="clipPath6020" clipPathUnits="userSpaceOnUse">
      <rect id="rect6022" width="566.751" height="566.751" x="217.152" y="577.214" ry="45.337" style="fill:#4bb7c0;fill-opacity:1;stroke:none" transform="rotate(45.715)"></rect>
    </clipPath>
    <clipPath id="clipPath6016" clipPathUnits="userSpaceOnUse">
      <rect id="rect6018" width="806.322" height="806.322" x="261.48" y="320.292" ry="64.501" style="fill:#4bb7c0;fill-opacity:1;stroke:none" transform="rotate(45.715)"></rect>
    </clipPath>
    <clipPath id="clipPath4233" clipPathUnits="userSpaceOnUse">
      <rect id="rect4235" width="268.864" height="268.875" x="-1025.592" y="849.091" ry="21.508" style="fill:#e74c3c;fill-opacity:1;stroke:none" transform="rotate(58.392)skewX(-.091)"></rect>
    </clipPath>
    <clipPath id="clipPath4229" clipPathUnits="userSpaceOnUse">
      <rect id="rect4231" width="268.864" height="268.875" x="-1061.605" y="907.043" ry="21.508" style="fill:#e74c3c;fill-opacity:1;stroke:none" transform="rotate(58.392)skewX(-.091)"></rect>
    </clipPath>
    <clipPath id="clipPath4225" clipPathUnits="userSpaceOnUse">
      <rect id="rect4227" width="479.327" height="525.865" x="-912.496" y="922.648" ry="42.066" style="fill:#e74c3c;fill-opacity:1;stroke:none" transform="matrix(.89784 -.44032 .49565 .86852 0 0)"></rect>
    </clipPath>
    <clipPath id="clipPath4221" clipPathUnits="userSpaceOnUse">
      <rect id="rect4223" width="500.153" height="499.848" x="-952.142" y="876.999" ry="39.985" style="fill:#e74c3c;fill-opacity:1;stroke:none" transform="rotate(58.429)skewX(-.018)"></rect>
    </clipPath>
    <clipPath id="clipPath4217" clipPathUnits="userSpaceOnUse">
      <rect id="rect4219" width="478.403" height="526.714" x="-910.738" y="924.137" ry="42.134" style="fill:#e74c3c;fill-opacity:1;stroke:none" transform="matrix(.88345 -.46852 .51827 .85522 0 0)"></rect>
    </clipPath>
    <clipPath id="clipPath4213" clipPathUnits="userSpaceOnUse">
      <rect id="rect4215" width="488.663" height="512.621" x="-930.27" y="899.411" ry="41.006" style="fill:#e74c3c;fill-opacity:1;stroke:none" transform="matrix(.87899 -.47684 .50226 .86472 0 0)"></rect>
    </clipPath>
    <clipPath id="clipPath4209" clipPathUnits="userSpaceOnUse">
      <rect id="rect4211" width="491.296" height="509.43" x="-935.281" y="893.813" ry="40.751" style="fill:#e74c3c;fill-opacity:1;stroke:none" transform="matrix(.87484 -.48441 .5032 .86417 0 0)"></rect>
    </clipPath>
    <clipPath id="clipPath4205" clipPathUnits="userSpaceOnUse">
      <rect id="rect4207" width="493.6" height="506.78" x="-939.668" y="889.162" ry="40.539" style="fill:#e74c3c;fill-opacity:1;stroke:none" transform="matrix(.87169 -.49007 .5035 .864 0 0)"></rect>
    </clipPath>
    <clipPath id="clipPath4201" clipPathUnits="userSpaceOnUse">
      <rect id="rect4203" width="255.251" height="255.261" x="-1362.528" y="-940.764" ry="20.419" style="fill:#e74c3c;fill-opacity:1;stroke:none" transform="rotate(-16.903)skewX(-.091)"></rect>
    </clipPath>
    <clipPath id="clipPath4197" clipPathUnits="userSpaceOnUse">
      <rect id="rect4199" width="255.251" height="255.261" x="768.854" y="-1027.93" ry="20.419" style="fill:#e74c3c;fill-opacity:1;stroke:none" transform="matrix(-.5241 .85166 .85249 .52274 0 0)"></rect>
    </clipPath>
    <clipPath id="clipPath4193" clipPathUnits="userSpaceOnUse">
      <rect id="rect4195" width="255.251" height="255.261" x="-631.78" y="1085.067" ry="20.419" style="fill:#e74c3c;fill-opacity:1;stroke:none" transform="rotate(58.392)skewX(-.091)"></rect>
    </clipPath>
    <clipPath id="clipPath4189" clipPathUnits="userSpaceOnUse">
      <rect id="rect4191" width="326.448" height="306.207" x="-726.835" y="1114.453" ry="24.495" style="fill:#e74c3c;fill-opacity:1;stroke:none" transform="matrix(.47084 .88222 -.81652 .57732 0 0)"></rect>
    </clipPath>
    <clipPath id="clipPath4185" clipPathUnits="userSpaceOnUse">
      <rect id="rect4187" width="197.549" height="243.216" x="941.115" y="-1122.924" ry="19.456" style="fill:#e74c3c;fill-opacity:1;stroke:none" transform="matrix(-.72847 -.68507 .93279 -.36043 0 0)"></rect>
    </clipPath>
    <clipPath id="clipPath4181" clipPathUnits="userSpaceOnUse">
      <rect id="rect4183" width="738.249" height="612.462" x="-1963.396" y="1406.331" ry="48.993" style="fill:#e74c3c;fill-opacity:1;stroke:none" transform="matrix(.3705 .92883 -.72644 .68723 0 0)"></rect>
    </clipPath>
    <clipPath id="clipPath4177" clipPathUnits="userSpaceOnUse">
      <rect id="rect4179" width="738.249" height="612.462" x="-2053.504" y="1528.117" ry="48.993" style="fill:#e74c3c;fill-opacity:1;stroke:none" transform="matrix(.3705 .92883 -.72644 .68723 0 0)"></rect>
    </clipPath>
    <clipPath id="clipPath4849-5" clipPathUnits="userSpaceOnUse">
      <rect id="rect4851-2" width="894.649" height="894.649" x="3656.212" y="248.692" ry="56.041" style="fill:url(#radialGradient4853);fill-opacity:1;stroke:none" transform="rotate(-2.917)"></rect>
    </clipPath>
    <clipPath id="clipPath4843-6" clipPathUnits="userSpaceOnUse">
      <rect id="rect4845-7" width="642.516" height="642.516" x="-4295.454" y="2284.533" ry="40.247" style="fill:url(#radialGradient4847);fill-opacity:1;stroke:none" transform="rotate(-148.28)"></rect>
    </clipPath>
    <clipPath id="clipPath4418-1-2" clipPathUnits="userSpaceOnUse">
      <rect id="rect4420-7-5" width="242.437" height="395.98" x="1637.457" y="3657.43" style="fill:#ca4638;fill-opacity:1;stroke:none" transform="rotate(-55.067)"></rect>
    </clipPath>
    <clipPath id="clipPath5614" clipPathUnits="userSpaceOnUse">
      <rect id="rect5616" width="730.557" height="730.557" x="-1439.591" y="-530.113" ry="58.44" style="fill:#e16b5a;fill-opacity:1;stroke:none" transform="rotate(59.042)"></rect>
    </clipPath>
    <clipPath id="clipPath9068" clipPathUnits="userSpaceOnUse"></clipPath>
    <clipPath id="clipPath5614-5" clipPathUnits="userSpaceOnUse">
      <rect id="rect5616-7" width="730.557" height="730.557" x="-1439.591" y="-530.113" ry="58.44" style="fill:#e16b5a;fill-opacity:1;stroke:none" transform="rotate(59.042)"></rect>
    </clipPath>
    <clipPath id="clipPath36314" clipPathUnits="userSpaceOnUse">
      <path id="path36316" d="m -26.069721,50.047192 a 38.553814,38.553814 0 1 1 -77.107629,0 38.553814,38.553814 0 1 1 77.107629,0 z" style="fill:#e74c3c;fill-opacity:1;stroke:none" transform="translate(66.181 148.444)"></path>
    </clipPath>
    <clipPath id="clipPath6000-9-7-8" clipPathUnits="userSpaceOnUse">
      <rect id="rect6002-1-6-6" width="87.488" height="335.281" x="363.389" y="757.52" ry="39.98" style="fill:#fff;fill-opacity:1;stroke:#fff;stroke-width:1.65813947;stroke-miterlimit:4;stroke-opacity:1;stroke-dasharray:none" transform="matrix(.8933 -.44945 .19412 .98098 0 0)"></rect>
    </clipPath>
    <clipPath id="clipPath6000-9-9-5-7" clipPathUnits="userSpaceOnUse">
      <rect id="rect6002-1-8-1-0" width="87.488" height="335.281" x="363.389" y="757.52" ry="39.98" style="fill:#fff;fill-opacity:1;stroke:#fff;stroke-width:1.65813947;stroke-miterlimit:4;stroke-opacity:1;stroke-dasharray:none" transform="matrix(.8933 -.44945 .19412 .98098 0 0)"></rect>
    </clipPath>
    <clipPath id="clipPath18890-8-6-4" clipPathUnits="userSpaceOnUse">
      <rect id="rect18892-7-9-7" width="384.027" height="380.956" x="4054.243" y="2822.137" ry="30.474" style="fill:#e65a2e;fill-opacity:1;stroke:none" transform="matrix(-.57277 -.81972 .59198 -.80595 0 0)"></rect>
    </clipPath>
    <clipPath id="clipPath18890-8-2-2-8" clipPathUnits="userSpaceOnUse">
      <rect id="rect18892-7-6-4-2" width="384.027" height="380.956" x="4054.243" y="2822.137" ry="30.474" style="fill:#e65a2e;fill-opacity:1;stroke:none" transform="matrix(-.57277 -.81972 .59198 -.80595 0 0)"></rect>
    </clipPath>
    <clipPath id="clipPath18890-8-2-3-3-8" clipPathUnits="userSpaceOnUse">
      <rect id="rect18892-7-6-9-06-0" width="384.027" height="380.956" x="4054.243" y="2822.137" ry="30.474" style="fill:#e65a2e;fill-opacity:1;stroke:none" transform="matrix(-.57277 -.81972 .59198 -.80595 0 0)"></rect>
    </clipPath>
    <clipPath id="clipPath18890-8-2-3-5-3-9" clipPathUnits="userSpaceOnUse">
      <rect id="rect18892-7-6-9-0-8-3" width="384.027" height="380.956" x="4054.243" y="2822.137" ry="30.474" style="fill:#e65a2e;fill-opacity:1;stroke:none" transform="matrix(-.57277 -.81972 .59198 -.80595 0 0)"></rect>
    </clipPath>
    <clipPath id="clipPath3567" clipPathUnits="userSpaceOnUse">
      <path id="path3569" d="m -234.28571,83.428574 a 405.71429,405.71429 0 1 1 -811.42859,0 405.71429,405.71429 0 1 1 811.42859,0 z" style="fill:#34495e;fill-opacity:1;stroke:none" transform="matrix(.59155 0 0 .59155 634.592 206.648)"></path>
    </clipPath>
    <clipPath id="clipPath4167" clipPathUnits="userSpaceOnUse">
      <path id="path4169" d="m -234.28571,83.428574 a 405.71429,405.71429 0 1 1 -811.42859,0 405.71429,405.71429 0 1 1 811.42859,0 z" style="fill:#34495e;fill-opacity:1;stroke:none" transform="matrix(.59155 0 0 .59155 634.592 206.648)"></path>
    </clipPath>
    <radialGradient xlink:href="#linearGradient4030-6" id="radialGradient5569" cx="-667.376" cy="1.417" r="239.184" fx="-667.376" fy="1.417" gradientTransform="translate(1966.324 1863.219)" gradientUnits="userSpaceOnUse"></radialGradient>
    <radialGradient xlink:href="#linearGradient4030-6" id="radialGradient3064" cx="-667.376" cy="1.417" r="239.184" fx="-667.376" fy="1.417" gradientTransform="translate(665.108 459.426)" gradientUnits="userSpaceOnUse"></radialGradient>
    <radialGradient xlink:href="#linearGradient4030-6" id="radialGradient3105" cx="-667.376" cy="1.417" r="239.184" fx="-667.376" fy="1.417" gradientTransform="translate(-71.736 -202.386)" gradientUnits="userSpaceOnUse"></radialGradient>
    <linearGradient id="linearGradient4030-6">
      <stop id="stop4032-5" offset="0" style="stop-color:#f2cf89;stop-opacity:1"></stop>
      <stop id="stop4034-4" offset="1" style="stop-color:#f2cf62;stop-opacity:1"></stop>
    </linearGradient>
  </defs>
  <g id="layer1" transform="translate(0 -540.362)">
    <g id="g3640" transform="matrix(1.0627 0 0 1.0627 1183.719 -163.883)">
      <g id="g3630" transform="scale(1.07903)rotate(-21.876 -1504.532 568.832)">
        <path id="path3632" d="m -946.54909,873.96932 c -2.4089,0.008 -5.0934,0.0341 -8.125,0.0625 -21.3799,0.2004 -24.7097,0.45255 -30.5,2.34375 -3.5752,1.1676 -9.2002,2.8961 -12.5,3.8125 -3.30011,0.9164 -6.76371,2.0582 -7.71881,2.5625 -0.955,0.5043 -2.6253,0.9375 -3.6875,0.9375 -1.0623,0 -4.1686,1.125 -6.9063,2.5 -2.7373,1.375 -5.5673,2.5 -6.3124,2.5 -0.7453,0.002 -2.8244,0.9021 -4.625,2 -1.8008,1.098 -3.9383,2 -4.75,2 -0.8118,0 -1.5,0.3342 -1.5,0.75 0,0.4157 -1.4628,1.35565 -3.25,2.09375 -4.4276,1.8281 -14.9087,7.16055 -16.75,8.53125 -0.8252,0.6141 -3.2193,2.0016 -5.3126,3.0625 -2.0931,1.061 -5.6931,3.94775 -8,6.40625 -2.3067,2.4585 -5.2,5.53045 -6.4374,6.84375 -1.2376,1.3134 -2.25,2.61955 -2.25,2.90625 0,0.7043 -5.1884,7.65575 -6.6563,8.90625 -1.9078,1.6253 -5.6149,8.2345 -8.4063,15 -3.563,8.6364 -7.7857,25.989 -8.5,34.9375 -0.5818,7.294 1.7607,22.67063 6.0626,39.56253 0.9103,3.575 1.9047,7.625 2.1874,9 0.283,1.375 1.6359,6.325 3,11 7.0065,24.007 12.5006,31.7508 35.8126,50.3125 3.0569,2.4341 10.0554,6.5594 16.6874,9.8437 2.0276,1.004 3.9702,2.2585 4.3126,2.8125 0.3422,0.5541 1.4107,1.0313 2.375,1.0313 0.9643,0 3.5431,0.8551 5.7187,1.9062 8.4492,4.0822 26.73551,9.0591 39.40631,10.7188 1.9248,0.2522 7.7749,1.1439 13,2 5.2248,0.8562 14.4498,1.8613 20.5,2.2187 23.1538,1.3681 44.4564,-1.2745 61.5,-7.625 10.5274,-3.9227 32.9552,-17.304 33.0312,-19.7187 0.0174,-0.55 2.4891,-3.925 5.5,-7.5 6.0246,-7.1533 14.0756,-21.3674 19,-33.5 1.5184,-3.741 7.2632,-22.0758 8.0625,-25.7188 1.9235,-8.7675 2.7877,-29.21373 1.625,-38.78123 -1.0497,-8.6372 -4.7826,-24.19615 -6.8125,-28.34375 -0.7621,-1.5571 -1.4062,-3.4173 -1.4062,-4.125 0,-1.5701 -8.656,-18.7207 -9.8438,-19.5 -0.467,-0.3064 -1.61,-2.1627 -2.5312,-4.125 -0.9216,-1.9622 -6.2015,-8.2622 -11.75,-14 -5.549,-5.7377 -10.5398,-10.85625 -11.0626,-11.40625 -5.3649,-5.6445 -23.1006,-19.352 -28.8124,-22.25 -1.9251,-0.9767 -3.6323,-2.0972 -3.8126,-2.5 -0.2935,-0.6571 -7.1694,-3.0086 -9.6874,-3.3125 -0.5501,-0.0664 -4.1503,-1.03255 -8,-2.15625 -11.8163,-3.45179 -15.0134,-4.05675 -31.875,-4 z" style="fill:#3b3c3d"></path>
        <path id="path3634" d="m -959.89289,890.21932 c 9.427,0.0483 19.9571,0.78313 24.2188,1.9375 3.2997,0.8939 7.7918,2.0712 9.9687,2.625 4.141,1.0535 9.5691,3.20645 13.1563,5.21875 5.9321,3.3279 16.375,10.80635 16.375,11.71875 0,0.7124 0.6314,0.70115 2,-0.0312 1.0998,-0.5887 2,-1.72555 2,-2.53125 -2e-4,-3.1459 4.0212,-1.17345 11.5937,5.71875 4.3502,3.9593 8.661,8.1218 9.5625,9.25 0.9015,1.1281 3.9515,4.5107 6.7812,7.5 2.83,2.9893 5.6751,6.4466 6.3438,7.6875 0.6687,1.2409 2.8345,4.6427 4.8125,7.5625 5.9262,8.7477 13.0777,32.31085 14.4063,47.53125 1.0124,11.60113 -1.1284,25.98513 -6.125,41.40633 -2.4307,7.5008 -5.439,15.1507 -6.6876,17 -1.2483,1.8492 -3.7949,6.4416 -5.6874,10.2186 -1.8928,3.7771 -6.4939,10.4155 -10.2188,14.7189 -6.0793,7.0236 -7.7812,8.2813 -16.5312,12.5 -5.3615,2.5848 -10.6503,5.0521 -11.75,5.4686 -6.0076,2.2753 -8.7668,3.1226 -16.5,5.0625 -6.741,1.691 -12.1218,2.1945 -26,2.4064 -9.625,0.147 -19.9751,-0.1285 -23,-0.5939 -3.0253,-0.4652 -12.7002,-1.788 -21.5,-2.9375 -9.6393,-1.2591 -18.71011,-3.0561 -22.81261,-4.5311 -3.7451,-1.3468 -7.5702,-2.4689 -8.5,-2.4689 -2.8274,-0.014 -26.7413,-12.3705 -30.8437,-15.9375 -1.3007,-1.131 -2.8317,-2.0311 -3.4375,-2.0311 -0.6058,0 -2.0725,-0.9016 -3.25,-2 -1.1775,-1.0984 -3.5345,-3.2358 -5.2188,-4.75 -3.7907,-3.4077 -7.4374,-8.5696 -7.4374,-10.5314 0,-0.8103 -0.6477,-2.0373 -1.4688,-2.7186 -0.821,-0.6815 -1.9763,-3.1016 -2.5625,-5.375 -0.5862,-2.2734 -1.7511,-5.5714 -2.5625,-7.3439 -1.8286,-3.9946 -4.7493,-15.0787 -8.1562,-30.7812 -5.4982,-25.34038 -2.048,-47.36973 10.4687,-66.71873 5.0683,-7.8348 20.0624,-23.4654 24.7813,-25.8125 1.6497,-0.8207 3.2245,-1.69285 3.5,-1.96875 0.2752,-0.2759 2.0753,-1.3486 4,-2.375 1.9245,-1.0265 6.8418,-3.6363 10.9062,-5.8125 8.2053,-4.3933 42.79841,-16.28055 51.21881,-17.59375 3.2462,-0.50629 8.5,-0.71649 14.1562,-0.6875 z" style="fill:#7fa4ca;fill-opacity:1"></path>
        <path id="path3636" d="m -933.54909,902.93807 -9.9688,3.46875 c -5.4825,1.905 -10.6871,3.8337 -11.5625,4.3125 -4.8072,2.6296 -13.035,5.9645 -14.6875,5.9375 -1.047,-0.0172 -4.1562,-1.1473 -6.9062,-2.5 -2.7502,-1.3528 -5.6652,-2.45875 -6.5,-2.46875 -0.8351,-0.005 -3.2583,-1.1867 -5.375,-2.625 -2.1169,-1.4384 -5.2454,-2.676 -6.9688,-2.75 -2.5935,-0.1116 -3.2193,0.2643 -3.5,2.25 -0.1865,1.3196 0.1515,3.3446 0.75,4.5 0.5985,1.1555 2.0084,4.79825 3.125,8.09375 1.9115,5.6417 1.9324,6.0655 0.3125,7.25 -0.9463,0.692 -4.0554,1.28125 -6.90631,1.28125 -2.8505,0 -7.0992,0.675 -9.4374,1.5 -2.3383,0.825 -5.4354,1.5 -6.9063,1.5 -3.6313,0 -5.0937,1.6879 -5.0937,6 0,5.6497 4.4457,8.90965 17,12.46875 3.5749,1.0135 6.85581,2.1402 7.28121,2.5 0.4253,0.3599 -0.3756,4.99925 -1.78121,10.28125 -2.2435,8.4281 -2.4193,10.1642 -1.4063,14.1875 0.8827,3.5053 1.7128,4.69985 3.53131,5.15625 1.308,0.3283 2.375,1.0096 2.375,1.5 0,1.8231 4.929,0.8095 6.6874,-1.375 2.7994,-3.4776 11.3551,-10.11955 15.8126,-12.28125 2.1999,-1.067 4.3459,-2.3875 4.75,-2.9375 0.4897,-0.6667 0.7379,-0.6667 0.75,0 0.01,0.55 2.251,2.53265 5,4.40625 2.7489,1.8736 5,3.68055 5,4.03125 0,1.5926 8.0623,9.0625 9.7812,9.0625 1.993,0 5.4372,-3.0895 5.1562,-4.625 -0.8584,-4.6919 1.487,-6.97185 4.0313,-3.90625 0.6701,0.8074 1.5152,1.38025 1.875,1.28125 0.3597,-0.0993 1.7016,0.39165 2.9687,1.09375 1.2673,0.7021 4.3248,1.8857 6.7813,2.625 5.1628,1.5538 6.6003,0.69875 9.125,-5.34375 1.4313,-3.4255 1.4187,-3.45815 -2.5,-7.03125 -2.168,-1.9768 -4.553,-5.05625 -5.3125,-6.84375 -0.7595,-1.7875 -1.6378,-3.25 -1.9375,-3.25 -0.2996,0 -0.572,-1.6455 -0.625,-3.625 -0.086,-3.2268 0.2726,-3.7535 3.5313,-5.125 1.999,-0.8414 5.6514,-2.0084 8.125,-2.625 4.2001,-1.047 4.5513,-1.4016 5.375,-5.3125 0.8175,-3.8826 0.6692,-4.3689 -2,-6.6875 -2.0173,-1.752 -4.9703,-2.86195 -9.875,-3.65625 -7.4649,-1.2089 -13.5,-2.8241 -13.5,-3.625 -2e-4,-1.4038 2.8339,-5.4348 7.1562,-10.1875 6.3715,-7.006 6.5158,-9.9771 0.6562,-13.4375 l -4.1874,-2.46875 z" style="fill:#3b3c3d"></path>
        <path id="path3638" d="m -980.20539,926.03182 c 0.761,-0.0171 1.801,0.38646 3.2187,1.09375 1.7275,0.8618 3.5967,1.5625 4.1563,1.5625 0.5597,0 1.8235,0.7299 2.8125,1.625 2.4854,2.2487 9.2007,2.2848 11.6562,0.0625 1.8731,-1.6951 1.9589,-1.7133 2.5313,0 1.5182,4.544 4.4728,7.5994 9.5,9.8125 2.6021,1.1455 3.1739,1.87365 2.6875,3.40625 -0.3417,1.0767 -0.1861,2.78435 0.3438,3.78125 1.8467,3.4741 4.125,9.0965 4.125,10.1875 -2e-4,1.84 -2.3426,1.2598 -5.4063,-1.375 -4.4166,-3.7984 -11.5937,-2.85235 -11.5937,1.53125 -2e-4,2.2685 -1.2565,2.5377 -2.8438,0.625 -0.6048,-0.7287 -3.6221,-2.58955 -6.7188,-4.15625 -4.6246,-2.3398 -5.9877,-2.6514 -7.5312,-1.6875 -3.2633,2.0379 -4.9062,1.45235 -4.9062,-1.78125 0,-2.8095 -0.3812,-3.1146 -7,-5.125 -6.7547,-2.0517 -8.9677,-4.23665 -5.5938,-5.53125 0.7746,-0.2973 1.9484,-1.8169 2.5938,-3.375 0.6452,-1.5581 2.0351,-3.0357 3.0937,-3.3125 1.1735,-0.3069 2.183,-1.7273 2.5625,-3.625 0.5099,-2.54919 1.0441,-3.69026 2.3125,-3.71875 z" style="fill:#5f4b74;fill-opacity:1"></path>
      </g>
      <g id="g3620" transform="rotate(13.576 -762.283 1719.878)">
        <path id="path3622" d="m -946.54909,873.96932 c -2.4089,0.008 -5.0934,0.0341 -8.125,0.0625 -21.3799,0.2004 -24.7097,0.45255 -30.5,2.34375 -3.5752,1.1676 -9.2002,2.8961 -12.5,3.8125 -3.30011,0.9164 -6.76371,2.0582 -7.71881,2.5625 -0.955,0.5043 -2.6253,0.9375 -3.6875,0.9375 -1.0623,0 -4.1686,1.125 -6.9063,2.5 -2.7373,1.375 -5.5673,2.5 -6.3124,2.5 -0.7453,0.002 -2.8244,0.9021 -4.625,2 -1.8008,1.098 -3.9383,2 -4.75,2 -0.8118,0 -1.5,0.3342 -1.5,0.75 0,0.4157 -1.4628,1.35565 -3.25,2.09375 -4.4276,1.8281 -14.9087,7.16055 -16.75,8.53125 -0.8252,0.6141 -3.2193,2.0016 -5.3126,3.0625 -2.0931,1.061 -5.6931,3.94775 -8,6.40625 -2.3067,2.4585 -5.2,5.53045 -6.4374,6.84375 -1.2376,1.3134 -2.25,2.61955 -2.25,2.90625 0,0.7043 -5.1884,7.65575 -6.6563,8.90625 -1.9078,1.6253 -5.6149,8.2345 -8.4063,15 -3.563,8.6364 -7.7857,25.989 -8.5,34.9375 -0.5818,7.294 1.7607,22.67063 6.0626,39.56253 0.9103,3.575 1.9047,7.625 2.1874,9 0.283,1.375 1.6359,6.325 3,11 7.0065,24.007 12.5006,31.7508 35.8126,50.3125 3.0569,2.4341 10.0554,6.5594 16.6874,9.8437 2.0276,1.004 3.9702,2.2585 4.3126,2.8125 0.3422,0.5541 1.4107,1.0313 2.375,1.0313 0.9643,0 3.5431,0.8551 5.7187,1.9062 8.4492,4.0822 26.73551,9.0591 39.40631,10.7188 1.9248,0.2522 7.7749,1.1439 13,2 5.2248,0.8562 14.4498,1.8613 20.5,2.2187 23.1538,1.3681 44.4564,-1.2745 61.5,-7.625 10.5274,-3.9227 32.9552,-17.304 33.0312,-19.7187 0.0174,-0.55 2.4891,-3.925 5.5,-7.5 6.0246,-7.1533 14.0756,-21.3674 19,-33.5 1.5184,-3.741 7.2632,-22.0758 8.0625,-25.7188 1.9235,-8.7675 2.7877,-29.21373 1.625,-38.78123 -1.0497,-8.6372 -4.7826,-24.19615 -6.8125,-28.34375 -0.7621,-1.5571 -1.4062,-3.4173 -1.4062,-4.125 0,-1.5701 -8.656,-18.7207 -9.8438,-19.5 -0.467,-0.3064 -1.61,-2.1627 -2.5312,-4.125 -0.9216,-1.9622 -6.2015,-8.2622 -11.75,-14 -5.549,-5.7377 -10.5398,-10.85625 -11.0626,-11.40625 -5.3649,-5.6445 -23.1006,-19.352 -28.8124,-22.25 -1.9251,-0.9767 -3.6323,-2.0972 -3.8126,-2.5 -0.2935,-0.6571 -7.1694,-3.0086 -9.6874,-3.3125 -0.5501,-0.0664 -4.1503,-1.03255 -8,-2.15625 -11.8163,-3.45179 -15.0134,-4.05675 -31.875,-4 z" style="fill:#3b3c3d"></path>
        <path id="path3624" d="m -959.89289,890.21932 c 9.427,0.0483 19.9571,0.78313 24.2188,1.9375 3.2997,0.8939 7.7918,2.0712 9.9687,2.625 4.141,1.0535 9.5691,3.20645 13.1563,5.21875 5.9321,3.3279 16.375,10.80635 16.375,11.71875 0,0.7124 0.6314,0.70115 2,-0.0312 1.0998,-0.5887 2,-1.72555 2,-2.53125 -2e-4,-3.1459 4.0212,-1.17345 11.5937,5.71875 4.3502,3.9593 8.661,8.1218 9.5625,9.25 0.9015,1.1281 3.9515,4.5107 6.7812,7.5 2.83,2.9893 5.6751,6.4466 6.3438,7.6875 0.6687,1.2409 2.8345,4.6427 4.8125,7.5625 5.9262,8.7477 13.0777,32.31085 14.4063,47.53125 1.0124,11.60113 -1.1284,25.98513 -6.125,41.40633 -2.4307,7.5008 -5.439,15.1507 -6.6876,17 -1.2483,1.8492 -3.7949,6.4416 -5.6874,10.2186 -1.8928,3.7771 -6.4939,10.4155 -10.2188,14.7189 -6.0793,7.0236 -7.7812,8.2813 -16.5312,12.5 -5.3615,2.5848 -10.6503,5.0521 -11.75,5.4686 -6.0076,2.2753 -8.7668,3.1226 -16.5,5.0625 -6.741,1.691 -12.1218,2.1945 -26,2.4064 -9.625,0.147 -19.9751,-0.1285 -23,-0.5939 -3.0253,-0.4652 -12.7002,-1.788 -21.5,-2.9375 -9.6393,-1.2591 -18.71011,-3.0561 -22.81261,-4.5311 -3.7451,-1.3468 -7.5702,-2.4689 -8.5,-2.4689 -2.8274,-0.014 -26.7413,-12.3705 -30.8437,-15.9375 -1.3007,-1.131 -2.8317,-2.0311 -3.4375,-2.0311 -0.6058,0 -2.0725,-0.9016 -3.25,-2 -1.1775,-1.0984 -3.5345,-3.2358 -5.2188,-4.75 -3.7907,-3.4077 -7.4374,-8.5696 -7.4374,-10.5314 0,-0.8103 -0.6477,-2.0373 -1.4688,-2.7186 -0.821,-0.6815 -1.9763,-3.1016 -2.5625,-5.375 -0.5862,-2.2734 -1.7511,-5.5714 -2.5625,-7.3439 -1.8286,-3.9946 -4.7493,-15.0787 -8.1562,-30.7812 -5.4982,-25.34038 -2.048,-47.36973 10.4687,-66.71873 5.0683,-7.8348 20.0624,-23.4654 24.7813,-25.8125 1.6497,-0.8207 3.2245,-1.69285 3.5,-1.96875 0.2752,-0.2759 2.0753,-1.3486 4,-2.375 1.9245,-1.0265 6.8418,-3.6363 10.9062,-5.8125 8.2053,-4.3933 42.79841,-16.28055 51.21881,-17.59375 3.2462,-0.50629 8.5,-0.71649 14.1562,-0.6875 z" style="fill:#82d7fa;fill-opacity:1"></path>
        <path id="path3626" d="m -933.54909,902.93807 -9.9688,3.46875 c -5.4825,1.905 -10.6871,3.8337 -11.5625,4.3125 -4.8072,2.6296 -13.035,5.9645 -14.6875,5.9375 -1.047,-0.0172 -4.1562,-1.1473 -6.9062,-2.5 -2.7502,-1.3528 -5.6652,-2.45875 -6.5,-2.46875 -0.8351,-0.005 -3.2583,-1.1867 -5.375,-2.625 -2.1169,-1.4384 -5.2454,-2.676 -6.9688,-2.75 -2.5935,-0.1116 -3.2193,0.2643 -3.5,2.25 -0.1865,1.3196 0.1515,3.3446 0.75,4.5 0.5985,1.1555 2.0084,4.79825 3.125,8.09375 1.9115,5.6417 1.9324,6.0655 0.3125,7.25 -0.9463,0.692 -4.0554,1.28125 -6.90631,1.28125 -2.8505,0 -7.0992,0.675 -9.4374,1.5 -2.3383,0.825 -5.4354,1.5 -6.9063,1.5 -3.6313,0 -5.0937,1.6879 -5.0937,6 0,5.6497 4.4457,8.90965 17,12.46875 3.5749,1.0135 6.85581,2.1402 7.28121,2.5 0.4253,0.3599 -0.3756,4.99925 -1.78121,10.28125 -2.2435,8.4281 -2.4193,10.1642 -1.4063,14.1875 0.8827,3.5053 1.7128,4.69985 3.53131,5.15625 1.308,0.3283 2.375,1.0096 2.375,1.5 0,1.8231 4.929,0.8095 6.6874,-1.375 2.7994,-3.4776 11.3551,-10.11955 15.8126,-12.28125 2.1999,-1.067 4.3459,-2.3875 4.75,-2.9375 0.4897,-0.6667 0.7379,-0.6667 0.75,0 0.01,0.55 2.251,2.53265 5,4.40625 2.7489,1.8736 5,3.68055 5,4.03125 0,1.5926 8.0623,9.0625 9.7812,9.0625 1.993,0 5.4372,-3.0895 5.1562,-4.625 -0.8584,-4.6919 1.487,-6.97185 4.0313,-3.90625 0.6701,0.8074 1.5152,1.38025 1.875,1.28125 0.3597,-0.0993 1.7016,0.39165 2.9687,1.09375 1.2673,0.7021 4.3248,1.8857 6.7813,2.625 5.1628,1.5538 6.6003,0.69875 9.125,-5.34375 1.4313,-3.4255 1.4187,-3.45815 -2.5,-7.03125 -2.168,-1.9768 -4.553,-5.05625 -5.3125,-6.84375 -0.7595,-1.7875 -1.6378,-3.25 -1.9375,-3.25 -0.2996,0 -0.572,-1.6455 -0.625,-3.625 -0.086,-3.2268 0.2726,-3.7535 3.5313,-5.125 1.999,-0.8414 5.6514,-2.0084 8.125,-2.625 4.2001,-1.047 4.5513,-1.4016 5.375,-5.3125 0.8175,-3.8826 0.6692,-4.3689 -2,-6.6875 -2.0173,-1.752 -4.9703,-2.86195 -9.875,-3.65625 -7.4649,-1.2089 -13.5,-2.8241 -13.5,-3.625 -2e-4,-1.4038 2.8339,-5.4348 7.1562,-10.1875 6.3715,-7.006 6.5158,-9.9771 0.6562,-13.4375 l -4.1874,-2.46875 z" style="fill:#3b3c3d"></path>
        <path id="path3628" d="m -980.20539,926.03182 c 0.761,-0.0171 1.801,0.38646 3.2187,1.09375 1.7275,0.8618 3.5967,1.5625 4.1563,1.5625 0.5597,0 1.8235,0.7299 2.8125,1.625 2.4854,2.2487 9.2007,2.2848 11.6562,0.0625 1.8731,-1.6951 1.9589,-1.7133 2.5313,0 1.5182,4.544 4.4728,7.5994 9.5,9.8125 2.6021,1.1455 3.1739,1.87365 2.6875,3.40625 -0.3417,1.0767 -0.1861,2.78435 0.3438,3.78125 1.8467,3.4741 4.125,9.0965 4.125,10.1875 -2e-4,1.84 -2.3426,1.2598 -5.4063,-1.375 -4.4166,-3.7984 -11.5937,-2.85235 -11.5937,1.53125 -2e-4,2.2685 -1.2565,2.5377 -2.8438,0.625 -0.6048,-0.7287 -3.6221,-2.58955 -6.7188,-4.15625 -4.6246,-2.3398 -5.9877,-2.6514 -7.5312,-1.6875 -3.2633,2.0379 -4.9062,1.45235 -4.9062,-1.78125 0,-2.8095 -0.3812,-3.1146 -7,-5.125 -6.7547,-2.0517 -8.9677,-4.23665 -5.5938,-5.53125 0.7746,-0.2973 1.9484,-1.8169 2.5938,-3.375 0.6452,-1.5581 2.0351,-3.0357 3.0937,-3.3125 1.1735,-0.3069 2.183,-1.7273 2.5625,-3.625 0.5099,-2.54919 1.0441,-3.69026 2.3125,-3.71875 z" style="fill:#9777a8;fill-opacity:1"></path>
      </g>
      <g id="g3614">
        <path id="path3612" d="m -946.54909,873.96932 c -2.4089,0.008 -5.0934,0.0341 -8.125,0.0625 -21.3799,0.2004 -24.7097,0.45255 -30.5,2.34375 -3.5752,1.1676 -9.2002,2.8961 -12.5,3.8125 -3.30011,0.9164 -6.76371,2.0582 -7.71881,2.5625 -0.955,0.5043 -2.6253,0.9375 -3.6875,0.9375 -1.0623,0 -4.1686,1.125 -6.9063,2.5 -2.7373,1.375 -5.5673,2.5 -6.3124,2.5 -0.7453,0.002 -2.8244,0.9021 -4.625,2 -1.8008,1.098 -3.9383,2 -4.75,2 -0.8118,0 -1.5,0.3342 -1.5,0.75 0,0.4157 -1.4628,1.35565 -3.25,2.09375 -4.4276,1.8281 -14.9087,7.16055 -16.75,8.53125 -0.8252,0.6141 -3.2193,2.0016 -5.3126,3.0625 -2.0931,1.061 -5.6931,3.94775 -8,6.40625 -2.3067,2.4585 -5.2,5.53045 -6.4374,6.84375 -1.2376,1.3134 -2.25,2.61955 -2.25,2.90625 0,0.7043 -5.1884,7.65575 -6.6563,8.90625 -1.9078,1.6253 -5.6149,8.2345 -8.4063,15 -3.563,8.6364 -7.7857,25.989 -8.5,34.9375 -0.5818,7.294 1.7607,22.67063 6.0626,39.56253 0.9103,3.575 1.9047,7.625 2.1874,9 0.283,1.375 1.6359,6.325 3,11 7.0065,24.007 12.5006,31.7508 35.8126,50.3125 3.0569,2.4341 10.0554,6.5594 16.6874,9.8437 2.0276,1.004 3.9702,2.2585 4.3126,2.8125 0.3422,0.5541 1.4107,1.0313 2.375,1.0313 0.9643,0 3.5431,0.8551 5.7187,1.9062 8.4492,4.0822 26.73551,9.0591 39.40631,10.7188 1.9248,0.2522 7.7749,1.1439 13,2 5.2248,0.8562 14.4498,1.8613 20.5,2.2187 23.1538,1.3681 44.4564,-1.2745 61.5,-7.625 10.5274,-3.9227 32.9552,-17.304 33.0312,-19.7187 0.0174,-0.55 2.4891,-3.925 5.5,-7.5 6.0246,-7.1533 14.0756,-21.3674 19,-33.5 1.5184,-3.741 7.2632,-22.0758 8.0625,-25.7188 1.9235,-8.7675 2.7877,-29.21373 1.625,-38.78123 -1.0497,-8.6372 -4.7826,-24.19615 -6.8125,-28.34375 -0.7621,-1.5571 -1.4062,-3.4173 -1.4062,-4.125 0,-1.5701 -8.656,-18.7207 -9.8438,-19.5 -0.467,-0.3064 -1.61,-2.1627 -2.5312,-4.125 -0.9216,-1.9622 -6.2015,-8.2622 -11.75,-14 -5.549,-5.7377 -10.5398,-10.85625 -11.0626,-11.40625 -5.3649,-5.6445 -23.1006,-19.352 -28.8124,-22.25 -1.9251,-0.9767 -3.6323,-2.0972 -3.8126,-2.5 -0.2935,-0.6571 -7.1694,-3.0086 -9.6874,-3.3125 -0.5501,-0.0664 -4.1503,-1.03255 -8,-2.15625 -11.8163,-3.45179 -15.0134,-4.05675 -31.875,-4 z" style="fill:#3b3c3d"></path>
        <path id="path3610" d="m -959.89289,890.21932 c 9.427,0.0483 19.9571,0.78313 24.2188,1.9375 3.2997,0.8939 7.7918,2.0712 9.9687,2.625 4.141,1.0535 9.5691,3.20645 13.1563,5.21875 5.9321,3.3279 16.375,10.80635 16.375,11.71875 0,0.7124 0.6314,0.70115 2,-0.0312 1.0998,-0.5887 2,-1.72555 2,-2.53125 -2e-4,-3.1459 4.0212,-1.17345 11.5937,5.71875 4.3502,3.9593 8.661,8.1218 9.5625,9.25 0.9015,1.1281 3.9515,4.5107 6.7812,7.5 2.83,2.9893 5.6751,6.4466 6.3438,7.6875 0.6687,1.2409 2.8345,4.6427 4.8125,7.5625 5.9262,8.7477 13.0777,32.31085 14.4063,47.53125 1.0124,11.60113 -1.1284,25.98513 -6.125,41.40633 -2.4307,7.5008 -5.439,15.1507 -6.6876,17 -1.2483,1.8492 -3.7949,6.4416 -5.6874,10.2186 -1.8928,3.7771 -6.4939,10.4155 -10.2188,14.7189 -6.0793,7.0236 -7.7812,8.2813 -16.5312,12.5 -5.3615,2.5848 -10.6503,5.0521 -11.75,5.4686 -6.0076,2.2753 -8.7668,3.1226 -16.5,5.0625 -6.741,1.691 -12.1218,2.1945 -26,2.4064 -9.625,0.147 -19.9751,-0.1285 -23,-0.5939 -3.0253,-0.4652 -12.7002,-1.788 -21.5,-2.9375 -9.6393,-1.2591 -18.71011,-3.0561 -22.81261,-4.5311 -3.7451,-1.3468 -7.5702,-2.4689 -8.5,-2.4689 -2.8274,-0.014 -26.7413,-12.3705 -30.8437,-15.9375 -1.3007,-1.131 -2.8317,-2.0311 -3.4375,-2.0311 -0.6058,0 -2.0725,-0.9016 -3.25,-2 -1.1775,-1.0984 -3.5345,-3.2358 -5.2188,-4.75 -3.7907,-3.4077 -7.4374,-8.5696 -7.4374,-10.5314 0,-0.8103 -0.6477,-2.0373 -1.4688,-2.7186 -0.821,-0.6815 -1.9763,-3.1016 -2.5625,-5.375 -0.5862,-2.2734 -1.7511,-5.5714 -2.5625,-7.3439 -1.8286,-3.9946 -4.7493,-15.0787 -8.1562,-30.7812 -5.4982,-25.34038 -2.048,-47.36973 10.4687,-66.71873 5.0683,-7.8348 20.0624,-23.4654 24.7813,-25.8125 1.6497,-0.8207 3.2245,-1.69285 3.5,-1.96875 0.2752,-0.2759 2.0753,-1.3486 4,-2.375 1.9245,-1.0265 6.8418,-3.6363 10.9062,-5.8125 8.2053,-4.3933 42.79841,-16.28055 51.21881,-17.59375 3.2462,-0.50629 8.5,-0.71649 14.1562,-0.6875 z" style="fill:#a3cce0;fill-opacity:1"></path>
        <path id="path3608" d="m -933.54909,902.93807 -9.9688,3.46875 c -5.4825,1.905 -10.6871,3.8337 -11.5625,4.3125 -4.8072,2.6296 -13.035,5.9645 -14.6875,5.9375 -1.047,-0.0172 -4.1562,-1.1473 -6.9062,-2.5 -2.7502,-1.3528 -5.6652,-2.45875 -6.5,-2.46875 -0.8351,-0.005 -3.2583,-1.1867 -5.375,-2.625 -2.1169,-1.4384 -5.2454,-2.676 -6.9688,-2.75 -2.5935,-0.1116 -3.2193,0.2643 -3.5,2.25 -0.1865,1.3196 0.1515,3.3446 0.75,4.5 0.5985,1.1555 2.0084,4.79825 3.125,8.09375 1.9115,5.6417 1.9324,6.0655 0.3125,7.25 -0.9463,0.692 -4.0554,1.28125 -6.90631,1.28125 -2.8505,0 -7.0992,0.675 -9.4374,1.5 -2.3383,0.825 -5.4354,1.5 -6.9063,1.5 -3.6313,0 -5.0937,1.6879 -5.0937,6 0,5.6497 4.4457,8.90965 17,12.46875 3.5749,1.0135 6.85581,2.1402 7.28121,2.5 0.4253,0.3599 -0.3756,4.99925 -1.78121,10.28125 -2.2435,8.4281 -2.4193,10.1642 -1.4063,14.1875 0.8827,3.5053 1.7128,4.69985 3.53131,5.15625 1.308,0.3283 2.375,1.0096 2.375,1.5 0,1.8231 4.929,0.8095 6.6874,-1.375 2.7994,-3.4776 11.3551,-10.11955 15.8126,-12.28125 2.1999,-1.067 4.3459,-2.3875 4.75,-2.9375 0.4897,-0.6667 0.7379,-0.6667 0.75,0 0.01,0.55 2.251,2.53265 5,4.40625 2.7489,1.8736 5,3.68055 5,4.03125 0,1.5926 8.0623,9.0625 9.7812,9.0625 1.993,0 5.4372,-3.0895 5.1562,-4.625 -0.8584,-4.6919 1.487,-6.97185 4.0313,-3.90625 0.6701,0.8074 1.5152,1.38025 1.875,1.28125 0.3597,-0.0993 1.7016,0.39165 2.9687,1.09375 1.2673,0.7021 4.3248,1.8857 6.7813,2.625 5.1628,1.5538 6.6003,0.69875 9.125,-5.34375 1.4313,-3.4255 1.4187,-3.45815 -2.5,-7.03125 -2.168,-1.9768 -4.553,-5.05625 -5.3125,-6.84375 -0.7595,-1.7875 -1.6378,-3.25 -1.9375,-3.25 -0.2996,0 -0.572,-1.6455 -0.625,-3.625 -0.086,-3.2268 0.2726,-3.7535 3.5313,-5.125 1.999,-0.8414 5.6514,-2.0084 8.125,-2.625 4.2001,-1.047 4.5513,-1.4016 5.375,-5.3125 0.8175,-3.8826 0.6692,-4.3689 -2,-6.6875 -2.0173,-1.752 -4.9703,-2.86195 -9.875,-3.65625 -7.4649,-1.2089 -13.5,-2.8241 -13.5,-3.625 -2e-4,-1.4038 2.8339,-5.4348 7.1562,-10.1875 6.3715,-7.006 6.5158,-9.9771 0.6562,-13.4375 l -4.1874,-2.46875 z" style="fill:#3b3c3d"></path>
        <path id="path3034" d="m -980.20539,926.03182 c 0.761,-0.0171 1.801,0.38646 3.2187,1.09375 1.7275,0.8618 3.5967,1.5625 4.1563,1.5625 0.5597,0 1.8235,0.7299 2.8125,1.625 2.4854,2.2487 9.2007,2.2848 11.6562,0.0625 1.8731,-1.6951 1.9589,-1.7133 2.5313,0 1.5182,4.544 4.4728,7.5994 9.5,9.8125 2.6021,1.1455 3.1739,1.87365 2.6875,3.40625 -0.3417,1.0767 -0.1861,2.78435 0.3438,3.78125 1.8467,3.4741 4.125,9.0965 4.125,10.1875 -2e-4,1.84 -2.3426,1.2598 -5.4063,-1.375 -4.4166,-3.7984 -11.5937,-2.85235 -11.5937,1.53125 -2e-4,2.2685 -1.2565,2.5377 -2.8438,0.625 -0.6048,-0.7287 -3.6221,-2.58955 -6.7188,-4.15625 -4.6246,-2.3398 -5.9877,-2.6514 -7.5312,-1.6875 -3.2633,2.0379 -4.9062,1.45235 -4.9062,-1.78125 0,-2.8095 -0.3812,-3.1146 -7,-5.125 -6.7547,-2.0517 -8.9677,-4.23665 -5.5938,-5.53125 0.7746,-0.2973 1.9484,-1.8169 2.5938,-3.375 0.6452,-1.5581 2.0351,-3.0357 3.0937,-3.3125 1.1735,-0.3069 2.183,-1.7273 2.5625,-3.625 0.5099,-2.54919 1.0441,-3.69026 2.3125,-3.71875 z" style="fill:#495574;fill-opacity:1"></path>
      </g>
    </g>
  </g>
</svg>
