<svg xmlns="http://www.w3.org/2000/svg" id="broccoli" width="512" height="512" version="1.1">
  <defs id="defs4">
    <clipPath id="clipPath3223" clipPathUnits="userSpaceOnUse">
      <path id="path3225" d="m -674.28569,189.14285 a 228.57143,228.57143 0 1 1 -457.14281,0 228.57143,228.57143 0 1 1 457.14281,0 z" style="fill:#ffd664;fill-opacity:1;stroke:none" transform="translate(1204 57.4)scale(1.05)"></path>
    </clipPath>
  </defs>
  <g id="layer1" transform="translate(0 -540.362)">
    <g id="g3347" transform="matrix(.929 0 0 .929 609.908 40.373)">
      <path id="path3345" d="m -358.79326,577.30858 c -0.9431,-8.4e-4 -1.93122,0.013 -2.9375,0.0312 -16.942,0.3068 -23.9138,1.57695 -30.5,5.59375 -4.8428,2.9536 -5.7568,4.02985 -7.5,8.96875 -1.9242,5.4515 -2.0733,5.59375 -5.6875,5.59375 -2.0453,0 -7.24035,-1.0967 -11.53125,-2.4375 -13.5407,-4.2314 -32.21805,-5.4454 -41.84375,-2.75 -10.8348,3.0341 -31.083,14.6738 -38.5,22.125 -8.5308,8.5701 -14.1833,17.4815 -15.5,24.5 -0.3713,1.9793 -1.06235,3.8352 -1.53125,4.125 -0.469,0.2898 -5.2438,0.6629 -10.625,0.8125 -9.5355,0.2652 -10.00985,0.37535 -18.78125,5.03125 -4.95,2.6275 -9.675,5.32325 -10.5,5.96875 -0.825,0.6456 -3.075,2.03825 -5,3.09375 -13.3454,7.3174 -31.71235,30.7564 -35.46875,45.3125 -1.897,7.3509 -2.147,19.11575 -0.5625,25.34375 0.6133,2.4102 2.4563,7.4168 4.125,11.125 3.4516,7.6709 3.43345,10.1254 -0.0937,10.625 -1.3538,0.1917 -3.36825,0.9792 -4.46875,1.75 -1.1004,0.7707 -2.62305,1.375 -3.40625,1.375 -0.7832,0 -3.9112,1.64755 -6.9375,3.65625 -19.38177,12.8649 -33.41807,39.40815 -33.24997,62.84375 0.074,10.384 0.1334,10.7707 3.0625,19.8125 4.8275,14.9022 13.1503,28.86115 22.125,37.15625 8.83957,8.1704 9.06852,9.12365 3.8437,15.03125 -0.9728,1.1 -3.6896,5.6 -6.0312,10 -2.3415,4.4 -4.6704,8.55185 -5.1875,9.21875 -0.5171,0.6668 -1.1436,5.7597 -1.375,11.3125 -0.4194,10.0615 -0.3869,10.11585 3.4375,17.78125 5.6674,11.35944 10.93017,16.58564 30.18747,29.96874 12.2098,8.4854 25.74915,11.7696 45.09375,10.875 24.1755,-1.118 32.29815,-3.8259 43.90625,-14.5937 2.475,-2.2959 5.51915,-4.8792 6.78125,-5.75 2.1584,-1.4892 2.4553,-1.4518 5,0.9375 3.8326,3.5986 11.4306,7.2198 20.5625,9.7812 6.3613,1.7845 9.7494,2.1338 17.75,1.8125 5.9103,-0.2374 10.36675,-0.898 11.09375,-1.625 4.5298,-4.5297 7.341,2.9518 7.25,19.2813 -0.062,11.07213 -1.1543,16.19853 -5.5,26.00003 -0.9754,2.2 -2.2902,5.7301 -2.9375,7.8125 -0.6473,2.0824 -2.49305,4.754 -4.09375,5.9375 -4.2853,3.1683 -3.9413,7.056 1.1875,13.2812 2.2573,2.7399 4.8448,5.3171 5.75,5.7188 2.509,1.1137 9.0953,0.124 11.0625,-1.6563 0.9631,-0.8716 2.96345,-1.5937 4.46875,-1.5937 1.5054,0 3.54135,-0.4078 4.53125,-0.9375 1.5573,-0.8335 8.30155,-1.8023 24.59375,-3.5 2.2,-0.2293 5.8,-0.6646 8,-0.9688 5.8364,-0.8071 13.9869,-1.4599 32,-2.5937 8.8,-0.5539 17.125,-1.2287 18.5,-1.5 1.375,-0.2713 5.25945,-0.6967 8.65625,-0.9375 11.8526,-0.84 13.34155,-3.3951 10.90625,-18.8125 -1.9857,-12.5712 -3.1717,-43.48413 -1.75,-45.56253 0.7311,-1.0687 1.40365,-0.8662 3.40625,1 7.04151,6.5622 8.94775,7.7111 15.40625,9.3437 11.7664,2.9743 29.9263,0.7733 40.9375,-4.9687 1.6146,-0.842 3.4423,-1.5313 4.0625,-1.5313 0.6201,0 1.63855,-0.6632 2.28125,-1.4375 0.6426,-0.7744 2.7255,-2.1298 4.625,-3.0312 3.2039,-1.5205 3.93825,-1.5125 10.09375,0.031 9.7168,2.4369 20.40295,1.3109 30.84375,-3.25 17.6012,-7.6888 21.1543,-10.2456 28.8125,-20.71879 1.1074,-1.5144 1.74505,-1.6725 3.46875,-0.75 5.9941,3.2079 16.2153,-1.33365 27.3125,-12.15625 16.5466,-16.1373 24.64385,-34.2731 22.09375,-49.4375 -1.6574,-9.8563 -1.7526,-10.13775 -4.5,-17.40625 -2.7025,-7.1499 -3.67385,-8.81175 -16.34375,-27.90625 -4.5822,-6.9057 -8.3125,-13.0355 -8.3125,-13.625 0,-0.5894 0.7054,-1.6637 1.5625,-2.375 1.3622,-1.1305 8.4375,-15.0188 8.4375,-16.5625 0,-0.3173 0.617,-2.0169 1.375,-3.75 4.8841,-11.1671 6.2833,-19.15685 4.6875,-26.84375 -0.6213,-2.9927 -1.37405,-6.72555 -1.65625,-8.28125 -0.5936,-3.2739 -5.9013,-14.27285 -8,-16.59375 -0.7852,-0.8683 -1.40625,-2.01425 -1.40625,-2.53125 0,-0.517 -4.3875,-5.24695 -9.75,-10.53125 -9.1326,-8.9996 -14.7612,-12.9728 -26.5,-18.6875 -2.6125,-1.2719 -4.75,-2.7022 -4.75,-3.1875 0,-0.4853 1.8,-4.3227 4,-8.5 3.3197,-6.3031 3.97875,-8.54865 3.96875,-13.28125 -0.0249,-13.1335 -7.12335,-27.16165 -21.21875,-41.84375 -6.4859,-6.7558 -9.7165,-9.2431 -16.1875,-12.4375 -4.4418,-2.1925 -10.5375,-4.39495 -13.5625,-4.90625 -3.025,-0.5112 -8.86415,-1.64915 -12.96875,-2.53125 -8.4496,-1.8159 -26.4526,-2.21055 -32.75,-0.71875 l -4.1875,1 -1.90625,-4.125 c -1.0508,-2.2723 -2.21765,-5.41055 -2.59375,-6.96875 -0.849,-3.5179 -5.2919,-10.6875 -6.625,-10.6875 -0.5431,0 -0.96875,-0.5544 -0.96875,-1.25 0,-1.337 -8.22575,-9.75 -9.53125,-9.75 -0.4208,0 -1.75405,-1.0643 -2.96875,-2.375 -1.2147,-1.3107 -3.14075,-2.66935 -4.28125,-3.03125 -1.1405,-0.362 -3.29085,-1.60895 -4.78125,-2.78125 -1.4903,-1.1723 -4.32,-3.02195 -6.3125,-4.09375 -16.00181,-8.60813 -23.54106,-10.89367 -37.6875,-10.90625 z" style="fill:#4d632e;fill-opacity:1"></path>
      <path id="path3343" d="m -355.04326,593.58983 c 2.51827,-0.0244 5.246,-0.0164 8.25,0 1.0747,0.006 2.52995,0.4909 3.21875,1.0625 0.6888,0.5716 1.69165,0.7633 2.21875,0.4375 0.5271,-0.3258 1.08885,-0.10835 1.28125,0.46875 0.1923,0.5771 1.47665,1.16665 2.84375,1.34375 2.8923,0.3747 5.9309,1.7291 11.5,5.0625 2.2,1.3168 5.35,3.1177 7,4 4.3537,2.3282 11.6572,9.33865 15.125,14.53125 1.6528,2.475 3.81395,7.2 4.78125,10.5 0.9673,3.3 1.9982,6.675 2.3125,7.5 0.3143,0.825 0.7734,2.625 1,4 0.637,3.8668 4.695,10.53095 6.3125,10.34375 0.7974,-0.0923 5.74375,-1.1314 10.96875,-2.3125 8.1027,-1.8316 11.5591,-2.058 23.5,-1.625 7.7,0.2792 15.125,0.7696 16.5,1.125 1.375,0.3555 3.625,0.88345 5,1.15625 7.519,1.4917 15.6792,5.8676 20.75,11.125 5.4105,5.6097 11.25,13.52955 11.25,15.28125 0,0.5417 0.77405,2.1832 1.71875,3.625 2.6053,3.9762 2.30775,12.72855 -0.59375,18.28125 -3.4795,6.6591 -9.054,13.0923 -12.375,14.25 -1.6089,0.5609 -3.25655,1.88815 -3.65625,2.96875 -1.0244,2.7691 0.0839,8.83695 2.125,11.71875 1.6121,2.2761 2.3674,2.44845 11.5,2.59375 8.8293,0.1403 10.45815,0.4979 16.78125,3.5 3.85,1.828 7.225,3.58225 7.5,3.90625 0.275,0.3241 2.25415,1.8943 4.40625,3.5 4.4518,3.3215 13.59375,12.21155 13.59375,13.21875 0,0.3678 1.1793,2.2296 2.625,4.125 5.2303,6.8573 6.77175,17.8745 3.78125,26.9375 -4.7758,14.4736 -9.99395,25.6084 -14.34375,30.5625 -5.8429,6.6547 -5.00035,12.42075 3.09375,20.90625 2.7863,2.9211 6.4417,7.3375 8.125,9.8125 1.6833,2.475 3.4408,4.764 3.875,5.0625 0.8088,0.5559 3.4983,5.2162 8.625,14.9375 9.4489,17.9171 5.61355,34.2785 -12.46875,53.25 -2.4901,2.6125 -4.91695,4.75 -5.40625,4.75 -0.4893,0 -1.51195,-1.50255 -2.28125,-3.34375 -1.5835,-3.79 -7.1101,-7.65625 -10.9375,-7.65625 -1.923,0 -3.3192,1.1461 -5.625,4.5625 -1.6889,2.5025 -3.0625,4.84465 -3.0625,5.21875 0,1.2968 -7.3811,12.7358 -8.75,13.5625 -0.7566,0.4569 -1.74835,1.85645 -2.21875,3.09375 -0.5652,1.4866 -3.6768,3.5962 -9.1875,6.25 -13.8368,6.66359 -15.43095,7.20379 -23.03125,7.84379 -6.1057,0.5141 -7.8916,0.2894 -10.8125,-1.3125 -1.925,-1.0557 -4.1037,-3.09269 -4.8125,-4.53129 -1.2427,-2.5224 -9.82325,-7.6875 -12.78125,-7.6875 -4.3639,0 -6.9434,7.5883 -3.9375,11.56249 0.8075,1.0676 1.483,2.6654 1.5,3.5313 0.0331,1.6377 -7.32665,5.3584 -16.40625,8.3125 -6.3495,2.066 -19.9717,2.1011 -24.0625,0.062 -1.65,-0.8222 -4.57375,-3.9536 -6.46875,-6.9688 -1.895,-3.0152 -3.8075,-5.5 -4.25,-5.5 -2.8905,0 2.5646,-15.27149 10,-27.99999 6.0968,-10.4367 11.88275,-17 14.96875,-17 1.0973,0 2.5653,-0.675 3.25,-1.5 1.4202,-1.7112 4.2094,-1.91995 6.75,-0.53125 5.2427,2.8656 15.90185,7.2972 24.34375,10.125 l 9.59375,3.21875 5.65625,-2.59375 c 3.1094,-1.4235 5.65625,-3.22015 5.65625,-3.96875 0,-2.168 -4.6173,-7.8366 -7.6875,-9.4375 -1.5457,-0.806 -7.0875,-3.2441 -12.3125,-5.4375 -15.701,-6.5911 -32.09535,-15.0748 -32.84375,-17 -0.1833,-0.4716 -0.8583,-0.874 -1.5,-0.875 -2.0327,-0.004 -13.00525,-7.91295 -17.28125,-12.46875 -4.1992,-4.4741 -12.91475,-17.62445 -15.28125,-23.03125 -2.0346,-4.6482 -4.88925,-13.8356 -5.53125,-17.875 l -0.5625,-3.65625 7.5,-3.4375 c 4.8115,-2.1927 9.3297,-5.22495 12.625,-8.46875 l 5.125,-5.03125 -3.78125,-3.46875 c -2.0756,-1.9012 -5.0327,-3.7265 -6.5625,-4.0625 -3.01231,-0.6616 -10.48645,1.1118 -12.90625,3.0625 -0.825,0.665 -2.625,1.5066 -4,1.875 -1.375,0.3685 -4.525,1.503 -7,2.5 -12.9604,5.2203 -26.6023,8.8931 -35.5,9.5625 -3.3,0.2483 -9.375,0.96205 -13.5,1.59375 -9.8422,1.5074 -31.1156,0.47045 -41.5,-2.03125 -18.2077,-4.3865 -23.78485,-6.3007 -30.03125,-10.25 -2.2087,-1.3965 -6.41505,-4.83345 -9.34375,-7.65625 -2.9287,-2.8228 -6.61875,-5.89855 -8.21875,-6.84375 -1.6001,-0.9451 -2.90625,-2.0685 -2.90625,-2.5 0,-0.4314 -1.575,-0.8125 -3.5,-0.8125 -3.3085,0 -3.5,0.1856 -3.5,3.375 0,6.2189 7.2845,16.18845 18.4375,25.15625 5.1537,4.1439 7.57215,5.7129 11.21875,7.375 1.1841,0.5397 2.4401,1.49125 2.8125,2.09375 1.1581,1.8739 -10.3255,19.0195 -19.75,29.5 -14.9612,16.6376 -23.21415,22.75245 -35.71875,26.40625 -2.475,0.7231 -5.625,1.7959 -7,2.375 -1.375,0.5791 -4.525,1.3989 -7,1.8125 -6.8494,1.1447 -18.9141,4.6106 -20.4375,5.875 -1.9671,1.6325 -2.49685,7.85745 -0.78125,9.28125 0.7745,0.6428 1.80795,2.1928 2.28125,3.4375 1.2884,3.3887 5.09885,3.82595 12.71875,1.46875 16.046,-4.9639 22.93635,-6.3465 25.21875,-5.125 3.5094,1.8782 19,14.0537 19,14.9375 0,0.4428 1.33745,1.35555 2.96875,2.03125 1.6314,0.6757 5.7089,3.884 9.0625,7.125 3.3536,3.241 6.416,5.875 6.8125,5.875 0.3965,0 1.50585,1.33875 2.46875,2.96875 0.9628,1.6299 2.30055,3.5424 2.96875,4.25 2.1932,2.3221 6.71875,9.37195 6.71875,10.46875 0,0.5905 0.675,1.6279 1.5,2.3125 2.4401,2.02509 1.819,4.89169 -1.25,5.74999 -5.947,1.6631 -18.5081,0.7029 -26.4375,-2 -11.3926,-3.88359 -14.0435,-5.50309 -19.0625,-11.62499 -1.6576,-2.0219 -7.76825,-3.1016 -7.78125,-1.375 -0.008,1.0654 -10.2913,11.62039 -14.3125,14.68749 -3.6807,2.8075 -12.57305,6.2591 -19.65625,7.5938 -2.475,0.4664 -11.54475,0.7587 -20.15625,0.6562 -13.6276,-0.1621 -15.9208,-0.4324 -17.6875,-2.0312 -1.1163,-1.0103 -2.4409,-1.5882 -2.9375,-1.2813 -2.3425,1.4478 -20.76295,-11.97849 -25.71875,-18.74999 -2.7401,-3.7441 -3,-4.8145 -3,-12.125 0,-5.7314 0.48795,-8.8507 1.71875,-11 0.9449,-1.65 2.6202,-4.8806 3.75,-7.1875 1.1298,-2.3068 4.07705,-6.53115 6.53125,-9.40625 3.9972,-4.6828 4.4013,-5.61475 3.875,-8.90625 -0.502,-3.1389 -0.2239,-3.96945 2,-5.71875 5.6523,-4.446 1.9798,-11.8454 -7.375,-14.8125 -3.025,-0.9594 -6.69595,-2.68705 -8.15625,-3.84375 -2.6839,-2.1257 -9.84372,-11.05845 -9.84372,-12.28125 0,-0.3644 -0.6549,-1.3817 -1.4375,-2.25 -1.2577,-1.3955 -6.7996,-15.23315 -8.25,-20.59375 -2.7572,-10.1905 -0.7139,-21.4754 6.6875,-37 6.29337,-13.2006 16.24767,-21.84565 32.49997,-28.28125 9.5184,-3.7691 10.0524,-4.15845 11.3125,-7.84375 1.7029,-4.9803 1.10255,-8.48065 -2.90625,-16.96875 -1.7902,-3.7906 -3.704,-8.93125 -4.25,-11.40625 -1.4738,-6.6823 -1.41015,-20.6214 0.0937,-22.125 0.6875,-0.6874 1.25,-1.9098 1.25,-2.6875 0,-2.7486 9.3456,-16.34495 15.4375,-22.46875 3.3952,-3.413 10.3871,-9.08425 15.5625,-12.59375 15.7695,-10.6935 28.84365,-13.954 34.59375,-8.625 3.2681,3.0288 8.1998,3.2974 11.5,0.625 2.1021,-1.7022 2.1986,-2.2057 1.1875,-5.5 -2.1816,-7.1083 4.1777,-23.0995 12.3125,-31 9.6286,-9.3511 28.2072,-19.00215 39.75,-20.65625 7.532,-1.0793 24.97495,-0.0946 27.65625,1.5625 0.4271,0.264 4.6413,0.55725 9.375,0.65625 4.7336,0.099 8.625,0.4615 8.625,0.8125 0,0.3511 0.90975,1.6088 2.03125,2.8125 1.425,1.5295 3.2088,2.1875 5.9375,2.1875 4.9426,0 7.03125,-2.65875 7.03125,-9.03125 0,-3.5865 0.5371,-5.12085 2.4375,-6.90625 3.76749,-3.53929 10.12213,-4.79826 27.75,-4.96875 z" style="fill:#6e9140;fill-opacity:1"></path>
      <path id="path3053" d="m -341.23076,828.83983 c 0.40703,-0.004 0.67978,0.0548 0.78125,0.15625 0.8444,0.8444 3.1705,7.78985 3.1875,9.53125 0.008,0.8331 0.93045,3.1961 2.03125,5.25 1.1008,2.054 1.8883,3.8443 1.75,4 -0.3457,0.3893 3.5165,9.09875 4.3125,9.71875 0.353,0.275 2.61915,3.45195 5.03125,7.03125 7.4144,11.0022 11.02979,15.3332 16.6875,20 9.1596,7.5555 8.945,6.43705 2.6875,12.90625 -3.0605,3.1639 -7.62475,9.08365 -10.15625,13.15625 -2.5314,4.0725 -5.67405,8.7981 -6.96875,10.5 -1.2948,1.702 -2.34375,3.92305 -2.34375,4.90625 0,0.9832 -0.86815,3.19135 -1.90625,4.90625 -1.038,1.7149 -2.62465,5.79375 -3.53125,9.09375 -1.7283,6.2915 -4.9941,17.66049 -6.75,23.40629 -1.7049,5.5788 -1.06315,31.6622 1.15625,46.37503 0.727,4.8198 1.0618,9.0007 0.75,9.3125 -0.3118,0.3118 -9.4549,1.2088 -20.3125,1.9687 -20.4138,1.4289 -21.86125,1.5797 -36.90625,3.625 -4.95,0.6729 -9.3481,1.1334 -9.75,1.0313 -0.4019,-0.1021 -3.1019,0.2719 -6,0.8437 -2.8981,0.5719 -6.28165,1.2681 -7.53125,1.5313 -3.2754,0.6897 -3.6966,-1.6077 -1.25,-6.8125 2.6394,-5.6151 6.0049,-24.55473 5.4375,-30.65633 -1.1655,-12.5356 -3.7528,-22.0185 -8.5625,-31.4062 -5.7882,-11.29774 -10.15945,-19.27594 -10.78125,-19.68754 -0.4198,-0.2779 -1.37535,-1.65625 -2.09375,-3.03125 -4.5464,-8.7013 -18.26665,-23.56355 -28.59375,-30.96875 -2.6797,-1.9215 -5.1,-3.7783 -5.375,-4.125 -0.275,-0.3468 -1.87145,-1.49955 -3.53125,-2.53125 -4.9085,-3.0511 -9.46875,-6.67335 -9.46875,-7.53125 0,-0.4396 1.9125,-1.99955 4.25,-3.46875 3.6235,-2.2775 8.94585,-6.859 15.65625,-13.4375 0.8768,-0.8595 3.21195,-3.5595 5.21875,-6 2.0069,-2.4404 4.7069,-5.62445 6,-7.09375 3.7547,-4.2663 8.2981,-9.96875 9.3125,-11.71875 1.4273,-2.4622 3.5692,-4.39955 4.1875,-3.78125 0.3044,0.3044 0.77985,2.24525 1.03125,4.34375 0.2514,2.0986 0.8861,6.0625 1.4375,8.8125 0.5513,2.75 1.8211,10.9961 2.8125,18.3125 1.6347,12.0633 2.0845,13.5955 4.6875,16.3125 2.5607,2.6727 3.2919,2.9027 6.875,2.3125 6.8336,-1.1255 7.61945,-2.95475 5.53125,-13.09375 -2.2478,-10.9141 -4.16625,-21.0283 -4.59375,-24.1875 -0.25,-1.8473 -0.9002,-4.1835 -1.4375,-5.1875 -0.5374,-1.0041 -0.96875,-3.1708 -0.96875,-4.8125 0,-1.6418 -0.72475,-5.76425 -1.59375,-9.15625 -0.869,-3.3921 -1.3523,-6.3977 -1.0625,-6.6875 0.2899,-0.2899 4.50205,0.20775 9.34375,1.09375 7.6378,1.3975 27.04435,2.0578 38.78125,1.3125 2.9938,-0.1901 3.0032,-0.21845 3.75,6.78125 0.4107,3.85 1.2087,9.925 1.75,13.5 0.5412,3.575 1.21765,11 1.53125,16.5 0.3137,5.5 0.78825,12.025 1.03125,14.5 0.243,2.475 0.948,9.9 1.5625,16.5 0.6146,6.6 1.23435,12.9 1.40625,14 0.1719,1.1 0.3745,2.45 0.4375,3 0.2636,2.2942 5.25075,6.61685 8.03125,6.96875 2.2208,0.2811 3.7487,-0.3344 6,-2.4375 3.2421,-3.0286 3.5596,-4.55495 2.0625,-10.03125 -0.8829,-3.2297 -3.34125,-23.012 -4.46875,-36 -1.9481,-22.441 -2.06215,-23.46555 -3.65625,-35.21875 -0.9731,-7.1745 -1.04015,-10.0536 -0.21875,-10.875 1.16497,-1.16497 10.46326,-3.53358 13.3125,-3.5625 z" style="fill:#8ba43c;fill-opacity:1"></path>
    </g>
  </g>
</svg>
