<svg id="SvgjsSvg1018" width="288" height="288" xmlns="http://www.w3.org/2000/svg" version="1.1" xmlns:xlink="http://www.w3.org/1999/xlink" xmlns:svgjs="http://svgjs.com/svgjs"><defs id="SvgjsDefs1019"></defs><g id="SvgjsG1020"><svg xmlns="http://www.w3.org/2000/svg" enable-background="new 0 0 453.543 453.543" viewBox="0 0 453.543 453.543" width="288" height="288"><path fill="#e5554a" d="M222.096,268.59c-16.276-9.806-35.269-12.188-53.961-8.228c-11.001,2.331-22.565-1.245-30.33-9.378
		c-13.195-13.82-30.218-22.573-49.188-23.666c-45.645-2.629-85.228,40.045-88.412,95.316
		c-3.183,55.27,31.239,102.207,76.884,104.836c1.663,0.096,3.318,0.13,4.964,0.106c11.592-0.173,22.958,3.341,32.429,10.027
		c1.344,0.949,2.73,1.855,4.157,2.714c39.162,23.594,94.07,4.279,122.639-43.142C269.846,349.753,261.258,292.184,222.096,268.59z" class="colore5554a svgShape"></path><path fill="#d6352d" d="M149.451,415.634c-9.518-6.685-20.279-11.522-31.506-14.511c-10.506-2.796-21.153-3.889-31.115-8.533
		c-16.586-7.732-27.923-23.064-33.91-40.038c-12.35-35.012,3.129-73.033,25.495-100.387c7.202-8.809,15.18-16.283,23.77-22.697
		c-4.388-1.15-8.918-1.884-13.567-2.152c-45.645-2.629-85.228,40.045-88.412,95.316c-3.183,55.27,31.239,102.207,76.884,104.836
		c1.663,0.096,3.318,0.13,4.964,0.106c11.592-0.173,22.958,3.341,32.429,10.027c1.344,0.949,2.73,1.855,4.157,2.714
		c22.875,13.781,51.117,12.901,76.349,0.353C176.724,437.237,164.865,426.46,149.451,415.634z" class="colord6352d svgShape"></path><path fill="#e5554a" d="M370.217,229.451c-19.001,0.103-36.457,7.957-50.354,21.071c-8.179,7.718-19.914,10.686-30.778,7.785
		c-18.461-4.929-37.552-3.539-54.317,5.405c-40.339,21.521-51.915,78.564-25.855,127.41c26.06,48.845,79.886,70.996,120.225,49.474
		c1.47-0.784,2.901-1.616,4.293-2.494c9.806-6.183,21.34-9.101,32.907-8.324c1.642,0.11,3.296,0.162,4.962,0.153
		c45.72-0.247,82.541-45.326,82.242-100.687C453.242,273.883,415.937,229.204,370.217,229.451z" class="colore5554a svgShape"></path><path fill="#d6352d" d="M384.756,392.815c-11.606-0.752-23.312,0.721-34.454,4.016c-10.426,3.083-20.084,7.694-31.008,8.915
		c-18.186,2.034-35.848-5.153-49.798-16.527c-28.773-23.461-35.354-63.982-30.501-98.981c1.563-11.271,4.482-21.805,8.476-31.754
		c-4.345,1.303-8.595,3.035-12.704,5.227c-40.339,21.521-51.915,78.564-25.855,127.41s79.886,70.996,120.225,49.474
		c1.47-0.784,2.901-1.616,4.293-2.494c9.806-6.183,21.34-9.101,32.907-8.324c1.642,0.11,3.296,0.162,4.962,0.153
		c26.706-0.144,50.359-15.6,65.368-39.451C419.289,397.059,403.553,394.033,384.756,392.815z" class="colord6352d svgShape"></path><path fill="#fa807b" d="M435.691 315.408c7.189 24.883 2.132 48.199-11.296 52.079-13.428 3.88-30.142-13.147-37.331-38.03-7.189-24.883-2.131-48.199 11.297-52.079C411.789 273.498 428.502 290.525 435.691 315.408zM405.38 253.298c1.625 5.626-1.618 11.504-7.244 13.129-5.625 1.625-11.504-1.618-13.129-7.243-1.625-5.626 1.618-11.504 7.243-13.129C397.876 244.429 403.755 247.672 405.38 253.298z" class="colorff7c76 svgShape"></path><path fill="#ffffff" d="M381.689 286.931c.523-.485.651-1.264.293-1.881-2.815-4.843-4.134-8.846-3.002-9.614 1.131-.768 4.365 1.936 7.826 6.34.441.561 1.212.73 1.856.423 2.968-1.418 5.413-1.813 6.094-.81.681 1.003-.589 3.13-3.003 5.364-.523.485-.651 1.264-.293 1.881 2.815 4.843 4.134 8.846 3.002 9.614-1.132.768-4.365-1.936-7.826-6.34-.441-.561-1.213-.73-1.857-.423-2.968 1.418-5.413 1.813-6.094.81C378.005 291.293 379.275 289.166 381.689 286.931zM344.616 280.719c.843-.78 1.048-2.035.471-3.028-4.532-7.796-6.654-14.24-4.833-15.476 1.821-1.236 7.026 3.116 12.597 10.207.71.903 1.952 1.175 2.988.68 4.779-2.283 8.715-2.918 9.811-1.303 1.096 1.615-.949 5.038-4.835 8.636-.842.78-1.048 2.035-.471 3.028 4.532 7.795 6.654 14.24 4.833 15.476-1.821 1.236-7.026-3.116-12.597-10.206-.71-.903-1.952-1.175-2.988-.68-4.778 2.282-8.715 2.918-9.811 1.303C338.686 287.74 340.73 284.317 344.616 280.719z" class="colorfff svgShape"></path><path fill="#00bab5" d="M286.731,80.94c4.329-0.52,7.859-3.967,9.7-7.92c1.841-3.953,2.289-8.389,2.713-12.729
		c5.405,6.185,11.76,11.972,19.614,14.374c7.855,2.402,17.469,0.587,22.253-6.089c4.866-6.79,3.381-16.59-1.342-23.479
		s-12.033-11.496-19.211-15.768c3.83-1.596,6.039-6.016,5.703-10.152c-0.335-4.136-2.869-7.879-6.173-10.39
		c-3.304-2.511-7.321-3.916-11.365-4.848c-13.004-2.994-32.52,3.04-42.222,12.201c-2.901,9.092-2.528,23.957-2.044,33.488
		c0.484,9.531,3.769,19.167,10.448,25.983C277.964,78.835,282.251,81.479,286.731,80.94z" class="color00bab5 svgShape"></path><path fill="#561a1a" d="M265.075,15.451c-22.389,31.274-43.98,63.234-62.383,97.047c-17.465,32.09-31.823,65.857-41.604,101.091
		c-5.805,20.913-9.986,42.238-12.777,63.756c-0.14,1.078,1.556,1.068,1.695,0c4.876-37.607,14.31-74.487,28.422-109.695
		c13.669-34.107,31.494-66.371,51.255-97.296c11.744-18.379,24.162-36.316,36.856-54.048
		C267.174,15.418,265.705,14.571,265.075,15.451z" class="color561a1a svgShape"></path><path fill="#561a1a" d="M265.637,15.016c-8.491,34.728-11.201,70.811-7.716,106.403c3.416,34.893,12.693,69.163,27.598,100.909
		c8.651,18.425,19.195,35.917,31.4,52.204c0.646,0.862,2.118,0.019,1.463-0.855c-21.223-28.321-37.296-60.307-47.401-94.225
		c-10.046-33.717-14.215-69.116-12.466-104.248c1.002-20.144,3.967-40.149,8.756-59.738
		C267.53,14.408,265.896,13.956,265.637,15.016z" class="color561a1a svgShape"></path><path fill="#561a1a" d="M266.331 15.721c28.292 12.39 53.924 30.303 75.268 52.628.755.79 1.952-.41 1.198-1.198-21.435-22.42-47.198-40.451-75.611-52.893C266.197 13.825 265.333 15.285 266.331 15.721zM297.135 279.375c11.764.455 23.366-3.546 32.397-11.084.838-.7-.366-1.893-1.198-1.198-8.689 7.252-19.899 11.024-31.199 10.587C296.044 277.638 296.046 279.333 297.135 279.375zM132.593 268.691c9.329 9.899 23.777 14.131 36.978 10.881 1.058-.261.61-1.895-.451-1.634-12.63 3.11-26.414-.985-35.329-10.445C133.042 266.698 131.845 267.898 132.593 268.691z" class="color561a1a svgShape"></path><path fill="#ffffff" d="M319.157 21.531c1.572-6.907-4.956-11.341-10.764-12.916-7.341-1.991-15.107-.854-22.317 1.128-1.05.289-.604 1.924.45 1.634 6.19-1.701 12.768-2.805 19.161-1.638 5.392.984 13.403 4.457 11.836 11.341C317.282 22.142 318.915 22.595 319.157 21.531zM339.978 56.122c-4.214-9.569-11.975-17.431-21.486-21.773-.985-.45-1.847 1.01-.855 1.463 9.288 4.24 16.764 11.822 20.878 21.165C338.954 57.974 340.414 57.112 339.978 56.122z" class="colorfff svgShape"></path></svg></g></svg>