<svg xmlns="http://www.w3.org/2000/svg" id="coconut" width="512" height="512" version="1.1">
  <defs id="defs6332">
    <clipPath id="clipPath6036" clipPathUnits="userSpaceOnUse">
      <rect id="rect6038" width="565.122" height="565.122" x="2455.997" y="-966.375" ry="45.206" style="fill:#4bb7c0;fill-opacity:1;stroke:none" transform="rotate(45.776)"></rect>
    </clipPath>
    <clipPath id="clipPath6032" clipPathUnits="userSpaceOnUse">
      <rect id="rect6034" width="500" height="500" x="2488.537" y="-957.623" ry="39.997" style="fill:#4bb7c0;fill-opacity:1;stroke:none" transform="rotate(45.715)"></rect>
    </clipPath>
    <clipPath id="clipPath6028" clipPathUnits="userSpaceOnUse">
      <rect id="rect6030" width="500" height="500" x="2488.537" y="-957.623" ry="39.997" style="fill:#4bb7c0;fill-opacity:1;stroke:none" transform="rotate(45.715)"></rect>
    </clipPath>
    <clipPath id="clipPath6024" clipPathUnits="userSpaceOnUse">
      <rect id="rect6026" width="500" height="500" x="2488.537" y="-957.623" ry="39.997" style="fill:#4bb7c0;fill-opacity:1;stroke:none" transform="rotate(45.715)"></rect>
    </clipPath>
    <clipPath id="clipPath6020" clipPathUnits="userSpaceOnUse">
      <rect id="rect6022" width="566.751" height="566.751" x="217.152" y="577.214" ry="45.337" style="fill:#4bb7c0;fill-opacity:1;stroke:none" transform="rotate(45.715)"></rect>
    </clipPath>
    <clipPath id="clipPath6016" clipPathUnits="userSpaceOnUse">
      <rect id="rect6018" width="806.322" height="806.322" x="261.48" y="320.292" ry="64.501" style="fill:#4bb7c0;fill-opacity:1;stroke:none" transform="rotate(45.715)"></rect>
    </clipPath>
    <clipPath id="clipPath4233" clipPathUnits="userSpaceOnUse">
      <rect id="rect4235" width="268.864" height="268.875" x="-1025.592" y="849.091" ry="21.508" style="fill:#e74c3c;fill-opacity:1;stroke:none" transform="rotate(58.392)skewX(-.091)"></rect>
    </clipPath>
    <clipPath id="clipPath4229" clipPathUnits="userSpaceOnUse">
      <rect id="rect4231" width="268.864" height="268.875" x="-1061.605" y="907.043" ry="21.508" style="fill:#e74c3c;fill-opacity:1;stroke:none" transform="rotate(58.392)skewX(-.091)"></rect>
    </clipPath>
    <clipPath id="clipPath4225" clipPathUnits="userSpaceOnUse">
      <rect id="rect4227" width="479.327" height="525.865" x="-912.496" y="922.648" ry="42.066" style="fill:#e74c3c;fill-opacity:1;stroke:none" transform="matrix(.89784 -.44032 .49565 .86852 0 0)"></rect>
    </clipPath>
    <clipPath id="clipPath4221" clipPathUnits="userSpaceOnUse">
      <rect id="rect4223" width="500.153" height="499.848" x="-952.142" y="876.999" ry="39.985" style="fill:#e74c3c;fill-opacity:1;stroke:none" transform="rotate(58.429)skewX(-.018)"></rect>
    </clipPath>
    <clipPath id="clipPath4217" clipPathUnits="userSpaceOnUse">
      <rect id="rect4219" width="478.403" height="526.714" x="-910.738" y="924.137" ry="42.134" style="fill:#e74c3c;fill-opacity:1;stroke:none" transform="matrix(.88345 -.46852 .51827 .85522 0 0)"></rect>
    </clipPath>
    <clipPath id="clipPath4213" clipPathUnits="userSpaceOnUse">
      <rect id="rect4215" width="488.663" height="512.621" x="-930.27" y="899.411" ry="41.006" style="fill:#e74c3c;fill-opacity:1;stroke:none" transform="matrix(.87899 -.47684 .50226 .86472 0 0)"></rect>
    </clipPath>
    <clipPath id="clipPath4209" clipPathUnits="userSpaceOnUse">
      <rect id="rect4211" width="491.296" height="509.43" x="-935.281" y="893.813" ry="40.751" style="fill:#e74c3c;fill-opacity:1;stroke:none" transform="matrix(.87484 -.48441 .5032 .86417 0 0)"></rect>
    </clipPath>
    <clipPath id="clipPath4205" clipPathUnits="userSpaceOnUse">
      <rect id="rect4207" width="493.6" height="506.78" x="-939.668" y="889.162" ry="40.539" style="fill:#e74c3c;fill-opacity:1;stroke:none" transform="matrix(.87169 -.49007 .5035 .864 0 0)"></rect>
    </clipPath>
    <clipPath id="clipPath4201" clipPathUnits="userSpaceOnUse">
      <rect id="rect4203" width="255.251" height="255.261" x="-1362.528" y="-940.764" ry="20.419" style="fill:#e74c3c;fill-opacity:1;stroke:none" transform="rotate(-16.903)skewX(-.091)"></rect>
    </clipPath>
    <clipPath id="clipPath4197" clipPathUnits="userSpaceOnUse">
      <rect id="rect4199" width="255.251" height="255.261" x="768.854" y="-1027.93" ry="20.419" style="fill:#e74c3c;fill-opacity:1;stroke:none" transform="matrix(-.5241 .85166 .85249 .52274 0 0)"></rect>
    </clipPath>
    <clipPath id="clipPath4193" clipPathUnits="userSpaceOnUse">
      <rect id="rect4195" width="255.251" height="255.261" x="-631.78" y="1085.067" ry="20.419" style="fill:#e74c3c;fill-opacity:1;stroke:none" transform="rotate(58.392)skewX(-.091)"></rect>
    </clipPath>
    <clipPath id="clipPath4189" clipPathUnits="userSpaceOnUse">
      <rect id="rect4191" width="326.448" height="306.207" x="-726.835" y="1114.453" ry="24.495" style="fill:#e74c3c;fill-opacity:1;stroke:none" transform="matrix(.47084 .88222 -.81652 .57732 0 0)"></rect>
    </clipPath>
    <clipPath id="clipPath4185" clipPathUnits="userSpaceOnUse">
      <rect id="rect4187" width="197.549" height="243.216" x="941.115" y="-1122.924" ry="19.456" style="fill:#e74c3c;fill-opacity:1;stroke:none" transform="matrix(-.72847 -.68507 .93279 -.36043 0 0)"></rect>
    </clipPath>
    <clipPath id="clipPath4181" clipPathUnits="userSpaceOnUse">
      <rect id="rect4183" width="738.249" height="612.462" x="-1963.396" y="1406.331" ry="48.993" style="fill:#e74c3c;fill-opacity:1;stroke:none" transform="matrix(.3705 .92883 -.72644 .68723 0 0)"></rect>
    </clipPath>
    <clipPath id="clipPath4177" clipPathUnits="userSpaceOnUse">
      <rect id="rect4179" width="738.249" height="612.462" x="-2053.504" y="1528.117" ry="48.993" style="fill:#e74c3c;fill-opacity:1;stroke:none" transform="matrix(.3705 .92883 -.72644 .68723 0 0)"></rect>
    </clipPath>
    <clipPath id="clipPath4849-5" clipPathUnits="userSpaceOnUse">
      <rect id="rect4851-2" width="894.649" height="894.649" x="3656.212" y="248.692" ry="56.041" style="fill:url(#radialGradient4853);fill-opacity:1;stroke:none" transform="rotate(-2.917)"></rect>
    </clipPath>
    <clipPath id="clipPath4843-6" clipPathUnits="userSpaceOnUse">
      <rect id="rect4845-7" width="642.516" height="642.516" x="-4295.454" y="2284.533" ry="40.247" style="fill:url(#radialGradient4847);fill-opacity:1;stroke:none" transform="rotate(-148.28)"></rect>
    </clipPath>
    <clipPath id="clipPath4418-1-2" clipPathUnits="userSpaceOnUse">
      <rect id="rect4420-7-5" width="242.437" height="395.98" x="1637.457" y="3657.43" style="fill:#ca4638;fill-opacity:1;stroke:none" transform="rotate(-55.067)"></rect>
    </clipPath>
    <clipPath id="clipPath7715" clipPathUnits="userSpaceOnUse">
      <rect id="rect7717" width="465.032" height="465.032" x="4062.737" y="-5273.682" ry="37.2" style="fill:#b2e3ff;fill-opacity:1;stroke:none" transform="rotate(54.401)"></rect>
    </clipPath>
    <clipPath id="clipPath4185-9-5-5" clipPathUnits="userSpaceOnUse">
      <rect id="rect4187-8-3-2" width="197.549" height="243.216" x="941.115" y="-1122.924" ry="19.456" style="fill:#e74c3c;fill-opacity:1;stroke:none" transform="matrix(-.72847 -.68507 .93279 -.36043 0 0)"></rect>
    </clipPath>
    <clipPath id="clipPath5265-7-6-2-1-1" clipPathUnits="userSpaceOnUse">
      <rect id="rect5267-7-4-9-2-5" width="1470.203" height="1470.203" x="-1867.625" y="-848.461" ry="117.607" style="fill:#e74c3c;fill-opacity:1;stroke:none" transform="rotate(70.097)"></rect>
    </clipPath>
    <clipPath id="clipPath5265-7-6-2-0-1-6" clipPathUnits="userSpaceOnUse">
      <rect id="rect5267-7-4-9-8-2-1" width="1470.203" height="1470.203" x="-1867.625" y="-848.461" ry="117.607" style="fill:#e74c3c;fill-opacity:1;stroke:none" transform="rotate(70.097)"></rect>
    </clipPath>
    <clipPath id="clipPath9935" clipPathUnits="userSpaceOnUse">
      <rect id="rect9937" width="451.128" height="450.785" x="-2621.896" y="-8261.348" ry="36.06" style="fill:#466995;fill-opacity:1;stroke:none" transform="matrix(-.31913 .94771 -.957 -.2901 0 0)"></rect>
    </clipPath>
    <clipPath id="clipPath9939" clipPathUnits="userSpaceOnUse">
      <rect id="rect9941" width="500" height="500" x="5366.576" y="5442.904" ry="39.997" style="fill:#466995;fill-opacity:1;stroke:none" transform="rotate(-44.285)"></rect>
    </clipPath>
    <clipPath id="clipPath9943" clipPathUnits="userSpaceOnUse">
      <rect id="rect9945" width="623.113" height="637.416" x="-3301.734" y="-5991.097" ry="50.989" style="fill:#466995;fill-opacity:1;stroke:none" transform="matrix(-.55731 .8303 -.85636 -.51638 0 0)"></rect>
    </clipPath>
    <clipPath id="clipPath9947" clipPathUnits="userSpaceOnUse">
      <rect id="rect9949" width="636.233" height="624.321" x="5296.48" y="-3531.294" ry="49.942" style="fill:#466995;fill-opacity:1;stroke:none" transform="matrix(.83634 .5482 -.58942 .80782 0 0)"></rect>
    </clipPath>
    <clipPath id="clipPath9951" clipPathUnits="userSpaceOnUse">
      <rect id="rect9953" width="654.892" height="655.768" x="4479.811" y="-4586.372" ry="52.457" style="fill:#466995;fill-opacity:1;stroke:none" transform="matrix(.71715 .69691 -.7343 .67882 0 0)"></rect>
    </clipPath>
    <clipPath id="clipPath9955" clipPathUnits="userSpaceOnUse">
      <rect id="rect9957" width="885.004" height="1071.313" x="958.582" y="-1894.055" ry="85.698" style="fill:#466995;fill-opacity:1;stroke:none" transform="matrix(-.24754 -.96888 .90745 -.42015 0 0)"></rect>
    </clipPath>
    <clipPath id="clipPath9959" clipPathUnits="userSpaceOnUse">
      <rect id="rect9961" width="543.741" height="543.741" x="3602.674" y="-5286.065" ry="43.496" style="fill:#466995;fill-opacity:1;stroke:none" transform="rotate(55.509)"></rect>
    </clipPath>
    <clipPath id="clipPath9963" clipPathUnits="userSpaceOnUse">
      <rect id="rect9965" width="543.741" height="543.741" x="3572.045" y="-5239.7" ry="43.496" style="fill:#466995;fill-opacity:1;stroke:none" transform="rotate(55.509)"></rect>
    </clipPath>
    <clipPath id="clipPath9967" clipPathUnits="userSpaceOnUse">
      <rect id="rect9969" width="1085.297" height="1072.402" x="4004.347" y="-5574.031" ry="85.785" style="fill:#466995;fill-opacity:1;stroke:none" transform="matrix(.55347 .83287 -.81525 .5791 0 0)"></rect>
    </clipPath>
    <clipPath id="clipPath9971" clipPathUnits="userSpaceOnUse">
      <rect id="rect9973" width="568.78" height="584.632" x="-4102.1" y="-6402.598" ry="46.767" style="fill:#466995;fill-opacity:1;stroke:none" transform="matrix(-.46804 .8837 -.80116 -.59845 0 0)"></rect>
    </clipPath>
    <clipPath id="clipPath9975" clipPathUnits="userSpaceOnUse">
      <rect id="rect9977" width="499.743" height="500.412" x="4378.444" y="-4588.942" ry="40.03" style="fill:#466995;fill-opacity:1;stroke:none" transform="matrix(.71715 .69691 -.7343 .67882 0 0)"></rect>
    </clipPath>
    <clipPath id="clipPath21875-5" clipPathUnits="userSpaceOnUse">
      <path id="path21877-5" d="m -3178.125,-2737.5 a 340.625,340.625 0 1 1 -681.25,0 340.625,340.625 0 1 1 681.25,0 z" style="fill:#e74c3c;fill-opacity:1;stroke:none" transform="rotate(-90 -3127.03 -3480.957)scale(1.06422)"></path>
    </clipPath>
    <clipPath id="clipPath21871-4" clipPathUnits="userSpaceOnUse">
      <path id="path21873-9" d="m -3178.125,-2737.5 a 340.625,340.625 0 1 1 -681.25,0 340.625,340.625 0 1 1 681.25,0 z" style="fill:#e74c3c;fill-opacity:1;stroke:none" transform="translate(1469.725 553.165)scale(1.06422)"></path>
    </clipPath>
    <clipPath id="clipPath21867-7" clipPathUnits="userSpaceOnUse">
      <path id="path21869-0" d="m -3178.125,-2737.5 a 340.625,340.625 0 1 1 -681.25,0 340.625,340.625 0 1 1 681.25,0 z" style="fill:#e74c3c;fill-opacity:1;stroke:none" transform="rotate(-90 -2811.594 -3546.37)scale(1.06422)"></path>
    </clipPath>
    <clipPath id="clipPath21863-4" clipPathUnits="userSpaceOnUse">
      <path id="path21865-7" d="m -3178.125,-2737.5 a 340.625,340.625 0 1 1 -681.25,0 340.625,340.625 0 1 1 681.25,0 z" style="fill:#e74c3c;fill-opacity:1;stroke:none" transform="translate(1356.037 329.48)scale(1.06422)"></path>
    </clipPath>
    <clipPath id="clipPath21859-2" clipPathUnits="userSpaceOnUse">
      <path id="path21861-6" d="m -3178.125,-2737.5 a 340.625,340.625 0 1 1 -681.25,0 340.625,340.625 0 1 1 681.25,0 z" style="fill:#e74c3c;fill-opacity:1;stroke:none" transform="translate(964.919 446.595)scale(1.06422)"></path>
    </clipPath>
    <clipPath id="clipPath21855-9" clipPathUnits="userSpaceOnUse">
      <path id="path21857-6" d="m -3178.125,-2737.5 a 340.625,340.625 0 1 1 -681.25,0 340.625,340.625 0 1 1 681.25,0 z" style="fill:#e74c3c;fill-opacity:1;stroke:none" transform="translate(1172.85 406.29)scale(1.06422)"></path>
    </clipPath>
    <clipPath id="clipPath21851-2" clipPathUnits="userSpaceOnUse">
      <path id="path21853-1" d="m -3178.125,-2737.5 a 340.625,340.625 0 1 1 -681.25,0 340.625,340.625 0 1 1 681.25,0 z" style="fill:#e74c3c;fill-opacity:1;stroke:none" transform="translate(1110.76 623.372)scale(1.06422)"></path>
    </clipPath>
    <clipPath id="clipPath21847-7" clipPathUnits="userSpaceOnUse">
      <path id="path21849-5" d="m -3178.125,-2737.5 a 340.625,340.625 0 1 1 -681.25,0 340.625,340.625 0 1 1 681.25,0 z" style="fill:#e74c3c;fill-opacity:1;stroke:none" transform="rotate(-90 -2936.442 -3207.18)scale(1.06422)"></path>
    </clipPath>
    <clipPath id="clipPath21843-8" clipPathUnits="userSpaceOnUse">
      <path id="path21845-6" d="m -3178.125,-2737.5 a 340.625,340.625 0 1 1 -681.25,0 340.625,340.625 0 1 1 681.25,0 z" style="fill:#e74c3c;fill-opacity:1;stroke:none" transform="rotate(90 -3446.014 -2172.656)scale(1.06422)"></path>
    </clipPath>
    <clipPath id="clipPath21839-9" clipPathUnits="userSpaceOnUse">
      <path id="path21841-1" d="m -3178.125,-2737.5 a 340.625,340.625 0 1 1 -681.25,0 340.625,340.625 0 1 1 681.25,0 z" style="fill:#e74c3c;fill-opacity:1;stroke:none" transform="translate(1283.117 243.302)scale(1.06422)"></path>
    </clipPath>
    <clipPath id="clipPath21835-5" clipPathUnits="userSpaceOnUse">
      <path id="path21837-5" d="m -3178.125,-2737.5 a 340.625,340.625 0 1 1 -681.25,0 340.625,340.625 0 1 1 681.25,0 z" style="fill:#e74c3c;fill-opacity:1;stroke:none" transform="rotate(-90 -2700.003 -3282.31)scale(1.06422)"></path>
    </clipPath>
    <clipPath id="clipPath21831-1" clipPathUnits="userSpaceOnUse">
      <path id="path21833-5" d="m -3178.125,-2737.5 a 340.625,340.625 0 1 1 -681.25,0 340.625,340.625 0 1 1 681.25,0 z" style="fill:#e74c3c;fill-opacity:1;stroke:none" transform="translate(1472.85 181.29)scale(1.06422)"></path>
    </clipPath>
    <clipPath id="clipPath21827-8" clipPathUnits="userSpaceOnUse">
      <path id="path21829-1" d="m -3178.125,-2737.5 a 340.625,340.625 0 1 1 -681.25,0 340.625,340.625 0 1 1 681.25,0 z" style="fill:#e74c3c;fill-opacity:1;stroke:none" transform="translate(1300.975 87.54)scale(1.06422)"></path>
    </clipPath>
    <clipPath id="clipPath21823-2" clipPathUnits="userSpaceOnUse">
      <path id="path21825-7" d="m -3178.125,-2737.5 a 340.625,340.625 0 1 1 -681.25,0 340.625,340.625 0 1 1 681.25,0 z" style="fill:#e74c3c;fill-opacity:1;stroke:none" transform="rotate(-22.719 -2390.489 -4840.25)scale(1.06422)"></path>
    </clipPath>
    <clipPath id="clipPath21819-7" clipPathUnits="userSpaceOnUse">
      <path id="path21821-3" d="m -3178.125,-2737.5 a 340.625,340.625 0 1 1 -681.25,0 340.625,340.625 0 1 1 681.25,0 z" style="fill:#e74c3c;fill-opacity:1;stroke:none" transform="rotate(-90 -3025.467 -3126.27)scale(1.06422)"></path>
    </clipPath>
    <clipPath id="clipPath21875" clipPathUnits="userSpaceOnUse">
      <path id="path21877" d="m -3178.125,-2737.5 a 340.625,340.625 0 1 1 -681.25,0 340.625,340.625 0 1 1 681.25,0 z" style="fill:#e74c3c;fill-opacity:1;stroke:none" transform="rotate(-90 -3127.03 -3480.957)scale(1.06422)"></path>
    </clipPath>
    <clipPath id="clipPath21871" clipPathUnits="userSpaceOnUse">
      <path id="path21873" d="m -3178.125,-2737.5 a 340.625,340.625 0 1 1 -681.25,0 340.625,340.625 0 1 1 681.25,0 z" style="fill:#e74c3c;fill-opacity:1;stroke:none" transform="translate(1469.725 553.165)scale(1.06422)"></path>
    </clipPath>
    <clipPath id="clipPath21867" clipPathUnits="userSpaceOnUse">
      <path id="path21869" d="m -3178.125,-2737.5 a 340.625,340.625 0 1 1 -681.25,0 340.625,340.625 0 1 1 681.25,0 z" style="fill:#e74c3c;fill-opacity:1;stroke:none" transform="rotate(-90 -2811.594 -3546.37)scale(1.06422)"></path>
    </clipPath>
    <clipPath id="clipPath21863" clipPathUnits="userSpaceOnUse">
      <path id="path21865" d="m -3178.125,-2737.5 a 340.625,340.625 0 1 1 -681.25,0 340.625,340.625 0 1 1 681.25,0 z" style="fill:#e74c3c;fill-opacity:1;stroke:none" transform="translate(1356.037 329.48)scale(1.06422)"></path>
    </clipPath>
    <clipPath id="clipPath21859" clipPathUnits="userSpaceOnUse">
      <path id="path21861" d="m -3178.125,-2737.5 a 340.625,340.625 0 1 1 -681.25,0 340.625,340.625 0 1 1 681.25,0 z" style="fill:#e74c3c;fill-opacity:1;stroke:none" transform="translate(964.919 446.595)scale(1.06422)"></path>
    </clipPath>
    <clipPath id="clipPath21855" clipPathUnits="userSpaceOnUse">
      <path id="path21857" d="m -3178.125,-2737.5 a 340.625,340.625 0 1 1 -681.25,0 340.625,340.625 0 1 1 681.25,0 z" style="fill:#e74c3c;fill-opacity:1;stroke:none" transform="translate(1172.85 406.29)scale(1.06422)"></path>
    </clipPath>
    <clipPath id="clipPath21851" clipPathUnits="userSpaceOnUse">
      <path id="path21853" d="m -3178.125,-2737.5 a 340.625,340.625 0 1 1 -681.25,0 340.625,340.625 0 1 1 681.25,0 z" style="fill:#e74c3c;fill-opacity:1;stroke:none" transform="translate(1110.76 623.372)scale(1.06422)"></path>
    </clipPath>
    <clipPath id="clipPath21847" clipPathUnits="userSpaceOnUse">
      <path id="path21849" d="m -3178.125,-2737.5 a 340.625,340.625 0 1 1 -681.25,0 340.625,340.625 0 1 1 681.25,0 z" style="fill:#e74c3c;fill-opacity:1;stroke:none" transform="rotate(-90 -2936.442 -3207.18)scale(1.06422)"></path>
    </clipPath>
    <clipPath id="clipPath21843" clipPathUnits="userSpaceOnUse">
      <path id="path21845" d="m -3178.125,-2737.5 a 340.625,340.625 0 1 1 -681.25,0 340.625,340.625 0 1 1 681.25,0 z" style="fill:#e74c3c;fill-opacity:1;stroke:none" transform="rotate(90 -3446.014 -2172.656)scale(1.06422)"></path>
    </clipPath>
    <clipPath id="clipPath21839" clipPathUnits="userSpaceOnUse">
      <path id="path21841" d="m -3178.125,-2737.5 a 340.625,340.625 0 1 1 -681.25,0 340.625,340.625 0 1 1 681.25,0 z" style="fill:#e74c3c;fill-opacity:1;stroke:none" transform="translate(1283.117 243.302)scale(1.06422)"></path>
    </clipPath>
    <clipPath id="clipPath21835" clipPathUnits="userSpaceOnUse">
      <path id="path21837" d="m -3178.125,-2737.5 a 340.625,340.625 0 1 1 -681.25,0 340.625,340.625 0 1 1 681.25,0 z" style="fill:#e74c3c;fill-opacity:1;stroke:none" transform="rotate(-90 -2700.003 -3282.31)scale(1.06422)"></path>
    </clipPath>
    <clipPath id="clipPath21831" clipPathUnits="userSpaceOnUse">
      <path id="path21833" d="m -3178.125,-2737.5 a 340.625,340.625 0 1 1 -681.25,0 340.625,340.625 0 1 1 681.25,0 z" style="fill:#e74c3c;fill-opacity:1;stroke:none" transform="translate(1472.85 181.29)scale(1.06422)"></path>
    </clipPath>
    <clipPath id="clipPath21827" clipPathUnits="userSpaceOnUse">
      <path id="path21829" d="m -3178.125,-2737.5 a 340.625,340.625 0 1 1 -681.25,0 340.625,340.625 0 1 1 681.25,0 z" style="fill:#e74c3c;fill-opacity:1;stroke:none" transform="translate(1300.975 87.54)scale(1.06422)"></path>
    </clipPath>
    <clipPath id="clipPath21823" clipPathUnits="userSpaceOnUse">
      <path id="path21825" d="m -3178.125,-2737.5 a 340.625,340.625 0 1 1 -681.25,0 340.625,340.625 0 1 1 681.25,0 z" style="fill:#e74c3c;fill-opacity:1;stroke:none" transform="rotate(-22.719 -2390.489 -4840.25)scale(1.06422)"></path>
    </clipPath>
    <clipPath id="clipPath21819" clipPathUnits="userSpaceOnUse">
      <path id="path21821" d="m -3178.125,-2737.5 a 340.625,340.625 0 1 1 -681.25,0 340.625,340.625 0 1 1 681.25,0 z" style="fill:#e74c3c;fill-opacity:1;stroke:none" transform="rotate(-90 -3025.467 -3126.27)scale(1.06422)"></path>
    </clipPath>
    <clipPath id="clipPath36398" clipPathUnits="userSpaceOnUse">
      <path id="path36400" d="m -26.069721,50.047192 a 38.553814,38.553814 0 1 1 -77.107629,0 38.553814,38.553814 0 1 1 77.107629,0 z" style="fill:#4bb7c0;fill-opacity:1;stroke:none" transform="translate(-465.55 230.488)"></path>
    </clipPath>
    <clipPath id="clipPath4941" clipPathUnits="userSpaceOnUse">
      <path id="path4943" d="m -234.28571,83.428574 a 405.71429,405.71429 0 1 1 -811.42859,0 405.71429,405.71429 0 1 1 811.42859,0 z" style="fill:#3498db;fill-opacity:1;stroke:none" transform="matrix(.6162 0 0 .6162 650.366 204.592)"></path>
    </clipPath>
  </defs>
  <g id="layer1" transform="translate(0 -540.362)">
    <g id="g5097" transform="matrix(.6986 0 0 .6986 659.005 271.305)">
      <g id="g5083" transform="matrix(-1 0 0 1 -1153.745 -48.571)">
        <path id="path5085" d="m -689.28501,567.77546 c -28.79278,-0.0121 -42.71776,0.87646 -53.06353,3.37964 -15.20114,3.67796 -15.86913,3.85413 -25.26835,6.69612 -5.00314,1.51276 -12.31095,3.46196 -16.23492,4.35879 -3.92407,0.89672 -8.34669,2.43839 -9.82307,3.41122 -1.47638,0.97283 -3.10189,1.76879 -3.63232,1.76879 -0.53044,0 -2.24803,0.6876 -3.82184,1.5161 -1.57371,0.8284 -7.65,3.6019 -13.48698,6.15916 -5.83699,2.55716 -13.11428,5.90107 -16.17175,7.45416 -27.77861,14.11046 -28.83836,14.82803 -44.53547,30.35361 -9.15138,9.05152 -12.94093,13.90578 -17.43516,22.23615 -1.04964,1.94566 -2.76855,4.47451 -3.82183,5.6222 -1.05339,1.14759 -1.92672,2.35345 -1.92672,2.68477 0,0.8004 -8.18376,15.30337 -9.00185,15.95064 -0.7445,0.58896 -4.12677,6.98665 -12.41307,23.46798 -3.27519,6.51449 -6.58691,14.70143 -7.35941,18.19321 -0.7724,3.49189 -2.60749,11.57923 -4.04294,17.97212 -5.52386,24.60025 -4.21895,60.27987 3.12696,85.91239 2.18127,7.61103 5.39106,17.06826 7.01197,20.72005 0.74026,1.66771 1.82887,4.95891 2.43208,7.29623 0.6031,2.33732 2.22563,5.56723 3.60074,7.20148 1.3751,1.63426 2.49525,3.43326 2.49525,3.97977 0,0.5466 0.64757,1.54258 1.45293,2.21098 0.80545,0.6685 2.01949,2.88716 2.68476,4.92733 0.66516,2.04016 2.03476,4.77263 3.06379,6.09598 1.02913,1.32326 2.36572,4.23442 2.96903,6.47502 0.60341,2.2407 2.67981,6.40138 4.57989,9.22295 1.90018,2.82146 3.44281,5.5181 3.44281,6.00123 0,0.99517 3.26775,5.13276 9.3177,11.78137 2.26981,2.49409 4.7595,6.02655 5.52746,7.86477 0.76805,1.83812 2.14311,3.62652 3.06378,3.97977 0.92058,0.35335 3.06713,2.22654 4.7694,4.16928 8.22728,9.3887 16.1817,15.45569 29.59556,22.52041 4.30431,2.26657 8.96046,4.91429 10.36002,5.87489 4.47311,3.07102 19.86168,10.12549 28.01629,12.85528 4.34292,1.45384 10.39792,3.76988 13.45539,5.14842 5.81011,2.61902 7.42506,3.12565 18.19321,5.78014 3.61338,0.89076 7.93427,2.08888 9.60198,2.65318 1.66771,0.56419 9.17241,1.36054 16.67711,1.76878 7.5047,0.40783 14.09974,0.61943 14.65564,0.47378 0.55591,-0.14554 5.10421,-0.69351 10.10734,-1.23183 5.00313,-0.53822 10.4611,-1.20116 12.12881,-1.45293 2.82349,-0.42623 8.18846,-0.92139 23.24688,-2.21098 3.33542,-0.28563 10.15788,-1.14122 15.16101,-1.89513 5.00314,-0.7539 9.38684,-1.20019 9.7599,-0.97915 0.37357,0.22085 7.42334,-0.0979 15.66638,-0.69488 16.40613,-1.18741 25.85341,-3.8796 30.03775,-8.59123 1.61242,-1.81528 3.51579,-2.53573 7.54892,-2.90587 8.42699,-0.7727 12.47781,-1.71218 16.4876,-3.72708 4.41296,-2.21785 12.67708,-7.58237 15.50845,-10.07575 2.38331,-2.09889 14.06285,-8.3758 17.68784,-9.50722 1.38976,-0.43411 5.38989,-3.44539 8.87551,-6.69611 3.48602,-3.25133 7.76395,-6.66306 9.5388,-7.58051 1.77445,-0.91805 4.13466,-2.76855 5.2116,-4.13769 1.07694,-1.36914 3.70338,-4.11606 5.84331,-6.09599 2.14033,-1.98033 3.88501,-4.16725 3.88501,-4.86416 0,-0.69669 1.52575,-2.82894 3.37964,-4.73781 1.85338,-1.90887 3.66664,-4.11637 4.04293,-4.89574 0.37579,-0.77948 1.46542,-2.6503 2.43208,-4.1377 11.73008,-18.04857 14.98272,-24.78233 21.54127,-44.69339 1.08189,-3.28448 2.53179,-6.65462 3.22172,-7.48575 3.78418,-4.55891 7.05871,-89.28804 3.94817,-102.27365 -1.37934,-5.76017 -4.5246,-16.72532 -6.79086,-23.75225 -2.75274,-8.53534 -11.97089,-27.0152 -18.667,-37.39715 -1.07582,-1.66771 -2.43572,-4.08084 -3.00061,-5.36953 -0.5648,-1.28878 -2.0334,-3.79035 -3.28489,-5.55903 -2.94568,-4.16291 -4.30421,-6.36733 -6.9488,-11.30759 -7.97994,-14.90691 -32.95745,-40.69008 -49.05218,-50.63146 -10.23095,-6.31931 -19.01347,-11.07244 -26.12116,-14.11869 -10.92088,-4.68051 -13.59078,-5.84982 -19.36187,-8.59124 -3.4272,-1.62778 -6.71213,-2.96903 -7.29624,-2.96903 -0.584,0 -3.24632,-0.73692 -5.90647,-1.64244 -2.65965,-0.90552 -8.21106,-2.16899 -12.34991,-2.81111 -7.19562,-1.11645 -7.56464,-1.309 -8.33856,-4.29562 -0.44512,-1.71784 -1.51463,-3.71262 -2.3689,-4.42196 -2.15378,-1.78718 -10.83512,-2.39038 -33.82801,-2.40049 z" style="fill:#5f4431;fill-opacity:1"></path>
        <path id="path5087" d="m -727.66131,586.53721 c 0.31039,-0.0101 0.56965,0.0104 0.75805,0.0315 2.44051,0.28138 1.9167,0.79448 -4.83258,4.7694 -4.16927,2.45537 -9.02676,5.57809 -10.80222,6.91721 -1.77555,1.33912 -7.99985,4.85506 -13.83442,7.83319 -8.84867,4.51666 -11.82751,6.70743 -17.87735,13.07637 -7.45892,7.85239 -19.2605,22.13548 -20.49895,24.82615 -0.38398,0.83386 -1.46542,2.68431 -2.43208,4.10611 -6.57735,9.67373 -10.34992,15.7719 -10.36003,16.80345 -0.0101,0.6594 -2.26621,6.5722 -5.02208,13.13954 -4.02697,9.59682 -5.70286,15.51052 -8.52807,30.13251 -5.86256,30.34193 -6.5918,39.08842 -5.11684,61.14941 0.59492,8.8988 2.14847,17.71266 5.46428,31.11165 1.06168,4.29037 2.66061,11.21283 3.56916,15.38211 0.90844,4.16928 2.61729,10.08207 3.79025,13.13954 2.74323,7.15064 13.61176,28.19574 15.91906,30.82739 0.97485,1.11181 3.04625,4.25898 4.61147,6.98038 1.56502,2.7214 4.94537,7.24388 7.48575,10.07576 9.27349,10.33758 28.86662,29.20829 36.16533,34.80715 8.6164,6.6101 20.47186,14.26777 22.14139,14.3082 0.62676,0.0152 1.76383,0.78191 2.52683,1.70562 0.76291,0.92371 3.68479,2.71215 6.47502,3.94818 2.79053,1.23643 8.01992,4.27045 11.65503,6.75928 8.04392,5.50678 27.65802,13.44696 35.50203,14.37137 5.23297,0.61665 9.05193,2.72914 7.5805,4.20087 -0.32454,0.32434 -2.98702,0.805 -5.93806,1.04232 -2.95104,0.23722 -7.41626,0.83764 -9.91783,1.35817 -2.50156,0.52012 -11.59817,1.66781 -20.21468,2.52684 -18.71505,1.8651 -35.92421,3.17693 -37.0813,2.84268 -0.45989,-0.1327 -5.36953,-0.70832 -10.92856,-1.26341 -16.56664,-1.65397 -29.62942,-4.94436 -38.81851,-9.82307 -2.44547,-1.29829 -5.05862,-2.36891 -5.81172,-2.36891 -0.75299,0 -3.07409,-0.90997 -5.14842,-2.02147 -2.07443,-1.11201 -4.32124,-2.02147 -5.02209,-2.02147 -1.33346,-3e-4 -14.77051,-5.83178 -19.99358,-8.68599 -1.66771,-0.91128 -5.5086,-3.02725 -8.52807,-4.67465 -7.27951,-3.97168 -15.99628,-9.91323 -20.02516,-13.67649 -1.79355,-1.6758 -3.95885,-3.3092 -4.80099,-3.63233 -0.84214,-0.32313 -1.5161,-1.01589 -1.5161,-1.5161 0,-0.50021 -1.93303,-2.9191 -4.29562,-5.36952 -2.36259,-2.45043 -6.56977,-7.51375 -9.34929,-11.276 -2.77952,-3.76206 -5.5085,-7.4004 -6.06441,-8.08588 -2.96549,-3.65602 -5.51961,-7.94164 -8.27538,-13.83442 -4.89418,-10.46494 -5.34527,-11.35034 -8.40173,-16.67711 -1.59483,-2.77952 -3.95732,-7.10041 -5.24318,-9.60197 -1.28585,-2.50157 -2.62669,-4.77572 -2.96903,-5.05367 -0.98617,-0.80071 -8.61625,-23.9451 -10.83381,-32.84886 -4.47553,-17.96943 -5.31782,-48.68908 -1.80037,-66.20307 3.98573,-19.84556 9.55761,-37.72191 13.20272,-42.45083 0.64282,-0.83386 1.80982,-2.88059 2.59,-4.54831 1.72563,-3.68867 10.22408,-18.34098 14.65565,-25.26835 11.61485,-18.15601 15.74263,-23.71419 23.08895,-31.11165 7.63761,-7.69098 22.34799,-18.91968 24.79457,-18.91968 0.57956,0 3.36231,-1.36449 6.19075,-3.0322 2.82843,-1.66771 5.39085,-3.0322 5.68537,-3.0322 0.29453,0 5.14525,-2.33116 10.80222,-5.18001 10.90946,-5.49415 35.88298,-14.92258 45.16718,-17.05614 3.05747,-0.70266 6.4687,-1.74776 7.58051,-2.33732 1.1118,-0.58956 4.0682,-1.39542 6.56977,-1.76879 2.50166,-0.37326 8.99336,-1.68368 14.43454,-2.90586 4.76116,-1.06936 9.70365,-1.86233 11.87613,-1.92671 z" style="fill:#775435;fill-opacity:1"></path>
        <path id="path5089" d="m -663.95349,593.32808 c 5.71136,-0.0293 10.16819,0.0778 10.67588,0.37902 0.48697,0.28867 3.15855,0.80182 5.93806,1.13708 4.42813,0.53407 8.76352,1.90766 26.12116,8.33856 2.13609,0.7915 5.77473,2.42914 8.08587,3.63232 2.31074,1.20308 4.93708,2.30569 5.84331,2.46367 2.40464,0.41905 15.18749,7.22705 17.5615,9.34929 1.11757,0.99911 4.52304,3.23086 7.58051,4.95891 5.46817,3.09062 21.62991,18.04281 28.04787,25.96323 5.94604,7.33783 11.90862,16.07047 15.88747,23.24688 5.90127,10.64515 6.99458,12.55059 11.4971,19.89883 4.85173,7.9194 14.3082,27.31079 14.3082,29.34287 0,0.7723 0.39116,1.8408 0.8844,2.36891 0.49323,0.5281 1.67524,4.08139 2.62159,7.92794 0.94584,3.84655 2.10748,8.04822 2.59,9.3177 0.48293,1.26939 1.12823,4.27566 1.42135,6.66453 0.29311,2.38877 0.91249,7.51102 1.38976,11.40235 0.47716,3.89132 0.79918,9.5767 0.69488,12.63417 -0.25936,7.60972 -1.45324,26.4873 -2.14781,33.85959 -0.31404,3.33542 -0.49764,9.1905 -0.41061,13.0132 0.20406,8.97714 -3.96188,30.13433 -7.13831,36.26008 -0.50011,0.96535 -0.91598,2.22448 -0.91598,2.81111 0,1.66184 -5.93038,13.91654 -7.07514,14.62405 -0.56227,0.34749 -1.01073,1.66665 -1.01073,2.93745 0,1.2708 -0.97213,3.1735 -2.14781,4.23245 -1.17559,1.05904 -2.54139,2.83627 -3.0322,3.94818 -0.49072,1.11181 -1.43085,2.93103 -2.11623,4.04293 -0.68507,1.11181 -2.50945,4.06811 -4.04293,6.56977 -1.53298,2.50157 -4.05552,5.95682 -5.59063,7.67527 -1.5352,1.71834 -4.1574,4.67474 -5.8433,6.56977 -5.01112,5.63191 -17.42228,15.11456 -24.60506,18.79333 -3.68776,1.88917 -10.87337,6.29597 -15.98223,9.79149 -7.8154,5.34719 -10.54095,6.60767 -17.18248,8.0227 -12.70796,2.70826 -28.94479,2.42682 -35.69154,-0.60012 -0.83386,-0.37408 -2.65318,-0.8847 -4.04294,-1.13708 -4.21244,-0.76492 -9.09661,-2.75951 -9.09661,-3.72708 0,-0.50153 -1.06445,-0.91598 -2.3689,-0.91598 -1.30425,-3e-4 -6.19378,-2.27476 -10.86539,-5.05367 -4.67141,-2.77932 -9.17873,-5.08879 -10.01259,-5.14843 -3.48137,-0.24763 -7.63185,0.33638 -8.52807,1.20025 -1.55946,1.50316 -3.52928,1.06612 -6.94879,-1.5161 -1.76959,-1.33629 -8.45226,-5.25107 -14.84516,-8.71758 -6.39289,-3.46652 -13.21534,-7.52325 -15.16101,-9.00185 -1.94566,-1.4782 -6.19443,-4.27227 -9.44404,-6.19075 -7.87595,-4.64927 -26.32624,-20.39939 -32.56459,-27.82677 -2.75496,-3.28003 -5.49814,-6.42458 -6.09599,-6.98038 -0.59785,-0.556 -3.32683,-3.73982 -6.0644,-7.07514 -2.73758,-3.33552 -5.22464,-6.29192 -5.52745,-6.56977 -0.78646,-0.72196 -4.70871,-7.51511 -8.78076,-15.16101 -1.92433,-3.61347 -3.90431,-7.07428 -4.39037,-7.67526 -1.45364,-1.79698 -7.99112,-22.80443 -7.99112,-25.67896 0,-2.7873 -2.44865,-12.19764 -4.07452,-15.66638 -0.52113,-1.11191 -1.39734,-5.43269 -1.9583,-9.60197 -0.56095,-4.16928 -1.51958,-10.30959 -2.11622,-13.64491 -2.08565,-11.66063 0.091,-40.22433 4.67464,-61.62319 3.08871,-14.41974 4.00135,-17.61128 7.04356,-24.2892 1.26624,-2.77952 3.84948,-8.4649 5.74855,-12.63417 1.89896,-4.16928 4.13658,-8.26286 4.95891,-9.09661 0.82243,-0.83396 3.20898,-4.29522 5.30635,-7.70685 3.88698,-6.32274 17.50844,-22.82338 21.28859,-25.77371 1.14799,-0.89602 4.81362,-3.12605 8.14904,-4.95892 3.33542,-1.83296 9.77506,-5.74845 14.3082,-8.71758 4.53325,-2.96903 8.50189,-5.40111 8.84393,-5.40111 0.34233,0 2.57595,-1.23507 4.92733,-2.74793 11.57452,-7.44648 16.7,-9.25696 32.56458,-11.46552 4.29067,-0.59744 17.32863,-1.02589 26.84762,-1.0739 z" style="fill:#ececec;fill-opacity:1"></path>
        <path id="path5091" d="m -692.94892,642.50661 c -11.97588,0.0283 -13.47354,0.43653 -22.52042,3.34805 -13.69696,4.40781 -17.31033,6.38157 -24.00493,13.07637 -8.61095,8.61085 -12.72428,14.91626 -17.97211,27.51092 -9.21587,22.11799 -9.14538,21.88467 -12.28674,45.38827 -2.84016,21.25018 0.13751,59.41049 5.40111,69.33004 0.58785,1.10776 1.83732,4.0682 2.77952,6.56977 3.8233,10.15161 12.665,29.25954 14.9715,32.34349 1.03934,1.38976 5.02446,6.74478 8.84392,11.90771 7.16813,9.6896 12.18015,14.66363 25.20518,24.95249 4.16928,3.29348 7.80792,6.2757 8.08587,6.60136 1.19297,1.39744 9.87113,8.08587 10.48637,8.08587 0.37164,-10e-5 2.49131,1.18731 4.70623,2.65318 2.21532,1.46566 4.81064,2.7732 5.78013,2.87427 1.99651,0.20761 5.32783,1.54557 11.59186,4.64306 2.36997,1.17205 6.37394,2.4906 8.87551,2.93745 6.88805,1.23047 7.52547,1.18903 16.45601,-0.88439 4.56639,-1.06016 12.02809,-2.38705 16.58235,-2.96903 5.09127,-0.65071 10.23859,-2.05013 13.36064,-3.63233 2.79317,-1.41533 5.66668,-2.59001 6.38026,-2.59001 2.23504,-0.0101 24.45815,-15.92421 38.97643,-27.92152 10.64364,-8.79531 14.7268,-16.21905 21.16225,-38.28155 4.56528,-15.65233 5.44593,-20.27917 5.87489,-31.33276 0.43916,-11.30758 -1.00801,-23.19255 -3.66391,-30.29043 -1.11454,-2.97975 -2.90915,-8.74679 -4.01135,-12.82369 -1.10221,-4.0769 -3.08911,-9.69673 -4.42196,-12.47625 -1.33286,-2.77952 -3.21616,-6.87299 -4.16928,-9.0966 -5.35376,-12.49055 -9.68152,-20.53347 -17.30882,-32.09081 -9.9995,-15.15201 -16.70324,-22.66222 -27.38458,-30.73263 -4.28996,-3.24122 -8.02902,-6.16704 -8.30697,-6.47501 -0.73874,-0.8186 -17.78053,-8.51913 -24.25761,-10.96015 -8.51048,-3.20736 -18.17538,-5.89015 -23.6575,-6.56977 -2.72362,-0.33759 -5.60406,-1.16154 -6.41184,-1.83196 -1.01932,-0.84598 -6.91903,-1.23309 -19.2987,-1.26341 -2.19006,-0.0101 -4.13244,0 -5.84331,0 z" style="fill:#5f4431;fill-opacity:1"></path>
        <path id="path5093" d="m -692.56989,659.31006 c 9.64978,-0.0738 21.89927,1.22001 26.0264,2.87427 1.11181,0.44564 4.75045,1.35004 8.08587,2.02147 6.85702,1.38026 21.09725,6.8266 26.78445,10.23368 0.83386,0.49951 2.65318,1.46345 4.04294,2.14781 1.38976,0.68427 3.00036,1.71178 3.60074,2.27415 0.60027,0.56248 4.0115,3.22273 7.5805,5.93807 7.1094,5.40914 13.61095,13.17719 23.37323,27.95311 6.36044,9.62724 7.86522,12.40903 13.96076,25.74213 1.77899,3.89133 3.87723,8.43963 4.64306,10.10734 5.84083,12.72352 10.20846,31.06203 10.32844,43.24047 0.0536,5.43865 0.35062,10.25253 0.63171,10.70746 0.49071,0.79383 -0.37564,4.66292 -3.94818,17.81419 -6.25806,23.04018 -8.61656,27.40332 -20.05676,36.89179 -4.96129,4.1148 -11.02003,8.77847 -13.45539,10.39161 -2.43547,1.61313 -4.42196,3.34997 -4.42196,3.85342 0,0.50355 -0.61044,0.91598 -1.35818,0.91598 -0.74744,0 -2.16312,0.8616 -3.12696,1.92671 -4.16766,4.6051 -26.81174,10.72121 -35.94423,9.69673 -3.95176,-0.44361 -6.64623,-0.17466 -9.3177,0.94756 -4.548,1.91069 -4.87073,1.93045 -7.39099,0.28427 -1.09685,-0.71621 -4.49145,-2.40166 -7.54892,-3.75867 -12.06493,-5.35477 -22.22539,-12.73666 -41.40851,-30.00616 -9.00989,-8.11135 -10.14671,-9.30022 -14.18186,-14.93992 -9.78603,-13.67755 -12.63094,-19.0451 -18.69858,-35.40727 -8.53151,-23.00663 -10.59143,-43.45469 -7.10672,-70.24601 2.47872,-19.05962 5.30984,-28.68418 13.23429,-45.00925 4.49888,-9.26793 6.35535,-11.92085 11.02332,-15.95065 7.62963,-6.58705 16.83256,-9.74989 30.70105,-10.51795 1.24027,-0.0687 2.56964,-0.11583 3.94818,-0.12634 z" style="fill:#d5d5d5;fill-opacity:1"></path>
        <path id="path5095" d="m -785.43108,754.16113 c -0.5559,0 -0.72257,0.45483 -0.37902,1.01073 0.34354,0.55591 1.08653,1.01074 1.64244,1.01074 0.5559,0 0.72257,-0.45483 0.37902,-1.01074 -0.34355,-0.5559 -1.08654,-1.01073 -1.64244,-1.01073 z" style="fill:#3b3c3d"></path>
      </g>
      <g id="g5075">
        <path id="path5073" d="m -689.28501,567.77546 c -28.79278,-0.0121 -42.71776,0.87646 -53.06353,3.37964 -15.20114,3.67796 -15.86913,3.85413 -25.26835,6.69612 -5.00314,1.51276 -12.31095,3.46196 -16.23492,4.35879 -3.92407,0.89672 -8.34669,2.43839 -9.82307,3.41122 -1.47638,0.97283 -3.10189,1.76879 -3.63232,1.76879 -0.53044,0 -2.24803,0.6876 -3.82184,1.5161 -1.57371,0.8284 -7.65,3.6019 -13.48698,6.15916 -5.83699,2.55716 -13.11428,5.90107 -16.17175,7.45416 -27.77861,14.11046 -28.83836,14.82803 -44.53547,30.35361 -9.15138,9.05152 -12.94093,13.90578 -17.43516,22.23615 -1.04964,1.94566 -2.76855,4.47451 -3.82183,5.6222 -1.05339,1.14759 -1.92672,2.35345 -1.92672,2.68477 0,0.8004 -8.18376,15.30337 -9.00185,15.95064 -0.7445,0.58896 -4.12677,6.98665 -12.41307,23.46798 -3.27519,6.51449 -6.58691,14.70143 -7.35941,18.19321 -0.7724,3.49189 -2.60749,11.57923 -4.04294,17.97212 -5.52386,24.60025 -4.21895,60.27987 3.12696,85.91239 2.18127,7.61103 5.39106,17.06826 7.01197,20.72005 0.74026,1.66771 1.82887,4.95891 2.43208,7.29623 0.6031,2.33732 2.22563,5.56723 3.60074,7.20148 1.3751,1.63426 2.49525,3.43326 2.49525,3.97977 0,0.5466 0.64757,1.54258 1.45293,2.21098 0.80545,0.6685 2.01949,2.88716 2.68476,4.92733 0.66516,2.04016 2.03476,4.77263 3.06379,6.09598 1.02913,1.32326 2.36572,4.23442 2.96903,6.47502 0.60341,2.2407 2.67981,6.40138 4.57989,9.22295 1.90018,2.82146 3.44281,5.5181 3.44281,6.00123 0,0.99517 3.26775,5.13276 9.3177,11.78137 2.26981,2.49409 4.7595,6.02655 5.52746,7.86477 0.76805,1.83812 2.14311,3.62652 3.06378,3.97977 0.92058,0.35335 3.06713,2.22654 4.7694,4.16928 8.22728,9.3887 16.1817,15.45569 29.59556,22.52041 4.30431,2.26657 8.96046,4.91429 10.36002,5.87489 4.47311,3.07102 19.86168,10.12549 28.01629,12.85528 4.34292,1.45384 10.39792,3.76988 13.45539,5.14842 5.81011,2.61902 7.42506,3.12565 18.19321,5.78014 3.61338,0.89076 7.93427,2.08888 9.60198,2.65318 1.66771,0.56419 9.17241,1.36054 16.67711,1.76878 7.5047,0.40783 14.09974,0.61943 14.65564,0.47378 0.55591,-0.14554 5.10421,-0.69351 10.10734,-1.23183 5.00313,-0.53822 10.4611,-1.20116 12.12881,-1.45293 2.82349,-0.42623 8.18846,-0.92139 23.24688,-2.21098 3.33542,-0.28563 10.15788,-1.14122 15.16101,-1.89513 5.00314,-0.7539 9.38684,-1.20019 9.7599,-0.97915 0.37357,0.22085 7.42334,-0.0979 15.66638,-0.69488 16.40613,-1.18741 25.85341,-3.8796 30.03775,-8.59123 1.61242,-1.81528 3.51579,-2.53573 7.54892,-2.90587 8.42699,-0.7727 12.47781,-1.71218 16.4876,-3.72708 4.41296,-2.21785 12.67708,-7.58237 15.50845,-10.07575 2.38331,-2.09889 14.06285,-8.3758 17.68784,-9.50722 1.38976,-0.43411 5.38989,-3.44539 8.87551,-6.69611 3.48602,-3.25133 7.76395,-6.66306 9.5388,-7.58051 1.77445,-0.91805 4.13466,-2.76855 5.2116,-4.13769 1.07694,-1.36914 3.70338,-4.11606 5.84331,-6.09599 2.14033,-1.98033 3.88501,-4.16725 3.88501,-4.86416 0,-0.69669 1.52575,-2.82894 3.37964,-4.73781 1.85338,-1.90887 3.66664,-4.11637 4.04293,-4.89574 0.37579,-0.77948 1.46542,-2.6503 2.43208,-4.1377 11.73008,-18.04857 14.98272,-24.78233 21.54127,-44.69339 1.08189,-3.28448 2.53179,-6.65462 3.22172,-7.48575 3.78418,-4.55891 7.05871,-89.28804 3.94817,-102.27365 -1.37934,-5.76017 -4.5246,-16.72532 -6.79086,-23.75225 -2.75274,-8.53534 -11.97089,-27.0152 -18.667,-37.39715 -1.07582,-1.66771 -2.43572,-4.08084 -3.00061,-5.36953 -0.5648,-1.28878 -2.0334,-3.79035 -3.28489,-5.55903 -2.94568,-4.16291 -4.30421,-6.36733 -6.9488,-11.30759 -7.97994,-14.90691 -32.95745,-40.69008 -49.05218,-50.63146 -10.23095,-6.31931 -19.01347,-11.07244 -26.12116,-14.11869 -10.92088,-4.68051 -13.59078,-5.84982 -19.36187,-8.59124 -3.4272,-1.62778 -6.71213,-2.96903 -7.29624,-2.96903 -0.584,0 -3.24632,-0.73692 -5.90647,-1.64244 -2.65965,-0.90552 -8.21106,-2.16899 -12.34991,-2.81111 -7.19562,-1.11645 -7.56464,-1.309 -8.33856,-4.29562 -0.44512,-1.71784 -1.51463,-3.71262 -2.3689,-4.42196 -2.15378,-1.78718 -10.83512,-2.39038 -33.82801,-2.40049 z" style="fill:#5f4431;fill-opacity:1"></path>
        <path id="path5071" d="m -727.66131,586.53721 c 0.31039,-0.0101 0.56965,0.0104 0.75805,0.0315 2.44051,0.28138 1.9167,0.79448 -4.83258,4.7694 -4.16927,2.45537 -9.02676,5.57809 -10.80222,6.91721 -1.77555,1.33912 -7.99985,4.85506 -13.83442,7.83319 -8.84867,4.51666 -11.82751,6.70743 -17.87735,13.07637 -7.45892,7.85239 -19.2605,22.13548 -20.49895,24.82615 -0.38398,0.83386 -1.46542,2.68431 -2.43208,4.10611 -6.57735,9.67373 -10.34992,15.7719 -10.36003,16.80345 -0.0101,0.6594 -2.26621,6.5722 -5.02208,13.13954 -4.02697,9.59682 -5.70286,15.51052 -8.52807,30.13251 -5.86256,30.34193 -6.5918,39.08842 -5.11684,61.14941 0.59492,8.8988 2.14847,17.71266 5.46428,31.11165 1.06168,4.29037 2.66061,11.21283 3.56916,15.38211 0.90844,4.16928 2.61729,10.08207 3.79025,13.13954 2.74323,7.15064 13.61176,28.19574 15.91906,30.82739 0.97485,1.11181 3.04625,4.25898 4.61147,6.98038 1.56502,2.7214 4.94537,7.24388 7.48575,10.07576 9.27349,10.33758 28.86662,29.20829 36.16533,34.80715 8.6164,6.6101 20.47186,14.26777 22.14139,14.3082 0.62676,0.0152 1.76383,0.78191 2.52683,1.70562 0.76291,0.92371 3.68479,2.71215 6.47502,3.94818 2.79053,1.23643 8.01992,4.27045 11.65503,6.75928 8.04392,5.50678 27.65802,13.44696 35.50203,14.37137 5.23297,0.61665 9.05193,2.72914 7.5805,4.20087 -0.32454,0.32434 -2.98702,0.805 -5.93806,1.04232 -2.95104,0.23722 -7.41626,0.83764 -9.91783,1.35817 -2.50156,0.52012 -11.59817,1.66781 -20.21468,2.52684 -18.71505,1.8651 -35.92421,3.17693 -37.0813,2.84268 -0.45989,-0.1327 -5.36953,-0.70832 -10.92856,-1.26341 -16.56664,-1.65397 -29.62942,-4.94436 -38.81851,-9.82307 -2.44547,-1.29829 -5.05862,-2.36891 -5.81172,-2.36891 -0.75299,0 -3.07409,-0.90997 -5.14842,-2.02147 -2.07443,-1.11201 -4.32124,-2.02147 -5.02209,-2.02147 -1.33346,-3e-4 -14.77051,-5.83178 -19.99358,-8.68599 -1.66771,-0.91128 -5.5086,-3.02725 -8.52807,-4.67465 -7.27951,-3.97168 -15.99628,-9.91323 -20.02516,-13.67649 -1.79355,-1.6758 -3.95885,-3.3092 -4.80099,-3.63233 -0.84214,-0.32313 -1.5161,-1.01589 -1.5161,-1.5161 0,-0.50021 -1.93303,-2.9191 -4.29562,-5.36952 -2.36259,-2.45043 -6.56977,-7.51375 -9.34929,-11.276 -2.77952,-3.76206 -5.5085,-7.4004 -6.06441,-8.08588 -2.96549,-3.65602 -5.51961,-7.94164 -8.27538,-13.83442 -4.89418,-10.46494 -5.34527,-11.35034 -8.40173,-16.67711 -1.59483,-2.77952 -3.95732,-7.10041 -5.24318,-9.60197 -1.28585,-2.50157 -2.62669,-4.77572 -2.96903,-5.05367 -0.98617,-0.80071 -8.61625,-23.9451 -10.83381,-32.84886 -4.47553,-17.96943 -5.31782,-48.68908 -1.80037,-66.20307 3.98573,-19.84556 9.55761,-37.72191 13.20272,-42.45083 0.64282,-0.83386 1.80982,-2.88059 2.59,-4.54831 1.72563,-3.68867 10.22408,-18.34098 14.65565,-25.26835 11.61485,-18.15601 15.74263,-23.71419 23.08895,-31.11165 7.63761,-7.69098 22.34799,-18.91968 24.79457,-18.91968 0.57956,0 3.36231,-1.36449 6.19075,-3.0322 2.82843,-1.66771 5.39085,-3.0322 5.68537,-3.0322 0.29453,0 5.14525,-2.33116 10.80222,-5.18001 10.90946,-5.49415 35.88298,-14.92258 45.16718,-17.05614 3.05747,-0.70266 6.4687,-1.74776 7.58051,-2.33732 1.1118,-0.58956 4.0682,-1.39542 6.56977,-1.76879 2.50166,-0.37326 8.99336,-1.68368 14.43454,-2.90586 4.76116,-1.06936 9.70365,-1.86233 11.87613,-1.92671 z" style="fill:#775435;fill-opacity:1"></path>
        <path id="path5069" d="m -663.95349,593.32808 c 5.71136,-0.0293 10.16819,0.0778 10.67588,0.37902 0.48697,0.28867 3.15855,0.80182 5.93806,1.13708 4.42813,0.53407 8.76352,1.90766 26.12116,8.33856 2.13609,0.7915 5.77473,2.42914 8.08587,3.63232 2.31074,1.20308 4.93708,2.30569 5.84331,2.46367 2.40464,0.41905 15.18749,7.22705 17.5615,9.34929 1.11757,0.99911 4.52304,3.23086 7.58051,4.95891 5.46817,3.09062 21.62991,18.04281 28.04787,25.96323 5.94604,7.33783 11.90862,16.07047 15.88747,23.24688 5.90127,10.64515 6.99458,12.55059 11.4971,19.89883 4.85173,7.9194 14.3082,27.31079 14.3082,29.34287 0,0.7723 0.39116,1.8408 0.8844,2.36891 0.49323,0.5281 1.67524,4.08139 2.62159,7.92794 0.94584,3.84655 2.10748,8.04822 2.59,9.3177 0.48293,1.26939 1.12823,4.27566 1.42135,6.66453 0.29311,2.38877 0.91249,7.51102 1.38976,11.40235 0.47716,3.89132 0.79918,9.5767 0.69488,12.63417 -0.25936,7.60972 -1.45324,26.4873 -2.14781,33.85959 -0.31404,3.33542 -0.49764,9.1905 -0.41061,13.0132 0.20406,8.97714 -3.96188,30.13433 -7.13831,36.26008 -0.50011,0.96535 -0.91598,2.22448 -0.91598,2.81111 0,1.66184 -5.93038,13.91654 -7.07514,14.62405 -0.56227,0.34749 -1.01073,1.66665 -1.01073,2.93745 0,1.2708 -0.97213,3.1735 -2.14781,4.23245 -1.17559,1.05904 -2.54139,2.83627 -3.0322,3.94818 -0.49072,1.11181 -1.43085,2.93103 -2.11623,4.04293 -0.68507,1.11181 -2.50945,4.06811 -4.04293,6.56977 -1.53298,2.50157 -4.05552,5.95682 -5.59063,7.67527 -1.5352,1.71834 -4.1574,4.67474 -5.8433,6.56977 -5.01112,5.63191 -17.42228,15.11456 -24.60506,18.79333 -3.68776,1.88917 -10.87337,6.29597 -15.98223,9.79149 -7.8154,5.34719 -10.54095,6.60767 -17.18248,8.0227 -12.70796,2.70826 -28.94479,2.42682 -35.69154,-0.60012 -0.83386,-0.37408 -2.65318,-0.8847 -4.04294,-1.13708 -4.21244,-0.76492 -9.09661,-2.75951 -9.09661,-3.72708 0,-0.50153 -1.06445,-0.91598 -2.3689,-0.91598 -1.30425,-3e-4 -6.19378,-2.27476 -10.86539,-5.05367 -4.67141,-2.77932 -9.17873,-5.08879 -10.01259,-5.14843 -3.48137,-0.24763 -7.63185,0.33638 -8.52807,1.20025 -1.55946,1.50316 -3.52928,1.06612 -6.94879,-1.5161 -1.76959,-1.33629 -8.45226,-5.25107 -14.84516,-8.71758 -6.39289,-3.46652 -13.21534,-7.52325 -15.16101,-9.00185 -1.94566,-1.4782 -6.19443,-4.27227 -9.44404,-6.19075 -7.87595,-4.64927 -26.32624,-20.39939 -32.56459,-27.82677 -2.75496,-3.28003 -5.49814,-6.42458 -6.09599,-6.98038 -0.59785,-0.556 -3.32683,-3.73982 -6.0644,-7.07514 -2.73758,-3.33552 -5.22464,-6.29192 -5.52745,-6.56977 -0.78646,-0.72196 -4.70871,-7.51511 -8.78076,-15.16101 -1.92433,-3.61347 -3.90431,-7.07428 -4.39037,-7.67526 -1.45364,-1.79698 -7.99112,-22.80443 -7.99112,-25.67896 0,-2.7873 -2.44865,-12.19764 -4.07452,-15.66638 -0.52113,-1.11191 -1.39734,-5.43269 -1.9583,-9.60197 -0.56095,-4.16928 -1.51958,-10.30959 -2.11622,-13.64491 -2.08565,-11.66063 0.091,-40.22433 4.67464,-61.62319 3.08871,-14.41974 4.00135,-17.61128 7.04356,-24.2892 1.26624,-2.77952 3.84948,-8.4649 5.74855,-12.63417 1.89896,-4.16928 4.13658,-8.26286 4.95891,-9.09661 0.82243,-0.83396 3.20898,-4.29522 5.30635,-7.70685 3.88698,-6.32274 17.50844,-22.82338 21.28859,-25.77371 1.14799,-0.89602 4.81362,-3.12605 8.14904,-4.95892 3.33542,-1.83296 9.77506,-5.74845 14.3082,-8.71758 4.53325,-2.96903 8.50189,-5.40111 8.84393,-5.40111 0.34233,0 2.57595,-1.23507 4.92733,-2.74793 11.57452,-7.44648 16.7,-9.25696 32.56458,-11.46552 4.29067,-0.59744 17.32863,-1.02589 26.84762,-1.0739 z" style="fill:#fff;fill-opacity:1"></path>
        <path id="path5067" d="m -692.94892,642.50661 c -11.97588,0.0283 -13.47354,0.43653 -22.52042,3.34805 -13.69696,4.40781 -17.31033,6.38157 -24.00493,13.07637 -8.61095,8.61085 -12.72428,14.91626 -17.97211,27.51092 -9.21587,22.11799 -9.14538,21.88467 -12.28674,45.38827 -2.84016,21.25018 0.13751,59.41049 5.40111,69.33004 0.58785,1.10776 1.83732,4.0682 2.77952,6.56977 3.8233,10.15161 12.665,29.25954 14.9715,32.34349 1.03934,1.38976 5.02446,6.74478 8.84392,11.90771 7.16813,9.6896 12.18015,14.66363 25.20518,24.95249 4.16928,3.29348 7.80792,6.2757 8.08587,6.60136 1.19297,1.39744 9.87113,8.08587 10.48637,8.08587 0.37164,-10e-5 2.49131,1.18731 4.70623,2.65318 2.21532,1.46566 4.81064,2.7732 5.78013,2.87427 1.99651,0.20761 5.32783,1.54557 11.59186,4.64306 2.36997,1.17205 6.37394,2.4906 8.87551,2.93745 6.88805,1.23047 7.52547,1.18903 16.45601,-0.88439 4.56639,-1.06016 12.02809,-2.38705 16.58235,-2.96903 5.09127,-0.65071 10.23859,-2.05013 13.36064,-3.63233 2.79317,-1.41533 5.66668,-2.59001 6.38026,-2.59001 2.23504,-0.0101 24.45815,-15.92421 38.97643,-27.92152 10.64364,-8.79531 14.7268,-16.21905 21.16225,-38.28155 4.56528,-15.65233 5.44593,-20.27917 5.87489,-31.33276 0.43916,-11.30758 -1.00801,-23.19255 -3.66391,-30.29043 -1.11454,-2.97975 -2.90915,-8.74679 -4.01135,-12.82369 -1.10221,-4.0769 -3.08911,-9.69673 -4.42196,-12.47625 -1.33286,-2.77952 -3.21616,-6.87299 -4.16928,-9.0966 -5.35376,-12.49055 -9.68152,-20.53347 -17.30882,-32.09081 -9.9995,-15.15201 -16.70324,-22.66222 -27.38458,-30.73263 -4.28996,-3.24122 -8.02902,-6.16704 -8.30697,-6.47501 -0.73874,-0.8186 -17.78053,-8.51913 -24.25761,-10.96015 -8.51048,-3.20736 -18.17538,-5.89015 -23.6575,-6.56977 -2.72362,-0.33759 -5.60406,-1.16154 -6.41184,-1.83196 -1.01932,-0.84598 -6.91903,-1.23309 -19.2987,-1.26341 -2.19006,-0.0101 -4.13244,0 -5.84331,0 z" style="fill:#5f4431;fill-opacity:1"></path>
        <path id="path5065" d="m -692.56989,659.31006 c 9.64978,-0.0738 21.89927,1.22001 26.0264,2.87427 1.11181,0.44564 4.75045,1.35004 8.08587,2.02147 6.85702,1.38026 21.09725,6.8266 26.78445,10.23368 0.83386,0.49951 2.65318,1.46345 4.04294,2.14781 1.38976,0.68427 3.00036,1.71178 3.60074,2.27415 0.60027,0.56248 4.0115,3.22273 7.5805,5.93807 7.1094,5.40914 13.61095,13.17719 23.37323,27.95311 6.36044,9.62724 7.86522,12.40903 13.96076,25.74213 1.77899,3.89133 3.87723,8.43963 4.64306,10.10734 5.84083,12.72352 10.20846,31.06203 10.32844,43.24047 0.0536,5.43865 0.35062,10.25253 0.63171,10.70746 0.49071,0.79383 -0.37564,4.66292 -3.94818,17.81419 -6.25806,23.04018 -8.61656,27.40332 -20.05676,36.89179 -4.96129,4.1148 -11.02003,8.77847 -13.45539,10.39161 -2.43547,1.61313 -4.42196,3.34997 -4.42196,3.85342 0,0.50355 -0.61044,0.91598 -1.35818,0.91598 -0.74744,0 -2.16312,0.8616 -3.12696,1.92671 -4.16766,4.6051 -26.81174,10.72121 -35.94423,9.69673 -3.95176,-0.44361 -6.64623,-0.17466 -9.3177,0.94756 -4.548,1.91069 -4.87073,1.93045 -7.39099,0.28427 -1.09685,-0.71621 -4.49145,-2.40166 -7.54892,-3.75867 -12.06493,-5.35477 -22.22539,-12.73666 -41.40851,-30.00616 -9.00989,-8.11135 -10.14671,-9.30022 -14.18186,-14.93992 -9.78603,-13.67755 -12.63094,-19.0451 -18.69858,-35.40727 -8.53151,-23.00663 -10.59143,-43.45469 -7.10672,-70.24601 2.47872,-19.05962 5.30984,-28.68418 13.23429,-45.00925 4.49888,-9.26793 6.35535,-11.92085 11.02332,-15.95065 7.62963,-6.58705 16.83256,-9.74989 30.70105,-10.51795 1.24027,-0.0687 2.56964,-0.11583 3.94818,-0.12634 z" style="fill:#e6e6e6;fill-opacity:1"></path>
        <path id="path3070" d="m -785.43108,754.16113 c -0.5559,0 -0.72257,0.45483 -0.37902,1.01073 0.34354,0.55591 1.08653,1.01074 1.64244,1.01074 0.5559,0 0.72257,-0.45483 0.37902,-1.01074 -0.34355,-0.5559 -1.08654,-1.01073 -1.64244,-1.01073 z" style="fill:#3b3c3d"></path>
      </g>
    </g>
  </g>
</svg>
