<svg xmlns="http://www.w3.org/2000/svg" viewBox="0 0 512 512" id="fruit-basket">
  <path fill="#7ed957" d="M310.2,174.8a80.8,80.8,0,1,1-152.4,15.5,49.4,49.4,0,0,0,.4-19.9,57.4,57.4,0,0,1,101.9-46.1,50.2,50.2,0,0,0,15.5,13.1A80.8,80.8,0,0,1,310.2,174.8ZM440,150.4c-16.2.6-29.7,11.4-36.4,17.8a6,6,0,0,0,.4,9c7.2,5.8,21.6,15.4,37.8,14.7s29.7-11.5,36.4-17.9a5.9,5.9,0,0,0-.4-8.9C470.6,159.3,456.1,149.7,440,150.4Z"></path>
  <path fill="#ffde59" d="M222.8,275.2a18.4,18.4,0,0,1-21.6,14.5c-13.2-2.6-30.6-9.2-47.7-20.7a89.5,89.5,0,0,0,12.8,9.1,18.4,18.4,0,0,1,7.3,25,18.1,18.1,0,0,1-24.9,7.4C115.4,292.6,59,235,84.5,145.8a19.8,19.8,0,0,1,2.2-4.9,18.6,18.6,0,0,1,19.4-7.9,28.4,28.4,0,0,1,3.1-.6A18.5,18.5,0,0,1,128,150.5c1.8,85.8,77.2,102.3,80.4,103A18.5,18.5,0,0,1,222.8,275.2Z"></path>
  <path fill="#8c52ff" d="M355.5,160.4a20.3,20.3,0,1,1-29.9-27.5,20.3,20.3,0,0,1,29.9,27.5Zm-9.9,10.7a20.3,20.3,0,1,0,1.2,28.7A20.3,20.3,0,0,0,345.6,171.1Zm29.9,27.4a20.3,20.3,0,1,0,1.3,28.7A20.4,20.4,0,0,0,375.5,198.5ZM322.7,256a20.3,20.3,0,1,0,1.3,28.7A20.4,20.4,0,0,0,322.7,256Zm82.8-30a20.3,20.3,0,1,0,1.2,28.7A20.4,20.4,0,0,0,405.5,226Zm-21.3-66.8a20.3,20.3,0,1,0,1.2,28.6A20.3,20.3,0,0,0,384.2,159.2Zm29.9,27.4a20.3,20.3,0,1,0,1.2,28.7A20.4,20.4,0,0,0,414.1,186.6Zm-81,28.1a20.3,20.3,0,1,0,1.2,28.7A20.4,20.4,0,0,0,333.1,214.7ZM363,242.2a20.3,20.3,0,1,0,1.2,28.7A20.4,20.4,0,0,0,363,242.2Zm81-28.1a20.3,20.3,0,1,0,1.2,28.7A20.4,20.4,0,0,0,444,214.1Z"></path>
  <path fill="#c27428" d="M453.7,271.5,439.6,410.9a53.7,53.7,0,0,1-53.3,48.2H120.9a53.6,53.6,0,0,1-53.3-48.2L53.5,271.5H453.7Z"></path>
  <path fill="#ffbd59" d="M474.4,267.5a15.8,15.8,0,0,1-15.8,15.8H284a31.6,31.6,0,1,1-63.2,0H47.8a15.8,15.8,0,1,1,0-31.6H248.6L328.9,62.6a15.8,15.8,0,1,1,29,12.3L283,251.7H458.6A15.8,15.8,0,0,1,474.4,267.5Z"></path>
  <path d="M482.8,158.9c-8-6.5-24.4-17.5-43.2-16.5l-1.8.2L448,131.5a8,8,0,0,0-.5-11.3,8.1,8.1,0,0,0-11.3.5l-39.6,43.1a28.1,28.1,0,0,0-7-10.5,27.7,27.7,0,0,0-20.4-7.5h-.4v-.6a28.2,28.2,0,0,0-21-25.9L365.3,78a23.9,23.9,0,0,0,.1-18.2,23,23,0,0,0-12.7-12.9,24.1,24.1,0,0,0-31.3,12.5l-32.5,77c-3-2.1-6.2-4.1-9.4-5.9a46.4,46.4,0,0,1-13.2-11.1,64.7,64.7,0,0,0-71.2-22.3l-7.8-17.4a8,8,0,0,0-14.6,6.6l7.9,17.4a65,65,0,0,0-30.4,68.2,39.8,39.8,0,0,1-.1,16.5,105.2,105.2,0,0,0-1.4,11.1c-7.8-14.1-12.3-30.3-12.7-49.1a26.2,26.2,0,0,0-8.2-18.7,25.7,25.7,0,0,0-8.2-5.3l4.8-14.4a8,8,0,1,0-15.2-5l-5.9,17.8a26.7,26.7,0,0,0-23.4,11.9,27.3,27.3,0,0,0-3.1,6.9c-10.1,35.5-8.8,69.1,3.8,100.1H47.8a23.8,23.8,0,0,0-.5,47.6L59.6,411.7A61.4,61.4,0,0,0,120.8,467H386.2a61.4,61.4,0,0,0,61.3-55.3l12.2-120.5a23.8,23.8,0,0,0-1.1-47.5h-4.1a28.5,28.5,0,0,0-5.1-35.5,27.8,27.8,0,0,0-20.4-7.4h-.4v-.5a13.8,13.8,0,0,0-.3-2,50.8,50.8,0,0,0,11.8,1.5h2c18.8-.8,34.1-13,41.6-20.1a13.9,13.9,0,0,0-.9-20.9ZM373.3,209.8a12,12,0,0,1-2.4,12,12.3,12.3,0,1,1-9.1-20.6,20.7,20.7,0,0,1,2.2.4l2.2.4a14.1,14.1,0,0,1,3.9,2.4,13.5,13.5,0,0,1,2.7,3.7C372.9,208.7,373.2,209.2,373.3,209.8ZM396,229.5a11.2,11.2,0,0,1,4,2.5,12.7,12.7,0,0,1,2.7,3.4,24.1,24.1,0,0,0,.8,2.5,11.4,11.4,0,0,1,.1,5.8H379.7a12.3,12.3,0,0,1,3-11.1,11.9,11.9,0,0,1,8.5-3.9,12.8,12.8,0,0,1,3.4.6Zm-60.1-55a10.4,10.4,0,0,1,4.3,2.5,10.7,10.7,0,0,1,2.7,3.6c.1.5.3.9.4,1.4a13.9,13.9,0,0,1,.9,3.5,12.7,12.7,0,0,1-3.2,8.9,12.3,12.3,0,0,1-8.6,3.9,11.7,11.7,0,0,1-8.8-3.2,12.1,12.1,0,0,1-3.8-10l3.2-7.5a12.3,12.3,0,0,1,8.4-3.9h.5a12.6,12.6,0,0,1,2.8.5Zm-25.6,46.8a12.3,12.3,0,0,1,9.1-3.9,12,12,0,0,1,8.3,3.2,12.7,12.7,0,0,1,4,8.6,12.1,12.1,0,0,1-3.3,8.8,12.4,12.4,0,0,1-8.5,4,12,12,0,0,1-8.9-3.3A12.3,12.3,0,0,1,310.3,221.3Zm-59.7,38.5h1.9a23.2,23.2,0,0,1,18.7,9.4h0a22.8,22.8,0,0,1,4.8,14.2,23.6,23.6,0,0,1-47.2,0C228.8,271.3,237.7,261.3,250.6,259.8Zm119.8-98a12.3,12.3,0,0,1,9.1,20.6,11.9,11.9,0,0,1-8.6,4,11.5,11.5,0,0,1-3.7-.6l-1.2-.3a11.8,11.8,0,0,1-3.9-2.3,14.1,14.1,0,0,1-2.7-3.7,14.2,14.2,0,0,0-.5-1.6,15.9,15.9,0,0,1-.8-3.3,12.3,12.3,0,0,1,3.2-8.8h.1A11.9,11.9,0,0,1,370.4,161.8Zm-17.6-15.7a11.9,11.9,0,0,1-3.2,8.8h0a12.6,12.6,0,0,1-10.7,3.8,15.5,15.5,0,0,0-3.1-.7,11.7,11.7,0,0,1-3.4-2,18.8,18.8,0,0,1-2.5-3.1,12.2,12.2,0,0,1,7.9-18.1,14.5,14.5,0,0,1,2.8-.4,13.1,13.1,0,0,1,8.3,3.2A11.9,11.9,0,0,1,352.8,146.1ZM336.1,65.8a8,8,0,0,1,10.4-4.2,7.9,7.9,0,0,1,4.1,10.2l-20.9,49.1a29,29,0,0,0-10,6.6,27.8,27.8,0,0,0-5.3,29.3L309,169.6a28,28,0,0,0-5,11.8l-26.4,62.3H260.8ZM165.9,168.9a49.5,49.5,0,0,1,87.8-39.6,62.2,62.2,0,0,0,18,15.2,77.7,77.7,0,0,1,10.7,7.3l-38.9,91.9h-70c-8.9-15.9-11.9-34-7.8-51.7A56.1,56.1,0,0,0,165.9,168.9Zm-15,60.8a82.8,82.8,0,0,0,4.8,14H140.6c-13.8-18.9-19.5-40.5-17-64.4A105.9,105.9,0,0,0,150.9,229.7ZM92.2,147.9a10.2,10.2,0,0,1,12.2-7.2h.7a10.7,10.7,0,0,1,7.2,13c-11.4,39.5-2.9,69.2,9.2,89.9H98.1C84.5,214.4,82.4,182.2,92.2,147.9ZM40,267.5a7.8,7.8,0,0,1,7.8-7.8h173a38.7,38.7,0,0,0-7.1,15.7H47.8A7.8,7.8,0,0,1,40,267.5ZM431.6,410.1A45.4,45.4,0,0,1,386.2,451H120.8a45.5,45.5,0,0,1-45.3-40.9L63.4,291.4H213.6a39.6,39.6,0,0,0,2.2,6.9l1,2.1a36.2,36.2,0,0,0,2.4,4.3,17.7,17.7,0,0,0,1.6,2.2,30.7,30.7,0,0,0,2.9,3.4l2,2,3.4,2.8a18.8,18.8,0,0,0,2.3,1.6l4,2.2,2.5,1.1a36.8,36.8,0,0,0,4.7,1.5,19.5,19.5,0,0,0,2.3.6,38.4,38.4,0,0,0,7.6.8,36.7,36.7,0,0,0,7.5-.8,19.5,19.5,0,0,0,2.3-.6A36.8,36.8,0,0,0,267,320a11.5,11.5,0,0,0,2.5-1.2,30.5,30.5,0,0,0,4-2.1l2.3-1.6,3.4-2.8,2-2c1-1.1,1.9-2.2,2.8-3.4a17.7,17.7,0,0,0,1.6-2.2,36.2,36.2,0,0,0,2.4-4.3l1-2.1a39.6,39.6,0,0,0,2.2-6.9H443.6Zm34.8-142.6a7.8,7.8,0,0,1-7.8,7.9H291.1a40.1,40.1,0,0,0-4.5-11.8l1.7-3.9H458.6A7.8,7.8,0,0,1,466.4,267.5Zm-36.7-50.7h.5a12.4,12.4,0,0,1,8.4,3.2,12.4,12.4,0,0,1,.7,17.4,12.3,12.3,0,0,1-18.1-16.7A11.9,11.9,0,0,1,429.7,216.8Zm-32.2-3.4-1.6-.4a12.9,12.9,0,0,1-3.9-2.3,14.1,14.1,0,0,1-2.7-3.7c-.1-.5-.3-.9-.4-1.4a13.9,13.9,0,0,1-.9-3.5,12,12,0,0,1,3.3-8.8h0a11.6,11.6,0,0,1,8.5-4h.5a12.1,12.1,0,0,1,12.3,11.8,11.9,11.9,0,0,1-3.2,8.8A12.2,12.2,0,0,1,397.5,213.4Zm43.9-29.5c-12.4.3-23.8-6.4-30.5-11.5,6.2-5.6,17.1-13.5,29.4-14s23.8,6.4,30.6,11.5C464.6,175.5,453.7,183.4,441.4,183.9ZM87.2,321.8a7.9,7.9,0,0,1,8-8h87.5a8,8,0,0,1,0,16H95.2A8,8,0,0,1,87.2,321.8Zm229.1,0a7.9,7.9,0,0,1,8-8h87.5a8,8,0,0,1,0,16H324.3A8,8,0,0,1,316.3,321.8Zm-221,43.6a8,8,0,0,1,0-16h94.8a8,8,0,1,1,0,16Zm213.7-8a8,8,0,0,1,8-8h94.8a8,8,0,1,1,0,16H317A8,8,0,0,1,309,357.4ZM103.2,396.2a8,8,0,1,1,0-16H198a8,8,0,1,1,0,16Zm200.8-8a8,8,0,0,1,8-8h94.8a8,8,0,0,1,0,16H312A8,8,0,0,1,304,388.2ZM211,419a8,8,0,0,1-8,8H108.2a8,8,0,0,1,0-16H203A7.9,7.9,0,0,1,211,419Zm81.5,0a8,8,0,0,1,8-8h94.8a8,8,0,0,1,0,16H300.5A8,8,0,0,1,292.5,419Z"></path>
</svg>
