<svg xmlns="http://www.w3.org/2000/svg" id="lemon" width="512" height="512" version="1.1">
  <defs id="defs3912">
    <clipPath id="clipPath21843" clipPathUnits="userSpaceOnUse">
      <path id="path21845" d="m -3178.125,-2737.5 a 340.625,340.625 0 1 1 -681.25,0 340.625,340.625 0 1 1 681.25,0 z" style="fill:#e74c3c;fill-opacity:1;stroke:none" transform="rotate(90 -3446.014 -2172.656)scale(1.06422)"></path>
    </clipPath>
    <clipPath id="clipPath3413" clipPathUnits="userSpaceOnUse">
      <path id="path3415" d="m -335.37064,237.23851 a 272.74118,272.74118 0 1 1 -545.48236,0 272.74118,272.74118 0 1 1 545.48236,0 z" style="fill:#4086cd;fill-opacity:1;stroke:none" transform="matrix(.87996 0 0 .87996 791.111 47.24)"></path>
    </clipPath>
  </defs>
  <g id="layer1" transform="translate(0 -540.362)">
    <g id="g3077" transform="matrix(1.06667 0 0 1.06667 -17.067 -53.091)">
      <path id="path4344" d="m 326.59813,413.31174 c 0,2.04766 -1.65996,3.70762 -3.70763,3.70762 -2.04766,0 -3.70762,-1.65996 -3.70762,-3.70762 0,-2.04767 1.65996,-3.70763 3.70762,-3.70763 2.04767,0 3.70763,1.65996 3.70763,3.70763 z" style="fill:#fff5a9;fill-opacity:1;stroke:#fde34a;stroke-width:.27230093;stroke-miterlimit:4;stroke-opacity:1;stroke-dasharray:none" transform="rotate(30.58 55942.87 -23100.346)scale(62.42913)"></path>
      <g id="g6766" style="fill:#fcd829;fill-opacity:1" transform="matrix(.02067 .7142 -.4142 .02225 -253.835 3340.07)">
        <path id="path10169-3-58-7" d="m 1768.5714,965.7143 -106.5443,-4.65628 -129.3953,-47.69539 57.3046,-89.94189 106.0031,-88.2119 49.2397,94.59817 z" style="fill:#fcd829;fill-opacity:1;stroke:none" transform="rotate(75.804 438.108 -3720.61)"></path>
        <path id="path10195-6-1-3" d="m 1750,665.71429 c 0,63.11826 -12.7918,114.28572 -28.5714,114.28572 -15.7796,0 -28.5714,-51.16746 -28.5714,-114.28572 0,-63.11825 12.7918,-114.28571 28.5714,-114.28571 15.7796,0 28.5714,51.16746 28.5714,114.28571 z" style="fill:#fcd829;fill-opacity:1;stroke:none" transform="matrix(1 0 0 1.06875 -5507.316 -2112.051)"></path>
        <path id="path10195-7-82-3-9" d="m 1750,665.71429 c 0,63.11826 -12.7918,114.28572 -28.5714,114.28572 -15.7796,0 -28.5714,-51.16746 -28.5714,-114.28572 0,-63.11825 12.7918,-114.28571 28.5714,-114.28571 15.7796,0 28.5714,51.16746 28.5714,114.28571 z" style="fill:#fcd829;fill-opacity:1;stroke:none" transform="matrix(-.51763 .93048 -.96043 -.51114 -2153.372 -2720.19)"></path>
        <path id="path10195-7-3-8-59-4" d="m 1750,665.71429 c 0,63.11826 -12.7918,114.28572 -28.5714,114.28572 -15.7796,0 -28.5714,-51.16746 -28.5714,-114.28572 0,-63.11825 12.7918,-114.28571 28.5714,-114.28571 15.7796,0 28.5714,51.16746 28.5714,114.28571 z" style="fill:#fcd829;fill-opacity:1;stroke:none" transform="matrix(-.51763 -.98538 -.96043 .5413 -2153.372 -11.014)"></path>
      </g>
      <g id="g5625" style="fill:#fcd829;fill-opacity:1" transform="matrix(-.50614 .50448 -.3545 -.34857 -2029.669 2071.853)">
        <path id="path5627" d="m 1768.5714,965.7143 -106.5443,-4.65628 -129.3953,-47.69539 57.3046,-89.94189 106.0031,-88.2119 49.2397,94.59817 z" style="fill:#fcd829;fill-opacity:1;stroke:none" transform="rotate(75.804 438.108 -3720.61)"></path>
        <path id="path5629" d="m 1750,665.71429 c 0,63.11826 -12.7918,114.28572 -28.5714,114.28572 -15.7796,0 -28.5714,-51.16746 -28.5714,-114.28572 0,-63.11825 12.7918,-114.28571 28.5714,-114.28571 15.7796,0 28.5714,51.16746 28.5714,114.28571 z" style="fill:#fcd829;fill-opacity:1;stroke:none" transform="matrix(1 0 0 1.06875 -5507.316 -2112.051)"></path>
        <path id="path5631" d="m 1750,665.71429 c 0,63.11826 -12.7918,114.28572 -28.5714,114.28572 -15.7796,0 -28.5714,-51.16746 -28.5714,-114.28572 0,-63.11825 12.7918,-114.28571 28.5714,-114.28571 15.7796,0 28.5714,51.16746 28.5714,114.28571 z" style="fill:#fcd829;fill-opacity:1;stroke:none" transform="matrix(-.51763 .93048 -.96043 -.51114 -2153.372 -2720.19)"></path>
        <path id="path5633" d="m 1750,665.71429 c 0,63.11826 -12.7918,114.28572 -28.5714,114.28572 -15.7796,0 -28.5714,-51.16746 -28.5714,-114.28572 0,-63.11825 12.7918,-114.28571 28.5714,-114.28571 15.7796,0 28.5714,51.16746 28.5714,114.28571 z" style="fill:#fcd829;fill-opacity:1;stroke:none" transform="matrix(-.51763 -.98538 -.96043 .5413 -2153.372 -11.014)"></path>
      </g>
      <g id="g5635" style="fill:#fcd829;fill-opacity:1" transform="matrix(-.71425 .02317 -.02113 -.49672 -2290.217 175.509)">
        <path id="path5637" d="m 1768.5714,965.7143 -106.5443,-4.65628 -129.3953,-47.69539 57.3046,-89.94189 106.0031,-88.2119 49.2397,94.59817 z" style="fill:#fcd829;fill-opacity:1;stroke:none" transform="rotate(75.804 438.108 -3720.61)"></path>
        <path id="path5639" d="m 1750,665.71429 c 0,63.11826 -12.7918,114.28572 -28.5714,114.28572 -15.7796,0 -28.5714,-51.16746 -28.5714,-114.28572 0,-63.11825 12.7918,-114.28571 28.5714,-114.28571 15.7796,0 28.5714,51.16746 28.5714,114.28571 z" style="fill:#fcd829;fill-opacity:1;stroke:none" transform="matrix(1 0 0 1.06875 -5507.316 -2112.051)"></path>
        <path id="path5641" d="m 1750,665.71429 c 0,63.11826 -12.7918,114.28572 -28.5714,114.28572 -15.7796,0 -28.5714,-51.16746 -28.5714,-114.28572 0,-63.11825 12.7918,-114.28571 28.5714,-114.28571 15.7796,0 28.5714,51.16746 28.5714,114.28571 z" style="fill:#fcd829;fill-opacity:1;stroke:none" transform="matrix(-.51763 .93048 -.96043 -.51114 -2153.372 -2720.19)"></path>
        <path id="path5643" d="m 1750,665.71429 c 0,63.11826 -12.7918,114.28572 -28.5714,114.28572 -15.7796,0 -28.5714,-51.16746 -28.5714,-114.28572 0,-63.11825 12.7918,-114.28571 28.5714,-114.28571 15.7796,0 28.5714,51.16746 28.5714,114.28571 z" style="fill:#fcd829;fill-opacity:1;stroke:none" transform="matrix(-.51763 -.98538 -.96043 .5413 -2153.372 -11.014)"></path>
      </g>
      <g id="g5645" style="fill:#fcd829;fill-opacity:1" transform="matrix(-.5624 -.4409 .30279 -.39433 -1303.14 -1296.837)">
        <path id="path5647" d="m 1768.5714,965.7143 -106.5443,-4.65628 -129.3953,-47.69539 57.3046,-89.94189 106.0031,-88.2119 49.2397,94.59817 z" style="fill:#fcd829;fill-opacity:1;stroke:none" transform="rotate(75.804 438.108 -3720.61)"></path>
        <path id="path5649" d="m 1750,665.71429 c 0,63.11826 -12.7918,114.28572 -28.5714,114.28572 -15.7796,0 -28.5714,-51.16746 -28.5714,-114.28572 0,-63.11825 12.7918,-114.28571 28.5714,-114.28571 15.7796,0 28.5714,51.16746 28.5714,114.28571 z" style="fill:#fcd829;fill-opacity:1;stroke:none" transform="matrix(1 0 0 1.06875 -5507.316 -2112.051)"></path>
        <path id="path5651" d="m 1750,665.71429 c 0,63.11826 -12.7918,114.28572 -28.5714,114.28572 -15.7796,0 -28.5714,-51.16746 -28.5714,-114.28572 0,-63.11825 12.7918,-114.28571 28.5714,-114.28571 15.7796,0 28.5714,51.16746 28.5714,114.28571 z" style="fill:#fcd829;fill-opacity:1;stroke:none" transform="matrix(-.51763 .93048 -.96043 -.51114 -2153.372 -2720.19)"></path>
        <path id="path5653" d="m 1750,665.71429 c 0,63.11826 -12.7918,114.28572 -28.5714,114.28572 -15.7796,0 -28.5714,-51.16746 -28.5714,-114.28572 0,-63.11825 12.7918,-114.28571 28.5714,-114.28571 15.7796,0 28.5714,51.16746 28.5714,114.28571 z" style="fill:#fcd829;fill-opacity:1;stroke:none" transform="matrix(-.51763 -.98538 -.96043 .5413 -2153.372 -11.014)"></path>
      </g>
      <g id="g5655" style="fill:#fcd829;fill-opacity:1" transform="matrix(.00715 -.71459 .49717 -.00004 974.877 -1716.064)">
        <path id="path5657" d="m 1768.5714,965.7143 -106.5443,-4.65628 -129.3953,-47.69539 57.3046,-89.94189 106.0031,-88.2119 49.2397,94.59817 z" style="fill:#fcd829;fill-opacity:1;stroke:none" transform="rotate(75.804 438.108 -3720.61)"></path>
        <path id="path5659" d="m 1750,665.71429 c 0,63.11826 -12.7918,114.28572 -28.5714,114.28572 -15.7796,0 -28.5714,-51.16746 -28.5714,-114.28572 0,-63.11825 12.7918,-114.28571 28.5714,-114.28571 15.7796,0 28.5714,51.16746 28.5714,114.28571 z" style="fill:#fcd829;fill-opacity:1;stroke:none" transform="matrix(1 0 0 1.06875 -5507.316 -2112.051)"></path>
        <path id="path5661" d="m 1750,665.71429 c 0,63.11826 -12.7918,114.28572 -28.5714,114.28572 -15.7796,0 -28.5714,-51.16746 -28.5714,-114.28572 0,-63.11825 12.7918,-114.28571 28.5714,-114.28571 15.7796,0 28.5714,51.16746 28.5714,114.28571 z" style="fill:#fcd829;fill-opacity:1;stroke:none" transform="matrix(-.51763 .93048 -.96043 -.51114 -2153.372 -2720.19)"></path>
        <path id="path5663" d="m 1750,665.71429 c 0,63.11826 -12.7918,114.28572 -28.5714,114.28572 -15.7796,0 -28.5714,-51.16746 -28.5714,-114.28572 0,-63.11825 12.7918,-114.28571 28.5714,-114.28571 15.7796,0 28.5714,51.16746 28.5714,114.28571 z" style="fill:#fcd829;fill-opacity:1;stroke:none" transform="matrix(-.51763 -.98538 -.96043 .5413 -2153.372 -11.014)"></path>
      </g>
      <g id="g5665" style="fill:#fcd829;fill-opacity:1" transform="matrix(.4836 -.52613 .3694 .33274 2466.762 -597.815)">
        <path id="path5667" d="m 1768.5714,965.7143 -106.5443,-4.65628 -129.3953,-47.69539 57.3046,-89.94189 106.0031,-88.2119 49.2397,94.59817 z" style="fill:#fcd829;fill-opacity:1;stroke:none" transform="rotate(75.804 438.108 -3720.61)"></path>
        <path id="path5669" d="m 1750,665.71429 c 0,63.11826 -12.7918,114.28572 -28.5714,114.28572 -15.7796,0 -28.5714,-51.16746 -28.5714,-114.28572 0,-63.11825 12.7918,-114.28571 28.5714,-114.28571 15.7796,0 28.5714,51.16746 28.5714,114.28571 z" style="fill:#fcd829;fill-opacity:1;stroke:none" transform="matrix(1 0 0 1.06875 -5507.316 -2112.051)"></path>
        <path id="path5671" d="m 1750,665.71429 c 0,63.11826 -12.7918,114.28572 -28.5714,114.28572 -15.7796,0 -28.5714,-51.16746 -28.5714,-114.28572 0,-63.11825 12.7918,-114.28571 28.5714,-114.28571 15.7796,0 28.5714,51.16746 28.5714,114.28571 z" style="fill:#fcd829;fill-opacity:1;stroke:none" transform="matrix(-.51763 .93048 -.96043 -.51114 -2153.372 -2720.19)"></path>
        <path id="path5673" d="m 1750,665.71429 c 0,63.11826 -12.7918,114.28572 -28.5714,114.28572 -15.7796,0 -28.5714,-51.16746 -28.5714,-114.28572 0,-63.11825 12.7918,-114.28571 28.5714,-114.28571 15.7796,0 28.5714,51.16746 28.5714,114.28571 z" style="fill:#fcd829;fill-opacity:1;stroke:none" transform="matrix(-.51763 -.98538 -.96043 .5413 -2153.372 -11.014)"></path>
      </g>
      <g id="g5675" style="fill:#fcd829;fill-opacity:1" transform="matrix(.71458 .00743 -.00053 .46414 2765.54 1466.124)">
        <path id="path5677" d="m 1768.5714,965.7143 -106.5443,-4.65628 -129.3953,-47.69539 57.3046,-89.94189 106.0031,-88.2119 49.2397,94.59817 z" style="fill:#fcd829;fill-opacity:1;stroke:none" transform="rotate(75.804 438.108 -3720.61)"></path>
        <path id="path5679" d="m 1750,665.71429 c 0,63.11826 -12.7918,114.28572 -28.5714,114.28572 -15.7796,0 -28.5714,-51.16746 -28.5714,-114.28572 0,-63.11825 12.7918,-114.28571 28.5714,-114.28571 15.7796,0 28.5714,51.16746 28.5714,114.28571 z" style="fill:#fcd829;fill-opacity:1;stroke:none" transform="matrix(1 0 0 1.06875 -5507.316 -2112.051)"></path>
        <path id="path5681" d="m 1750,665.71429 c 0,63.11826 -12.7918,114.28572 -28.5714,114.28572 -15.7796,0 -28.5714,-51.16746 -28.5714,-114.28572 0,-63.11825 12.7918,-114.28571 28.5714,-114.28571 15.7796,0 28.5714,51.16746 28.5714,114.28571 z" style="fill:#fcd829;fill-opacity:1;stroke:none" transform="matrix(-.51763 .93048 -.96043 -.51114 -2153.372 -2720.19)"></path>
        <path id="path5683" d="m 1750,665.71429 c 0,63.11826 -12.7918,114.28572 -28.5714,114.28572 -15.7796,0 -28.5714,-51.16746 -28.5714,-114.28572 0,-63.11825 12.7918,-114.28571 28.5714,-114.28571 15.7796,0 28.5714,51.16746 28.5714,114.28571 z" style="fill:#fcd829;fill-opacity:1;stroke:none" transform="matrix(-.51763 -.98538 -.96043 .5413 -2153.372 -11.014)"></path>
      </g>
      <g id="g5695" style="fill:#fcd829;fill-opacity:1" transform="matrix(.50467 .50578 -.2863 .30016 1633.91 2994.584)">
        <path id="path5697" d="m 1768.5714,965.7143 -106.5443,-4.65628 -129.3953,-47.69539 57.3046,-89.94189 106.0031,-88.2119 49.2397,94.59817 z" style="fill:#fcd829;fill-opacity:1;stroke:none" transform="rotate(75.804 438.108 -3720.61)"></path>
        <path id="path5699" d="m 1750,665.71429 c 0,63.11826 -12.7918,114.28572 -28.5714,114.28572 -15.7796,0 -28.5714,-51.16746 -28.5714,-114.28572 0,-63.11825 12.7918,-114.28571 28.5714,-114.28571 15.7796,0 28.5714,51.16746 28.5714,114.28571 z" style="fill:#fcd829;fill-opacity:1;stroke:none" transform="matrix(1 0 0 1.06875 -5507.316 -2112.051)"></path>
        <path id="path5701" d="m 1750,665.71429 c 0,63.11826 -12.7918,114.28572 -28.5714,114.28572 -15.7796,0 -28.5714,-51.16746 -28.5714,-114.28572 0,-63.11825 12.7918,-114.28571 28.5714,-114.28571 15.7796,0 28.5714,51.16746 28.5714,114.28571 z" style="fill:#fcd829;fill-opacity:1;stroke:none" transform="matrix(-.51763 .93048 -.96043 -.51114 -2153.372 -2720.19)"></path>
        <path id="path5703" d="m 1750,665.71429 c 0,63.11826 -12.7918,114.28572 -28.5714,114.28572 -15.7796,0 -28.5714,-51.16746 -28.5714,-114.28572 0,-63.11825 12.7918,-114.28571 28.5714,-114.28571 15.7796,0 28.5714,51.16746 28.5714,114.28571 z" style="fill:#fcd829;fill-opacity:1;stroke:none" transform="matrix(-.51763 -.98538 -.96043 .5413 -2153.372 -11.014)"></path>
      </g>
      <path id="path5705" d="m -204.05081,277.64462 c 0,22.31568 -18.09043,40.4061 -40.4061,40.4061 -22.31567,0 -40.4061,-18.09042 -40.4061,-40.4061 0,-22.31567 18.09043,-40.4061 40.4061,-40.4061 22.31567,0 40.4061,18.09043 40.4061,40.4061 z" style="fill:#fde34a;fill-opacity:1;stroke:none" transform="matrix(.65 0 0 .65 411.435 617.335)"></path>
    </g>
  </g>
</svg>
