<svg xmlns="http://www.w3.org/2000/svg" width="512" height="512" enable-background="new 0 0 512 512" viewBox="0 0 512 512" id="pineapple">
  <path fill="#4D7D3A" d="M213.262 197.1h41.705c0 0-19.197-89.368-103.931-88.043C151.036 109.056 212.6 144.803 213.262 197.1zM297.846 197.1h-41.705c0 0 19.198-89.368 103.932-88.043C360.072 109.056 298.509 144.803 297.846 197.1z"></path>
  <path fill="#4D7D3A" d="M219.452,153.071h41.705c0,0-19.198-89.367-103.931-88.043
					C157.225,65.028,218.789,100.775,219.452,153.071z"></path>
  <path fill="#4D7D3A" d="M298.739,153.071h-41.704c0,0,19.197-89.367,103.931-88.043
					C360.966,65.028,299.4,100.775,298.739,153.071z"></path>
  <path fill="#4D7D3A" d="M234.981,121.326h41.705c0,0-19.197-89.367-103.931-88.043
					C172.754,33.283,234.318,69.03,234.981,121.326z"></path>
  <path fill="#4D7D3A" d="M284.479,121.326h-41.706c0,0,19.198-89.367,103.932-88.043
					C346.706,33.283,285.142,69.03,284.479,121.326z"></path>
  <path fill="#4D7D3A" d="M276.89,197.628c0,11.458-9.29,20.746-20.749,20.746l0,0c-11.458,0-20.748-9.288-20.748-20.746v-89.115
				c0-11.458,9.29-20.747,20.748-20.747l0,0c11.459,0,20.749,9.289,20.749,20.747V197.628z"></path>
  <path d="M358.265,109.064c0,0-61.564,35.747-62.226,88.043H281.78c0.211-16.537,6.501-31.417,15.025-44.035
		c0.041-0.066,0.081-0.132,0.121-0.185c16.006-23.62,39.744-39.282,45.688-42.976C347.568,109.276,352.783,108.985,358.265,109.064z
		" opacity=".1"></path>
  <g opacity=".1">
    <path d="M296.927 152.888v.185h-.121C296.847 153.007 296.887 152.941 296.927 152.888zM359.152 65.029c0 0-32.701 18.985-50.682 49.53l-19.118 9.374c14.272-31.96 47.014-53.621 54.15-58.055C348.44 65.242 353.658 64.951 359.152 65.029z"></path>
  </g>
  <g opacity=".1">
    <path d="M344.894,33.281c0,0-26.93,15.636-45.347,41.36l-0.012,0.015c-9.468,4.606-17.49,10.591-24.296,17.211
			c14.338-31.79,46.895-53.316,54.004-57.738C334.194,33.493,339.412,33.202,344.894,33.281z"></path>
  </g>
  <g>
    <path fill="#FACC18" d="M374.291,356.741c-0.039,9.387-0.569,18.126-1.588,26.282v0.012c-0.266,2.265-0.597,4.488-0.941,6.659
			v0.014c-0.807,4.925-1.813,9.599-3.005,14.061v0.014c-1.02,3.878-2.197,7.572-3.521,11.122c-0.979,2.66-2.053,5.241-3.218,7.717
			c-0.794,1.734-1.641,3.431-2.528,5.085v0.013c-5.031,9.374-11.32,17.265-18.813,23.845c-1.351,1.205-2.74,2.356-4.17,3.456
			c-7.375,5.692-15.782,10.273-25.208,13.821c-0.875,0.345-1.762,0.662-2.661,0.967l-5.733,1.867h-0.014
			c-0.926,0.291-1.893,0.569-2.846,0.82h-0.013c-10.155,2.806-21.304,4.635-33.392,5.601c-2.342,0.199-4.712,0.357-7.123,0.478
			c-1.165,0.065-2.343,0.118-3.522,0.158c-1.191-0.04-2.37-0.093-3.535-0.158c-2.408-0.12-4.779-0.278-7.122-0.478
			c-12.101-0.966-23.249-2.795-33.404-5.601c-0.953-0.265-1.906-0.529-2.846-0.82c-1.959-0.583-3.866-1.192-5.746-1.867
			c-0.901-0.305-1.788-0.637-2.675-0.98c-9.413-3.548-17.821-8.115-25.181-13.821c-1.443-1.086-2.834-2.237-4.184-3.442
			c-7.494-6.58-13.77-14.498-18.801-23.857c-0.887-1.654-1.733-3.351-2.542-5.085c-1.139-2.476-2.211-5.031-3.191-7.691
			c-1.324-3.548-2.502-7.255-3.535-11.136v-0.012c-1.191-4.463-2.198-9.163-3.004-14.088v-0.013
			c-0.358-2.172-0.676-4.382-0.955-6.646c-1.006-8.143-1.536-16.881-1.562-26.267c-0.013-2.463,0.013-4.979,0.066-7.534
			c0.053-2.502,0.146-5.058,0.278-7.652c0.119-2.662,0.277-5.362,0.49-8.102c0.252-3.575,0.569-7.243,0.94-10.977
			c0.437-4.383,0.94-8.632,1.483-12.75v-0.014c0.305-2.263,0.609-4.461,0.953-6.645c1.02-6.754,2.198-13.134,3.509-19.172v-0.014
			c0.741-3.441,1.536-6.766,2.383-9.982c0.53-2.039,1.073-4.024,1.642-5.971c0.582-1.985,1.178-3.932,1.787-5.826
			c3.694-11.411,8.024-21.261,12.936-29.722v-0.013c0.953-1.628,1.92-3.191,2.898-4.713c3.946-6.091,8.222-11.387,12.79-15.981
			c2.37-2.37,4.806-4.568,7.335-6.566c1.43-1.139,2.873-2.225,4.355-3.244c9.003-6.276,18.907-10.499,29.499-13.187
			c2.052-0.516,4.116-0.98,6.223-1.377c2.779-0.543,5.6-0.993,8.473-1.337c2.754-0.345,5.561-0.609,8.396-0.795
			c3.891-0.264,7.836-0.384,11.848-0.384c4.012,0,7.958,0.12,11.837,0.384c2.832,0.186,5.64,0.437,8.394,0.795
			c2.873,0.344,5.692,0.794,8.474,1.337c2.105,0.397,4.17,0.861,6.223,1.377c10.604,2.673,20.494,6.911,29.511,13.173
			c1.311,0.913,2.569,1.853,3.826,2.86l0.517,0.396h0.012c7.402,5.892,14.142,13.305,20.125,22.547
			c0.98,1.522,1.947,3.085,2.888,4.713c4.911,8.46,9.253,18.31,12.935,29.734c0.621,1.895,1.218,3.841,1.786,5.826
			c0.583,1.946,1.127,3.945,1.655,5.984c0.848,3.218,1.642,6.54,2.384,9.982v0.013c1.324,6.025,2.489,12.405,3.508,19.146
			c0.331,2.184,0.649,4.396,0.954,6.658c0.542,4.132,1.045,8.381,1.482,12.764c0.371,3.747,0.689,7.401,0.939,10.989
			c0.212,2.739,0.371,5.44,0.49,8.103c0.133,2.581,0.225,5.124,0.278,7.625C374.265,351.776,374.291,354.279,374.291,356.741z"></path>
    <path fill="#F39E1E" d="M244.147 185.197l-9.494 9.507-28.942 28.942-21.343 21.328-3.799 3.813-21.343 21.329-3.8 3.813-9.996 9.982c.741-3.441 1.536-6.766 2.383-9.982l3.8-3.8 3.813-3.813 21.329-21.328 3.813-3.813 21.329-21.328 3.813-3.813 21.328-21.329 3.814-3.8 4.898-4.912C238.505 185.646 241.312 185.383 244.147 185.197zM284.699 187.329l-3.563 3.575-3.812 3.8-21.331 21.343-3.813 3.799-21.329 21.328-3.814 3.813-21.328 21.328-3.813 3.813-21.329 21.329-3.813 3.813-21.329 21.33-3.8 3.799-13.08 13.082c-.212 2.739-.371 5.439-.49 8.102l17.37-17.384 3.8-3.8 21.343-21.329 3.799-3.812 21.343-21.33 3.8-3.813 21.342-21.329 3.8-3.8 21.341-21.341 3.8-3.8 21.33-21.342 3.813-3.8 5.984-5.998L284.699 187.329zM320.433 201.879l-14.153 14.167-3.813 3.799-21.33 21.343-3.812 3.798-21.331 21.328-3.813 3.813-21.329 21.329-3.814 3.813-21.328 21.33-3.813 3.813-21.329 21.327-3.8 3.801-21.343 21.342-3.8 3.8-12.353 12.353c.278 2.265.597 4.475.955 6.646l15.198-15.199 3.8-3.8 21.343-21.33 3.799-3.812 21.343-21.329 3.8-3.813 21.342-21.329 3.8-3.812 21.341-21.33 3.8-3.813 21.33-21.329 3.813-3.8 21.329-21.341 3.813-3.8 14.696-14.709h.012L320.433 201.879zM344.912 227.684l-13.504 13.49-3.799 3.813-21.343 21.328-3.8 3.813-21.33 21.329-3.812 3.813-21.331 21.33-3.813 3.799-21.329 21.342-3.814 3.801-21.328 21.342-3.813 3.8-21.329 21.342-3.8 3.801-20.76 20.746-3.8 3.8-2.251 2.25c.808 1.734 1.655 3.431 2.542 5.085l3.522-3.522 3.8-3.8 20.747-20.759 3.799-3.8 21.343-21.329 3.8-3.813 21.342-21.33 3.8-3.812 21.341-21.329 3.8-3.813 21.33-21.329 3.813-3.812 21.329-21.33 3.813-3.8 21.329-21.341 3.813-3.8 12.578-12.59L344.912 227.684zM362.521 267.957l-2.158 2.171-3.813 3.8-21.328 21.342-3.813 3.8-21.329 21.329-3.813 3.813-21.329 21.329-25.143 25.142-3.8 3.813-21.341 21.329-3.8 3.813-21.342 21.328-3.8 3.8-20.746 20.762-9.48 9.479c-1.443-1.086-2.834-2.237-4.184-3.442l6.051-6.051 3.798-3.799 20.761-20.748 3.8-3.799 21.328-21.342 3.814-3.801 21.329-21.342 3.813-3.8 21.331-21.342 3.812-3.801 21.33-21.342 3.8-3.799 21.343-21.342 3.799-3.801 29.326-29.326L362.521 267.957zM371.021 309.74l-10.659 10.673-3.813 3.799-21.328 21.329-3.813 3.812-21.329 21.33-28.954 28.955-21.33 21.328-3.8 3.8-21.341 21.342-3.8 3.801-20.748 20.746-1.019 1.021c-1.959-.583-3.866-1.192-5.746-1.867l2.952-2.953 20.76-20.747 3.8-3.8 21.329-21.342 3.813-3.799 21.331-21.342 3.812-3.801 21.33-21.342 3.813-3.8 21.33-21.342 3.799-3.801 21.342-21.342 3.8-3.799 13.518-13.518C370.398 305.266 370.717 307.478 371.021 309.74zM374.291 356.741l-17.741 17.741-21.328 21.343-3.813 3.8-21.329 21.341-3.813 3.8-21.329 21.342-3.813 3.801-21.33 21.343-3.8 3.8-3.535 3.522c-2.408-.12-4.779-.278-7.122-.478l6.858-6.845 3.799-3.8 21.331-21.344 3.812-3.8 21.33-21.342 3.813-3.799 21.33-21.342 3.813-3.801 21.327-21.342 21.462-21.462L374.291 356.741zM309.483 470.654l1.814-1.813 19.515-19.514 3.813-3.814 21.327-21.329 3.814-3.813 5.468-5.467c1.324-3.55 2.502-7.244 3.521-11.122l-12.789 12.789-3.812 3.813-21.33 21.33-3.813 3.813-21.329 21.327-3.813 3.8-1.826 1.841c.953-.251 1.92-.529 2.846-.82h.014L309.483 470.654z"></path>
    <path fill="#F39E1E" d="M364.176 273.941c.848 3.218 1.642 6.54 2.384 9.982l-10.01-9.996-3.8-3.813-21.342-21.329-3.799-3.8-21.343-21.341-28.941-28.942-9.493-9.507c2.832.186 5.64.437 8.394.795l55.183 55.182 3.813 3.813 21.328 21.328L364.176 273.941zM373.934 341.596l-17.384-17.384-3.8-3.813-21.342-21.329-3.799-3.812-21.343-21.33-28.941-28.941-21.331-21.341-3.813-3.8-21.329-21.342-3.814-3.8-5.983-5.998c2.052-.516 4.116-.98 6.223-1.377l7.375 7.375 21.341 21.343 25.142 25.142 3.801 3.798 25.142 25.141 21.329 21.329 3.813 3.813 21.328 21.33 16.894 16.894C373.655 336.232 373.814 338.934 373.934 341.596zM360.35 370.683l12.354 12.341v.012c-.266 2.265-.597 4.488-.941 6.659l-19.012-19.012-21.342-21.33-3.799-3.812-21.343-21.329-3.8-3.813-21.342-21.329-3.8-3.8-21.331-21.342-3.813-3.8-21.329-21.341-3.814-3.8-21.328-21.341-3.813-3.8-14.696-14.709c1.43-1.139 2.873-2.225 4.355-3.244l14.154 14.14 3.8 3.813 21.342 21.328 3.8 3.813 21.341 21.328 28.943 28.943 21.329 21.342 3.813 3.799 21.329 21.342 3.813 3.801 21.328 21.342L360.35 370.683zM362.018 422.621c-.794 1.734-1.641 3.431-2.528 5.085l-3.536-3.522-3.797-3.8-20.748-20.759-3.799-3.8-21.343-21.329-3.8-3.813-21.342-21.33-3.8-3.812-21.331-21.329-3.813-3.813-21.329-21.329-3.814-3.8-21.328-21.342-3.813-3.8-21.329-21.341-3.813-3.8-12.577-12.578v-.013c.953-1.628 1.92-3.191 2.898-4.713l13.492 13.49 54.084 54.084 21.341 21.342 3.8 3.799L362.018 422.621zM340.676 451.563c-1.351 1.205-2.74 2.356-4.17 3.456l-9.493-9.492-20.746-20.762-3.8-3.8-21.342-21.328-3.8-3.813-25.143-25.143-21.329-21.33-3.814-3.812-21.328-21.329-3.813-3.799-21.329-21.344-3.813-3.8-21.329-21.342-3.813-3.8-2.158-2.171c.582-1.985 1.178-3.932 1.787-5.826l4.184 4.184 3.8 3.801 46.485 46.484 3.8 3.799 25.142 25.143 21.341 21.342 50.285 50.284 3.8 3.799 20.747 20.748 3.8 3.799L340.676 451.563zM309.483 470.654l-.847-.847-2.953-2.953-20.746-20.747-3.801-3.8-21.342-21.342-3.8-3.799-21.341-21.342-3.8-3.801-21.342-21.342-3.8-3.8-21.343-21.342-3.799-3.801-21.343-21.342-3.8-3.799-13.504-13.504c-.344 2.184-.648 4.382-.953 6.645v.014l10.657 10.645 3.8 3.8 21.343 21.343 3.8 3.812 21.329 21.33 3.813 3.813 21.328 21.329 3.814 3.813 21.329 21.328 3.813 3.8 21.331 21.342 3.8 3.801 20.745 20.746 1.02 1.021h.014L309.483 470.654zM266.64 478.096c-2.342.199-4.712.357-7.123.478l-3.522-3.522-3.799-3.8-50.284-50.285-21.342-21.341-3.8-3.8-21.343-21.343-3.8-3.8-13.914-13.914c-.013-2.463.013-4.979.066-7.534l17.648 17.648 3.8 3.8 46.485 46.484 3.8 3.799 25.142 25.142 21.341 21.344L266.64 478.096zM211.933 472.495c-.953-.265-1.906-.529-2.846-.82-1.959-.583-3.866-1.192-5.746-1.867l-.848.847-1.827-1.827-19.501-19.5-3.813-3.814-21.33-21.329-3.813-3.813-5.442-5.441c-1.324-3.548-2.502-7.255-3.535-11.136l12.777 12.777 3.813 3.813 21.328 21.33 3.814 3.813 21.328 21.327 3.813 3.8L211.933 472.495z"></path>
  </g>
  <path d="M373.597,356.743c-0.041,9.386-0.571,18.124-1.59,26.28v0.012c-0.265,2.265-0.596,4.489-0.939,6.659v0.014
		c-0.809,4.926-1.813,9.599-3.007,14.061v0.015c-1.019,3.878-2.196,7.572-3.521,11.121c-0.979,2.66-2.054,5.241-3.218,7.718
		c-0.794,1.733-1.643,3.43-2.529,5.084v0.013c-5.031,9.374-11.319,17.265-18.813,23.846c-1.35,1.205-2.74,2.355-4.17,3.455
		c-7.374,5.694-15.781,10.274-25.208,13.822c-0.874,0.344-1.761,0.662-2.66,0.966l-5.733,1.867h-0.014
		c-0.926,0.292-1.894,0.57-2.846,0.82h-0.014c-10.155,2.808-21.303,4.635-33.391,5.602c-2.343,0.198-4.713,0.356-7.123,0.477
		c-1.166,0.065-2.343,0.118-3.522,0.158c-1.191-0.04-2.369-0.093-3.534-0.158c-1.934-0.093-3.839-0.213-5.733-0.37
		c0.464-0.028,0.927-0.068,1.377-0.106c12.089-0.967,23.236-2.794,33.392-5.602h0.014c0.952-0.25,1.92-0.528,2.845-0.82h0.015
		l5.733-1.867c0.899-0.304,1.786-0.622,2.66-0.966c9.427-3.548,17.833-8.128,25.208-13.822c1.43-1.1,2.819-2.25,4.17-3.455
		c7.494-6.581,13.782-14.472,18.813-23.846v-0.013c0.887-1.654,1.734-3.351,2.528-5.084c1.165-2.477,2.239-5.058,3.219-7.718
		c1.324-3.549,2.502-7.243,3.521-11.121v-0.015c1.191-4.462,2.198-9.135,3.006-14.061v-0.014c0.344-2.17,0.676-4.395,0.94-6.659
		v-0.012c1.019-8.156,1.549-16.895,1.588-26.28c0-2.464-0.026-4.966-0.079-7.522c-0.054-2.501-0.145-5.043-0.278-7.625
		c-0.119-2.661-0.277-5.362-0.49-8.103c-0.25-3.588-0.568-7.242-0.939-10.989c-0.438-4.381-0.94-8.631-1.483-12.762
		c-0.304-2.264-0.622-4.476-0.952-6.66c-1.019-6.739-2.184-13.12-3.508-19.145v-0.013c-0.742-3.443-1.537-6.766-2.385-9.982
		c-0.528-2.039-1.072-4.038-1.655-5.985c-0.568-1.985-1.165-3.932-1.786-5.825c-3.682-11.423-8.024-21.275-12.936-29.734
		c-0.94-1.629-1.905-3.191-2.886-4.714c-5.984-9.24-12.724-16.655-20.125-22.546h-0.013l-0.516-0.398
		c-1.258-1.006-2.517-1.946-3.827-2.859c-9.016-6.263-18.906-10.5-29.512-13.175c-2.052-0.516-4.116-0.979-6.222-1.375
		c-2.781-0.543-5.601-0.993-8.474-1.339c-2.754-0.357-5.562-0.609-8.394-0.793c-0.848-0.053-1.708-0.106-2.569-0.146
		c3.059-0.172,6.145-0.238,9.268-0.238c4.013,0,7.959,0.119,11.837,0.384c2.834,0.185,5.641,0.437,8.395,0.793
		c2.872,0.346,5.692,0.795,8.473,1.339c2.105,0.396,4.17,0.859,6.222,1.375c10.607,2.674,20.496,6.912,29.512,13.175
		c1.312,0.913,2.569,1.853,3.827,2.859l0.516,0.398h0.014c7.4,5.891,14.14,13.306,20.124,22.546c0.98,1.523,1.945,3.085,2.886,4.714
		c4.911,8.459,9.254,18.311,12.936,29.734c0.622,1.894,1.218,3.84,1.787,5.825c0.583,1.947,1.126,3.946,1.654,5.985
		c0.85,3.217,1.643,6.539,2.385,9.982v0.013c1.324,6.024,2.489,12.405,3.508,19.145c0.33,2.185,0.648,4.396,0.952,6.66
		c0.543,4.131,1.047,8.381,1.483,12.762c0.371,3.747,0.689,7.401,0.939,10.989c0.213,2.74,0.372,5.441,0.49,8.103
		c0.134,2.582,0.225,5.124,0.278,7.625C373.568,351.777,373.597,354.279,373.597,356.743z" opacity=".1"></path>
</svg>
