<svg xmlns="http://www.w3.org/2000/svg" viewBox="0 0 64 64" id="radish">
  <path fill="#63b300" d="M47.89 16.33c-.12.13-.25.26-.38.38.45 1.34.17 2.86-.8 3.94-.47.52-1.07.91-1.74 1.12-.14.69-.45 1.33-.92 1.86a3.992 3.992 0 0 1-5.65.31L37 25.51l-1.93 2.16c-.18.2-.43.32-.69.33h-.06c-.24 0-.48-.09-.67-.25L32 26.27l-1.65 1.48c-.2.18-.46.27-.73.25a.985.985 0 0 1-.69-.33L27 25.51l-1.4-1.57c-.8.72-1.83 1.08-2.89 1.02s-2.04-.53-2.76-1.33c-.47-.53-.78-1.17-.92-1.86-.67-.21-1.27-.6-1.74-1.12a4.003 4.003 0 0 1-.8-3.94 4.984 4.984 0 0 1-1.65-3.99c.08-1.33.67-2.56 1.66-3.45 2.06-1.84 5.23-1.66 7.06.39.09.11.18.21.26.33.03.03.05.07.08.1 1.39-.3 2.86.15 3.82 1.22a4 4 0 0 1 .93 1.86c.67.21 1.27.6 1.74 1.12.21.24.68.76 1.61 3.76.93-3 1.4-3.52 1.61-3.76.47-.52 1.07-.91 1.74-1.12a4 4 0 0 1 .93-1.86 4.002 4.002 0 0 1 3.82-1.22.7.7 0 0 1 .08-.1c.08-.11.16-.22.25-.32a5.011 5.011 0 0 1 7.07-.4c.99.89 1.58 2.12 1.66 3.45.07 1.33-.38 2.62-1.27 3.61Z"></path>
  <path fill="#527710" d="M32 18.05V29h-2c-1.65 0-3-1.35-3-3v-3.34c-2.33-.83-4-3.05-4-5.66 0-.68.12-1.36.35-2a5.911 5.911 0 0 1 .47-5.01c.03.03.05.07.08.1 1.39-.3 2.86.15 3.82 1.22a4 4 0 0 1 .93 1.86c.67.21 1.27.6 1.74 1.12.21.24.68.76 1.61 3.76Z"></path>
  <path fill="#9cdf00" d="M38.45 15c.36.61.55 1.29.55 2 0 2.21-1.79 4-4 4v5c0 .55-.45 1-1 1h-4c-.55 0-1-.45-1-1v-5c-2.21 0-4-1.79-4-4 0-.71.19-1.39.55-2-.36-.61-.55-1.29-.55-2 0-1.45.8-2.76 2.03-3.46A5.002 5.002 0 0 1 32 4a5.002 5.002 0 0 1 4.97 5.54C38.2 10.24 39 11.55 39 13c0 .71-.19 1.39-.55 2Z"></path>
  <path fill="#63b300" d="M31 26v-5c-2.21 0-4-1.79-4-4 0-.71.19-1.39.55-2-.36-.61-.55-1.29-.55-2 0-1.45.8-2.76 2.03-3.46A5.004 5.004 0 0 1 33 4.101a5.002 5.002 0 0 0-5.97 5.439C25.8 10.24 25 11.55 25 13c0 .71.19 1.39.55 2-.36.61-.55 1.29-.55 2 0 2.21 1.79 4 4 4v5c0 .55.45 1 1 1h2c-.55 0-1-.45-1-1Z"></path>
  <path fill="#f75749" d="M48 41c0 5.54-2.81 10.6-7.52 13.55-1.92 1.21-3.71 2.68-5.2 3.95l-2.63 2.26c-.19.16-.42.24-.65.24s-.46-.08-.65-.24l-2.49-2.13c-1.55-1.33-3.4-2.86-5.37-4.1-4.81-3.02-7.61-8.21-7.49-13.88.18-8.38 6.88-15.24 15.24-15.63 4.42-.2 8.61 1.36 11.81 4.41C46.24 32.47 48 36.58 48 41Z"></path>
  <path fill="#da1202" d="M30.86 58.63c-1.55-1.33-3.4-2.86-5.37-4.1-4.81-3.02-7.61-8.21-7.49-13.88.178-8.305 6.764-15.109 15.02-15.609a16.484 16.484 0 0 0-1.78-.021c-8.36.39-15.06 7.25-15.24 15.63-.12 5.67 2.68 10.86 7.49 13.88 1.97 1.24 3.82 2.77 5.37 4.1l2.49 2.13c.19.16.42.24.65.24s.46-.08.65-.24l.349-.3-2.139-1.83zM46.85 47c-.29.69-.61 1.36-.99 2H43c-.55 0-1-.45-1-1s.45-1 1-1h3.85zM39 49h-2a1 1 0 1 1 0-2h2a1 1 0 1 1 0 2z"></path>
  <path fill="#da1202" d="M21 36c0 .55-.45 1-1 1h-3.5c.18-.69.4-1.36.67-2H20c.55 0 1 .45 1 1zm5 1h-2a1 1 0 1 1 0-2h2a1 1 0 1 1 0 2z"></path>
  <path fill="#f7786d" d="M43 42a1 1 0 0 1-1-1c0-.611-.056-1.223-.166-1.818a1.001 1.001 0 0 1 1.967-.365c.132.715.199 1.449.199 2.182a1 1 0 0 1-1 1zm-1.783-6a.999.999 0 0 1-.838-.453A9.984 9.984 0 0 0 32 31a1 1 0 1 1 0-2 11.98 11.98 0 0 1 10.053 5.453.998.998 0 0 1-.836 1.547z"></path>
  <path fill="#745a00" d="M49.02 58c-.552 0-1.005-.448-1.005-1s.443-1 .995-1h.01a1 1 0 1 1 0 2zm4-30c-.552 0-1.005-.448-1.005-1s.443-1 .995-1h.01a1 1 0 1 1 0 2zm-50 12c-.552 0-1.005-.448-1.005-1s.443-1 .995-1h.01a1 1 0 1 1 0 2zm10-36c-.552 0-1.005-.448-1.005-1s.443-1 .995-1h.01a1 1 0 1 1 0 2z"></path>
  <path fill="#f8ef00" d="M16 56c0 .43-.28.81-.68.95a4.737 4.737 0 0 0-3.12 3.36l-.23.93c-.11.45-.51.76-.97.76s-.86-.31-.97-.76l-.23-.93a4.737 4.737 0 0 0-3.12-3.36c-.4-.14-.68-.52-.68-.95s.28-.81.68-.95a4.737 4.737 0 0 0 3.12-3.36l.23-.93c.11-.45.51-.76.97-.76s.86.31.97.76l.23.93c.4 1.59 1.56 2.84 3.12 3.36.4.14.68.52.68.95zm46-42c0 .43-.28.81-.68.95a4.737 4.737 0 0 0-3.12 3.36l-.23.93c-.11.45-.51.76-.97.76s-.86-.31-.97-.76l-.23-.93a4.737 4.737 0 0 0-3.12-3.36c-.4-.14-.68-.52-.68-.95s.28-.81.68-.95a4.737 4.737 0 0 0 3.12-3.36l.23-.93c.11-.45.51-.76.97-.76s.86.31.97.76l.23.93c.4 1.59 1.56 2.84 3.12 3.36.4.14.68.52.68.95z"></path>
</svg>
