<svg xmlns="http://www.w3.org/2000/svg" id="watermelon" width="512" height="512" version="1.1">
  <defs id="defs3912">
    <clipPath id="clipPath21843" clipPathUnits="userSpaceOnUse">
      <path id="path21845" d="m -3178.125,-2737.5 a 340.625,340.625 0 1 1 -681.25,0 340.625,340.625 0 1 1 681.25,0 z" style="fill:#e74c3c;fill-opacity:1;stroke:none" transform="rotate(90 -3446.014 -2172.656)scale(1.06422)"></path>
    </clipPath>
    <clipPath id="clipPath4840" clipPathUnits="userSpaceOnUse">
      <path id="path4842" d="m -159.6041,267.54309 a 232.33508,232.33508 0 1 1 -464.67016,0 232.33508,232.33508 0 1 1 464.67016,0 z" style="fill:#2c3e50;fill-opacity:1;stroke:none" transform="matrix(1.033 0 0 1.033 660.87 -20.37)"></path>
    </clipPath>
  </defs>
  <g id="layer1" transform="translate(0 -540.362)">
    <g id="g4293" transform="matrix(1.77779 0 0 1.77779 627.437 -540.385)">
      <path id="path4344" d="m 326.59813,413.31174 c 0,2.04766 -1.65996,3.70762 -3.70763,3.70762 -2.04766,0 -3.70762,-1.65996 -3.70762,-3.70762 0,-0.0223 2e-4,-0.0445 6e-4,-0.0668" style="fill:#fff;fill-opacity:1;stroke:#2ecc71;stroke-width:.27230093;stroke-miterlimit:4;stroke-opacity:1;stroke-dasharray:none" transform="scale(40.08018)rotate(30.58 882.21 -384.014)"></path>
      <path id="path3807" d="m 326.59813,413.31174 c 0,2.04766 -1.65996,3.70762 -3.70763,3.70762 -2.04766,0 -3.70762,-1.65996 -3.70762,-3.70762 0,-0.0223 2e-4,-0.0445 6e-4,-0.0668" style="fill:#e74c3c;fill-opacity:1;stroke:none" transform="scale(36.2144)rotate(30.58 878.461 -384.021)"></path>
      <path id="path20405-7-0" d="m -2565.4718,-2855.9631 c 0,5.4917 -2.4733,9.9437 -5.5243,9.9437 -3.051,0 -5.5243,-4.452 -5.5243,-9.9437 0,-5.4918 2.4733,-9.9437 5.5243,-9.9437 3.051,0 5.5243,4.4519 5.5243,9.9437 z" style="fill:none;stroke:#262626;stroke-width:10;stroke-miterlimit:4;stroke-opacity:1;stroke-dasharray:none" transform="scale(-.28393)rotate(30.58 -1201.567 3725.581)"></path>
      <path id="path20407-78-7" d="m -2470.4544,-2858.1729 c 0,4.2714 -3.9573,7.734 -8.8388,7.734 -4.8816,0 -8.8388,-3.4626 -8.8388,-7.734 0,-4.2713 3.9572,-7.7339 8.8388,-7.7339 4.8815,0 8.8388,3.4626 8.8388,7.7339 z" style="fill:none;stroke:#262626;stroke-width:10;stroke-miterlimit:4;stroke-opacity:1;stroke-dasharray:none" transform="scale(-.28393)rotate(30.58 -1201.567 3725.581)"></path>
      <path id="path20409-8-3" d="m -2556.6329,-2784.1475 c 0,3.6612 -5.9359,6.6292 -13.2582,6.6292 -7.3223,0 -13.2583,-2.968 -13.2583,-6.6292 0,-3.6611 5.936,-6.6291 13.2583,-6.6291 7.3223,0 13.2582,2.968 13.2582,6.6291 z" style="fill:none;stroke:#262626;stroke-width:10;stroke-miterlimit:4;stroke-opacity:1;stroke-dasharray:none" transform="scale(-.28393)rotate(30.58 -1201.567 3725.581)"></path>
      <path id="path20411-9-2" d="m -2461.6155,-2768.6794 c 0,2.4407 -3.9573,4.4194 -8.8388,4.4194 -4.8816,0 -8.8389,-1.9787 -8.8389,-4.4194 0,-2.4408 3.9573,-4.4195 8.8389,-4.4195 4.8815,0 8.8388,1.9787 8.8388,4.4195 z" style="fill:none;stroke:#262626;stroke-width:10;stroke-miterlimit:4;stroke-opacity:1;stroke-dasharray:none" transform="scale(-.28393)rotate(30.58 -1201.567 3725.581)"></path>
      <path id="path20413-72-2" d="m -2519.068,-2706.8076 c 0,3.6611 -3.4626,6.6291 -7.734,6.6291 -4.2714,0 -7.734,-2.968 -7.734,-6.6291 0,-3.6612 3.4626,-6.6291 7.734,-6.6291 4.2714,0 7.734,2.9679 7.734,6.6291 z" style="fill:none;stroke:#262626;stroke-width:10;stroke-miterlimit:4;stroke-opacity:1;stroke-dasharray:none" transform="scale(-.28393)rotate(30.58 -1201.567 3725.581)"></path>
      <path id="path20417-1-8" d="m -2600.8272,-2734.429 c 0,3.051 -1.9786,5.5243 -4.4194,5.5243 -2.4408,0 -4.4194,-2.4733 -4.4194,-5.5243 0,-3.0509 1.9786,-5.5242 4.4194,-5.5242 2.4408,0 4.4194,2.4733 4.4194,5.5242 z" style="fill:none;stroke:#262626;stroke-width:10;stroke-miterlimit:4;stroke-opacity:1;stroke-dasharray:none" transform="scale(-.28393)rotate(30.58 -1201.567 3725.581)"></path>
      <path id="path20419-2-4" d="m -2428.4699,-2821.7126 c 0,3.6611 -1.4839,6.6291 -3.3145,6.6291 -1.8306,0 -3.3146,-2.968 -3.3146,-6.6291 0,-3.6612 1.484,-6.6292 3.3146,-6.6292 1.8306,0 3.3145,2.968 3.3145,6.6292 z" style="fill:none;stroke:#262626;stroke-width:10;stroke-miterlimit:4;stroke-opacity:1;stroke-dasharray:none" transform="scale(-.28393)rotate(30.58 -1201.567 3725.581)"></path>
      <path id="path20421-3-4" d="m -2492.5513,-2809.5591 c 0,4.2714 -3.9573,7.734 -8.8388,7.734 -4.8816,0 -8.8389,-3.4626 -8.8389,-7.734 0,-4.2713 3.9573,-7.734 8.8389,-7.734 4.8815,0 8.8388,3.4627 8.8388,7.734 z" style="fill:none;stroke:#262626;stroke-width:10;stroke-miterlimit:4;stroke-opacity:1;stroke-dasharray:none" transform="scale(-.28393)rotate(30.58 -1201.567 3725.581)"></path>
      <path id="path20426-21-0" d="m -2512.4388,-2896.8425 c 0,2.4407 -3.9572,4.4194 -8.8388,4.4194 -4.8815,0 -8.8388,-1.9787 -8.8388,-4.4194 0,-2.4408 3.9573,-4.4194 8.8388,-4.4194 4.8816,0 8.8388,1.9786 8.8388,4.4194 z" style="fill:none;stroke:#262626;stroke-width:10;stroke-miterlimit:4;stroke-opacity:1;stroke-dasharray:none" transform="scale(-.28393)rotate(30.58 -1201.567 3725.581)"></path>
      <path id="path20428-5-3" d="m -2616.2952,-2834.9707 c 0,6.1019 -2.968,11.0485 -6.6291,11.0485 -3.6612,0 -6.6291,-4.9466 -6.6291,-11.0485 0,-6.1019 2.9679,-11.0485 6.6291,-11.0485 3.6611,0 6.6291,4.9466 6.6291,11.0485 z" style="fill:none;stroke:#262626;stroke-width:10;stroke-miterlimit:4;stroke-opacity:1;stroke-dasharray:none" transform="scale(-.28393)rotate(30.58 -1201.567 3725.581)"></path>
      <path id="path8215" d="m -2565.4718,-2855.9631 c 0,5.4917 -2.4733,9.9437 -5.5243,9.9437 -3.051,0 -5.5243,-4.452 -5.5243,-9.9437 0,-5.4918 2.4733,-9.9437 5.5243,-9.9437 3.051,0 5.5243,4.4519 5.5243,9.9437 z" style="fill:none;stroke:#262626;stroke-width:10;stroke-miterlimit:4;stroke-opacity:1;stroke-dasharray:none" transform="scale(-.28393 .28393)rotate(-30.58 9225.29 -5636.983)"></path>
      <path id="path8217" d="m -2470.4544,-2858.1729 c 0,4.2714 -3.9573,7.734 -8.8388,7.734 -4.8816,0 -8.8388,-3.4626 -8.8388,-7.734 0,-4.2713 3.9572,-7.7339 8.8388,-7.7339 4.8815,0 8.8388,3.4626 8.8388,7.7339 z" style="fill:none;stroke:#262626;stroke-width:10;stroke-miterlimit:4;stroke-opacity:1;stroke-dasharray:none" transform="scale(-.28393 .28393)rotate(-30.58 9225.29 -5636.983)"></path>
      <path id="path8219" d="m -2556.6329,-2784.1475 c 0,3.6612 -5.9359,6.6292 -13.2582,6.6292 -7.3223,0 -13.2583,-2.968 -13.2583,-6.6292 0,-3.6611 5.936,-6.6291 13.2583,-6.6291 7.3223,0 13.2582,2.968 13.2582,6.6291 z" style="fill:none;stroke:#262626;stroke-width:10;stroke-miterlimit:4;stroke-opacity:1;stroke-dasharray:none" transform="scale(-.28393 .28393)rotate(-30.58 9225.29 -5636.983)"></path>
      <path id="path8221" d="m -2461.6155,-2768.6794 c 0,2.4407 -3.9573,4.4194 -8.8388,4.4194 -4.8816,0 -8.8389,-1.9787 -8.8389,-4.4194 0,-2.4408 3.9573,-4.4195 8.8389,-4.4195 4.8815,0 8.8388,1.9787 8.8388,4.4195 z" style="fill:none;stroke:#262626;stroke-width:10;stroke-miterlimit:4;stroke-opacity:1;stroke-dasharray:none" transform="scale(-.28393 .28393)rotate(-30.58 9225.29 -5636.983)"></path>
      <path id="path8223" d="m -2519.068,-2706.8076 c 0,3.6611 -3.4626,6.6291 -7.734,6.6291 -4.2714,0 -7.734,-2.968 -7.734,-6.6291 0,-3.6612 3.4626,-6.6291 7.734,-6.6291 4.2714,0 7.734,2.9679 7.734,6.6291 z" style="fill:none;stroke:#262626;stroke-width:10;stroke-miterlimit:4;stroke-opacity:1;stroke-dasharray:none" transform="scale(-.28393 .28393)rotate(-30.58 9225.29 -5636.983)"></path>
      <path id="path8225" d="m -2600.8272,-2734.429 c 0,3.051 -1.9786,5.5243 -4.4194,5.5243 -2.4408,0 -4.4194,-2.4733 -4.4194,-5.5243 0,-3.0509 1.9786,-5.5242 4.4194,-5.5242 2.4408,0 4.4194,2.4733 4.4194,5.5242 z" style="fill:none;stroke:#262626;stroke-width:10;stroke-miterlimit:4;stroke-opacity:1;stroke-dasharray:none" transform="scale(-.28393 .28393)rotate(-30.58 9225.29 -5636.983)"></path>
      <path id="path8227" d="m -2428.4699,-2821.7126 c 0,3.6611 -1.4839,6.6291 -3.3145,6.6291 -1.8306,0 -3.3146,-2.968 -3.3146,-6.6291 0,-3.6612 1.484,-6.6292 3.3146,-6.6292 1.8306,0 3.3145,2.968 3.3145,6.6292 z" style="fill:none;stroke:#262626;stroke-width:10;stroke-miterlimit:4;stroke-opacity:1;stroke-dasharray:none" transform="scale(-.28393 .28393)rotate(-30.58 9225.29 -5636.983)"></path>
      <path id="path8229" d="m -2492.5513,-2809.5591 c 0,4.2714 -3.9573,7.734 -8.8388,7.734 -4.8816,0 -8.8389,-3.4626 -8.8389,-7.734 0,-4.2713 3.9573,-7.734 8.8389,-7.734 4.8815,0 8.8388,3.4627 8.8388,7.734 z" style="fill:none;stroke:#262626;stroke-width:10;stroke-miterlimit:4;stroke-opacity:1;stroke-dasharray:none" transform="scale(-.28393 .28393)rotate(-30.58 9225.29 -5636.983)"></path>
      <path id="path8231" d="m -2512.4388,-2896.8425 c 0,2.4407 -3.9572,4.4194 -8.8388,4.4194 -4.8815,0 -8.8388,-1.9787 -8.8388,-4.4194 0,-2.4408 3.9573,-4.4194 8.8388,-4.4194 4.8816,0 8.8388,1.9786 8.8388,4.4194 z" style="fill:none;stroke:#262626;stroke-width:10;stroke-miterlimit:4;stroke-opacity:1;stroke-dasharray:none" transform="scale(-.28393 .28393)rotate(-30.58 9225.29 -5636.983)"></path>
      <path id="path8233" d="m -2616.2952,-2834.9707 c 0,6.1019 -2.968,11.0485 -6.6291,11.0485 -3.6612,0 -6.6291,-4.9466 -6.6291,-11.0485 0,-6.1019 2.9679,-11.0485 6.6291,-11.0485 3.6611,0 6.6291,4.9466 6.6291,11.0485 z" style="fill:none;stroke:#262626;stroke-width:10;stroke-miterlimit:4;stroke-opacity:1;stroke-dasharray:none" transform="scale(-.28393 .28393)rotate(-30.58 9225.29 -5636.983)"></path>
      <path id="path8267" d="m -2556.6329,-2784.1475 c 0,3.6612 -5.9359,6.6292 -13.2582,6.6292 -7.3223,0 -13.2583,-2.968 -13.2583,-6.6292 0,-3.6611 5.936,-6.6291 13.2583,-6.6291 7.3223,0 13.2582,2.968 13.2582,6.6291 z" style="fill:none;stroke:#262626;stroke-width:10;stroke-miterlimit:4;stroke-opacity:1;stroke-dasharray:none" transform="scale(-.28393 .28393)rotate(-30.58 8888.254 -6264.432)"></path>
      <path id="path8269" d="m -2556.6329,-2784.1475 c 0,3.6612 -5.9359,6.6292 -13.2582,6.6292 -7.3223,0 -13.2583,-2.968 -13.2583,-6.6292 0,-3.6611 5.936,-6.6291 13.2583,-6.6291 7.3223,0 13.2582,2.968 13.2582,6.6291 z" style="fill:none;stroke:#262626;stroke-width:10;stroke-miterlimit:4;stroke-opacity:1;stroke-dasharray:none" transform="scale(-.28393 .28393)rotate(-30.58 9223.22 -6039.385)"></path>
      <path id="path8271" d="m -2556.6329,-2784.1475 c 0,3.6612 -5.9359,6.6292 -13.2582,6.6292 -7.3223,0 -13.2583,-2.968 -13.2583,-6.6292 0,-3.6611 5.936,-6.6291 13.2583,-6.6291 7.3223,0 13.2582,2.968 13.2582,6.6291 z" style="fill:none;stroke:#262626;stroke-width:10;stroke-miterlimit:4;stroke-opacity:1;stroke-dasharray:none" transform="scale(-.28393 .28393)rotate(-30.58 9337.406 -6477.169)"></path>
      <path id="path8273" d="m -2556.6329,-2784.1475 c 0,3.6612 -5.9359,6.6292 -13.2582,6.6292 -7.3223,0 -13.2583,-2.968 -13.2583,-6.6292 0,-3.6611 5.936,-6.6291 13.2583,-6.6291 7.3223,0 13.2582,2.968 13.2582,6.6291 z" style="fill:none;stroke:#262626;stroke-width:10;stroke-miterlimit:4;stroke-opacity:1;stroke-dasharray:none" transform="scale(-.28393 .28393)rotate(-30.58 9527.286 -6072.14)"></path>
      <path id="path8275" d="m -2556.6329,-2784.1475 c 0,3.6612 -5.9359,6.6292 -13.2582,6.6292 -7.3223,0 -13.2583,-2.968 -13.2583,-6.6292 0,-3.6611 5.936,-6.6291 13.2583,-6.6291 7.3223,0 13.2582,2.968 13.2582,6.6291 z" style="fill:none;stroke:#262626;stroke-width:10;stroke-miterlimit:4;stroke-opacity:1;stroke-dasharray:none" transform="scale(-.28393 .28393)rotate(-30.58 9253.23 -6245.477)"></path>
      <path id="path8277" d="m -2461.6155,-2768.6794 c 0,2.4407 -3.9573,4.4194 -8.8388,4.4194 -4.8816,0 -8.8389,-1.9787 -8.8389,-4.4194 0,-2.4408 3.9573,-4.4195 8.8389,-4.4195 4.8815,0 8.8388,1.9787 8.8388,4.4195 z" style="fill:none;stroke:#262626;stroke-width:10;stroke-miterlimit:4;stroke-opacity:1;stroke-dasharray:none" transform="scale(-.28393 .28393)rotate(-30.58 9337.813 -5804.465)"></path>
      <path id="path8279" d="m -2461.6155,-2768.6794 c 0,2.4407 -3.9573,4.4194 -8.8388,4.4194 -4.8816,0 -8.8389,-1.9787 -8.8389,-4.4194 0,-2.4408 3.9573,-4.4195 8.8389,-4.4195 4.8815,0 8.8388,1.9787 8.8388,4.4195 z" style="fill:none;stroke:#262626;stroke-width:10;stroke-miterlimit:4;stroke-opacity:1;stroke-dasharray:none" transform="scale(-.28393 .28393)rotate(-30.58 9024.114 -6096.49)"></path>
      <path id="path8281" d="m -2461.6155,-2768.6794 c 0,2.4407 -3.9573,4.4194 -8.8388,4.4194 -4.8816,0 -8.8389,-1.9787 -8.8389,-4.4194 0,-2.4408 3.9573,-4.4195 8.8389,-4.4195 4.8815,0 8.8388,1.9787 8.8388,4.4195 z" style="fill:none;stroke:#262626;stroke-width:10;stroke-miterlimit:4;stroke-opacity:1;stroke-dasharray:none" transform="scale(-.28393 .28393)rotate(-30.58 9010.89 -5815.834)"></path>
      <path id="path8283" d="m -2461.6155,-2768.6794 c 0,2.4407 -3.9573,4.4194 -8.8388,4.4194 -4.8816,0 -8.8389,-1.9787 -8.8389,-4.4194 0,-2.4408 3.9573,-4.4195 8.8389,-4.4195 4.8815,0 8.8388,1.9787 8.8388,4.4195 z" style="fill:none;stroke:#262626;stroke-width:10;stroke-miterlimit:4;stroke-opacity:1;stroke-dasharray:none" transform="scale(-.28393 .28393)rotate(-30.58 9130.735 -5956.536)"></path>
      <path id="path8285" d="m -2461.6155,-2768.6794 c 0,2.4407 -3.9573,4.4194 -8.8388,4.4194 -4.8816,0 -8.8389,-1.9787 -8.8389,-4.4194 0,-2.4408 3.9573,-4.4195 8.8389,-4.4195 4.8815,0 8.8388,1.9787 8.8388,4.4195 z" style="fill:none;stroke:#262626;stroke-width:10;stroke-miterlimit:4;stroke-opacity:1;stroke-dasharray:none" transform="scale(-.28393 .28393)rotate(-30.58 9241.621 -6314.261)"></path>
      <path id="path8287" d="m -2461.6155,-2768.6794 c 0,2.4407 -3.9573,4.4194 -8.8388,4.4194 -4.8816,0 -8.8389,-1.9787 -8.8389,-4.4194 0,-2.4408 3.9573,-4.4195 8.8389,-4.4195 4.8815,0 8.8388,1.9787 8.8388,4.4195 z" style="fill:none;stroke:#262626;stroke-width:10;stroke-miterlimit:4;stroke-opacity:1;stroke-dasharray:none" transform="scale(-.28393 .28393)rotate(-30.58 9166.862 -6113.927)"></path>
      <path id="path8289" d="m -2461.6155,-2768.6794 c 0,2.4407 -3.9573,4.4194 -8.8388,4.4194 -4.8816,0 -8.8389,-1.9787 -8.8389,-4.4194 0,-2.4408 3.9573,-4.4195 8.8389,-4.4195 4.8815,0 8.8388,1.9787 8.8388,4.4195 z" style="fill:none;stroke:#262626;stroke-width:10;stroke-miterlimit:4;stroke-opacity:1;stroke-dasharray:none" transform="scale(-.28393 .28393)rotate(-30.58 9460.234 -5712.005)"></path>
      <path id="path8291" d="m -2428.4699,-2821.7126 c 0,3.6611 -1.4839,6.6291 -3.3145,6.6291 -1.8306,0 -3.3146,-2.968 -3.3146,-6.6291 0,-3.6612 1.484,-6.6292 3.3146,-6.6292 1.8306,0 3.3145,2.968 3.3145,6.6292 z" style="fill:none;stroke:#262626;stroke-width:10;stroke-miterlimit:4;stroke-opacity:1;stroke-dasharray:none" transform="scale(-.28393 .28393)rotate(-30.58 8884.714 -6580.083)"></path>
      <path id="path8293" d="m -2428.4699,-2821.7126 c 0,3.6611 -1.4839,6.6291 -3.3145,6.6291 -1.8306,0 -3.3146,-2.968 -3.3146,-6.6291 0,-3.6612 1.484,-6.6292 3.3146,-6.6292 1.8306,0 3.3145,2.968 3.3145,6.6292 z" style="fill:none;stroke:#262626;stroke-width:10;stroke-miterlimit:4;stroke-opacity:1;stroke-dasharray:none" transform="scale(-.28393 .28393)rotate(-30.58 8998.586 -6532.058)"></path>
      <path id="path8295" d="m -2428.4699,-2821.7126 c 0,3.6611 -1.4839,6.6291 -3.3145,6.6291 -1.8306,0 -3.3146,-2.968 -3.3146,-6.6291 0,-3.6612 1.484,-6.6292 3.3146,-6.6292 1.8306,0 3.3145,2.968 3.3145,6.6292 z" style="fill:none;stroke:#262626;stroke-width:10;stroke-miterlimit:4;stroke-opacity:1;stroke-dasharray:none" transform="scale(-.28393 .28393)rotate(-30.58 9495.422 -5912.315)"></path>
      <path id="path8297" d="m -2616.2952,-2834.9707 c 0,6.1019 -2.968,11.0485 -6.6291,11.0485 -3.6612,0 -6.6291,-4.9466 -6.6291,-11.0485 0,-6.1019 2.9679,-11.0485 6.6291,-11.0485 3.6611,0 6.6291,4.9466 6.6291,11.0485 z" style="fill:none;stroke:#262626;stroke-width:10;stroke-miterlimit:4;stroke-opacity:1;stroke-dasharray:none" transform="scale(-.28393 .28393)rotate(-30.58 9493.28 -6433.43)"></path>
      <path id="path8299" d="m -2616.2952,-2834.9707 c 0,6.1019 -2.968,11.0485 -6.6291,11.0485 -3.6612,0 -6.6291,-4.9466 -6.6291,-11.0485 0,-6.1019 2.9679,-11.0485 6.6291,-11.0485 3.6611,0 6.6291,4.9466 6.6291,11.0485 z" style="fill:none;stroke:#262626;stroke-width:10;stroke-miterlimit:4;stroke-opacity:1;stroke-dasharray:none" transform="scale(-.28393 .28393)rotate(-30.58 9371.342 -6734.704)"></path>
      <path id="path8301" d="m -2616.2952,-2834.9707 c 0,6.1019 -2.968,11.0485 -6.6291,11.0485 -3.6612,0 -6.6291,-4.9466 -6.6291,-11.0485 0,-6.1019 2.9679,-11.0485 6.6291,-11.0485 3.6611,0 6.6291,4.9466 6.6291,11.0485 z" style="fill:none;stroke:#262626;stroke-width:10;stroke-miterlimit:4;stroke-opacity:1;stroke-dasharray:none" transform="scale(-.28393 .28393)rotate(-30.58 8988.71 -6252.317)"></path>
      <path id="path3885" d="m -329.15522,636.36476 c -0.48489,0.78749 -1.88209,0.72303 -2.35269,1.51943 -43.25258,73.19581 -18.93804,167.75438 54.25777,211.00696 73.19582,43.25258 167.75438,18.93804 211.006962,-54.25777 l -8.62649,-5.09754 c -40.251762,68.11757 -128.528172,89.90227 -196.645742,49.6505 -68.11757,-40.25176 -90.53946,-127.44986 -50.28769,-195.56742 0.43716,-0.73981 0.82376,-1.42477 1.27438,-2.15663 l -8.6265,-5.09753 z" style="font-size:medium;font-style:normal;font-variant:normal;font-weight:400;font-stretch:normal;text-indent:0;text-align:start;text-decoration:none;line-height:normal;letter-spacing:normal;word-spacing:normal;text-transform:none;direction:ltr;block-progression:tb;writing-mode:lr-tb;text-anchor:start;baseline-shift:baseline;color:#000;fill:#2ecc71;fill-opacity:1;fill-rule:nonzero;stroke:none;stroke-width:.27230093;marker:none;visibility:visible;display:inline;overflow:visible;enable-background:accumulate;font-family:Sans;-inkscape-font-specification:Sans"></path>
      <path id="path3887" d="m 326.59813,413.31174 c 0,2.04766 -1.65996,3.70762 -3.70763,3.70762 -2.04766,0 -3.70762,-1.65996 -3.70762,-3.70762 0,-0.0223 2e-4,-0.0445 6e-4,-0.0668" style="fill:#e74c3c;fill-opacity:1;stroke:none" transform="scale(36.2144)rotate(30.58 878.461 -384.021)"></path>
      <path id="path3891" d="m -2565.4718,-2855.9631 c 0,5.4917 -2.4733,9.9437 -5.5243,9.9437 -3.051,0 -5.5243,-4.452 -5.5243,-9.9437 0,-5.4918 2.4733,-9.9437 5.5243,-9.9437 3.051,0 5.5243,4.4519 5.5243,9.9437 z" style="fill:none;stroke:#262626;stroke-width:10;stroke-miterlimit:4;stroke-opacity:1;stroke-dasharray:none" transform="scale(-.28393)rotate(30.58 -1201.567 3725.581)"></path>
      <path id="path3893" d="m -2470.4544,-2858.1729 c 0,4.2714 -3.9573,7.734 -8.8388,7.734 -4.8816,0 -8.8388,-3.4626 -8.8388,-7.734 0,-4.2713 3.9572,-7.7339 8.8388,-7.7339 4.8815,0 8.8388,3.4626 8.8388,7.7339 z" style="fill:none;stroke:#262626;stroke-width:10;stroke-miterlimit:4;stroke-opacity:1;stroke-dasharray:none" transform="scale(-.28393)rotate(30.58 -1201.567 3725.581)"></path>
      <path id="path3895" d="m -2556.6329,-2784.1475 c 0,3.6612 -5.9359,6.6292 -13.2582,6.6292 -7.3223,0 -13.2583,-2.968 -13.2583,-6.6292 0,-3.6611 5.936,-6.6291 13.2583,-6.6291 7.3223,0 13.2582,2.968 13.2582,6.6291 z" style="fill:none;stroke:#262626;stroke-width:10;stroke-miterlimit:4;stroke-opacity:1;stroke-dasharray:none" transform="scale(-.28393)rotate(30.58 -1201.567 3725.581)"></path>
      <path id="path3897" d="m -2461.6155,-2768.6794 c 0,2.4407 -3.9573,4.4194 -8.8388,4.4194 -4.8816,0 -8.8389,-1.9787 -8.8389,-4.4194 0,-2.4408 3.9573,-4.4195 8.8389,-4.4195 4.8815,0 8.8388,1.9787 8.8388,4.4195 z" style="fill:none;stroke:#262626;stroke-width:10;stroke-miterlimit:4;stroke-opacity:1;stroke-dasharray:none" transform="scale(-.28393)rotate(30.58 -1201.567 3725.581)"></path>
      <path id="path3899" d="m -2519.068,-2706.8076 c 0,3.6611 -3.4626,6.6291 -7.734,6.6291 -4.2714,0 -7.734,-2.968 -7.734,-6.6291 0,-3.6612 3.4626,-6.6291 7.734,-6.6291 4.2714,0 7.734,2.9679 7.734,6.6291 z" style="fill:none;stroke:#262626;stroke-width:10;stroke-miterlimit:4;stroke-opacity:1;stroke-dasharray:none" transform="scale(-.28393)rotate(30.58 -1201.567 3725.581)"></path>
      <path id="path3901" d="m -2600.8272,-2734.429 c 0,3.051 -1.9786,5.5243 -4.4194,5.5243 -2.4408,0 -4.4194,-2.4733 -4.4194,-5.5243 0,-3.0509 1.9786,-5.5242 4.4194,-5.5242 2.4408,0 4.4194,2.4733 4.4194,5.5242 z" style="fill:none;stroke:#262626;stroke-width:10;stroke-miterlimit:4;stroke-opacity:1;stroke-dasharray:none" transform="scale(-.28393)rotate(30.58 -1201.567 3725.581)"></path>
      <path id="path3903" d="m -2428.4699,-2821.7126 c 0,3.6611 -1.4839,6.6291 -3.3145,6.6291 -1.8306,0 -3.3146,-2.968 -3.3146,-6.6291 0,-3.6612 1.484,-6.6292 3.3146,-6.6292 1.8306,0 3.3145,2.968 3.3145,6.6292 z" style="fill:none;stroke:#262626;stroke-width:10;stroke-miterlimit:4;stroke-opacity:1;stroke-dasharray:none" transform="scale(-.28393)rotate(30.58 -1201.567 3725.581)"></path>
      <path id="path3905" d="m -2492.5513,-2809.5591 c 0,4.2714 -3.9573,7.734 -8.8388,7.734 -4.8816,0 -8.8389,-3.4626 -8.8389,-7.734 0,-4.2713 3.9573,-7.734 8.8389,-7.734 4.8815,0 8.8388,3.4627 8.8388,7.734 z" style="fill:none;stroke:#262626;stroke-width:10;stroke-miterlimit:4;stroke-opacity:1;stroke-dasharray:none" transform="scale(-.28393)rotate(30.58 -1201.567 3725.581)"></path>
      <path id="path3907" d="m -2512.4388,-2896.8425 c 0,2.4407 -3.9572,4.4194 -8.8388,4.4194 -4.8815,0 -8.8388,-1.9787 -8.8388,-4.4194 0,-2.4408 3.9573,-4.4194 8.8388,-4.4194 4.8816,0 8.8388,1.9786 8.8388,4.4194 z" style="fill:none;stroke:#262626;stroke-width:10;stroke-miterlimit:4;stroke-opacity:1;stroke-dasharray:none" transform="scale(-.28393)rotate(30.58 -1201.567 3725.581)"></path>
      <path id="path3909" d="m -2616.2952,-2834.9707 c 0,6.1019 -2.968,11.0485 -6.6291,11.0485 -3.6612,0 -6.6291,-4.9466 -6.6291,-11.0485 0,-6.1019 2.9679,-11.0485 6.6291,-11.0485 3.6611,0 6.6291,4.9466 6.6291,11.0485 z" style="fill:none;stroke:#262626;stroke-width:10;stroke-miterlimit:4;stroke-opacity:1;stroke-dasharray:none" transform="scale(-.28393)rotate(30.58 -1201.567 3725.581)"></path>
      <path id="path3913" d="m -2565.4718,-2855.9631 c 0,5.4917 -2.4733,9.9437 -5.5243,9.9437 -3.051,0 -5.5243,-4.452 -5.5243,-9.9437 0,-5.4918 2.4733,-9.9437 5.5243,-9.9437 3.051,0 5.5243,4.4519 5.5243,9.9437 z" style="fill:none;stroke:#262626;stroke-width:10;stroke-miterlimit:4;stroke-opacity:1;stroke-dasharray:none" transform="scale(-.28393 .28393)rotate(-30.58 9225.29 -5636.983)"></path>
      <path id="path3915" d="m -2470.4544,-2858.1729 c 0,4.2714 -3.9573,7.734 -8.8388,7.734 -4.8816,0 -8.8388,-3.4626 -8.8388,-7.734 0,-4.2713 3.9572,-7.7339 8.8388,-7.7339 4.8815,0 8.8388,3.4626 8.8388,7.7339 z" style="fill:none;stroke:#262626;stroke-width:10;stroke-miterlimit:4;stroke-opacity:1;stroke-dasharray:none" transform="scale(-.28393 .28393)rotate(-30.58 9225.29 -5636.983)"></path>
      <path id="path3917" d="m -2556.6329,-2784.1475 c 0,3.6612 -5.9359,6.6292 -13.2582,6.6292 -7.3223,0 -13.2583,-2.968 -13.2583,-6.6292 0,-3.6611 5.936,-6.6291 13.2583,-6.6291 7.3223,0 13.2582,2.968 13.2582,6.6291 z" style="fill:none;stroke:#262626;stroke-width:10;stroke-miterlimit:4;stroke-opacity:1;stroke-dasharray:none" transform="scale(-.28393 .28393)rotate(-30.58 9225.29 -5636.983)"></path>
      <path id="path3919" d="m -2461.6155,-2768.6794 c 0,2.4407 -3.9573,4.4194 -8.8388,4.4194 -4.8816,0 -8.8389,-1.9787 -8.8389,-4.4194 0,-2.4408 3.9573,-4.4195 8.8389,-4.4195 4.8815,0 8.8388,1.9787 8.8388,4.4195 z" style="fill:none;stroke:#262626;stroke-width:10;stroke-miterlimit:4;stroke-opacity:1;stroke-dasharray:none" transform="scale(-.28393 .28393)rotate(-30.58 9225.29 -5636.983)"></path>
      <path id="path3921" d="m -2519.068,-2706.8076 c 0,3.6611 -3.4626,6.6291 -7.734,6.6291 -4.2714,0 -7.734,-2.968 -7.734,-6.6291 0,-3.6612 3.4626,-6.6291 7.734,-6.6291 4.2714,0 7.734,2.9679 7.734,6.6291 z" style="fill:none;stroke:#262626;stroke-width:10;stroke-miterlimit:4;stroke-opacity:1;stroke-dasharray:none" transform="scale(-.28393 .28393)rotate(-30.58 9225.29 -5636.983)"></path>
      <path id="path3923" d="m -2600.8272,-2734.429 c 0,3.051 -1.9786,5.5243 -4.4194,5.5243 -2.4408,0 -4.4194,-2.4733 -4.4194,-5.5243 0,-3.0509 1.9786,-5.5242 4.4194,-5.5242 2.4408,0 4.4194,2.4733 4.4194,5.5242 z" style="fill:none;stroke:#262626;stroke-width:10;stroke-miterlimit:4;stroke-opacity:1;stroke-dasharray:none" transform="scale(-.28393 .28393)rotate(-30.58 9225.29 -5636.983)"></path>
      <path id="path3925" d="m -2428.4699,-2821.7126 c 0,3.6611 -1.4839,6.6291 -3.3145,6.6291 -1.8306,0 -3.3146,-2.968 -3.3146,-6.6291 0,-3.6612 1.484,-6.6292 3.3146,-6.6292 1.8306,0 3.3145,2.968 3.3145,6.6292 z" style="fill:none;stroke:#262626;stroke-width:10;stroke-miterlimit:4;stroke-opacity:1;stroke-dasharray:none" transform="scale(-.28393 .28393)rotate(-30.58 9225.29 -5636.983)"></path>
      <path id="path3927" d="m -2492.5513,-2809.5591 c 0,4.2714 -3.9573,7.734 -8.8388,7.734 -4.8816,0 -8.8389,-3.4626 -8.8389,-7.734 0,-4.2713 3.9573,-7.734 8.8389,-7.734 4.8815,0 8.8388,3.4627 8.8388,7.734 z" style="fill:none;stroke:#262626;stroke-width:10;stroke-miterlimit:4;stroke-opacity:1;stroke-dasharray:none" transform="scale(-.28393 .28393)rotate(-30.58 9225.29 -5636.983)"></path>
      <path id="path3929" d="m -2512.4388,-2896.8425 c 0,2.4407 -3.9572,4.4194 -8.8388,4.4194 -4.8815,0 -8.8388,-1.9787 -8.8388,-4.4194 0,-2.4408 3.9573,-4.4194 8.8388,-4.4194 4.8816,0 8.8388,1.9786 8.8388,4.4194 z" style="fill:none;stroke:#262626;stroke-width:10;stroke-miterlimit:4;stroke-opacity:1;stroke-dasharray:none" transform="scale(-.28393 .28393)rotate(-30.58 9225.29 -5636.983)"></path>
      <path id="path3931" d="m -2616.2952,-2834.9707 c 0,6.1019 -2.968,11.0485 -6.6291,11.0485 -3.6612,0 -6.6291,-4.9466 -6.6291,-11.0485 0,-6.1019 2.9679,-11.0485 6.6291,-11.0485 3.6611,0 6.6291,4.9466 6.6291,11.0485 z" style="fill:none;stroke:#262626;stroke-width:10;stroke-miterlimit:4;stroke-opacity:1;stroke-dasharray:none" transform="scale(-.28393 .28393)rotate(-30.58 9225.29 -5636.983)"></path>
      <path id="path3933" d="m -2556.6329,-2784.1475 c 0,3.6612 -5.9359,6.6292 -13.2582,6.6292 -7.3223,0 -13.2583,-2.968 -13.2583,-6.6292 0,-3.6611 5.936,-6.6291 13.2583,-6.6291 7.3223,0 13.2582,2.968 13.2582,6.6291 z" style="fill:none;stroke:#262626;stroke-width:10;stroke-miterlimit:4;stroke-opacity:1;stroke-dasharray:none" transform="scale(-.28393 .28393)rotate(-30.58 8888.254 -6264.432)"></path>
      <path id="path3935" d="m -2556.6329,-2784.1475 c 0,3.6612 -5.9359,6.6292 -13.2582,6.6292 -7.3223,0 -13.2583,-2.968 -13.2583,-6.6292 0,-3.6611 5.936,-6.6291 13.2583,-6.6291 7.3223,0 13.2582,2.968 13.2582,6.6291 z" style="fill:none;stroke:#262626;stroke-width:10;stroke-miterlimit:4;stroke-opacity:1;stroke-dasharray:none" transform="scale(-.28393 .28393)rotate(-30.58 9223.22 -6039.385)"></path>
      <path id="path3937" d="m -2556.6329,-2784.1475 c 0,3.6612 -5.9359,6.6292 -13.2582,6.6292 -7.3223,0 -13.2583,-2.968 -13.2583,-6.6292 0,-3.6611 5.936,-6.6291 13.2583,-6.6291 7.3223,0 13.2582,2.968 13.2582,6.6291 z" style="fill:none;stroke:#262626;stroke-width:10;stroke-miterlimit:4;stroke-opacity:1;stroke-dasharray:none" transform="scale(-.28393 .28393)rotate(-30.58 9337.406 -6477.169)"></path>
      <path id="path3939" d="m -2556.6329,-2784.1475 c 0,3.6612 -5.9359,6.6292 -13.2582,6.6292 -7.3223,0 -13.2583,-2.968 -13.2583,-6.6292 0,-3.6611 5.936,-6.6291 13.2583,-6.6291 7.3223,0 13.2582,2.968 13.2582,6.6291 z" style="fill:none;stroke:#262626;stroke-width:10;stroke-miterlimit:4;stroke-opacity:1;stroke-dasharray:none" transform="scale(-.28393 .28393)rotate(-30.58 9527.286 -6072.14)"></path>
      <path id="path3941" d="m -2556.6329,-2784.1475 c 0,3.6612 -5.9359,6.6292 -13.2582,6.6292 -7.3223,0 -13.2583,-2.968 -13.2583,-6.6292 0,-3.6611 5.936,-6.6291 13.2583,-6.6291 7.3223,0 13.2582,2.968 13.2582,6.6291 z" style="fill:none;stroke:#262626;stroke-width:10;stroke-miterlimit:4;stroke-opacity:1;stroke-dasharray:none" transform="scale(-.28393 .28393)rotate(-30.58 9253.23 -6245.477)"></path>
      <path id="path3943" d="m -2461.6155,-2768.6794 c 0,2.4407 -3.9573,4.4194 -8.8388,4.4194 -4.8816,0 -8.8389,-1.9787 -8.8389,-4.4194 0,-2.4408 3.9573,-4.4195 8.8389,-4.4195 4.8815,0 8.8388,1.9787 8.8388,4.4195 z" style="fill:none;stroke:#262626;stroke-width:10;stroke-miterlimit:4;stroke-opacity:1;stroke-dasharray:none" transform="scale(-.28393 .28393)rotate(-30.58 9337.813 -5804.465)"></path>
      <path id="path3945" d="m -2461.6155,-2768.6794 c 0,2.4407 -3.9573,4.4194 -8.8388,4.4194 -4.8816,0 -8.8389,-1.9787 -8.8389,-4.4194 0,-2.4408 3.9573,-4.4195 8.8389,-4.4195 4.8815,0 8.8388,1.9787 8.8388,4.4195 z" style="fill:none;stroke:#262626;stroke-width:10;stroke-miterlimit:4;stroke-opacity:1;stroke-dasharray:none" transform="scale(-.28393 .28393)rotate(-30.58 9024.114 -6096.49)"></path>
      <path id="path3947" d="m -2461.6155,-2768.6794 c 0,2.4407 -3.9573,4.4194 -8.8388,4.4194 -4.8816,0 -8.8389,-1.9787 -8.8389,-4.4194 0,-2.4408 3.9573,-4.4195 8.8389,-4.4195 4.8815,0 8.8388,1.9787 8.8388,4.4195 z" style="fill:none;stroke:#262626;stroke-width:10;stroke-miterlimit:4;stroke-opacity:1;stroke-dasharray:none" transform="scale(-.28393 .28393)rotate(-30.58 9010.89 -5815.834)"></path>
      <path id="path3949" d="m -2461.6155,-2768.6794 c 0,2.4407 -3.9573,4.4194 -8.8388,4.4194 -4.8816,0 -8.8389,-1.9787 -8.8389,-4.4194 0,-2.4408 3.9573,-4.4195 8.8389,-4.4195 4.8815,0 8.8388,1.9787 8.8388,4.4195 z" style="fill:none;stroke:#262626;stroke-width:10;stroke-miterlimit:4;stroke-opacity:1;stroke-dasharray:none" transform="scale(-.28393 .28393)rotate(-30.58 9130.735 -5956.536)"></path>
      <path id="path3951" d="m -2461.6155,-2768.6794 c 0,2.4407 -3.9573,4.4194 -8.8388,4.4194 -4.8816,0 -8.8389,-1.9787 -8.8389,-4.4194 0,-2.4408 3.9573,-4.4195 8.8389,-4.4195 4.8815,0 8.8388,1.9787 8.8388,4.4195 z" style="fill:none;stroke:#262626;stroke-width:10;stroke-miterlimit:4;stroke-opacity:1;stroke-dasharray:none" transform="scale(-.28393 .28393)rotate(-30.58 9241.621 -6314.261)"></path>
      <path id="path3953" d="m -2461.6155,-2768.6794 c 0,2.4407 -3.9573,4.4194 -8.8388,4.4194 -4.8816,0 -8.8389,-1.9787 -8.8389,-4.4194 0,-2.4408 3.9573,-4.4195 8.8389,-4.4195 4.8815,0 8.8388,1.9787 8.8388,4.4195 z" style="fill:none;stroke:#262626;stroke-width:10;stroke-miterlimit:4;stroke-opacity:1;stroke-dasharray:none" transform="scale(-.28393 .28393)rotate(-30.58 9166.862 -6113.927)"></path>
      <path id="path3955" d="m -2461.6155,-2768.6794 c 0,2.4407 -3.9573,4.4194 -8.8388,4.4194 -4.8816,0 -8.8389,-1.9787 -8.8389,-4.4194 0,-2.4408 3.9573,-4.4195 8.8389,-4.4195 4.8815,0 8.8388,1.9787 8.8388,4.4195 z" style="fill:none;stroke:#262626;stroke-width:10;stroke-miterlimit:4;stroke-opacity:1;stroke-dasharray:none" transform="scale(-.28393 .28393)rotate(-30.58 9460.234 -5712.005)"></path>
      <path id="path3957" d="m -2428.4699,-2821.7126 c 0,3.6611 -1.4839,6.6291 -3.3145,6.6291 -1.8306,0 -3.3146,-2.968 -3.3146,-6.6291 0,-3.6612 1.484,-6.6292 3.3146,-6.6292 1.8306,0 3.3145,2.968 3.3145,6.6292 z" style="fill:none;stroke:#262626;stroke-width:10;stroke-miterlimit:4;stroke-opacity:1;stroke-dasharray:none" transform="scale(-.28393 .28393)rotate(-30.58 8884.714 -6580.083)"></path>
      <path id="path3959" d="m -2428.4699,-2821.7126 c 0,3.6611 -1.4839,6.6291 -3.3145,6.6291 -1.8306,0 -3.3146,-2.968 -3.3146,-6.6291 0,-3.6612 1.484,-6.6292 3.3146,-6.6292 1.8306,0 3.3145,2.968 3.3145,6.6292 z" style="fill:none;stroke:#262626;stroke-width:10;stroke-miterlimit:4;stroke-opacity:1;stroke-dasharray:none" transform="scale(-.28393 .28393)rotate(-30.58 8998.586 -6532.058)"></path>
      <path id="path3961" d="m -2428.4699,-2821.7126 c 0,3.6611 -1.4839,6.6291 -3.3145,6.6291 -1.8306,0 -3.3146,-2.968 -3.3146,-6.6291 0,-3.6612 1.484,-6.6292 3.3146,-6.6292 1.8306,0 3.3145,2.968 3.3145,6.6292 z" style="fill:none;stroke:#262626;stroke-width:10;stroke-miterlimit:4;stroke-opacity:1;stroke-dasharray:none" transform="scale(-.28393 .28393)rotate(-30.58 9495.422 -5912.315)"></path>
      <path id="path3963" d="m -2616.2952,-2834.9707 c 0,6.1019 -2.968,11.0485 -6.6291,11.0485 -3.6612,0 -6.6291,-4.9466 -6.6291,-11.0485 0,-6.1019 2.9679,-11.0485 6.6291,-11.0485 3.6611,0 6.6291,4.9466 6.6291,11.0485 z" style="fill:none;stroke:#262626;stroke-width:10;stroke-miterlimit:4;stroke-opacity:1;stroke-dasharray:none" transform="scale(-.28393 .28393)rotate(-30.58 9493.28 -6433.43)"></path>
      <path id="path3965" d="m -2616.2952,-2834.9707 c 0,6.1019 -2.968,11.0485 -6.6291,11.0485 -3.6612,0 -6.6291,-4.9466 -6.6291,-11.0485 0,-6.1019 2.9679,-11.0485 6.6291,-11.0485 3.6611,0 6.6291,4.9466 6.6291,11.0485 z" style="fill:none;stroke:#262626;stroke-width:10;stroke-miterlimit:4;stroke-opacity:1;stroke-dasharray:none" transform="scale(-.28393 .28393)rotate(-30.58 9371.342 -6734.704)"></path>
      <path id="path3967" d="m -2616.2952,-2834.9707 c 0,6.1019 -2.968,11.0485 -6.6291,11.0485 -3.6612,0 -6.6291,-4.9466 -6.6291,-11.0485 0,-6.1019 2.9679,-11.0485 6.6291,-11.0485 3.6611,0 6.6291,4.9466 6.6291,11.0485 z" style="fill:none;stroke:#262626;stroke-width:10;stroke-miterlimit:4;stroke-opacity:1;stroke-dasharray:none" transform="scale(-.28393 .28393)rotate(-30.58 8988.71 -6252.317)"></path>
    </g>
  </g>
</svg>
