<svg xmlns="http://www.w3.org/2000/svg" xmlns:xlink="http://www.w3.org/1999/xlink" viewBox="0 0 128 128" id="watermelon">
  <defs>
    <linearGradient id="b" x1="8" x2="109.198" y1="69.413" y2="69.413" gradientUnits="userSpaceOnUse">
      <stop offset="0" stop-color="#498c54"></stop>
      <stop offset="1" stop-color="#315b35"></stop>
    </linearGradient>
    <linearGradient id="d" x1="58.599" x2="58.599" y1="73.115" y2="120" gradientUnits="userSpaceOnUse">
      <stop offset="0" stop-color="#315b35" stop-opacity="0"></stop>
      <stop offset="1" stop-color="#315b35"></stop>
    </linearGradient>
    <linearGradient id="e" x1="56.123" x2="81.703" y1="17.166" y2="17.166" gradientUnits="userSpaceOnUse">
      <stop offset="0" stop-color="#376139"></stop>
      <stop offset="1" stop-color="#203321"></stop>
    </linearGradient>
    <linearGradient id="a" x1="28.082" x2="28.082" y1="27.864" y2="92.765" gradientUnits="userSpaceOnUse">
      <stop offset="0" stop-color="#aade87"></stop>
      <stop offset="1" stop-color="#669b50"></stop>
    </linearGradient>
    <linearGradient xlink:href="#a" id="f" x1="75.623" x2="75.623" y1="35.279" y2="94.615"></linearGradient>
    <linearGradient xlink:href="#a" id="g" x1="43.692" x2="43.692" y1="37.231" y2="118.416"></linearGradient>
    <linearGradient xlink:href="#a" id="h" x1="94.36" x2="94.36" y1="26.41" y2="80.401"></linearGradient>
    <linearGradient xlink:href="#b" id="i" x1="34.415" x2="120.19" y1="94.243" y2="94.243"></linearGradient>
    <linearGradient id="j" x1="36.114" x2="118.455" y1="93.474" y2="93.474" gradientUnits="userSpaceOnUse">
      <stop offset="0" stop-color="#eaefe8"></stop>
      <stop offset="1" stop-color="#afd8a0"></stop>
    </linearGradient>
    <linearGradient id="k" x1="73.047" x2="73.047" y1="108" y2="118.21" gradientUnits="userSpaceOnUse">
      <stop offset="0" stop-color="#afd8a0" stop-opacity="0"></stop>
      <stop offset=".975" stop-color="#afd8a0"></stop>
    </linearGradient>
    <linearGradient id="l" x1="41.167" x2="113.251" y1="92.047" y2="92.047" gradientUnits="userSpaceOnUse">
      <stop offset="0" stop-color="#e63b55"></stop>
      <stop offset="1" stop-color="#c61e32"></stop>
    </linearGradient>
    <linearGradient id="m" x1="72.934" x2="72.934" y1="101.571" y2="113.388" gradientUnits="userSpaceOnUse">
      <stop offset="0" stop-color="#c61e32" stop-opacity="0"></stop>
      <stop offset=".966" stop-color="#c61e32"></stop>
    </linearGradient>
    <linearGradient id="n" x1="60.167" x2="60.167" y1="15.643" y2="26.332" gradientUnits="userSpaceOnUse">
      <stop offset="0" stop-color="#203321" stop-opacity="0"></stop>
      <stop offset=".981" stop-color="#203321"></stop>
    </linearGradient>
    <linearGradient id="c" x1="7" x2="121.193" y1="64.161" y2="64.161" gradientUnits="userSpaceOnUse">
      <stop offset="0" stop-color="#2d2d2d"></stop>
      <stop offset=".987" stop-color="#141414"></stop>
    </linearGradient>
    <linearGradient xlink:href="#c" id="o" x1="61.689" x2="65.628" y1="97.558" y2="97.558"></linearGradient>
    <linearGradient xlink:href="#c" id="p" x1="74.492" x2="76.765" y1="99.668" y2="99.668"></linearGradient>
    <linearGradient xlink:href="#c" id="q" x1="84.843" x2="89.255" y1="95.51" y2="95.51"></linearGradient>
    <linearGradient xlink:href="#c" id="r" x1="91.909" x2="97.814" y1="86.199" y2="86.199"></linearGradient>
  </defs>
  <g>
    <path fill="url(#b)" d="M98.0186,101.1266a50.6,50.6,0,1,1-41.01-82.3l3.4589.0093a50.6462,50.6462,0,0,1,47.5259,61.5871Z"></path>
    <path fill="url(#d)" d="M8.15,73.1155a50.5907,50.5907,0,0,0,89.8683,28.0111l9.9751-20.7033a50.6047,50.6047,0,0,0,1.053-7.3078Z"></path>
    <path fill="url(#e)" d="M56.1972,25.8473a16.1106,16.1106,0,0,1,9.082-16.286,14.18,14.18,0,0,1,16.4241,2.5442l-3.2541,3.0791a9.6994,9.6994,0,0,0-11.1978-1.6c-9.2532,4.5359-5.8966,14.8147-6.5487,12.38Z"></path>
    <path fill="url(#a)" d="M25.2729,57.1356l5.464-6.5429,2.3418-7.1172,10.1474-5.0737,3.1223-5.0737V27.864l-9.7572.8366s-4.6834,8.53-5.8543,9.3109-6.6348,2.732-8.196,3.9029-3.9028,10.928-3.9028,10.928-4.2933,5.464-5.0738,7.0252,1.1709,9.97.39,10.8395c-.7641.8507-4.0021,11.6678-4.1387,12.1247A50.2485,50.2485,0,0,0,13.72,92.7646l4.5274-8.1177V73.9179l7.0252-6.6349Z"></path>
    <polygon fill="url(#f)" points="86.333 87.362 81.703 75.089 83.426 71.576 79.523 66.893 81.703 57.916 78.742 51.672 80.303 43.866 74.059 35.279 67.034 37.231 72.107 45.427 68.204 56.355 72.107 62.6 68.913 73.137 71.717 77.883 64.913 94.615 86.333 87.362"></polygon>
    <path fill="url(#g)" d="M54.9348,37.2309,44.397,48.5493,42.8358,59.087l-5.464,9.7572.39,10.9478-4.6834,7.6885,1.3362,8.03-5.6294,6.3334,1.8309,9.7122a50.3331,50.3331,0,0,0,15.3771,6.86L44.0067,96.5546l3.5126-6.6664-1.9514-5.2413L49.861,76.65,48.69,68.8442l7.4334-9.7572L54.9348,50.11l3.664-11.7086Z"></path>
    <path fill="url(#h)" d="M85.2743,26.41l-5.7515,3.7959,8.7323,4.6835L89.67,42.3046l7.143,6.6349-.5081,8.1961,5.0737,5.22-.39,5.8026,2.3417,1.2429-4.238,11,9.127-1.1419A50.5245,50.5245,0,0,0,85.2743,26.41Z"></path>
    <path fill="url(#i)" d="M98.6587,76.1893l21.2755-8.031A47.2562,47.2562,0,0,1,34.4149,100.44l21.3982-8.0773Z"></path>
    <path fill="url(#j)" d="M118.4055,68.7354,98.6587,76.1893,55.8131,92.3624,36.1145,99.7982c12.7778,15.8615,33.8622,22.7556,52.8871,15.5742S119.2962,89.084,118.4055,68.7354Z"></path>
    <path fill="url(#k)" d="M44.4491,108c12.5784,9.8055,29.2316,13.1556,44.5525,7.3724A43.907,43.907,0,0,0,101.6444,108Z"></path>
    <path fill="url(#l)" d="M113.182,70.7071A40.319,40.319,0,0,1,41.1671,97.8909Z"></path>
    <path fill="url(#m)" d="M44.429,101.5714a40.3173,40.3173,0,0,0,57.0107,0Z"></path>
    <path fill="url(#n)" d="M64.21,15.6428H58.4926a16.9624,16.9624,0,0,0-2.2954,10.2045l4.5055.1171C61.2686,28.0773,58.8207,20.6169,64.21,15.6428Z"></path>
  </g>
  <g>
    <path fill="url(#c)" d="M120.9287,68.0537a.9994.9994,0,0,0-1.3476-.831l-8.41,3.1746-1.0048.3793c.012-.458.0315-.9142.0315-1.3752A51.7677,51.7677,0,0,0,63.4522,18.0425a10.7411,10.7411,0,0,1,4.24-3.56,8.6832,8.6832,0,0,1,10.041,1.4,1.0017,1.0017,0,0,0,1.4038.0288l3.2539-3.0791a1.0006,1.0006,0,0,0,.0386-1.414,15.1955,15.1955,0,0,0-17.59-2.7544,16.5079,16.5079,0,0,0-8.5544,9.2019A51.5931,51.5931,0,0,0,58.5986,121c1.7173,0,3.4532-.0859,5.1582-.2549a.9724.9724,0,0,0,.5018-.2178,48.2456,48.2456,0,0,0,56.67-52.4736Zm-34.1113,41.79A39.13,39.13,0,0,1,42.8149,98.3379L99.01,77.1253l.0019,0,13.229-4.9941A39.1326,39.1326,0,0,1,86.8174,109.8438ZM65.72,10.46a13.21,13.21,0,0,1,14.5283,1.646L78.42,13.835a10.6276,10.6276,0,0,0-11.6089-1.1485,12.4608,12.4608,0,0,0-7.1488,12.6318,23.0893,23.0893,0,0,1-2.5137-.0906l.0014-.01A15.1155,15.1155,0,0,1,65.72,10.46ZM31.5146,110.9206l-1.6552-8.78,5.3032-5.9658a.9986.9986,0,0,0,.2388-.8281L34.126,87.6836l4.49-7.3711a1.003,1.003,0,0,0,.1455-.5566l-.3808-10.668,5.3276-9.5122a1.0137,1.0137,0,0,0,.1167-.3423l1.5156-10.23L55.6665,37.9126a1,1,0,0,0-1.4639-1.3633L43.665,47.8677a1.0042,1.0042,0,0,0-.2573.5351l-1.5342,10.356L36.499,68.3555a1.0009,1.0009,0,0,0-.1269.5244l.38,10.6484L32.2246,86.96a.9984.9984,0,0,0-.1323.6845L33.35,95.2031l-5.312,5.9766a1.0011,1.0011,0,0,0-.2354.85l1.37,7.2689A49.952,49.952,0,0,1,14.8638,92.7674l4.2573-7.6336a1.0015,1.0015,0,0,0,.1265-.4873V74.3486L25.96,68.01a.9973.9973,0,0,0,.3134-.7266V57.4985l5.2315-6.2646a.9925.9925,0,0,0,.1821-.3286l2.2119-6.7217,9.7749-4.8872a1.0022,1.0022,0,0,0,.4043-.3706L47.2,33.8521a1,1,0,1,0-1.7031-1.0479l-2.9732,4.8306-9.8926,4.9463a.9985.9985,0,0,0-.5024.582l-2.2822,6.9355-5.3413,6.396a1,1,0,0,0-.2325.6411v9.7168L17.561,73.1914a.9973.9973,0,0,0-.3134.7266V84.3867L13.775,90.6126a49.2267,49.2267,0,0,1-2.9132-7.7851A114.4441,114.4441,0,0,1,14.6987,71.375c.6289-.7.5264-2.0645.0733-5.7852-.2129-1.7495-.5694-4.6772-.313-5.2749A81.1489,81.1489,0,0,1,19.4243,53.46a.9892.9892,0,0,0,.1861-.3843c1.08-4.4981,2.7573-9.7359,3.5307-10.3613a32.822,32.822,0,0,1,4.7759-2.2935,26.61,26.61,0,0,0,3.3745-1.5771c1.1719-.7813,4.3521-6.36,5.918-9.1924l9.2246-.7906a1,1,0,1,0-.1709-1.9931l-9.7573.8364a1.0012,1.0012,0,0,0-.7911.5151C33.57,32.126,30.84,36.666,30.1821,37.18a30.4209,30.4209,0,0,1-3.0493,1.4014,31.4271,31.4271,0,0,0-5.1919,2.5336C20.31,42.3384,18.48,49.2476,17.7168,52.3965A77.9082,77.9082,0,0,0,12.67,59.42c-.5078,1.0161-.2866,3.0982.1167,6.4107a25.1731,25.1731,0,0,1,.3262,4.3369c-.6566.9837-2.0143,5.0858-3.174,8.8223A49.5715,49.5715,0,0,1,55.6631,19.9024a18.9377,18.9377,0,0,0-.5247,5.0473,20.7859,20.7859,0,0,1-2.0949-.4893,1,1,0,1,0-.5674,1.918,23.6453,23.6453,0,0,0,6.7373.9541,29.33,29.33,0,0,0,7.3008-.9673,1,1,0,1,0-.4981-1.937,28.7327,28.7327,0,0,1-4.3575.7688,11.8249,11.8249,0,0,1,.7692-5.2451,49.76,49.76,0,0,1,45.77,49.45c0,.7158-.0192,1.4282-.0491,2.1368l-5.3479,2.0187,1.4629-3.7962a.9988.9988,0,0,0-.4644-1.2421l-1.77-.94.3467-5.1567a1,1,0,0,0-.28-.7637l-4.7656-4.9028.4809-7.7544a1.0011,1.0011,0,0,0-.3174-.795l-6.9028-6.4116-1.354-7.0932a1.0007,1.0007,0,0,0-.51-.6939l-8.7319-4.6836a1,1,0,1,0-.9453,1.7627l8.3115,4.458,1.3262,6.9473a1.0024,1.0024,0,0,0,.3017.5454L95.7861,49.35l-.479,7.7236a.9991.9991,0,0,0,.2808.7588l4.7632,4.9-.36,5.3579a.9988.9988,0,0,0,.5288.95l1.5586.8281-1.7858,4.6344-15.53,5.8622-1.9711-5.2251,1.5322-3.124a1,1,0,0,0-.13-1.0811l-3.58-4.2959,2.061-8.4877a.9983.9983,0,0,0-.0679-.6641l-2.8193-5.9453,1.4961-7.48a1,1,0,0,0-.1719-.7847l-6.2446-8.5864A1,1,0,0,0,73.25,35.8677L79.2368,44.1l-1.4751,7.3755a1,1,0,0,0,.0767.6245l2.81,5.9248-2.0966,8.6319a1.0008,1.0008,0,0,0,.2036.8769l3.4873,4.1846-1.437,2.9306a.9982.9982,0,0,0-.0376.793l2.1243,5.63-13.4581,5.08,3.21-7.8921a1.0011,1.0011,0,0,0-.0655-.8858l-2.58-4.3672L73.0645,62.89a1.0013,1.0013,0,0,0-.1089-.82l-3.6465-5.8344,3.74-10.4722a1.0009,1.0009,0,0,0-.0918-.8628l-5.0737-8.1958a1,1,0,0,0-1.7,1.0527l4.82,7.7866L67.2627,56.0186a1.0006,1.0006,0,0,0,.0937.8662l3.6622,5.8593L67.9565,72.8477a1.001,1.001,0,0,0,.0962.7988l2.5518,4.3183-3.7168,9.1387-.002.01L45.947,95.0175l2.4568-4.663a.9972.9972,0,0,0,.0523-.8145l-1.7935-4.8183,4.0791-7.5987a.9958.9958,0,0,0,.1079-.621l-1.1079-7.3887,7.1772-9.42a.9992.9992,0,0,0,.1958-.7373l-1.16-8.7574,3.5981-11.4975a1,1,0,0,0-1.9092-.5977L53.98,49.8115a1.0008,1.0008,0,0,0-.0366.43l1.1347,8.5674-7.1836,9.4282a1.0029,1.0029,0,0,0-.1933.7549L48.8228,76.47,44.687,84.1738a.9961.9961,0,0,0-.0561.8213l1.7949,4.8233-3.3,6.2642-2.3114.8725-.0005,0L34.062,99.5039a1,1,0,0,0-.4624,1.5147,48.108,48.108,0,0,0,24.5768,17.9707A49.2884,49.2884,0,0,1,31.5146,110.9206Zm57.754,5.4183A46.2627,46.2627,0,0,1,35.998,100.9111l4.8547-1.8325a41.1026,41.1026,0,0,0,31.9867,15.3306A41.41,41.41,0,0,0,114.2087,71.388l4.8484-1.83A46.2659,46.2659,0,0,1,89.2686,116.3389Z"></path>
    <path fill="url(#o)" d="M65.0728,94.7109a.9988.9988,0,0,0-1.34.4512l-1.9389,3.9043a1,1,0,1,0,1.791.8887l1.9389-3.9043A.9994.9994,0,0,0,65.0728,94.7109Z"></path>
    <path fill="url(#p)" d="M75.4292,96.4941a1,1,0,0,0-.9355,1.0606l.2729,4.3516a1,1,0,0,0,.9971.9375c.021,0,.0425-.001.0634-.002a1,1,0,0,0,.9356-1.0605L76.49,97.43A1.0042,1.0042,0,0,0,75.4292,96.4941Z"></path>
    <path fill="url(#q)" d="M86.6758,93.1406A1,1,0,0,0,85.01,94.248L87.4219,97.88a1,1,0,0,0,1.666-1.1074Z"></path>
    <path fill="url(#r)" d="M97.2583,86.2734,93.3535,84.334a1,1,0,1,0-.89,1.791l3.9048,1.9395a1,1,0,1,0,.89-1.7911Z"></path>
  </g>
</svg>
