<svg version="1.2" xmlns="http://www.w3.org/2000/svg" viewBox="0 0 512 512" width="512" height="512">
	<title>isvgeditor</title>
	<defs>
		<clipPath clipPathUnits="userSpaceOnUse" id="cp1">
			<path d="m266.31 368.94c0 0-28.85 110-32.88 112.7-4.03 2.7-40.25-10.3-51.9-18.77-11.65-8.47-12-12.36-5.84-25.09 6.16-12.73-3.24-37.23 5.51-59.11 8.75-21.88 59.92-49.32 85.11-9.73z"/>
		</clipPath>
		<clipPath clipPathUnits="userSpaceOnUse" id="cp2">
			<path d="m355.09 94.74c0 0-100.1-29-130.13-10-30.03 19-22 114.12-21 168.18 1 54.06-8 103.11-25 130.14-17 27.03-82.09 31-97.1 37-15.01 6 42 21 85.09 17 43.09-4 121.05-13.97 144.05-59.06 23-45.09 17-170.18 24-174.18 7-4 53.06 5 65.07-11 12.01-16 9.34-75.42 4.67-82.76-4.67-7.34-49.65-15.32-49.65-15.32z"/>
		</clipPath>
		<clipPath clipPathUnits="userSpaceOnUse" id="cp3">
			<path d="m287.86 354.94c0 0 47.27 103.42 45.86 108.06-1.41 4.64-37.68 17.5-52.06 18.31-14.38 0.81-17.14-1.95-20.41-15.73-3.27-13.78-26.06-26.77-33.13-49.25-7.07-22.48 15.18-76.09 59.74-61.39z"/>
		</clipPath>
	</defs>
	<style>
		.s0 { fill: #013658 } 
		.s1 { fill: #00a08d } 
		.s2 { fill: #fdde14 } 
		.s3 { fill: #00beae } 
		.s4 { fill: #ffffff } 
		.s5 { fill: #0b0706 } 
		.s6 { fill: #000000 } 
		.s7 { fill: #f75d27 } 
	</style>
	<g>
		<path class="s0" d="m278 82.6l-16.4-24.7q-0.4-0.7-1-1-0.7-0.4-1.4-0.4-0.8-0.1-1.5 0.2-0.6 0.4-1.1 0.9l-11.6 14.5q-0.2 0.3-0.5 0.5-0.4 0.3-0.7 0.4-0.4 0.1-0.7 0.2-0.4 0.1-0.8 0l-33.8-3.5q-0.8-0.1-1.4 0.2-0.7 0.2-1.2 0.8-0.5 0.6-0.7 1.3-0.2 0.7 0 1.4l4.4 18.2q0.2 0.7 0 1.4-0.1 0.7-0.6 1.2-0.4 0.6-1.1 0.9-0.6 0.3-1.3 0.3h-14.2q-0.7 0-1.4 0.3-0.6 0.3-1.1 0.9-0.4 0.5-0.5 1.2-0.2 0.7 0 1.4l7.6 31.2q0.1 0.5 0 0.9 0 0.5-0.2 0.9-0.1 0.5-0.4 0.8-0.3 0.4-0.7 0.7l-18.4 12.7q-0.5 0.3-0.8 0.8-0.4 0.6-0.5 1.2-0.1 0.6 0.1 1.2 0.1 0.6 0.4 1.1l21.7 30.5q0.3 0.4 0.4 0.9 0.2 0.5 0.2 1-0.1 0.5-0.3 1-0.2 0.5-0.5 0.9l-7.6 8.5q-0.2 0.3-0.4 0.7-0.2 0.4-0.3 0.7 0 0.4 0 0.8 0 0.4 0.1 0.8l7.7 22.9q0.1 0.4 0.1 0.7 0 0.4 0 0.7-0.1 0.4-0.2 0.7-0.1 0.3-0.3 0.6l-10.3 14.6q-0.3 0.4-0.4 1-0.2 0.5-0.1 1.1 0 0.5 0.3 1 0.2 0.5 0.6 0.9l11.4 10.5q0.6 0.5 0.9 1.2 0.2 0.7 0.1 1.5-0.1 0.7-0.6 1.3-0.4 0.6-1.1 1l-8.5 4.2q-0.6 0.3-1 0.8-0.5 0.5-0.6 1.1-0.2 0.6-0.1 1.3 0.1 0.6 0.4 1.2l8.8 13.4q0.3 0.5 0.4 1.2 0.1 0.6 0 1.2-0.2 0.6-0.5 1.1-0.4 0.5-0.9 0.8l-8.9 5.3q-0.5 0.3-0.9 0.8-0.3 0.4-0.5 1-0.2 0.5-0.1 1.1 0 0.5 0.2 1.1l7.8 16.6q0.3 0.6 0.3 1.3 0 0.7-0.3 1.3-0.3 0.6-0.8 1-0.4 0.4-1.1 0.7l-9.4 3q-0.6 0.1-1.1 0.5-0.4 0.4-0.7 1-0.3 0.5-0.4 1.1 0 0.6 0.2 1.2l7.1 21.9q0.2 0.6 0.2 1.2-0.1 0.6-0.4 1.1-0.2 0.6-0.7 1-0.4 0.4-1 0.6l-11.5 4q-0.6 0.2-1.1 0.6-0.4 0.4-0.7 1-0.3 0.5-0.3 1.2 0 0.6 0.2 1.2l4.4 11.4q0.2 0.5 0.2 1 0 0.5-0.2 1-0.1 0.5-0.4 0.9-0.4 0.5-0.8 0.8l-17.9 12.1q-0.4 0.2-0.7 0.6-0.3 0.4-0.4 0.8-0.2 0.4-0.2 0.9-0.1 0.5 0 0.9l1.6 6.5q0.2 0.7 0 1.4-0.1 0.7-0.6 1.3-0.4 0.5-1 0.8-0.7 0.3-1.4 0.3h-14q-0.3 0-0.6 0.1-0.4 0.1-0.7 0.2-0.3 0.1-0.5 0.4-0.3 0.2-0.5 0.4l-7.2 8.5q-0.2 0.3-0.5 0.5-0.2 0.2-0.5 0.3-0.4 0.2-0.7 0.2-0.3 0.1-0.6 0.1h-15.8q-0.5 0-1 0.2-0.5 0.1-0.9 0.5-0.4 0.3-0.7 0.7-0.3 0.5-0.4 1l-2.5 11.5q-0.2 0.7 0 1.4 0.2 0.7 0.7 1.3 0.5 0.5 1.1 0.8 0.7 0.3 1.5 0.2c13.8-1.5 58.1-7.3 77.2-21.3 22-16.1 44-101.2 45.3-106.5q0-0.1 0-0.1 0-0.1 0-0.2 0 0 0-0.1 0-0.1 0.1-0.1l10.6-137.3q0-0.1 0-0.3 0.1-0.1 0.1-0.2 0-0.2 0.1-0.3 0-0.2 0.1-0.3l33.9-70q0.2-0.3 0.3-0.7 0-0.4 0-0.8 0-0.4-0.1-0.8-0.2-0.4-0.4-0.7z"/>
		<path class="s1" d="m380.4 279.2c0 0-13.9-14.4-27.2-7.7-13.4 6.6-61 29.1-80.2-2.4l-15.6 41.7c34.2 16.8 53.3 14.2 64.6 8 16.1-8.9 31.9-33.7 42-30 1.5 0.6 9.4 4.3 9.4 4.3q1-0.4 1.9-1.1 0.9-0.6 1.7-1.3 0.8-0.8 1.5-1.7 0.6-0.9 1.1-1.9 0.4-0.9 0.7-1.9 0.3-1 0.4-2 0.1-1 0-2 0-1-0.3-2z"/>
		<g id="Clip-Path" clip-path="url(#cp1)">
			<g>
				<path class="s1" d="m266.3 368.9c0 0-28.8 110-32.9 112.7-4 2.7-40.2-10.3-51.9-18.7-11.6-8.5-12-12.4-5.8-25.1 6.2-12.7-3.2-37.2 5.5-59.1 8.8-21.9 59.9-49.3 85.1-9.8z"/>
				<path class="s2" d="m230.5 486c0 0 5.8-9.7-1.8-16.7-7.7-7-14.5 12.3-14.5 12.3l-5.2-0.2c0 0 8-10.9 1-17.5-7.1-6.5-14 10.9-14 10.9l-5.2-3.5c0 0 6.7-7.6 1.6-14.9-5-7.4-12 0.3-15.1 5.8l-3 5.4 31.5 21.3z"/>
			</g>
		</g>
		<g id="Clip-Path" clip-path="url(#cp2)">
			<g>
				<path class="s3" d="m355.1 94.7c0 0-100.1-29-130.1-10-30.1 19-22 114.2-21 168.2 1 54.1-8 103.1-25 130.2-17 27-82.1 31-97.1 37-15.1 6 42 21 85.1 17 43-4 121-14 144-59.1 23-45.1 17-170.2 24-174.2 7-4 53.1 5 65.1-11 12-16 9.3-75.4 4.6-82.7-4.6-7.4-49.6-15.4-49.6-15.4z"/>
				<path class="s2" d="m346.1 208.9c0 0-18.7-11.4-38.7 10.6-20 22.1-28.7 168.2 0 186.9 28.7 18.7 42.7-14 42.7-14z"/>
			</g>
		</g>
		<path fill-rule="evenodd" class="s4" d="m280 107.8c7.5 0 13.5 6 13.5 13.5 0 7.4-6 13.5-13.5 13.5-7.5 0-13.5-6.1-13.5-13.5 0-7.5 6-13.5 13.5-13.5z"/>
		<path fill-rule="evenodd" class="s5" d="m283.1 115.8c3 0 5.4 2.4 5.4 5.4 0 2.9-2.4 5.3-5.4 5.3-2.9 0-5.3-2.4-5.3-5.3 0-3 2.4-5.4 5.3-5.4z"/>
		<path class="s6" d="m301.7 246.4h28.9q0.1 0 0.2 0 0.1 0 0.2-0.1 0-0.1 0.1-0.2 0-0.1 0-0.2 0-0.1 0-0.2-0.1 0-0.1-0.1-0.1-0.1-0.2-0.1-0.1-0.1-0.2-0.1h-28.9q-0.1 0-0.2 0.1-0.1 0-0.2 0.1 0 0.1-0.1 0.2 0 0 0 0.1 0 0.1 0 0.2 0.1 0.1 0.1 0.2 0.1 0.1 0.2 0.1 0.1 0 0.2 0zm27.9 19.7q0.1 0 0.2 0 0.1 0 0.2-0.1 0-0.1 0.1-0.1 0-0.1 0-0.2 0-0.1 0-0.2 0-0.1-0.1-0.2-0.1-0.1-0.1-0.1-0.1-0.1-0.2-0.1l-32.9-3q-0.3 0-0.4 0.1-0.2 0.1-0.2 0.3 0 0.2 0.1 0.4 0.1 0.2 0.4 0.2l32.9 3zm-34.6 20.3h33.4q0.2 0 0.3-0.2 0.1-0.1 0.2-0.3-0.1-0.2-0.2-0.4-0.1-0.1-0.3-0.1h-33.4q-0.3 0-0.4 0.1-0.1 0.2-0.1 0.4 0 0.2 0.1 0.3 0.1 0.2 0.4 0.2zm31.8 18.8q0.2 0.1 0.4-0.1 0.1-0.1 0.1-0.3 0.1-0.2-0.1-0.4-0.1-0.1-0.3-0.1l-31.9-3.8q-0.2 0-0.3 0.1-0.2 0.1-0.2 0.3 0 0.2 0.1 0.4 0.1 0.1 0.3 0.2l31.9 3.7zm-31.9 16.6h28q0.1 0 0.2 0 0.1-0.1 0.1-0.1 0.1-0.1 0.2-0.2 0-0.1 0-0.2 0-0.1 0-0.2-0.1-0.1-0.2-0.1 0-0.1-0.1-0.2-0.1 0-0.2 0h-28q-0.1 0-0.2 0-0.1 0.1-0.2 0.2 0 0-0.1 0.1 0 0.1 0 0.2 0 0.1 0 0.2 0.1 0.1 0.1 0.2 0.1 0 0.2 0.1 0.1 0 0.2 0zm27.1 19.9q0 0 0.1-0.1 0.1 0 0.2-0.1 0 0 0.1-0.1 0-0.1 0-0.1 0.1-0.1 0-0.2 0-0.1 0-0.2-0.1-0.1-0.2-0.2-0.1 0-0.1 0l-27-5.5q-0.1 0-0.2 0-0.1 0-0.2 0-0.1 0.1-0.2 0.2 0 0.1 0 0.2-0.1 0.1 0 0.2 0 0.1 0 0.1 0.1 0.1 0.2 0.2 0.1 0 0.2 0.1l27 5.5zm-6 17.1q0.2 0.1 0.4-0.1 0.2-0.1 0.2-0.3 0-0.2-0.1-0.4-0.2-0.1-0.4-0.2l-21.1-3.6q-0.2-0.1-0.4 0.1-0.1 0.1-0.2 0.3 0 0.2 0.1 0.4 0.1 0.1 0.3 0.2l21.2 3.6zm-7.2 17.1q0.1 0 0.2-0.1 0.1 0 0.1 0 0.1-0.1 0.1-0.2 0.1 0 0.1-0.1 0-0.1 0-0.2 0-0.1-0.1-0.2 0-0.1-0.1-0.2-0.1 0-0.2 0l-14-3q-0.1-0.1-0.2 0-0.1 0-0.2 0-0.1 0.1-0.1 0.2-0.1 0.1-0.1 0.1 0 0.1 0 0.2 0 0.1 0.1 0.2 0 0.1 0.1 0.2 0.1 0 0.2 0.1l14 3zm-0.5-146.9h0.1l21.1-2q0.1 0 0.2 0 0.1-0.1 0.1-0.2 0.1 0 0.1-0.1 0-0.1 0-0.2 0-0.1 0-0.2-0.1-0.1-0.2-0.2 0 0-0.1-0.1-0.1 0-0.2 0l-21.1 2q-0.1 0-0.2 0.1-0.1 0-0.1 0.1-0.1 0.1-0.1 0.2-0.1 0.1 0 0.2 0 0.1 0 0.2 0 0 0.1 0.1 0.1 0.1 0.2 0.1 0 0 0.1 0z"/>
		<path class="s4" d="m403.5 181.4c0 0-5.5 8.3-9.4 8.8-3.8 0.5-8-10.1-9.5-8.8-1.5 1.3-6.1 8.9-9.6 7.8-3.5-1.2-5.5-10.6-7.1-9.8-1.6 0.8-4 7-7.1 7.4-3.2 0.5-5.5-11.8-7.4-11.5-1.8 0.4-8.7 3.2-10.1 1.5-1.4-1.6 4.4-12 3-12.5-1.3-0.6-10.3-0.7-10.4-3.3-0.1-2.6 9.1-9 9.1-9 0 0-1.1 15.2 8.4 21.7 9.6 6.5 22.6 6.9 22.6 6.9l18.1 0.8z"/>
		<path class="s6" d="m392.2 182.4c7.2 0 12.5-0.4 13.1-0.4q0.4-0.1 0.6-0.4 0.3-0.3 0.3-0.7-0.1-0.4-0.4-0.7-0.3-0.3-0.7-0.2c-0.4 0-35.4 2.7-49.5-6-13.7-8.5-9.2-24.8-9-25.4q0-0.2 0-0.4 0-0.2-0.1-0.4-0.1-0.2-0.3-0.3-0.1-0.1-0.3-0.2-0.2 0-0.4 0-0.2 0-0.4 0.1-0.2 0.1-0.3 0.3-0.1 0.1-0.2 0.3c0 0.2-5 18.4 10 27.7 9 5.6 25.8 6.7 37.6 6.7z"/>
		<path fill-rule="evenodd" class="s7" d="m271 140.2c5 0 9 2.6 9 5.9 0 3.2-4 5.9-9 5.9-4.9 0-8.9-2.7-8.9-5.9 0-3.3 4-5.9 8.9-5.9z"/>
		<path class="s3" d="m381 214.8c0 0-17.4-10-28.4 0-11 10-50.7 44.8-77.8 19.7l-3.5 44.4c37.4 6.8 55.1-0.9 64.3-10 13.1-13 21.4-41.2 32.1-40.4 1.7 0.2 10.3 1.6 10.3 1.6q0.8-0.8 1.5-1.6 0.7-0.9 1.3-1.8 0.6-1 0.9-2 0.4-1.1 0.6-2.2 0.1-1 0.1-2 0-1-0.2-1.9-0.1-1-0.5-1.9-0.3-1-0.7-1.9z"/>
		<g id="Clip-Path" clip-path="url(#cp3)">
			<g>
				<path class="s3" d="m287.9 354.9c0 0 47.2 103.5 45.8 108.1-1.4 4.6-37.7 17.5-52 18.3-14.4 0.8-17.2-1.9-20.4-15.7-3.3-13.8-26.1-26.8-33.2-49.3-7-22.4 15.2-76.1 59.8-61.4z"/>
				<path class="s2" d="m334.3 468.2c0 0-1.7-11.1-12-11.7-10.4-0.6-3.5 18.7-3.5 18.7l-4.1 3.1c0 0-0.7-13.5-10.3-14.1-9.7-0.6-4 17.2-4 17.2l-6.3 0.5c0 0 0.4-10-8.2-12.5-8.5-2.5-9 7.8-8 14l1.1 6.2 37.9-3.4z"/>
			</g>
		</g>
		<path class="s6" d="m382.4 221.8q0.2 0 0.4-0.2 0.1-0.1 0.1-0.3 0.1-0.2 0-0.3-0.1-0.2-0.3-0.2l-7.3-2.6q-0.2-0.1-0.4 0-0.2 0.1-0.3 0.3 0 0.2 0.1 0.4 0.1 0.2 0.2 0.2l7.4 2.7q0 0 0 0 0 0 0 0 0.1 0 0.1 0 0 0 0 0zm-1.5 5.3q0.2 0 0.3-0.2 0.2-0.1 0.2-0.3 0-0.2-0.1-0.4-0.1-0.1-0.3-0.1l-7.8-1.7q-0.1 0-0.2 0-0.1 0-0.2 0.1 0 0-0.1 0.1-0.1 0.1-0.1 0.2 0 0.1 0 0.2 0 0.1 0.1 0.2 0 0 0.1 0.1 0.1 0.1 0.2 0.1l7.8 1.6zm-1 59.7q0.1 0 0.1 0 0.1 0 0.1 0 0.1 0 0.1-0.1 0 0 0.1 0 0.1-0.1 0.1-0.2 0-0.1 0-0.2 0-0.1 0-0.2 0-0.1-0.1-0.1l-5.4-4.8q-0.2-0.2-0.4-0.2-0.2 0.1-0.3 0.2-0.1 0.2-0.1 0.4 0 0.2 0.1 0.3l5.4 4.8q0.1 0 0.1 0.1 0 0 0.1 0 0 0 0 0 0.1 0 0.1 0zm-2.7 3.7q0.2 0 0.3-0.1 0.1-0.1 0.2-0.3 0-0.1 0-0.3-0.1-0.1-0.2-0.2l-6.5-3.7q-0.2-0.1-0.4 0-0.2 0-0.3 0.2-0.1 0.2 0 0.4 0 0.2 0.2 0.3l6.5 3.7q0 0 0.1 0 0 0 0 0 0 0 0.1 0 0 0 0 0zm-144.4 137.3q0.1 0 0.1 0 0.1 0 0.2 0 0.1-0.1 0.2-0.1 0 0 0.1-0.1 0.2-0.1 0.3-0.3 0-0.2 0.1-0.4 0-0.2-0.1-0.3 0-0.2-0.1-0.4c-15.8-20.1-18.9-37.9-18.9-38.1q-0.1-0.4-0.4-0.6-0.4-0.3-0.8-0.2-0.4 0.1-0.6 0.4-0.3 0.3-0.2 0.7c0.1 0.8 3.1 18.5 19.3 39q0 0.1 0.1 0.2 0.1 0.1 0.2 0.1 0.1 0.1 0.2 0.1 0.2 0 0.3 0zm-89.3-11.3q0 0 0 0 0 0 0.1 0 0 0 0 0 0.1 0 0.1 0 1.7-0.5 3.5-1 1.7-0.5 3.4-1.1 1.7-0.5 3.3-1.2 1.7-0.6 3.4-1.3 0.3-0.2 0.5-0.6 0.1-0.3 0-0.7-0.2-0.4-0.6-0.5-0.3-0.2-0.7-0.1-1.6 0.7-3.3 1.3-1.6 0.7-3.3 1.2-1.6 0.6-3.3 1.1-1.7 0.5-3.4 0.9-0.2 0.1-0.4 0.2-0.1 0.1-0.2 0.3-0.1 0.2-0.1 0.4-0.1 0.2 0 0.4 0 0.1 0.1 0.3 0.1 0.1 0.2 0.2 0.2 0.1 0.3 0.1 0.2 0.1 0.4 0.1zm27.4-12.2q0.1 0 0.2 0 0 0 0.1 0 0.1 0 0.1 0 0.1-0.1 0.2-0.1 1.7-1.1 3.3-2.3 1.6-1.3 3.2-2.5 1.6-1.3 3.1-2.7 1.5-1.3 2.9-2.8 0.1-0.1 0.2-0.3 0.1-0.2 0.1-0.4 0-0.2-0.1-0.3-0.1-0.2-0.2-0.4-0.1-0.1-0.3-0.2-0.2-0.1-0.4-0.1-0.2 0-0.4 0.1-0.2 0.1-0.3 0.2-1.4 1.4-2.9 2.7-1.4 1.4-3 2.6-1.5 1.3-3.1 2.5-1.6 1.1-3.2 2.2-0.3 0.2-0.4 0.5-0.1 0.3 0 0.7 0.1 0.3 0.3 0.5 0.3 0.2 0.6 0.2zm22.6-22.4q0.1 0 0.2 0 0.2-0.1 0.3-0.1 0.1-0.1 0.2-0.2 0.1-0.1 0.1-0.2 1.2-1.6 2.2-3.3 1.1-1.7 2.1-3.5 1-1.7 1.9-3.5 1-1.8 1.8-3.7 0.1-0.1 0.1-0.3 0-0.2 0-0.4-0.1-0.2-0.2-0.3-0.2-0.2-0.3-0.3-0.2-0.1-0.4-0.1-0.2 0-0.4 0.1-0.2 0-0.3 0.2-0.2 0.1-0.3 0.3-0.8 1.8-1.7 3.5-1 1.8-1.9 3.5-1 1.7-2.1 3.4-1 1.7-2.2 3.3-0.1 0.2-0.1 0.4 0 0.2 0 0.4 0 0.2 0.1 0.3 0.1 0.2 0.3 0.3 0.1 0.1 0.1 0.1 0.1 0 0.2 0 0.1 0.1 0.1 0.1 0.1 0 0.2 0zm13.8-28.8q0.1 0 0.3 0 0.2-0.1 0.3-0.2 0.1-0.1 0.2-0.2 0.1-0.1 0.2-0.3 0.6-1.9 1.1-3.8 0.6-2 1.1-3.9 0.5-2 0.9-4 0.4-1.9 0.8-3.9 0-0.4-0.2-0.8-0.2-0.3-0.6-0.4-0.4-0.1-0.8 0.2-0.3 0.2-0.4 0.6-0.4 2-0.8 3.9-0.4 1.9-0.9 3.9-0.5 1.9-1 3.8-0.6 1.9-1.2 3.8 0 0.2 0 0.4 0 0.2 0.1 0.4 0.1 0.2 0.2 0.3 0.2 0.1 0.4 0.2 0 0 0.1 0 0 0 0 0 0.1 0 0.1 0 0 0 0.1 0zm6-31.4q0.2 0 0.4 0 0.2-0.1 0.3-0.2 0.1-0.2 0.2-0.3 0.1-0.2 0.1-0.4c0.4-5 0.5-9.1 0.5-11.6 0-2.9-0.1-4.5-0.1-4.6q0-0.4-0.3-0.6-0.3-0.3-0.7-0.3-0.4 0-0.7 0.3-0.3 0.4-0.3 0.8c0 0.2 0.1 1.6 0.1 4.4 0 2.5-0.1 6.5-0.5 11.4q0 0.2 0.1 0.4 0 0.2 0.2 0.4 0.1 0.1 0.3 0.2 0.2 0.1 0.3 0.1z"/>
		<path fill-rule="evenodd" class="s1" d="m230.4 190.2c2 0 3.6 1.6 3.6 3.7 0 2-1.6 3.6-3.6 3.6-2.1 0-3.7-1.6-3.7-3.6 0-2.1 1.6-3.7 3.7-3.7z"/>
		<path fill-rule="evenodd" class="s1" d="m217.8 215.1c3.2 0 5.7 2.5 5.7 5.7 0 3.2-2.5 5.7-5.7 5.7-3.2 0-5.7-2.5-5.7-5.7 0-3.2 2.5-5.7 5.7-5.7z"/>
		<path fill-rule="evenodd" class="s1" d="m215 167c2.6 0 4.7 2.1 4.7 4.7 0 2.6-2.1 4.7-4.7 4.7-2.6 0-4.6-2.1-4.6-4.7 0-2.6 2-4.7 4.6-4.7z"/>
		<path fill-rule="evenodd" class="s1" d="m223.2 243.4c1.9 0 3.5 1.6 3.5 3.5 0 1.9-1.6 3.5-3.5 3.5-1.9 0-3.5-1.6-3.5-3.5 0-1.9 1.6-3.5 3.5-3.5z"/>
		<path fill-rule="evenodd" class="s1" d="m213.6 267.5c2.3 0 4.2 1.8 4.2 4.1 0 2.3-1.9 4.2-4.2 4.2-2.3 0-4.1-1.9-4.1-4.2 0-2.3 1.8-4.1 4.1-4.1z"/>
		<path fill-rule="evenodd" class="s1" d="m235.9 158.7c3 0 5.5 2.4 5.5 5.5 0 3-2.5 5.5-5.5 5.5-3.1 0-5.5-2.5-5.5-5.5 0-3.1 2.4-5.5 5.5-5.5z"/>
		<path fill-rule="evenodd" class="s1" d="m217.9 134.8c3.1 0 5.6 2.5 5.6 5.6 0 3.2-2.5 5.7-5.6 5.7-3.1 0-5.7-2.5-5.7-5.7 0-3.1 2.6-5.6 5.7-5.6z"/>
		<path fill-rule="evenodd" class="s5" d="m395.7 115.8c1.7 0 3 2.4 3 5.4 0 2.9-1.3 5.3-3 5.3-1.6 0-3-2.4-3-5.3 0-3 1.4-5.4 3-5.4z"/>
	</g>
</svg>