<svg xmlns="http://www.w3.org/2000/svg" fill-rule="evenodd" image-rendering="optimizeQuality" shape-rendering="geometricPrecision" viewBox="0 0 436 582"><style>.B{opacity:.251}.C{opacity:.314}.D{opacity:.125}.E{opacity:.439}.F{opacity:.063}.G{opacity:.627}.H{opacity:.188}</style><path fill="#f2e0d1" d="M222.5 35.5c-2.1 1-4.4 1.3-7 1a97 97 0 0 1 6.5-2 1 1 0 0 1 .5 1"/><path fill="#fef2e4" d="M251.5 36.5c-1.3.2-2.3-.1-3-1a1 1 0 0 1 .5-1c1 .6 1.8 1.2 2.5 2" class="B"/><path fill="#faecd9" d="M204.5 37.5c-.7.9-1.7 1.2-3 1l-4 1c.1-.6.4-1.1 1-1.5a18.4 18.4 0 0 1 6-.5"/><path fill="#ead4c6" d="M253.5 36.5c3.3-.3 6.3.4 9 2-3.2-.2-6.2-.8-9-2"/><path fill="#fcc956" d="M284.5 52.5a36.6 36.6 0 0 1 7 4 115.5 115.5 0 0 1 19 25c-.4 2.9.6 5 3 6.5a16.2 16.2 0 0 1-1.5 3.5c-1.9-2-3.2-4.3-4-7-.4.5-1 .8-1.5 1a6.96 6.96 0 0 0-4-2h-2c-4.2-4.2-8.9-4.9-14-2-3.4 1-5.4 3.4-6 7-1.1 3.5-1.3 7.1-.5 11a942 942 0 0 0 6.5 9c1.4 2.4 3.4 4 6 5h1q2.1 3 6 3c3.5-.2 6.8-.9 10-2 3.2-.4 5.5-2 7-5 1.2 1.4 2.2 1.2 3-.5l-1-1a8.4 8.4 0 0 1 4-.5c1-1 1.3-2.4 1-4a8.4 8.4 0 0 1 4 .5c3.3 2.6 5.8 5.8 7.5 9.5a20.7 20.7 0 0 1 1.5 7 29 29 0 0 0-.5 9c1.8 2 2.8 4.3 3 7 1 .8 2.2 1.2 3.5 1 .3 1.8 1 3.4 2 5-1.6 2.7-1 4.7 2 6-1.2-3-1.2-6.3 0-10a23.6 23.6 0 0 1-2.5-6c-1-.8-2.2-1.2-3.5-1a34.5 34.5 0 0 0-2-9.5 8.4 8.4 0 0 1 4-.5 13 13 0 0 0 .5 5 40.3 40.3 0 0 0 5.5 8 282 282 0 0 1 4 40 94.4 94.4 0 0 1-12.5 32L323.5 225a68 68 0 0 0-14 9.5c-18.3 10.7-38 17.3-59 20a107 107 0 0 1-24-1.5l1-1c-2-.6-3.5-1.7-4.5-3.5l-1 1a206 206 0 0 0-22.5-10.5 183 183 0 0 1-22-13 195 195 0 0 0-22.5-24.5c-7-9-12.5-18.8-16.5-29.5l-4-5c-5.2-18.9-6.4-38-3.5-57.5a297 297 0 0 1 15-37 35.6 35.6 0 0 0 4.5-4l-2-2a584 584 0 0 0 5-6c6.4-6.3 14-10.3 23-12a183 183 0 0 0 23-6.5l23.5-2.5 33.5 2.5a143 143 0 0 0 19 5.5v3z"/><path fill="#784627" d="M248.5 35.5c.7.9 1.7 1.2 3 1h2c2.8 1.2 5.8 1.8 9 2-.1 2.1.6 2.5 2 1 4.3 2.8 9 4.5 14 5 3.3.3 6 1.6 8 4 1.7 2.7 4 4.7 7 6a3 3 0 0 1-2 2 36.6 36.6 0 0 0-7-4c-4.3-3.8-9.3-6.7-15-8.5q-11.1-4.5-22.5-4.5a127.7 127.7 0 0 0-43.5 0c-1 .2-1.7-.2-2-1 1.3.2 2.3-.1 3-1a39.7 39.7 0 0 1 11-1c2.6.3 4.9 0 7-1a85 85 0 0 1 26 0"/><path fill="#a47a66" d="M262.5 38.5c5.8 1 11.1 3 16 6-5-.5-9.7-2.2-14-5-1.4 1.5-2.1 1.1-2-1"/><path fill="#ae9167" d="M201.5 38.5c.3.8 1 1.2 2 1a1343 1343 0 0 0-18 5c-.7-.9-1.7-1.2-3-1 4.8-1.8 9.8-3.1 15-4z"/><path fill="#f1e4d7" d="M181.5 43.5c-1.8 1-3.8 1.6-6 2 1.5-1.8 3.5-2.4 6-2" class="F"/><path fill="#f2c364" d="m284.5 52.5-9-2v-3a143 143 0 0 1-19-5.5 2265 2265 0 0 0-33.5-2.5L199.5 42a183 183 0 0 1-23 6.5c2.8-1.7 5.8-3 9-4a1343 1343 0 0 1 18-5 127.7 127.7 0 0 1 43.5 0q11.4 0 22.5 4.5c5.7 1.8 10.7 4.7 15 8.5"/><path fill="#eedcc9" d="M286.5 48.5a27.7 27.7 0 0 1 8 6h-1c-3-1.3-5.3-3.3-7-6" class="D"/><path fill="#a78f7a" d="M159.5 52.5c-.5 1.4-1.5 2-3 2 .5-1.4 1.5-2 3-2"/><use fill="#f7e9d1" class="C" href="#B"/><path fill="#6f4027" d="M181.5 43.5h1c1.3-.2 2.3.1 3 1-3.2 1-6.2 2.3-9 4-9 1.7-16.6 5.7-23 12a5.7 5.7 0 0 0-3 1h-3l2-3c1.8-2 4.2-3.4 7-4 1.5 0 2.5-.6 3-2a86.2 86.2 0 0 1 16-7c2.2-.4 4.2-1 6-2"/><path fill="#e4cdb6" d="M298.5 57.5q2.55.6 3 3-2.55-.6-3-3" class="B"/><path fill="#efd9c1" d="M301.5 60.5c1.3 0 2 .7 2 2a3 3 0 0 1-2-2" opacity=".565"/><path fill="#e7d4c5" d="m149.5 58.5-2 3-3 2c.5-2.8 2.2-4.4 5-5" opacity=".376"/><path fill="#bb9f95" d="M143.5 63.5c-.2 1.9-1.2 3.2-3 4 .7-2.3 1.7-3.6 3-4"/><path fill="#bea09b" d="M140.5 67.5a6.5 6.5 0 0 1-3 3q0-3 3-3"/><use fill="#d8b388" href="#C"/><path fill="#753c19" d="M293.5 54.5h1c.8 1.8 2.1 2.8 4 3q.45 2.4 3 3a3 3 0 0 0 2 2 5 5 0 0 0 .5 3c2 2.6 4.2 5 6.5 7 .2 1.9 1.2 3.2 3 4 1.2 3.2 2.8 6.2 5 9 .2 1.7.8 3 2 4a29.3 29.3 0 0 0 2.5 7c.7.8 1.5 1 2.5 1 .5 1.4 1.5 2 3 2a45.4 45.4 0 0 1 8 8c.2 1.9 1.2 3.2 3 4 .7 0 1 .3 1 1 .2 1.9 1.2 3.2 3 4 0 1.5.6 2.5 2 3 .7 0 1 .3 1 1a28.3 28.3 0 0 0 4 8v1a330 330 0 0 0 6 21 106.3 106.3 0 0 1 1 20 27.6 27.6 0 0 1-2 10c-.6.1-1.1.4-1.5 1a89 89 0 0 1-3.5 12c.2 1-.2 1.7-1 2-1.9 2.3-3.2 5-4 8-.4 1.2-1.1 2.2-2 3-1.4.5-2 1.5-2 3-2 1-3.4 2.8-4 5 0 .7-.3 1-1 1-1.2.4-1.9 1.2-2 2.5 1.1 1.9 2.8 2.7 5 2.5h2a29.6 29.6 0 0 1 5 3c.3.8 1 1.2 2 1a10.4 10.4 0 0 0 4 5c0 1.5.6 2.5 2 3-.4 2.2.3 3.9 2 5v7c.3 1.6 0 3-1 4-1.4-7.8-4.4-15-9-21.5-4.1-2.8-8.6-4.6-13.5-5.5-1.7 0-3 .6-4 2-.4 2-1.2 3.7-2.5 5 0-1-.5-1.7-1.5-2-1 .6-1.8 1.2-2.5 2a3 3 0 0 0-2 2 66.4 66.4 0 0 0-9 6 3 3 0 0 0-2-2 68 68 0 0 1 14-9.5l16.5-18.5a94.4 94.4 0 0 0 12.5-32c1.6-13.6.3-27-4-40-5-16-14.6-28.6-28.5-38-2.2-5.7-5.4-10.7-9.5-15a115.5 115.5 0 0 0-19-25 3 3 0 0 0 2-2"/><path fill="#bd9f92" d="M131.5 77.5c-1.3 3-3.3 5.3-6 7 1.3-3 3.3-5.3 6-7"/><path fill="#606027" d="M300.5 83.5h2q7.2 6 9 15c.3 2 0 3.6-1 5 .4-3.3-.2-6.3-2-9a10.1 10.1 0 0 0-1.5-4 64 64 0 0 1-6.5-7"/><path fill="#193f16" d="M293.5 83.5c5.8 1.8 10.2 5.5 13 11 .3 2.2 0 4.2-1 6a17.8 17.8 0 0 0-1.5-7c-2.8-4.3-6.3-7.6-10.5-10"/><path fill="#6da568" d="M300.5 83.5a64 64 0 0 0 6.5 7 10.1 10.1 0 0 1 1.5 4c-.9-1-1.6-1-2 0-2.8-5.5-7.2-9.2-13-11-2-.3-3.3.3-4 2-1.2-.7-2.5-1-4-1 0-1.3.7-2 2-2.5a1 1 0 0 0-1-.5c5.1-2.9 9.8-2.2 14 2"/><path fill="#ebf0d1" d="M285.5 84.5c1.5 0 2.8.3 4 1 3.1 4 2.1 6.3-3 7-1.5-1.3-2.5-3-3-5 .4-1.2 1.1-2.2 2-3"/><use fill="#b49587" href="#D"/><path fill="#494c21" d="M286.5 81.5a1 1 0 0 1 1 .5c-1.3.4-2 1.3-2 2.5-.9.8-1.6 1.8-2 3-2 7-.4 13 5 18a5.7 5.7 0 0 1-3-1c-4.4-4.4-6-9.7-5-16 .6-3.6 2.6-6 6-7"/><path fill="#eed8bc" d="M318.5 85.5c1.6.8 2.3 2.1 2 4-1.2-1-1.8-2.3-2-4"/><use x="-2" y="3" fill="#ac8982" href="#D"/><path fill="#d2baaf" d="M121.5 90.5c-.6 2-1.6 3.6-3 5-.2-2.4.8-4.1 3-5"/><path fill="#1e2a14" d="M293.5 83.5c4.2 2.4 7.7 5.7 10.5 10a17.8 17.8 0 0 1 1.5 7v1c-1-1.5-2.4-2.3-4-2.5a33 33 0 0 0 0 5.5q-12.75.75-15-12c5.1-.7 6.1-3 3-7 .7-1.7 2-2.3 4-2"/><path fill="#6d3412" d="M147.5 61.5h3c-12.8 10.5-23 23.2-30.5 38a87.3 87.3 0 0 0-4.5 16c-.8 1.1-1.3 2.4-1.5 4-2.4 17.1-2 34.1 1.5 51-.7.9-1.7 1.2-3 1-3.6-18.2-3.9-36.6-1-55a71 71 0 0 0 3-9c1.1-2.1 1.8-4.4 2-7-.1-2 .6-3.7 2-5 1.4-1.4 2.4-3 3-5 1.4-.5 2-1.5 2-3 1.4-.5 2-1.5 2-3 2.7-1.7 4.7-4 6-7a44.4 44.4 0 0 1 6-7 6.5 6.5 0 0 0 3-3c1.8-.8 2.8-2.1 3-4h1z"/><path fill="#f7e5d8" d="M320.5 89.5a33 33 0 0 1 5 8c-1 0-1.8-.2-2.5-1a29.3 29.3 0 0 1-2.5-7" class="F"/><path fill="#dab567" d="M280.5 88.5c-1 6.3.6 11.6 5 16l1 4a942 942 0 0 1-6.5-9c-.8-3.9-.6-7.5.5-11"/><use fill="#ecddcf" class="D" href="#E"/><path fill="#e5cebc" d="M116.5 100.5c-.2 2.6-.9 4.9-2 7-.3-2.7.3-5 2-7" class="G"/><path fill="#6cc482" d="M283.5 87.5c.5 2 1.5 3.7 3 5q2.25 12.75 15 12c1.9-.2 3.2-1.2 4-3v-1c1-1.8 1.3-3.8 1-6 .4-1 1.1-1 2 0 1.8 2.7 2.4 5.7 2 9-1 1.7-2.3 3.2-4 4.5a50 50 0 0 1-15-.5c-.5-1.4-1.5-2-3-2-5.4-5-7-11-5-18"/><path fill="#355832" d="M305.5 101.5c-.8 1.8-2.1 2.8-4 3a33 33 0 0 1 0-5.5c1.6.2 3 1 4 2.5"/><path fill="#c1913b" d="M322.5 107.5a8.4 8.4 0 0 0-4 .5l1 1c-.8 1.7-1.8 1.9-3 .5-1.5 3-3.8 4.6-7 5 2.4-1.4 4-3.4 5-6q1.2-3 4.5-3c1.7-.1 2.9.6 3.5 2"/><path fill="#f0decc" d="M114.5 107.5a71 71 0 0 1-3 9q-.9-5.55 3-9" class="B"/><path fill="#635a40" d="M311.5 98.5c1 1.8 1.3 3.8 1 6 1.9-.3 2.6 0 2 1q-6 4.2-13.5 6c-3.6-.5-6.8-1.8-9.5-4a50 50 0 0 0 15 .5c1.7-1.3 3-2.8 4-4.5 1-1.4 1.3-3 1-5"/><use x="26" y="35" fill="#ccaa98" href="#C"/><path fill="#80c08e" d="M211.5 107.5a13 13 0 0 1 5 .5c-.6.4-.9.9-1 1.5a18.5 18.5 0 0 0-6 .5c-.8.7-1 1.5-1 2.5v1c-2.3-.8-4.3-.1-6 2-.7 1-1.7 1.7-3 2 2.5-5.2 6.5-8.5 12-10"/><path fill="#619753" d="M211.5 107.5c.7-.9 1.7-1.2 3-1 8.3.1 14.3 3.8 18 11a14.7 14.7 0 0 1-3.5-3 1 1 0 0 0-.5 1c-3.4-3.9-7.8-5.9-13-6 .1-.6.4-1.1 1-1.5a13 13 0 0 0-5-.5"/><path fill="#b58d59" d="M286.5 108.5c2.6 1 4.6 2.6 6 5-2.6-1-4.6-2.6-6-5"/><path fill="#f3e5d9" d="M285.5 104.5c.9.6 1.9 1 3 1 .5 1.4 1.5 2 3 2 2.7 2.2 5.9 3.5 9.5 4q7.5-1.8 13.5-6v3c-1 2.6-2.6 4.6-5 6-3.2 1.1-6.5 1.8-10 2q-2.55-2.25-6-3h-1c-1.4-2.4-3.4-4-6-5z"/><use x="-37" y="8" fill="#4a5e3d" href="#E"/><path fill="#143312" d="M215.5 109.5c5.2.1 9.6 2.1 13 6 2.1 4.6 2.5 9.3 1 14 .2-4.5-.4-8.8-2-13-3 .2-5-1.2-6-4-4.4-1.3-8.7-1.3-13 0 0-1 .2-1.8 1-2.5a18.5 18.5 0 0 1 6-.5"/><use x="30" y="40" fill="#c3a593" href="#C"/><path fill="#3a4321" d="M214.5 106.5c-1.3-.2-2.3.1-3 1-5.5 1.5-9.5 4.8-12 10l-1 2c-.7 0-1-.3-1-1a36.2 36.2 0 0 1 5-9 309 309 0 0 0 4-3c2.8-1.3 5.4-1.3 8 0"/><path fill="#9e753b" d="M293.5 113.5q3.45.75 6 3-3.9 0-6-3"/><path fill="#f0f7eb" d="M208.5 113.5c4.4 4.3 3.4 6.6-3 7-2.6-.5-3.6-2.2-3-5 1.7-2.1 3.7-2.8 6-2"/><path fill="#1a2b17" d="M229.5 129.5v1c-1.2.2-2.2-.1-3-1a19.4 19.4 0 0 0 1-8h-5l-3 10-2-3c-3.2 4.7-6.7 5-10.5 1-.2-2.9-.7-5.5-1.5-8v-1c6.4-.4 7.4-2.7 3-7v-1c4.3-1.3 8.6-1.3 13 0 1 2.8 3 4.2 6 4 1.6 4.2 2.2 8.5 2 13"/><path fill="#9b6909" d="M270.5 113.5c1.6-.2 3 .3 4 1.5-3.6-.1-6.8 1.4-9.5 4.5-.7-.7-.7-1.3 0-2a60 60 0 0 1 5.5-4"/><path fill="#f9c75e" d="M310.5 81.5c4 4.3 7.3 9.3 9.5 15 14 9.4 23.4 22 28.5 38a40.3 40.3 0 0 1-5.5-8 13 13 0 0 1-.5-5 8.4 8.4 0 0 0-4 .5 34.5 34.5 0 0 1 2 9.5c1.3-.2 2.5.2 3.5 1a23.6 23.6 0 0 0 2.5 6c-1.2 3.7-1.2 7 0 10-3-1.3-3.6-3.3-2-6-1-1.6-1.7-3.2-2-5-1.3.2-2.5-.2-3.5-1-.2-2.7-1.2-5-3-7a29 29 0 0 1 .5-9 20.7 20.7 0 0 0-1.5-7c-1.7-3.7-4.2-6.9-7.5-9.5a8.4 8.4 0 0 0-4-.5c.3 1.6 0 3-1 4-.6-1.4-1.8-2.1-3.5-2q-3.3 0-4.5 3v-3c.6-1-.1-1.3-2-1 .3-2.2 0-4.2-1-6q-1.8-9-9-15c1.5.2 2.9.9 4 2a3.6 3.6 0 0 0 1.5-1c.8 2.7 2.1 5 4 7a16.2 16.2 0 0 0 1.5-3.5c-2.4-1.5-3.4-3.6-3-6.5"/><use fill="#c3a293" href="#F"/><path fill="#dcc3af" d="M346.5 120.5c1.9-.1 2.2.4 1 1.5 2.4 1.5 3.4 3.7 3 6.5a28.3 28.3 0 0 1-4-8" opacity=".816"/><path fill="#495519" d="M232.5 117.5c1.3.6 2.1 1.6 2.5 3a45.5 45.5 0 0 1-.5 15c-2.3 3-5.3 4.6-9 5 9.1-5.4 11.5-13 7-23"/><path fill="#416e3c" d="M197.5 118.5c0 .7.3 1 1 1a72.4 72.4 0 0 0 .5 12 76 76 0 0 0 6.5 8c-8.2-4.9-10.8-11.9-8-21"/><path fill="#805d2c" d="M206.5 106.5a309 309 0 0 1-4 3q-15.6 9-13.5 27l3.5 9q-3.3-2.1-4.5-6a38.2 38.2 0 0 1-1-15c3-7 7.7-12.7 14-17a13 13 0 0 1 5.5-1"/><path fill="#855524" d="M287.5 130.5c-2 3-4.7 5.4-8 7 2-3 4.7-5.4 8-7"/><path fill="#7f3818" d="M315.5 175.5c6.5-10 7.7-20.7 3.5-32q-8.4-13.2-24-15c-1.4 0-2.6.3-3.5 1-1.2.7-2.5 1-4 1 .6-1.3 1.6-2.1 3-2.5q29.1-1.95 33 27c.2 8-2.5 14.9-8 20.5"/><path fill="#be977d" d="M350.5 129.5c.7 1.6 1.7 3 3 4.5l-1 1c2.6 3.4 4 7.2 4 11.5v4a330 330 0 0 1-6-21"/><path fill="#6fd185" d="M232.5 117.5c4.5 10 2.1 17.6-7 23-6.8 1.6-13.5 1.3-20-1a76 76 0 0 1-6.5-8 72.4 72.4 0 0 1-.5-12l1-2c1.3-.3 2.3-1 3-2-.6 2.8.4 4.5 3 5v1c-1.2.5-1.9 1.5-2 3 2.7 9.8 9 13.7 19 11.5 3.1-1 5.4-2.8 7-5.5v-1c1.5-4.7 1.1-9.4-1-14a1 1 0 0 1 .5-1 14.7 14.7 0 0 0 3.5 3"/><path fill="#1d391c" d="M205.5 121.5c.8 2.5 1.3 5.1 1.5 8 3.8 4 7.3 3.7 10.5-1l2 3 3-10h5a19.4 19.4 0 0 1-1 8c.8.9 1.8 1.2 3 1-1.6 2.7-3.9 4.6-7 5.5-10 2.2-16.3-1.7-19-11.5.1-1.5.8-2.5 2-3"/><path fill="#996c3a" d="M260.5 137.5a67.3 67.3 0 0 0 19 0c-.1.6-.4 1.1-1 1.5l-18 1c-3.1 1-6.1 2.1-9 3.5q3.75-4.05 9-6"/><path fill="#b29994" d="M292.5 142.5c-3.3 1.2-6.7.9-10-1 3.5-2.6 7.5-3.5 12-2.5-.9 1.6-2.2 2.6-4 3a2.4 2.4 0 0 0 2 .5"/><path fill="#823d41" d="M243.5 157.5a428 428 0 0 1 30-13 50 50 0 0 0 9-3c3.3 1.9 6.7 2.2 10 1 5.3-1.3 8-4.6 8-10 1.8 3.7.5 7.2-4 10.5a23.8 23.8 0 0 1-8 1.5 50.3 50.3 0 0 0-9-.5 449 449 0 0 0-35 14.5c-.6-.1-1-.5-1-1"/><path fill="#e4dfd0" d="M202.5 109.5a36.2 36.2 0 0 0-5 9c-2.8 9.1-.2 16.1 8 21 2.4 2.5 5.4 3.8 9 4 4-.3 7.7-1.3 11-3 3.7-.4 6.7-2 9-5v1c.4 2.5-.3 4.7-2 6.5a70.3 70.3 0 0 0-20 10 30.3 30.3 0 0 1-10-.5l-8-5c0-1.3-.7-2-2-2l-3.5-9q-2.1-18 13.5-27"/><path fill="#425738" d="M205.5 139.5c6.5 2.3 13.2 2.6 20 1-3.3 1.7-7 2.7-11 3-3.6-.2-6.6-1.5-9-4"/><path fill="#e9bf63" d="M260.5 137.5q-5.25 1.95-9 6a80.6 80.6 0 0 0-8 9 36.7 36.7 0 0 0-4 7c0-4.2 1.3-7.8 4-11a3.6 3.6 0 0 0-1-1.5c1.8-1.2 3.8-1.8 6-2 2.4-5 6.4-7.6 12-7.5"/><path fill="#fbf6ee" d="M291.5 129.5q5.55-.9 9 3c0 5.4-2.7 8.7-8 10a2.4 2.4 0 0 1-2-.5c1.8-.4 3.1-1.4 4-3-4.5-1-8.5-.1-12 2.5a50 50 0 0 1-9 3 32.5 32.5 0 0 0-8 .5 313 313 0 0 1-22 9.5v-2a80.6 80.6 0 0 1 8-9c2.9-1.4 5.9-2.6 9-3.5l18-1c.6-.4.9-.9 1-1.5 3.3-1.6 6-4 8-7 1.5 0 2.8-.3 4-1"/><path fill="#8d682b" d="M234.5 136.5c1.5 2.6 1.1 5.1-1 7.5a70.3 70.3 0 0 0-20 10c-4 .9-7.6.4-11-1.5 3.3.7 6.7.9 10 .5a70.3 70.3 0 0 1 20-10c1.7-1.8 2.4-4 2-6.5"/><path fill="#eed0ca" d="M273.5 144.5a428 428 0 0 0-30 13h-1a5.7 5.7 0 0 1 1-3 313 313 0 0 0 22-9.5 32.5 32.5 0 0 1 8-.5"/><path fill="#bd5767" d="M291.5 129.5c1-.7 2.1-1 3.5-1q15.6 1.8 24 15c4.2 11.3 3 22-3.5 32l-1 2h-1c1.7-5.8-.3-10-6-12.5-14.7-3.4-29.4-3.1-44 1l-16 6c-2 1-3 2.4-3 4.5l-2-1q-1.8-9.15 0-18h1c0 .5.4.9 1 1a449 449 0 0 1 35-14.5 50.3 50.3 0 0 1 9 .5 23.8 23.8 0 0 0 8-1.5c4.5-3.3 5.8-6.8 4-10.5q-3.45-3.9-9-3"/><path fill="#6d5125" d="m194.5 147.5 8 5c-3.6-.2-6.3-1.8-8-5"/><path fill="#efbc6b" d="M348.5 134.5c4.3 13 5.6 26.4 4 40a282 282 0 0 0-4-40"/><path fill="#e8a64e" d="M115.5 115.5a320 320 0 0 1-1 30.5 745 745 0 0 0 3 28.5l-2-4c-3.4-16.9-4-33.9-1.5-51 .2-1.6.7-2.9 1.5-4"/><path fill="#936112" d="M202.5 156.5c2.3.3 2.3 1.1 0 2.5q-2.85 2.4-6 3c1.6-2.4 3.6-4.2 6-5.5"/><path fill="#f6dcc5" d="M356.5 146.5q2.25 4.95 3 10.5c-.4 3.5-.4 7.2 0 11-.6 1-1.2 1.8-2 2.5.3-6.8 0-13.4-1-20z"/><path fill="#793c1b" d="M243.5 152.5v2a5.7 5.7 0 0 0-1 3q-1.8 8.85 0 18c-1.3-1.3-2.1-3-2.5-5a61 61 0 0 1-.5-11 36.7 36.7 0 0 1 4-7"/><path fill="#ee8faa" d="M313.5 177.5a43.6 43.6 0 0 1-13 8c-1.3.2-2.5-.2-3.5-1-1.4 1.6-3.3 2.6-5.5 3-.9.8-1.2 1.8-1 3a103 103 0 0 1-23 .5 24.6 24.6 0 0 0-11-2.5q-8.55-3.6-12-12c0-2 1-3.6 3-4.5l16-6c14.6-4.1 29.3-4.4 44-1 5.7 2.5 7.7 6.7 6 12.5"/><path fill="#9c572c" d="M313.5 177.5h1c-4.1 4.6-9.1 7.9-15 10l1-2a43.6 43.6 0 0 0 13-8"/><path fill="#f1b246" d="M153.5 60.5a584 584 0 0 1-5 6l2 2a35.6 35.6 0 0 1-4.5 4 297 297 0 0 0-15 37c-2.9 19.4-1.7 38.6 3.5 57.5l4 5c4 10.7 9.5 20.6 16.5 29.5a195 195 0 0 1 22.5 24.5 183 183 0 0 0 22 13 206 206 0 0 1 22.5 10.5l1-1c1 1.8 2.5 3 4.5 3.5l-1 1a107 107 0 0 0 24 1.5c-27.3 3.3-53.6-.3-79-11a330 330 0 0 0-17-11.5 193 193 0 0 1-16-17 9.5 9.5 0 0 1-2.5-1.5 1 1 0 0 0-.5 1c-.7-1.7-2-2.7-4-3a724 724 0 0 1-9.5-20 69.7 69.7 0 0 1-4.5-17 745 745 0 0 1-3-28.5 320 320 0 0 0 1-30.5 87.3 87.3 0 0 1 4.5-16c7.6-14.8 17.7-27.5 30.5-38a5.7 5.7 0 0 1 3-1"/><path fill="#e08d8e" d="m300.5 185.5-1 2q-2.55 2.25-6 3h-3c-.2-1.2.1-2.2 1-3 2.2-.4 4-1.4 5.5-3 1 .8 2.2 1.2 3.5 1"/><path fill="#e6d2be" d="M355.5 180.5c-.3 5-2 9.3-5 13a89 89 0 0 0 3.5-12c.4-.6.9-.9 1.5-1"/><path fill="#995424" d="M290.5 190.5h3c-1.3 1.4-3 2.1-5 2z"/><path fill="#ec949b" d="M256.5 188.5a24.6 24.6 0 0 1 11 2.5 103 103 0 0 0 23-.5l-2 2a76 76 0 0 1-20 .5c-4.5-.4-8.5-2-12-4.5"/><path fill="#803d16" d="m242.5 175.5 2 1q3.45 8.4 12 12c3.5 2.6 7.5 4 12 4.5 6.7.7 13.4.5 20-.5-9.1 3.7-18.5 3.9-28 .5l-11-7c-3.2-3-5.6-6.5-7-10.5"/><path fill="#edd8c7" d="M349.5 195.5c-.4 3.2-1.7 5.9-4 8 .8-3 2.1-5.7 4-8"/><path fill="#f4e8cd" d="M106.5 202.5c-1-.2-1.7.2-2 1-2.2.1-4.2.8-6 2-1.1-.9-1.1-1.7 0-2.5a57 57 0 0 0 6.5-1.5c.8 0 1.3.4 1.5 1" class="E"/><path fill="#ceae73" d="M104.5 203.5c.3-.8 1-1.2 2-1 3.3-.3 6.3.4 9 2a72 72 0 0 0-11-1"/><use x="218" y="122" fill="#f7e6d5" class="D" href="#D"/><path fill="#85593b" d="M119.5 210.5c-.6 1.3-1.6 2.1-3 2.5-8.3 1.5-16 4.3-23 8.5 1.7-6.2 5-11.4 10-15.5q3-1.05 6 0a525 525 0 0 1 10 4.5"/><path fill="#e7d2c3" d="M341.5 209.5c-.6 2.2-2 4-4 5 .6-2.2 2-4 4-5" opacity=".565"/><path fill="#f99d3e" d="M125.5 212.5h4c3 7 5 14.3 6 22v3c-1.7-.2-2.7.5-3 2-6.5 3.8-11.1 9.1-14 16a18.5 18.5 0 0 0-3.5 2l-6 16c-1.2 2.4-2.7 2.6-4.5.5l1-1c-2.1-.4-3-1.6-2.5-3.5 1 1.1 1.7.8 2-1 1 1 2.2 1.2 3.5.5.3-2.2-.2-4.4-1.5-6.5-1.2 1.5-2 1.3-2.5-.5a46.4 46.4 0 0 1 4-6.5c-4.6-5.6-5.9-11.9-4-19-.2-1.5-.9-2.7-2-3.5 2.7-4 2-7.2-2-9.5-1.9.2-3.2 1.2-4 3a9.9 9.9 0 0 1-6 1c10.3-7.9 22-12.9 35-15"/><path fill="#f1ded1" d="M336.5 215.5c-.2 2.5.8 4.1 3 5-2.2.2-3.9-.6-5-2.5.1-1.3.8-2.1 2-2.5"/><path fill="#feefee" d="M341.5 219.5q1.95 1.05 0 0" class="F"/><path fill="#de973d" d="M131.5 211.5c2 .3 3.3 1.3 4 3 .1 2.6 1 5 2.5 7l1-2c2.5 3 4.5 6.3 6 10l1-1a6.8 6.8 0 0 0 3.5 4.5c-2.4 2.1-4.5 2-6.5-.5a16.2 16.2 0 0 0 0 8 124.5 124.5 0 0 1 20.5 3.5c.6.4.9.9 1 1.5-9.8-3-19.5-2.6-29 1v-4l-7 2c2-2 4.3-3.5 7-4.5a5 5 0 0 0-3-.5c.3-1.5 1.3-2.2 3-2v-3q1.05 4.5 3 9c.8-11.3-1.5-22-7-32"/><path fill="#613720" d="M104.5 203.5a72 72 0 0 1 11 1c1.7 1.4 3.7 2.3 6 2.5 1.3.8 2 2 2 3.5h-4a525 525 0 0 0-10-4.5q-3-1.05-6 0c-5 4-8.3 9.3-10 15.5a483 483 0 0 1-7 6 71 71 0 0 1 3-9c.8-6 3.8-10.3 9-13 1.8-1.2 3.8-1.9 6-2"/><path fill="#fae2dd" d="M348.5 224.5c-1 .2-1.7-.2-2-1 .8-1 1.5-.6 2 1"/><path fill="#f0e4d9" d="M89.5 218.5a71 71 0 0 0-3 9c-.3.8-1 1.2-2 1 0-4.2 1.8-7.5 5-10" class="H"/><path fill="#e0ccbc" d="M348.5 224.5c2.4.9 3.7 2.5 4 5a10.4 10.4 0 0 1-4-5" class="C"/><use fill="#fae4d6" href="#G"/><path fill="#763009" d="m115.5 170.5 2 4a69.7 69.7 0 0 0 4.5 17 724 724 0 0 0 9.5 20c5.5 10 7.8 20.7 7 32q-1.95-4.5-3-9c-1-7.7-3-15-6-22a844 844 0 0 1-14.5-29 37.6 37.6 0 0 0-2.5-12c1.3.2 2.3-.1 3-1"/><path fill="#e29d37" d="m171.5 243.5 1 2c-.7.4-1.2 1-1.5 2-1.8-1.8-4-2.4-6.5-2-.1-.6-.4-1.1-1-1.5a124.5 124.5 0 0 0-20.5-3.5 16.2 16.2 0 0 1 0-8c2 2.5 4.1 2.6 6.5.5a6.8 6.8 0 0 1-3.5-4.5l-1 1c-1.5-3.7-3.5-7-6-10l-1 2c-1.5-2-2.4-4.4-2.5-7a1 1 0 0 1 .5-1 9.5 9.5 0 0 0 2.5 1.5 193 193 0 0 0 16 17 330 330 0 0 1 17 11.5"/><use x="9" y="113" fill="#efdbcf" class="E" href="#F"/><path fill="#a89082" d="M82.5 230.5a6.5 6.5 0 0 1-3 3 27.4 27.4 0 0 0-14 3c.8-1.6 2.2-2.8 4-3.5 4.6 0 9-.9 13-2.5"/><path fill="#f8973a" d="M118.5 255.5a380 380 0 0 0-3 19 509 509 0 0 0-2 27c-.8 1.6-2 3-3.5 4-1.2-5.9-.4-11.4 2.5-16.5a11.7 11.7 0 0 0-3-6.5l-1 2 2 4-1 2a409 409 0 0 1-8.5 4q-5.55-7.2-1.5-15c-.8-.9-1.8-1.2-3-1-.2-1.6.1-3.1 1-4.5q-3-5.7-9-7.5c-2.6-5-6.2-6.3-11-4v-2c2.4-.8 2.4-2 0-3.5l-6-1c-.6-.4-.9-.9-1-1.5a99 99 0 0 1 11.5-20 112 112 0 0 0 8.5-7 9.9 9.9 0 0 0 6-1c.8-1.8 2.1-2.8 4-3 4 2.3 4.7 5.5 2 9.5 1.1.8 1.8 2 2 3.5-1.9 7.1-.6 13.4 4 19a46.4 46.4 0 0 0-4 6.5c.5 1.8 1.3 2 2.5.5 1.3 2.1 1.8 4.3 1.5 6.5-1.3.7-2.5.5-3.5-.5-.3 1.8-1 2.1-2 1-.4 2 .4 3 2.5 3.5l-1 1c1.8 2.1 3.3 2 4.5-.5l6-16a18.5 18.5 0 0 1 3.5-2"/><path fill="#4f2d1b" d="M79.5 233.5c0 .7-.3 1-1 1-3.8-.1-7 1-10 3.5-.9 2.3-2.2 4.1-4 5.5v-2c-.3-2 0-3.6 1-5a27.4 27.4 0 0 1 14-3"/><path fill="#e9d3bd" d="M354.5 232.5c.8 1 1.8 1.8 3 2.5-.8.7-1 1.5-1 2.5-1.7-1.1-2.4-2.8-2-5" opacity=".816"/><path fill="#6c2e0c" d="M119.5 210.5h4c1.3 0 2 .7 2 2-13 2.1-24.7 7.1-35 15a112 112 0 0 1-8.5 7 99 99 0 0 0-11.5 20h-2a3 3 0 0 1-2-2q6.75-8.25 12-18c.7 0 1-.3 1-1a6.5 6.5 0 0 0 3-3 3 3 0 0 0 2-2c1 .2 1.7-.2 2-1a483 483 0 0 0 7-6c7-4.2 14.7-7 23-8.5 1.4-.4 2.4-1.2 3-2.5"/><path fill="#5e4d46" d="M322.5 228.5a369 369 0 0 1-10 23v-2a83.6 83.6 0 0 1 8-19 3 3 0 0 1 2-2"/><path fill="#ee8f39" d="M355.5 248.5q1.05 3.15 0 6c-3.6-3-7.6-3.7-12-2a5.7 5.7 0 0 0-3-1c-1-1-2.4-1.3-4-1a17.9 17.9 0 0 0-4 6c-.6.1-1.1.4-1.5 1-2.2-11.8-1.8-23.5 1-35l-2 2-2.5 13c-.8 3.5-1.3 7.1-1.5 11a21.3 21.3 0 0 1-1.5-9 82 82 0 0 0 2-10v-1c1.3-1.3 2.1-3 2.5-5 1-1.4 2.3-2 4-2 4.9.9 9.4 2.7 13.5 5.5 4.6 6.5 7.6 13.7 9 21.5"/><path fill="#f68f33" d="M336.5 250.5c-1.3.2-2.5-.2-3.5-1l-1 3c-1.8-7.7-1.7-15.3.5-23 1.4 1.1 2.7 1.1 4 0-1.5-1.3-2.2-3-2-5a13 13 0 0 1 5 .5 679 679 0 0 1 7 4.5 32 32 0 0 0-4 2.5 14.5 14.5 0 0 1 4.5 4.5l1-1c.8 2 .6 4-.5 6-3.6-1.3-4-.7-1 2a4.8 4.8 0 0 1-4 1c.1 3.4-1 3.8-3.5 1a19.2 19.2 0 0 0-2.5 5"/><path fill="#6d94ba" d="M326.5 228.5v1c-3 6.6-5.2 13.6-6.5 21-.4.6-.9.9-1.5 1a14.7 14.7 0 0 0-3.5 3 143 143 0 0 1-6 15 7 7 0 0 1-3.5 2.5c1.4 2.8.7 3.6-2 2.5a8.4 8.4 0 0 1 .5-4 26.6 26.6 0 0 0 5.5-11 29 29 0 0 1 3-8 369 369 0 0 0 10-23c.7-.8 1.5-1.4 2.5-2 1 .3 1.5 1 1.5 2"/><path fill="#83573b" d="M78.5 234.5q-5.25 9.75-12 18l-2-1v-8c1.8-1.4 3.1-3.2 4-5.5 3-2.4 6.3-3.6 10-3.5"/><path fill="#e2ceb8" d="M64.5 241.5v10h-5v-3a18.5 18.5 0 0 1 3.5 2q.3-4.8 1.5-9" class="E"/><path fill="#fbf1d6" d="M356.5 237.5q1.65 4.5 4.5 9c3.7 1.2 6.2 3.5 7.5 7a15.7 15.7 0 0 0-8-5 6.5 6.5 0 0 0-3-3c0-.7-.3-1-1-1z" opacity=".878"/><path fill="#e4d8c3" d="M59.5 248.5h-3a3 3 0 0 0-2 2h-2c1.8-3 4.1-3.6 7-2"/><path fill="#b36a2d" d="M327.5 237.5v16c-1-2-2.7-3.4-5-4a193 193 0 0 1 2-10 21.3 21.3 0 0 0 1.5 9c.2-3.9.7-7.5 1.5-11"/><path fill="#edd9c3" d="M52.5 250.5c0 1.3-.7 2-2 2h-5c.3-.8.8-1.5 1.5-2 1.8 1.3 3.7 1.3 5.5 0"/><path fill="#d77e34" d="M135.5 246.5c-9.4 5-14.6 13-15.5 24a72.3 72.3 0 0 0-1.5 16 5 5 0 0 1 3 .5q-4.35 9.45-6 19.5a54 54 0 0 1-2.5 8 40.5 40.5 0 0 1 .5-13 509 509 0 0 1 2-27c-.2 5.7 0 11.3.5 17a372 372 0 0 1 4-32c1.3-6 4.1-11 8.5-15l7-2z"/><path fill="#6f3811" d="M312.5 249.5v2a29 29 0 0 0-3 8l-2 1c1.1-4 2.8-7.7 5-11"/><path fill="#8d4d14" d="M356.5 244.5c.7 0 1 .3 1 1-.4 6.4 1.6 11.7 6 16l-.5 1c-3.1-3-6.6-5.3-10.5-7-2-2-4.4-2.4-7-1l-2-2c4.4-1.7 8.4-1 12 2q1.05-2.85 0-6c1-1 1.3-2.4 1-4"/><path fill="#925b30" d="M52.5 250.5h2a15.9 15.9 0 0 0 1 6.5 3.4 3.4 0 0 1-1.5 2.5c-1.9-2-3-4.4-3.5-7 1.3 0 2-.7 2-2"/><path fill="#945d2c" d="M56.5 248.5h3v3c.3 1.8-.4 3.2-2 4a42 42 0 0 0-1-7"/><path fill="#e2a03b" d="M320.5 230.5a83.6 83.6 0 0 0-8 19c-2.2 3.3-3.9 7-5 11a59.6 59.6 0 0 1-5 9 24.3 24.3 0 0 1-5.5-3l-11.5.5c1.1 1.1.8 2-1 2.5a29 29 0 0 0-4-1.5l-36-2a51.7 51.7 0 0 1-11-3.5c-2 1.5-3.6 1.1-5-1a49.4 49.4 0 0 1-12 1.5q3.9-1.2 0-1.5c-4.3 1.5-8.3.8-12-2-4.4 1.5-8.5 1.2-12.5-1l-1.5.5a85 85 0 0 1 8 7.5l-1 2c-9.2-10.4-20.2-18-33-23 2.6-.4 4.7.3 6.5 2 .3-1 .8-1.6 1.5-2 25.1 11 51.5 14.8 79 11.5 21.2-3.3 41.2-10.2 60-20.5a66.4 66.4 0 0 1 9-6"/><path fill="#9a460d" d="M332.5 256.5v4l-2 3c.2-1.3-.1-2.3-1-3a54 54 0 0 0-2-7v-16l2.5-13 2-2c-2.8 11.5-3.2 23.2-1 35 .4-.6.9-.9 1.5-1"/><path fill="#69340c" d="M336.5 250.5c1.6-.3 3 0 4 1a5.7 5.7 0 0 1 3 1l2 2c-.5 9.6-4.9 11.6-13 6v-4a17.9 17.9 0 0 1 4-6"/><path fill="#793606" d="M309.5 234.5a3 3 0 0 1 2 2c-18.8 10.3-38.8 17.2-60 20.5-27.5 3.3-53.9-.5-79-11.5l-1-2c25.4 10.7 51.7 14.3 79 11 21-2.7 40.7-9.3 59-20"/><path fill="#957055" d="M340.5 251.5c5.2 7 3.5 10.1-5 9.5-1.9-5.1-.2-8.3 5-9.5"/><path fill="#904711" d="M68.5 254.5h2c.1.6.4 1.1 1 1.5l6 1c2.4 1.6 2.4 2.7 0 3.5-2.7-2.7-5.2-2.4-7.5 1a4.5 4.5 0 0 1-1.5-2c1.3-1.7 1.3-3.4 0-5"/><path fill="#95430a" d="M132.5 239.5a5 5 0 0 1 3 .5c-2.7 1-5 2.5-7 4.5-4.4 4-7.2 9-8.5 15a372 372 0 0 0-4 32 145 145 0 0 1-.5-17 380 380 0 0 1 3-19c2.9-6.9 7.5-12.2 14-16"/><path fill="#edddca" d="M45.5 252.5c-.8 1.5-1.1 3.2-1 5a3 3 0 0 0-2 2c-1.5 0-2.5.6-3 2v4c-1.1-1.8-1.3-3.8-.5-6 3.1-1.7 5.3-4 6.5-7"/><path fill="#edb861" d="M56.5 248.5a42 42 0 0 1 1 7c1.6-.8 2.3-2.2 2-4h2a52 52 0 0 1-3 9h3l1-9h2l2 1a3 3 0 0 0 2 2c1.3 1.6 1.3 3.3 0 5a4.5 4.5 0 0 0 1.5 2c2.3-3.4 4.8-3.7 7.5-1v2c.8 2.3 2.3 2.6 4.5 1 1.7.1 1.9.6.5 1.5a8.4 8.4 0 0 0 4 .5c0 1.5.3 2.8 1 4v1c-2.4-1.2-4.7-1.5-7-1a11.2 11.2 0 0 0 7 2c.7.9 1.7 1.2 3 1v3c-1.3-.2-2.3.1-3 1-.8.7-1.4 1.5-2 2.5-.7.7-1.3.7-2 0a64 64 0 0 0-1-5.5 12.4 12.4 0 0 0-2.5 4 78 78 0 0 1-.5 8l3 6c-1.2 1.1-2.6 1.3-4 .5a9 9 0 0 1-2-6.5c-2.8-2.9-2.1-5 2-6.5-.6-1.7-.6-3.5 0-5.5-4.7-1-4.7-2.8 0-5.5a91 91 0 0 1-10-2.5c-.2 2.5.8 4.3 3 5.5-9.7 2-10.4 5.3-2 10-.9 3.1-2.5 4-5 2.5v-3h-5c0-1.8-.8-2.8-2.5-3-2.4.9-3.9 2.6-4.5 5h-2c1.1-4 1.1-7.6 0-11h-2v-3c3.7-3.1 3-3.8-2.5-2l-2.5-1a10.3 10.3 0 0 1 4-1.5c-2.3-2-4.5-1.8-6.5.5q-.3-1.8-1.5-3c.5-1.4 1.5-2 3-2a72 72 0 0 1 5.5 2c.2-2.3-1-3.7-3.5-4-.1-1.8.2-3.5 1-5h5c.5 2.6 1.6 5 3.5 7a3.4 3.4 0 0 0 1.5-2.5 15.9 15.9 0 0 1-1-6.5 3 3 0 0 1 2-2"/><path fill="#faebd2" d="M368.5 253.5c3 1.8 5 4.4 6 8a35.2 35.2 0 0 1-6-8" class="G"/><path fill="#844322" d="M44.5 257.5c2.5.3 3.7 1.7 3.5 4a72 72 0 0 0-5.5-2 3 3 0 0 1 2-2"/><path fill="#854410" d="M61.5 251.5h1a105 105 0 0 0-1 9h-3a52 52 0 0 0 3-9"/><path fill="#efb94f" d="M322.5 249.5c2.3.6 4 2 5 4a54 54 0 0 1 2 7c0 3-.8 5.6-2.5 8a129 129 0 0 0-.5 16c-.6.1-1.1.4-1.5 1l-5.5-7a29 29 0 0 0-8-3 223 223 0 0 0 11-26"/><path fill="#8b5116" d="M54.5 261.5c3.3.9 3.6 2.2 1 4a4.8 4.8 0 0 1-1-4"/><path fill="#a27241" d="M39.5 261.5q1.2 1.2 1.5 3c2-2.3 4.2-2.5 6.5-.5a10.3 10.3 0 0 0-4 1.5l2.5 1c5.4-1.8 6.2-1.1 2.5 2-1.9-.8-3.9-1.2-6-1-1.5 0-2.5-.6-3-2z"/><path fill="#fbca59" d="M357.5 245.5a6.5 6.5 0 0 1 3 3v4c3.5 1 6.3 3 8.5 6 6.9 10.2 11.4 21.4 13.5 33.5-.3 10.5-3.6 19.8-10 28-13.7 4-24.7.2-33-11.5-.2-1.3.2-2.5 1-3.5a32.5 32.5 0 0 1 8-.5c.3-2.2 0-4.2-1-6a18.7 18.7 0 0 0-3-7c-.4-1.3-1-2.4-2-3.5q5.7-9 0-18c2.1-2.8 3.3-6 3.5-9.5 1.2 2.5 2.7 2.7 4.5.5-2.2-1.2-3.2-3-3-5.5h5c3.9 1.7 7.4 4 10.5 7l.5-1c-4.4-4.3-6.4-9.6-6-16"/><use x="31" y="145" fill="#f1d8c1" href="#F"/><path fill="#984b14" d="M88.5 266.5c.2 1.3-.1 2.3-1 3-.7-1.2-1-2.5-1-4a8.4 8.4 0 0 1-4-.5c1.4-.9 1.2-1.4-.5-1.5-2.2 1.6-3.7 1.3-4.5-1 4.8-2.3 8.4-1 11 4"/><path fill="#f2d694" d="M42.5 267.5c2.1-.2 4.1.2 6 1v3c-2 1.3-4 1.6-6 1 3.9-1.5 3.5-2.2-1-2a5.7 5.7 0 0 0 1-3"/><path fill="#8e5013" d="M50.5 271.5v-3q5.7 1.05 0 3"/><path fill="#ecb143" d="M302.5 269.5c.2 1-.2 1.7-1 2a685 685 0 0 0-26 2l-9 1c-23.1.7-45.8-2-68-8a85 85 0 0 0-8-7.5l1.5-.5c4 2.2 8.1 2.5 12.5 1 3.7 2.8 7.7 3.5 12 2q3.9.3 0 1.5a49.4 49.4 0 0 0 12-1.5c1.4 2.1 3 2.5 5 1a51.7 51.7 0 0 0 11 3.5l36 2a29 29 0 0 1 4 1.5c1.8-.5 2.1-1.4 1-2.5l11.5-.5a24.3 24.3 0 0 0 5.5 3"/><path fill="#94531b" d="M63.5 260.5a2.4 2.4 0 0 1 2 .5c-2.8 2-2.5 3.5 1 4.5a35 35 0 0 0-6 8 26 26 0 0 0-4-4.5l1-1.5a9.1 9.1 0 0 0 5 1 13 13 0 0 0-1-5.5c.6-1 1.2-1.8 2-2.5"/><path fill="#aa6628" d="M76.5 285.5h-2c-5.5-2.4-8.1-.6-8 5.5.4 4.4 1.4 4.5 3 .5v4c-1.8.1-3.5-.2-5-1a18.4 18.4 0 0 0-.5-6c-1.4-1-3-1-4.5 0-.6-3.1.4-5.4 3-7a31 31 0 0 0 2 2c2.5 1.4 4.1.6 5-2.5-8.4-4.7-7.7-8 2-10-2.2-1.2-3.2-3-3-5.5a91 91 0 0 0 10 2.5c-4.7 2.7-4.7 4.6 0 5.5-.6 2-.6 3.8 0 5.5-4.1 1.4-4.8 3.6-2 6.5"/><path fill="#8f4909" d="M87.5 270.5c2.6-.5 4.6.2 6 2a19.2 19.2 0 0 0-6-1 11.2 11.2 0 0 1-7-2c2.3-.5 4.6-.2 7 1"/><path fill="#fcca59" d="M198.5 266.5c22.2 6 44.9 8.7 68 8a82 82 0 0 1-9 3.5c-2.1 3.4-5.1 5.7-9 7a192 192 0 0 1-12 11.5h-3a434 434 0 0 0-11 21.5c-1.8 1-3.4 1.2-5 .5-1.4-2.6-2.4-5.3-3-8-1.5-1-2.5-2.3-3-4-1.3-14-6-26.6-14-38z"/><path fill="#f1dac7" d="M376.5 264.5c2.1 2.6 3.5 5.6 4 9-2.1-2.6-3.5-5.6-4-9"/><path fill="#c37c35" d="M87.5 271.5a19.2 19.2 0 0 1 6 1c.8.3 1.2 1 1 2q-1.95-.9-3 0c1.9.7 2.2 1.7 1 3a7.2 7.2 0 0 0 2 2.5c-1.6.5-3.3.7-5 .5-.2-1.3.2-2.5 1-3.5a5 5 0 0 0-3-.5c.7-.9 1.7-1.2 3-1v-3c-1.3.2-2.3-.1-3-1"/><path fill="#f4e3b1" d="M301.5 271.5a438 438 0 0 1-42.5 67l-8.5 15c-.7 1.3-1.3 1.3-2 0a66 66 0 0 1-1.5-10c-1-2.2-2.5-3.8-4.5-5-.5-1.4-1.5-2-3-2a18.5 18.5 0 0 0-2-3.5c3-.6 5.8 0 8.5 1.5l2.5-1c-1-1.7-2.3-3-4-4 2.3.3 4.6.3 7 0l1-2c-1.7-2-2.3-4.4-2-7q-3.75 0-6-3a16.9 16.9 0 0 0-8-1l1-6c2.6.2 4.3-1 5-3.5-2.9-.6-4.7-2-5.5-4.5a223 223 0 0 1 11.5-13 563 563 0 0 1 13-11.5 107 107 0 0 0 14-4.5 685 685 0 0 1 26-2"/><use x="37" y="157" fill="#f3ddc6" href="#F"/><path fill="#be9978" d="M41.5 270.5a8.4 8.4 0 0 0 .5 4c2 .6 3.8 1.4 5.5 2.5a9 9 0 0 0-2 6.5c-1-1.8-1.3-3.8-1-6q-5.55-.45-4.5-6c.4-.6.9-.9 1.5-1"/><path fill="#f1b95e" d="M72.5 274.5q3 0 3 3c-.9 2.4-2.5 3.3-5 2.5a72 72 0 0 0 2-5.5"/><path fill="#e68d38" d="M88.5 266.5q6 1.8 9 7.5c-.9 1.4-1.2 2.9-1 4.5 1.2-.2 2.2.1 3 1q-4.05 7.8 1.5 15a409 409 0 0 0 8.5-4l1-2-2-4 1-2a11.7 11.7 0 0 1 3 6.5c-2.9 5.1-3.7 10.6-2.5 16.5 1.6-1 2.7-2.4 3.5-4a40.5 40.5 0 0 0-.5 13 54 54 0 0 0 2.5-8 86.7 86.7 0 0 1-1 18h-2c.3-3.2 0-6.2-1-9a9.8 9.8 0 0 0-4-3 67.2 67.2 0 0 0 .5-17c-1.4-1-2.9-1.2-4.5-.5a12.1 12.1 0 0 1-4.5 3.5c-1-3-2-6-2.5-9v-1c-.2-4.9-.9-9.5-2-14 .2-1-.2-1.7-1-2-1.4-1.8-3.4-2.5-6-2v-1c.9-.7 1.2-1.7 1-3"/><path fill="#9e5820" d="M59.5 280.5a28 28 0 0 1-5 5c-.3-1.3-1-2.3-2-3 .6-2.4 2.1-4.1 4.5-5 1.8.2 2.6 1.2 2.5 3"/><path fill="#f6d587" d="M311.5 275.5c2.8.6 5.5 1.6 8 3l5.5 7c.4-.6.9-.9 1.5-1a20.7 20.7 0 0 1 1 5c-.6.1-1.1.4-1.5 1a204 204 0 0 0-6.5-9.5c-3.6 0-6.6-1.2-9-3.5-.2-1 .2-1.7 1-2"/><path fill="#b47e3d" d="M41.5 270.5c4.5-.2 4.9.5 1 2 2 .6 4 .3 6-1h2c1.1 3.4 1.1 7 0 11-1.5.8-3.2 1.1-5 1a9 9 0 0 1 2-6.5 24.4 24.4 0 0 0-5.5-2.5 8.4 8.4 0 0 1-.5-4"/><path fill="#5b3c2f" d="M326.5 229.5a82 82 0 0 1-2 10 193 193 0 0 0-2 10 223 223 0 0 1-11 26c-.8.3-1.2 1-1 2a564 564 0 0 1-17 27 72 72 0 0 1-7 9v-2a27291 27291 0 0 0 21.5-35 106.3 106.3 0 0 0 10.5-25c.6-.1 1.1-.4 1.5-1 1.3-7.4 3.5-14.4 6.5-21"/><path fill="#955b26" d="M87.5 276.5a5 5 0 0 1 3 .5c-.8 1-1.2 2.2-1 3.5 1.7.2 3.4 0 5-.5a7.2 7.2 0 0 1-2-2.5c1.2-1.3.9-2.3-1-3q1.05-.9 3 0c1.1 4.5 1.8 9.1 2 14q-2.1-1.65-3-4.5c-2.1-1.6-4.5-2.3-7-2-1.3 1.8-1.3 3.6 0 5.5 3.2-1.2 5.8-.5 8 2h-1c-2.2-1-4.2-.6-6 1-.9.8-1.6 1.8-2 3-1 1-1.3 2.4-1 4-.9-1.1-1.7-1.1-2.5 0-.3-2.1-1.2-2.5-2.5-1l-2-1c-2.6-2.8-5-2.4-7 1-1.3.7-1.3 1.5 0 2.5-1.4.4-2.7 1-4 1.5.2-1-.2-1.7-1-2-.7-1.2-1-2.5-1-4 1.5.8 3.2 1.1 5 1v-4l5-6h2a9 9 0 0 0 2 6.5c1.4.8 2.8.6 4-.5a293 293 0 0 1-3-6c.3-2.5.5-5.2.5-8a12.4 12.4 0 0 1 2.5-4 64 64 0 0 1 1 5.5c.7.7 1.3.7 2 0 .6-1 1.2-1.8 2-2.5"/><path fill="#cdac82" d="M50.5 282.5h2c1 .7 1.7 1.7 2 3 .7 2.8.4 5.4-1 8-.1-5.4-2.8-8.8-8-10 1.8.1 3.5-.2 5-1"/><path fill="#efc37b" d="M96.5 288.5v4c-.9-.8-1.6-1.8-2-3-2.2-2.5-4.8-3.2-8-2-1.3-1.9-1.3-3.7 0-5.5 2.5-.3 4.8.4 7 2q.9 2.85 3 4.5"/><path fill="#e9a854" d="m74.5 285.5-5 6c-1.6 4-2.6 3.9-3-.5-.1-6 2.5-7.9 8-5.5"/><path fill="#f2dabc" d="M382.5 276.5c1.7 2.7 2.8 5.7 3.5 9a80.2 80.2 0 0 1-1.5 26h-3a53.9 53.9 0 0 0 4-18 79 79 0 0 0-3-17"/><path fill="#f8d987" d="M275.5 273.5a107 107 0 0 1-14 4.5 563 563 0 0 0-13 11.5 5 5 0 0 0-3 .5 967 967 0 0 0-11 10.5c.2-1.6.9-2.9 2-4a192 192 0 0 0 12-11.5c3.9-1.3 6.9-3.6 9-7a82 82 0 0 0 9-3.5c3-.2 6-.5 9-1"/><path fill="#a89482" d="M93.5 289.5c.2 3.3-.5 6.3-2 9a2.4 2.4 0 0 1-2-.5 20.5 20.5 0 0 1 3-5.5c-1.4-1.4-3-2.1-5-2 1.8-1.6 3.8-2 6-1"/><path fill="#f5c463" d="M352.5 255.5h-5c-.2 2.5.8 4.3 3 5.5-1.8 2.2-3.3 2-4.5-.5-.2 3.6-1.4 6.7-3.5 9.5q5.7 9 0 18c1 1 1.6 2.2 2 3.5q-12.6-3.15-7.5 9c2.2 2.8 5 3.6 8.5 2.5 1.5-1.1 2.2-2.6 2-4.5 1 1.8 1.3 3.8 1 6a32.5 32.5 0 0 0-8 .5c-.8 1-1.2 2.2-1 3.5-5.5-7-8.8-15-10-24-.3-2.6 0-4.9 1-7 .3 7.2 4 10 11 8.5 3.7-4 3.8-8 .5-12.5-5.3-5.9-9.1-5.2-11.5 2-1-1-1.3-2.4-1-4l1-8 2-3c8.1 5.6 12.5 3.6 13-6 2.6-1.4 5-1 7 1"/><path fill="#533a2f" d="M309.5 259.5a26.6 26.6 0 0 1-5.5 11 8.4 8.4 0 0 0-.5 4 567 567 0 0 1-29 47c-9.5 11.2-17.5 23.6-24 37a5.7 5.7 0 0 1-3-1c-.3-2.5-1-4.8-2.5-7a208 208 0 0 0-11.5-7 86 86 0 0 1-9-4c2.8.2 5.4-.1 8-1a367 367 0 0 1 11.5 9c.5-3.7-.7-6.7-3.5-9h2c2 1.2 3.5 2.8 4.5 5a66 66 0 0 0 1.5 10c.7 1.3 1.3 1.3 2 0l8.5-15a438 438 0 0 0 42.5-67c.8-.3 1.2-1 1-2a59.6 59.6 0 0 0 5-9z"/><path fill="#f9f2eb" d="M87.5 290.5c2-.1 3.6.6 5 2a20.5 20.5 0 0 0-3 5.5 2.4 2.4 0 0 0 2 .5c-1.3 2-3 2.4-5 1 2.7-1.9 2.4-2.9-1-3v-3c.4-1.2 1.1-2.2 2-3"/><path fill="#e39e39" d="M141.5 308.5a11 11 0 0 0-2.5-1c-12.5 5.4-19 15-19.5 29-3.3-11-3.8-22.4-1.5-34 .8-5.4 2.6-10.4 5.5-15 1.5-1.4 3.4-2.1 5.5-2 9.7 1.7 18 6 25 13 .7 1.3.5 2.5-.5 3.5a106 106 0 0 1-12 6.5"/><path fill="#f3e6b7" d="M310.5 277.5c2.4 2.3 5.4 3.5 9 3.5a204 204 0 0 1 6.5 9.5c.4-.6.9-.9 1.5-1 2.2 9.8 6.6 18.5 13 26 .6 6.1 4 10 10 11.5a62.7 62.7 0 0 1 7 8 5 5 0 0 0 3 .5 133 133 0 0 1 7 10 202 202 0 0 1 2 28h-4a214 214 0 0 1-4 20 29 29 0 0 1 1.5 4 15.4 15.4 0 0 0 3-6 109 109 0 0 1-1.5 20c-2 1.9-3 4.2-3 7q-6.3 2.1-6 9h-3v3c-2.1-.2-3.8-1.2-5-3a3.6 3.6 0 0 0-1.5 1 37.8 37.8 0 0 0 2.5 8h-3v-4a22.6 22.6 0 0 1-8-2 10.4 10.4 0 0 0-5 1.5 4.5 4.5 0 0 1 2 1.5l-6 1c-8-1-15.9-1-23.5 0a50.5 50.5 0 0 1-.5-10h-6c-.2-2.5.5-4.6 2-6.5-1.1-1-1.6-2.2-1.5-3.5a37 37 0 0 0 4.5 2c1.7 4.6 5 7 10 7.5.9 1.4 1.2 2.9 1 4.5a5 5 0 0 0-3 .5 20.7 20.7 0 0 0 7 1.5q6.45-2.55 12-6v-10h-16v-22h10c-.9-1.1-1.6-2.6-2-4.5a112 112 0 0 0 2-27.5h-3a15.9 15.9 0 0 0 1 6.5 40.7 40.7 0 0 0-3 9.5c-1.4-6.5-1-12.8 1-19-1.8.3-3.2-.4-4-2 1.3-3.7 1.3-7.3 0-11-1.3 13.3-2 13.3-2 0h-8c0-1.6.6-3 2-4-.8-1.2-1.6-1.2-2.5 0a89 89 0 0 1-3.5-7 69 69 0 0 0-9-6 20 20 0 0 1 3.5-4c.7-.7.7-1.3 0-2-2 .4-4.2.4-6.5 0 .2-3.6 1.8-6 5-7.5-1.3-.7-1.3-1.3 0-2a5 5 0 0 0-3-.5 52 52 0 0 0 1-7 564 564 0 0 0 17-27"/><path fill="#f18e35" d="M59.5 288.5c1.6-1 3-1 4.5 0 .5 2 .7 4 .5 6 0 1.5.3 2.8 1 4-.3 1.1-1.1 1.8-2.5 2-2.2-.8-4.2-1.2-6-1a49.2 49.2 0 0 0 0-14 81 81 0 0 0 2.5 3"/><path fill="#f5e5ca" d="M77.5 295.5c-.7 2.3-2 2.6-4 1q-1.5 6-3 0c2-3.4 4.4-3.8 7-1"/><path fill="#fcca58" d="M168.5 288.5a161 161 0 0 1 21 1c6.6 2 11 6.3 13 13 4.2 10.4 4 20.7-.5 31a20.7 20.7 0 0 1-3.5 4c-.8 1.8-2.1 2.8-4 3-4.7-1.3-9.5-1.3-14.5 0-2.7 1.6-3.8 3.9-3.5 7a29.2 29.2 0 0 0-1 9c-10.4 7.2-21.8 8.9-34 5-11.5-4.5-18.9-12.9-22-25 .5-14 7-23.6 19.5-29 .9.2 1.7.6 2.5 1 10.4-.9 17.5-6.2 21.5-16a55 55 0 0 1 5.5-4"/><path fill="#d4c2b2" d="M93.5 289.5h1c.4 1.2 1.1 2.2 2 3 .4 3-.3 5.7-2 8-1.5 2.9-3.9 4.5-7 5-1.9-2.2-2.9-4.9-3-8-.3-1.6 0-3 1-4v3c3.4.1 3.7 1.1 1 3 2 1.4 3.7 1 5-1 1.5-2.7 2.2-5.7 2-9"/><path fill="#e3d784" d="M106.5 296.5a18.3 18.3 0 0 1-4 6c-.7.4-1.2 1-1.5 2a8.4 8.4 0 0 1-.5-4 32.6 32.6 0 0 0 4-4.5c1-.7 1.6-.5 2 .5"/><path fill="#d27937" d="M59.5 280.5h5v3a31 31 0 0 1-2-2c-2.6 1.6-3.6 3.9-3 7a81 81 0 0 1-2.5-3 49.2 49.2 0 0 1 0 14c1.8-.2 3.8.2 6 1 1.4-.2 2.2-.9 2.5-2 .8.3 1.2 1 1 2v1a18.5 18.5 0 0 0-6 .5c-.8 1-1.2 2.2-1 3.5-1 1-1.3 2.4-1 4-1.4-.4-2.3-1.4-2.5-3-.3 1-.8 1.6-1.5 2a456 456 0 0 0-1-15c1.4-2.6 1.7-5.2 1-8a28 28 0 0 0 5-5"/><path fill="#ae977a" d="m77.5 295.5 2 1v2a24 24 0 0 0-2.5 6c-.2-2.3-1-4.3-2.5-6-1 .4-1 1.1 0 2-.8.9-1.8 1.2-3 1v4c-.7 2.2-1.6 1.9-2.5-1-1.5 1.4-1.3 3 .5 4.5q-7.5-1.35-3-7.5v-1c1.3-.6 2.6-1 4-1.5-1.3-1-1.3-1.8 0-2.5q1.5 6 3 0c2 1.6 3.3 1.3 4-1"/><path fill="#7f4013" d="M188.5 284.5c6.4-1.2 11.8.5 16 5 .6 3.3.9 6.6 1 10a27.1 27.1 0 0 0 2 10v5c-.6 3.8.1 7.2 2 10l-1 2a96 96 0 0 1-5 9c.1.6.5 1 1 1l-2 3c-1.1 1.1-2.4 1.8-4 2 .9-1.5.9-2.9 0-4a20.7 20.7 0 0 0 3.5-4c4.5-10.3 4.7-20.6.5-31 2-2.5 2.2-5.2 1-8-.5-5.5-3.5-8.2-9-8z"/><path fill="#e5dacd" d="M79.5 298.5c1 0 1.8.2 2.5 1l1.5 4.5a27 27 0 0 0-3 6.5c-3.3.7-5.3-.7-6-4a5.6 5.6 0 0 0-3-1v-4c1.2.2 2.2-.1 3-1-1-.9-1-1.6 0-2 1.4 1.7 2.3 3.7 2.5 6a24 24 0 0 1 2.5-6"/><path fill="#8e591f" d="M96.5 289.5c.6 3 1.4 6 2.5 9a12.1 12.1 0 0 0 4.5-3.5c1.6-.7 3.1-.6 4.5.5a67.2 67.2 0 0 1-.5 17c-1.5 0-2.5-.6-3-2 1.2-1.7 2-3.7 2-6 1.3-2.7 1.3-5.3 0-8-.4-1-1-1.2-2-.5a32.6 32.6 0 0 1-4 4.5 5.7 5.7 0 0 1-3 1c-.7-.9-1.7-1.2-3-1 1.7-2.3 2.4-5 2-8z"/><path fill="#f6e3a9" d="M248.5 289.5a223 223 0 0 0-11.5 13c.8 2.4 2.6 4 5.5 4.5-.7 2.6-2.4 3.7-5 3.5l-1 6a16.9 16.9 0 0 1 8 1q2.25 3 6 3c-.3 2.6.3 5 2 7l-1 2a31.7 31.7 0 0 1-7 0c1.7 1 3 2.3 4 4l-2.5 1c-2.7-1.6-5.5-2-8.5-1.5a18.5 18.5 0 0 1 2 3.5 29.4 29.4 0 0 0-12 2c-1 0-1.6-.4-2-1 .4-.7.6-1.7.5-3a9.5 9.5 0 0 1 2.5-1.5c-1.2-1-1.8-2.3-2-4 2.2-5.2 3.6-10.7 4-16.5a45.6 45.6 0 0 0 4-12 967 967 0 0 1 11-10.5 5 5 0 0 1 3-.5"/><path fill="#e7d38e" d="M106.5 304.5c-.1 2.3-.8 4.3-2 6-1.2.2-2.2-.1-3-1a17.9 17.9 0 0 1 5-5"/><path fill="#82692e" d="M106.5 296.5c1.3 2.7 1.3 5.3 0 8a17.9 17.9 0 0 0-5 5c.8.9 1.8 1.2 3 1 .5 1.4 1.5 2 3 2a9.8 9.8 0 0 1 4 3c-.7 0-1 .3-1 1a99 99 0 0 1-17-3c-1.6-2.3-3.8-4-6.5-5-.5-1-.3-2 .5-3 3.1-.5 5.5-2.1 7-5 1.3-.2 2.3.1 3 1-.8 1.9-1.2 3.9-1 6a32 32 0 0 0 7-3 44 44 0 0 1-1-2 18.3 18.3 0 0 0 4-6"/><path fill="#9f8d46" d="M100.5 300.5a8.4 8.4 0 0 0 .5 4c.3-1 .8-1.6 1.5-2l1 2a32 32 0 0 1-7 3c-.2-2.1.2-4.1 1-6a5.7 5.7 0 0 0 3-1"/><path fill="#cba683" d="M53.5 293.5c.4 5 .8 10 1 15-.9.8-1.6 1.8-2 3h-1a272 272 0 0 1 2-18"/><path fill="#6a4221" d="M66.5 301.5q-4.5 6.15 3 7.5c-1.8-1.6-2-3-.5-4.5 1 2.9 1.8 3.2 2.5 1a5.6 5.6 0 0 1 3 1c.7 3.3 2.7 4.7 6 4a75.7 75.7 0 0 0 13 3 99 99 0 0 0 17 3c-4.5.8-9.1 1.3-14 1.5-.6 1-1.2 1.8-2 2.5.2-4-1.8-6.2-6-6.5a192 192 0 0 0-16-1c2 .5 3.4 1.7 4 3.5a25.7 25.7 0 0 0-11-4 53 53 0 0 1-6-7c-.2-1.3.2-2.5 1-3.5a18.5 18.5 0 0 1 6-.5"/><path fill="#6e492a" d="M84.5 297.5c.1 3.1 1.1 5.8 3 8-.8 1-1 2-.5 3 2.7 1 4.9 2.7 6.5 5a75.7 75.7 0 0 1-13-3 27 27 0 0 1 3-6.5l-1.5-4.5c-.7-.8-1.5-1-2.5-1v-2c1.3-1.5 2.2-1.1 2.5 1 .8-1.1 1.6-1.1 2.5 0"/><path fill="#a4c8d5" d="M318.5 251.5a106.3 106.3 0 0 1-10.5 25 27291 27291 0 0 1-21.5 35l-10 12c0-1.3-.7-2-2-2a567 567 0 0 0 29-47c2.7 1.1 3.4.3 2-2.5a7 7 0 0 0 3.5-2.5 143 143 0 0 0 6-15 14.7 14.7 0 0 1 3.5-3"/><path fill="#945117" d="M59.5 305.5a53 53 0 0 0 6 7c-1.5-.2-2.9-.9-4-2a93.7 93.7 0 0 0-5 30c-.7-1.8-1-3.8-1-6a426 426 0 0 1 3-25c-.3-1.6 0-3 1-4"/><path fill="#845b38" d="M94.5 320.5a58.8 58.8 0 0 1-18-4c-.6-1.8-2-3-4-3.5a192 192 0 0 1 16 1c4.2.3 6.2 2.4 6 6.5"/><path fill="#f1c783" d="M381.5 311.5c.3 2-.3 3.3-2 4 .2-1.7.8-3 2-4"/><path fill="#76482b" d="M211.5 306.5c.5 1.7 1.5 3 3 4 .6 5.5-1.1 10.2-5 14-1.9-2.8-2.6-6.2-2-10a87 87 0 0 1 4-8"/><path fill="#9c8a7d" d="M211.5 311.5c.7 1 1 2.1 1 3.5-2.6 8.5-3.5 8-2.5-1.5.7-.5 1.2-1.2 1.5-2"/><path fill="#7c4015" d="M360.5 248.5a15.7 15.7 0 0 1 8 5 35.2 35.2 0 0 0 6 8c0 1.5.6 2.5 2 3 .5 3.4 1.9 6.4 4 9 0 1.5.6 2.5 2 3a79 79 0 0 1 3 17 53.9 53.9 0 0 1-4 18c-1.2 1-1.8 2.3-2 4-.6.1-1.1.4-1.5 1-2 7.7-1.8 15.4.5 23-.2 3 .5 5.7 2 8a73.3 73.3 0 0 1 1 12 631 631 0 0 1-2 52 27.6 27.6 0 0 1-2 10c-.9 4-2.5 7.7-5 11-1.2 1-1.8 2.3-2 4 0 .7-.3 1-1 1l-5 8a3 3 0 0 1-2 2 3 3 0 0 0-2 2 12 12 0 0 1-3 4c-1.3 0-2 .7-2 2-2 4.4-3 9-3 14v1c-1 1-1.3 2.4-1 4a11.4 11.4 0 0 1-3 5 76.4 76.4 0 0 0 3-19v-3c1-1 1.3-2.4 1-4 19.4-20 28.4-44.2 27-72.5.3-12.5-1-24.7-4-36.5-.2-2.6-.9-4.9-2-7 0-1-.2-1.8-1-2.5a52 52 0 0 1-14-10 26 26 0 0 0-9-3.5 1327 1327 0 0 1-9-6c-6.4-7.5-10.8-16.2-13-26a20.7 20.7 0 0 0-1-5c-.2-5.3 0-10.7.5-16 1.7-2.4 2.6-5 2.5-8 .9.7 1.2 1.7 1 3l-1 8c-1.3 4.3-1.3 8.7 0 13 1.2 9 4.5 17 10 24 8.3 11.7 19.3 15.6 33 11.5 6.4-8.2 9.7-17.5 10-28-2.1-12.1-6.6-23.3-13.5-33.5-2.2-3-5-5-8.5-6z"/><path fill="#673814" d="M344.5 291.5a18.7 18.7 0 0 1 3 7c.2 1.9-.5 3.4-2 4.5-3.5 1.1-6.3.3-8.5-2.5q-5.1-12.15 7.5-9"/><path fill="#ab8058" d="M339.5 292.5q7.05 1.5 6 9-9.15-.6-6-9"/><path fill="#6b390f" d="M330.5 277.5v-2c2.4-7.2 6.2-7.9 11.5-2 3.3 4.4 3.2 8.6-.5 12.5-7 1.5-10.7-1.3-11-8.5"/><path fill="#9c7355" d="M333.5 271.5c7.3 1.2 9.6 5.4 7 12.5-2.6.8-5 .3-7-1.5-1.3-3.7-1.3-7.4 0-11"/><path fill="#ad712a" d="M329.5 271.5c-.3 1.6 0 3 1 4v2c-1 2.1-1.3 4.4-1 7-1.3-4.3-1.3-8.7 0-13"/><path fill="#fbc873" d="M65.5 312.5a27.2 27.2 0 0 1 5 3c-2.8.3-5.3-.4-7.5-2l-1.5 1c3.7 3 7.7 5.7 12 8a31.6 31.6 0 0 1 4 5.5 211 211 0 0 1-1.5 34.5c-.6 2.4-2 3.4-4.5 3v3a18.5 18.5 0 0 0-6 .5 4 4 0 0 0-1 2 15.8 15.8 0 0 1 4 8.5l-4-3a105 105 0 0 0-7-18 171 171 0 0 0-1-15v-3a93.7 93.7 0 0 1 5-30c1.1 1.1 2.5 1.8 4 2"/><path fill="#fbbb65" d="M70.5 315.5a117.4 117.4 0 0 0 26 8c-.7.9-1.7 1.2-3 1-.3 21.7 0 43.4 1 65a65.8 65.8 0 0 1-24-7.5c-.9-.7-1.5-1.5-2-2.5a15.8 15.8 0 0 0-4-8.5 4 4 0 0 1 1-2 18.5 18.5 0 0 1 6-.5v-3c2.4.4 4-.6 4.5-3a211 211 0 0 0 1.5-34.5 31.6 31.6 0 0 0-4-5.5 76 76 0 0 1-12-8l1.5-1c2.2 1.6 4.7 2.3 7.5 2"/><path fill="#73421a" d="M65.5 312.5a25.7 25.7 0 0 1 11 4 58.8 58.8 0 0 0 18 4c.8-.7 1.4-1.5 2-2.5 4.9-.2 9.5-.7 14-1.5 0-.7.3-1 1-1 1 2.8 1.3 5.8 1 9h-2a68.2 68.2 0 0 1-14-1 117.4 117.4 0 0 1-26-8 27.2 27.2 0 0 0-5-3"/><path fill="#facf65" d="M236.5 296.5c-1.1 1.1-1.8 2.4-2 4a45.6 45.6 0 0 1-4 12c-1.7 1.4-2.5 3.4-2.5 6-1 .8-2.2 1.2-3.5 1a61.3 61.3 0 0 1-1 13 29.4 29.4 0 0 1-7-2c-2.1-.8-4.5-1.3-7-1.5-.8-.7-1-1.5-1-2.5l1-2c3.9-3.8 5.6-8.5 5-14 .6 2.7 1.6 5.4 3 8 1.6.7 3.2.5 5-.5a434 434 0 0 1 11-21.5z"/><path fill="#f4e4b2" d="M293.5 304.5a52 52 0 0 1-1 7 5 5 0 0 1 3 .5c-1.3.7-1.3 1.3 0 2-3.2 1.4-4.8 4-5 7.5 2.3.4 4.5.4 6.5 0 .7.7.7 1.3 0 2a20 20 0 0 0-3.5 4 69 69 0 0 1 9 6 89 89 0 0 0 3.5 7c.9-1.2 1.7-1.2 2.5 0-1.4 1-2 2.4-2 4h8c0 13.3.7 13.3 2 0 1.3 3.7 1.3 7.3 0 11 .8 1.6 2.2 2.3 4 2-2 6.2-2.4 12.5-1 19a40.7 40.7 0 0 1 3-9.5 15.9 15.9 0 0 1-1-6.5h3a112 112 0 0 1-2 27.5c.4 1.9 1.1 3.4 2 4.5h-10v22h16v10q-5.55 3.45-12 6a20.7 20.7 0 0 1-7-1.5 5 5 0 0 1 3-.5c.2-1.6-.1-3.1-1-4.5-5-.4-8.3-3-10-7.5a37 37 0 0 1-4.5-2c-.1 1.3.4 2.4 1.5 3.5-1.5 1.9-2.2 4-2 6.5h6c-.2 3.4 0 6.7.5 10 7.6-1 15.5-1 23.5 0l6-1a4.5 4.5 0 0 0-2-1.5 10.4 10.4 0 0 1 5-1.5 22.6 22.6 0 0 0 8 2v4h3a37.8 37.8 0 0 1-2.5-8 3.6 3.6 0 0 1 1.5-1c1.2 1.8 2.9 2.8 5 3v-3h3q-.3-6.9 6-9c0-2.8 1-5.1 3-7a109 109 0 0 0 1.5-20 15.4 15.4 0 0 1-3 6 29 29 0 0 0-1.5-4 214 214 0 0 0 4-20h4a202 202 0 0 0-2-28 219 219 0 0 1 2.5 6c.5 13.3.7 26.7.5 40-1.4 1.7-2.3 3.7-2.5 6a111.7 111.7 0 0 1-2.5 21l-2 2c-1.7 1.4-2.5 3.4-2.5 6l-2-2c-1.4 4.4-3.8 7.4-7 9a18.5 18.5 0 0 0-.5 6c-1.3.2-2.5-.2-3.5-1a20.5 20.5 0 0 0-2.5 3.5 86 86 0 0 0-10 3c-1 2.3-2.7 4-5 5-5.1 2-10.3 2.6-15.5 1.5-2.8 2.6-6.1 4.3-10 5a141 141 0 0 0-14.5-3c17.3-1.6 17.3-3.3 0-5a10.3 10.3 0 0 1 4-1.5c-2.7-1.3-4-3.5-4-6.5 5 0 5.3-1.4 1-4a33 33 0 0 1-8.5-4c-1.8 2.1-4 2.4-6.5 1-1.5-1.3-2.2-3-2-5a10.1 10.1 0 0 0-6 1.5l3 2.5-4 4a14.8 14.8 0 0 0 4 3.5 20.4 20.4 0 0 0-5.5 1.5c-2.3-3.4-2-6.4 1-9 .7-1.7.7-3.3 0-5l-5-4q-.3 1.8-1.5 3a61 61 0 0 1 2-7.5c.1-2.9-1.2-4.4-4-4.5a249 249 0 0 0-3-28c2.8-.4 5.1-1.8 7-4q3.9-3.75 0-7.5c-1.4-1.4-3-2.3-5-2.5a45 45 0 0 0 1-10c1.3-1.3 1.3-2.7 0-4a492 492 0 0 1 28-45 72 72 0 0 0 7-9"/><path fill="#493c32" d="M286.5 311.5v2a492 492 0 0 0-28 45l-2 2v-2a301 301 0 0 1 20-35z"/><path fill="#c2a18c" d="M51.5 311.5a256 256 0 0 0-1 27c-2.8-9.3-2.5-18.3 1-27"/><path fill="#a76231" d="M51.5 311.5h1a160.6 160.6 0 0 0-.5 26 33 33 0 0 0 2.5 6h-1a12.2 12.2 0 0 1-3-5 256 256 0 0 1 1-27"/><path fill="#f7d782" d="M230.5 312.5c-.4 5.8-1.8 11.3-4 16.5.2 1.7.8 3 2 4a9.5 9.5 0 0 0-2.5 1.5c.1 1.3 0 2.3-.5 3a11.7 11.7 0 0 1-5-3l-4-4a29.4 29.4 0 0 0 7 2 61.3 61.3 0 0 0 1-13c1.3.2 2.5-.2 3.5-1 0-2.6.8-4.6 2.5-6"/><path fill="#f1d287" d="M340.5 315.5a1327 1327 0 0 0 9 6 130 130 0 0 0 9.5 10 28 28 0 0 0 1.5 4 5 5 0 0 1-3-.5 62.7 62.7 0 0 0-7-8c-6-1.5-9.4-5.4-10-11.5"/><path fill="#d97525" d="M369.5 323.5c1.6-.2 3.1.1 4.5 1 .8 3 .7 6-.5 9a58.5 58.5 0 0 1-12-8 346 346 0 0 0 8-2"/><path fill="#daaf6c" d="M208.5 326.5c0 1 .2 1.8 1 2.5 2.5.2 4.9.7 7 1.5q-8.85-2.25-12 6c-.5 0-.9-.4-1-1a96 96 0 0 0 5-9"/><path fill="#453024" d="m216.5 330.5 4 4 1 4h-2q-.75-6.3-7.5-6l-3.5.5q-2.55 4.2-6 7.5v-1l2-3q3.15-8.25 12-6"/><path fill="#e68638" d="M58.5 309.5a426 426 0 0 0-3 25c0 2.2.3 4.2 1 6v3h-2a33 33 0 0 1-2.5-6 160.6 160.6 0 0 1 .5-26c.4-1.2 1.1-2.2 2-3 .7-.4 1.2-1 1.5-2 .2 1.6 1 2.6 2.5 3"/><path fill="#ebc263" d="M349.5 321.5a26 26 0 0 1 9 3.5 52 52 0 0 0 14 10c.8.7 1 1.5 1 2.5-2-1.7-4.3-2.3-7-2q-.9 5.4 3 9a20.2 20.2 0 0 1 1.5 6c.8 13.8.7 27.5-.5 41 .2-13.3 0-26.7-.5-40a219 219 0 0 0-2.5-6 133 133 0 0 0-7-10 28 28 0 0 1-1.5-4 130 130 0 0 1-9.5-10"/><path fill="#587aa1" d="M219.5 338.5a127 127 0 0 0-17 3v-1q3.45-3.3 6-7.5l3.5-.5q6.75-.3 7.5 6"/><path fill="#623d1d" d="M220.5 334.5a11.7 11.7 0 0 0 5 3c.4.6 1 1 2 1a29.4 29.4 0 0 1 12-2c1.5 0 2.5.6 3 2h-10c-2.6.9-5.2 1.2-8 1a5.7 5.7 0 0 1-3-1z"/><path fill="#dfb25f" d="M194.5 340.5a72.4 72.4 0 0 0-12 .5c-2.8 1.5-4.8 3.7-6 6.5-.3-3.1.8-5.4 3.5-7 5-1.3 9.8-1.3 14.5 0"/><path fill="#719bb1" d="M232.5 338.5h8c2.8 2.3 4 5.3 3.5 9a367 367 0 0 0-11.5-9"/><path fill="#48454a" d="M184.5 342.5c-1.3 2-3 3.7-5 5 0-3.3 1.7-5 5-5"/><path fill="#69544c" d="M202.5 339.5v2a93 93 0 0 0-14 7 161 161 0 0 0 4-7q3 1.65 6 0c1.6-.2 2.9-.9 4-2"/><path fill="#65809e" d="M184.5 342.5a18.5 18.5 0 0 1 6 .5 32.5 32.5 0 0 0-10 10.5c-.7 1.3-1.3 1.3-2 0a12 12 0 0 0 1-6c2-1.3 3.7-3 5-5"/><path fill="#473b3f" d="M184.5 342.5c2.4-1 5.1-1.3 8-1a161 161 0 0 1-4 7l-2 3a57.4 57.4 0 0 0-9 9c-1.1-4.6-.5-9 2-13a12 12 0 0 1-1 6c.7 1.3 1.3 1.3 2 0a32.5 32.5 0 0 1 10-10.5 18.5 18.5 0 0 0-6-.5"/><path fill="#f48f34" d="M110.5 324.5h4a51.5 51.5 0 0 0 2 15v16a897 897 0 0 0-2 41v9c-1-4.8-1.3-9.8-1-15-1.6-.2-3 .3-4 1.5 1.3 1.3 1.3 2.7 0 4-6.1 1.3-11.8.4-17-2.5q-6.9 2.25-3-3c3.1.5 6.3.8 9.5 1 3.5.2 6.6-.5 9.5-2a2420 2420 0 0 1 2-64z"/><path fill="#89b7d2" d="M274.5 321.5c1.3 0 2 .7 2 2a301 301 0 0 0-20 35 69 69 0 0 1-6.5 5c-.4-1.7-.2-3.4.5-5 6.5-13.4 14.5-25.8 24-37"/><path fill="#e5c7b5" d="M378.5 339.5a40.7 40.7 0 0 0 3 6.5c-.6.4-.9.9-1 1.5-1.5-2.3-2.2-5-2-8"/><path fill="#bedfeb" d="M233.5 343.5a208 208 0 0 1 11.5 7c1.4 2.1 2.2 4.5 2.5 7 .5 5.8-1.2 10.8-5 15h-1a8.4 8.4 0 0 1 .5-4l1 1a8.2 8.2 0 0 1 2.5-4 46.7 46.7 0 0 1-1.5-8c-2.4-2.2-4.2-4.9-5.5-8a4.8 4.8 0 0 0-4-1 20.7 20.7 0 0 0-1-5"/><path fill="#f7e8cd" d="M53.5 343.5h2c.1 5 .4 10 1 15q-2.1-7.2-3-15" opacity=".878"/><path fill="#643b1b" d="M198.5 337.5c.9 1.1.9 2.5 0 4q-3 1.65-6 0c-2.9-.3-5.6 0-8 1-3.3 0-5 1.7-5 5-2.5 4-3.1 8.4-2 13l-1 4a309 309 0 0 0-3 4 29.6 29.6 0 0 1-3 5l-2-1a125 125 0 0 0 8-13c-.1-.6-.5-1-1-1v-2a29.2 29.2 0 0 1 1-9c1.2-2.8 3.2-5 6-6.5a72.4 72.4 0 0 1 12-.5c1.9-.2 3.2-1.2 4-3"/><path fill="#d87020" d="M116.5 339.5c3.6 8.4 9.3 15.3 17 20.5a118 118 0 0 0-3 15c-1.9 2.8-4.5 4.1-8 4-3.6 6.3-1.6 9.1 6 8.5a424 424 0 0 1-3.5 20q-7.5 7.05-7.5-3l-1-49z"/><path fill="#f3dfd0" d="M380.5 347.5c1.8 3.7 2.4 7.7 2 12h-1a73.3 73.3 0 0 0-1-12" class="E"/><path fill="#b86317" d="M110.5 325.5a2420 2420 0 0 0-2 64c.3-2 0-3.6-1-5-.2-17.3 0-34.7.5-52 0-2.9.8-5.2 2.5-7"/><path fill="#bc965d" d="M55.5 343.5h1c.6 5 .9 10 1 15h-1a171 171 0 0 1-1-15"/><path fill="#e79a44" d="M96.5 323.5a68.2 68.2 0 0 0 14 1v1c-1.7 1.8-2.5 4.1-2.5 7a1352 1352 0 0 0-.5 52c.2 1.6-.1 3.1-1 4.5a72.4 72.4 0 0 1-12 .5 1074 1074 0 0 1-1-65c1.3.2 2.3-.1 3-1"/><path fill="#743a0c" d="M175.5 356.5v2c-5.3 4.9-11.6 7.2-19 7a82.7 82.7 0 0 1-14-1c-.3 1.6 0 3 1 4a14 14 0 0 1 6 3c-5-1-9.3.6-13 4.5a5 5 0 0 1-3 .5 25.1 25.1 0 0 1 7.5-7c.7-2.1.5-4.1-.5-6-1.5-1.4-1.2-2 1-2 12.2 3.9 23.6 2.2 34-5"/><path fill="#9c8673" d="M258.5 358.5c1.3 1.3 1.3 2.7 0 4l-2 5c.3-2.2 0-4.2-1-6 0-.7.3-1 1-1z"/><path fill="#e5c8a5" d="M56.5 358.5h1a105 105 0 0 1 7 18c-1.1 1.1-1.8 2.4-2 4h-1c-.1-2 .6-3.6 2-5-3.7-5-6-10.7-7-17"/><path fill="#a9bdc9" d="M255.5 361.5c1 1.8 1.3 3.8 1 6a10.2 10.2 0 0 1-3 3c-2.2 0-4.2.8-6 2l-1-1z"/><path fill="#91796a" d="m156.5 365.5-2 2h-7c-1 0-1.8-.2-2.5-1-.3 1-.8 1.6-1.5 2-1-1-1.3-2.4-1-4a82.7 82.7 0 0 0 14 1"/><path fill="#e28c3b" d="M175.5 358.5c.5 0 .9.4 1 1a125 125 0 0 1-8 13 107 107 0 0 1-14-5l2-2c7.4.2 13.7-2.1 19-7"/><path fill="#a0dcf8" d="M219.5 338.5h2c.9.6 1.9 1 3 1a86 86 0 0 0 9 4 20.7 20.7 0 0 1 1 5 4.8 4.8 0 0 1 4 1c1.3 3.1 3.1 5.8 5.5 8 .3 2.7.8 5.4 1.5 8a8.2 8.2 0 0 0-2.5 4l-1-1a8.4 8.4 0 0 0-.5 4 753 753 0 0 0-22 3.5 77.5 77.5 0 0 1-23-1c-7-2.9-11.4-8-13-15.5a37.5 37.5 0 0 1 3-8l2-3a93 93 0 0 1 14-7 127 127 0 0 1 17-3"/><path fill="#62b1e3" d="M207.5 348.5c8.3-1.6 15.5.4 21.5 6 1.4 7.4-1.4 12.2-8.5 14.5-8.2 1.1-16.2.4-24-2-3.4-3.4-3.9-7.2-1.5-11.5 3.8-3.3 8-5.6 12.5-7"/><path fill="#7a634d" d="M176.5 364.5c-.3 4.2.4 8.2 2 12q-2.1.9-3 3c-1.3.2-2.3-.1-3-1h3c-.3-3.5-1-6.9-2-10a309 309 0 0 1 3-4"/><path fill="#de9144" d="M140.5 363.5c1 1.9 1.2 3.9.5 6a25.1 25.1 0 0 0-7.5 7c-.6-.2-1-.7-1-1.5a282 282 0 0 0 2-13.5c2.2.2 4.2.9 6 2"/><path fill="#61443d" d="M152.5 367.5h2a107 107 0 0 0 14 5l2 1c-.1 2 .6 3.7 2 5z"/><path fill="#7ca7c2" d="M147.5 367.5h5l20 11c.7.9 1.7 1.2 3 1-.7 1.2-1 2.5-1 4a50 50 0 0 0-9-3 7327 7327 0 0 1-18-13"/><path fill="#594230" d="M258.5 362.5a45 45 0 0 1-1 10c2 .2 3.6 1 5 2.5q3.9 3.75 0 7.5c-1.9 2.2-4.2 3.6-7 4v-1c1.3-4.9 1-9.5-1-14 0-.7-.3-1-1-1a10.2 10.2 0 0 0 3-3z"/><path fill="#4d3428" d="M147.5 367.5a7327 7327 0 0 0 18 13 29.4 29.4 0 0 1-7-2 3 3 0 0 0-2-2 39.4 39.4 0 0 1-7-5 14 14 0 0 0-6-3c.7-.4 1.2-1 1.5-2 .7.8 1.5 1 2.5 1"/><path fill="#95cae6" d="M186.5 351.5a37.5 37.5 0 0 0-3 8c-1 0-1.8.2-2.5 1a20.2 20.2 0 0 1-1.5 6 4.5 4.5 0 0 1-1.5-2q-1.2 4.8 1.5 9l2-1a188 188 0 0 0 14 8.5 7.3 7.3 0 0 1-3 2c8.7.7 17.3.7 26 0 4.3-2.7 9-3.9 14-3.5-4.2 2.6-9 4.2-14 5h-29c-4.8-1.1-8.5-3.8-11-8-1.6-3.8-2.3-7.8-2-12l1-4a57.4 57.4 0 0 1 9-9"/><path fill="#e4a150" d="M173.5 368.5c1 3.1 1.7 6.5 2 10h-3c-1.4-1.3-2.1-3-2-5a29.6 29.6 0 0 0 3-5"/><path fill="#81c6ee" d="M183.5 359.5c1.6 7.4 6 12.6 13 15.5a77.5 77.5 0 0 0 23 1 753 753 0 0 1 22-3.5h1c-2.8 3.1-6.1 5.4-10 7-5-.4-9.7.8-14 3.5-8.7.7-17.3.7-26 0a7.3 7.3 0 0 0 3-2 188 188 0 0 1-14-8.5l-2 1q-2.7-4.2-1.5-9a4.5 4.5 0 0 0 1.5 2 20.2 20.2 0 0 0 1.5-6c.7-.8 1.5-1 2.5-1"/><path fill="#577694" d="M254.5 371.5c2 4.5 2.3 9.1 1 14h-3c.1-4.2-1.6-7.6-5-10 1.9-2 4.2-3.4 7-4"/><path fill="#3a3843" d="M247.5 357.5c.9.6 1.9 1 3 1-.7 1.6-.9 3.3-.5 5a69 69 0 0 0 6.5-5v2c-.7 0-1 .3-1 1l-9 10 1 1c1.8-1.2 3.8-2 6-2 .7 0 1 .3 1 1-2.8.6-5.1 2-7 4 0 .7-.3 1-1 1-1.2-1-2.6-1-4-.5-16.3 11.3-34.3 15-54 11a15.4 15.4 0 0 0-6-3 12.1 12.1 0 0 0-3.5-4.5c-1.7 2.4-2.6 5-2.5 8h-1c.3-1.6 0-3-1-4 0-1.5.3-2.8 1-4q.9-2.1 3-3c2.5 4.2 6.2 6.9 11 8 .1.6.4 1.1 1 1.5 9.6.8 18.9.3 28-1.5 5-.8 9.8-2.4 14-5 3.9-1.6 7.2-3.9 10-7 3.8-4.2 5.5-9.2 5-15"/><path fill="#78412c" d="M381.5 359.5h1c1 3.2 1.2 6.6 1 10a678 678 0 0 1-1 30c.3 2 0 3.6-1 5-1 2.1-1.3 4.4-1 7h-1a631 631 0 0 0 2-52"/><path fill="#f59a44" d="M149.5 371.5a39.4 39.4 0 0 0 7 5c-.4 2.3-1.7 3.8-4 4.5-10 3.6-20 4.3-30 2a32.4 32.4 0 0 1 9-4c.9-.7 1.5-1.5 2-2.5a5 5 0 0 0 3-.5c3.7-4 8-5.4 13-4.5"/><path fill="#a7aeaf" d="M257.5 375.5c6.2 1.7 6.6 4.4 1 8a16.9 16.9 0 0 1-1-8"/><path fill="#843a0a" d="M164.5 245.5c12.8 5 23.8 12.6 33 23 8 11.4 12.7 24 14 38a87 87 0 0 0-4 8v-5c1.1-2.8 1.3-5.8.5-9-.7-.8-1.5-1-2.5-1a77 77 0 0 0-1-10c-1.4-5.8-4-10.8-8-15a19.2 19.2 0 0 0-2.5-5 114.7 114.7 0 0 0-24.5-19.5 91 91 0 0 0-9-2.5c-19.3-6-31.8.6-37.5 20a67.7 67.7 0 0 0-1.5 17c12.8-2.1 23.8 1.2 33 10a10.5 10.5 0 0 0 2.5 3 128.3 128.3 0 0 1 21.5-21 5.6 5.6 0 0 0 3 1 34.8 34.8 0 0 1 7 7 5.7 5.7 0 0 1-3-1c-1.7-2.3-3.8-4-6.5-5a84 84 0 0 0-8.5 7c.5.8 1.1 1.1 2 1l-4 2a55 55 0 0 0-5.5 4c-4 9.8-11.1 15.1-21.5 16a106 106 0 0 0 12-6.5c1-1 1.2-2.2.5-3.5-7-7-15.3-11.3-25-13-2.1-.1-4 .6-5.5 2-2.9 4.6-4.7 9.6-5.5 15-2.3 11.6-1.8 23 1.5 34 3.1 12.1 10.5 20.5 22 25-2.2 0-2.5.6-1 2-1.8-1.1-3.8-1.8-6-2a282 282 0 0 1-2 13.5c0 .8.4 1.3 1 1.5-.5 1-1.1 1.8-2 2.5a32.4 32.4 0 0 0-9 4c10 2.3 20 1.6 30-2 2.3-.7 3.6-2.2 4-4.5a3 3 0 0 1 2 2c-1.7 3-4.4 4.8-8 5.5l-19 4.5a250 250 0 0 0-3 39 1042 1042 0 0 1-2-12 57 57 0 0 0-1 15 197 197 0 0 1-1.5-20c-1.9 1.7-4 2.7-6.5 3h-17v-1a65 65 0 0 0 16-1l-2-6v-9c.6.1 1.1.4 1.5 1 .2 2.5.7 4.9 1.5 7q0 10.05 7.5 3a424 424 0 0 0 3.5-20c-7.6.6-9.6-2.2-6-8.5 3.5.1 6.1-1.2 8-4a118 118 0 0 1 3-15c-7.7-5.2-13.4-12-17-20.5a51.5 51.5 0 0 1-2-15 86.7 86.7 0 0 0 1-18q1.65-10.05 6-19.5a5 5 0 0 0-3-.5 72.3 72.3 0 0 1 1.5-16c1-11 6.1-19 15.5-24 9.5-3.6 19.1-4 29-1"/><path fill="#e19243" d="M205.5 299.5c1 0 1.8.2 2.5 1 .8 3.2.6 6.2-.5 9a27.1 27.1 0 0 1-2-10"/><path fill="#ae7b58" d="M194.5 286.5c5.5-.2 8.5 2.5 9 8a2.4 2.4 0 0 1-.5 2 36.3 36.3 0 0 0-9.5-9c.1-.6.5-1 1-1"/><path fill="#cc853a" d="M172.5 286.5c6.1-.7 11.8.3 17 3a161 161 0 0 0-21-1z"/><path fill="#703311" d="M185.5 283.5c.9.6 1.9 1 3 1l6 2c-.5 0-.9.4-1 1a36.3 36.3 0 0 1 9.5 9 2.4 2.4 0 0 0 .5-2c1.2 2.8 1 5.5-1 8-2-6.7-6.4-11-13-13-5.2-2.7-10.9-3.7-17-3 1.2-1.5 2.9-2.5 5-3 2.8 1.3 5.5 1.3 8 0"/><path fill="#e69146" d="M196.5 274.5c4 4.2 6.6 9.2 8 15-4.2-4.5-9.6-6.2-16-5a34.8 34.8 0 0 0-7-7c1.3.2 2.5-.2 3.5-1 1.5.8 1.7 1.6.5 2.5 3.8 3.8 8.5 5.3 14 4.5a75 75 0 0 0-3-9"/><path fill="#a97551" d="M185.5 283.5c-2.5 1.3-5.2 1.3-8 0-2.1.5-3.8 1.5-5 3-.9.1-1.5-.2-2-1a84 84 0 0 1 8.5-7c2.7 1 4.8 2.7 6.5 5"/><path fill="#e87c22" d="M160.5 247.5a222 222 0 0 0-13 10.5c-6 5-7.6 11.2-4.5 18.5a85.3 85.3 0 0 0 16.5 14.5c-1 2.2-2.7 3.3-5 3.5-9.3-8.8-20.3-12.1-33-10a67.7 67.7 0 0 1 1.5-17c5.7-19.4 18.2-26 37.5-20"/><path fill="#fa963b" d="M160.5 247.5a91 91 0 0 1 9 2.5 114.7 114.7 0 0 1 24.5 19.5 19.2 19.2 0 0 1 2.5 5 75 75 0 0 1 3 9c-5.5.8-10.2-.7-14-4.5 1.2-1 1-1.7-.5-2.5-1 .8-2.2 1.2-3.5 1a5.6 5.6 0 0 1-3-1 128.3 128.3 0 0 0-21.5 21 10.5 10.5 0 0 1-2.5-3c2.3-.2 4-1.3 5-3.5a85.3 85.3 0 0 1-16.5-14.5c-3-7.3-1.6-13.5 4.5-18.5a222 222 0 0 1 13-10.5"/><path fill="#f1ddcf" d="M383.5 369.5a116 116 0 0 1 1 20.5 285 285 0 0 1-2 9.5c.6-10 .9-20 1-30"/><path fill="#93470b" d="m64.5 376.5 4 3c.5 1 1.1 1.8 2 2.5a65.8 65.8 0 0 0 24 7.5 72.4 72.4 0 0 0 12-.5c.9-1.4 1.2-2.9 1-4.5 1 1.4 1.3 3 1 5-2.9 1.5-6 2.2-9.5 2a85 85 0 0 1-9.5-1c-9.3-1.5-17.6-5.2-25-11l-2 1c.2-1.6.9-2.9 2-4"/><path fill="#f5cb5d" d="M373.5 337.5c1.1 2.1 1.8 4.4 2 7a357.5 357.5 0 0 1 1.5 56 79 79 0 0 0-2 10c-.9 1.8-2 2.4-3.5 2 1.4 5.6.6 11-2.5 16a274 274 0 0 1-6.5 8l-2 6c-1.2-3-1.2-6.4 0-10v-3h3l2-11a111.7 111.7 0 0 0 2.5-21c.2-2.3 1-4.3 2.5-6 1.2-13.5 1.3-27.2.5-41a20.2 20.2 0 0 0-1.5-6q-3.9-3.6-3-9c2.7-.3 5 .3 7 2"/><path fill="#ce9a71" d="M61.5 380.5h1a13 13 0 0 0 .5 5 17.3 17.3 0 0 1 3.5 7l-3-2c-1.9-1.7-3.2-4-4-6.5.3-1.5 1-2.6 2-3.5"/><path fill="#9f450a" d="m116.5 355.5 1 49c-.8-2.1-1.3-4.5-1.5-7-.4-.6-.9-.9-1.5-1a897 897 0 0 1 2-41"/><path fill="#e49e3a" d="M158.5 378.5a29.4 29.4 0 0 0 7 2c2.1 1.6 4.4 2.9 7 4l1 2.5a86 86 0 0 0-3 12.5v1c-.7 0-1 .3-1 1h-1v-5q-14.4 2.55-30 1.5l1-1a100 100 0 0 0-2-5.5l-2 7a7.2 7.2 0 0 1-2.5-2l-1 1a155.2 155.2 0 0 0-2.5 31h3a67.2 67.2 0 0 0 3 22c-1-1.1-1.9-2.4-2.5-4a393 393 0 0 0-4.5-19 250 250 0 0 1 3-39l19-4.5c3.6-.7 6.3-2.5 8-5.5"/><path fill="#355a81" d="M246.5 376.5a4.8 4.8 0 0 1-1 4 149 149 0 0 1-9 7.5l-26 6c-9 1-17.5-.6-25.5-4.5-2.4 1.8-4.9 2-7.5 1-.9-.8-1.2-1.8-1-3 0-3 .8-5.6 2.5-8a12.1 12.1 0 0 1 3.5 4.5 15.4 15.4 0 0 1 6 3c19.7 4 37.7.3 54-11 1.4-.6 2.8-.4 4 .5"/><path fill="#8f888d" d="M189.5 384.5h29c-9.1 1.8-18.4 2.3-28 1.5-.6-.4-.9-.9-1-1.5"/><path fill="#6494c0" d="M254.5 386.5c1 12.8 1 25.5 0 38a32 32 0 0 0-2-13c2.8-7 2.3-13.6-1.5-20a60.7 60.7 0 0 1-12.5 7h-2a39.4 39.4 0 0 1 7-5 61.5 61.5 0 0 0 8-6.5 5 5 0 0 1 3-.5"/><path fill="#52382b" d="M165.5 380.5a50 50 0 0 1 9 3c1 1 1.3 2.4 1 4 .1 3.7 1.4 6.9 4 9.5a33.8 33.8 0 0 0-1 10.5c-.6-.1-1.1-.4-1.5-1a18.5 18.5 0 0 0-.5 6l-2 1v-2a53.7 53.7 0 0 0 1.5-15 7.3 7.3 0 0 0-2-3c-1.5 2-2.6 4-3.5 6a86 86 0 0 1 3-12.5l-1-2.5c-2.6-1.1-4.9-2.4-7-4"/><path fill="#344662" d="M247.5 375.5c3.4 2.4 5.1 5.8 5 10h3v1h-1a5 5 0 0 0-3 .5 61.5 61.5 0 0 1-8 6.5c0-.5-.4-.9-1-1a72.2 72.2 0 0 1-21 8.5l-29 2.5a54 54 0 0 1-10-2c-.3-1-1-1.6-2-2a20.5 20.5 0 0 0 0 12c-1.6-.8-2.3-2.1-2-4a33.8 33.8 0 0 1 1-10.5c-2.6-2.6-3.9-5.8-4-9.5h1c-.2 1.2.1 2.2 1 3 2.6 1 5.1.8 7.5-1 8 4 16.5 5.4 25.5 4.5l26-6a149 149 0 0 0 9-7.5 4.8 4.8 0 0 0 1-4c.7 0 1-.3 1-1"/><path fill="#fbecd1" d="m63.5 390.5 3 2v2c-1.8-.8-2.8-2.1-3-4" opacity=".941"/><path fill="#fa9c42" d="M89.5 390.5q-3.9 5.25 3 3c5.2 3 10.9 3.8 17 2.5 1.3-1.3 1.3-2.7 0-4 1-1.2 2.4-1.7 4-1.5-.3 5.2 0 10.2 1 15l2 6a65 65 0 0 1-16 1h-1c-4-1.8-8.4-3.1-13-4a112 112 0 0 1-17-13.5 5 5 0 0 0-3-.5v-2a17.3 17.3 0 0 0-3.5-7 13 13 0 0 1-.5-5l2-1c7.4 5.8 15.7 9.5 25 11"/><path fill="#cfa685" d="M66.5 394.5a5 5 0 0 1 3 .5 112 112 0 0 0 17 13.5v1a5 5 0 0 1-3-.5c-6.5-4-12.2-8.7-17-14.5"/><path fill="#282b40" d="M243.5 393.5a39.4 39.4 0 0 0-7 5 514 514 0 0 1-17 4.5c-9 .5-18 .7-27 .5l29-2.5a72.2 72.2 0 0 0 21-8.5c.6.1 1 .5 1 1"/><path fill="#7186a1" d="M182.5 401.5c-1.1.3-1.8 1.1-2 2.5a356 356 0 0 1 3 18.5c-1.8-3.4-2.8-7-3-11a20.5 20.5 0 0 1 0-12c1 .4 1.7 1 2 2"/><path fill="#4d84c1" d="M236.5 398.5h2q-1.95 1.5 0 3c5 2.3 5 3.6 0 4q-1.2 1.2-1.5 3l-1-1a19 19 0 0 0-1.5 8 32.5 32.5 0 0 1-8-.5c-1.5-1.1-2.2-2.6-2-4.5-2.4.3-4.5.3-6.5 0-2.6.4-5 1.4-7 3l-1-1a137 137 0 0 0-3.5 11 91.6 91.6 0 0 0 6 14.5c-1.6 1.8-2.2 3.6-2 5.5 3.7.4 6.9 1.7 9.5 4 3.5-2.7 7.3-3.4 11.5-2a126 126 0 0 0-9 4.5c1.5.7 2.1 1.9 2 3.5-1.3-.2-2.3.1-3 1-5.3 1.4-10.7 1.1-16-1-1.4-3-3.7-4.4-7-4 0-1.5-.3-2.8-1-4 2.2 2 4.9 3 8 3-.1 2.9 1.2 4.5 4 5a18.1 18.1 0 0 0 5.5-2c.4 1 1 1.6 2 2a67 67 0 0 1 5.5-1.5c-7.2-2.2-13.4-6-18.5-11.5-3.7-10.7-5.4-21.7-5-33a9.5 9.5 0 0 0-1.5-2.5c-2.9-.7-5.7-.5-8.5.5-2.9-2.3-4-1.3-3.5 3 1.9 11 4.9 21.7 9 32h-3a58 58 0 0 0-5.5-15c-.7-.8-1.5-1-2.5-1v-2a356 356 0 0 0-3-18.5c.2-1.4.9-2.2 2-2.5a54 54 0 0 0 10 2c9 .2 18 0 27-.5a514 514 0 0 0 17-4.5"/><path fill="#64482c" d="m170.5 400.5-2 20v2c-1-2.4-1.3-5.1-1-8a59.5 59.5 0 0 1 2-13c0-.7.3-1 1-1"/><path fill="#5797d2" d="M254.5 424.5a90.6 90.6 0 0 1-2.5 13 1854 1854 0 0 1-5.5 9c-2.6 1-4.6 2.6-6 5l-8 3h-11c.7-.9 1.7-1.2 3-1h7c-2-3.4-1-5 3-5q.3-6.75 4.5-12c.4-3.2 1-6.3 1.5-9.5a374 374 0 0 0-.5-16.5 27.6 27.6 0 0 0-1.5-5c5-.4 5-1.7 0-4q-1.95-1.5 0-3a60.7 60.7 0 0 0 12.5-7c3.8 6.4 4.3 13 1.5 20a32 32 0 0 1 2 13"/><path fill="#c7ab9d" d="M381.5 404.5c.8 2.5.5 4.8-1 7-.3-2.6 0-4.9 1-7"/><path fill="#a66f4b" d="M86.5 409.5v-1c4.6.9 8.9 2.2 13 4h-3c-1.8.1-3.5-.2-5-1-1.4-1-3.1-1.7-5-2"/><path fill="#fef1e0" d="M86.5 409.5c1.9.3 3.6 1 5 2-2.4 1.3-4 .6-5-2"/><path fill="#4f8ac9" d="M238.5 405.5a27.6 27.6 0 0 1 1.5 5 374 374 0 0 1 .5 16.5 164 164 0 0 0-1.5 9.5q-4.2 5.25-4.5 12c-4 0-5 1.6-3 5h-7c.1-1.6-.5-2.8-2-3.5a126 126 0 0 1 9-4.5c-4.2-1.4-8-.7-11.5 2-2.6-2.3-5.8-3.6-9.5-4-.2-1.9.4-3.7 2-5.5a91.6 91.6 0 0 1-6-14.5 137 137 0 0 1 3.5-11l1 1c2-1.6 4.4-2.6 7-3 2 .3 4.1.3 6.5 0-.2 1.9.5 3.4 2 4.5a32.5 32.5 0 0 0 8 .5 19 19 0 0 1 1.5-8l1 1q.3-1.8 1.5-3"/><path fill="#7a9bbb" d="M174.5 411.5q-1.8 5.25-6 9l2-20v-1c.9-2 2-4 3.5-6a7.3 7.3 0 0 1 2 3 53.7 53.7 0 0 1-1.5 15"/><path fill="#f3ddcb" d="M96.5 412.5h4v1c-1.5 1-2.8.6-4-1"/><path fill="#f7c967" d="M375.5 344.5c3 11.8 4.3 24 4 36.5 1.4 28.3-7.6 52.5-27 72.5h-1c0-3.5 1.6-5.6 5-6.5-1-1.7-2.5-2.5-4.5-2.5-4.5 1.9-8 5-10.5 9.5l-5 1c-3.2 3.2-6.8 5.5-11 7a52.5 52.5 0 0 0-15 3c-8.2.8-16.2.7-24-.5 6.7.2 13.3 0 20-.5 2.9-.5 5.5-1.4 8-2.5 5-2.9 10.3-4.5 16-5 5.9-1.4 10.5-4.6 14-9.5 6.8-3.3 12.2-8.2 16-14.5-1.2 3.6-1.2 7 0 10l2-6a274 274 0 0 0 6.5-8c3-5 4-10.4 2.5-16 1.5.4 2.6-.2 3.5-2a79 79 0 0 1 2-10 357.5 357.5 0 0 0-1.5-56"/><path fill="#f2dac0" d="M100.5 413.5h17l-3 2a19 19 0 0 1-5 3q3.9-5.25-3-3c-2.2-.4-4.2-1-6-2"/><path fill="#fcca59" d="M168.5 401.5h1a59.5 59.5 0 0 0-2 13q-1.95 5.85 0 12a6.8 6.8 0 0 1 4-1q4.2 6.9 6 15c1.3 6 4 11.3 8 16 .1 5 2.5 8.5 7 10.5 7 3.2 14.4 4.2 22 3a255 255 0 0 0 15.5-3.5l11.5-6.5a117 117 0 0 0 10.5-14.5c.3 1 .8 1.6 1.5 2a79 79 0 0 0 14 10.5 74 74 0 0 1 12.5 5.5 15.9 15.9 0 0 0 6.5 1c7.8 1.2 15.8 1.3 24 .5a52.5 52.5 0 0 1 15-3c4.2-1.5 7.8-3.8 11-7l5-1c2.5-4.5 6-7.6 10.5-9.5 2 0 3.5.8 4.5 2.5-3.4.9-5 3-5 6.5-2.4 3.4-5.4 6-9 8a29.6 29.6 0 0 1-5 3 336 336 0 0 1-31 15.5 499 499 0 0 1-42 12.5 810 810 0 0 1-24 3c-1.9-.8-3.9-1.2-6-1a67.5 67.5 0 0 0-22 0 2018 2018 0 0 0-40-10c-1.6-1.6-3.6-2.2-6-2q-.15-4.5-4.5-6a107 107 0 0 0-7.5-12c-1.6-.4-2.7-1.4-3.5-3-3.8-6-5.8-12.7-6-20-2.6-14.9 1.3-27.7 11.5-38.5a18.5 18.5 0 0 1 6-.5v6h3c.2-2.7 1.2-5 3-7"/><path fill="#686769" d="M174.5 411.5v2q-1.8 5.25-6 9v-2q4.2-3.75 6-9"/><path fill="#f0e5cd" d="M176.5 412.5v7a27.2 27.2 0 0 1-5 3.5c-1.2.7-2.2.6-3-.5q4.2-3.75 6-9z"/><path fill="#ecac41" d="M168.5 401.5c-1.8 2-2.8 4.3-3 7h-3v-6a18.5 18.5 0 0 0-6 .5c-10.2 10.8-14 23.6-11.5 38.5.2 7.3 2.2 14 6 20 .8 1.6 2 2.6 3.5 3a224 224 0 0 0 3 8l-2 3a28.3 28.3 0 0 1 2 13c-1.4-4.1-2.4-8.4-3-13a197 197 0 0 1-11.5-12 63.4 63.4 0 0 1-7.5-13 67.2 67.2 0 0 1-3-22h-3a155.2 155.2 0 0 1 2.5-31l1-1a7.2 7.2 0 0 0 2.5 2l2-7 2 5.5-1 1q15.6 1.05 30-1.5z"/><path fill="#c9c1a5" d="M258.5 414.5c2.8.1 4.1 1.6 4 4.5a61 61 0 0 0-2 7.5c-.6 2.3-2 4-4 5a130 130 0 0 0 2-17"/><path fill="#f2dbcb" d="M379.5 411.5h1c.5 4-.5 7.2-3 10a27.6 27.6 0 0 0 2-10"/><path fill="#f0d8cd" d="M109.5 418.5a5.7 5.7 0 0 1-1 3h-1c-.2-1.7.5-2.7 2-3" class="D"/><path fill="#b67532" d="M114.5 415.5a1 1 0 0 1 1 .5c-4.5 3.7-6.2 8.6-5 14.5-1.6-2.7-2.3-5.7-2-9a5.7 5.7 0 0 0 1-3 19 19 0 0 0 5-3"/><path fill="#794f1f" d="M167.5 414.5c-.3 2.9 0 5.6 1 8 .8 1 1.8 1.2 3 .5a27.2 27.2 0 0 0 5-3.5c-.6 3-2.3 5-5 6a6.8 6.8 0 0 0-4 1q-1.95-6.15 0-12"/><path fill="#f6e3ab" d="m363.5 420.5-1.5 7a147 147 0 0 1-10 13 4751 4751 0 0 1-9.5 4.5 14.5 14.5 0 0 0-4 5 55 55 0 0 0-7 2c-.9 1.4-1.2 2.9-1 4.5-5.7.5-11 2.1-16 5a143.7 143.7 0 0 1-27 .5c-1.3-.7-2.2-1.5-2.5-2.5l-3 1a29.4 29.4 0 0 0-10.5-2.5q-4.5-4.65-10.5-7.5l-6-8a8.4 8.4 0 0 1-.5-4c.4-2.5 1-4.8 2-7 2-1 3.4-2.7 4-5q1.2-1.2 1.5-3l5 4c.7 1.7.7 3.3 0 5-3 2.6-3.3 5.6-1 9a20.4 20.4 0 0 1 5.5-1.5 14.8 14.8 0 0 1-4-3.5l4-4-3-2.5a10.1 10.1 0 0 1 6-1.5c-.2 2 .5 3.7 2 5 2.5 1.4 4.7 1.1 6.5-1a33 33 0 0 0 8.5 4c4.3 2.6 4 4-1 4 0 3 1.3 5.2 4 6.5a10.3 10.3 0 0 0-4 1.5c17.3 1.7 17.3 3.4 0 5a141 141 0 0 1 14.5 3c3.9-.7 7.2-2.4 10-5 5.2 1 10.4.6 15.5-1.5a9.2 9.2 0 0 0 5-5 86 86 0 0 1 10-3 20.5 20.5 0 0 1 2.5-3.5c1 .8 2.2 1.2 3.5 1a18.5 18.5 0 0 1 .5-6c3.2-1.6 5.6-4.6 7-9l2 2c0-2.6.8-4.6 2.5-6"/><path fill="#4376b5" d="M197.5 445.5v-3c-1.7.2-2.7-.5-3-2-4.1-10.3-7.1-21-9-32-.5-4.3.6-5.3 3.5-3 2.8-1 5.6-1.2 8.5-.5a9.5 9.5 0 0 1 1.5 2.5c-.4 11.3 1.3 22.3 5 33 5.1 5.5 11.3 9.3 18.5 11.5a67 67 0 0 0-5.5 1.5c-1-.4-1.6-1-2-2a18.1 18.1 0 0 1-5.5 2c-2.8-.5-4.1-2.1-4-5-3.1 0-5.8-1-8-3"/><path fill="#4b3f3a" d="M254.5 386.5h1a249 249 0 0 1 3 28 130 130 0 0 1-2 17c-1 2.2-1.6 4.5-2 7a309 309 0 0 0-3 4c-.7 0-1 .3-1 1l-4 3a1854 1854 0 0 0 5.5-9 90.6 90.6 0 0 0 2.5-13c1-12.5 1-25.2 0-38"/><path fill="#936147" d="M107.5 421.5h1c-.3 3.3.4 6.3 2 9a56.8 56.8 0 0 0 8 15 20.7 20.7 0 0 0 1 5c-3.9-4.1-7-8.8-9.5-14-2.5-5-3.3-10-2.5-15"/><path fill="#f4e4d4" d="M372.5 432.5c.3 1.9-.4 3.2-2 4 .2-1.7.8-3 2-4" class="B"/><path fill="#e19c3b" d="M125.5 430.5c.7 8.7 3 17 7 25l-.5 1a214 214 0 0 0-13.5-11 56.8 56.8 0 0 1-8-15c-1.2-6 .5-10.8 5-14.5a1 1 0 0 0-1-.5l3-2c2.5-.3 4.6-1.3 6.5-3a197 197 0 0 0 1.5 20"/><path fill="#6a8bb0" d="M183.5 424.5c1 0 1.8.2 2.5 1a58 58 0 0 1 5.5 15h3c.3 1.5 1.3 2.2 3 2v3c.7 1.2 1 2.5 1 4 3.3-.4 5.6 1 7 4l-5-2h-1c-8.1-7.3-13.5-16.3-16-27"/><path fill="#ead4c6" d="M369.5 437.5c-.2 3.6-1.8 6.3-5 8z" class="B"/><path fill="#e3a540" d="m199.5 453.5 5 4a37.3 37.3 0 0 0-10-3v-3c-3.7.9-5.7-.4-6-4-1.6 0-3-.6-4-2a6.8 6.8 0 0 0-1.5 3c-1.3-3.1-3.1-5.8-5.5-8q-1.8-8.1-6-15c2.7-1 4.4-3 5-6 1.4-1.6 2.3-3.6 2.5-6 1.5 13 6 24.8 13.5 35.5a44 44 0 0 0 7 4.5"/><path fill="#f9d781" d="m365.5 418.5-2 11h-3v3c-3.8 6.3-9.2 11.2-16 14.5-3.5 4.9-8.1 8-14 9.5-.2-1.6.1-3.1 1-4.5a55 55 0 0 1 7-2 14.5 14.5 0 0 1 4-5l9.5-4.5a147 147 0 0 0 10-13c.4-2.4 1-4.7 1.5-7z"/><path fill="#753612" d="M178.5 407.5c-.3 1.9.4 3.2 2 4 .2 4 1.2 7.6 3 11v2c2.5 10.7 7.9 19.7 16 27v2a44 44 0 0 1-7-4.5c-7.5-10.7-12-22.5-13.5-35.5-.2 2.4-1 4.4-2.5 6v-7a18.5 18.5 0 0 1 .5-6c.4.6.9.9 1.5 1"/><use fill="#e7d1c0" class="C" href="#H"/><path fill="#d0b0a2" d="M119.5 450.5c2.6 1 4.6 2.6 6 5-2.6-1-4.6-2.6-6-5"/><path fill="#f9de96" d="M254.5 438.5a8.4 8.4 0 0 0 .5 4l6 8q6 2.85 10.5 7.5a29.4 29.4 0 0 1 10.5 2.5l3-1c.3 1 1.2 1.8 2.5 2.5 9 .7 18 .5 27-.5-2.5 1.1-5.1 2-8 2.5-6.7.5-13.3.7-20 .5a15.9 15.9 0 0 1-6.5-1 74 74 0 0 0-12.5-5.5 79 79 0 0 1-14-10.5c.1-2-.5-3.7-2-5a309 309 0 0 1 3-4"/><use x="273" y="225" fill="#edd5ca" href="#G" opacity=".69"/><path fill="#a4641d" d="M351.5 453.5h1c.3 1.6 0 3-1 4a36.4 36.4 0 0 0-8.5 5 1 1 0 0 1-.5-1c3.6-2 6.6-4.6 9-8"/><path fill="#f1dbc8" d="M125.5 455.5c3.4.6 6.4 2 9 4-3.6-.2-6.6-1.5-9-4"/><use x="-209" y="343" fill="#f6e1cf" href="#F" opacity=".376"/><path fill="#f1ba4c" d="M177.5 440.5c2.4 2.2 4.2 4.9 5.5 8a6.8 6.8 0 0 1 1.5-3c1 1.4 2.4 2 4 2 .3 3.6 2.3 4.9 6 4v3a37.3 37.3 0 0 1 10 3 189 189 0 0 0 30-1.5c7.5-1.6 12.8-5.7 16-12.5 0-.7.3-1 1-1 1.5 1.3 2.1 3 2 5-.7-.4-1.2-1-1.5-2a117 117 0 0 1-10.5 14.5 7533 7533 0 0 0-11.5 6.5 255 255 0 0 1-15.5 3.5c-7.6 1.2-15 .2-22-3-4.5-2-6.9-5.5-7-10.5-4-4.7-6.7-10-8-16"/><path fill="#683c1a" d="M250.5 443.5c-3.2 6.8-8.5 11-16 12.5a189 189 0 0 1-30 1.5l-5-4v-2h1c2 2.5 4.6 4 8 4.5q12.3 1.2 24-1.5l8-3c2.6-1 4.6-2.6 6-5z"/><path fill="#626d7e" d="m200.5 451.5 5 2c5.3 2.1 10.7 2.4 16 1h11q-11.7 2.7-24 1.5c-3.4-.5-6-2-8-4.5"/><path fill="#46312f" d="M246.5 446.5c-1.4 2.4-3.4 4-6 5 1.4-2.4 3.4-4 6-5"/><use x="-205" y="348" fill="#ebd7c8" class="G" href="#F"/><path fill="#e9d0c4" d="M355.5 455.5c.5 5.1-.5 9.8-3 14 0-5 1-9.6 3-14"/><path fill="#722e0f" d="M128.5 427.5a393 393 0 0 1 4.5 19c.6 1.6 1.4 2.9 2.5 4a63.4 63.4 0 0 0 7.5 13c3.7 4.2 7.5 8.2 11.5 12h-3c-1.1-1.1-2.4-1.8-4-2-.5-1.4-1.5-2-3-2a3 3 0 0 0-2-2 3 3 0 0 1-2-2c0-1.5-.6-2.5-2-3a3 3 0 0 1-2-2c0-1.5-.6-2.5-2-3-2.6-2-5.6-3.4-9-4-1.4-2.4-3.4-4-6-5a20.7 20.7 0 0 1-1-5 214 214 0 0 1 13.5 11l.5-1c-4-8-6.3-16.3-7-25a57 57 0 0 1 1-15 1042 1042 0 0 0 2 12"/><use fill="#eeded2" class="D" href="#I"/><use x="-181" y="374" fill="#f1dcca" href="#E"/><path fill="#f8e4d2" d="M352.5 470.5a1 1 0 0 1 1 .5 19.6 19.6 0 0 1-2 3.5c-.3-1.6 0-3 1-4" class="B"/><path fill="#f7dfd7" d="M147.5 473.5c1.6.2 2.9.9 4 2v1c-1.9-.2-3.2-1.2-4-3" opacity=".751"/><path fill="#f3bd51" d="M154.5 464.5a107 107 0 0 1 7.5 12q4.35 1.5 4.5 6c2.4-.2 4.4.4 6 2-1 1-1.7 2.4-2 4a15 15 0 0 1 3 6c-2.6-2.1-5.5-2.8-8.5-2a6.9 6.9 0 0 0-3-5 3.6 3.6 0 0 1-1.5 1v42l-2-4v-4c1.4-11.2 1-22.6-1-34a28.3 28.3 0 0 0-2-13l2-3a224 224 0 0 1-3-8"/><path fill="#e7f8f7" d="M148.5 477.5q1.95 1.05 0 0" class="C"/><path fill="#7a370a" d="M337.5 464.5c-7 6.4-15 11.6-24 15.5a240.6 240.6 0 0 1-42 14.5 262 262 0 0 1 21 17 5.7 5.7 0 0 1-1 3h-1a15.7 15.7 0 0 0-6-7c-.5-1-1.1-1.8-2-2.5a31.8 31.8 0 0 0-7-2.5c-.5-1.4-1.5-2-3-2-1.6-3.4-4.2-4.7-8-4a71 71 0 0 1 4-2c-.8-1.6-2.2-2.3-4-2a499 499 0 0 0 42-12.5 336 336 0 0 0 31-15.5"/><path fill="#c8a88d" d="M351.5 474.5c-.1 4.7-1.1 9-3 13v-8a11.4 11.4 0 0 0 3-5"/><path fill="#a07250" d="M151.5 475.5h3c.6 4.6 1.6 8.9 3 13 2 11.4 2.4 22.8 1 34a182.4 182.4 0 0 0-7-46z"/><path fill="#ebb043" d="M172.5 484.5a2018 2018 0 0 1 40 10c-1.6.2-3.1-.1-4.5-1-1.3 2.1-3.1 3.1-5.5 3-.3 1.8-1 3.4-2 5a5.7 5.7 0 0 0 3 3.5 3.6 3.6 0 0 0-1 1.5 341 341 0 0 0 10 5 54.7 54.7 0 0 0 4 9 281 281 0 0 0-43-26 15 15 0 0 0-3-6c.3-1.6 1-3 2-4"/><path fill="#e4a33b" d="M351.5 457.5v3a183 183 0 0 0-5.5 22 134 134 0 0 1-5.5 14c-1.4-1.1-3.1-1.3-5-.5a245 245 0 0 1-35 9.5c-2.3-1.5-4.3-1.2-6 1a346 346 0 0 1 8 2c-3.8-.5-7.2.5-10 3a262 262 0 0 0-21-17 240.6 240.6 0 0 0 42-14.5c9-4 17-9 24-15.5a29.6 29.6 0 0 0 5-3 1 1 0 0 0 .5 1 36.4 36.4 0 0 1 8.5-5"/><path fill="#fbc857" d="M173.5 494.5a281 281 0 0 1 43 26c1 0 1.8.2 2.5 1l6.5 11c-.8.9-1.8 1.2-3 1v4c-1 2.8-1 5.5 0 8v1h-2c.3-2 0-3.6-1-5-2.7-6.2-7.3-8.3-14-6.5-4.8 2.8-7.1 7-7 12.5-5.7 1.2-9.6-.8-11.5-6-7.2-7.6-14.7-8-22.5-1l-4-4v-48a3.6 3.6 0 0 0 1.5-1 6.9 6.9 0 0 1 3 5c3-.8 5.9-.1 8.5 2"/><path fill="#9b5c20" d="M351.5 460.5a76.4 76.4 0 0 1-3 19v2c-5 10.7-8.8 21.7-11 33 1.2 1.8 1.2 3.5 0 5 0-3.2-1.4-5.5-4-7 2.6-3.1 4.3-6.8 5-11 1-1.4 1.7-3.1 2-5a134 134 0 0 0 5.5-14 183 183 0 0 1 5.5-22"/><path fill="#b07f54" d="M348.5 481.5v6q-.6 4.95-3 9c-1 1.4-1.7 3.1-2 5-.9 5-2.9 9.3-6 13 2.2-11.3 6-22.3 11-33"/><path fill="#6b2f15" d="M264.5 492.5c1.8-.3 3.2.4 4 2a71 71 0 0 0-4 2c-1.3-.2-2.3.1-3 1-3.1 1-6.5 1.3-10 1-3.9-.3-7.5 0-11 1a65 65 0 0 0-10-1.5 135 135 0 0 0 10-2.5 810 810 0 0 0 24-3"/><path fill="#6d310a" d="M234.5 494.5c2.1-.2 4.1.2 6 1a135 135 0 0 1-10 2.5c3.4.2 6.8.7 10 1.5a191.7 191.7 0 0 1 2 33c-1.4 2.7-2 5.7-2 9 .2 1-.2 1.7-1 2 .1-3.4-.5-3.8-2-1 0-4.9-2.6-7.2-7.5-7-4.7.4-6.9 3.1-6.5 8l-1 2c-1-2.5-1-5.2 0-8 4.6-5 9.6-5.3 15-1l2-1a124.7 124.7 0 0 0-1-36 229 229 0 0 1-23-1.5c-1.9-.2-3.6-.9-5-2a284 284 0 0 0 24-1.5"/><path fill="#efd7c5" d="M261.5 497.5c.7-.9 1.7-1.2 3-1 3.8-.7 6.4.6 8 4a19.2 19.2 0 0 1-5-2.5 18.5 18.5 0 0 0-6-.5"/><path fill="#f5e7d8" d="M345.5 496.5c.4 2.2-.3 3.9-2 5 .3-1.9 1-3.6 2-5" class="H"/><path fill="#f7be4e" d="M340.5 496.5c-.3 1.9-1 3.6-2 5a13 13 0 0 0-.5-5c-.8 3-2.5 4-5 3 0 2.7-1.1 4.5-3.5 5.5-7.7 1.2-15 3-22 5.5-1.3-1.4-3-2.1-5-2a346 346 0 0 0-8-2c1.7-2.2 3.7-2.5 6-1a245 245 0 0 0 35-9.5c1.9-.8 3.6-.6 5 .5"/><use x="-53" y="403" fill="#fce4d0" href="#E"/><path fill="#e2a13b" d="M212.5 494.5a67.5 67.5 0 0 1 22 0 284 284 0 0 1-24 1.5c1.4 1.1 3.1 1.8 5 2a229 229 0 0 0 23 1.5 124.7 124.7 0 0 1 1 36l-2 1c-5.4-4.3-10.4-4-15 1v-4c1.2.2 2.2-.1 3-1l-6.5-11c-.7-.8-1.5-1-2.5-1a54.7 54.7 0 0 1-4-9 341 341 0 0 1-10-5 3.6 3.6 0 0 1 1-1.5 5.7 5.7 0 0 1-3-3.5c1-1.6 1.7-3.2 2-5 2.4.1 4.2-.9 5.5-3 1.4.9 2.9 1.2 4.5 1"/><path fill="#f1decc" d="M275.5 502.5a31.8 31.8 0 0 1 7 2.5c.9.7 1.5 1.5 2 2.5-3.4-1.1-6.4-2.8-9-5" class="C"/><path fill="#f9ca5e" d="M338.5 501.5c-.7 4.2-2.4 7.9-5 11-6.4-2.2-11.9-.9-16.5 4a90 90 0 0 1-9.5-6c7-2.5 14.3-4.3 22-5.5 2.4-1 3.6-2.8 3.5-5.5 2.5 1 4.2 0 5-3a13 13 0 0 1 .5 5"/><path fill="#ecd9c1" d="M284.5 507.5a15.7 15.7 0 0 1 6 7c-.9 1.1-1.7 1.1-2.5 0z"/><path fill="#966e54" d="M317.5 518.5v1c-2.6.2-5 .8-7 2 .1-.9-.2-1.5-1-2-6.2 2.3-11.2 1-15-4 0-3.8 1.8-5.8 5.5-6 3.2.4 6 1.6 8.5 3.5 1.7 1.4 2.3 3.3 2 5.5z"/><path fill="#6a380f" d="M302.5 508.5c2-.1 3.7.6 5 2a90 90 0 0 0 9.5 6c4.6-4.9 10.1-6.2 16.5-4 2.6 1.5 4 3.8 4 7-1.7-1.2-3-3-4-5-3.6-1-7.3-1.3-11-.5-1.6 1.8-3.3 3.3-5 4.5h-7c.3-2.2-.3-4-2-5.5-2.5-2-5.3-3.1-8.5-3.5-3.7.2-5.6 2.2-5.5 6h-2c0-.7-.3-1-1-1a5.7 5.7 0 0 0 1-3c2.8-2.5 6.2-3.5 10-3"/><path fill="#dec8bf" d="M290.5 514.5h1c.7 0 1 .3 1 1 .6.9 1 1.9 1 3-1.5-1-2.5-2.3-3-4" class="F"/><path fill="#84624c" d="M337.5 519.5c-1.4 4-4.3 6.3-8.5 7-3.7-.8-6.9-2.4-9.5-5a3 3 0 0 0-2-2v-1c1.8-1.2 3.4-2.7 5-4.5 3.7-.8 7.4-.6 11 .5 1 2 2.3 3.8 4 5"/><use x="175" y="50" fill="#e0d2c7" class="E" href="#I"/><path fill="#ad948a" d="M296.5 520.5c1.5.5 2.8 1.2 4 2-2 .3-3.3-.3-4-2"/><path fill="#704e3d" d="M292.5 515.5h2c3.8 5 8.8 6.3 15 4 .8.5 1.1 1.1 1 2-3.2 1.9-6.6 2.2-10 1-1.2-.8-2.5-1.5-4-2-1.5 0-2.5-.6-3-2a5.7 5.7 0 0 0-1-3"/><path fill="#c5a796" d="M251.5 498.5a467 467 0 0 1-9 2 3.6 3.6 0 0 1-1 1.5c1.7 8.7 2.7 17 3 25a61 61 0 0 1-2 5.5 191.7 191.7 0 0 0-2-33c3.5-1 7.1-1.3 11-1"/><path fill="#f3e2c3" d="m158.5 526.5 2 4v5a69 69 0 0 1-3-6.5z"/><path fill="#9a7155" d="M237.5 542.5c-1 3.4-3.3 4.8-7 4-3.2.5-5.5-.5-7-3-.4-4.9 1.8-7.6 6.5-8 5-.2 7.4 2.1 7.5 7"/><path fill="#f4dbae" d="m160.5 536.5 4 4c-.7 1.2-1 2.5-1 4h-1c-1.7-2.3-2.4-5-2-8"/><path fill="#f4e2d3" d="M242.5 532.5c-.3 2.4-.3 4.5 0 6.5-.6 1-1.2 1.8-2 2.5 0-3.3.6-6.3 2-9"/><path fill="#967157" d="M219.5 541.5c1 1.4 1.3 3 1 5v1a3 3 0 0 0-2 2c-1.6 1.8-3.6 3.2-6 4 .1-.6.4-1.1 1-1.5a62 62 0 0 1-10.5-1.5 2.4 2.4 0 0 0-.5 2c-3-2.7-6.7-3.7-11-3 2.8-1 5.8-1.3 9-1 .2-9.7 4.8-13.5 14-11.5 2.4 2.3 4 5.1 4.5 8.5a8.4 8.4 0 0 0 .5-4"/><path fill="#64340f" d="M219.5 541.5a8.4 8.4 0 0 1-.5 4c-.6-3.4-2-6.2-4.5-8.5-9.2-2-13.8 1.8-14 11.5-3.2-.3-6.2 0-9 1-1.5 0-2.5.6-3 2l-2-6c-2.8-7.5-8-10-16-7.5-2.6 1-4.2 3-5 5.5q-1.2 1.2-1.5 3a2.4 2.4 0 0 1-.5-2c0-1.5.3-2.8 1-4 7.8-7 15.3-6.6 22.5 1 2 5.2 5.8 7.2 11.5 6-.1-5.6 2.2-9.7 7-12.5 6.7-1.8 11.3.3 14 6.5"/><path fill="#957059" d="M186.5 545.5c.4 2.9-.2 5.4-2 7.5-7 3-13.3 1.8-18.5-3.5a18.5 18.5 0 0 1-.5-6c.8-2.6 2.4-4.4 5-5.5 8-2.5 13.2 0 16 7.5"/><path fill="#edd3cd" d="M222.5 546.5c1-.2 1.7.2 2 1-.8 1-1.5.6-2-1"/><path fill="#694533" d="M239.5 543.5c0 1.5-.6 2.5-2 3a3 3 0 0 0-2 2c-3.8 1.4-7.5 1-11-1-.3-.8-1-1.2-2-1v-1l1-2c1.5 2.5 3.8 3.5 7 3 3.7.8 6-.6 7-4 1.5-2.8 2.1-2.4 2 1"/><use x="-125" y="99" fill="#ddcdc2" class="H" href="#H"/><use x="-142" y="100" fill="#faeedf" class="C" href="#H"/><path fill="#e0d0c1" d="M191.5 549.5a6.5 6.5 0 0 1-3 3v-1c.5-1.4 1.5-2 3-2"/><path fill="#4a2d1f" d="M212.5 553.5c-1.5 1-2.8 1-4 0a19.2 19.2 0 0 0-6-1 2.4 2.4 0 0 1 .5-2 62 62 0 0 0 10.5 1.5c-.6.4-.9.9-1 1.5"/><path fill="#95847b" d="M202.5 552.5a19.2 19.2 0 0 1 6 1c-1.5.6-3 1-4.5 1-.7-.5-1.2-1.2-1.5-2"/><use x="-129" y="498" fill="#baa99f" href="#B"/><path fill="#6a4a3c" d="M165.5 543.5a18.5 18.5 0 0 0 .5 6c5.2 5.3 11.4 6.5 18.5 3.5 1.8-2.1 2.4-4.6 2-7.5l2 6v1c-2.8 3.3-6.5 5-11 5a35.2 35.2 0 0 1-8-2c-.8-1.8-2.1-2.8-4-3-2.7-1.9-3.7-4.6-3-8h1a2.4 2.4 0 0 0 .5 2q.3-1.8 1.5-3"/><defs><path id="B" d="M294.5 54.5c1.9.2 3.2 1.2 4 3-1.9-.2-3.2-1.2-4-3"/><path id="C" d="M310.5 72.5c1.8.8 2.8 2.1 3 4-1.8-.8-2.8-2.1-3-4"/><path id="D" d="M125.5 84.5c0 1.5-.6 2.5-2 3 0-1.5.6-2.5 2-3"/><path id="E" d="M325.5 97.5c1.5 0 2.5.6 3 2-1.5 0-2.5-.6-3-2"/><path id="F" d="M343.5 116.5c1.4.5 2 1.5 2 3-1.4-.5-2-1.5-2-3"/><path id="G" d="M84.5 228.5a3 3 0 0 1-2 2c0-1.3.7-2 2-2"/><path id="H" d="M362.5 447.5c0 1.3-.7 2-2 2a3 3 0 0 1 2-2"/><path id="I" d="M142.5 469.5a3 3 0 0 1 2 2c-1.3 0-2-.7-2-2"/></defs></svg>