<svg version="1.2" xmlns="http://www.w3.org/2000/svg" viewBox="0 0 720 720" width="720" height="720">
	<title>可达鸭</title>
	<style>
		.s0 { fill: #221714 } 
		.s1 { fill: #eeb432 } 
		.s2 { fill: #f0deb8 } 
		.s3 { fill: #cd982c } 
		.s4 { fill: #ffffff } 
		.s5 { fill: #49403b } 
		.s6 { fill: #cdaf97 } 
		.s7 { fill: #2b201c } 
		.s8 { fill: #2c221d } 
		.s9 { fill: #221814 } 
		.s10 { fill: #291f1c } 
		.s11 { fill: #281d1a } 
	</style>
	<g>
		<path fill-rule="evenodd" class="s0" d="m263.8 596.3c-8.9 5.7-17.5 11.4-26.2 16.9-8.4 5.3-16.2 11.2-23 18.3-3.5 3.7-6.6 7.8-9 12.3-0.5 1-1 2.2-1.2 3.4-0.8 3.9 1.1 5.9 5 5.5 13.6-1.4 27.1-2.9 40.6-4.3 2.1-0.2 4.4 0 6.4-0.4 5.2-1.1 9.3 0.8 13.3 4 5.9 4.7 12.2 8.9 18.2 13.6 3.2 2.5 6.3 2.6 9.7 0.6 7-4.1 14-8 21-12.1 1.4-0.8 2.7-1.2 4.4-1 13.9 1.8 27.9 3.1 41.9 3.7 5.1 0.3 5.9-1 4.1-5.9-3.3-8.9-8.6-16.6-14.5-24-0.3-0.3-0.7-0.7-1.3-1.5 5.5 0.4 10.6 0.8 15.6 1.2 19.8 1.5 39.6 2.3 59.4 1 13.1-0.8 26.1-1.3 39-3.6 1.1-0.2 1.6 0.4 2.2 0.8 13.3 9.4 26.4 18.9 41.2 25.5 3.2 1.5 6.4 2.6 9.5 4 2.3 1 3.7 0.3 5.1-1.6 2.7-4.1 5.8-7.9 8.5-12 1.5-2.3 3.5-2.8 6-2.4 10.9 1.7 21.8 3.2 32.6 4.9 6.4 1 6.4 1.1 7.6-5.2 0.4-2.2 1-4.3 1.3-6.5 0.3-1.5 0.8-1.9 2.4-1.7q10.7 1.2 21.3 2.1c2 0.1 4.6 1.2 5.7-1 1.1-2.4-1.1-4.1-2.6-5.7-10.8-11.6-24-19.8-37.8-27.1-6.4-3.5-13.1-6.5-20.3-8.5 1-1.5 2.5-2.3 3.7-3.3 21.1-16.1 36.1-37 47.5-60.8 9-18.7 11.8-38.4 10.6-58.8-1.5-25.4-10.5-48.5-21.8-71-3-6.1-6.2-12.1-9.8-17.9-0.6-0.9-0.7-1.4 0.4-2.2 6.5-4.1 11-10.1 15.1-16.4 7.9-12 11.8-25.4 14.1-39.5 3.5-21.6 2.1-42.8-5-63.4-6.2-17.7-16-33.3-28.8-47-6.3-6.9-12.4-13.9-18.6-20.8-1.2-1.2-1.6-2.5-1.6-4.1 0.2-8.8-1.4-17.3-5.3-25.3-4.3-9-11.1-15.9-19.8-20.8-1.4-0.9-2.1-1.8-2.4-3.5-1.7-9.5-10.4-17.9-21.1-20-9.4-1.8-18.8-1.5-28 1.6-1.4 0.5-2.1-0.1-3-0.7-12.7-8.1-26.2-14.3-40.8-18.3-11.8-3.2-24-4.4-36.2-4.8-13.6-0.4-27.1-0.1-40.5 1.8-1.9 0.3-1.9-0.8-2.3-1.9-3.8-11.5-8.2-22.8-14.7-33.2q-0.7-1.2-1.5-2.3c-4.1-5.8-8-6.9-14.5-4.2q-0.4 0.1-0.7 0.3c-5.1 2.3-5.2 2.4-2.2 7.1 7 11.2 13.8 22.5 18 35q0.4 1.1 0.8 2.2c-0.2 0.1-0.4 0.2-0.5 0.3-3.7 1.6-6.2 0.9-9.3-2.4-14.1-15.2-29.9-28.5-48.5-38.1-2.3-1.3-4.8-2.3-7.3-3.1-4.4-1.5-8 0-10.4 3.9-1.5 2.6-2.4 5.3-2.9 8.2-0.4 2 0.2 3.1 2.1 4.1q17.3 9.7 34.5 19.7c7.1 4.1 13.6 8.9 20.4 13.8-1.2 1.1-2.2 1.2-3.5 0.6-14.1-6.1-29-9.3-43.9-12.1-3.4-0.7-6.8-0.8-10.3-1.2-1.5-0.2-2.4 0.4-2.7 2-1 4.7-0.4 9.4 0.3 14.1 0.2 1.3 1.2 1.5 2.3 1.6 5.5 0.3 11.1 0.7 16.7 1.2 7.5 0.6 14.9 1.4 22.5 2.2-0.3 1.2-1.3 1.3-2.1 1.7-15.9 8.4-30 19.2-42.2 32.4-16 17.4-25.1 38.2-29 61.4-3-2.6-6.1-5.4-9.3-8.1-2.1-1.8-2.6-1.7-3 1-1.7 10.8-3.5 21.5-6.2 32.2-3.4 13.7-11.3 24.9-19.7 35.9-8.5 10.9-17.4 21.4-25.5 32.5-10.1 13.7-20 27.5-25.6 43.7-9.7 28.2-4.3 53.8 16.6 75 12.6 12.8 28.6 19.5 47.1 18.5 1.8-0.2 2.2 0.3 2.1 2-0.2 3.5-0.1 3.5-3.4 2.6-22.5-6.1-45.2-11.5-68.5-13.9-6.9-0.7-13.9-1.2-20.8-0.3-3.5 0.4-4.1 1.5-3.1 4.9 3.1 9.8 8.3 18.7 13.8 27.3 9.8 15 21.6 28.4 33.4 41.7 15.3 17.2 31 33.9 49.2 48.2 10.4 8.3 21.3 15.8 33.3 21.5 0.7 0.3 1.2 0.7 1.6 1.3 7.4 8.1 15.3 15.7 24.1 22.6z"/>
		<path fill-rule="evenodd" class="s1" d="m404.3 626.3c11.6 0.5 23.2-0.4 34.8-1.1 14.9-0.8 29.6-2.7 44.1-6.5 22.3-5.9 43-15.5 62.1-28.5 24.5-16.7 41.9-39.3 54.5-66.1 9.3-19.8 11.7-40.5 9.8-61.9-2.3-24.9-11.8-47.4-23.1-69.3-5.2-10.1-11-19.7-17.8-28.8-0.1-0.1-0.2-0.3-0.3-0.4-0.3-0.6-1.4-1.3-0.5-2 0.8-0.7 1.3 0.5 1.7 1q3.5 4.7 6.9 9.4c2 2.8 2 2.9 4.9 0.8 5.4-4.1 9.3-9.4 13-15 7.5-11.6 11.5-24.5 13.5-38.1 1.4-10 2.4-20 1.7-30.1-1.6-22-8.4-42.2-20.4-60.7-7.2-11.1-16.5-20.4-25.1-30.1-0.7-0.8-1.4-1.6-2.1-2.3-5.4-5-8.1-10.7-8.5-18.6-1.3-23.9-18.5-40.9-41.8-44-3.9-0.5-7.9-0.3-11.9 0.5 0.2 1.1 1.1 1.6 1.8 2.3 18.8 19.2 31 42 37.6 67.9 3.2 12.8 3.3 26 2.9 39.2-0.5 13.8-3.8 26.9-9.4 39.5-5.1 11.5-12.6 21.1-23.5 27.7-1.1 0.7-1.4 1.7-1.6 2.8-0.9 5.4 0.6 10.3 3.9 14.5 7 9.2 14.4 18 21.5 27.1 7.2 9.3 14.5 18.5 19.9 28.9 6.2 11.9 9.7 24.4 9 38-0.6 12.5-5.7 23-14.7 31.4-21.1 19.7-46.3 31-74.6 35.6-15.9 2.6-31.9 2-47.9 1.2-23.9-1.1-46.2-7.7-67.5-18.4-14.8-7.4-27.2-17.7-35.5-32.4-5.6-10.1-8.3-21.1-9.5-32.5-1.9-19.4 1.2-38.4 4.5-57.4 0.9-5.3 1.7-10.5 2.2-15.9 0.2-1.7-0.1-2.4-2.1-2.9-11.1-2.3-21.9-5.7-32.2-10.7-5-2.5-9.7-5.5-14.2-9.5-0.6 6.7-1 12.8-1.5 19-1.9 22.4-5.6 44.4-14.5 65.2-4.5 10.4-9.9 20.3-18.3 28.2-2.9 2.6-6 4.8-9.2 7.1-1.1 2.4-0.6 5.1-0.5 7.6 0.8 12.2 3 24.2 6 36.1 2.9 11.5 7.1 22.4 12.1 33.1 6.2 13.2 13.2 26 21.7 37.8 8.7 11.9 19 22.2 30.9 31 14.5 10.7 29.7 20.2 46.1 27.8 17.2 8.1 34.6 15.8 53 20.9 2.7 0.7 5.4 1.1 8 1.6z"/>
		<path fill-rule="evenodd" class="s2" d="m406.8 486.8c5.1 1.2 10.2 1.5 15.4 1.9 17.5 1.1 35.1 1.8 52.5-1.4 27.5-5 52-16.2 72.2-35.8 10-9.7 14.2-21.9 13.2-35.9-1-15-6.7-28.3-15-40.6-10-14.7-21.6-28.2-32.6-42-4.8-6.1-8.4-12.5-6.3-20.6 1.3-5.2 3.5-9.9 6.7-14.2 1.7-2.3 3.6-4.6 5.3-6.9 2-2.6 3.5-5.5 4.6-8.7 2.1-6.2 0.6-11.3-4.8-15.2-5.7-4.1-12.5-6.1-19-8.5-7.6-2.7-15.5-4.6-22.9-7.7-6.4-2.6-12.1-6.2-17.4-10.6-6.3-5.2-12.2-11.1-19.6-15-10-5.2-20.7-6.8-31.8-5-3.8 0.7-7.4 2.4-10.6 4.6-4 2.9-8.2 5.5-11.7 8.8-6.6 6.2-14.6 9.3-23.1 11.6-10.3 2.8-20.9 3.9-31.3 6.1-9.6 1.9-18.8 4.8-27.8 8.5q-3.3 1.4-6.1 3.5c-2.9 2.1-4.4 4.9-4 8.6 0.7 2.6 2.5 4.2 4.7 5.6 8.8 5.2 17 11.1 24.2 18.4 2.3 2.4 4.4 5.1 5.8 8.1 2.1 4.4 2.3 9 0.7 13.6-2 5.9-3.5 11.9-6 17.6-1.3 3.1-1.6 6.4-2.6 9.6-1.7 7.5-2.9 15.1-3.9 22.8-1.2 9.5-2.6 19-2.2 28.7 0.1 1.1 0.2 2.2 0.4 3.3 1.7 8.7 5.8 16.2 10.9 23.3 7.5 10.2 15.7 19.7 25 28.1 7.4 6.7 15.6 12.5 23.8 18.1 9.8 6.8 20.3 12.3 31.4 16.6 0.7 0.3 1.3 0.3 1.9 0.7z"/>
		<path fill-rule="evenodd" class="s1" d="m308.7 300.7c-4.4-6.7-10-12.5-14.3-19.3-1.8-2.7-3.2-5.4-3.5-8.7-0.3-4.7 1.4-8.2 5.2-10.8 3.2-2.2 6.6-3.7 10.2-5 12.9-5.1 26.4-7.7 40-9.9 6.9-1.1 13.6-2.6 20.3-4.7 6-1.9 11.4-4.6 16.2-8.8 3.7-3.4 8-6.2 12.1-9.2 7.5-5.5 16-6.8 25-6 12.2 1 22.6 5.9 31.7 14 8.6 7.6 17.3 15.1 28.6 18.6 5 1.6 10.1 3.3 15.2 4.9 6.4 2 12.7 4.3 18.7 7.2 11.6 5.5 14.2 13.6 8.4 24.9-1.7 3.4-4.2 6.3-6.6 9.3-1.8 2.3-3.5 4.7-4.8 7.3-0.6 1.3-1.2 2.6-2.1 4.5 3.3-1.7 5.5-3.8 7.7-5.9 10-9.2 15.3-21.1 19.3-33.9 4.7-15.2 4.8-30.8 3.8-46.5-0.2-3.5-0.3-7-1.2-10.8-5.5 14.7-17.5 20.2-31.1 22.5-12.4 2.2-24.7 0.8-36.5-4-4-1.7-7.7-3.9-10.7-7-5.5-5.6-7.1-12.1-4.5-19.3 5.1-14.3 15.7-23.3 30.4-26.2 17.3-3.3 33.1 0.8 46.8 12.7-4-10.1-8.3-19.9-14-28.9-20.3-31.6-48.5-52.6-84.7-62.7-9.7-2.7-19.6-3.8-29.6-4.3-15.2-0.9-30.5-0.8-45.6 1.4-43.3 6.4-79.8 25.1-107.6 59.4-11.4 14.1-17.8 30.8-21.2 48.5-1.6 8.1-0.5 9 7.5 7.4q10.6-2.1 21.3-4.1c4.5-0.8 5-0.5 6.7 3.8 2.3 5.7 4.4 11.6 6.1 17.5 0.4 1.4 1.1 2.2 2.4 2.8 4.8 2.3 9.8 4.3 14.3 7.1 2.5 1.6 2.5 2 0.2 3.9-5.4 4.5-9.3 10.1-11.4 16.9-2.8 9.5-4.8 19.1-5.4 29 1.5 3 4.6 3.9 7.2 5 8.4 3.8 17.2 6.4 26.2 8.3 1.1 0.2 2.7 1.2 3.3-0.9z"/>
		<path fill-rule="evenodd" class="s1" d="m217.2 201c-1.5 10-3.3 19.6-5.3 29.1-3.2 14.1-10.4 26.1-19.1 37.4-9.6 12.4-19.8 24.3-29 37-9.1 12.6-17.9 25.6-23.5 40.3-10.9 28.7-1.6 59 18.6 76.3 11.4 9.8 24.7 15.7 40.1 15.6 16.3-0.1 29.5-7.2 40.1-19.3 8.4-9.6 13.2-21.1 17.4-32.9 6-17 8.6-34.6 10.3-52.5 1.7-17.1 2-34.2 4.1-51.2 1-7.9 2.7-15.6 5.2-23.1 2-6.1 5.5-11.3 10.3-15.5 1.9-1.6 1.4-2.3-0.4-3.1-4.3-2.1-8.6-4.3-13-6.2-1.6-0.6-2.2-1.4-2.6-2.8-1.8-6.6-4.1-12.9-6.6-19.2-0.7-1.7-1.5-2.2-3.3-1.9q-13.5 2.3-26.8 5.3c-2.1 0.4-3.4 0-4.6-1.7-3.2-4.5-7.4-7.9-11.9-11.6z"/>
		<path fill-rule="evenodd" class="s3" d="m404.3 626.3c-4.2-1.7-8.6-2.4-12.8-3.7-9.3-2.7-18.3-6.3-27.3-10.1q-14.8-6.2-29.2-13.5c-15.6-8-30.1-17.5-43.7-28.4-13.6-11-24.5-24.2-33.3-39.2-9.1-15.5-17-31.6-22.5-48.8-3.3-10.1-5.4-20.5-7-31-1.1-7-1.5-14.1-1.6-21.2-6.2 3.2-12.5 6.5-19.6 7.4-1.4 0.2-1.2 1.4-1.3 2.3-0.5 9.2-1 18.5-0.5 27.8 0.5 10.2 1.1 20.3 2.9 30.3 3.2 18.8 8 37 17.5 53.7 8.2 14.1 19.2 26 31.5 36.7 20.8 17.9 45.1 28.4 72.3 32.2 19.5 2.7 39.1 4.2 58.8 5.2 5.3 0.3 10.5 0.5 15.7 0.3z"/>
		<path fill-rule="evenodd" class="s1" d="m209.4 513.2c-1.6-8.3-3.3-16.5-4.2-24.9-1.5-13.2-2-26.4-1.4-39.7 0.1-2.3-0.6-3.1-2.9-3.7-20.4-5.5-40.9-10.5-61.9-13.2-8.9-1.1-17.8-2.1-26.8-1.2-2.1 0.1-2.7 0.8-2 2.8 1.7 5.1 4 9.9 6.5 14.7 7 13.3 16.1 25.1 25.8 36.6 0.9 1.1 1.9 2.2 2.9 3.2 13.4 11.4 28.3 20.2 44.6 26.8 6.4 2.6 12.2 1.1 18.3-0.4 0.5-0.1 0.9-0.5 1.1-1z"/>
		<path fill-rule="evenodd" class="s2" d="m273 602.6c-0.1 0-0.1-0.1-0.2-0.1-2.4-1.7-4.8-4.4-7.3-4.6-2.4-0.1-4.9 2.6-7.2 4.1-11.4 7.5-23.2 14.2-33.8 22.8-6.6 5.4-12.6 11.5-16.8 19-0.9 1.5-1.7 3.1-1.6 4.8 0 1.4 0.5 2.4 2.1 2.2 3.7-0.3 7.4-0.5 11-1.2 7.6-1.3 14.8-3.7 22.3-5.2 6.7-1.4 13.5-2.4 20.4-3.2 2-0.3 3.5 0.6 4.8 1.9 3.3 3 6.1 6.4 9 9.6 1.6 1.9 3.5 3.3 5.1 5.1 2.8 2.2 5.8 4.3 8.6 6.6 2.3 2 4.6 1.7 7.1 0.3 6.6-3.8 13.3-7.4 19.8-11.4 2.9-1.7 5.5-2.2 8.8-1.8 13.4 1.7 26.8 3 40.3 3.5 2.8 0.1 3.1-0.1 2.1-2.8-3.6-9.9-9.4-18.3-16.2-26.1-1.5-1.7-3.5-1.1-5.3-1.3-3.1-0.4-6.1-0.3-9.2 0.6-7.6 2.3-15.3 3.9-23 5.7-9.1 2.2-16.5-0.5-23.5-6.2-6.5-5.3-11.1-11.9-15.1-19.1q-1-1.7-2.2-3.2z"/>
		<path fill-rule="evenodd" class="s2" d="m498.8 642c6.8 4.1 14 7.6 21.5 10.4 1.7 0.7 2.7 0.3 3.7-1.2 2.7-4.2 5.7-8.3 8.9-12.3 1.6-2.2 3.6-2.9 6.3-2.4 11.9 1.8 23.8 3.5 35.7 5.3 2 0.3 2.6-0.4 2.9-2.1 0.5-3.1 1.2-6.1 1.8-9.2 0.3-2 1.3-2.8 3.5-2.6 7.7 0.8 15.4 1.5 23.1 2.1 0.9 0.1 1.7 0.1 2.7 0.1-0.2-1.8-1.4-2.9-2.4-4-10.7-11.3-23.8-19.4-37.5-26.7-6.1-3.2-12.5-6-19.2-8.1-1.4-0.4-2.5-0.3-3.8 0.6-4.1 2.8-8.3 5.4-12.5 8.1-13 10.4-27.2 18.7-42.9 24.4q-1 0.4-1.9 0.8c-2.1 1.1-2.5 1.9-1.5 4.1 2.3 5 6.6 8.1 10.4 11.7 0.4 0.4 0.9 0.5 1.2 1z"/>
		<path fill-rule="evenodd" class="s4" d="m496 178.8c-18.4-1-33.1 12.5-37.5 23.1-4.1 9.8-1.7 17.8 7.2 23.6 6.6 4.3 13.9 6.3 21.6 7.3 11.2 1.5 22.2 0.8 32.6-3.9 4.8-2.2 9.1-5 12.4-9.1 7.6-9.5 6.9-22.9-4.3-31-9.6-6.9-20.4-10.1-32-10z"/>
		<path fill-rule="evenodd" class="s3" d="m209.4 513.2c-9.3 3.8-17.8 1.9-26.5-2.3-13.1-6-24.9-14-36.4-22.5-0.3-0.3-0.7-0.4-1.1-0.5 5.5 7 11.5 13.6 17.6 20.2 16.1 17.6 32.7 34.7 52.3 48.5 6.4 4.5 12.8 8.8 20.4 12.5-4.4-5.8-8.6-11.2-11.9-17.1-6.4-11.7-10.8-24.2-13.9-37.1-0.1-0.6-0.3-1.1-0.5-1.7z"/>
		<path fill-rule="evenodd" class="s3" d="m308.7 300.7c-1.6 1.5-3.3 0.2-4.8-0.1-8.3-1.9-16.6-4.3-24.4-7.8-2.6-1.1-5.3-2.4-7.5-4.4-1 6.3-0.8 12.7-1.5 19-0.1 1.2 0.7 1.8 1.5 2.5 6.9 6.3 15.2 9.9 23.7 13.3 7 2.7 14.3 4.5 21.6 6.2 1.7 0.5 2.1-0.1 2.1-1.6 0.1-3-0.1-5.9-1-8.7-2.2-6.7-5.5-12.8-9.7-18.4z"/>
		<path fill-rule="evenodd" class="s5" d="m264.7 66.4c-0.3 1.3 0.5 2 1.7 2.7 13 7.4 26.3 14.4 39 22.6 5.2 3.3 10.2 6.9 15.2 10.5 1.1 0.9 2 0.9 3.2 0.5 2.5-0.8 5-1.7 7.6-2.4 1.7-0.5 1.7-1 0.6-2.3-5.7-6.7-12.2-12.5-19-18.1-6.5-5.3-12.9-10.7-20-15.2-5.6-3.5-11.3-7-17.7-8.9-3.9-1.2-6.4 0-8.4 3.4-1.2 2.1-2.2 5.4-2.2 7.2z"/>
		<path fill-rule="evenodd" class="s6" d="m406.8 486.8c-1.7-1.3-3.7-2-5.7-2.8-13.1-5.6-25.1-13.1-36.5-21.5-9.3-6.8-18-14.1-25.6-22.7-7.7-8.7-15.5-17.5-20.6-28.1-1.8-3.8-3.1-7.8-4.7-11.7 0.3 29.7 12.9 52.6 38.7 67.6 16.6 9.6 34.6 15.7 53.4 19.2 0.3 0 0.7 0 1 0z"/>
		<path fill-rule="evenodd" class="s6" d="m273 602.6c3.7 8.1 8.3 15.6 15.2 21.4 2.4 2 4.9 4 7.6 5.6 5.7 3.3 11.7 3.6 17.9 2.2 8.5-1.9 17.1-3.7 25.4-6.3 2.2-0.8 4.6-0.6 6.9-0.7-4.8-0.7-9.5-1.4-14.3-1.9-20.1-2.2-38.8-8.9-56.2-19-0.8-0.5-1.7-0.8-2.5-1.3z"/>
		<path fill-rule="evenodd" class="s6" d="m319.5 345.2c1.8-3.2 2.1-7 3.6-10.3 2.5-5.9 4.2-12 6-18 2-6.5-0.1-12.3-4.1-17.6-4.8-6.3-11.1-10.9-17.3-15.5-3.3-2.5-6.8-4.8-10.4-6.7-2-1.2-3.3-2.9-4.6-4.7 0.1 2.7 1.2 5.1 2.7 7.3 3.1 4.6 6.3 9 9.8 13.3 5.4 6.4 9.8 13.4 13.3 21.1 2.6 5.8 3 11.9 2.3 18.1q-0.7 6.5-1.3 13z"/>
		<path fill-rule="evenodd" class="s5" d="m332.4 53.2c-2.8 0.3-5.6 0.8-8.1 2.2-1.4 0.8-1.6 1.3-0.7 2.7 4.8 7.9 9.9 15.7 13.8 24.1 2 4.3 3.9 8.6 5.3 13.1 0.4 1.2 0.9 1.8 2.4 1.4 2.9-0.7 5.8-1.2 8.8-1.6 1.6-0.2 1-1 0.8-1.8-1.1-4.5-2.9-8.8-4.7-13.1-3.2-7.6-6.3-15.4-11.3-22.1-0.9-1.2-1.8-2.3-2.6-3.5-1-1.3-2.2-1.5-3.7-1.4z"/>
		<path fill-rule="evenodd" class="s5" d="m315 106c-4.8-2.1-9.3-3.9-13.9-5.2-8.9-2.5-18-4.7-27.2-6.5-3.4-0.6-6.9-0.8-10.4-1.3-1.9-0.2-2.7 0.7-2.9 2.4-0.2 3.5 0 7 0.5 10.5 0.1 0.9 0.7 1 1.5 1.1 4.5 0.3 9 0.7 13.5 1 8.1 0.4 16.2 1.4 24.3 2.5 2.6 0.3 5.1 0.6 7.6-1 2-1.4 4.3-2.2 7-3.5z"/>
		<path fill-rule="evenodd" class="s1" d="m480.2 117.6c0.4 1.3 1.2 1.6 1.8 2 5.1 3.6 10.1 7.5 14.5 12 0.8 0.9 1.6 1.4 2.9 1.1 8.6-1.8 16.9-0.4 25 2.6 0.6 0.3 1.3 1 1.9 0.4 0.6-0.5 0-1.3-0.1-1.9-1.3-5-4.2-9-8.4-12.1-11.7-8.5-24.6-6.5-37.6-4.1z"/>
		<path fill-rule="evenodd" class="s6" d="m498.8 642c-2.1-3-5-5.2-7.5-7.8-1.4-1.5-2.6-3.2-3.5-5-1-1.8-0.8-2.7 1.3-3.4 6.8-2.5 13.5-5.4 19.9-8.9 7.9-4.3 15.7-8.9 22.6-14.8 0.7-0.6 1.2-1.3 1.9-2-7.1 3.4-14 7.2-21.3 10.4-12.5 5.6-25.5 9.5-39 12.4-0.6 0.1-1.3 0.3-2 0.5 0.1 0.2 0.1 0.5 0.3 0.6 8.6 6.1 17.2 12.3 26.3 17.7 0.3 0.1 0.7 0.2 1 0.3z"/>
		<path fill-rule="evenodd" class="s6" d="m280.8 657.8c-1.1-2.4-3.3-3.9-4.9-5.9-2.8-3.4-6.1-6.5-9.1-9.7-1.3-1.4-2.9-2-4.6-1.8-14.5 1.5-28.6 4.9-42.6 8.9-0.1 0.1-0.2 0.2-0.4 0.4 7.5-0.8 14.9-1.5 22.3-2.3 6.1-0.7 12.3-1.1 18.5-1.5 3-0.1 5.5 0.8 7.9 2.5 4.2 3.2 8.6 6.3 12.9 9.4z"/>
		<path fill-rule="evenodd" class="s7" d="m390.8 257.8c0.3 0.4 0.5 0.7 0.8 1q4.1 3.8 8.1 7.5c0.5 0.3 0.9 1 1.6 0.4 0.6-0.6-0.1-1.1-0.4-1.5-2.5-2.8-5.5-5.2-8.4-7.5-0.3-0.3-0.7-0.6-1.1-0.4-0.2 0.1-0.4 0.3-0.6 0.5z"/>
		<path fill-rule="evenodd" class="s8" d="m450.7 257.7c-2.3 0.5-2.9 1.9-3.9 2.9-1.9 1.9-3.5 4.1-5 6.5-0.3 0.4-0.6 0.9 0 1.3 0.1 0.1 0.7 0 0.8-0.2 2.9-3.1 5.4-6.5 8.1-10.5z"/>
		<path fill-rule="evenodd" class="s9" d="m336.7 234.6c6.4 0.1 15.5-1.6 24.4-4.7q5.5-1.9 10-5.7c11.6-9.5 12.6-24.7 2.3-35.6-8.8-9.4-19.8-14.4-32.3-16.4-11.1-1.8-22.1-1.8-32.8 2-10.1 3.6-18.7 9.3-24.3 18.7-5.8 9.6-6 23.1 6.2 31.7 6.9 5 14.8 7 23 8.3 6.8 1.1 13.7 1.7 23.5 1.7z"/>
		<path fill-rule="evenodd" class="s10" d="m492.9 203c1.3 0 2.3 1 2.3 2.3 0 1.2-1 2.2-2.3 2.2-1.4 0-2.4-1-2.4-2.2 0-1.3 1-2.3 2.4-2.3z"/>
		<path fill-rule="evenodd" class="s4" d="m333.9 232.6c8.9 0.4 17.6-1.3 26.1-4.2 3.8-1.3 7.1-3.2 10.1-5.7 10.3-8.5 11.4-22.1 2.6-32.2-4.1-4.7-9.1-8.5-14.8-11.1-15.6-7.3-31.9-8.7-48.5-3.6-10.1 3.1-18.6 8.9-24.1 18.3-5.4 9.4-4.9 21.8 6.4 29.3 7.2 4.9 15.4 6.8 23.7 8 6.1 0.9 12.2 1.4 18.5 1.2z"/>
		<path fill-rule="evenodd" class="s11" d="m335.4 199.3c1.3 0 2.4 0.9 2.4 2.2 0 1.2-1.1 2.2-2.4 2.2-1.4 0-2.4-1-2.4-2.2 0-1.3 1-2.2 2.4-2.2z"/>
	</g>
</svg>