<svg version="1.2" xmlns="http://www.w3.org/2000/svg" viewBox="0 0 64 64" width="64" height="64">
	<title>bulbasaur</title>
	<style>
		.s0 { fill: #e8edf1 } 
		.s1 { fill: #33552b;stroke: #000000;stroke-linecap: round;stroke-linejoin: round;stroke-width: .7 } 
		.s2 { fill: #d7ede6;stroke: #000000;stroke-width: .7 } 
		.s3 { fill: #7fc8ad } 
		.s4 { fill: #d8ede6 } 
		.s5 { fill: #ffffff } 
		.s6 { fill: #be3e57 } 
		.s7 { fill: #c03d55 } 
		.s8 { fill: #4cb08b } 
		.s9 { fill: #7aa659 } 
		.s10 { fill: #a9d691 } 
		.s11 { fill: #4d7f40 } 
		.s12 { fill: none;stroke: #000000;stroke-linecap: round;stroke-linejoin: round;stroke-width: .7 } 
		.s13 { fill: #f1f1f1 } 
		.s14 { fill: none;stroke: #000000;stroke-width: .7 } 
		.s15 { fill: #17706c;stroke: #000000;stroke-width: .7 } 
		.s16 { fill: #d9ede6 } 
		.s17 { fill: #196f6e;stroke: #000000;stroke-width: .7 } 
		.s18 { opacity: .22;fill: #d8ede6 } 
		.s19 { opacity: .38;fill: #d7eee7 } 
		.s20 { fill: #18706e;stroke: #000000;stroke-width: .7 } 
		.s21 { fill: #ffffff;stroke: #000000;stroke-linecap: round;stroke-linejoin: round;stroke-width: .7 } 
		.s22 { fill: #f1f1f1;stroke: #000000;stroke-linecap: round;stroke-linejoin: round;stroke-width: .7 } 
		.s23 { fill: none;stroke: #000000;stroke-linecap: round;stroke-width: .7 } 
		.s24 { fill: #ab4b57;stroke: #000000;stroke-width: .7 } 
		.s25 { fill: #de8080 } 
	</style>
	<g>
		<path fill-rule="evenodd" class="s0" d="m33.5 51.3c14.4 0 26.1 2.7 26.1 6.2 0 3.4-11.7 6.2-26.1 6.2-14.4 0-26-2.8-26-6.2 0-3.5 11.6-6.2 26-6.2z"/>
		<path fill-rule="evenodd" class="s1" d="m31.7 10q-0.2 0.7-0.4 1.4-0.1 0.8-0.2 1.5 0 0.7 0.1 1.5 0.1 0.7 0.3 1.4 0.2 0.7 0.5 1.4c0.9 1.8 2.3 3.3 4.1 4.3 2 1.1 4.2 1.6 6.3 2.1 2 0.6 4 1.3 5.3 2.6 0.8 0.9 1.4 2 1.6 3.2q0 0.4 0 0.9 0 0.4-0.1 0.9-0.1 0.4-0.3 0.8-0.2 0.4-0.4 0.8c-0.6 1-1.6 1.9-2.8 2.4-1.1 0.5-2.1 0.8-3.3 0.6-0.2 0.3-0.3 0.7-0.8 1 1.5 0.3 3.3 0.2 4.7-0.5 1.4-0.6 2.6-1.6 3.4-2.9q0.3-0.4 0.5-0.9 0.2-0.5 0.3-1.1 0.2-0.5 0.2-1.1 0-0.5-0.1-1.1c-0.2-1.4-0.8-2.8-1.9-3.9-1.6-1.6-3.9-2.4-6-2.9-2.1-0.6-4.1-1-5.9-2-1.5-0.9-2.8-2.2-3.5-3.7q-0.3-0.6-0.5-1.2-0.1-0.6-0.2-1.3-0.1-0.6-0.1-1.2 0.1-0.7 0.2-1.3c0.3-1.7 1.2-3.2 2.6-4.4 1.3-1.2 3-1.9 4.8-2.2l-0.2-1.3c-2.1 0.3-4.1 1.2-5.6 2.6q-0.4 0.3-0.8 0.8-0.4 0.4-0.7 0.9-0.3 0.4-0.6 0.9-0.3 0.5-0.5 1z"/>
		<path class="s1" d="m45 3.9c-2.5 0-2.8 1.2-3.6 1.7-0.9 0.5-2 0.3-2.6-0.5-0.6-0.8-0.3-1.8 0.5-2.3 0.9-0.6 4.3-1.3 5.7 1.1z"/>
		<g>
			<path fill-rule="evenodd" class="s2" d="m37.1 54.7c0.4-0.2 1.1 1.6 1.1 1.6 0 0-1.9-0.4-1.8-0.8q0.2-0.5 0.7-0.8zm10.2 0.2c0.4-0.2 1 1.4 1 1.4 0 0-1.8-0.4-1.7-0.8q0.2-0.4 0.7-0.6z"/>
			<path fill-rule="evenodd" class="s3" d="m51.6 39.6l-0.8-1.7-0.3-1.5-0.5-1.6-0.8-2.3-0.5-0.7-2.3 0.8-2 1.2h-1.8l-3.7 0.1-2 0.3-0.8 0.3-1.8-0.8-1.6-0.6-0.4-0.1-0.6 1.3-0.4 1.1-0.6 1.8-0.3 2-1.9 1-2.2 1.1-2.8 2.5-2.5 3.4-1.4 3.1-0.2 1.6 0.1 2 0.8 2.3 1.4 1.1 2.1 0.5 1.7-0.3 1.2-0.9 0.8-1.2 0.2-0.4 1-0.1 0.1 0.1 1.1 1.3c0.5 0.4 0.6 0.7 1.1 1 0.5 0.3 0.9 0.6 1.4 0.8 0.4 0.1 1.4 0.3 1.8 0.2 0.8 0 1.6-0.1 2.2-0.5 0.2-0.2 0.4-0.5 0.4-0.7 0.2-0.5 0.1-1.7 0.1-1.7l0.3 0.3q0.2-0.2 0.5-0.5 0.2-0.2 0.4-0.4 0.2-0.3 0.4-0.6 0.2-0.2 0.3-0.5l0.6-0.4 0.9-0.3c0 0 0.3 0.7 0.5 1.1 0.3 0.7 0.6 1.5 1.2 2.1q0.2 0.1 0.4 0.3 0.2 0.1 0.4 0.3 0.2 0.1 0.4 0.2 0.3 0.1 0.5 0.1 0.1 0.1 0.3 0.1 0.2 0 0.3 0 0.2 0 0.4 0 0.1 0 0.3 0 0.2-0.1 0.4-0.1 0.3-0.1 0.5-0.2 0.2-0.1 0.4-0.2 0.2-0.2 0.4-0.3c0.5-0.4 0.9-1 1.2-1.5 0.4-0.7 0.8-2 0.8-2l0.3-2.2v-1.8l1.8-1.4 1.6-1.5 1.4-1.4v-0.7l-0.6-0.7-0.5-0.7-0.4-1.2z"/>
			<path fill-rule="evenodd" class="s4" d="m48.9 32.1l1.2 3.1 0.4 1.1c0 0 0 0.5-0.2 0.6-0.4 0.3-1 0.4-1.3 0.2-0.5-0.4-0.3-1.1-0.2-1.6 0.3-1.4 0.1-2.3 0.1-2.3l-0.2-1"/>
			<path fill-rule="evenodd" class="s5" d="m37.4 40.8l0.7 0.8 0.8 1.4 0.8 1.9-1 0.3-1.3 0.2h-0.7v-0.4l0.4-0.8 0.4-1.7-0.1-1.2z"/>
			<path fill-rule="evenodd" class="s6" d="m35.3 39.3l1.1 0.7 0.8 0.7 0.3 0.8v1.4l-0.2 1-0.6 1.1-0.1 0.4-1.9-0.3-1.8-0.3-0.2-0.6 0.2-1.3 0.4-1.3 0.7-1.2 0.6-0.6z"/>
			<path fill-rule="evenodd" class="s7" d="m49.3 44l0.4-0.2 0.1-1.1-0.4-2.6-0.5-1.1-0.6-0.8-0.2-0.4-0.5 0.9-0.3 0.8-0.2 1.9 0.1 1.8 0.5 1 1.4-0.1z"/>
			<path fill-rule="evenodd" class="s4" d="m32.3 33.2l3.4 1.5 1.1 0.5c0 0 0.5 0.3 0.5 0.6 0 0.3-0.3 0.8-0.6 0.8-0.6 0.1-1.1-0.5-1.5-0.9-1-1.2-1.9-1.7-1.9-1.7l-1-0.6"/>
			<path fill-rule="evenodd" class="s8" d="m34.2 58.3l-6.5-9c0 0 0 0-0.1 0.8-0.2 0.7 0 1.5 0.2 2.2q0 0.2 0.1 0.5 0 0.2 0.1 0.4 0.1 0.3 0.2 0.5 0.1 0.2 0.2 0.5 0.4 0.7 1 1.4 0.1 0.2 0.3 0.4 0.2 0.2 0.3 0.3 0.2 0.2 0.4 0.3 0.2 0.2 0.4 0.4c0.4 0.3 0.8 0.7 1.4 0.9 0.4 0.1 2 0.4 2 0.4zm-5.2-18.4l-4.4 2.6-3.5 4.2-1.8 3.5 0.1 3.5 0.9 2.8 1.6 1.1 2.2 0.2c0 0 1-0.2 1.4-0.5 0.1-0.2 0.5-0.4 0.5-0.4-8.2-2.9-2.2-13.8 3-17z"/>
			<path fill-rule="evenodd" class="s9" d="m40.5 33.7l-1.3-1.9-1.5-1.1-2-0.6-1.5-0.1-1-0.1-2.1 0.1h-1.4-0.7l-1.2-0.1-1.1-0.2-0.6-0.5-1-0.5-0.4-0.4-0.5 0.6-0.8-0.6-0.4 0.7-0.7-0.5-0.3 0.6-0.1 0.5-0.5-0.2-0.3 0.5-0.5-0.1-0.2 0.3 0.2 0.6 0.2 1v0.9l-0.1 0.5-0.2 0.8-0.2 0.7-0.4 0.9-0.6 0.9-0.7 1-0.5 1-0.3 0.8-0.4 1v1l0.1 1.1 0.3 1.2 0.9 1.8 0.8 0.9 0.9 0.9 0.5 0.1 1.2-1.9 0.9-1.1 1-1 0.7-0.7 0.9-0.5 0.8-0.8 1.3-0.7 0.8-0.4 0.8-0.4 0.5-0.2 0.5-0.1 0.3-1.8 0.3-0.7v-0.6l0.1-0.4 0.8-2 0.3-0.8 0.2-0.1 0.9 0.4 0.5 0.2 1.1 0.3 0.6 0.4 0.6 0.2 0.8-0.2 0.8-0.2 1.2-0.1 1-0.2z"/>
			<path fill-rule="evenodd" class="s10" d="m31.8 33.7c0 0-2-0.2-3-0.4-0.7-0.2-1.6-0.3-2.2-0.7-0.5-0.2-0.8-0.6-1.1-1-0.2-0.3-0.4-0.9-0.4-0.9 0 0 1.2 0.3 1.8 0.3q0.7 0.1 1.4 0.2c0.5 0 1-0.1 1.6 0 0.5 0 1.1 0 1.7 0.2 0.4 0.1 0.8 0.2 1.1 0.4 0.4 0.2 0.7 0.4 0.9 0.7 0.3 0.3 0.7 0.9 0.7 0.9l0.1 0.5-1.6-0.6-0.6-0.3z"/>
			<path fill-rule="evenodd" class="s10" d="m40.3 33.8l-1-1.7-1.7-1.3-2.3-0.7-2.1-0.1-1.6 0.1c0 0-1.3 0.1-2.4 0-0.4 0-2.3-0.2-2.3-0.2 0 0 0.3 0.7 2.2 0.7 2 0.1 4-0.1 5.8 0.5 3.6 1.8 3.4 3 4.1 2.8 0.4-0.1 0.9 0.2 1.3-0.1z"/>
			<path fill-rule="evenodd" class="s11" d="m21.1 30.1c0 0 1.5 1.8 1.9 2.9 0.5 1.4-0.2 3.1 0.4 4.4 0.5 1 1.7 2.3 2.8 2.2 2.5-0.3 4.7-2.4 4.7-2.4l-0.4 1.9-3.6 1.9-1.8 1.5-2 2-1.1 1.3-0.9 1.2-1.7-1.2-1.1-1.6-0.5-1.7-0.1-1.7 0.7-2.6 1.3-2.2 0.7-1.2 0.6-2 0.1-1.6-0.2-1.1z"/>
			<path fill-rule="evenodd" class="s12" d="m40.3 53.2c0.8 2.4 2.5 4 4.4 4 2.5 0 4.3-3 4.3-7q0-0.8-0.1-1.4m-21.3 0.5c-0.4 1.4-0.1 3.3 1 5.2 1.6 3 4.3 4.3 6.3 3.8 1-0.3 1.6-0.2 1.8-0.9 0.5-1.4-0.3-4.1-1.4-6.1q-0.2-0.3-0.3-0.5-0.2-0.3-0.4-0.5-0.1-0.2-0.3-0.5-0.2-0.2-0.4-0.4m-14 6c0.5 1.5 2 2.6 3.7 2.6 2.3 0 4.1-1.8 4.1-3.9q0-0.4-0.1-0.9"/>
			<path fill-rule="evenodd" class="s12" d="m19.7 49.7c-0.2 0.8-0.4 1.7-0.4 2.6 0 1.2 0.2 2.3 0.7 3.4m10.4-16.3c-5 1.8-9 5.6-10.7 10.4m26.3-15.4q-0.5-0.1-1.1-0.2-0.6-0.1-1.1-0.2-0.6-0.1-1.2-0.1-0.6-0.1-1.2 0-2.9 0-5.5 0.7m-3.5 13.9c2.4 1.6 5.9 2.4 8.4 2.4 5.2 0 9.9-2.4 12.7-6 0 0 0.2-0.3 0.2-0.6 0-0.3-0.2-0.5-0.2-0.5q-0.2-0.2-0.4-0.4-0.2-0.2-0.3-0.5-0.2-0.2-0.3-0.5-0.1-0.2-0.1-0.5m-0.1 0.1c-0.4-1.8-0.7-3-1.9-4.5m-18.2-4.4c-1.4 3-2.2 6.4-2.2 9.9m7.4-7.6q-0.7-0.4-1.3-0.7-0.6-0.3-1.3-0.6-0.7-0.3-1.3-0.6-0.7-0.2-1.4-0.4m16.6-1.1q-0.6 0.1-1.2 0.3-0.6 0.2-1.2 0.5-0.6 0.2-1.1 0.5-0.6 0.3-1.1 0.7"/>
			<path fill-rule="evenodd" class="s13" d="m49.9 43.8l0.8-0.2 0.6-0.4-0.2-1.1-0.8-2.1-0.7-1.3-0.5-0.7-0.5-0.5h-0.1l-0.4 0.4 0.8 1.2 0.5 1.5 0.3 1.5 0.1 1.3z"/>
			<path fill-rule="evenodd" class="s12" d="m50.5 37.6c0-2.1-0.7-3.9-1.8-5.6m-12.3 22c3.3-0.9 4.5-1 6.5-1.9m-6.1 4c-0.3-0.9 0 0.1 1-1 0.4-0.4 0.7-1.2 1.1-1.6"/>
			<path fill-rule="evenodd" class="s14" d="m28.9 55.1h-1.2"/>
			<path fill-rule="evenodd" class="s12" d="m40.4 33.7c-3-7.1-11.6-1.1-15.6-5.5m-3.9 18.9c-4.8-2.8-3.5-8.1-2.1-10 1.8-2.3 2.6-4.8 1.7-7"/>
			<path fill-rule="evenodd" class="s12" d="m23.1 44c-2.6-0.4-4-3.8-2.2-6.9 1.5-2.3 1.1-4.9 0.2-7.2m13.5 4.1c-2-5.5-8.7-0.8-11.4-4.9"/>
			<path fill-rule="evenodd" class="s12" d="m24.7 28.1l-0.4 0.7c0 0-0.7-0.8-0.9-0.5-0.1 0.2-0.3 0.8-0.3 0.8 0 0-0.6-0.8-0.8-0.6-0.3 0.2-0.2 1.2-0.2 1.2 0 0-0.4-0.3-0.6-0.3-0.3 0-0.3 0.6-0.3 0.6 0 0-0.5-0.2-0.6-0.2-0.1 0-0.1 0.5-0.1 0.5l0.1-0.1"/>
			<path fill-rule="evenodd" class="s12" d="m20.9 47.1c-4.8-2.8-3.5-8.1-2.1-10 1.8-2.3 2.6-4.8 1.7-7"/>
			<path fill-rule="evenodd" class="s12" d="m23.1 44c-2.6-0.4-4-3.8-2.2-6.9 1.5-2.3 1.1-4.9 0.2-7.2m13.5 4.1c-2-5.5-8.7-0.8-11.4-4.9"/>
			<path fill-rule="evenodd" class="s12" d="m24.7 28.1l-0.4 0.7c0 0-0.7-0.8-0.9-0.5-0.1 0.2-0.3 0.8-0.3 0.8 0 0-0.6-0.8-0.8-0.6-0.3 0.2-0.2 1.2-0.2 1.2 0 0-0.4-0.3-0.6-0.3-0.3 0-0.3 0.6-0.3 0.6 0 0-0.5-0.2-0.6-0.2-0.1 0-0.1 0.5-0.1 0.5l0.1-0.1m19.8 3.5c-3-7.1-11.6-1.1-15.6-5.5"/>
			<path fill-rule="evenodd" class="s15" d="m26.5 41.4c4.6-0.6 2.4 1.8 1 4-0.4 0.7-2.4 0.7-3.2 0.4-0.5-0.6 0-2.3 0-2.3l0.2-0.6z"/>
			<path fill-rule="evenodd" class="s16" d="m45.9 34.5l-1.2 1-6.3-1.2c0 0 1.2-0.3 2-0.3 0.7 0 2.8 0.1 3.5 0.1 0.8 0.1 2 0.4 2 0.4z"/>
			<path fill-rule="evenodd" class="s17" d="m45.9 51.9l1.6 0.4c0.2 0.8 0.9 1.7 0.2 2.3 0 0-0.4 0.6-0.7 0.7-0.2 0.1-0.4 0.1-0.6 0.1-0.6-0.2-1.1-0.7-1.3-1.3-0.1-0.4 0.1-0.8 0.2-1.1 0.1-0.4 0.6-1.1 0.6-1.1z"/>
			<path fill-rule="evenodd" class="s18" d="m48.7 49.1c0 0 0.1 2.6-0.4 4.5-0.3 0.8-0.8 1.7-1.2 2.2-0.4 0.5-1.1 0.9-1.1 0.9 0 0-0.1-0.9-0.1-1.7 0-1.5 0.7-4.9 0.7-4.9l1-0.5 1-0.4z"/>
			<path fill-rule="evenodd" class="s17" d="m36.1 53.1l-1.3-0.8c0 0-0.6-0.5-1-0.6-0.1-0.1-0.4-0.2-0.5-0.1-0.2 0.1-0.3 0.3-0.3 0.5 0.2 0.8 0.3 1.7 0.6 2.4 0.1 0.2 0.2 0.4 0.4 0.6 0.2 0.1 0.5 0.1 0.7 0.1 0.2 0.1 0.4 0.1 0.6 0.1 0.2 0 0.7-0.3 0.7-0.3l0.3-0.4 0.1-0.4z"/>
			<path fill-rule="evenodd" class="s19" d="m33.6 49.4l0.6 0.7 1.3 2c0 0 0.4 1 0.6 1.5 0.2 0.5 0.4 1.5 0.4 1.5l0.1 0.6 0.1 0.7c0 0-1.1-1.2-1.5-1.9-0.5-0.7-0.6-1.4-0.7-2.1-0.3-1.2-0.5-1.7-0.5-1.7z"/>
			<path fill-rule="evenodd" class="s17" d="m31.7 50.9c-0.1 0.1-0.1 0.2-0.3 0.3-0.1 0.1-0.3 0.1-0.5 0.1q0 0 0 0 0 0-0.1 0 0-0.1 0-0.1 0 0 0 0c-0.1-0.2-0.1-0.4-0.1-0.5 0.1-0.4 0.4-1 0.4-1l0.5 0.2 0.5 0.3c0 0-0.2 0.5-0.4 0.7zm-5.3 1.3l-0.3 0.8-0.3 0.6c0 0-0.3 0.5-0.5 0.7-0.1 0-0.2 0.1-0.3 0.1-0.2 0-0.5-0.2-0.6-0.4-0.4-0.3-0.9-1-0.9-1 0-0.1-0.2-0.5-0.2-0.7 0-0.3 0.2-0.9 0.2-0.9l0.2-1c0 0 0.2-0.5 0.4-0.6 0.2 0 0.6 0.1 0.6 0.1l1.1 0.8 0.6 0.5 0.3 0.2c-0.1 0.4-0.3 0.6-0.3 0.8zm-3.4-2c0 0.1 0.1 0.3 0.1 0.5 0 0.1-0.1 0.3-0.2 0.4q0 0 0 0 0 0-0.1 0 0 0 0 0-0.1 0-0.1 0c-0.2 0-0.3-0.1-0.5-0.3-0.2-0.2-0.7-0.8-0.7-0.8l0.6-0.2 0.5-0.3c0 0 0.3 0.5 0.4 0.7z"/>
			<path fill-rule="evenodd" class="s20" d="m45.5 37.7c0.2 0.5-0.4 0.5-0.9 0.8-0.2 0.1-0.6 0.3-0.6 0.3l-0.5 0.2c0 0-1.2-0.6-1.7-0.9-0.5-0.2-1-0.4-1.5-0.7-0.3-0.2-0.6-0.3-0.8-0.6-0.1-0.1-0.2-0.2-0.2-0.4 0-0.1 0.2-0.3 0.3-0.4q0 0 0.1 0 0 0 0 0 0.1-0.1 0.1-0.1 0.1 0 0.1 0c0.6-0.1 1.2 0 1.7 0.1 0.5 0.1 1 0.1 1.4 0.2 0.5 0.2 1.5 0.7 1.5 0.7zm-3 3.6l-0.1 1c0 0-0.8-0.2-1.1-0.4-0.4-0.4-0.9-1-0.6-1.4 0.1-0.2 0.5-0.1 0.7 0 0.4 0.1 1.1 0.8 1.1 0.8z"/>
			<g>
				<path fill-rule="evenodd" class="s14" d="m35.4 39.2c0 0-1 0.3-2 2.4-0.9 2-0.5 3.1-0.5 3.1"/>
				<path fill-rule="evenodd" class="s14" d="m34.7 39c0 0 1.9 0.7 3 2.1 1.4 1.8 1.9 3.9 1.9 3.9 0 0-1.5 0.5-3.4 0.3-2.7-0.3-3.4-0.7-3.4-0.7"/>
				<path fill-rule="evenodd" class="s14" d="m37.2 40.5c0 0 0.5 1.3 0.1 2.9-0.4 1.6-0.7 1.9-0.7 1.9"/>
				<path fill-rule="evenodd" class="s21" d="m35.2 40.8c0.4 0 0.8 0.7 0.8 1.5 0 0.9-0.4 1.6-0.8 1.6-0.4 0-0.7-0.7-0.7-1.6 0-0.8 0.3-1.5 0.7-1.5z"/>
			</g>
			<g>
				<path fill-rule="evenodd" class="s14" d="m47.7 44.3c0 0-0.8-1.7-0.5-4.4 0.2-2.1 1.8-2.9 1.8-2.9"/>
				<path fill-rule="evenodd" class="s14" d="m48.4 37.4c0 0 0.9 0.3 1.9 2.5 1 2.3 1 3.3 1 3.3 0 0-0.5 0.4-1.8 0.7-1.2 0.3-2 0.3-2 0.3"/>
				<path fill-rule="evenodd" class="s14" d="m48.1 37.9c0 0 0.9 1 1.4 2.8 0.5 1.7 0.3 3.1 0.3 3.1"/>
				<path fill-rule="evenodd" class="s22" d="m48.8 43c-0.3 0.1-0.7-0.5-0.8-1.2-0.2-0.8 0-1.5 0.3-1.5 0.3-0.1 0.6 0.5 0.8 1.3 0.1 0.7 0 1.4-0.3 1.4z"/>
			</g>
			<path fill-rule="evenodd" class="s17" d="m46.2 40.1l-0.6-0.2-0.5-0.3c0 0-0.2 0.7-0.3 1 0 0.2-0.1 0.4 0 0.5q0 0 0.1 0.1 0 0 0 0 0 0 0.1 0 0 0 0 0c0.2 0.1 0.3 0 0.5 0 0.1-0.1 0.2-0.3 0.3-0.4 0.2-0.2 0.4-0.7 0.4-0.7z"/>
			<path fill-rule="evenodd" class="s2" d="m46.5 55.8c0.4-0.2 1 1.4 1 1.4 0 0-1.8-0.4-1.7-0.7q0.2-0.4 0.7-0.7zm-2 0.6c0.2-0.1 0.7 1.2 0.7 1.2 0 0-1.4-0.4-1.3-0.6q0.2-0.4 0.6-0.6zm-7.9 0.4c0.3-0.1 0.8 1.3 0.8 1.3 0 0-1.5-0.4-1.4-0.7q0.1-0.3 0.6-0.6zm-1.2 1.1c0.4-0.1 0.4 1.4 0.4 1.4 0 0-1.5-0.8-1.3-1.1q0.3-0.3 0.9-0.3zm-1.9 0.2c0.4 0.1-0.2 1.3-0.2 1.3 0 0-1-1.1-0.7-1.2q0.4-0.2 0.9-0.1zm-7.3-1.4c0.4-0.2 0.8 1.2 0.8 1.2 0 0-1.5-0.3-1.4-0.6q0.1-0.3 0.6-0.6zm-1.6 0.7c0.3-0.1 0.4 1.2 0.4 1.2 0 0-1.4-0.6-1.2-0.8q0.2-0.3 0.8-0.4zm-2 0c0.4-0.1 0.5 1 0.5 1 0 0-1.4-0.5-1.2-0.7q0.2-0.2 0.7-0.3z"/>
			<path fill-rule="evenodd" class="s23" d="m44 46.1l-0.5-0.2m1.6 0.1l0.1-0.4"/>
			<path fill-rule="evenodd" class="s4" d="m37 38.3l1.4 1.2 0.5 0.4c0 0 0.2 0.4 0.2 0.6 0 0.3 0 0.7-0.2 0.8-0.2 0.1-0.4-0.5-0.6-0.8-0.5-1.1-0.9-1.5-0.9-1.5l-0.4-0.5"/>
			<path fill-rule="evenodd" class="s23" d="m39.3 41.1c0 0-0.3-0.8-0.5-1.2-0.7-1-1.1-1.2-1.1-1.2"/>
			<g>
				<path fill-rule="evenodd" class="s24" d="m51.2 44.9c0 0 0.4 0.4 0.2 0.5-0.9 0.3-4.6 1.2-6.6 2.1-2.8-0.6-4.1-0.7-7.9-0.7 0 0-1.7 0.1-2.5-0.1-0.5-0.1-1.5-0.5-1.5-0.5l0.6 0.4c0 0 1.9 1.7 3.1 2.3 1.2 0.5 1.3 0.8 3.9 1.1 1.7 0.2 3.7-0.1 3.7-0.1 0 0 1.7-0.2 4-1.6 0.8-0.5 3.3-3 3.3-3"/>
				<path fill-rule="evenodd" class="s2" d="m47.8 46.7c-0.3 0.2 0.7 1 0.7 1 0 0 0.5-1.3 0.1-1.3q-0.4 0.1-0.8 0.3zm-11.4 0.2c-0.4 0.2 0.4 1.3 0.4 1.3 0 0 1-1.2 0.6-1.3q-0.6-0.1-1 0z"/>
			</g>
			<path fill-rule="evenodd" class="s25" d="m48.1 48.2c0 0-3.7-0.5-5.4-0.4-1.7 0.2-5.1 1.3-5.1 1.3 0 0 0.2 0.2 0.9 0.4 0.7 0.2 2.4 0.4 3.1 0.4 1 0 2.9-0.1 3.8-0.4 0.9-0.3 1.9-0.9 2.7-1.3z"/>
			<path fill-rule="evenodd" class="s16" d="m45.7 44.5l0.6 0.2c-0.5 0.9-1.3 1.2-0.6-0.2z"/>
		</g>
		<path fill-rule="evenodd" class="s1" d="m15.5 16.7q0.6 0.4 1.2 0.9c1.5 1.4 2.5 3.2 2.8 5.2q0.1 0.7 0.1 1.4 0.1 0.8-0.1 1.5-0.1 0.7-0.3 1.4-0.2 0.8-0.6 1.4c-0.9 1.9-2.5 3.4-3.9 4.9-1.4 1.5-2.6 3.1-2.9 4.9q-0.1 0.5-0.1 0.9 0 0.5 0.1 0.9 0 0.4 0.2 0.9 0.1 0.4 0.3 0.8c0.6 1 1.6 1.9 2.7 2.5q0.4 0.2 0.9 0.3 0.4 0.1 0.9 0.2 0.5 0.1 1 0.1 0.4 0 0.9-0.1c1.3-0.2 2.3-0.4 3.2-1.2 0.3 0.2 0.7 0.4 1.3 0.5-1.1 1-2.7 1.8-4.3 2q-0.5 0.1-1.1 0.1-0.6 0-1.2-0.1-0.6-0.1-1.1-0.3-0.6-0.1-1.1-0.4c-1.4-0.6-2.6-1.7-3.3-3q-0.3-0.5-0.4-1-0.2-0.6-0.3-1.1-0.1-0.5-0.1-1.1 0-0.5 0.1-1.1c0.4-2.2 1.8-4 3.2-5.5 1.5-1.5 2.9-3 3.8-4.7q0.3-0.5 0.5-1.1 0.2-0.6 0.3-1.3 0.1-0.6 0.1-1.2-0.1-0.7-0.2-1.3c-0.3-1.7-1.1-3.3-2.4-4.5-1.3-1.2-3-2-4.8-2.3q-0.6-0.1-1.3-0.1-0.7 0-1.4 0-0.6 0.1-1.3 0.3-0.7 0.2-1.3 0.4l-0.6-1.2q0.8-0.3 1.5-0.5 0.8-0.2 1.6-0.3 0.7 0 1.5 0 0.8 0 1.6 0.1 0.6 0.1 1.1 0.3 0.6 0.1 1.1 0.4 0.6 0.2 1.1 0.5 0.5 0.2 1 0.6z"/>
		<path class="s1" d="m0.8 18.3c2.1-1.2 3-0.4 4-0.4 1.1 0 1.9-0.8 1.9-1.7 0-1-0.8-1.7-1.9-1.7-1 0-4.3 1.1-4 3.8z"/>
	</g>
</svg>