<svg version="1.2" xmlns="http://www.w3.org/2000/svg" viewBox="0 0 720 720" width="720" height="720">
	<title>24</title>
	<style>
		.s0 { fill: #221714 } 
		.s1 { fill: #df5626 } 
		.s2 { fill: #fcd13d } 
		.s3 { fill: #f3e07c } 
		.s4 { fill: #ec7823 } 
		.s5 { fill: #ec7923 } 
		.s6 { fill: #b96728 } 
		.s7 { fill: #dac743 } 
		.s8 { fill: #dd7f7d } 
		.s9 { fill: #b24952 } 
		.s10 { fill: #f6b657 } 
		.s11 { fill: #dfeeea } 
		.s12 { fill: #ffffff } 
		.s13 { fill: #dfede9 } 
		.s14 { fill: #b1cac1 } 
		.s15 { fill: #1d7373 } 
		.s16 { fill: #533638 } 
		.s17 { fill: #b96628 } 
		.s18 { fill: #fbfcfc } 
		.s19 { fill: #f9f9fa } 
		.s20 { fill: #f7f8f8 } 
		.s21 { fill: #f6f5f6 } 
		.s22 { fill: #ac9b58 } 
		.s23 { fill: #261912 } 
		.s24 { fill: #231815 } 
		.s25 { fill: #f6b656 } 
		.s26 { fill: #2e1e16 } 
		.s27 { fill: #2a1d15 } 
		.s28 { fill: #2e1d16 } 
		.s29 { fill: #2e1e15 } 
		.s30 { fill: #291a14 } 
		.s31 { fill: #251913 } 
		.s32 { fill: #1b7575 } 
		.s33 { fill: #fdfeff } 
		.s34 { fill: #c5c2c1 } 
	</style>
	<g id="cdpnGB_1_">
		<g>
			<path fill-rule="evenodd" class="s0" d="m106.9 399.6c-1 18.3-0.8 36.4 1.6 54.5 4.2 32.9 13.6 64.1 32.2 91.7 21.6 31.9 51.6 51.2 90.1 56.2 18 2.4 36 1.1 53.9-2 1.8-0.3 2.6 0.1 3.5 1.7 3.9 8 9.4 14.9 15.7 21 1.6 1.5 1.6 2.4 0.4 4.1-3.9 5.8-7.8 11.6-9.3 18.6-2.1 9.6 2.4 18.4 11.4 22.1 1.3 0.5 1.9 1.3 2.7 2.4 4.6 6.1 10.9 10 17.8 12.9 1.7 0.7 2.1-0.4 2.2-1.7q0.1-3 0.1-6c-0.1-1.2 0-1.8 1.7-1.7 2.4 0.1 3.9 0.8 4.7 3.2 1.1 2.9 2.7 5.5 4.6 7.9 1.1 1.3 2 1.5 3.4 0.4 2.8-2.4 5.5-4.8 7.9-7.6 1.1-1.3 5.1-2.2 6.6-1.6 0.7 0.3 0.6 0.8 0.7 1.3 0.1 1 0.3 2 0.3 2.9 0 3.5 0.3 4.1 4.5 3.3 5.1-1.1 10-2.6 14.6-5.1 2.5-1.3 4.7-2.9 6.3-5.3 0.2-0.4 0.5-0.8 0.9-1 7.3-4.2 8.9-11.3 9.3-18.8 0.4-8.7-2.2-16.8-4.4-25-1-3.6-2.9-7.2-2.7-10.6 0.1-3.4 3.2-6.3 4.8-9.5 2.8-5.2 5.5-10.5 7.6-16 0.5-1.2 1-1.8 2.4-2 13.3-1 26.3-3.2 39.1-6.8 1.1-0.3 1.7 0.1 2.3 0.9 8.4 10.9 15.6 22.7 21.8 35.1 0.9 1.7 0.4 3.5 0.1 5.2-1.4 7.7-2.7 15.4-3.5 23.1-0.5 4.7 0.1 5.8 4.6 7.5 8.6 3.3 17.6 4.7 26.7 5.7 20.3 2.2 40.7 3.2 61.2 3.6 7.4 0.1 14.9 1.3 22.4 1.3 4.6 0 9.1-0.7 13.7-1.1 1-0.1 2.3 0 2.9-1.1 0.6-1.3-0.5-2.1-1.2-3-0.2-0.3-0.5-0.6-0.9-1.1 3.1-0.2 6-0.4 8.9-0.6q5.5-0.3 11-0.7c2.9-0.2 3.5-1.2 2-3.7-0.6-1-1.2-1.9-2-3.2 4.4 0 8.5 0.2 12.5-0.4 2.5-0.4 3-1 1.6-3.1-4.7-7.1-10.8-12.4-18.9-15.1-2.1-0.7-3.9-1.6-5.7-2.9-12.4-9-26.5-14.7-41.1-19.4-0.7-0.2-1.3-0.4-2-0.7-2.4-1-2.9-3.4-0.9-5.2 6.3-6.1 12.4-12.3 15.7-20.9 4.9-13.1 3.5-25.8-2.2-38.3-7.2-15.5-18.4-27.7-31.2-38.6-2.1-1.8-5.2-3.4-5.9-5.6-0.6-2.1 1.6-4.9 2.5-7.4 9.9-28.2 15.3-57.1 14.1-87q-0.4-9.8-0.8-19.7c-0.1-1.1 0-1.9 1.3-2.4 20.6-8.7 37.1-22.7 52.2-38.9 9.9-10.7 18.4-22.5 26.7-34.4 3.1-4.3 6.4-8.3 11.5-10.5 2.3-1 4.3-2.6 5.9-4.6 1.8-2.2 1.6-4-0.6-5.7-3.4-2.6-6.9-5.2-10.4-7.7-1.7-1.3-2.1-2.7-1.8-4.8 0.8-6.7 1.4-13.4 0.2-20.1-0.8-4.4-1.9-5-5.6-2.4-12.5 8.7-25.7 15.8-39.8 21.5-13.9 5.6-28.2 9-43 9.8q-1.5 0.1-3 0.1c-0.2 0-0.3-0.1-0.8-0.2 6.1-3.5 11.4-7.7 16.3-12.4 16.6-16.3 28.8-35.2 33.6-58.2 1-4.7 2.5-8.9 4.8-13.2 5.5-10.1 7.2-20.6 1.1-31.2-3.8-6.6-9.3-11.3-16.2-14.4-1.4-0.7-2-1.4-2.2-3-2.9-25.3-11-48.9-24.7-70.6q-0.7-1.1-1.1-2.4-3.3-8.6-11.7-12.4c-1.5-0.7-2.6-1.7-3.6-3.1-12.8-17.8-30.4-27.2-52.1-29.1-15.5-1.3-30.8-0.6-45.7 4.6-38.1 13.1-61.1 40-71.5 78.4-6.2 23.1-5.2 46.1-0.4 69.2 3.2 15.8 5.1 31.9 4.7 48.1-0.5 16.3-4.1 31.9-11 46.7-0.7 1.5-1.5 1.7-2.9 1.7-12-0.8-23.5-3.7-35-6.9-20.2-5.5-39.7-12.8-58.6-21.6-1.4-0.7-2.8-1.2-4.3-1.7-3.6-1-4.6-0.2-4.6 3.5-0.1 5.9 1.1 11.7 3.2 17.3 0.9 2.5 0.3 5 0.4 7.5 0 0.9-1 1.2-1.6 1.6-3.1 2.2-6.2 4.3-9.3 6.5-2.6 1.9-3 3.4-1.6 6.2 2.7 5.3 6.7 9.3 11.6 12.4 1.9 1.2 3 2.7 4 4.6 7.5 13.9 16.9 26.2 29.9 35.5 8.7 6.2 18.3 10.4 28.6 13.2 2 0.6 2.4 1.2 1.8 3.3-4.5 16-10.7 31.5-16 47.3-7 21.3-14 42.6-18.3 64.8-1 5.4-1.9 10.9-2.4 16.4-0.2 1.8-0.8 3-2 4.2-10.2 9.9-22.5 15.1-36.4 16.9-14.8 2-29.5 2-43.9-2.8-29.6-9.8-51.6-28.8-67.1-55.6-8.2-14.1-12.1-29.6-13.7-45.7-0.5-4.4-1.1-8.9-1.1-13.4 0.3-1.1 0.5-2.2-1-2.6-1.9 0.1-1.8 1.5-1.8 2.8 1.3 18 3.5 35.8 11.3 52.5 4.5 9.6 10.3 18.4 17 26.6 10.9 13.3 24 23.6 39.3 31.3 11 5.6 22.7 9.7 35.1 10.4 16 1 31.9 0.2 46.9-6.6 4.9-2.3 9.6-5.2 13.7-8.8 0.6-0.5 1.1-1.2 2.1-1.4-0.7 10.2-0.2 20.3 1.7 30.3 0.3 1.6-0.3 3-0.8 4.4-2.6 6.4-4.5 13.1-5.5 19.9-0.9 6-1.5 11.9-0.8 17.9 0.2 2.1-0.8 2.8-2.4 3.2-4 0.9-8 1.4-12 1.7-18 1.3-35.7-0.5-53.3-4.4-8.3-1.8-16.5-4-24.3-7.6-3.7-1.7-7.3-3.6-10.8-5.8-9-6-17.3-12.7-24.9-20.4-8.8-9.1-16-19.2-22.3-30.1-4.5-7.8-8-16.1-11.5-24.3-3.9-8.8-5.1-18.3-6.7-27.6-3.4-19.2-2.8-38.5-2.8-57.9 0-1 0.3-1.9 0.4-2.9 0.1-1.1 0.2-2.2-1.2-2.6-2.2 0.2-1.9 1.6-1.5 3z"/>
			<path fill-rule="evenodd" class="s1" d="m106.9 399.6c0.9-0.7-0.5-2.3 1-2.8q0.3-0.4-0.2-0.7c-7.1-2.5-10.6-7.7-12-14.9-1.6-8.5-1.7-17.1-1.4-25.7 0-2.5 0.9-4.8 2.8-6.7 6-6.2 8.9-13.6 8.4-22.2-0.1-1.3-0.3-2.7 0.2-4 1-0.2 1.3 0.6 1.7 1.1 2.7 3.7 4.8 7.6 5.4 12.2 0.3 2.8 1.1 5.5 3.3 7.5 1 0.9 2.1 1.5 3.6 1.4 1.5 0 2.4-0.8 2.2-2.3-0.5-5 0.8-9.5 2.7-14.1 2.2-5.5 2.5-11.4 2.2-17.4-0.5-7.7-2.7-15-2.6-22.7 0.1-5.6 1.5-10.6 3.7-15.6 0.3-0.8 0.8-1.6 1-2.5-0.2 2.2-0.4 4.3 0.8 6.3 0.5 0.7 0.6 1.5 0.7 2.3 0.2 4.2 1.3 8.3 2 12.5 0.4 2.2 1.6 3.5 3.8 4 1.9 0.3 2.9 1.5 3.3 3.4 0.2 1.1 0.6 2.2 1.2 3.2 0.8 1.1 1.6 2.2 3.1 1.5 1.2-0.5 1.3-1.7 1.2-3-0.2-1-0.6-2-0.6-3.1-0.1-1.9 0.5-3.4 2.5-3.9 4.5-1 6.5-4.4 8.1-8.2 1.1-2.7 1.6-5.5 2.2-8.8 2.3 3.7 3.1 7.4 3.1 11.4-0.1 1-0.5 2.1 0.5 3 0.1-0.1 0.4-0.1 0.4-0.2 1.6-5.1 5.2-8.7 8.5-12.6 3.1-3.7 1.8-8.4 1.5-12.7-0.2-2.9-1.3-5.5-2.6-8.1q-2-4.3-3.9-8.6c-0.5-1.2-1.2-2.4-2.1-3.4-5.1-5.7-5.1-5.7-5.3-13.5-2.8 2.9-4.1 5.9-4.4 9.7-1.7-1.8-1.3-3.7-1.5-5.9-2.4 2.1-3.3 4.5-3.1 7.5-5.7-1.6-9.9-4.6-12.1-9.9-1.2-2.8-2.2-5.8-2.2-8.8-0.1-4.8-1.8-9.1-3.8-13.3-2-4.3-4.1-8.6-4.8-13.4-0.2-1.4-0.7-2.9-1.8-4.2-1 0.8-0.6 1.9-0.5 2.7 0.7 9.6-1.1 18.5-6 26.8-2.2 3.7-1.7 8.1-2 12.1-0.3 4.6 0 9.2-2.5 13.3-0.8 1.3-0.9 2.9-0.5 4.5 0.2 0.6 0.1 1.2 0.1 1.8 0.1 1.8-1.1 2.8-2.5 3.5-1.5 0.7-2.2-0.7-3.1-1.5-1.8-1.8-1.8-4.3-2.7-6.8-1.5 1.4-1.6 3.1-2.4 5.1-5.2-5-8.7-10.8-11.6-17.7-1.3 2.9-1.5 5.5-1.8 7.9-0.6 5.9-1.2 11.8-0.6 17.8 0.5 4.8-0.7 9.4-1.9 14-2.6 9.7-3.5 19.5-2.6 29.6 0.1 1.1 0 2.3 0 3.4-4-0.8-4.8-1.6-8.4-9.3-0.9 1.2-0.6 2.7-1.1 3.8-3.3 7.9-0.2 15.7-0.2 23.6 0 3.8-0.6 8 2.1 11.4 0.1 0.1 0.1 0.4 0 0.5-1.7 4.1 1.2 6.3 3.5 8.8 4.4 4.6 6.1 10.4 7 16.6 0.7 5.2 0.8 10.5 1.8 15.7 2 9.9 7.6 16.6 18.2 18.2 0.3 0.1 0.6 0.3 1 0.4z"/>
			<path fill-rule="evenodd" class="s2" d="m160.8 290.9c0-9.3-0.5-11.5-4.1-16.4-0.5 2.5-0.9 4.9-1.4 7.3-0.6 2.8-1.8 5.4-3.5 7.7-1.2 1.6-2.6 2.8-4.6 3-3.5 0.5-3.8 2.5-3.6 5.4 0.1 0.8 0.3 1.6 0.6 2.4 0.4 1.1 0.4 2.3-0.7 2.8-1.1 0.5-1.7-0.7-2.2-1.5-0.3-0.4-0.7-0.9-0.7-1.4-0.4-3.3-1.6-5.6-5.3-5.9-1.2-0.1-1.9-1.2-2.1-2.5-0.7-4.7-1.6-9.3-2.3-14-0.5-2.9-1.9-5.8-1.6-9-3 4.8-5.2 9.9-5.7 15.6-0.7 7 0.6 13.9 1.7 20.8 1.4 8.9 1.4 17.7-2.7 26.2-1.7 3.3-2.1 7.2-1.3 11 0.3 1.5-0.4 1.9-1.7 1.9-2.4 0-3.6-1.6-4.6-3.3-1-1.8-1.4-3.9-1.7-5.9-0.7-5.7-3.5-10.2-7.5-14.1-0.2-0.2-0.5-0.2-1-0.4 0 2.1-0.1 4 0 5.9 0.5 8.7-2.5 16-8.6 22.1-1.9 1.7-2.6 3.9-2.7 6.2-0.2 9.8-0.4 19.5 2 29.1 1.4 5.3 4.5 9.3 9.3 11.9 0.9 0.5 2 0.8 3.1 0.6 1.4-0.9 2.3-2.2 3.5-3.3 3.6-3.1 7.3-2.5 9.7 1.6 0.3 0.6 0.5 1.3 1.3 1.6 0.7 0.6-0.3 1.7 0.6 2.3 3.9 1.1 7.7 2 11.9 1.1 4.9-1 8.6-3.3 10.5-8.1 0.6-1.6 1.8-2.6 3.2-3.5 2.3-1.5 3.8-3.4 3.5-6.4-0.2-1.7 0.6-3 1.9-3.9 1.2-0.9 2.4-1.6 3.6-2.5 3.8-3 6.3-6.8 5.9-12-0.2-2.9-0.2-5.9-1-8.7-2.2-8.3-1.5-16.6 0-24.8 0.6-3.5-0.3-6.1-2.9-8-6.7-4.8-6.6-9.9-4.8-18.3 0.1-0.5 0.4-1.1 0.8-1.4 3.4-3 4.2-7.2 5.2-11.2z"/>
			<path fill-rule="evenodd" class="s3" d="m512.8 531c10.1-13.8 18.3-28.5 23.6-44.9 9.1-28 13.2-56.6 11.6-86-0.6-11.4-0.5-22.9-3.2-33.9-6-24.9-18.2-46.4-37.5-63.5-1-0.6-2.1-0.3-3.1 0.1-10.2 3.6-20.7 4.9-31.4 5.1-12.6 0.2-25.1-0.2-37.5-2.8-1-0.2-2-0.2-2.9 0.3-13.8 10.8-23.6 24.9-32.2 39.9-16.3 28.4-27.8 58.7-33.7 90.9-3.9 21.7-5.3 43.6-3.6 65.6 1 13.3 2.9 26.3 6.6 39.1 2.1 7 5 13.6 9.1 19.7 1.1 0.4 1.9-0.3 2.7-0.8 19.9-11.7 40.9-21.1 62.7-28.7 10.3-3.7 20.8-6.8 31.8-7.8 9.3-1 18.6-1.4 27.5 2.4 2.3 1 4.5 2.2 6.3 4 0.9 0.8 1.7 2 3.2 1.3z"/>
			<path fill-rule="evenodd" class="s4" d="m323.3 374.9c-8.5 25.2-17.8 50.2-25 75.8-5.5 19-9.5 38.2-10.4 58-0.3 7.7 0.4 15.3 1.9 23.2 2.1-2.5 4-4.9 6-7.1 3.6-4.1 7.9-7.4 12.9-9.4 0.6-0.3 1.4-0.9 1.8 0.1 0.3 0.8-0.6 0.9-1.1 1.2-15.7 8.2-22.6 22-25.4 38.6-1.4 8-1.9 16-0.6 24.1 2 3.5 5.3 5.6 8.6 7.5 16.4 9.9 34.3 15.8 53.1 18.8 2.7 0.4 5.2-0.6 7.4-2.1 9-6 15.9-13.8 21.2-23.2 2.1-3.6 4.3-7.2 5.8-11.2 0.3-0.9 0.9-1.8 0.3-2.8-11.5-16.5-15.8-35.3-17.9-54.8-1.2-10.4-1.7-20.9-1.6-31.3 0.7-37.1 8.6-72.6 23.5-106.5 8-18.1 17-35.6 29.2-51.3 4.8-6.2 10.2-11.9 16.3-17-0.2-1.6-1.6-1.3-2.5-1.5-11.2-2.6-22-6.4-32.2-11.5-8.2-4.2-15.6-9.6-22.6-15.4-1.2-1-2.2-2.4-4.1-2.3-1.2 3-2.4 6-3.8 8.9-0.6 1.3-0.3 1.8 1.1 1.7 1.2 0 2.4 0.1 3.5 0.1 0.5 0 1 0 1.1 0.6 0.1 0.7-0.5 0.9-1.1 0.9-0.7 0-1.4 0-2.1 0-12.7 0.1-25.1-2.2-37.4-5.4q-33.2-8.8-64.3-23.3c-1.8-0.9-4.1-2.6-5.7-1.5-1.5 1.2-0.4 3.9-0.2 5.9 0.3 3.8 1.2 7.4 2.4 11 0.9 0.6 1.3-0.1 1.5-0.8 0.4-1.7 1.3-1.3 2.3-0.6 2.7 1.8 5.1 3.9 7.8 5.6 1.1 0.2 2.1-0.2 3.2-0.4 4.3-1 8.6-1.8 13.1-1.4-4.3-0.1-8.4 0.8-12.5 1.7-4.2 0.9-4.7 1.8-3.2 5.7 1.4 3.7 3.2 7.4 4.9 11 3 6.6 6 13 10.4 18.8 9.5 12.7 21 23.1 34.9 30.9 11 6.2 22.5 10.7 34.8 13.1 2.4 0.5 2.7 1.2 1.8 3.4-3.7 9.1-10.5 15.1-19.6 17.9-5.1 1.6-10.5 0.6-15.1-2.6-0.7-0.5-1.3-1.4-2.4-1.1z"/>
			<path fill-rule="evenodd" class="s5" d="m596 200c9.2-18.7 0-33-13.4-40.6-2.3-1.2-4.3-1.8-6.6 0.2-1.1 0.9-2.6 1.5-4 2.1-4 1.9-3.9 1.8-6-2.1-10-19.3-16.4-39.6-18.8-61.2-0.4-3.7-0.7-7.5-0.3-11.3 0.2-2.1 0.9-4 2.4-5.5-0.8-3.1-4.5-6.3-7.8-6.6-3.2-0.3-6.3 0.2-9.1 1.8-1.8 1.5-1.7 3.8-2.1 5.8-0.3 1-0.4 1.9-0.6 3-0.7-2.5 1.1-4.9 0.3-7.3-0.8-0.7-1.8-0.6-2.8-0.7-4.2-0.1-7.7-1.8-10.7-4.8-4.3-4.2-8-8.9-12.1-13.3-6.2-6.5-13.5-11.1-21.8-14.3-10.4-3.9-21.1-4.9-32-4.6-1.6 0.1-3 1-4.7 0.7-22.7 7.2-42.6 18.5-56.5 38.6 0.1 1.3 1.1 1 1.8 0.9 2.4-0.3 3.5 1 3.9 3.1 0.8 4.3 1 8.6 1.6 12.8 1.3 9.7 1.7 19.5 3.8 29.1 0.3 1 0.4 2.1 1.2 3 0.3 0.4 0.8 0.2 1.2-0.1 1.7-1.8 2-4.3 3-6.5 1.5-3.4 3.6-6.4 5.8-9.3 4.5-6 14.8-6.3 20.3-1 6.9 6.5 11 14.5 14.2 23.1 4.3 11.4 6.2 23.4 7.6 35.4 0.5 4.1 0.7 8.2 1.1 12.3 0.3 2.7-0.9 4.3-3.3 5.5-4.6 2.3-9.5 3.4-14.6 4.1-4.9 0.6-9.9 0-14.7 0.9-4.1 3.9-4.7 8.5-1.5 13 4.5 6.4 11.1 10.3 18.2 13.2 13.4 5.5 27.3 8.8 41.5 10.8 17.7 2.5 35.3 5.4 53 7.5 4.8 0.6 9.4-0.2 13.8-2.3 15.5-7.7 29.8-17.3 43-28.4 2.3-1.9 3.9-4.6 5.7-7z"/>
			<path fill-rule="evenodd" class="s6" d="m402.8 128.4c-0.6 0.3-0.9 0.3-1-0.5-1.3-5.4-2.1-10.8-2.7-16.3-0.6-5.8-1.3-11.6-2-17.5-0.4-3.2-0.5-6.5-1.2-9.7-0.9-4.7-1-4.6-5.8-4.1-0.2 0.1-0.5-0.2-0.7-0.4-6.3 8.3-10.8 17.5-14.5 27.2-6.3 16.7-9.3 34.1-8.5 52 0.5 10.3 2.2 20.4 4.3 30.5 2 9.1 2.8 18.4 3.7 27.6 0.6 7 1.1 13.9 0.7 20.9-0.7 12.6-2.9 24.8-7.2 36.7 9.1 7.4 18.3 14.7 29 19.6 10.1 4.6 20.5 8.4 31.5 10.5 0.3 0.1 0.6 0.4 0.9 0.5 11.1-9.2 24-14.1 38.8-16-17.5-6.3-33.5-14.4-47.1-27.5 1.9-0.5 2.5 0.5 3.2 1 16.8 13.5 35.4 23.4 56.7 27.6 10.8 2.2 21.7 4 32.7 3 14.2-1.2 26.9-6.7 37.6-15.8 17.5-14.9 30.5-32.9 37.1-55.2 1-3.3 1.9-6.7 2.4-10.6-2.7 2.4-4.6 4.6-4.9 8.1-0.4 4.3-1.9 8.4-3.4 12.4-0.4 1.1-0.7 2.4-2.4 1.3-1.4-0.9-1.1 0.7-1.4 1.2-5 12.1-11.7 23.2-21.4 32.2-8.8 8.1-18.8 14.6-30.7 17.5-6.4 1.6-12.7 0.7-18.9-0.3-14.3-2.3-28.4-5.5-41.5-11.8-16.4-7.8-31.3-17.5-40.5-33.9-0.6-1-1.1-1.9-1.5-2.9-1.7-4.1-3-8.5-7.7-10.4-0.2 0-0.3-0.2-0.4-0.4-0.9-1.3-3.2-3.3-2.4-4 1.4-1 2.2 1.6 3.4 2.5 4.7 3.8 10.2 5.8 16 7.2 12.8 3.1 25.8 4.8 38.8 6.5 14 1.8 27.9 3.8 41.8 5.7q10.5 1.4 21 2.8c3.7 0.5 7.1-0.5 10.3-2.3 15-8.5 29.4-17.9 41.8-30.1 3.8-3.8 7.1-8.2 9.3-13.3-9 10.5-20.4 17.8-31.8 25.2-7.3 4.6-14.6 9.4-23.2 11.6-4.4 1.1-8.7 0.1-13-0.4-8.2-1-16.4-2.4-24.6-3.5-19.4-2.7-38.8-5.2-57.5-11.4-7.8-2.7-15.2-6.1-21.2-11.8-6.3-6-6.6-8.6-2.4-16.1-1.1-1.3-2.5-1.2-4-1.3-5-0.3-9.7-1.6-14.2-3.6-1.9-0.8-3-2.1-3.4-4.2-1.5-9.9-2.2-19.9-1.5-29.9 0.5-8.1 1.7-16.1 3.8-23.9 0.2-0.7 0.5-1.5-0.2-2.2z"/>
			<path fill-rule="evenodd" class="s5" d="m122.4 396.3c-1.1-2.9-2.3-5.8-6-5.8-4 0.1-6.7 2.4-8.4 5.9q-0.1 0.2-0.1 0.4c1.4 0.4 1 1.5 1 2.5-1.5 26.5-0.9 53 5.9 78.7 5.1 19.1 14.6 36.4 26.6 52.2 9.8 13 21.6 23.9 35.5 32.5 9.6 4.8 19.9 6.9 30.4 8.3 4.8 0.6 9.7 1.1 14.5 1 13.5-0.3 27-1.4 40.1-5.3 5.8-1.8 11.5-3.9 16.9-6.8 1.2-0.6 2.4-1.2 2.9-2.6 1.2-7.4 3-14.6 6.2-21.3 0.4-0.8 0.5-1.5 0.3-2.4-2.3-10.6-2.6-21.4-1.7-32.3-0.8-0.5-1.2 0.3-1.6 0.6-10.6 9.8-23.3 14.6-37.5 16.3-14.9 1.7-29.5 1.5-43.8-3.3-23.7-8-43-22.2-58.1-42-13.4-17.5-21-37.2-23.1-59-0.5-4.9-1-9.8-1.4-14.7-0.1-1.1-1-2.9 1.4-2.9z"/>
			<path fill-rule="evenodd" class="s6" d="m554.7 609.5q-0.6-2.2-1.2-4.3c-1.3-0.7-2.2 0.3-3.1 1-6.7 5-14.6 7.1-22.5 8.9-0.7 0.2-1.5 0.2-2.2 0.2-2.8-0.2-3.7-1.3-2.4-3.8 3.6-6.9 5.1-14.2 5.5-21.8 0.5-9.2-2.4-17.5-8.6-24.4-3.7-4.2-7.8-7.9-13.3-9.8-1-0.4-1.8-1.1-2.8-1.6-1.6-0.8-2-2-1.6-3.8 0.4-1.3 1.1-2.7-0.1-4.1-7.5 7.4-15.6 13.9-24.4 19.7-9.6 6.4-19.9 11.7-30.9 15.6-2.2 0.8-2 1.4-0.8 3 7.7 10 14.1 20.7 20 31.8 1.7 3.2 1.8 6.3 1.1 9.6-1.4 7.5-2.6 15-3.4 22.5-0.3 2.8 0.8 4 3.1 4.9 6.2 2.2 12.6 3.9 19.2 4.8 21.7 2.7 43.5 4.2 65.4 4.3 2.2 0 3.3-0.3 2.5-2.8-0.6-1.8 0.5-3.5 1-5.2-0.7-0.7-1.7-0.5-2.5-0.7-8.5-1.7-16.1-4.9-21.3-12.2-0.8-1-1.4-2-1.7-3.3-0.7-3.2-0.2-4.6 2.6-6.3 2.7-1.6 5.4-3.1 7.9-5.1 0.9-0.8 2-1.5 2.2-2.8-0.3-0.8-0.5-1.5 0.3-2.1 3.7-2.6 6.3-6.2 9.3-9.5 0.5-0.6 0.9-1.1 1.8-0.9 0.9-0.3 0.9-1.1 0.9-1.8z"/>
			<path fill-rule="evenodd" class="s5" d="m624.6 314.1c1.1-1.4 2.2-2.6 3.1-4 3.3-4.8 7-9.1 12.5-11.4 1.8-0.8 3.3-2.1 4.7-3.5 1.5-1.5 1.5-2.6-0.3-3.9-3.8-2.6-7.6-5.2-11-8.2-1.4-1.2-2-2.4-1.7-4.4 1-6.8 1.4-13.6 0.4-20.4-0.4-3-0.6-3.1-3.2-1.3-12.6 9-26.1 16-40.4 21.7-13.9 5.6-28.3 8.9-43.3 9.7-3.7 0.2-7.5-0.2-11 1.7-3.3 1.8-7 2.6-10.8 3.7 10.7 23.3 19.2 47.2 23.6 72.4 1.3 1.1 2.6 0.1 3.7-0.3 8.8-3.6 16.8-8.6 24.8-13.4 13.6-8.2 26.2-17.9 38.2-28.3 3.7-3.2 7.4-6.5 10.7-10.1z"/>
			<path fill-rule="evenodd" class="s7" d="m512.8 531c-0.8 0-1.3-0.4-1.9-1-5.3-5.5-12.1-7.1-19.4-7.7-14-1.2-27.4 1.7-40.7 5.8-16.6 5.2-32.5 12-48.1 19.5-8.3 4-16.3 8.3-24.1 13 5.8 10 12.7 19 21.7 26.4 0.8 0.8 1.7 1.1 2.9 1 44-2.9 80.3-21 108.4-55.2 0.5-0.5 0.8-1.2 1.2-1.8z"/>
			<path fill-rule="evenodd" class="s6" d="m379.8 566.4c-5.3 13.7-13.3 25.4-24.7 34.7-4.9 3.9-9.9 4.3-15.8 3-14-3.1-27.5-7.5-40.3-13.9-5.7-2.9-10.8-6.6-15.6-10.8 1.1 11.2 5.3 21.2 11.8 30.4q7.8 10.9 18.7 18.8c0.5 0.4 1.2 0.7 1.5 1.9-2.7-0.8-4.6-2.4-6.7-3.7-0.8-0.5-1.4-1.3-2.2 0-4.1 6.4-8.6 12.6-9.9 20.3-0.3 2-0.7 4.1 0.2 6.1 1.8-3.7 5.2-5.1 8.7-6.7 18.6-8.3 37.8-8.7 57.2-3.9 10.5 2.6 19.9 8 27.2 16.4 0.5 0.5 1 1.1 1.7 1.2 2.1-6.8 1.1-13.6-0.2-20.4-1.4-6.8-3.7-13.4-5.4-20.2-0.6-2-0.4-3.7 0.7-5.5 4.4-7.4 8.4-15 11.7-23 0.7-1.8 0.5-2.8-1-4.1-6.7-5.8-12.5-12.5-16.9-20.2-0.1-0.2-0.5-0.3-0.7-0.4z"/>
			<path fill-rule="evenodd" class="s6" d="m323.3 374.9c5.7 5.7 16.3 6.6 23.4 2.1 6.4-4.1 11.7-9 14.5-16.3 1.1-2.8 0.9-3.5-2-4-18.3-3.4-34.7-11.1-49.2-22.5-12.8-10-23.4-22-29.6-37.4-0.3-0.8-0.6-1.7-1.5-2.1-2.1-3.6-4.4-7-5.8-11-0.8-2.1-1.4-4-0.4-6.1-2.2-3.1-5.7-4.6-8.6-6.8-1.1-0.7-1.7-0.1-1.7 1.1 0 0.8 0.2 1.7-1 1.8-0.1 1.3 0.9 2.2 1.1 3.5 0.5 4.9-0.2 9-5.4 11.2-2.2 1-4.1 2.9-6.2 4.2-1.8 1.2-2.1 2.5-1.1 4.3 2.7 5.1 6.7 8.8 11.5 11.9 1.4 0.9 2.5 2.1 3.4 3.6 5.2 9.9 11.5 19 19.3 27 13.4 13.5 29.7 20.8 48.2 24.2 5.3 1 10.8 1.4 16.2 1.7 0.8 0 2-0.2 2 0.8 0 1.1-1.2 0.7-1.9 0.7-6.7 0.3-13.3-0.5-19.7-1.9-1.9-0.4-2.6 0-3 1.8-0.7 2.8-1.7 5.5-2.5 8.2z"/>
			<path fill-rule="evenodd" class="s5" d="m502.4 546c0.3 1.6-0.2 3.1-0.7 4.5-0.6 1.8-0.1 2.9 1.5 3.7 1.9 1 3.8 1.9 5.7 2.9 10.5 5.7 17.2 14.3 18.8 26.4 1.2 9.7-0.9 18.9-5.1 27.7-1.6 3.4-0.7 5.1 3.1 4.7 8.9-0.9 17.2-3.7 24.6-8.8 1.1-0.7 1.9-1.6 3.2-1.9 2.5-3.3 6-5.7 8.6-8.9q0.7-0.9 1.5-1.8c-0.5-0.6-1.2-0.7-1.9-0.7-7.3-0.2-11.7-4.6-14.5-10.7-3.1-6.8-4.4-14-4.8-21.4-0.4-8.8 1.6-17.3 2.4-25.9 0.9-9.6 0-18.8-5.8-27-1.4-1.8-3.4-2.9-5-4.5-1.4-1.4-2.1-1.4-3.1 0.7-5.2 10.7-11.5 20.8-18.8 30.2-2.9 3.9-6.3 7.3-9.7 10.8z"/>
			<path fill-rule="evenodd" class="s7" d="m146.6 550.9c8.3 11.3 18.5 20.6 30 28.6 22.2 15.4 46.8 22.2 73.7 21.6 11.3-0.2 22.5-0.8 33.7-2.7 2.2-0.4 2.1-1.1 1.4-2.8-1.8-4.3-2.9-8.8-3.6-13.4-0.2-1.3-0.3-2-1.9-1.6-11.8 3.1-23.9 2.9-35.8 2.4-15.5-0.7-30.8-3.6-45.7-8-10.5-3.1-19.9-8.3-28.8-14.8-0.4-0.3-0.9-0.5-1.3-0.8-6.5-1.9-12.5-4.8-18.5-7.8-1-0.5-1.9-1.6-3.2-0.7z"/>
			<path fill-rule="evenodd" class="s8" d="m473.4 273.6c13.1 5 26.7 8 40.6 9.7 8.5 1 16.4-0.9 23.9-4.8 8.2-4.4 15.6-9.8 21.9-16.6 1.4-1.4 2.1-2.8 1.8-4.8-0.4-2.5-0.7-5.1-1-7.7-1.9-1.9-4.4-1.5-6.8-1.7-5.6-0.6-11.2 0.1-16.8 0.2-7.5 0.1-14.8 0.7-22.1 2.1-15.2 2.8-28.6 9.6-39.9 20.3-0.9 0.8-2.4 1.6-1.6 3.3z"/>
			<path fill-rule="evenodd" class="s9" d="m473.4 273.6c1.9-3.4 4.8-5.8 7.8-7.9 11.1-7.8 23-13.7 36.6-15.6 9.5-1.3 19-2.3 28.5-2.1 4.8 0.1 9.6 0.2 14.3 1.4-0.1-3.3 0.3-3.6 3.2-2.3 0.8 0.4 1.8 0.7 2.3 1.4 1.9 2 2.7 1.1 4.1-0.8 2-2.8 2-5.1-0.2-7.6-0.6-0.6-1-1.5-1.5-2.2-3-4-4.3-4.2-8.4-1.5-4.5 2.8-9.1 5.4-13.6 8.2-4.5 2.9-9.4 3.4-14.7 2.7-20.5-2.9-41-5.7-61.6-8.5-3.8-0.5-7.6-1-11.4-1.6-1.2-0.1-2 0.1-2.6 1.2-1.3 2.4-2.6 4.7-3.9 7.1-1.5 2.5-2.4 2.6-4 0.2-1.7-2.8-3.2-5.8-4.4-8.9-0.6-1.5-1.4-2.2-3-2.5-5.6-1-11.2-2.3-17-4.4 1.2 4.4 3.3 7.9 5.5 11.3 5.9 9.3 14.1 16.1 23.3 21.9 1.9 1.1 3.7 2.2 5.5 3.3 1.2 0.8 1.9 0.6 2.6-0.6 1.1-2.1 2.7-3.8 4.5-5.3 1.9-1.5 2.8-1.2 3.3 1.1 0.5 2.7 1.3 5.3 1.4 7.9 0.1 2.5 1.3 3.6 3.4 4.1z"/>
			<path fill-rule="evenodd" class="s5" d="m542.3 623.5c-2.6 3.4-6.3 5.2-9.8 7.3-4 2.4-5 6-2.3 10 6 8.8 14.6 12.6 25 13.4 2.3-5 9.8-6.8 16.4-5.2 2 0.5 4 1.1 6 1.6 1-7.4 5.9-11.6 13.4-11.5 1.6 0 2.3-0.2 2.5-2.1 0.3-2.9 2.3-4.5 6.1-5.7-0.4-1.2-1.4-1.6-2.3-2.1-11.4-7.7-24.1-12.8-37.2-17.1-1.9-0.6-4-0.8-5.4-2.6q-0.5 0.8-1.1 1.7c-1 0.1-1.4 0.9-1.9 1.6-2.5 3.7-5.3 7-8.9 9.6-0.4 0.3-0.7 0.6-0.5 1.1z"/>
			<path fill-rule="evenodd" class="s10" d="m539 508.8c-0.5 0.6 0.1 0.9 0.4 1.4 4.4 8.1 5.7 16.7 4.6 25.8-1.2 9.2-3 18.4-2.3 27.7 0.7 8.5 2.4 16.7 7.1 23.8 3.5 5.2 8.6 7.4 14.8 7 10.3-12.3 12.5-26.2 7.9-41.3-3.6-12-10.7-22.1-18.9-31.4-4.1-4.7-8.7-9-13.6-13z"/>
			<path fill-rule="evenodd" class="s5" d="m391.6 660.2c-3.7-5.9-9.4-9.5-15.2-12.8-10.4-5.8-21.6-8.2-33.4-8.3-10.8-0.1-21.5 0.3-31.7 4.3-3.6 1.4-7.3 2.8-10.8 4.7-2 1.1-3.8 2.4-3.7 5.1 1 6.2 4.7 10.2 10.6 12.6-0.5-3.7 0-7 2-9.9 4-6 12.9-5.7 16.6 0.6 2.2 3.9 3.1 8.1 3.1 12.6 0.1 1.8 2.5 3.4 4.2 2.7 1-0.4 0.6-1.2 0.6-1.9 0.2-3.9 1-7.6 3.4-10.8 3.4-4.7 10.5-6 15.7-3 4.4 2.6 5.8 8.3 3.4 13.8-0.6 1.2-1.3 2.3-1.9 3.5 3.9 0.6 4 0.6 4.7-2.9 1.2-5.6 3.6-10.4 8.7-13.3 8.6-4.8 16.9-0.2 17.7 9.6 0.1 0.7 0.1 1.4 0.1 2.6 3.5-2.4 4.8-5.7 5.9-9.2z"/>
			<path fill-rule="evenodd" class="s10" d="m532.5 77.3c1.9-0.5 3.8-1.4 5.8-1.7 5.2-0.8 8.2 2.3 11 6 1.8-0.3 2.3-0.9 1.2-2.7-2.2-3.8-5.2-6.7-9.1-8.5-2-0.9-3.5-2.2-4.8-4-12-16.5-28.2-25.7-48.3-27.8-13.4-1.5-26.9-1.4-40.1 2.1q-1.1 0.3-2.3 0.6c1.2 1 2.2 0 3.3-0.1 16.6-0.4 32.5 1.9 46.5 11.7 6 4.1 10.5 9.8 15.4 15.2 3.8 4.2 7.1 9 13.4 10 1.8 0.3 3.6 0.1 5.4 0.2 1.3-0.3 1.5-1.7 2.5-2.6-0.1 0.6-0.4 1.1 0.1 1.6z"/>
			<path fill-rule="evenodd" class="s6" d="m281.7 557.3c-7.4 4.8-15.5 7.6-23.9 9.7-10 2.5-20.2 3.5-30.4 3.9-15 0.7-29.5-1.4-43.7-6-2.3-0.7-4.4-2-6.8-2.2 4.6 3.5 9.9 6 15.3 8 12.8 5 26.1 7.4 39.6 9.2 11 1.6 22.1 1.7 33.2 1 4.8-0.3 9.6-0.7 14.3-2.1 1-0.3 2.1-0.5 1.9-2-1.1-6.5-0.3-13 0.5-19.5z"/>
			<path fill-rule="evenodd" class="s6" d="m624.6 314.1c-1-0.1-1.5 0.7-2.2 1.3-11.8 11.3-24.4 21.6-38 30.7-9.7 6.4-19.5 12.4-30 17.6-2.3 1.1-4.6 2.3-7.2 2.6 0.5 5.4 1.1 10.8 1.7 16.5 3.3-1.1 6.4-2.6 9.3-4.2 17.1-9 31.4-21.6 44.3-35.9 8-8.8 15.2-18.1 21.9-27.8 0.1-0.3 0.2-0.6 0.2-0.8z"/>
			<path fill-rule="evenodd" class="s7" d="m432.4 305.4c14.8 3.5 29.9 3.8 44.9 3.2 9.7-0.4 19.4-1.7 28.4-5.6 0.5-0.2 1.1-0.2 1.6-0.3-5.1-4.5-10.8-7.9-17.7-8.6-6.7-0.7-13-3.3-19.9-2.7-13.8 1-26.2 5.7-37.3 14z"/>
			<path fill-rule="evenodd" class="s11" d="m383.7 667c0-2-0.8-4.3-2.3-6.4-2.2-3-5.2-4.1-8.9-3.2-4.8 1.2-8 4.3-9.9 8.7-2 4.5-2.5 9.2-1.6 14.1 0.2 1.2 0.6 1.4 1.7 1.2 5.5-1.1 10.8-2.7 15.6-5.5 4.1-2.3 5.4-4.5 5.4-8.9z"/>
			<path fill-rule="evenodd" class="s11" d="m346.1 656.5c-3.2-0.1-6 1.4-8 4.8-3.9 6.4-2.3 16.9 3.2 21.6 0.8 0.7 1.3 0.3 1.8-0.2 4.7-3.7 8.8-8 11.4-13.4 3.3-6.8-0.5-12.9-8.4-12.8z"/>
			<path fill-rule="evenodd" class="s11" d="m612.6 656c-5.6-7.3-11-13.9-20.3-15.1-4.9-0.6-9.2 1.4-11.7 5.6-1.6 2.9-1.1 4.8 1.8 6.3q0.1 0.1 0.2 0.1c5.3 4.7 11.6 4.4 18 3.9 3.8-0.3 7.6-0.5 12-0.8z"/>
			<path fill-rule="evenodd" class="s11" d="m327.3 672c-0.1-4.8-0.2-9.5-2.6-13.9-1.7-3.2-4.2-4.8-7.8-4.5-3.7 0.2-6 2.3-7.1 5.6-1.5 4.5-0.7 8.6 2.7 11.9 3.7 3.7 8 6.6 12.7 9 1.7 0.9 2.1 0.3 2.1-1.4 0-2.2 0-4.5 0-6.7z"/>
			<path fill-rule="evenodd" class="s4" d="m509.9 302.3c12.5 11.3 21.6 25 28.7 40.2 0.3 0.7 0.8 1.4 1.2 2.1 0.6-0.7 0.2-1.3 0.1-1.8-4.5-15.9-10.3-31.3-17.2-46.3-0.8-1.8-1.7-2.5-3.6-1.7-2.8 1.8-5.3 4.1-8.2 5.8-0.6 0.3-1.3 0.8-1 1.7z"/>
			<path fill-rule="evenodd" class="s3" d="m146.6 550.9c4.9 2.2 9.6 4.8 14.6 6.7 1.6 0.6 3.1 1.3 4.7 2 0.8 0.4 1.6 0.8 2.4-0.2-11.3-8.6-21.5-18.4-29.9-29.9-6.2-8.5-11.4-17.6-15.9-27.1-0.6-0.1-0.8 0.1-0.7 0.7 5.9 16.5 13.4 32.1 23.5 46.5 0.4 0.4 0.9 0.8 1.3 1.3z"/>
			<path fill-rule="evenodd" class="s11" d="m624.1 648.6c-5.5-7.9-12.2-13.5-21.5-15.3-3.9-0.8-6.9 1.2-7.4 4.3-0.2 1-0.3 1.9 1.1 2.3 4.8 1.2 8.4 4.3 11.7 7.7 0.9 0.8 1.8 1.3 3 1.4 4.2 0.5 8.4 0.1 13.1-0.4z"/>
			<path fill-rule="evenodd" class="s12" d="m551.3 90.1c0.4 7.3 2 14.3 5.5 20.7q1.8 3.3 5.1 5.3c2.1 1.3 2.9 1 3.6-1.4 0.9-2.7 0.4-5.4-0.6-7.9-2.6-6.2-5.7-12.3-9.1-18.2-0.9-1.4-1.8-3.4-3.4-3-1.9 0.6-0.7 3-1.1 4.5z"/>
			<path fill-rule="evenodd" class="s13" d="m586.9 662.8c1.5 0.1 2.9-0.1 4.4-0.6-0.9-1.9-2.6-2.9-4.1-4-6.2-4.8-13.2-7.7-21.2-7.8-3 0-6 0.6-8.1 3.3-0.1 1.4 1 1.5 1.9 1.7 8.2 1.6 16 4.5 24 6.8 1.1 0.3 2.2 0.1 3.1 0.6z"/>
			<path fill-rule="evenodd" class="s14" d="m586.9 662.8c-8.6-3.5-17.7-5.9-26.7-8-0.9-0.2-1.9-0.1-2.3-1.1-1.3 1.3-1.7 2.9-1.8 4.6-0.2 2.8 0.9 4.4 3.6 4.6 9.1 0.7 18.2 1.4 27.2-0.1z"/>
			<path fill-rule="evenodd" class="s15" d="m565.1 143.3c0.3 5.7 1.4 11.1 3.3 16.4 0.3 0.9 1 1.1 1.9 0.7 2.5-0.9 4.6-2.3 6.8-3.7 0.8-0.6 0.7-1.4 0.6-2.2-0.6-3.9-1.1-7.8-1.8-12-1.6 1.8-2 4.8-4.9 4.5-2.5-0.2-4-2.1-5.9-3.7z"/>
			<path fill-rule="evenodd" class="s16" d="m573.4 241.9c1.8-3.5 3.4-6.8 4.3-10.3 0.5-2.1-1-3.7-2-5.4-0.4-0.5-0.9-0.2-1.4 0.2q-3.8 2.7-7.5 5.5c-0.9 0.6-0.9 1.3 0 1.8 3 1.9 4.4 5.1 6.6 8.2z"/>
			<path fill-rule="evenodd" class="s17" d="m509.9 302.3c1.8-2.1 4.5-2.9 6.4-4.6 1-0.9 1.9-1.9 2.8-2.9-5.7 0.8-11.4 1.2-17.3 1.1 2.8 2 5.5 4.2 8.1 6.4z"/>
			<path fill-rule="evenodd" class="s18" d="m445.3 235.3c1.5 3.6 2.7 6.7 5 9.7 1.4-2.5 2.7-4.8 4-7.1 0.5-0.9 0.3-1.2-0.8-1.3-2.6-0.4-5.2-0.9-8.2-1.3z"/>
			<path fill-rule="evenodd" class="s19" d="m580.7 231.3c1.7-4.3 2.8-8.3 3.5-12.9-2.3 1.9-4.3 3.7-6.4 5.3-0.7 0.6-0.7 1.1-0.2 1.9 1 1.7 1.9 3.5 3.1 5.7z"/>
			<path fill-rule="evenodd" class="s20" d="m468.5 271.7c-0.6-3.6-1.1-6.5-1.7-9.7-2.5 1.2-3.6 3.5-4.9 5.5-0.6 0.9 0.1 1.1 0.6 1.3 1.9 0.9 3.7 1.8 6 2.9z"/>
			<path fill-rule="evenodd" class="s21" d="m563.5 257.2c4.6-5.4 5-5.5-0.8-8.3 0.2 2.8 0.5 5.4 0.8 8.3z"/>
			<path fill-rule="evenodd" class="s22" d="m121.8 503.1q0.3-0.3 0.7-0.7-1.1-2.6-2.2-5.2c-0.1 2.2 0.5 4.1 1.5 5.9z"/>
			<path fill-rule="evenodd" class="s23" d="m272.6 277.6c-1.4 1.1-1.8 2.4-1 4.2 1.6 3.8 3 7.7 5.5 11 0.5 0.7 0.8 1.6 1.8 1.8 0.1-1.9-1.2-3.2-1.9-4.9q-1.5-4.1-3.4-8.1c-0.7-1.6-0.3-2.2 1.3-2.6 4-1 8-1.8 12.1-2.1 1.6-0.1 3.2 0 4.6-1-6.5-1.4-12.7 0.1-19 1.7z"/>
			<path fill-rule="evenodd" class="s24" d="m402.8 128.4c-3.5 11.8-5.1 24-4.7 36.3 0.3 6.9 0.5 13.8 2 20.6 0.4 1.9 1.3 2.9 2.9 3.7 4.9 2.3 9.9 3.7 15.3 4 1.3 0.1 2.6 0.4 4 0.5 7 0.1 14.1 0.1 21.1-1.6q2.1-0.4 4.1-1.1c8.1-2.7 8.6-3.8 7.8-12.3-1.2-13.1-2.7-26-6.7-38.6-3.2-10.1-7.1-19.9-15-27.5-7.8-7.8-17.3-7.1-23.9 1.8-3.2 4.3-5.3 9.1-6.9 14.2z"/>
			<path fill-rule="evenodd" class="s10" d="m556.8 212.3c1.5-2.7 3.1-5.4 4.2-8.3 1-2.6 0.7-4.7-1-6.8-3.3-4.1-7.8-6.1-12.8-7.3-1.4-0.3-2.3 0.5-2.3 2.2-0.1 3.2 0.3 6.4 1.9 9.3 2.1 4 3.6 8.2 5.1 12.4 0.7 1.8 1.1 3.3 2.7 0.6 0.1-0.3 0.6-0.3 0.9-0.4 0.9-0.3 1.2-0.9 1.3-1.7z"/>
			<path fill-rule="evenodd" class="s25" d="m434.7 94.6c-0.7-0.1-1.2-0.4-1.6-0.8-1.6-1.5-3.1-1.2-4.3 0.4-1.4 1.7-0.7 3.1 0.8 4.1 4.1 2.6 7.8 5.8 11.7 8.9 0.7-1-0.6-2.2 0.4-3 0.6-1-0.1-1.7-0.5-2.4-1.7-2.8-3.7-5.4-6.5-7.2z"/>
			<path fill-rule="evenodd" class="s26" d="m532.5 77.3c-0.1-1.1 1.7-2.4 0.6-2.9-1.1-0.5-1.6 1.5-2.3 2.4-0.4 0.4-0.7 1-1 1.6-0.3 2.4-1.2 4.8-1 7.3 0.1 0.7 0.1 1.5 0.8 1.5 0.9 0.1 0.8-0.8 0.9-1.4 0.5-2.9 0.6-5.8 2-8.5z"/>
			<path fill-rule="evenodd" class="s27" d="m434.7 94.6c0.1 1.5 1.7 1.9 2.5 2.9 1.7 2.1 3.5 4.2 4.5 6.7 0.7 0.3 0.6 1.9 1.7 1.3 0.7-0.4 0.2-1.3-0.1-1.9-1.7-4.1-3.7-7.9-8.6-9z"/>
			<path fill-rule="evenodd" class="s28" d="m556.8 212.3c-0.6 0.4-1 1-1.3 1.7-0.6 1.6-1.3 3.2-1.9 4.9-0.2 0.5-0.3 1.2 0.3 1.4 0.6 0.3 0.9-0.4 1.1-0.8 0.9-1.8 1.7-3.5 2.5-5.3 0.5-0.9 0.2-1.5-0.7-1.9z"/>
			<path fill-rule="evenodd" class="s29" d="m522.8 225.6c0.6-0.1 0.9-0.6 0.4-1-1.6-1.8-3.5-3.3-5.7-4.2-0.7-0.2-1.2 0.3-1 1.1 0.2 0.4 5.8 4.1 6.3 4.1z"/>
			<path fill-rule="evenodd" class="s30" d="m542.3 623.5c4.8-3.1 8.2-7.7 11.3-12.3-0.1-0.7-0.3-1.6-1-0.7-3.6 4.1-7.2 8.2-11.4 11.8-1.4 1.2 0.3 1.1 1.1 1.2z"/>
			<path fill-rule="evenodd" class="s31" d="m617 299.6c4-0.9 7.6-2.5 10.9-4.6 1.5-1 1.5-2.4 0.6-3.8-2.5-3.6-5.2-7.1-8.2-10.3-0.4-0.4-1-1.1-1.6-0.6-0.8 0.7 0 1.2 0.4 1.8 2.4 3 4.7 6.1 7.1 9.1 1.1 1.4 1 2.2-0.7 3-2.8 1.4-5.6 2.8-8.6 3.7-0.6 0.1-1.4 0.3-1.3 1.1 0 0.9 0.9 0.5 1.4 0.5z"/>
			<path fill-rule="evenodd" class="s32" d="m410.9 158.8c-4.3 7.4-5 14.6-3 22.1 0.8 2.6 1.7 5.2 3.1 7.7 0.7 1.2 1.6 1.8 2.9 2 10.8 1.4 21.6 1.8 32.1-1.4 7.4-2.2 7.5-2.6 4.7-9.5-1.3-3.1-2.6-6.1-4.1-9.4-5.6 7.9-12.6 10.4-21.5 7.6-9-2.8-12.2-10.1-14.2-19.1z"/>
			<path fill-rule="evenodd" class="s12" d="m422.1 121.2c-0.1 7.9 2.6 14.9 6.9 21.4 1.9 2.8 4.5 5 7.8 6.3 3.8 1.6 6.3 0.3 7.6-3.6 1.4-4.3 0.8-8.7-0.5-12.7-2.4-7-6-13.4-11.3-18.6-0.4-0.4-0.7-0.7-1-1-1.7-1.5-3.6-3-6-2.2-2.4 0.9-2.9 3.3-3.2 5.5-0.2 1.6-0.2 3.2-0.3 4.9z"/>
			<path fill-rule="evenodd" class="s33" d="m405.6 126.3c-2.8 8.2-4.7 16.7-5.2 25.4-0.6 11-0.6 22 1.5 32.9 0.2 1.4 0.8 2.4 2.3 2.9 1.2 0.4 2.5 1 3.7 1.5 0.2 0.1 0.5 0.1 1.1 0.2-2.3-4.8-3.6-9.8-4.5-14.8-2-11.5-1.5-23-0.3-34.5 0.4-4.2 1.2-8.3 2-12.4 0.1-0.6 0.4-1.2-0.6-1.2z"/>
			<path fill-rule="evenodd" class="s34" d="m405.6 126.3c0.5 0.2 0.4 0.8 0.6 1.2q1.1-3.4 2.2-6.8c-1.5 1.6-2.4 3.5-2.8 5.6z"/>
		</g>
	</g>
</svg>