<svg xmlns="http://www.w3.org/2000/svg" fill-rule="evenodd" stroke-linejoin="round" stroke-miterlimit="2" clip-rule="evenodd" viewBox="0 0 64 64" id="butterfly">
  <rect width="64" height="64" fill="none"></rect>
  <path fill="#263238" d="M41.926 10.032c.975.061 1.825.882 1.903 1.835.047.576-.171 1.154-.579 1.577l-6.673 6.673c-.716.69-1.929.761-2.695.121-.826-.688-.952-2.071-.184-2.898.017-.017.034-.034.05-.052l6.673-6.673c.17-.163.226-.199.338-.271.284-.181.614-.289.95-.311.141-.008.173-.003.217-.001zM22.218 10.03c.46.021.908.187 1.255.487.048.042.059.054.106.098l6.673 6.673c.575.596.741 1.535.393 2.271-.53 1.118-2.191 1.519-3.17.608-.018-.016-.035-.034-.052-.05l-6.673-6.673c-.886-.918-.659-2.645.558-3.222.283-.134.594-.195.91-.192z"></path>
  <path fill="#d84315" d="M32.039,16.03c2.117,0.02 4.149,1.222 5.182,3.043c1.082,1.907 1.034,4.368 -0.219,6.269l-0.002,0.004c0,6.572 0.021,13.144 0,19.716c-0.021,2.177 -1.59,4.225 -3.692,4.794c-2.264,0.613 -4.887,-0.561 -5.879,-2.801c-0.282,-0.635 -0.427,-1.33 -0.429,-2.022l0,-19.687c-0.013,-0.02 -0.026,-0.039 -0.039,-0.059c-1.231,-1.914 -1.25,-4.488 -0.072,-6.401c1.063,-1.724 3.037,-2.837 5.072,-2.856c0.026,0 0.052,0 0.078,0Z"></path>
  <path fill="#7cb342" d="M40.256 32.356c4.052.009 8.147.401 11.9 1.861 2.511.977 4.704 2.589 6.487 4.787 1.987 2.449 3.412 5.497 3.291 8.753-.15 4.003-2.684 7.725-5.972 10.023-1.831 1.279-4.008 2.1-6.235 2.183-4.083.152-8.075-2.296-10.722-5.108-2.836-3.012-4.282-7.125-5.118-11.264-.596-2.945-.919-5.959-.887-8.946l.007-.186c.116-.957.88-1.713 1.858-1.826 1.793-.208 3.607-.277 5.391-.277zM23.771 32.357c1.766.006 3.538.076 5.296.288 0 0 .384.058.663.198.697.348 1.103 1.1 1.107 1.927.025 4.655-.657 9.412-2.255 13.72-.955 2.575-2.312 4.991-4.301 6.919-2.324 2.253-5.131 4.072-8.444 4.48-2.845.35-5.791-.536-8.149-2.241-2.99-2.163-5.297-5.437-5.72-9.043-.32-2.722.496-5.509 1.967-7.851 1.109-1.767 2.505-3.397 4.147-4.603 2.827-2.078 6.379-2.999 9.884-3.452 1.923-.248 3.863-.346 5.805-.342z"></path>
  <path fill="#ffd600" d="M49.542,41c2.405,0.023 4.718,1.472 5.781,3.61c0.879,1.768 0.889,3.936 0.035,5.709c-1.233,2.556 -4.248,4.128 -7.126,3.557c-1.966,-0.39 -3.717,-1.748 -4.59,-3.557c-0.855,-1.774 -0.843,-3.942 0.035,-5.709c1.063,-2.137 3.354,-3.587 5.781,-3.61c0.028,0 0.056,0 0.084,0Z"></path>
  <path fill="#bf360c" d="M49.484,45c-1.117,0.011 -2.168,0.842 -2.42,1.934c-0.363,1.571 1.094,3.346 2.88,3.027c1.014,-0.181 1.87,-1.052 2.027,-2.079c0.212,-1.383 -0.906,-2.848 -2.422,-2.882c-0.022,0 -0.044,0 -0.065,0Z"></path>
  <path fill="#ffd600" d="M14.542,41c2.405,0.023 4.719,1.475 5.781,3.61c0.879,1.768 0.889,3.936 0.035,5.709c-1.228,2.545 -4.228,4.132 -7.126,3.557c-1.966,-0.39 -3.717,-1.748 -4.59,-3.557c-0.855,-1.774 -0.843,-3.942 0.035,-5.709c1.063,-2.137 3.354,-3.587 5.781,-3.61c0.028,0 0.056,0 0.084,0Z"></path>
  <path fill="#d84315" d="M14.484,45c-1.117,0.011 -2.168,0.842 -2.42,1.934c-0.363,1.571 1.093,3.346 2.88,3.027c1.014,-0.181 1.87,-1.052 2.027,-2.079c0.212,-1.386 -0.916,-2.848 -2.422,-2.882c-0.022,0 -0.044,0 -0.065,0Z"></path>
  <path d="M52.163,11.38c0.109,0.012 0.137,0.012 0.244,0.035c0.829,0.172 1.479,0.907 1.587,1.781c0.387,3.137 0.186,6.366 -0.481,9.38c-0.726,3.278 -2.145,6.473 -4.569,8.936c-1.407,1.431 -3.12,2.554 -4.968,3.313l-0.187,0.071c-1.116,0.336 -2.409,-0.402 -2.607,-1.559c-0.154,-0.903 0.374,-1.846 1.251,-2.203c0.036,-0.015 0.073,-0.03 0.109,-0.045c2.036,-0.853 3.771,-2.311 4.974,-4.16c1.842,-2.834 2.516,-6.279 2.632,-9.632c0.042,-1.217 0.028,-2.441 -0.129,-3.651c0,0 -0.041,-0.417 0.036,-0.74c0.192,-0.797 0.914,-1.437 1.739,-1.522c0.237,-0.025 0.293,-0.008 0.369,-0.004Z"></path>
  <path fill="#689f38" d="M33,34.635l0.007,-0.176c0.116,-0.957 0.88,-1.713 1.858,-1.826c1.793,-0.208 3.607,-0.277 5.391,-0.277c4.052,0.009 8.147,0.401 11.9,1.861c1.556,0.606 2.99,1.455 4.28,2.537c-1.304,0.701 -2.767,1.101 -4.253,1.119l-0.084,0.001l-17.099,0c-0.345,-0.034 -0.441,-0.018 -0.765,-0.152c-0.486,-0.201 -0.882,-0.597 -1.083,-1.083c-0.121,-0.292 -0.12,-0.399 -0.143,-0.67c-0.004,-0.164 -0.007,-0.327 -0.009,-0.491l0,-0.843Z"></path>
  <path fill="#558b2f" d="M54.024,35.094c0.851,0.472 1.656,1.026 2.412,1.66c-1.119,0.601 -2.355,0.981 -3.621,1.089c0.445,-0.893 0.848,-1.811 1.206,-2.751l-0.025,-0.014l0.028,0.016Z"></path>
  <path fill="#689f38" d="M7.352,36.728c0.237,-0.201 0.481,-0.394 0.73,-0.577c2.827,-2.078 6.379,-2.999 9.884,-3.452c1.923,-0.248 3.863,-0.346 5.805,-0.342c1.766,0.006 3.538,0.076 5.296,0.288c0,0 0.384,0.058 0.663,0.198c0.677,0.338 1.079,1.057 1.106,1.856l0,0.744c-0.002,0.172 -0.005,0.344 -0.008,0.517c-0.025,0.277 -0.022,0.383 -0.145,0.679c-0.201,0.486 -0.597,0.882 -1.082,1.083c-0.324,0.134 -0.421,0.118 -0.765,0.152l-17.099,0l-0.084,-0.001c-1.504,-0.019 -2.985,-0.428 -4.301,-1.145Z"></path>
  <path fill="#ffd600" d="M28.836,35.305l-17.099,0c-3.591,-0.011 -7.064,-2.253 -8.505,-5.597c-0.401,-0.931 -0.643,-1.927 -0.726,-2.936c-0.424,-5.596 -0.816,-11.194 -1.223,-16.791c-0.131,-1.912 1.434,-3.78 3.422,-3.893c0.076,-0.005 0.153,-0.006 0.229,-0.006c0.826,0.008 1.642,0.3 2.284,0.824l5.632,4.624c0.34,0.149 0.637,0.397 0.854,0.701l16.401,13.467c0.102,0.105 0.217,0.2 0.308,0.316c0.181,0.233 0.309,0.503 0.374,0.792c0.032,0.143 0.033,0.292 0.049,0.438l0,6.061c-0.034,0.345 -0.018,0.441 -0.153,0.765c-0.201,0.486 -0.597,0.882 -1.082,1.083c-0.324,0.134 -0.421,0.118 -0.765,0.152Z"></path>
  <path fill="#7cb342" d="M27.37,35.305l-15.633,0c-3.591,-0.011 -7.064,-2.253 -8.505,-5.597c-0.401,-0.931 -0.643,-1.927 -0.726,-2.936c-0.424,-5.596 -0.816,-11.194 -1.223,-16.791c-0.131,-1.912 1.434,-3.78 3.422,-3.893c0.076,-0.005 0.153,-0.006 0.229,-0.006c0.826,0.008 1.642,0.3 2.284,0.824l4.823,3.96c-0.75,6.505 -0.79,22.013 15.329,24.439Z"></path>
  <path fill="#ffd600" d="M35,35.29l17.099,0c3.59,-0.011 7.064,-2.253 8.505,-5.597c0.401,-0.93 0.643,-1.927 0.725,-2.936c0.425,-5.596 0.816,-11.194 1.224,-16.791c0.131,-1.912 -1.434,-3.78 -3.422,-3.893c-0.077,-0.005 -0.153,-0.006 -0.229,-0.006c-0.827,0.009 -1.642,0.301 -2.285,0.824l-5.632,4.624c-0.34,0.149 -0.636,0.397 -0.853,0.701l-16.401,13.467c-0.103,0.106 -0.218,0.2 -0.308,0.316c-0.182,0.233 -0.31,0.504 -0.374,0.792c-0.033,0.143 -0.033,0.292 -0.049,0.438l0,6.061c0.034,0.345 0.018,0.441 0.152,0.766c0.201,0.485 0.597,0.881 1.083,1.082c0.324,0.134 0.42,0.118 0.765,0.152Z"></path>
  <path fill="#7cb342" d="M36.465,35.29l15.634,0c3.59,-0.011 7.064,-2.253 8.505,-5.597c0.401,-0.93 0.643,-1.927 0.725,-2.936c0.425,-5.596 0.816,-11.194 1.224,-16.791c0.131,-1.912 -1.434,-3.78 -3.422,-3.893c-0.077,-0.005 -0.153,-0.006 -0.229,-0.006c-0.827,0.009 -1.642,0.301 -2.285,0.824l-4.822,3.96c0.75,6.505 0.789,22.013 -15.33,24.439Z"></path>
</svg>
