<svg xmlns="http://www.w3.org/2000/svg" width="267" height="267" fill-rule="evenodd" stroke-linejoin="round" stroke-miterlimit="2" clip-rule="evenodd" id="summer">
  <path fill="#1c3d57" d="M248.546 232.563H18.121a3.126 3.126 0 0 0 0 6.25h230.425a3.126 3.126 0 0 0 0-6.25Z"></path>
  <path fill="#87b5fe" d="M165.213 235.688H18.121v-31.951c7.156 0 13.34-3.424 16.224-8.373 2.884 4.949 9.068 8.373 16.224 8.373 7.156 0 13.34-3.424 16.224-8.373 2.884 4.949 9.068 8.373 16.224 8.373 7.157 0 14.924-2.065 22.466-5.996 8.145-4.245 17.782-11.756 30.836-8.002-5.771 8.468-2.267 22.66 15.384 22.287l13.51 23.662Z"></path>
  <path fill="#1c3d57" d="M165.213 238.813a3.125 3.125 0 0 0 2.714-4.674l-13.51-23.663a3.126 3.126 0 0 0-2.78-1.575c-5.876.124-9.929-1.518-12.297-4.192-3.307-3.735-3.122-9.273-.439-13.211a3.125 3.125 0 0 0-1.718-4.763c-13.994-4.024-24.413 3.684-33.145 8.235-7.059 3.679-14.322 5.642-21.021 5.642-5.937 0-11.131-2.716-13.524-6.821a3.125 3.125 0 0 0-5.4 0c-2.392 4.105-7.587 6.821-13.524 6.821-5.937 0-11.132-2.716-13.524-6.821a3.125 3.125 0 0 0-5.4 0c-2.393 4.105-7.587 6.821-13.524 6.821a3.125 3.125 0 0 0-3.125 3.125v31.951a3.125 3.125 0 0 0 3.125 3.125h147.092Zm-5.383-6.25H21.246v-25.896c5.271-.662 9.883-2.971 13.099-6.226 3.837 3.884 9.662 6.421 16.224 6.421 6.563 0 12.387-2.537 16.224-6.421 3.838 3.884 9.662 6.421 16.224 6.421 7.614 0 15.886-2.168 23.91-6.35 3.223-1.68 6.681-3.881 10.498-5.674 4.21-1.979 8.898-3.46 14.272-2.85-2.014 5.612-1.215 12.145 2.964 16.864 3.063 3.459 8.009 6.04 15.223 6.287l9.946 17.424Z"></path>
  <path fill="#fed29d" d="M86.522 235.688c36.862 0 87.714-49.577 162.024-42.28v42.28H86.522Z"></path>
  <path fill="#1c3d57" d="M86.522 238.813h162.024a3.125 3.125 0 0 0 3.125-3.125v-42.28a3.126 3.126 0 0 0-2.82-3.11c-45.224-4.441-81.904 11.791-112.071 25.563-19.345 8.832-35.872 16.702-50.258 16.702v6.25Zm27.422-6.25c7.943-3.026 16.404-6.895 25.431-11.016 28.686-13.096 63.391-28.66 106.046-25.279v36.295H113.944Z"></path>
  <path fill="#fbf0cf" d="M91.512 156.808c.405-1.465.622-3.007.622-4.599 0-9.508-7.719-17.226-17.226-17.226-.238 0-.474.005-.71.014-2.358-8.717-10.33-15.138-19.79-15.138-9.622 0-17.704 6.642-19.907 15.588a12.906 12.906 0 0 0-3.443-.464c-7.14 0-12.937 5.797-12.937 12.938a12.89 12.89 0 0 0 3.539 8.887h69.852Z"></path>
  <path fill="#1c3d57" d="M76.477 131.917c-3.4-8.874-12.003-15.183-22.069-15.183-10.063 0-18.663 6.305-22.066 15.175a16.02 16.02 0 0 0-1.284-.051c-8.865 0-16.062 7.197-16.062 16.063 0 4.271 1.67 8.156 4.394 11.034.59.624 1.411.978 2.27.978h69.852a3.124 3.124 0 0 0 3.011-2.292c.479-1.73.736-3.551.736-5.432 0-10.704-8.282-19.489-18.782-20.292Zm12.455 21.766H23.118a9.76 9.76 0 0 1-1.872-5.762c0-5.416 4.397-9.813 9.812-9.813.905 0 1.78.122 2.612.351a3.125 3.125 0 0 0 3.866-2.265c1.866-7.581 8.717-13.21 16.872-13.21 8.017 0 14.775 5.441 16.774 12.829a3.125 3.125 0 0 0 3.144 2.307c.193-.008.387-.012.582-.012 7.782 0 14.101 6.318 14.101 14.101l-.077 1.474Z"></path>
  <circle cx="79.645" cy="64.254" r="14.643" fill="#ffd541"></circle>
  <path fill="#1c3d57" d="M79.645 46.486c-9.807 0-17.769 7.962-17.769 17.768 0 9.807 7.962 17.769 17.769 17.769 9.806 0 17.768-7.962 17.768-17.769 0-9.806-7.962-17.768-17.768-17.768Zm0 6.25c6.357 0 11.518 5.161 11.518 11.518 0 6.358-5.161 11.519-11.518 11.519-6.357 0-11.519-5.161-11.519-11.519 0-6.357 5.162-11.518 11.519-11.518Z"></path>
  <circle cx="79.645" cy="36.605" r="4.167" fill="#1c3d57"></circle>
  <path fill="#1c3d57" d="M107.198 48.347a4.168 4.168 0 0 1-1.525 5.691 4.168 4.168 0 0 1-5.692-1.525 4.17 4.17 0 0 1 1.525-5.692 4.17 4.17 0 0 1 5.692 1.526zm0 31.815a4.168 4.168 0 0 1-5.692 1.525 4.168 4.168 0 0 1-1.525-5.691 4.17 4.17 0 0 1 5.692-1.526 4.17 4.17 0 0 1 1.525 5.692z"></path>
  <circle cx="79.645" cy="91.903" r="4.167" fill="#1c3d57"></circle>
  <path fill="#1c3d57" d="M59.309 75.996a4.167 4.167 0 1 1-5.692-1.526 4.17 4.17 0 0 1 5.692 1.526zm0-23.483a4.167 4.167 0 1 1-1.526-5.692 4.17 4.17 0 0 1 1.526 5.692z"></path>
  <path fill="#f2b474" d="M200.314 196.176c9.898-1.9 15.364-2.809 29.464-3.501-.997-40.063-14.88-70.196-41.029-83.263l-5.764 5.819s23.387 27.936 17.329 80.945Z"></path>
  <path fill="#1c3d57" d="M197.209 195.821a3.124 3.124 0 0 0 3.694 3.424c9.752-1.872 15.137-2.767 29.028-3.449a3.125 3.125 0 0 0 2.971-3.199c-1.031-41.444-15.705-72.463-42.756-85.98a3.125 3.125 0 0 0-3.617.596l-5.764 5.819a3.125 3.125 0 0 0-.176 4.205s22.498 27.149 16.62 78.584Zm6.635-3.49c3.8-43.137-11.499-69.247-16.75-76.807l2.251-2.272c23.296 12.782 35.691 40.308 37.208 76.464-10.201.577-15.67 1.324-22.709 2.615Z"></path>
  <path fill="#c5cc1a" d="m165.303 150.402-11.624 23.113s-18.162-22.92-6.406-44.25c12.415-22.527 35.367-14.163 35.71-14.335.119-.06-12.015 24.186-12.015 24.186l-12.008.375 6.343 10.911Z"></path>
  <path fill="#1c3d57" d="m183.222 111.79-.224-.056c-4.491-1.13-26.162-6.296-38.462 16.022-5.128 9.305-5.082 18.881-3.125 27.029 2.859 11.909 9.818 20.67 9.818 20.67a3.123 3.123 0 0 0 5.241-.536l11.625-23.113a3.128 3.128 0 0 0-.09-2.975l-3.71-6.38 6.771-.211a3.128 3.128 0 0 0 2.697-1.725s9.844-19.671 11.726-23.562c.321-.663.474-1.073.493-1.137.701-2.391-1.121-3.425-1.517-3.638a3.166 3.166 0 0 0-1.243-.388Zm-4.794 5.359a6076.445 6076.445 0 0 1-9.421 18.902l-10.145.316a3.126 3.126 0 0 0-2.604 4.695l5.493 9.448-8.454 16.809c-1.356-2.285-2.97-5.381-4.295-9.004-2.807-7.675-4.365-17.792 1.008-27.542 8.314-15.085 21.9-14.723 28.418-13.624Z"></path>
  <path fill="#dde825" d="m201.627 94.233-17.211 19.317s-11.611-26.839 5.265-44.4c17.823-18.546 37.828-4.527 38.204-4.604.13-.026-17.866 20.253-17.866 20.253l-11.696-2.746 3.304 12.18Z"></path>
  <path fill="#1c3d57" d="m228.929 61.575-.203-.112c-4.045-2.254-23.64-12.852-41.298 5.522-7.361 7.66-9.795 16.922-10.014 25.299-.321 12.243 4.134 22.507 4.134 22.507a3.123 3.123 0 0 0 5.201.838l17.211-19.317a3.126 3.126 0 0 0 .683-2.896l-1.932-7.123 6.594 1.548a3.126 3.126 0 0 0 3.052-.968s14.599-16.453 17.424-19.724c.482-.558.736-.913.771-.971 1.296-2.127-.196-3.598-.524-3.906a3.165 3.165 0 0 0-1.099-.697Zm-6.018 3.935a6132.945 6132.945 0 0 1-13.992 15.82l-9.882-2.32a3.125 3.125 0 0 0-3.73 3.86l2.861 10.548-12.517 14.048c-.718-2.558-1.476-5.965-1.818-9.808-.725-8.14.388-18.316 8.102-26.342 11.935-12.42 24.964-8.554 30.976-5.806Z"></path>
  <path fill="#c5cc1a" d="M180.799 54.665c.061-.085 1.382 51.663 1.382 51.663s-21.158-9.199-20.905-28.413c.267-20.292 19.348-23.003 19.523-23.25Z"></path>
  <path fill="#1c3d57" d="M179.376 51.817c-3.814.955-20.956 5.619-21.225 26.057-.113 8.567 3.55 15.365 8.038 20.418 6.517 7.339 14.746 10.902 14.746 10.902a3.126 3.126 0 0 0 4.37-2.945s-1.071-41.931-1.329-50.255a54.002 54.002 0 0 0-.063-1.599c-.207-2.284-2.1-2.69-2.254-2.734-.712-.204-1.519-.255-2.283.156Zm-1.57 7.014c.263 9.217.844 31.699 1.111 42.115a41.957 41.957 0 0 1-5.2-3.949c-4.686-4.19-9.429-10.479-9.316-19.041.163-12.419 8.436-17.262 13.405-19.125Z"></path>
  <path fill="#dde825" d="m132.326 115.613-31.467 1.814s13.118-33.123 42.785-33.713c31.33-.623 36.487 28.688 36.878 28.945.135.089-32.838 2.056-32.838 2.056l-8.33-10.607-7.028 11.505Z"></path>
  <path fill="#1c3d57" d="m183.35 111.274-.104-.359c-1.518-5.339-9.133-30.932-39.664-30.325-12.748.253-22.67 6.056-29.966 12.98-10.709 10.163-15.663 22.707-15.663 22.707a3.123 3.123 0 0 0 .373 2.98 3.122 3.122 0 0 0 2.713 1.29l31.467-1.814a3.126 3.126 0 0 0 2.487-1.491l4.682-7.665 5.551 7.069a3.128 3.128 0 0 0 2.644 1.189s26.743-1.596 31.993-1.98c.829-.06 1.315-.138 1.39-.156 2.421-.587 2.406-2.683 2.393-3.132a3.163 3.163 0 0 0-.296-1.293Zm-6.994-1.447c-7.212.47-22.255 1.374-27.225 1.671l-7.32-9.32a3.126 3.126 0 0 0-5.124.301l-6.175 10.109-24.54 1.414c1.605-2.985 4.105-7.085 7.551-11.205 6.496-7.766 16.395-15.684 30.183-15.958 22.251-.443 30.08 15.613 32.65 22.988Z"></path>
</svg>
