<svg xmlns="http://www.w3.org/2000/svg" viewBox="0 0 130 137" id="back">
  <g style="isolation:isolate">
    <g id="Layer_2">
      <g id="Layer_1-2">
        <path d="M116.1 68.67c0 29.41-23.41 53.25-52.3 53.25a51.43 51.43 0 0 1-33.59-12.45 53.26 53.26 0 0 1-17.73-30.52 54 54 0 0 1-1-10.28c0-29.41 23.41-53.25 52.3-53.25a51.56 51.56 0 0 1 28.8 8.8A52.74 52.74 0 0 1 104 34.65a53.6 53.6 0 0 1 12.07 34z" style="fill:#f93052"></path>
        <path d="m113.37 51.62-66.31 67.51a51.73 51.73 0 0 1-16.85-9.66c.21-.27.43-.51.67-.76L102.2 36.1a9.58 9.58 0 0 1 1.8-1.45 53.57 53.57 0 0 1 9.37 16.97zM92.6 24.22c-.18.21-.35.41-.55.61l-71.31 72.6c-.2.2-.39.38-.6.56a53.36 53.36 0 0 1-7.66-19L73.9 16.42a51.37 51.37 0 0 1 18.7 7.8z" style="fill:#f15a24"></path>
        <path d="M129.31 62.5a65 65 0 0 1-128.62 0A66.08 66.08 0 0 0 0 72a65 65 0 0 0 130 0 66.08 66.08 0 0 0-.69-9.5z" style="fill:#ed1c24"></path>
        <path d="M65 20a45 45 0 1 1-45 45 45.05 45.05 0 0 1 45-45m0-20a65 65 0 1 0 65 65A65 65 0 0 0 65 0z" style="fill:#f7931e"></path>
        <path d="M65.5 111c-25.27 0-47.76-9.89-62.11-25.26A65 65 0 0 0 126 87.37C111.64 101.81 89.86 111 65.5 111z" style="fill:#f15a24"></path>
        <rect width="64.84" height="23.21" x="41.34" y="58.32" rx="11.6" ry="11.6" style="fill:#c1272d"></rect>
        <path d="M31.58 79.77l20.85 12a11.44 11.44 0 0 0 17.15-9.9V57.83a11.44 11.44 0 0 0-17.15-9.9L31.58 60a11.44 11.44 0 0 0 0 19.77z" style="fill:#c1272d"></path>
        <circle cx="54.25" cy="86.19" r="2.05" style="fill:#c1272d;mix-blend-mode:soft-light"></circle>
        <rect width="64.84" height="23.21" x="39.3" y="55.59" rx="11.6" ry="11.6" style="fill:#fff"></rect>
        <path d="M29.53 77l20.85 12a11.44 11.44 0 0 0 17.15-9.9v-24a11.44 11.44 0 0 0-17.15-9.9l-20.85 12a11.44 11.44 0 0 0 0 19.8z" style="fill:#fff"></path>
        <circle cx="57.09" cy="53.45" r="4.99" style="fill:#fff;mix-blend-mode:soft-light"></circle>
        <circle cx="50.05" cy="59.42" r="2.49" style="fill:#fff;mix-blend-mode:soft-light"></circle>
      </g>
    </g>
  </g>
</svg>
