<svg xmlns="http://www.w3.org/2000/svg" enable-background="new 0 0 24 24" viewBox="0 0 24 24" id="down">
  <g id="_icons">
    <path fill="#81caff" d="M6.5273,8.1172c1.1533,1.8027,2.6162,3.3267,4.3486,4.5298c0.3408,0.2368,0.7324,0.355,1.124,0.355
			s0.7832-0.1182,1.125-0.3555c1.7314-1.2026,3.1943-2.7266,4.3467-4.5293l0.3701-0.5781c0.2979-0.4648,0.1621-1.0835-0.3027-1.3813
			c-0.4648-0.2983-1.084-0.1621-1.3809,0.3032l-0.3711,0.5781c-1.0098,1.5796-2.29,2.9136-3.7715,3.9648
			c-1.5127-1.0513-2.793-2.3853-3.8037-3.9648L7.8418,6.4609c-0.2969-0.4653-0.915-0.6016-1.3809-0.3032
			C5.9961,6.4556,5.8604,7.0742,6.1582,7.5391L6.5273,8.1172z"></path>
    <path fill="#944cf2" d="M6.5273,13.1172c1.1533,1.8027,2.6162,3.3267,4.3486,4.5298c0.3408,0.2368,0.7324,0.355,1.124,0.355
			s0.7832-0.1182,1.125-0.3555c1.7314-1.2026,3.1943-2.7266,4.3467-4.5293l0.3701-0.5781c0.2979-0.4648,0.1621-1.0835-0.3027-1.3813
			c-0.4648-0.2988-1.084-0.1626-1.3809,0.3032l-0.3711,0.5781c-1.0098,1.5796-2.29,2.9136-3.7715,3.9648
			c-1.5127-1.0513-2.793-2.3853-3.8037-3.9648l-0.3701-0.5781c-0.2969-0.4648-0.915-0.6021-1.3809-0.3032
			c-0.4648,0.2979-0.6006,0.9165-0.3027,1.3813L6.5273,13.1172z"></path>
  </g>
</svg>
