<svg xmlns="http://www.w3.org/2000/svg" enable-background="new 0 0 512 573.4" viewBox="0 0 512 573.4" id="fire">
  <g>
    <g>
      <polygon fill="#CE5151" points="60.2 338.8 60.2 424.9 79.6 502.8 137 542.2 222.3 573.4 348.6 561.8 420.7 506.1 447 420.8 437.2 291.3 394.5 328.9 401.1 273.1 371.6 233.8 366.6 186.2 338.8 228.9 333.8 169.9 297.8 110.8 279.7 37 267.8 0 248.7 91 227.2 156.7 210.8 137.1 212.4 107.5 179.6 151.7 153.4 186.2 158.3 240.3 163.3 261.7 132 250.1 104.1 189.5 102.6 225.7 84.5 199.3 76.3 250.1 94.3 311.8 115.7 340.4 86.1 338.8 107.5 374.9 76.3 361.7"></polygon>
      <polygon fill="#F3A43A" points="153.4 474.1 143.6 439.7 153.4 402.8 177.2 369.1 183.8 335.5 176.4 301 200.1 322.4 205 348.6 205 370 231.4 333.8 237.9 297 259.2 250.1 259.2 280.5 268.2 303.5 292.1 342.9 313.3 365.9 318.3 401.9 318.3 429.8 333.8 402.8 354.3 388 365 362.1 369.9 397 375.7 427.3 381.4 458.1 400.2 444.6 417.5 423.3 417.5 458.1 385.1 533.7 348.6 561.8 222.3 573.4 137 542.2 90.3 497.9 83.7 458.1 83.7 423.3 109.1 465.1"></polygon>
      <polygon fill="#F9D249" points="222.7 573.4 179.8 544.3 162 500.6 192.4 517.6 181.5 481.2 182.3 453.7 192.4 433.5 198.4 458.6 216.2 471.5 222.7 430.3 238.1 394.6 246.1 376 246.1 346.1 263.2 378.5 263.2 408.4 277.7 439.2 283.3 464.2 280.1 478 296.3 467.4 306.8 450.5 310.9 474.7 310.9 498.2 325.4 496.5 341.6 477.2 341.6 509.5 326.2 541 294.9 566.8"></polygon>
    </g>
    <g>
      <polygon fill="#F9D249" points="190.6 46.7 197.4 57.3 206.8 42.3 199.3 42.4"></polygon>
      <path fill="#F9D249" d="M206.5,207.6c-3-1.9-8.6,3.4-8.6,3.4l7.4,2.4C205.2,213.3,209.4,209.5,206.5,207.6z"></path>
      <polygon fill="#F9D249" points="195.1 402 200.9 401.1 202.4 394 195.1 397.4"></polygon>
      <path fill="#F9D249" d="M153.5,74.4l4.7,5.3c0,0,11,0.7,10.6-7.7l-12.2-4L153.5,74.4z"></path>
      <polygon fill="#F9D249" points="287.8 395.1 290.6 399.5 299.7 399.9 303.7 391.5 291.2 388.1"></polygon>
      <path fill="#F9D249" d="M152,18.6c0,0-6.2,4.6-1.6,8.8l11.8-0.3l-1.5-9L152,18.6z"></path>
      <polygon fill="#F9D249" points="19.9 323 16.6 329.9 20.4 333 30.1 329.9 29.5 322.9"></polygon>
      <polygon fill="#F9D249" points="127.4 320.6 136 316.8 128.7 313.2"></polygon>
      <path fill="#F9D249" d="M219 187.9l-.1-9.2-7.5 2.7C211.5 181.4 208.4 185.6 219 187.9zM309.1 291.1l-1.5-9-8.6.4c0 0-6.2 4.6-1.6 8.8L309.1 291.1z"></path>
      <polygon fill="#F9D249" points="496.7 246 505.2 242.2 497.9 238.8"></polygon>
      <polygon fill="#F9D249" points="397.9 404.5 401.1 413.3 407.3 411 411.7 400.3 402.9 399.3"></polygon>
      <polygon fill="#F9D249" points="417.1 381.5 423.9 385.7 428.3 378.5 424.8 374.3"></polygon>
      <path fill="#F9D249" d="M512,272.6l-8.1-9l-6.3-0.7c0.2-1.1-8,8.3-8,8.3l12.9,4.8L512,272.6z"></path>
      <polygon fill="#F9D249" points="397.7 379 397.9 369.7 386.5 375.8"></polygon>
      <path fill="#F9D249" d="M359.7,293.1l5.2,2.9l5.4-3.6l-4.8-5.6C365,287.4,359.7,293.1,359.7,293.1z"></path>
    </g>
    <polygon fill="#F3A43A" points="33.3 238.8 24.9 216.1 13.2 195.4 21.6 170 0 195.3 0 222 15.8 232.9 27.3 256.7"></polygon>
    <polygon fill="#CE5151" points="440.4 150.5 438.4 133.9 456.5 118.4 453.1 109 436.4 97.5 442.9 110.5 434.6 124.5 426.7 137.6 427.5 144"></polygon>
    <polygon fill="#F9D249" points="95.3 49.8 107.3 120.6 119.2 155.5 100.2 129.1 94.1 142.1 88.6 116.4"></polygon>
  </g>
</svg>
