<svg xmlns="http://www.w3.org/2000/svg" viewBox="0 0 32 32" id="flower">
  <g fill="#4285f4" transform="translate(2682.57 -2125.453)" class="color586597 svgShape">
    <path d="m -2671.0639,2130.4622 c -0.504,-0.1766 -0.9724,-0.2526 -1.506,-0.254 -2.4796,0 -4.5004,2.0207 -4.5004,4.5002 0,1.9289 1.2612,3.5711 3.0471,4.1934 -0.3451,0.6466 -0.6705,1.3176 -0.6719,2.0568 0,2.4792 2.0209,4.5001 4.5004,4.5001 1.512,0 2.7996,-0.8596 3.6253,-2.0901 0.8259,1.2295 2.1126,2.0881 3.6234,2.0901 2.4797,0 4.5004,-2.0209 4.5004,-4.5001 0,-0.7402 -0.2325,-1.4213 -0.4785,-2.0678 1.6972,-0.7109 2.8527,-2.2541 2.8538,-4.1824 0,-2.4795 -2.0208,-4.5002 -4.5004,-4.5002 -0.534,0 -0.991,0.093 -1.506,0.2501 -0.089,-2.2448 -1.9636,-4.1878 -4.4828,-4.2501 -2.1098,-0.1097 -4.353,1.6609 -4.5044,4.254 z" color="#000" font-family="sans-serif" font-weight="400" overflow="visible" style="line-height:normal;font-variant-ligatures:normal;font-variant-position:normal;font-variant-caps:normal;font-variant-numeric:normal;font-variant-alternates:normal;font-feature-settings:normal;text-indent:0;text-align:start;text-decoration-line:none;text-decoration-style:solid;text-decoration-color:#000;text-transform:none;text-orientation:mixed;shape-padding:0;isolation:auto;mix-blend-mode:normal" fill="#34a853" class="color000000 svgShape"></path>
    <path fill="#ea4335" d="m -2666.5814,2127.2099 c 2.0623,0.054 3.4626,1.4966 3.5081,3.5062 0,0.1608 -0.015,0.3243 -0.039,0.4883 -0.06,0.416 0.3885,0.7164 0.7501,0.5018 0.5414,-0.3243 1.1604,-0.4979 1.7892,-0.4979 1.939,0 3.5003,1.5612 3.5003,3.5001 -9e-4,1.6454 -1.1412,3.0625 -2.7483,3.4161 -0.3527,0.077 -0.5097,0.4916 -0.2969,0.7832 0.4344,0.5969 0.67,1.3145 0.67,2.0509 0,1.9389 -1.5613,3.5001 -3.5004,3.5001 -1.3635,0 -2.5995,-0.7919 -3.1721,-2.0292 -0.1787,-0.3876 -0.7295,-0.3876 -0.9082,0 -0.5728,1.2374 -1.8075,2.0292 -3.1703,2.0292 -1.939,0 -3.5003,-1.5612 -3.5003,-3.5001 0,-0.737 0.2363,-1.455 0.67,-2.0509 0.2128,-0.2916 0.056,-0.7058 -0.2969,-0.7832 -1.6071,-0.3536 -2.7484,-1.7711 -2.7484,-3.4161 0,-1.9382 1.5603,-3.499 3.4985,-3.5001 0.6304,0 1.2484,0.174 1.7891,0.4979 0.3638,0.2192 0.8179,-0.086 0.7521,-0.5057 -0.026,-0.1656 -0.046,-0.3302 -0.039,-0.4922 0.1039,-2.352 1.7874,-3.4452 3.4924,-3.4984 z" color="#000" font-family="sans-serif" font-weight="400" overflow="visible" style="line-height:normal;font-variant-ligatures:normal;font-variant-position:normal;font-variant-caps:normal;font-variant-numeric:normal;font-variant-alternates:normal;font-feature-settings:normal;text-indent:0;text-align:start;text-decoration-line:none;text-decoration-style:solid;text-decoration-color:#000;text-transform:none;text-orientation:mixed;shape-padding:0;isolation:auto;mix-blend-mode:normal" class="colore6f4f6 svgShape"></path>
    <path fill-rule="evenodd" d="m -2666.5948,2142.7086 a 0.50009525,0.50006688 0 0 0 -0.4648,0.619 l 0.5195,2.2463 c 0.6172,2.6715 0.4206,5.4669 -0.5645,8.0256 l -0.9337,2.4239 a 0.50026258,0.5002342 0 1 0 0.9337,0.3595 l 0.9336,-2.424 c 1.0569,-2.7449 1.2677,-5.7436 0.6056,-8.6097 l -0.5195,-2.2461 a 0.50009525,0.50006688 0 0 0 -0.5099,-0.3945 z" color="#000" font-family="sans-serif" font-weight="400" overflow="visible" style="line-height:normal;font-variant-ligatures:normal;font-variant-position:normal;font-variant-caps:normal;font-variant-numeric:normal;font-variant-alternates:normal;font-feature-settings:normal;text-indent:0;text-align:start;text-decoration-line:none;text-decoration-style:solid;text-decoration-color:#000;text-transform:none;text-orientation:mixed;shape-padding:0;isolation:auto;mix-blend-mode:normal" fill="#34a853" class="color000000 svgShape"></path>
    <path d="m -2666.5714,2133.8333 c -1.0987,0 -2.0002,0.9014 -2.0002,2 0,1.0988 0.9015,2.0001 2.0002,2.0001 1.0988,0 2.0002,-0.9013 2.0002,-2.0001 0,-1.0986 -0.9014,-2 -2.0002,-2 z" color="#000" font-family="sans-serif" font-weight="400" overflow="visible" style="line-height:normal;font-variant-ligatures:normal;font-variant-position:normal;font-variant-caps:normal;font-variant-numeric:normal;font-variant-alternates:normal;font-feature-settings:normal;text-indent:0;text-align:start;text-decoration-line:none;text-decoration-style:solid;text-decoration-color:#000;text-transform:none;text-orientation:mixed;shape-padding:0;isolation:auto;mix-blend-mode:normal" fill="#34a853" class="color000000 svgShape"></path>
    <path fill="#fbbc05" d="m -2666.5714,2134.8334 c 0.5583,0 1.0001,0.4417 1.0001,0.9999 0,0.5584 -0.4418,1.0002 -1.0001,1.0002 -0.5582,0 -1.0001,-0.4418 -1.0001,-1.0002 0,-0.5582 0.4419,-0.9999 1.0001,-0.9999 z" color="#000" font-family="sans-serif" font-weight="400" overflow="visible" style="line-height:normal;font-variant-ligatures:normal;font-variant-position:normal;font-variant-caps:normal;font-variant-numeric:normal;font-variant-alternates:normal;font-feature-settings:normal;text-indent:0;text-align:start;text-decoration-line:none;text-decoration-style:solid;text-decoration-color:#000;text-transform:none;text-orientation:mixed;shape-padding:0;isolation:auto;mix-blend-mode:normal" class="colorecbc97 svgShape"></path>
    <path fill-rule="evenodd" d="m -2661.4322,2147.2323 c -0.9823,0.01 -2.1242,0.067 -2.93,0.6092 -0.7613,0.5129 -1.2034,1.475 -1.545,2.3146 -0.3417,0.8397 -0.5353,1.5781 -0.5353,1.5781 a 0.50009522,0.50006685 0 0 0 0.4884,0.6271 c 0,0 0.8321,-0.01 1.8224,-0.1269 0.9903,-0.1206 2.1362,-0.3147 2.9163,-0.8732 0.659,-0.4718 1.0942,-1.2979 1.4396,-2.0215 0.3454,-0.7235 0.5606,-1.3555 0.5606,-1.3555 a 0.50009522,0.50006685 0 0 0 -0.4122,-0.6581 c 0,0 -0.8224,-0.1003 -1.8048,-0.094 z" color="#000" font-family="sans-serif" font-weight="400" overflow="visible" style="line-height:normal;font-variant-ligatures:normal;font-variant-position:normal;font-variant-caps:normal;font-variant-numeric:normal;font-variant-alternates:normal;font-feature-settings:normal;text-indent:0;text-align:start;text-decoration-line:none;text-decoration-style:solid;text-decoration-color:#000;text-transform:none;text-orientation:mixed;shape-padding:0;isolation:auto;mix-blend-mode:normal" fill="#34a853" class="color000000 svgShape"></path>
    <path fill="#adbbd1" fill-rule="evenodd" d="m -2661.4222,2148.2322 c 0.5471,0 0.6996,0.025 1.0079,0.051 -0.09,0.2291 -0.1004,0.2913 -0.2599,0.6251 -0.3181,0.6664 -0.793,1.4071 -1.1192,1.6406 -0.4472,0.3202 -1.527,0.5785 -2.4553,0.6915 -0.5379,0.065 -0.6746,0.057 -0.9903,0.07 0.084,-0.2712 0.096,-0.3647 0.2637,-0.7774 0.3143,-0.7723 0.8093,-1.6144 1.1759,-1.8613 0.4109,-0.2769 1.4663,-0.4335 2.3772,-0.4395 z" color="#000" font-family="sans-serif" font-weight="400" overflow="visible" style="line-height:normal;font-variant-ligatures:normal;font-variant-position:normal;font-variant-caps:normal;font-variant-numeric:normal;font-variant-alternates:normal;font-feature-settings:normal;text-indent:0;text-align:start;text-decoration-line:none;text-decoration-style:solid;text-decoration-color:#000;text-transform:none;text-orientation:mixed;shape-padding:0;isolation:auto;mix-blend-mode:normal" class="coloradd1bd svgShape"></path>
    <path fill-rule="evenodd" d="m -2670.9507,2148.49 c -0.9823,-0.01 -1.8049,0.092 -1.8049,0.092 a 0.50009522,0.50006685 0 0 0 -0.414,0.6603 c 0,0 0.2171,0.63 0.5626,1.3534 0.3454,0.7236 0.7805,1.5499 1.4395,2.0217 0.7801,0.5584 1.9261,0.7505 2.9163,0.8711 0.9902,0.1205 1.8224,0.1269 1.8224,0.1269 a 0.50009522,0.50006685 0 0 0 0.4864,-0.6269 c 0,0 -0.1936,-0.7384 -0.5352,-1.5782 -0.3416,-0.8398 -0.782,-1.7997 -1.5431,-2.3125 -0.8058,-0.5428 -1.9476,-0.603 -2.93,-0.6095 z" color="#000" font-family="sans-serif" font-weight="400" overflow="visible" style="line-height:normal;font-variant-ligatures:normal;font-variant-position:normal;font-variant-caps:normal;font-variant-numeric:normal;font-variant-alternates:normal;font-feature-settings:normal;text-indent:0;text-align:start;text-decoration-line:none;text-decoration-style:solid;text-decoration-color:#000;text-transform:none;text-orientation:mixed;shape-padding:0;isolation:auto;mix-blend-mode:normal" fill="#34a853" class="color000000 svgShape"></path>
    <path fill="#adbed9" fill-rule="evenodd" d="m -2670.9607,2149.4901 c 0.9109,0.01 1.9662,0.1607 2.3772,0.4376 0.3665,0.2468 0.8636,1.0888 1.1778,1.8613 0.1677,0.4122 0.1793,0.5062 0.2638,0.7774 -0.3157,-0.014 -0.4525,0 -0.9904,-0.068 -0.9283,-0.113 -2.0081,-0.3733 -2.4553,-0.6934 -0.3262,-0.2336 -0.8011,-0.9724 -1.1193,-1.6387 -0.159,-0.333 -0.1679,-0.3961 -0.2578,-0.625 0.3084,-0.026 0.459,-0.054 1.004,-0.051 z" color="#000" font-family="sans-serif" font-weight="400" overflow="visible" style="line-height:normal;font-variant-ligatures:normal;font-variant-position:normal;font-variant-caps:normal;font-variant-numeric:normal;font-variant-alternates:normal;font-feature-settings:normal;text-indent:0;text-align:start;text-decoration-line:none;text-decoration-style:solid;text-decoration-color:#000;text-transform:none;text-orientation:mixed;shape-padding:0;isolation:auto;mix-blend-mode:normal" class="coloradd9c0 svgShape"></path>
  </g>
</svg>
