<svg xmlns="http://www.w3.org/2000/svg" width="32" height="32" id="heart">
  <path fill-rule="evenodd" d="M21.28 5.627c-1.72 0-3.442.66-4.755 1.978L16 8.133l-.525-.528a6.685 6.685 0 0 0-4.752-1.976 6.69 6.69 0 0 0-4.754 1.976 6.755 6.755 0 0 0 0 9.536l.88.882 8.797 8.83a.5.5 0 0 0 .708 0l8.796-8.83.881-.882a6.755 6.755 0 0 0 0-9.536 6.687 6.687 0 0 0-4.752-1.978zm-10.557.992c1.46 0 2.919.566 4.043 1.694l.88.882a.5.5 0 0 0 .708 0l.88-.883a5.679 5.679 0 0 1 8.088 0 5.736 5.736 0 0 1 0 8.124l-.879.882L16 25.793l-8.443-8.475-.88-.882a5.736 5.736 0 0 1 0-8.123 5.694 5.694 0 0 1 4.046-1.694zm.027 1.01a4.752 4.752 0 0 0-4.113 7.125.5.5 0 1 0 .865-.5 3.748 3.748 0 0 1 3.248-5.625.5.5 0 1 0 0-1z" color="#000" font-family="sans-serif" font-weight="400" overflow="visible" style="line-height:normal;text-indent:0;text-align:start;text-decoration-line:none;text-decoration-style:solid;text-decoration-color:#000;text-transform:none;block-progression:tb;white-space:normal;isolation:auto;mix-blend-mode:normal;solid-color:#000;solid-opacity:1"></path>
</svg>
