<svg xmlns="http://www.w3.org/2000/svg" width="32" height="32" id="heart">
  <g fill-rule="evenodd">
    <path fill="#f05542" d="M6.324 7.958a6.246 6.246 0 0 0 0 8.83l.88.883L16 26.5l8.797-8.83.88-.883a6.246 6.246 0 0 0 0-8.83 6.19 6.19 0 0 0-8.797 0l-.88.883-.88-.883a6.19 6.19 0 0 0-8.796 0z"></path>
    <path d="M10.723 1025.99a6.69 6.69 0 0 0-4.754 1.977 6.755 6.755 0 0 0 0 9.535l.88.883 8.797 8.83a.5.5 0 0 0 .708 0l8.796-8.83.881-.883a6.755 6.755 0 0 0 0-9.535 6.702 6.702 0 0 0-9.506 0l-.525.527-.525-.527a6.685 6.685 0 0 0-4.752-1.977zm0 .99c1.46 0 2.919.566 4.043 1.694l.88.883a.5.5 0 0 0 .708 0l.88-.883a5.679 5.679 0 0 1 8.088 0 5.736 5.736 0 0 1 0 8.123l-.879.883-8.443 8.474-8.441-8.474-.881-.883a5.736 5.736 0 0 1 0-8.123 5.694 5.694 0 0 1 4.045-1.694z" color="#000" font-family="sans-serif" font-weight="400" overflow="visible" style="line-height:normal;text-indent:0;text-align:start;text-decoration-line:none;text-decoration-style:solid;text-decoration-color:#000;text-transform:none;block-progression:tb;isolation:auto;mix-blend-mode:normal" transform="translate(0 -1020.362)"></path>
    <path d="M10.75 1027.99a4.752 4.752 0 0 0-4.113 7.125.5.5 0 1 0 .865-.5 3.748 3.748 0 0 1 3.248-5.625.5.5 0 1 0 0-1z" color="#000" font-family="sans-serif" font-weight="400" overflow="visible" style="line-height:normal;text-indent:0;text-align:start;text-decoration-line:none;text-decoration-style:solid;text-decoration-color:#000;text-transform:none;block-progression:tb;isolation:auto;mix-blend-mode:normal" transform="translate(0 -1020.362)"></path>
  </g>
</svg>
