<svg xmlns="http://www.w3.org/2000/svg" viewBox="0 0 64 64" id="monster">
  <g>
    <path fill="#cd2a00" d="M45 58a3 3 0 0 1-6 0c0-1.66 3-5 3-5S45 56.34 45 58zM50 42a3 3 0 0 1-3 3H45v1a3 3 0 0 1-6 0v3a3 3 0 0 1-6 0v4a3 3 0 0 1-6 0V47a3 3 0 0 1-6 0V44.06a22 22 0 1 1 27.59-4.61A3 3 0 0 1 50 42z"></path>
    <circle cx="32" cy="25" r="10" fill="#ffda44"></circle>
    <path fill="#fff" d="M43,17a3.983,3.983,0,0,1-2.16,3.55A3.942,3.942,0,0,1,39,21a4,4,0,0,1-4-4,3.8,3.8,0,0,1,.24-1.35A4,4,0,0,1,43,17Z"></path>
    <circle cx="32" cy="25" r="2"></circle>
  </g>
</svg>
