<svg xmlns="http://www.w3.org/2000/svg" xml:space="preserve" id="SummerBeach" x="0" y="0" enable-background="new 0 0 196 196" version="1.1" viewBox="0 0 196 196">
  <path fill="#3d76d4" d="M149.06,49.99c3.3,2.49-4.86,8-16.23,8.03c1.08,0.24,11.11,2.34,10.63,5.1
					c-0.83,4.68-18.87,1.93-18.87,1.93s7.15,5.36,6.06,7.52c-1.74,3.33-13.6,0.03-16.36-0.81c1.7,0.66,6.74,2.67,6.34,4.32
					c-0.97,3.71-14.84,1.36-15.97,1.16c0.58,0.32,6.76,3.65,6.02,5.42c-1.24,2.95-12.77-0.99-12.77-0.99
					c-5.06,3.67-11.23,1.51-17.6-1.78C100.32,50.56,126.58,33,149.06,49.99z" class="color3dd4c5 svgShape"></path>
  <path fill="#34a853" d="M132.82,58.02c1.08,0.24,11.11,2.33,10.63,5.1c-0.83,4.68-18.88,1.93-18.88,1.93s7.16,5.37,6.06,7.53
					c-1.74,3.32-13.6,0.03-16.36-0.8c1.7,0.66,6.74,2.66,6.34,4.32c-0.98,3.7-14.84,1.36-15.98,1.16c0.59,0.32,6.76,3.64,6.02,5.42
					c-1.24,2.94-12.77-0.99-12.77-0.99c-5.05,3.67-11.22,1.5-17.59-1.79c0.74-1.09,1.5-2.16,2.25-3.22
					c8.53,1.05,19.56-1.46,30.1-7.55c11.89-6.86,20.17-16.56,22.66-25.34c4.68,0.83,9.28,2.83,13.74,6.21
					C152.36,52.48,144.2,57.99,132.82,58.02z" class="color26aea4 svgShape"></path>
  <path d="M107.69,84.26c-3.35,0-8.08-1.47-9.72-2.02c-5.35,3.7-11.77,1.28-17.91-1.89c-0.13-0.07-0.22-0.18-0.26-0.32
					c-0.04-0.14-0.01-0.29,0.07-0.4c14.35-21.02,30.4-33.93,45.2-36.35c8.68-1.42,16.84,0.71,24.28,6.33l0,0
					c0.84,0.63,1.13,1.5,0.81,2.44c-0.88,2.65-6.56,5.58-13.9,6.32c5.4,1.47,7.98,3.1,7.67,4.86c-0.76,4.24-12.78,3.19-17.62,2.59
					c2.2,1.83,5.7,5.13,4.76,7c-1.31,2.51-7.17,1.81-11.84,0.78c1.46,0.94,2.06,1.8,1.86,2.63c-0.85,3.25-9.28,2.57-13.94,1.94
					c3.13,1.98,4.45,3.55,3.97,4.71C110.69,83.89,109.36,84.26,107.69,84.26z M97.89,81.18c0.05,0,0.11,0.01,0.16,0.03
					c4.61,1.57,11.42,3,12.15,1.27c0.26-0.62-1.42-2.37-5.73-4.74c-0.21-0.12-0.35-0.39-0.27-0.62c0.08-0.23,0.28-0.39,0.52-0.35
					c5.84,1.03,14.75,1.67,15.4-0.8c0.05-0.2,0-1.38-6.04-3.73c-0.25-0.1-0.38-0.38-0.29-0.63c0.09-0.25,0.36-0.39,0.62-0.32
					c7.02,2.11,14.62,3.26,15.77,1.05c0.61-1.21-3.17-4.83-5.91-6.89c-0.18-0.14-0.25-0.38-0.16-0.59c0.09-0.21,0.3-0.34,0.54-0.3
					c6.79,1.03,17.76,1.54,18.31-1.52c0.18-1.01-2.36-2.79-10.08-4.49l-0.17-0.04c-0.25-0.06-0.42-0.29-0.39-0.54
					c0.03-0.25,0.24-0.44,0.5-0.45c8.83-0.02,15.62-3.46,16.4-5.81c0.18-0.53,0.03-0.95-0.47-1.32c-7.21-5.45-15.12-7.51-23.51-6.14
					c-14.42,2.36-30.1,14.95-44.21,35.46c5.78,2.94,11.75,5.06,16.57,1.56C97.69,81.21,97.79,81.18,97.89,81.18z" fill="#000000" class="color000000 svgShape"></path>
  <path fill="#3d76d4" d="M74.05,13.71c-3.98-1.12-3.44,8.71,3.42,17.79c-0.85-0.71-8.58-7.43-10.49-5.38
					c-3.22,3.5,9.88,16.2,9.88,16.2s-8.59-2.45-9.65-0.27c-1.6,3.4,8.2,10.84,10.54,12.54c-1.56-0.96-6.2-3.75-7.27-2.43
					c-2.37,3.02,7.89,12.64,8.73,13.42c-0.61-0.27-7-3.18-7.96-1.52c-1.59,2.77,8.51,9.58,8.51,9.58
					c0.14,6.25,5.59,9.86,12.06,12.93C103.07,52.87,101.16,21.34,74.05,13.71z" class="color3dd4c5 svgShape"></path>
  <path fill="#34a853" d="M91.81,86.56c-4.56-2.18-8.61-4.6-10.64-8.03c3.03-7.44,5-19.33,5-32.73c0-11.05-1.33-21.05-3.49-28.4
					C101.42,28.87,101.72,56.87,91.81,86.56z" class="color26aea4 svgShape"></path>
  <path d="M91.82,87.06c-0.07,0-0.15-0.02-0.21-0.05c-6.25-2.97-12.05-6.62-12.34-13.12c-2.14-1.46-10.13-7.18-8.45-10.1
					c0.64-1.09,2.7-0.99,6.15,0.3c-3.32-3.33-8.95-9.62-6.88-12.26c0.54-0.66,1.59-0.71,3.22-0.12c-3.64-3.1-7.75-7.34-6.54-9.9
					c0.92-1.89,5.67-1.1,8.46-0.45c-3.41-3.49-11.52-12.43-8.6-15.6c1.22-1.31,4.08-0.25,8.52,3.17
					c-3.85-6.29-4.96-12.58-3.38-14.89c0.56-0.82,1.42-1.11,2.44-0.83c8.97,2.52,15.61,7.74,19.72,15.51
					c7.02,13.25,6.45,33.84-1.61,57.98c-0.05,0.14-0.15,0.25-0.28,0.3C91.95,87.05,91.88,87.06,91.82,87.06z M72.51,64.03
					c-0.46,0-0.74,0.1-0.84,0.27c-0.94,1.63,4.32,6.19,8.36,8.91c0.13,0.09,0.22,0.24,0.22,0.4c0.13,5.95,5.43,9.42,11.27,12.25
					c7.8-23.64,8.34-43.75,1.5-56.66c-3.98-7.52-10.41-12.57-19.11-15.01l0,0c-0.6-0.17-1.02-0.03-1.34,0.43
					c-1.4,2.05-0.03,9.53,5.29,16.58c0.15,0.2,0.13,0.49-0.05,0.66c-0.18,0.18-0.47,0.18-0.67,0.02l-0.13-0.11
					c-6.02-5.12-8.97-6.05-9.67-5.3c-2.11,2.28,4.93,10.72,9.86,15.5c0.16,0.16,0.2,0.41,0.08,0.61c-0.11,0.2-0.35,0.29-0.57,0.23
					c-3.3-0.94-8.47-1.76-9.07-0.54c-1.06,2.25,4.45,7.61,10.38,11.92c0.22,0.16,0.27,0.46,0.12,0.68
					c-0.15,0.22-0.45,0.29-0.68,0.15c-5.52-3.39-6.49-2.71-6.62-2.55c-1.57,2,4.33,8.71,8.68,12.74c0.18,0.17,0.21,0.44,0.08,0.64
					c-0.13,0.2-0.4,0.28-0.62,0.18C75.77,64.59,73.62,64.03,72.51,64.03z" fill="#000000" class="color000000 svgShape"></path>
  <path fill="#3d76d4" d="M20.32,51.69c-3.59,2.61,5.06,8.69,17.28,8.93c-1.16,0.24-11.97,2.3-11.5,5.28
					c0.81,5.04,20.23,2.43,20.23,2.43s-7.78,5.62-6.64,7.96c1.81,3.61,14.6,0.28,17.58-0.56c-1.84,0.68-7.29,2.74-6.89,4.52
					c0.98,4,15.91,1.74,17.12,1.55c-0.63,0.34-7.33,3.79-6.57,5.7c1.28,3.19,13.73-0.82,13.73-0.82c5.36,4.04,12.03,1.83,18.93-1.59
					C72.64,53.22,44.77,33.87,20.32,51.69z" class="color3dd4c5 svgShape"></path>
  <path fill="#34a853" d="M93.59,85.1c-6.89,3.41-13.57,5.62-18.93,1.58c0,0-12.46,4.01-13.74,0.82c-0.75-1.91,5.95-5.37,6.58-5.71
					c-1.23,0.2-16.15,2.47-17.12-1.54c-0.4-1.78,5.05-3.84,6.88-4.52c-2.98,0.84-15.77,4.17-17.57,0.57
					c-1.13-2.35,6.64-7.98,6.64-7.98s-19.43,2.62-20.24-2.43c-0.46-2.98,10.35-5.04,11.51-5.27c-12.22-0.24-20.87-6.31-17.28-8.92
					c6.13-4.47,12.48-6.6,18.89-6.79c0.18,8,6.27,18.23,16.4,26.22c12.3,9.69,26.45,12.8,33.83,7.96
					C90.85,81.02,92.23,83.04,93.59,85.1z" class="color26aea4 svgShape"></path>
  <path d="M81.33,89.36c-2.37,0-4.65-0.61-6.76-2.12c-2.62,0.83-12.77,3.78-14.11,0.45c-0.5-1.26,1-2.95,4.47-5.03
					c-4.96,0.6-14.19,1.22-15.05-2.29c-0.2-0.91,0.51-1.85,2.2-2.86c-5.06,1.04-11.49,1.74-12.86-0.99
					c-0.99-2.04,2.94-5.58,5.33-7.47c-5.12,0.55-18.22,1.51-18.96-3.06c-0.3-1.9,2.56-3.6,8.5-5.09c-7.95-0.9-14.07-4.16-14.98-7.04
					c-0.31-1,0.01-1.91,0.91-2.56l0.29,0.4l-0.29-0.4c8.08-5.89,16.88-8.02,26.16-6.33C62.02,47.83,79,61.99,94.01,84.82
					c0.08,0.12,0.1,0.27,0.06,0.41c-0.04,0.14-0.13,0.25-0.26,0.32C89.63,87.61,85.34,89.36,81.33,89.36z M74.66,86.18
					c0.11,0,0.21,0.03,0.3,0.1c5.13,3.86,11.61,1.68,17.9-1.38c-14.78-22.32-31.4-36.15-46.85-38.96c-9-1.63-17.54,0.44-25.39,6.15
					l0,0c-0.56,0.4-0.73,0.87-0.54,1.45c0.8,2.55,8.03,6.38,17.54,6.57c0.25,0.01,0.46,0.2,0.49,0.45s-0.15,0.48-0.4,0.54
					l-0.19,0.04c-8.34,1.69-11.1,3.57-10.93,4.67c0.53,3.32,12.35,2.99,19.67,2.01c0.22-0.03,0.45,0.1,0.53,0.31
					c0.08,0.21,0.01,0.46-0.17,0.59c-3.09,2.23-7.14,5.99-6.49,7.34c1.2,2.41,9.41,1.32,17-0.82c0.26-0.08,0.53,0.07,0.61,0.33
					s-0.05,0.53-0.3,0.62c-6.55,2.42-6.62,3.71-6.57,3.94c0.65,2.68,10.26,2.16,16.56,1.16c0.24-0.04,0.48,0.1,0.55,0.33
					c0.08,0.23-0.02,0.49-0.24,0.6c-4.77,2.52-6.61,4.39-6.34,5.08c0.76,1.9,8.13,0.49,13.12-1.11
					C74.56,86.19,74.61,86.18,74.66,86.18z" fill="#000000" class="color000000 svgShape"></path>
  <path fill="#3d76d4" d="M159.23,103.32c0.56,4.4-7.71,3.47-16.98-4.49c0.71,0.96,7.39,9.69,5.06,11.6
					c-3.96,3.22-16.7-11.67-16.7-11.67s2.05,9.37-0.35,10.37c-3.75,1.49-11.07-9.52-12.74-12.13c0.92,1.73,3.61,6.9,2.12,7.96
					c-3.4,2.34-13.02-9.3-13.8-10.26c0.25,0.67,2.94,7.71,1.1,8.63c-3.08,1.52-9.69-9.76-9.69-9.76
					c-6.69-0.56-10.19-6.65-13.05-13.8C121.06,69.96,156.02,78.22,159.23,103.32z" class="color3dd4c5 svgShape"></path>
  <path fill="#34a853" d="M142.25,98.83c0.71,0.95,7.4,9.69,5.06,11.6c-3.97,3.22-16.7-11.68-16.7-11.68s2.06,9.37-0.36,10.38
					c-3.74,1.48-11.07-9.52-12.73-12.14c0.92,1.74,3.61,6.89,2.12,7.96c-3.4,2.33-13.01-9.31-13.79-10.26
					c0.24,0.67,2.93,7.71,1.09,8.63c-3.08,1.52-9.7-9.77-9.7-9.77c-4.34-0.37-7.33-3.06-9.66-6.86c7.86,2.47,17.93,3.95,28.91,3.95
					c12.64,0,24.09-1.96,32.34-5.14c5.72,4.44,9.45,10.39,10.4,17.81C159.8,107.73,151.52,106.8,142.25,98.83z" class="color26aea4 svgShape"></path>
  <path d="M145.96,111.37c-4.22,0-11.51-7.58-14.51-10.9c0.51,3,1.08,8.26-1,9.12c-2.84,1.13-7.17-3.68-10.25-7.82
					c0.59,1.88,0.5,3.05-0.26,3.59c-2.98,2.05-9.46-4.57-12.76-8.32c1.2,3.89,1.2,6.13-0.01,6.74c-3.22,1.58-8.81-7.38-10.22-9.74
					c-6.94-0.74-10.46-7.2-13.22-14.08c-0.05-0.13-0.05-0.28,0.02-0.41c0.06-0.13,0.18-0.22,0.32-0.26
					c24.99-6.64,49.19-4.93,63.17,4.46c7.26,4.88,11.46,11.45,12.49,19.52l0,0c0.16,1.23-0.29,2.2-1.27,2.73
					c-2.3,1.24-7.54-0.02-13.72-4.54c3.39,5.02,4.37,8.17,2.89,9.38C147.15,111.2,146.59,111.37,145.96,111.37z M130.61,98.26
					c0.14,0,0.28,0.06,0.38,0.17c4.8,5.61,13.39,13.73,16,11.61c0.86-0.71,0.06-3.95-5.03-10.76l-0.12-0.16
					c-0.15-0.2-0.12-0.49,0.06-0.66c0.19-0.17,0.47-0.18,0.67-0.01c6.7,5.75,13.09,7.9,15.4,6.66c0.62-0.33,0.86-0.9,0.76-1.72l0,0
					c-1-7.78-5.05-14.11-12.06-18.82c-13.64-9.17-37.28-10.87-61.8-4.47c2.65,6.48,6.02,12.42,12.42,12.96
					c0.16,0.01,0.31,0.1,0.39,0.25c2.65,4.52,7.21,10.48,9.04,9.57c0.66-0.33,0.54-2.95-1.31-7.92c-0.08-0.23-0.01-0.53,0.2-0.65
					c0.21-0.12,0.46-0.11,0.62,0.07c4.03,4.94,10.85,11.72,13.13,10.16c0.19-0.13,0.99-1.14-2.28-7.31
					c-0.13-0.24-0.04-0.53,0.19-0.67c0.23-0.13,0.53-0.06,0.67,0.16c4.23,6.66,9.63,12.93,12.13,11.94
					c1.38-0.57,0.86-6.07,0.05-9.79c-0.05-0.22,0.06-0.45,0.27-0.55C130.46,98.28,130.53,98.26,130.61,98.26z" fill="#000000" class="color000000 svgShape"></path>
  <path fill="#fbbc05" d="M90.02,90l-12.71-2.24c-18.99,15.04-25.83,44.05-33.76,73.86h39.69C70.53,133.86,85.03,104.89,90.02,90z" class="colorfb7e05 svgShape"></path>
  <path fill="#f51300" d="M83.24,161.61H56.03c6.18-7.86,12.35-21.71,16.36-38.1c3.2-13.12,4.43-25.44,3.84-34.87
					c0.36-0.32,0.71-0.61,1.08-0.9L90.02,90C85.02,104.89,70.53,133.85,83.24,161.61z" class="colorf55600 svgShape"></path>
  <path d="M83.24,162.11H43.55c-0.16,0-0.3-0.07-0.4-0.2s-0.13-0.28-0.09-0.43l1.26-4.74c7.49-28.3,14.56-55.03,32.67-69.38
					c0.11-0.09,0.26-0.13,0.4-0.1l12.71,2.24c0.14,0.02,0.27,0.11,0.34,0.24c0.07,0.12,0.09,0.28,0.04,0.41
					c-0.69,2.05-1.56,4.39-2.49,6.88c-6.05,16.17-15.18,40.6-4.3,64.36c0.07,0.15,0.06,0.33-0.03,0.48
					C83.57,162.02,83.41,162.11,83.24,162.11z M44.2,161.11h38.27c-10.56-23.92-1.45-48.26,4.59-64.42c0.84-2.26,1.65-4.4,2.3-6.3
					l-11.91-2.1C59.72,102.46,52.71,128.95,45.29,157L44.2,161.11z" fill="#000000" class="color000000 svgShape"></path>
  <path fill="#fdbd03" d="M180.71,173.62c-2.31-15.44-35.93-27.68-77.08-27.68s-74.77,12.25-77.08,27.68
					C58.37,178.79,118.7,176.42,180.71,173.62z" class="colorfdd503 svgShape"></path>
  <path fill="#fbbc05" d="M180.7,173.62c-62,2.79-122.34,5.17-154.15,0c0.76-5.14,5.02-9.94,11.86-14.04
					c14.8,4.09,36.9,6.68,61.56,6.68c27.46,0,51.72-3.22,66.3-8.12C174.63,162.55,179.83,167.87,180.7,173.62z" class="colorf2af06 svgShape"></path>
  <path d="M81.03,177.17c-22.24,0-40.91-0.85-54.56-3.07c-0.27-0.04-0.46-0.3-0.41-0.57c2.36-15.76,36.43-28.11,77.57-28.11
					s75.21,12.35,77.57,28.11c0.02,0.14-0.02,0.28-0.11,0.39s-0.22,0.18-0.36,0.18C143.7,175.79,109.45,177.17,81.03,177.17z
					 M27.13,173.2c31.02,4.92,87.63,2.89,152.99-0.06c-3-15.02-36.32-26.71-76.49-26.71C63.41,146.43,30.05,158.15,27.13,173.2z" fill="#000000" class="color000000 svgShape"></path>
  <path fill="#ffffff" d="M163.51,182.37c-6.1,0-9.41-1.4-12.07-2.52c-2.33-0.98-4.01-1.69-7.9-1.69c-3.89,0-5.57,0.71-7.9,1.69
						c-2.66,1.12-5.97,2.52-12.07,2.52c-6.09,0-9.41-1.4-12.07-2.52c-2.33-0.98-4.01-1.69-7.9-1.69c-3.88,0-5.56,0.71-7.89,1.69
						c-2.66,1.12-5.97,2.52-12.06,2.52c-6.09,0-9.41-1.4-12.07-2.52c-2.33-0.98-4.01-1.69-7.89-1.69c-3.88,0-5.57,0.71-7.89,1.69
						c-2.66,1.12-5.97,2.52-12.06,2.52s-9.4-1.4-12.06-2.52c-2.33-0.98-4.01-1.69-7.89-1.69c-2.5,0-4.53-1.65-4.53-3.69
						s2.03-3.69,4.53-3.69c6.09,0,9.4,1.4,12.06,2.52c2.33,0.98,4.01,1.69,7.89,1.69s5.57-0.71,7.89-1.69
						c2.66-1.12,5.97-2.52,12.06-2.52c6.09,0,9.41,1.4,12.07,2.52c2.33,0.98,4.01,1.69,7.89,1.69c3.88,0,5.56-0.71,7.89-1.69
						c2.66-1.12,5.97-2.52,12.06-2.52c6.09,0,9.41,1.4,12.07,2.52c2.33,0.98,4.01,1.69,7.9,1.69s5.57-0.71,7.9-1.69
						c2.66-1.12,5.97-2.52,12.07-2.52c6.1,0,9.41,1.4,12.07,2.52c2.33,0.98,4.01,1.69,7.9,1.69c3.89,0,5.57-0.71,7.9-1.69
						c2.66-1.12,5.97-2.52,12.07-2.52c2.5,0,4.53,1.65,4.53,3.69s-2.03,3.69-4.53,3.69c-3.89,0-5.57,0.71-7.9,1.69
						C172.91,180.98,169.6,182.37,163.51,182.37z" class="colorffffff svgShape"></path>
  <path fill="#fef2ce" d="M187.99,174.48c0,2.03-2.02,3.68-4.52,3.68c-3.89,0-5.58,0.71-7.9,1.7c-2.66,1.12-5.97,2.52-12.08,2.52
						c-6.09,0-9.4-1.4-12.06-2.52c-2.33-0.99-4.01-1.7-7.9-1.7s-5.56,0.71-7.9,1.7c-2.66,1.12-5.97,2.52-12.06,2.52
						c-6.1,0-9.41-1.4-12.08-2.52c-2.32-0.99-4.01-1.7-7.9-1.7c-3.88,0-5.56,0.71-7.88,1.7c-2.66,1.12-5.97,2.52-12.06,2.52
						c-6.1,0-9.41-1.4-12.06-2.52c-2.33-0.99-4.02-1.7-7.9-1.7c-3.89,0-5.56,0.71-7.9,1.7c-2.66,1.12-5.97,2.52-12.06,2.52
						s-9.41-1.4-12.06-2.52c-2.33-0.99-4.01-1.7-7.9-1.7c-2.5,0-4.53-1.65-4.53-3.68c0-0.61,0.18-1.19,0.5-1.69
						c0.75,1.19,2.27,2,4.03,2c3.89,0,5.56,0.71,7.9,1.7c2.65,1.12,5.97,2.52,12.06,2.52s9.4-1.4,12.06-2.52
						c2.33-0.99,4.01-1.7,7.9-1.7c3.88,0,5.56,0.71,7.9,1.7c2.65,1.12,5.96,2.52,12.06,2.52c6.09,0,9.4-1.4,12.06-2.52
						c2.32-0.99,4.01-1.7,7.88-1.7c3.89,0,5.58,0.71,7.9,1.7c2.66,1.12,5.97,2.52,12.08,2.52c6.09,0,9.4-1.4,12.06-2.52
						c2.33-0.99,4.01-1.7,7.9-1.7s5.56,0.71,7.9,1.7c2.66,1.12,5.97,2.52,12.06,2.52c6.1,0,9.41-1.4,12.08-2.52
						c2.32-0.99,4.01-1.7,7.9-1.7c1.77,0,3.28-0.82,4.03-2C187.82,173.29,187.99,173.87,187.99,174.48z" class="colorfee4ce svgShape"></path>
  <path d="M163.51,182.87c-6.2,0-9.56-1.42-12.26-2.56c-2.27-0.96-3.92-1.65-7.7-1.65s-5.43,0.69-7.7,1.65
						c-2.7,1.14-6.07,2.56-12.26,2.56s-9.56-1.42-12.26-2.56c-2.27-0.96-3.92-1.65-7.7-1.65c-3.78,0-5.43,0.69-7.7,1.65
						c-2.7,1.14-6.06,2.56-12.26,2.56c-6.2,0-9.56-1.42-12.26-2.56c-2.27-0.96-3.91-1.65-7.7-1.65c-3.79,0-5.43,0.69-7.7,1.65
						c-2.7,1.14-6.06,2.56-12.26,2.56c-6.2,0-9.56-1.42-12.26-2.56c-2.27-0.96-3.91-1.65-7.7-1.65c-2.77,0-5.03-1.88-5.03-4.19
						s2.26-4.19,5.03-4.19c6.2,0,9.56,1.42,12.26,2.56c2.28,0.96,3.92,1.65,7.7,1.65s5.42-0.69,7.7-1.65
						c2.7-1.14,6.06-2.56,12.26-2.56c6.2,0,9.56,1.42,12.26,2.56c2.28,0.96,3.92,1.65,7.7,1.65c3.78,0,5.42-0.69,7.69-1.65
						c2.7-1.14,6.07-2.56,12.26-2.56c6.2,0,9.56,1.42,12.26,2.56c2.28,0.96,3.92,1.65,7.7,1.65c3.78,0,5.43-0.69,7.7-1.65
						c2.7-1.14,6.07-2.56,12.26-2.56c6.19,0,9.56,1.42,12.26,2.56c2.28,0.96,3.92,1.66,7.71,1.66s5.43-0.69,7.7-1.65
						c2.71-1.14,6.07-2.56,12.26-2.56c2.77,0,5.03,1.88,5.03,4.19s-2.26,4.19-5.03,4.19c-3.79,0-5.43,0.69-7.7,1.65
						C173.06,181.46,169.7,182.87,163.51,182.87z M143.54,177.66c3.99,0,5.71,0.73,8.09,1.73c2.62,1.11,5.88,2.48,11.87,2.48
						c5.99,0,9.25-1.38,11.87-2.48c2.38-1.01,4.1-1.73,8.09-1.73c2.22,0,4.03-1.43,4.03-3.19s-1.81-3.19-4.03-3.19
						c-5.99,0-9.25,1.37-11.87,2.48c-2.39,1.01-4.11,1.73-8.1,1.73s-5.71-0.73-8.09-1.73c-2.63-1.11-5.88-2.48-11.88-2.48
						c-6,0-9.25,1.38-11.87,2.48c-2.38,1-4.11,1.73-8.09,1.73c-3.98,0-5.7-0.73-8.08-1.73c-2.62-1.11-5.88-2.48-11.88-2.48
						c-5.99,0-9.25,1.38-11.87,2.48c-2.38,1-4.1,1.73-8.09,1.73c-3.98,0-5.7-0.73-8.08-1.73c-2.62-1.11-5.88-2.48-11.88-2.48
						s-9.25,1.38-11.87,2.48c-2.38,1-4.1,1.73-8.09,1.73s-5.7-0.73-8.08-1.73c-2.62-1.11-5.88-2.48-11.87-2.48
						c-2.22,0-4.03,1.43-4.03,3.19s1.81,3.19,4.03,3.19c3.99,0,5.71,0.73,8.09,1.73c2.62,1.11,5.88,2.48,11.87,2.48
						c5.99,0,9.25-1.38,11.87-2.48c2.38-1,4.1-1.73,8.09-1.73c3.99,0,5.71,0.73,8.09,1.73c2.62,1.11,5.88,2.48,11.87,2.48
						s9.25-1.38,11.87-2.48c2.38-1,4.1-1.73,8.09-1.73c3.99,0,5.71,0.73,8.09,1.73c2.62,1.11,5.88,2.48,11.87,2.48
						s9.25-1.38,11.87-2.48C137.83,178.39,139.55,177.66,143.54,177.66z" fill="#000000" class="color000000 svgShape"></path>
  <path fill="#f2746a" d="M109.73,146.92c0.94,2.66,1.09,5.31,0.55,7.06c-0.32,1.01,0.3,2.1,1.29,2.46l0.29,0.1
					c0.85,0.32,1.02,1.38,0.34,2.15c-1.49,1.69-3.4,3.16-5.71,4.37c-0.9,0.46-1.88,0.02-1.97-0.88l-0.01-0.1
					c-0.12-1.11-1.12-1.85-2.23-1.75c-1.85,0.16-4.46-0.63-6.9-2.23c-3.63-2.4-5.5-5.68-4.18-7.35c0.9-1.11,2.99-1.22,5.38-0.46
					c-0.87-2.21-0.83-4.19,0.3-5.07c1.14-0.89,3.07-0.44,5,0.94c-0.16-2.49,0.45-4.5,1.75-5.1
					C105.57,140.2,108.31,142.8,109.73,146.92z" class="colorf26a90 svgShape"></path>
  <path fill="#ea4335" d="M112.21,158.7c-1.5,1.67-3.4,3.15-5.72,4.36c-0.9,0.46-1.89,0.03-1.96-0.87l-0.01-0.11
					c-0.07-0.65-0.43-1.16-0.95-1.48c1.32-2.28,2.11-5.33,2.11-8.69c0-4.06-1.16-7.67-2.98-10.02c0.25-0.38,0.57-0.66,0.94-0.83
					c1.95-0.87,4.68,1.73,6.12,5.84c0.94,2.66,1.08,5.31,0.54,7.07c-0.32,1.02,0.29,2.1,1.29,2.46l0.29,0.09
					C112.71,156.85,112.88,157.92,112.21,158.7z" class="colore74e6c svgShape"></path>
  <path d="M105.74,163.75c-0.31,0-0.61-0.07-0.88-0.22c-0.48-0.27-0.79-0.74-0.84-1.29c-0.09-0.91-0.83-1.48-1.7-1.4
					c-2.06,0.17-4.75-0.69-7.22-2.31c-2.64-1.74-4.47-4.01-4.78-5.92c-0.13-0.84,0.03-1.58,0.49-2.16c0.89-1.11,2.72-1.42,4.99-0.89
					c-0.62-2.12-0.35-3.86,0.77-4.73c1.13-0.88,2.88-0.72,4.78,0.4c0.03-2.33,0.78-4.02,2.07-4.61c0.67-0.3,1.44-0.28,2.23,0.06
					c1.78,0.77,3.53,3.1,4.56,6.08l0,0c0.94,2.67,1.15,5.43,0.55,7.38c-0.23,0.73,0.21,1.56,0.98,1.84l0.27,0.09
					c0.54,0.2,0.92,0.62,1.05,1.15c0.15,0.61-0.03,1.28-0.49,1.81c-1.55,1.75-3.52,3.26-5.86,4.48
					C106.4,163.67,106.07,163.75,105.74,163.75z M102.49,159.83c1.3,0,2.38,0.93,2.52,2.21c0,0,0.01,0.1,0.01,0.1
					c0.03,0.29,0.19,0.44,0.33,0.51c0.26,0.14,0.6,0.13,0.91-0.03c2.22-1.17,4.1-2.6,5.57-4.26c0.24-0.27,0.34-0.61,0.27-0.9
					c-0.04-0.15-0.14-0.35-0.41-0.45l-0.27-0.09c-1.28-0.47-2-1.85-1.61-3.08c0.53-1.72,0.32-4.3-0.54-6.75c0,0,0,0,0,0
					c-0.93-2.68-2.51-4.84-4.01-5.49c-0.53-0.23-1-0.25-1.42-0.06c-1.04,0.48-1.61,2.29-1.46,4.61c0.01,0.19-0.09,0.38-0.26,0.47
					c-0.17,0.1-0.38,0.08-0.53-0.03c-1.81-1.29-3.5-1.66-4.4-0.96c-0.9,0.7-0.95,2.42-0.14,4.5c0.07,0.18,0.03,0.38-0.1,0.52
					c-0.13,0.14-0.33,0.19-0.52,0.13c-2.25-0.72-4.11-0.6-4.84,0.3c-0.27,0.35-0.37,0.81-0.28,1.38c0.26,1.62,1.96,3.67,4.34,5.24
					c2.25,1.48,4.78,2.31,6.58,2.15C102.32,159.84,102.41,159.83,102.49,159.83z" fill="#000000" class="color000000 svgShape"></path>
  <path d="M102.86 156.38c-.08 0-.16-.02-.23-.06-3.51-1.82-6.33-5.56-6.45-5.72-.17-.22-.12-.53.1-.7.22-.17.53-.12.7.1.03.04 2.8 3.72 6.11 5.43.25.13.34.43.21.67C103.21 156.28 103.04 156.38 102.86 156.38zM105.66 153.65c-.23 0-.43-.16-.49-.39-.75-3.26-3.65-6.74-3.68-6.77-.18-.21-.15-.53.06-.71.21-.18.53-.15.71.06.12.15 3.09 3.7 3.89 7.19.06.27-.11.54-.38.6C105.74 153.65 105.7 153.65 105.66 153.65z" fill="#000000" class="color000000 svgShape"></path>
  <path fill="#f2746a" d="M160.3,158.84c-1.86,1.42-3.9,2.21-5.42,2.24c-0.88,0.01-1.57,0.77-1.61,1.64l0,0.25
					c-0.03,0.75-0.83,1.16-1.61,0.82c-1.71-0.75-3.35-1.87-4.9-3.38c-0.59-0.59-0.5-1.48,0.19-1.77l0.08-0.03
					c0.85-0.38,1.17-1.36,0.81-2.21c-0.6-1.42-0.65-3.67-0.01-6.01c0.96-3.47,3.07-5.78,4.72-5.17c1.11,0.42,1.73,2.04,1.74,4.12
					c1.52-1.25,3.09-1.73,4.07-1.06c0.99,0.67,1.13,2.3,0.54,4.18c1.92-0.77,3.66-0.79,4.46,0.08
					C164.52,153.84,163.18,156.66,160.3,158.84z" class="colorf26a90 svgShape"></path>
  <path fill="#ea4335" d="M160.3,158.83c-1.86,1.42-3.9,2.21-5.42,2.24c-0.88,0.01-1.58,0.76-1.61,1.65v0.25
					c-0.04,0.75-0.83,1.16-1.61,0.82c-1.71-0.74-3.36-1.87-4.9-3.37c-0.59-0.59-0.5-1.48,0.18-1.78l0.07-0.03
					c0.46-0.2,0.76-0.58,0.88-1.02c0.98,0.36,2.03,0.55,3.12,0.55c3.93,0,7.26-2.46,8.33-5.87c1.74-0.59,3.26-0.54,3.99,0.25
					C164.53,153.83,163.17,156.66,160.3,158.83z" class="colore74e6c svgShape"></path>
  <path d="M152.22,164.41c-0.25,0-0.51-0.05-0.76-0.16c-1.79-0.78-3.49-1.95-5.06-3.48c-0.43-0.42-0.62-0.99-0.52-1.53
					c0.09-0.48,0.4-0.86,0.85-1.06c0.64-0.29,0.89-0.97,0.62-1.58c-0.67-1.59-0.68-3.96-0.03-6.33c0.7-2.55,2.04-4.59,3.48-5.33
					c0.65-0.33,1.3-0.39,1.89-0.17c1.1,0.42,1.83,1.75,2.02,3.63c1.5-0.98,2.92-1.19,3.9-0.52c0.99,0.67,1.33,2.06,0.98,3.82
					c1.81-0.53,3.31-0.35,4.11,0.51c0.43,0.47,0.62,1.11,0.55,1.83c-0.15,1.62-1.55,3.62-3.65,5.21c-1.88,1.44-4.02,2.31-5.72,2.34
					c-0.59,0-1.09,0.53-1.12,1.16l0,0.24c-0.02,0.51-0.27,0.94-0.68,1.19C152.83,164.33,152.53,164.41,152.22,164.41z
					 M151.98,145.62c-0.22,0-0.46,0.06-0.71,0.19c-1.19,0.61-2.35,2.46-2.97,4.71c-0.59,2.14-0.59,4.31-0.01,5.68
					c0.48,1.12,0.02,2.38-1.06,2.86c-0.27,0.12-0.33,0.26-0.35,0.36c-0.04,0.21,0.05,0.45,0.23,0.63c1.48,1.44,3.08,2.55,4.75,3.28
					c0.25,0.11,0.51,0.1,0.7-0.01c0.09-0.06,0.2-0.17,0.21-0.37l0-0.24c0.04-1.18,0.99-2.13,2.1-2.14c1.47-0.02,3.43-0.84,5.12-2.13
					c0,0,0,0,0,0c1.86-1.41,3.14-3.17,3.26-4.51c0.04-0.45-0.06-0.81-0.29-1.07c-0.62-0.67-2.15-0.65-3.91,0.05
					c-0.18,0.07-0.38,0.03-0.53-0.1c-0.14-0.13-0.2-0.33-0.14-0.52c0.54-1.72,0.41-3.11-0.34-3.62c-0.74-0.5-2.1-0.09-3.47,1.04
					c-0.15,0.12-0.35,0.15-0.53,0.07c-0.17-0.08-0.29-0.26-0.29-0.45c-0.01-1.89-0.57-3.33-1.42-3.65
					C152.24,145.65,152.11,145.62,151.98,145.62z" fill="#000000" class="color000000 svgShape"></path>
  <path d="M151.49 156.21c-.03 0-.05 0-.08-.01-.27-.04-.46-.3-.41-.57.54-3.25 2.77-6.45 2.87-6.58.16-.23.47-.28.7-.12.23.16.28.47.12.7-.02.03-2.2 3.14-2.7 6.17C151.94 156.04 151.73 156.21 151.49 156.21zM154.35 157.72c-.17 0-.33-.09-.43-.24-.14-.24-.07-.54.17-.69 2.36-1.41 4.34-4.57 4.36-4.6.15-.23.46-.3.69-.16.23.15.31.46.16.69-.09.14-2.13 3.4-4.7 4.93C154.52 157.7 154.44 157.72 154.35 157.72z" fill="#000000" class="color000000 svgShape"></path>
  <circle cx="168.71" cy="32.54" r="12.58" fill="#fdbd03" class="colorfdd503 svgShape"></circle>
  <path fill="#fbbc05" d="M181.3,32.54c0,6.95-5.64,12.58-12.59,12.58c-6.6,0-12.01-5.08-12.54-11.55c1.9,1.83,4.3,2.94,6.91,2.94
					c6.1,0,11.06-5.99,11.06-13.35c0-0.69-0.04-1.36-0.13-2.02C178.3,23.12,181.3,27.49,181.3,32.54z" class="colorf2af06 svgShape"></path>
  <path d="M168.71 45.62c-7.21 0-13.08-5.87-13.08-13.08s5.87-13.08 13.08-13.08 13.08 5.87 13.08 13.08S175.92 45.62 168.71 45.62zM168.71 20.45c-6.66 0-12.08 5.42-12.08 12.08s5.42 12.08 12.08 12.08 12.08-5.42 12.08-12.08S175.37 20.45 168.71 20.45zM168.71 16.36c-.28 0-.5-.22-.5-.5v-2.23c0-.28.22-.5.5-.5s.5.22.5.5v2.23C169.21 16.14 168.99 16.36 168.71 16.36zM168.71 51.95c-.28 0-.5-.22-.5-.5v-2.23c0-.28.22-.5.5-.5s.5.22.5.5v2.23C169.21 51.73 168.99 51.95 168.71 51.95zM152.03 33.04L152.03 33.04l-2.24 0c-.28 0-.5-.22-.5-.5 0-.28.22-.5.5-.5l0 0 2.24 0c.28 0 .5.22.5.5C152.53 32.81 152.31 33.04 152.03 33.04zM187.62 33.04h-2.24c-.28 0-.5-.22-.5-.5s.22-.5.5-.5h2.24c.28 0 .5.22.5.5S187.9 33.04 187.62 33.04zM156.92 21.24c-.13 0-.26-.05-.35-.15l-1.58-1.58c-.2-.2-.2-.51 0-.71s.51-.2.71 0l1.58 1.58c.2.2.2.51 0 .71C157.17 21.2 157.04 21.24 156.92 21.24zM182.08 46.41c-.13 0-.26-.05-.35-.15l-1.58-1.58c-.2-.2-.2-.51 0-.71s.51-.2.71 0l1.58 1.58c.2.2.2.51 0 .71C182.34 46.36 182.21 46.41 182.08 46.41zM155.34 46.41c-.13 0-.26-.05-.35-.15-.2-.2-.2-.51 0-.71l1.58-1.58c.2-.2.51-.2.71 0s.2.51 0 .71l-1.58 1.58C155.59 46.36 155.46 46.41 155.34 46.41zM180.51 21.25c-.13 0-.26-.05-.35-.15-.2-.2-.2-.51 0-.71l1.58-1.58c.2-.2.51-.2.71 0s.2.51 0 .71l-1.58 1.58C180.76 21.2 180.63 21.25 180.51 21.25z" fill="#000000" class="color000000 svgShape"></path>
  <g fill="#000000" class="color000000 svgShape">
    <circle cx="86.78" cy="82.94" r="8.67" fill="#3a3a3a" class="color3a3a3a svgShape"></circle>
    <path fill="#2b2d2c" d="M95.45,82.94c0,4.79-3.88,8.66-8.67,8.66c-4.57,0-8.32-3.53-8.63-8.03c1.48,0.83,3.3,1.32,5.26,1.32
						c4.98,0,9.03-3.14,9.03-7.01c0-0.61-0.11-1.2-0.3-1.77C94.16,77.7,95.45,80.16,95.45,82.94z" class="color2b2d2c svgShape"></path>
    <path d="M86.73,92.06c-5.06,0-9.17-4.11-9.17-9.17s4.11-9.17,9.17-9.17s9.17,4.11,9.17,9.17S91.78,92.06,86.73,92.06z
						 M86.73,74.71c-4.51,0-8.17,3.67-8.17,8.17s3.67,8.17,8.17,8.17s8.17-3.67,8.17-8.17S91.23,74.71,86.73,74.71z" fill="#000000" class="color000000 svgShape"></path>
  </g>
  <g fill="#000000" class="color000000 svgShape">
    <circle cx="78.13" cy="89.73" r="8.67" fill="#3a3a3a" class="color3a3a3a svgShape"></circle>
    <path fill="#2b2d2c" d="M86.8,89.74c0,4.79-3.88,8.66-8.67,8.66c-4.57,0-8.32-3.53-8.63-8.03c1.48,0.83,3.3,1.32,5.26,1.32
						c4.98,0,9.03-3.14,9.03-7.01c0-0.61-0.11-1.2-0.3-1.77C85.51,84.49,86.8,86.96,86.8,89.74z" class="color2b2d2c svgShape"></path>
    <path d="M78.08,98.85c-5.06,0-9.17-4.11-9.17-9.17s4.11-9.17,9.17-9.17s9.17,4.11,9.17,9.17S83.14,98.85,78.08,98.85z
						 M78.08,81.51c-4.51,0-8.17,3.67-8.17,8.17s3.67,8.17,8.17,8.17s8.17-3.67,8.17-8.17S82.59,81.51,78.08,81.51z" fill="#000000" class="color000000 svgShape"></path>
  </g>
  <g fill="#000000" class="color000000 svgShape">
    <circle cx="90.83" cy="94.72" r="8.67" fill="#3a3a3a" class="color3a3a3a svgShape"></circle>
    <path fill="#2b2d2c" d="M99.5,94.72c0,4.79-3.88,8.66-8.67,8.66c-4.57,0-8.32-3.53-8.63-8.03c1.48,0.83,3.3,1.32,5.26,1.32
						c4.98,0,9.03-3.14,9.03-7.01c0-0.61-0.11-1.2-0.3-1.77C98.21,89.47,99.5,91.94,99.5,94.72z" class="color2b2d2c svgShape"></path>
    <path d="M90.77,103.83c-5.06,0-9.17-4.11-9.17-9.17c0-5.06,4.11-9.17,9.17-9.17s9.17,4.11,9.17,9.17
						C99.95,99.72,95.83,103.83,90.77,103.83z M90.77,86.49c-4.51,0-8.17,3.67-8.17,8.17s3.67,8.17,8.17,8.17s8.17-3.67,8.17-8.17
						S95.28,86.49,90.77,86.49z" fill="#000000" class="color000000 svgShape"></path>
  </g>
  <g fill="#000000" class="color000000 svgShape">
    <path d="M164.07 31.47c-.77 0-1.37-.95-1.37-2.16 0-.21.17-.38.38-.38s.38.17.38.38c0 .86.37 1.41.62 1.41s.62-.55.62-1.41c0-.21.17-.38.38-.38s.38.17.38.38C165.44 30.53 164.84 31.47 164.07 31.47zM173.06 31.47c-.78 0-1.37-.93-1.37-2.16 0-.21.17-.38.38-.38s.38.17.38.38c0 .86.37 1.41.62 1.41s.62-.55.62-1.41c0-.21.17-.38.38-.38s.38.17.38.38C174.43 30.53 173.83 31.47 173.06 31.47z" fill="#000000" class="color000000 svgShape"></path>
    <path fill="#ffffff" d="M170.76,32.88c-0.19,0.95-1.04,1.68-2.06,1.68c-1.02,0-1.86-0.72-2.06-1.68
							c-0.04-0.19,0.11-0.36,0.3-0.36l3.51,0C170.66,32.52,170.8,32.7,170.76,32.88z" class="colorffffff svgShape"></path>
    <ellipse cx="161.62" cy="34.23" fill="#fbbc05" rx="2.29" ry=".96" class="colorfb7e05 svgShape"></ellipse>
    <ellipse cx="175.79" cy="34.23" fill="#fbbc05" rx="2.29" ry=".96" class="colorfb7e05 svgShape"></ellipse>
  </g>
  <g fill="#000000" class="color000000 svgShape">
    <path fill="#fdbd03" d="M33.98,32.3c-0.07-0.37-0.07-0.77,0.01-1.16c0.79-3.51,2.1-5.58,3.91-6.16c2.03-0.65,3.72,0.56,5,1.58
						c0.42-1.33,1.08-2.86,2.77-3.5c0.53-0.2,2.13-0.8,6.04,1.3c1.36,0.73,1.87,2.42,1.14,3.78c-0.73,1.36-2.42,1.87-3.78,1.14l0,0
						c-0.31-0.17-0.67-0.34-1.01-0.48c-0.42,1.42-1.05,3.52-3.19,4.15c-2.1,0.62-3.83-0.71-5.1-1.74c-0.13,0.38-0.24,0.79-0.33,1.16
						c-0.34,1.5-1.83,2.45-3.34,2.11C35,34.22,34.19,33.34,33.98,32.3z" class="colorfdd503 svgShape"></path>
    <path fill="#fbbc05" d="M52.84,28.14c-0.73,1.36-2.42,1.86-3.78,1.13c-0.3-0.17-0.66-0.34-1.01-0.47
						c-0.41,1.41-1.05,3.51-3.18,4.14c-2.1,0.62-3.84-0.71-5.11-1.73c-0.13,0.38-0.24,0.79-0.33,1.16
						c-0.33,1.51-1.83,2.44-3.33,2.11c-1.11-0.25-1.91-1.13-2.13-2.18c-0.07-0.37-0.08-0.76,0.02-1.15c0.02-0.1,0.04-0.22,0.08-0.32
						c0.3,0.22,0.66,0.39,1.05,0.48c1.51,0.33,3-0.6,3.35-2.11c0.08-0.37,0.2-0.78,0.33-1.16c1.27,1.02,2.99,2.35,5.1,1.73
						c2.13-0.63,2.77-2.73,3.19-4.14c0.34,0.14,0.69,0.3,1.01,0.47c1.36,0.73,3.05,0.23,3.78-1.13c0.07-0.13,0.14-0.27,0.17-0.39
						C53.15,25.38,53.51,26.9,52.84,28.14z" class="colorf2af06 svgShape"></path>
    <path fill="#3d76d4" d="M8.51,132.42c0.22-0.31,0.5-0.58,0.85-0.79c3.09-1.84,5.5-2.31,7.16-1.39c1.87,1.03,2.15,3.09,2.29,4.72
						c1.25-0.61,2.82-1.18,4.45-0.39c0.51,0.25,2.05,1,3.21,5.28c0.4,1.49-0.48,3.02-1.97,3.42c-1.49,0.4-3.02-0.48-3.42-1.96l0,0
						c-0.09-0.34-0.22-0.72-0.34-1.06c-1.32,0.67-3.28,1.65-5.21,0.53c-1.89-1.1-2.11-3.27-2.24-4.91
						c-0.36,0.17-0.74,0.37-1.07,0.56c-1.33,0.78-3.04,0.35-3.82-0.98C7.81,134.48,7.9,133.29,8.51,132.42z" class="color3dd4c5 svgShape"></path>
    <path fill="#34a853" d="M25.03,143.06c-1.16-4.25-2.68-4.99-3.19-5.24c-1.63-0.79-3.19-0.22-4.45,0.39
						c-0.14-1.62-0.42-3.69-2.29-4.72c-1.63-0.9-3.98-0.46-6.98,1.31c-0.25-0.8-0.09-1.7,0.38-2.38c0.23-0.31,0.51-0.58,0.86-0.79
						c3.09-1.83,5.49-2.3,7.15-1.38c1.87,1.03,2.15,3.08,2.28,4.71c1.25-0.61,2.83-1.19,4.45-0.39c0.51,0.24,2.05,1,3.21,5.28
						C26.81,141.16,26.19,142.48,25.03,143.06z" class="color26aea4 svgShape"></path>
    <path fill="#fbbc05" d="M176.29,124.68c0.36-0.11,0.76-0.14,1.16-0.08c3.56,0.49,5.74,1.63,6.46,3.38
						c0.82,1.97-0.25,3.76-1.15,5.11c1.36,0.31,2.94,0.84,3.72,2.47c0.24,0.51,0.98,2.06-0.79,6.13c-0.61,1.41-2.26,2.06-3.67,1.45
						c-1.41-0.61-2.06-2.26-1.45-3.67l0,0c0.14-0.32,0.28-0.7,0.4-1.05c-1.45-0.3-3.6-0.76-4.4-2.83c-0.79-2.04,0.39-3.87,1.31-5.23
						c-0.39-0.09-0.81-0.17-1.18-0.23c-1.53-0.21-2.59-1.62-2.38-3.15C174.46,125.86,175.27,124.98,176.29,124.68z" class="colorfb7e05 svgShape"></path>
    <path fill="#f51300" d="M183.91,127.99c0.82,1.97-0.24,3.75-1.16,5.1c1.36,0.31,2.95,0.85,3.72,2.46
						c0.24,0.52,0.98,2.06-0.79,6.13c-0.61,1.41-2.23,2.06-3.63,1.48l0.04-0.07c1.77-4.07,1.03-5.61,0.8-6.12
						c-0.78-1.62-2.37-2.16-3.72-2.46c0.91-1.36,1.97-3.14,1.15-5.11c-0.68-1.63-2.62-2.74-5.75-3.28c0.35-0.7,0.97-1.22,1.73-1.44
						c0.36-0.1,0.75-0.14,1.15-0.07C181.01,125.09,183.18,126.23,183.91,127.99z" class="colorf55600 svgShape"></path>
    <path fill="#ffffff" d="M101.77,20.42c0.2-0.32,0.47-0.61,0.8-0.84c2.97-2.03,5.35-2.64,7.06-1.83c1.93,0.92,2.34,2.95,2.57,4.57
						c1.21-0.68,2.74-1.35,4.41-0.67c0.52,0.21,2.11,0.87,3.52,5.07c0.49,1.46-0.29,3.04-1.75,3.54c-1.46,0.49-3.04-0.29-3.54-1.75
						l0,0c-0.11-0.33-0.26-0.7-0.41-1.04c-1.27,0.75-3.17,1.85-5.16,0.85c-1.96-0.98-2.31-3.14-2.54-4.76
						c-0.35,0.19-0.72,0.41-1.03,0.63c-1.28,0.86-3.01,0.53-3.88-0.74C101.19,22.51,101.21,21.32,101.77,20.42z" class="colorffffff svgShape"></path>
    <path fill="#fef2ce" d="M119.17,29.87c-0.02-0.09-0.04-0.19-0.08-0.28c-1.41-4.2-3.01-4.87-3.53-5.08
						c-1.67-0.69-3.19-0.02-4.41,0.66c-0.23-1.62-0.64-3.66-2.57-4.57c-1.72-0.81-4.1-0.19-7.06,1.83c-0.03,0.03-0.07,0.05-0.1,0.08
						c-0.18-0.72-0.05-1.47,0.33-2.1c0.2-0.32,0.47-0.6,0.8-0.84c2.98-2.02,5.35-2.63,7.06-1.83c1.94,0.92,2.34,2.95,2.58,4.57
						c1.2-0.69,2.74-1.36,4.41-0.66c0.52,0.22,2.1,0.87,3.53,5.08C120.54,27.91,120.12,29.16,119.17,29.87z" class="colorfee4ce svgShape"></path>
    <path fill="#5f8dd8" d="M161.99,64.71c0.55-0.77,1.51-1.27,2.69-1.14c1.07,0.12,1.89,0.98,2.22,2c1.14,3.5,3.73,3.17,4.02,3.12
						c1.51-0.25,2.93,0.76,3.18,2.27c0.25,1.5-0.76,2.93-2.27,3.18c-2.64,0.45-8.19-0.44-10.24-7
						C161.33,66.29,161.5,65.39,161.99,64.71z" class="color5fa7d8 svgShape"></path>
    <path fill="#4285f4" d="M174.15,71.38c0.01,1.34-0.95,2.53-2.3,2.77c-2.65,0.45-8.19-0.44-10.24-6.99
						c-0.28-0.87-0.11-1.75,0.38-2.43c0.2-0.27,0.42-0.5,0.7-0.67c-0.01,0.25,0.03,0.52,0.11,0.79c2.07,6.55,7.61,7.45,10.24,7
						C173.45,71.77,173.83,71.62,174.15,71.38z" class="color3585c5 svgShape"></path>
    <path fill="#f2746a" d="M20.73,95.22c0.34-0.47,0.82-0.84,1.42-1.03c1.46-0.46,3.01,0.35,3.46,1.81c1.12,3.59,3.75,3.25,4.05,3.2
						c1.51-0.25,2.93,0.76,3.18,2.27c0.25,1.5-0.76,2.93-2.27,3.18c-2.64,0.45-8.19-0.44-10.24-7
						C20.08,96.79,20.25,95.9,20.73,95.22z" class="colorf26a90 svgShape"></path>
    <path fill="#ea4335" d="M32.88,101.8c0.08,1.37-0.91,2.6-2.29,2.84c-2.64,0.45-8.19-0.44-10.24-7c-0.26-0.86-0.09-1.75,0.39-2.43
						c0.24-0.32,0.54-0.6,0.91-0.8c0.01,0.23,0.06,0.47,0.13,0.71c2.05,6.55,7.6,7.44,10.24,6.99
						C32.32,102.06,32.61,101.95,32.88,101.8z" class="colore74e6c svgShape"></path>
    <g fill="#000000" class="color000000 svgShape">
      <path d="M36.72 35.04c-.24 0-.48-.03-.72-.08-1.27-.29-2.25-1.29-2.5-2.56l0 0c-.09-.45-.09-.91.02-1.37.83-3.7 2.25-5.89 4.24-6.53 2.04-.65 3.78.38 4.91 1.23.47-1.24 1.25-2.55 2.84-3.14.58-.22 2.34-.89 6.45 1.33.77.42 1.34 1.11 1.59 1.95.25.84.16 1.73-.25 2.51-.86 1.6-2.86 2.2-4.45 1.34-.14-.08-.3-.16-.46-.23-.44 1.41-1.24 3.31-3.36 3.94-2.04.61-3.78-.46-4.98-1.37-.04.14-.07.29-.11.42C39.58 34 38.22 35.04 36.72 35.04zM34.47 32.2c.18.88.86 1.58 1.74 1.78 1.23.28 2.46-.5 2.74-1.73.09-.39.21-.81.34-1.21.05-.16.18-.28.33-.32.16-.05.33-.01.46.09 1.45 1.17 2.89 2.17 4.65 1.65 1.89-.56 2.47-2.52 2.85-3.81.04-.14.14-.25.27-.31.13-.06.28-.06.41-.01.35.15.72.33 1.05.5 1.11.6 2.5.18 3.1-.93.29-.54.35-1.16.18-1.75-.18-.59-.57-1.07-1.11-1.36-3.71-2-5.15-1.45-5.63-1.27-1.46.55-2.05 1.86-2.47 3.18-.05.16-.17.28-.33.33-.16.05-.33.02-.46-.09-1.27-1.02-2.78-2.05-4.54-1.49-1.62.52-2.83 2.47-3.57 5.79C34.41 31.56 34.41 31.88 34.47 32.2L34.47 32.2zM23.77 143.87c-1.45 0-2.78-.97-3.18-2.43-.04-.16-.09-.32-.15-.49-1.33.65-3.26 1.37-5.17.26-1.84-1.07-2.26-3.06-2.42-4.56-.13.07-.26.14-.38.21-1.56.92-3.58.41-4.51-1.15-.66-1.11-.61-2.52.14-3.58l0 0c.27-.38.6-.69 1-.93 3.25-1.94 5.83-2.41 7.66-1.4 1.88 1.04 2.32 3 2.48 4.41 1.27-.53 2.71-.84 4.23-.1.56.27 2.25 1.09 3.47 5.6.23.85.11 1.74-.32 2.5-.44.76-1.15 1.31-2 1.54C24.34 143.83 24.05 143.87 23.77 143.87zM20.73 139.75c.06 0 .12.01.18.03.13.05.24.16.29.29.13.36.26.75.36 1.1.33 1.22 1.59 1.94 2.81 1.61.59-.16 1.08-.54 1.39-1.07.31-.53.39-1.15.23-1.74-1.1-4.07-2.49-4.74-2.94-4.96-1.4-.68-2.76-.21-4.01.39-.15.07-.32.07-.47-.02-.14-.08-.24-.23-.25-.39-.14-1.62-.42-3.43-2.03-4.32-1.49-.83-3.73-.36-6.66 1.38-.28.17-.51.38-.7.65 0 0 0 0 0 0-.52.74-.56 1.72-.1 2.49.64 1.08 2.05 1.45 3.14.8.34-.2.73-.4 1.11-.58.15-.07.32-.06.46.02.14.08.23.23.25.39.15 1.85.41 3.59 1.99 4.51 1.71.99 3.53.07 4.73-.55C20.57 139.76 20.65 139.75 20.73 139.75zM8.51 132.42L8.51 132.42 8.51 132.42zM183.12 143.87c-.45 0-.89-.09-1.31-.28-1.66-.72-2.43-2.66-1.71-4.33.07-.15.13-.31.19-.48-1.44-.32-3.4-.96-4.21-3.02-.77-1.99.14-3.8.95-5.08-.15-.03-.29-.05-.43-.07-1.8-.25-3.05-1.92-2.8-3.71.18-1.29 1.1-2.35 2.34-2.71l0 0c.44-.13.91-.16 1.37-.1 3.75.52 6.06 1.76 6.86 3.68.82 1.98-.06 3.79-.82 4.99 1.27.37 2.64 1.04 3.37 2.56.27.56 1.08 2.26-.78 6.54-.35.81-.99 1.43-1.81 1.75C183.94 143.79 183.53 143.87 183.12 143.87zM177.06 125.07c-.21 0-.42.03-.63.09 0 0 0 0 0 0-.87.25-1.51.99-1.63 1.89-.17 1.25.7 2.41 1.95 2.58.39.05.83.14 1.23.24.16.04.29.15.35.3.06.15.04.33-.05.46-1.04 1.54-1.92 3.06-1.26 4.77.72 1.84 2.71 2.25 4.04 2.52.14.03.26.12.33.24.07.12.09.27.04.41-.12.36-.27.75-.41 1.09-.5 1.16.03 2.51 1.19 3.01.56.24 1.18.26 1.75.03.57-.22 1.02-.66 1.26-1.22 1.68-3.86 1.02-5.25.8-5.71-.67-1.41-2.02-1.89-3.38-2.2-.16-.04-.29-.15-.35-.3-.06-.15-.04-.33.05-.46.91-1.35 1.81-2.94 1.11-4.64-.65-1.58-2.69-2.61-6.07-3.08C177.27 125.08 177.17 125.07 177.06 125.07zM176.29 124.68L176.29 124.68 176.29 124.68zM117.5 30.91c-1.37 0-2.66-.87-3.12-2.24-.05-.16-.11-.32-.18-.48-1.29.73-3.16 1.58-5.15.58-1.9-.96-2.45-2.92-2.7-4.4-.13.08-.25.16-.37.24-1.5 1.02-3.55.63-4.57-.87-.73-1.07-.76-2.48-.08-3.58.24-.39.56-.73.95-.99 3.13-2.13 5.67-2.76 7.56-1.87 1.94.92 2.5 2.86 2.74 4.25 1.19-.58 2.66-1 4.22-.36.57.24 2.32.96 3.81 5.38.28.83.22 1.73-.17 2.51-.39.79-1.06 1.38-1.9 1.66C118.2 30.86 117.85 30.91 117.5 30.91zM114.44 26.97c.05 0 .1.01.15.02.14.04.25.14.3.27.15.35.31.73.42 1.08.4 1.2 1.71 1.84 2.9 1.44.58-.2 1.05-.6 1.32-1.15.27-.55.31-1.17.12-1.75-1.35-3.99-2.77-4.58-3.24-4.77-1.45-.6-2.82-.01-3.98.64-.14.08-.32.09-.47.01-.15-.07-.25-.21-.27-.38-.24-1.61-.63-3.4-2.29-4.19-1.54-.73-3.75-.13-6.56 1.79-.27.18-.49.41-.66.69l0 0c-.47.77-.45 1.75.05 2.49.71 1.04 2.14 1.31 3.18.61.33-.22.71-.45 1.07-.65.15-.08.32-.08.46-.01.15.07.25.21.27.38.26 1.84.63 3.56 2.27 4.38 1.76.88 3.52-.15 4.69-.84C114.27 27 114.35 26.97 114.44 26.97zM101.77 20.42L101.77 20.42 101.77 20.42zM170.62 74.74c-3.02 0-7.63-1.51-9.49-7.44-.31-.99-.14-2.03.46-2.87l0 0c.7-.99 1.88-1.49 3.15-1.35 1.18.13 2.22 1.05 2.64 2.35 1.01 3.1 3.22 2.83 3.47 2.78.86-.14 1.72.05 2.43.56.71.51 1.18 1.26 1.33 2.12.15.86-.05 1.72-.56 2.43-.51.71-1.26 1.18-2.12 1.33C171.54 74.7 171.1 74.74 170.62 74.74zM164.31 64.05c-.79 0-1.47.34-1.91.95l0 0c-.42.58-.53 1.31-.32 1.99 1.95 6.23 7.18 7.08 9.68 6.65.6-.1 1.12-.43 1.47-.92s.49-1.09.39-1.69c-.1-.6-.43-1.12-.92-1.47-.49-.35-1.09-.49-1.69-.39-.33.06-3.32.44-4.58-3.46-.3-.92-1.01-1.57-1.8-1.66C164.52 64.06 164.41 64.05 164.31 64.05zM161.99 64.71L161.99 64.71 161.99 64.71zM29.36 105.24c-3.02 0-7.63-1.51-9.5-7.44-.31-.98-.14-2.03.46-2.87 0 0 0 0 0 0 .42-.58 1-1 1.68-1.22.83-.26 1.72-.18 2.49.22.77.4 1.34 1.08 1.6 1.92 1 3.18 3.24 2.9 3.49 2.86.86-.14 1.72.05 2.44.56.71.5 1.18 1.26 1.33 2.12.15.86-.05 1.72-.56 2.43-.51.71-1.26 1.18-2.12 1.33C30.29 105.21 29.85 105.24 29.36 105.24zM21.14 95.51c-.42.58-.53 1.31-.32 1.99 1.95 6.22 7.19 7.07 9.68 6.65.6-.1 1.12-.43 1.47-.92.35-.49.49-1.09.39-1.69-.1-.6-.43-1.12-.92-1.47-.49-.35-1.09-.49-1.69-.39-.34.06-3.36.45-4.61-3.54-.18-.58-.58-1.05-1.11-1.33-.54-.28-1.15-.33-1.73-.15C21.83 94.81 21.43 95.1 21.14 95.51L21.14 95.51z" fill="#000000" class="color000000 svgShape"></path>
    </g>
  </g>
</svg>
