<svg xmlns="http://www.w3.org/2000/svg" xml:space="preserve" id="Bricksgame" x="0" y="0" enable-background="new 0 0 64 64" version="1.1" viewBox="0 0 64 64">
  <path d="M49.63,0H14.37c-1.83,0-3.32,1.49-3.32,3.32v57.36c0,1.83,1.49,3.32,3.32,3.32h35.26c1.83,0,3.32-1.49,3.32-3.32V3.32
		C52.95,1.49,51.46,0,49.63,0z M51.01,60.68c0,0.76-0.62,1.38-1.38,1.38H14.37c-0.76,0-1.38-0.62-1.38-1.38V3.32
		c0-0.76,0.62-1.38,1.38-1.38h35.26c0.76,0,1.38,0.62,1.38,1.38V60.68z" fill="#000000" class="color000000 svgShape"></path>
  <path fill="#34a853" d="M49.63,1.94H14.37c-0.76,0-1.38,0.62-1.38,1.38v57.36c0,0.76,0.62,1.38,1.38,1.38h35.26
		c0.76,0,1.38-0.62,1.38-1.38V3.32C51.01,2.56,50.39,1.94,49.63,1.94z M26.74,3.36h10.52c0.54,0,0.97,0.43,0.97,0.97
		c0,0.53-0.43,0.97-0.97,0.97H26.74c-0.54,0-0.97-0.44-0.97-0.97C25.77,3.79,26.2,3.36,26.74,3.36z M32,61.66
		c-1.66,0-3.02-1.36-3.02-3.02s1.36-3.02,3.02-3.02s3.02,1.36,3.02,3.02S33.66,61.66,32,61.66z M49.23,54.17
		c0,0.54-0.44,0.97-0.97,0.97H15.74c-0.53,0-0.97-0.43-0.97-0.97V7.63c0-0.53,0.44-0.97,0.97-0.97h32.52c0.53,0,0.97,0.44,0.97,0.97
		V54.17z" class="color29354e svgShape"></path>
  <path d="M48.26,6.66H15.74c-0.53,0-0.97,0.44-0.97,0.97v46.54c0,0.54,0.44,0.97,0.97,0.97h32.52c0.53,0,0.97-0.43,0.97-0.97V7.63
		C49.23,7.1,48.79,6.66,48.26,6.66z M47.29,53.2H16.71V8.6h30.58V53.2z" fill="#000000" class="color000000 svgShape"></path>
  <path fill="#e1e4e8" d="M16.71,8.6v44.6h30.58V8.6H16.71z M24.49,12.34c0-0.54,0.44-0.97,0.97-0.97H32c0.54,0,0.97,0.43,0.97,0.97
		v5.56h5.57c0.53,0,0.97,0.44,0.97,0.97v13.07c0,0.54-0.44,0.97-0.97,0.97H32c-0.54,0-0.97-0.43-0.97-0.97v-5.56h-5.57
		c-0.53,0-0.97-0.44-0.97-0.97V12.34z M46.04,50.66c0,0.53-0.43,0.97-0.97,0.97H18.93c-0.54,0-0.97-0.44-0.97-0.97V37.6
		c0-0.53,0.43-0.97,0.97-0.97h6.53c0.54,0,0.97,0.44,0.97,0.97v5.55h4.6V37.6c0-0.53,0.43-0.97,0.97-0.97h6.54
		c0.53,0,0.97,0.44,0.97,0.97v5.55h5.56c0.54,0,0.97,0.44,0.97,0.97V50.66z" class="colore8e7e1 svgShape"></path>
  <path d="M32,55.62c-1.66,0-3.02,1.36-3.02,3.02s1.36,3.02,3.02,3.02s3.02-1.36,3.02-3.02S33.66,55.62,32,55.62z M32,59.72
		c-0.59,0-1.08-0.49-1.08-1.08c0-0.6,0.49-1.08,1.08-1.08s1.08,0.48,1.08,1.08C33.08,59.23,32.59,59.72,32,59.72z" fill="#000000" class="color000000 svgShape"></path>
  <circle cx="32" cy="58.64" r="1.08" fill="#23422b" class="color232e42 svgShape"></circle>
  <path d="M45.07,43.15h-5.56V37.6c0-0.53-0.44-0.97-0.97-0.97H32c-0.54,0-0.97,0.44-0.97,0.97v5.55h-4.6V37.6
		c0-0.53-0.43-0.97-0.97-0.97h-6.53c-0.54,0-0.97,0.44-0.97,0.97v13.06c0,0.53,0.43,0.97,0.97,0.97h26.14
		c0.54,0,0.97-0.44,0.97-0.97v-6.54C46.04,43.59,45.61,43.15,45.07,43.15z M24.49,49.69H19.9v-4.6h4.59V49.69z M24.49,43.15H19.9
		v-4.58h4.59V43.15z M31.03,49.69h-4.6v-4.6h4.6V49.69z M37.57,49.69h-4.6v-4.6h4.6V49.69z M37.57,43.15h-4.6v-4.58h4.6V43.15z
		 M44.1,49.69h-4.59v-4.6h4.59V49.69z" fill="#000000" class="color000000 svgShape"></path>
  <rect width="4.59" height="4.6" x="39.51" y="45.09" fill="#fbbc05" class="colorfddb18 svgShape"></rect>
  <rect width="4.6" height="4.6" x="32.97" y="45.09" fill="#fbbc05" class="colorfddb18 svgShape"></rect>
  <rect width="4.6" height="4.58" x="32.97" y="38.57" fill="#fbbc05" class="colorfddb18 svgShape"></rect>
  <rect width="4.6" height="4.6" x="26.43" y="45.09" fill="#fbbc05" class="colorfddb18 svgShape"></rect>
  <rect width="4.59" height="4.6" x="19.9" y="45.09" fill="#ea4335" class="coloree3e32 svgShape"></rect>
  <rect width="4.59" height="4.58" x="19.9" y="38.57" fill="#ea4335" class="coloree3e32 svgShape"></rect>
  <path d="M38.54,17.9h-5.57v-5.56c0-0.54-0.43-0.97-0.97-0.97h-6.54c-0.53,0-0.97,0.43-0.97,0.97v13.07c0,0.53,0.44,0.97,0.97,0.97
		h5.57v5.56c0,0.54,0.43,0.97,0.97,0.97h6.54c0.53,0,0.97-0.43,0.97-0.97V18.87C39.51,18.34,39.07,17.9,38.54,17.9z M31.03,24.44
		h-4.6v-4.6h4.6V24.44z M31.03,17.9h-4.6v-4.59h4.6V17.9z M37.57,30.97h-4.6v-4.59h4.6V30.97z M37.57,24.44h-4.6v-4.6h4.6V24.44z" fill="#000000" class="color000000 svgShape"></path>
  <rect width="4.6" height="4.59" x="32.97" y="26.38" fill="#4285f4" class="color6bc7db svgShape"></rect>
  <rect width="4.6" height="4.6" x="32.97" y="19.84" fill="#4285f4" class="color6bc7db svgShape"></rect>
  <rect width="4.6" height="4.6" x="26.43" y="19.84" fill="#4285f4" class="color6bc7db svgShape"></rect>
  <rect width="4.6" height="4.59" x="26.43" y="13.31" fill="#4285f4" class="color6bc7db svgShape"></rect>
  <path d="M38.23,4.33c0,0.53-0.43,0.97-0.97,0.97H26.74c-0.54,0-0.97-0.44-0.97-0.97c0-0.54,0.43-0.97,0.97-0.97h10.52
		C37.8,3.36,38.23,3.79,38.23,4.33z" fill="#000000" class="color000000 svgShape"></path>
</svg>
